%TF.GenerationSoftware,KiCad,Pcbnew,7.0.10*%
%TF.CreationDate,2024-01-06T19:25:43+00:00*%
%TF.ProjectId,v1a,7631612e-6b69-4636-9164-5f7063625858,rev?*%
%TF.SameCoordinates,Original*%
%TF.FileFunction,Copper,L1,Top*%
%TF.FilePolarity,Positive*%
%FSLAX46Y46*%
G04 Gerber Fmt 4.6, Leading zero omitted, Abs format (unit mm)*
G04 Created by KiCad (PCBNEW 7.0.10) date 2024-01-06 19:25:43*
%MOMM*%
%LPD*%
G01*
G04 APERTURE LIST*
G04 Aperture macros list*
%AMRoundRect*
0 Rectangle with rounded corners*
0 $1 Rounding radius*
0 $2 $3 $4 $5 $6 $7 $8 $9 X,Y pos of 4 corners*
0 Add a 4 corners polygon primitive as box body*
4,1,4,$2,$3,$4,$5,$6,$7,$8,$9,$2,$3,0*
0 Add four circle primitives for the rounded corners*
1,1,$1+$1,$2,$3*
1,1,$1+$1,$4,$5*
1,1,$1+$1,$6,$7*
1,1,$1+$1,$8,$9*
0 Add four rect primitives between the rounded corners*
20,1,$1+$1,$2,$3,$4,$5,0*
20,1,$1+$1,$4,$5,$6,$7,0*
20,1,$1+$1,$6,$7,$8,$9,0*
20,1,$1+$1,$8,$9,$2,$3,0*%
G04 Aperture macros list end*
%TA.AperFunction,ComponentPad*%
%ADD10R,1.600000X1.600000*%
%TD*%
%TA.AperFunction,ComponentPad*%
%ADD11O,1.600000X1.600000*%
%TD*%
%TA.AperFunction,ComponentPad*%
%ADD12C,1.600000*%
%TD*%
%TA.AperFunction,ComponentPad*%
%ADD13R,1.422400X1.422400*%
%TD*%
%TA.AperFunction,ComponentPad*%
%ADD14C,1.422400*%
%TD*%
%TA.AperFunction,SMDPad,CuDef*%
%ADD15RoundRect,0.508000X-0.508000X-2.464500X0.508000X-2.464500X0.508000X2.464500X-0.508000X2.464500X0*%
%TD*%
%TA.AperFunction,SMDPad,CuDef*%
%ADD16RoundRect,0.508000X-0.508000X-2.468000X0.508000X-2.468000X0.508000X2.468000X-0.508000X2.468000X0*%
%TD*%
%TA.AperFunction,ComponentPad*%
%ADD17C,1.400000*%
%TD*%
%TA.AperFunction,ComponentPad*%
%ADD18O,1.400000X1.400000*%
%TD*%
%TA.AperFunction,ViaPad*%
%ADD19C,0.800000*%
%TD*%
%TA.AperFunction,Conductor*%
%ADD20C,0.500000*%
%TD*%
%TA.AperFunction,Conductor*%
%ADD21C,0.250000*%
%TD*%
G04 APERTURE END LIST*
D10*
%TO.P,D1,1,K*%
%TO.N,Net-(D1-K)*%
X86355000Y-78740000D03*
D11*
%TO.P,D1,2,A*%
%TO.N,~{SEL}*%
X93975000Y-78740000D03*
%TD*%
D12*
%TO.P,C1,1*%
%TO.N,GND*%
X58928000Y-74890000D03*
%TO.P,C1,2*%
%TO.N,+5V*%
X58928000Y-72390000D03*
%TD*%
D13*
%TO.P,U1,1,A18*%
%TO.N,B3*%
X66040000Y-72390000D03*
D14*
%TO.P,U1,2,A16*%
%TO.N,B1*%
X63500000Y-74930000D03*
%TO.P,U1,3,A15*%
%TO.N,B0*%
X66040000Y-74930000D03*
%TO.P,U1,4,A12*%
%TO.N,A12*%
X63500000Y-77470000D03*
%TO.P,U1,5,A7*%
%TO.N,A7*%
X66040000Y-80010000D03*
%TO.P,U1,6,A6*%
%TO.N,A6*%
X66040000Y-77470000D03*
%TO.P,U1,7,A5*%
%TO.N,A5*%
X68580000Y-80010000D03*
%TO.P,U1,8,A4*%
%TO.N,A4*%
X68580000Y-77470000D03*
%TO.P,U1,9,A3*%
%TO.N,A3*%
X71120000Y-80010000D03*
%TO.P,U1,10,A2*%
%TO.N,A2*%
X71120000Y-77470000D03*
%TO.P,U1,11,A1*%
%TO.N,A1*%
X73660000Y-80010000D03*
%TO.P,U1,12,A0*%
%TO.N,A0*%
X73660000Y-77470000D03*
%TO.P,U1,13,D0*%
%TO.N,D0*%
X76200000Y-80010000D03*
%TO.P,U1,14,D1*%
%TO.N,D1*%
X78740000Y-77470000D03*
%TO.P,U1,15,D2*%
%TO.N,D2*%
X76200000Y-77470000D03*
%TO.P,U1,16,VSS*%
%TO.N,GND*%
X78740000Y-74930000D03*
%TO.P,U1,17,D3*%
%TO.N,D3*%
X76200000Y-74930000D03*
%TO.P,U1,18,D4*%
%TO.N,D4*%
X78740000Y-72390000D03*
%TO.P,U1,19,D5*%
%TO.N,D5*%
X76200000Y-72390000D03*
%TO.P,U1,20,D6*%
%TO.N,D6*%
X78740000Y-69850000D03*
%TO.P,U1,21,D7*%
%TO.N,D7*%
X76200000Y-67310000D03*
%TO.P,U1,22,~{CE}*%
%TO.N,Net-(D1-K)*%
X76200000Y-69850000D03*
%TO.P,U1,23,A10*%
%TO.N,A10*%
X73660000Y-67310000D03*
%TO.P,U1,24,~{OE}*%
%TO.N,~{R}{slash}W*%
X73660000Y-69850000D03*
%TO.P,U1,25,A11*%
%TO.N,A11*%
X71120000Y-67310000D03*
%TO.P,U1,26,A9*%
%TO.N,A9*%
X71120000Y-69850000D03*
%TO.P,U1,27,A8*%
%TO.N,A8*%
X68580000Y-67310000D03*
%TO.P,U1,28,A13*%
%TO.N,A13*%
X68580000Y-69850000D03*
%TO.P,U1,29,A14*%
%TO.N,A14*%
X66040000Y-67310000D03*
%TO.P,U1,30,A17*%
%TO.N,B2*%
X63500000Y-69850000D03*
%TO.P,U1,31,~{WE}*%
%TO.N,R{slash}~{W}*%
X66040000Y-69850000D03*
%TO.P,U1,32,VDD*%
%TO.N,+5V*%
X63500000Y-72390000D03*
%TD*%
D10*
%TO.P,D2,1,K*%
%TO.N,Net-(D1-K)*%
X86355000Y-76200000D03*
D11*
%TO.P,D2,2,A*%
%TO.N,~{CART}*%
X93975000Y-76200000D03*
%TD*%
D15*
%TO.P,J1,1,Pin_1*%
%TO.N,GND*%
X43180000Y-91440000D03*
%TO.P,J1,3,Pin_3*%
%TO.N,A15*%
X45720000Y-91440000D03*
%TO.P,J1,5,Pin_5*%
%TO.N,A14*%
X48260000Y-91440000D03*
%TO.P,J1,7,Pin_7*%
%TO.N,A13*%
X50800000Y-91440000D03*
%TO.P,J1,9,Pin_9*%
%TO.N,A12*%
X53340000Y-91440000D03*
%TO.P,J1,11,Pin_11*%
%TO.N,A11*%
X55880000Y-91440000D03*
D16*
%TO.P,J1,13,Pin_13*%
%TO.N,A10*%
X58420000Y-91443500D03*
%TO.P,J1,15,Pin_15*%
%TO.N,A9*%
X60960000Y-91443500D03*
D15*
%TO.P,J1,17,Pin_17*%
%TO.N,A8*%
X63500000Y-91440000D03*
%TO.P,J1,19,Pin_19*%
%TO.N,A7*%
X66040000Y-91440000D03*
%TO.P,J1,21,Pin_21*%
%TO.N,A6*%
X68580000Y-91440000D03*
%TO.P,J1,23,Pin_23*%
%TO.N,A5*%
X71120000Y-91440000D03*
%TO.P,J1,25,Pin_25*%
%TO.N,A4*%
X73660000Y-91440000D03*
%TO.P,J1,27,Pin_27*%
%TO.N,A3*%
X76200000Y-91440000D03*
D16*
%TO.P,J1,29,Pin_29*%
%TO.N,A2*%
X78740000Y-91443500D03*
D15*
%TO.P,J1,31,Pin_31*%
%TO.N,A1*%
X81280000Y-91440000D03*
%TO.P,J1,33,Pin_33*%
%TO.N,A0*%
X83820000Y-91440000D03*
D16*
%TO.P,J1,35,Pin_35*%
%TO.N,~{CART}*%
X86360000Y-91443500D03*
D15*
%TO.P,J1,37,Pin_37*%
%TO.N,~{NMI}*%
X88900000Y-91440000D03*
%TO.P,J1,39,Pin_39*%
%TO.N,~{RESET}*%
X91440000Y-91440000D03*
%TO.P,J1,41,Pin_41*%
%TO.N,~{SEL}*%
X93980000Y-91440000D03*
%TO.P,J1,43,Pin_43*%
%TO.N,unconnected-(J1-Pin_43-Pad43)*%
X96520000Y-91440000D03*
%TD*%
D17*
%TO.P,R1,1*%
%TO.N,GND*%
X93975000Y-73660000D03*
D18*
%TO.P,R1,2*%
%TO.N,Net-(D1-K)*%
X86355000Y-73660000D03*
%TD*%
D19*
%TO.N,GND*%
X49580800Y-84074000D03*
X51943000Y-77978000D03*
X69977000Y-87630000D03*
X64617600Y-80162400D03*
X87376000Y-87376000D03*
X49428400Y-73533000D03*
X75438000Y-85598000D03*
X57251600Y-69697600D03*
X52019200Y-85013800D03*
X54864000Y-85090000D03*
X49530000Y-79959200D03*
X52120800Y-87884000D03*
X56642000Y-86106000D03*
X77393800Y-76123800D03*
X83439000Y-72390000D03*
X51993800Y-72136000D03*
X49809400Y-86995000D03*
X57810400Y-82397600D03*
X77470000Y-84074000D03*
X61214000Y-65786000D03*
X60706000Y-84836000D03*
X50292000Y-64516000D03*
X47040800Y-86791800D03*
X77393800Y-68681600D03*
X51993800Y-81686400D03*
X67462400Y-74879200D03*
X67310000Y-87630000D03*
X72390000Y-87630000D03*
X65024000Y-87630000D03*
X80391000Y-72517000D03*
X57658000Y-87630000D03*
X80010000Y-86995000D03*
X56997600Y-66395600D03*
X58674000Y-65024000D03*
X90424000Y-83566000D03*
X59131200Y-83566000D03*
X67310000Y-66040000D03*
X80772000Y-83312000D03*
X54102000Y-75946000D03*
X54356000Y-65786000D03*
X54356000Y-82804000D03*
X46024800Y-83159600D03*
X58420000Y-80264000D03*
X85090000Y-87376000D03*
X45720000Y-76454000D03*
X61976000Y-86360000D03*
X83235800Y-77317600D03*
X80467200Y-77241400D03*
X59182000Y-78486000D03*
X60960000Y-70612000D03*
X86690200Y-81153000D03*
X71628000Y-64008000D03*
X92964000Y-80518000D03*
%TO.N,A14*%
X52070000Y-67310000D03*
%TO.N,A13*%
X52070000Y-69850000D03*
%TO.N,A12*%
X53340000Y-78105000D03*
%TO.N,B3*%
X67995800Y-72567800D03*
X75057000Y-87757000D03*
%TO.N,B2*%
X68849466Y-71866534D03*
X78740000Y-86106000D03*
%TO.N,B1*%
X70231000Y-71755000D03*
X81534000Y-85344000D03*
%TO.N,B0*%
X71577200Y-71831200D03*
X84582000Y-84582000D03*
%TO.N,~{R}{slash}W*%
X81788000Y-72390000D03*
%TO.N,R{slash}~{W}*%
X84328000Y-74422000D03*
%TD*%
D20*
%TO.N,GND*%
X64617600Y-87223600D02*
X65024000Y-87630000D01*
X43180000Y-71628000D02*
X50292000Y-64516000D01*
X50292000Y-64516000D02*
X53086000Y-64516000D01*
X64617600Y-80162400D02*
X64617600Y-87223600D01*
X90424000Y-83566000D02*
X87376000Y-86614000D01*
X54356000Y-65786000D02*
X54356000Y-75692000D01*
X53086000Y-64516000D02*
X54356000Y-65786000D01*
X54356000Y-75692000D02*
X54102000Y-75946000D01*
X87376000Y-86614000D02*
X87376000Y-87376000D01*
X43180000Y-91440000D02*
X43180000Y-71628000D01*
%TO.N,+5V*%
X63500000Y-72390000D02*
X58928000Y-72390000D01*
D21*
%TO.N,Net-(D1-K)*%
X86355000Y-73660000D02*
X83581200Y-70886200D01*
X86355000Y-73660000D02*
X86355000Y-76200000D01*
X86355000Y-78740000D02*
X86355000Y-76200000D01*
X77236200Y-70886200D02*
X76200000Y-69850000D01*
X83581200Y-70886200D02*
X77236200Y-70886200D01*
%TO.N,~{SEL}*%
X93980000Y-78745000D02*
X93975000Y-78740000D01*
X93980000Y-91440000D02*
X93980000Y-78745000D01*
%TO.N,~{CART}*%
X93975000Y-76200000D02*
X86360000Y-83815000D01*
X86360000Y-83815000D02*
X86360000Y-91443500D01*
%TO.N,A14*%
X48260000Y-91440000D02*
X48260000Y-71120000D01*
X48260000Y-71120000D02*
X52070000Y-67310000D01*
%TO.N,A13*%
X50800000Y-91440000D02*
X50800000Y-71120000D01*
X50800000Y-71120000D02*
X52070000Y-69850000D01*
%TO.N,A12*%
X53340000Y-78105000D02*
X53340000Y-91440000D01*
%TO.N,A11*%
X72156200Y-68346200D02*
X74089209Y-68346200D01*
X55817000Y-91377000D02*
X55880000Y-91440000D01*
X59944000Y-61976000D02*
X55817000Y-66103000D01*
X74930000Y-67505409D02*
X74930000Y-66040000D01*
X71120000Y-67310000D02*
X72156200Y-68346200D01*
X74930000Y-66040000D02*
X70866000Y-61976000D01*
X55817000Y-66103000D02*
X55817000Y-91377000D01*
X70866000Y-61976000D02*
X59944000Y-61976000D01*
X74089209Y-68346200D02*
X74930000Y-67505409D01*
%TO.N,A10*%
X58674000Y-86614000D02*
X56388000Y-84328000D01*
X58674000Y-91189500D02*
X58674000Y-86614000D01*
X69850000Y-63500000D02*
X73660000Y-67310000D01*
X56388000Y-84328000D02*
X56388000Y-68834000D01*
X56388000Y-68834000D02*
X61722000Y-63500000D01*
X61722000Y-63500000D02*
X69850000Y-63500000D01*
X58420000Y-91443500D02*
X58674000Y-91189500D01*
%TO.N,A9*%
X71120000Y-69850000D02*
X69850000Y-68580000D01*
X69850000Y-65889273D02*
X69111727Y-65151000D01*
X63119000Y-65151000D02*
X56896000Y-71374000D01*
X69850000Y-68580000D02*
X69850000Y-65889273D01*
X56896000Y-83058000D02*
X60960000Y-87122000D01*
X56896000Y-71374000D02*
X56896000Y-83058000D01*
X69111727Y-65151000D02*
X63119000Y-65151000D01*
X60960000Y-87122000D02*
X60960000Y-91443500D01*
%TO.N,A8*%
X67310000Y-68580000D02*
X68580000Y-67310000D01*
X63500000Y-80010000D02*
X64770000Y-78740000D01*
X63500000Y-91440000D02*
X63500000Y-80010000D01*
X64770000Y-69498295D02*
X65688295Y-68580000D01*
X65688295Y-68580000D02*
X67310000Y-68580000D01*
X64770000Y-78740000D02*
X64770000Y-69498295D01*
%TO.N,A7*%
X66040000Y-80010000D02*
X66040000Y-91440000D01*
%TO.N,A6*%
X67310000Y-83820000D02*
X67310000Y-78740000D01*
X67310000Y-78740000D02*
X66040000Y-77470000D01*
X68580000Y-85090000D02*
X67310000Y-83820000D01*
X68580000Y-91440000D02*
X68580000Y-85090000D01*
%TO.N,A5*%
X68580000Y-80010000D02*
X68580000Y-83566000D01*
X71120000Y-86106000D02*
X71120000Y-91440000D01*
X68580000Y-83566000D02*
X71120000Y-86106000D01*
%TO.N,A4*%
X73660000Y-91440000D02*
X73660000Y-87630000D01*
X69616200Y-83586200D02*
X69616200Y-78506200D01*
X73660000Y-87630000D02*
X69616200Y-83586200D01*
X69616200Y-78506200D02*
X68580000Y-77470000D01*
%TO.N,A3*%
X71120000Y-82550000D02*
X76200000Y-87630000D01*
X71120000Y-80010000D02*
X71120000Y-82550000D01*
X76200000Y-87630000D02*
X76200000Y-91440000D01*
%TO.N,B3*%
X70083800Y-74655800D02*
X70083800Y-82783800D01*
X67995800Y-72567800D02*
X70083800Y-74655800D01*
X70083800Y-82783800D02*
X75057000Y-87757000D01*
%TO.N,A2*%
X78740000Y-91443500D02*
X78740000Y-87630000D01*
X72156200Y-81046200D02*
X72156200Y-79502000D01*
X78740000Y-87630000D02*
X72156200Y-81046200D01*
X71120000Y-78486000D02*
X71140200Y-78486000D01*
X71120000Y-77470000D02*
X71120000Y-78486000D01*
X71140200Y-78486000D02*
X72156200Y-79502000D01*
%TO.N,B2*%
X72156200Y-78865604D02*
X72606200Y-79315604D01*
X69072534Y-71866534D02*
X72156200Y-74950200D01*
X72606200Y-80734200D02*
X77978000Y-86106000D01*
X77978000Y-86106000D02*
X78740000Y-86106000D01*
X72606200Y-79315604D02*
X72606200Y-80734200D01*
X72156200Y-74950200D02*
X72156200Y-78865604D01*
X68849466Y-71866534D02*
X69072534Y-71866534D01*
%TO.N,A1*%
X81280000Y-86360000D02*
X81280000Y-91440000D01*
X75057000Y-82042000D02*
X76962000Y-82042000D01*
X76962000Y-82042000D02*
X81280000Y-86360000D01*
X73660000Y-80010000D02*
X73660000Y-80645000D01*
X73660000Y-80645000D02*
X75057000Y-82042000D01*
%TO.N,B1*%
X74930000Y-80205409D02*
X76004591Y-81280000D01*
X73152000Y-78740000D02*
X73914000Y-78740000D01*
X72606200Y-74130200D02*
X72606200Y-78194200D01*
X76004591Y-81280000D02*
X77470000Y-81280000D01*
X73914000Y-78740000D02*
X74930000Y-79756000D01*
X70231000Y-71755000D02*
X72606200Y-74130200D01*
X74930000Y-79756000D02*
X74930000Y-80205409D01*
X72606200Y-78194200D02*
X73152000Y-78740000D01*
X77470000Y-81280000D02*
X81534000Y-85344000D01*
%TO.N,A0*%
X83820000Y-85090000D02*
X77703800Y-78973800D01*
X75163800Y-78973800D02*
X73660000Y-77470000D01*
X83820000Y-91440000D02*
X83820000Y-85090000D01*
X77703800Y-78973800D02*
X75163800Y-78973800D01*
%TO.N,B0*%
X84074000Y-84582000D02*
X84582000Y-84582000D01*
X75770791Y-78506200D02*
X77998200Y-78506200D01*
X77998200Y-78506200D02*
X84074000Y-84582000D01*
X71577200Y-71831200D02*
X72593200Y-71831200D01*
X74930000Y-74168000D02*
X74930000Y-77665409D01*
X72593200Y-71831200D02*
X74930000Y-74168000D01*
X74930000Y-77665409D02*
X75770791Y-78506200D01*
%TO.N,~{R}{slash}W*%
X75146200Y-71336200D02*
X73660000Y-69850000D01*
X80734200Y-71336200D02*
X75146200Y-71336200D01*
X81788000Y-72390000D02*
X80734200Y-71336200D01*
%TO.N,R{slash}~{W}*%
X67120000Y-70930000D02*
X73216000Y-70930000D01*
X75712200Y-73426200D02*
X83332200Y-73426200D01*
X83332200Y-73426200D02*
X84328000Y-74422000D01*
X73216000Y-70930000D02*
X75712200Y-73426200D01*
X66040000Y-69850000D02*
X67120000Y-70930000D01*
%TD*%
%TA.AperFunction,Conductor*%
%TO.N,GND*%
G36*
X96208415Y-56942501D02*
G01*
X96218405Y-56942501D01*
X96261571Y-56942501D01*
X96270417Y-56942817D01*
X96503577Y-56959492D01*
X96521078Y-56962009D01*
X96745156Y-57010754D01*
X96762121Y-57015735D01*
X96976991Y-57095877D01*
X96993064Y-57103218D01*
X97194332Y-57213118D01*
X97194336Y-57213120D01*
X97209219Y-57222685D01*
X97392791Y-57360105D01*
X97406162Y-57371691D01*
X97568308Y-57533837D01*
X97579894Y-57547208D01*
X97717314Y-57730780D01*
X97726879Y-57745663D01*
X97836776Y-57946924D01*
X97844124Y-57963014D01*
X97850015Y-57978807D01*
X97924262Y-58177873D01*
X97929246Y-58194848D01*
X97977989Y-58418916D01*
X97980507Y-58436428D01*
X97997183Y-58669581D01*
X97997499Y-58678427D01*
X97997499Y-88220571D01*
X97977814Y-88287610D01*
X97925010Y-88333365D01*
X97855852Y-88343309D01*
X97792296Y-88314284D01*
X97777647Y-88299237D01*
X97744569Y-88258932D01*
X97591005Y-88132905D01*
X97590998Y-88132901D01*
X97415808Y-88039260D01*
X97291167Y-88001451D01*
X97225701Y-87981592D01*
X97225699Y-87981591D01*
X97225701Y-87981591D01*
X97119415Y-87971123D01*
X97077547Y-87967000D01*
X97077543Y-87967000D01*
X95962457Y-87967000D01*
X95814300Y-87981591D01*
X95624191Y-88039260D01*
X95449001Y-88132901D01*
X95448995Y-88132905D01*
X95328664Y-88231658D01*
X95264354Y-88258970D01*
X95195487Y-88247179D01*
X95171336Y-88231658D01*
X95051004Y-88132905D01*
X95050998Y-88132901D01*
X94875805Y-88039259D01*
X94693504Y-87983958D01*
X94635066Y-87945661D01*
X94606609Y-87881849D01*
X94605500Y-87865298D01*
X94605500Y-79950686D01*
X94625185Y-79883647D01*
X94658374Y-79849113D01*
X94814139Y-79740047D01*
X94975047Y-79579139D01*
X95105568Y-79392734D01*
X95201739Y-79186496D01*
X95260635Y-78966692D01*
X95280468Y-78740000D01*
X95260635Y-78513308D01*
X95201739Y-78293504D01*
X95105568Y-78087266D01*
X94986168Y-77916744D01*
X94975045Y-77900858D01*
X94814141Y-77739954D01*
X94627734Y-77609432D01*
X94627728Y-77609429D01*
X94569882Y-77582455D01*
X94569724Y-77582381D01*
X94517285Y-77536210D01*
X94498133Y-77469017D01*
X94518348Y-77402135D01*
X94569725Y-77357618D01*
X94627734Y-77330568D01*
X94814139Y-77200047D01*
X94975047Y-77039139D01*
X95105568Y-76852734D01*
X95201739Y-76646496D01*
X95260635Y-76426692D01*
X95280468Y-76200000D01*
X95276197Y-76151188D01*
X95269355Y-76072975D01*
X95260635Y-75973308D01*
X95201739Y-75753504D01*
X95105568Y-75547266D01*
X94975047Y-75360861D01*
X94975045Y-75360858D01*
X94814141Y-75199954D01*
X94627734Y-75069432D01*
X94627732Y-75069431D01*
X94451631Y-74987313D01*
X94399192Y-74941140D01*
X94380040Y-74873947D01*
X94400256Y-74807066D01*
X94453422Y-74761731D01*
X94459243Y-74759304D01*
X94512174Y-74738798D01*
X94512181Y-74738795D01*
X94628326Y-74666879D01*
X93975001Y-74013553D01*
X93975000Y-74013553D01*
X93321672Y-74666879D01*
X93321672Y-74666880D01*
X93437821Y-74738797D01*
X93437831Y-74738802D01*
X93490756Y-74759306D01*
X93546158Y-74801879D01*
X93569748Y-74867645D01*
X93554037Y-74935726D01*
X93504013Y-74984504D01*
X93498367Y-74987314D01*
X93322267Y-75069431D01*
X93322265Y-75069432D01*
X93135858Y-75199954D01*
X92974954Y-75360858D01*
X92844432Y-75547265D01*
X92844431Y-75547267D01*
X92748261Y-75753502D01*
X92748258Y-75753511D01*
X92689366Y-75973302D01*
X92689364Y-75973313D01*
X92672681Y-76164003D01*
X92669532Y-76200000D01*
X92689364Y-76426686D01*
X92689365Y-76426691D01*
X92689366Y-76426697D01*
X92707680Y-76495048D01*
X92706017Y-76564897D01*
X92675586Y-76614821D01*
X85976208Y-83314199D01*
X85963951Y-83324020D01*
X85964134Y-83324241D01*
X85958122Y-83329214D01*
X85912098Y-83378223D01*
X85909391Y-83381016D01*
X85889889Y-83400517D01*
X85889875Y-83400534D01*
X85887407Y-83403715D01*
X85879843Y-83412570D01*
X85849937Y-83444418D01*
X85849936Y-83444420D01*
X85840284Y-83461976D01*
X85829610Y-83478226D01*
X85817329Y-83494061D01*
X85817324Y-83494068D01*
X85799975Y-83534158D01*
X85794838Y-83544644D01*
X85773803Y-83582906D01*
X85768822Y-83602307D01*
X85762521Y-83620710D01*
X85754562Y-83639102D01*
X85754561Y-83639105D01*
X85747728Y-83682243D01*
X85745360Y-83693674D01*
X85734501Y-83735971D01*
X85734500Y-83735982D01*
X85734500Y-83756016D01*
X85732973Y-83775415D01*
X85729840Y-83795194D01*
X85729840Y-83795195D01*
X85733950Y-83838674D01*
X85734500Y-83850343D01*
X85734500Y-84566368D01*
X85732093Y-84574562D01*
X85732477Y-84575324D01*
X85734500Y-84597631D01*
X85734500Y-87865298D01*
X85714815Y-87932337D01*
X85662011Y-87978092D01*
X85646496Y-87983958D01*
X85464194Y-88039259D01*
X85289001Y-88132901D01*
X85288995Y-88132905D01*
X85168664Y-88231658D01*
X85104354Y-88258970D01*
X85035487Y-88247179D01*
X85011336Y-88231658D01*
X84891004Y-88132905D01*
X84890998Y-88132901D01*
X84715805Y-88039259D01*
X84533504Y-87983958D01*
X84475066Y-87945661D01*
X84446609Y-87881849D01*
X84445500Y-87865298D01*
X84445500Y-85606500D01*
X84465185Y-85539461D01*
X84517989Y-85493706D01*
X84569500Y-85482500D01*
X84676644Y-85482500D01*
X84676646Y-85482500D01*
X84861803Y-85443144D01*
X85034730Y-85366151D01*
X85187871Y-85254888D01*
X85314533Y-85114216D01*
X85409179Y-84950284D01*
X85467674Y-84770256D01*
X85487179Y-84584668D01*
X85487892Y-84582936D01*
X85487179Y-84579329D01*
X85485132Y-84559851D01*
X85467674Y-84393744D01*
X85409179Y-84213716D01*
X85314533Y-84049784D01*
X85187871Y-83909112D01*
X85187870Y-83909111D01*
X85034734Y-83797851D01*
X85034729Y-83797848D01*
X84861807Y-83720857D01*
X84861802Y-83720855D01*
X84707311Y-83688018D01*
X84676646Y-83681500D01*
X84487354Y-83681500D01*
X84456689Y-83688018D01*
X84302198Y-83720855D01*
X84302193Y-83720857D01*
X84238376Y-83749270D01*
X84169126Y-83758554D01*
X84105850Y-83728925D01*
X84100261Y-83723671D01*
X79167718Y-78791127D01*
X79134233Y-78729804D01*
X79139217Y-78660112D01*
X79181089Y-78604179D01*
X79202995Y-78591064D01*
X79348164Y-78523371D01*
X79521841Y-78401761D01*
X79671761Y-78251841D01*
X79793371Y-78078164D01*
X79882974Y-77886009D01*
X79937849Y-77681213D01*
X79956328Y-77470000D01*
X79937849Y-77258787D01*
X79882974Y-77053991D01*
X79793371Y-76861836D01*
X79793369Y-76861833D01*
X79793368Y-76861831D01*
X79671764Y-76688163D01*
X79671759Y-76688157D01*
X79521842Y-76538240D01*
X79521836Y-76538235D01*
X79348168Y-76416631D01*
X79348164Y-76416629D01*
X79242973Y-76367578D01*
X79156009Y-76327026D01*
X79156005Y-76327024D01*
X79155998Y-76327022D01*
X79127982Y-76319515D01*
X79068323Y-76283149D01*
X79037795Y-76220302D01*
X79046091Y-76150926D01*
X79090577Y-76097049D01*
X79127989Y-76079965D01*
X79155830Y-76072505D01*
X79155838Y-76072502D01*
X79347913Y-75982937D01*
X79347917Y-75982935D01*
X79401713Y-75945266D01*
X78784401Y-75327953D01*
X78865148Y-75315165D01*
X78978045Y-75257641D01*
X79067641Y-75168045D01*
X79125165Y-75055148D01*
X79137953Y-74974400D01*
X79755266Y-75591713D01*
X79792935Y-75537917D01*
X79792937Y-75537913D01*
X79882502Y-75345838D01*
X79882506Y-75345829D01*
X79937354Y-75141131D01*
X79937356Y-75141120D01*
X79955827Y-74930001D01*
X79955827Y-74929998D01*
X79937356Y-74718879D01*
X79937354Y-74718868D01*
X79882506Y-74514170D01*
X79882502Y-74514161D01*
X79792937Y-74322088D01*
X79792936Y-74322086D01*
X79740237Y-74246823D01*
X79717910Y-74180616D01*
X79734921Y-74112849D01*
X79785869Y-74065037D01*
X79841812Y-74051700D01*
X83021748Y-74051700D01*
X83088787Y-74071385D01*
X83109429Y-74088019D01*
X83389038Y-74367629D01*
X83422523Y-74428952D01*
X83424678Y-74442348D01*
X83431246Y-74504835D01*
X83442326Y-74610256D01*
X83442327Y-74610259D01*
X83500818Y-74790277D01*
X83500821Y-74790284D01*
X83595467Y-74954216D01*
X83674917Y-75042454D01*
X83722129Y-75094888D01*
X83875265Y-75206148D01*
X83875270Y-75206151D01*
X84048192Y-75283142D01*
X84048197Y-75283144D01*
X84233354Y-75322500D01*
X84233355Y-75322500D01*
X84422644Y-75322500D01*
X84422646Y-75322500D01*
X84607803Y-75283144D01*
X84780730Y-75206151D01*
X84876403Y-75136640D01*
X84942205Y-75113162D01*
X85010259Y-75128987D01*
X85058954Y-75179092D01*
X85072830Y-75247570D01*
X85065469Y-75280288D01*
X85060908Y-75292515D01*
X85060908Y-75292516D01*
X85054501Y-75352116D01*
X85054501Y-75352123D01*
X85054500Y-75352135D01*
X85054500Y-77047870D01*
X85054501Y-77047876D01*
X85060908Y-77107483D01*
X85111202Y-77242328D01*
X85111206Y-77242335D01*
X85197452Y-77357544D01*
X85197453Y-77357544D01*
X85197454Y-77357546D01*
X85215070Y-77370733D01*
X85215071Y-77370734D01*
X85256941Y-77426668D01*
X85261925Y-77496360D01*
X85228439Y-77557683D01*
X85215071Y-77569266D01*
X85197452Y-77582455D01*
X85111206Y-77697664D01*
X85111202Y-77697671D01*
X85060908Y-77832517D01*
X85054501Y-77892116D01*
X85054501Y-77892123D01*
X85054500Y-77892135D01*
X85054500Y-79587870D01*
X85054501Y-79587876D01*
X85060908Y-79647483D01*
X85111202Y-79782328D01*
X85111206Y-79782335D01*
X85197452Y-79897544D01*
X85197455Y-79897547D01*
X85312664Y-79983793D01*
X85312671Y-79983797D01*
X85447517Y-80034091D01*
X85447516Y-80034091D01*
X85454444Y-80034835D01*
X85507127Y-80040500D01*
X87202872Y-80040499D01*
X87262483Y-80034091D01*
X87397331Y-79983796D01*
X87512546Y-79897546D01*
X87598796Y-79782331D01*
X87649091Y-79647483D01*
X87655500Y-79587873D01*
X87655499Y-77892128D01*
X87649091Y-77832517D01*
X87622675Y-77761693D01*
X87598797Y-77697671D01*
X87598793Y-77697664D01*
X87512547Y-77582455D01*
X87512546Y-77582454D01*
X87499630Y-77572785D01*
X87494929Y-77569266D01*
X87453058Y-77513334D01*
X87448074Y-77443642D01*
X87481558Y-77382319D01*
X87494930Y-77370733D01*
X87512546Y-77357546D01*
X87598796Y-77242331D01*
X87649091Y-77107483D01*
X87655500Y-77047873D01*
X87655499Y-75352128D01*
X87649091Y-75292517D01*
X87649090Y-75292515D01*
X87598797Y-75157671D01*
X87598793Y-75157664D01*
X87512547Y-75042455D01*
X87512544Y-75042452D01*
X87397335Y-74956206D01*
X87397328Y-74956202D01*
X87262482Y-74905908D01*
X87262483Y-74905908D01*
X87202883Y-74899501D01*
X87202881Y-74899500D01*
X87202873Y-74899500D01*
X87202865Y-74899500D01*
X87104500Y-74899500D01*
X87037461Y-74879815D01*
X86991706Y-74827011D01*
X86980500Y-74775500D01*
X86980500Y-74753765D01*
X87000185Y-74686726D01*
X87039220Y-74648340D01*
X87081562Y-74622124D01*
X87226495Y-74490000D01*
X87245979Y-74472238D01*
X87261192Y-74452094D01*
X87380058Y-74294689D01*
X87479229Y-74095528D01*
X87540115Y-73881536D01*
X87560643Y-73660000D01*
X92769859Y-73660000D01*
X92790378Y-73881439D01*
X92851240Y-74095350D01*
X92950369Y-74294428D01*
X92966137Y-74315308D01*
X92966138Y-74315308D01*
X93592145Y-73689302D01*
X93621372Y-73689302D01*
X93650047Y-73802538D01*
X93713936Y-73900327D01*
X93806115Y-73972072D01*
X93916595Y-74010000D01*
X94004005Y-74010000D01*
X94090216Y-73995614D01*
X94192947Y-73940019D01*
X94272060Y-73854079D01*
X94318982Y-73747108D01*
X94326200Y-73660000D01*
X94328553Y-73660000D01*
X94983861Y-74315308D01*
X94999631Y-74294425D01*
X94999633Y-74294422D01*
X95098759Y-74095350D01*
X95159621Y-73881439D01*
X95180141Y-73660000D01*
X95180141Y-73659999D01*
X95159621Y-73438560D01*
X95098759Y-73224649D01*
X94999635Y-73025580D01*
X94999630Y-73025572D01*
X94983860Y-73004690D01*
X94328553Y-73659999D01*
X94328553Y-73660000D01*
X94326200Y-73660000D01*
X94328628Y-73630698D01*
X94299953Y-73517462D01*
X94236064Y-73419673D01*
X94143885Y-73347928D01*
X94033405Y-73310000D01*
X93945995Y-73310000D01*
X93859784Y-73324386D01*
X93757053Y-73379981D01*
X93677940Y-73465921D01*
X93631018Y-73572892D01*
X93621372Y-73689302D01*
X93592145Y-73689302D01*
X93621447Y-73660000D01*
X92966138Y-73004691D01*
X92966137Y-73004691D01*
X92950368Y-73025574D01*
X92851240Y-73224649D01*
X92790378Y-73438560D01*
X92769859Y-73659999D01*
X92769859Y-73660000D01*
X87560643Y-73660000D01*
X87558590Y-73637849D01*
X87540115Y-73438464D01*
X87540114Y-73438462D01*
X87537405Y-73428942D01*
X87479229Y-73224472D01*
X87479224Y-73224461D01*
X87380061Y-73025316D01*
X87380056Y-73025308D01*
X87245979Y-72847761D01*
X87081562Y-72697876D01*
X87081560Y-72697874D01*
X87009278Y-72653119D01*
X93321671Y-72653119D01*
X93975000Y-73306447D01*
X93975001Y-73306447D01*
X94628327Y-72653119D01*
X94512178Y-72581202D01*
X94512177Y-72581201D01*
X94304804Y-72500865D01*
X94086193Y-72460000D01*
X93863807Y-72460000D01*
X93645195Y-72500865D01*
X93437824Y-72581200D01*
X93437823Y-72581201D01*
X93321671Y-72653119D01*
X87009278Y-72653119D01*
X86892404Y-72580754D01*
X86892398Y-72580752D01*
X86885963Y-72578259D01*
X86684940Y-72500382D01*
X86466243Y-72459500D01*
X86243757Y-72459500D01*
X86187172Y-72470077D01*
X86135570Y-72479723D01*
X86066055Y-72472691D01*
X86025105Y-72445515D01*
X85064523Y-71484933D01*
X84082003Y-70502412D01*
X84072180Y-70490150D01*
X84071959Y-70490334D01*
X84066986Y-70484322D01*
X84017976Y-70438299D01*
X84015177Y-70435586D01*
X83995677Y-70416085D01*
X83995671Y-70416080D01*
X83992486Y-70413609D01*
X83983634Y-70406048D01*
X83951782Y-70376138D01*
X83951780Y-70376136D01*
X83951777Y-70376135D01*
X83934229Y-70366488D01*
X83917963Y-70355804D01*
X83902132Y-70343524D01*
X83862049Y-70326178D01*
X83851563Y-70321041D01*
X83813294Y-70300003D01*
X83813292Y-70300002D01*
X83793893Y-70295022D01*
X83775481Y-70288718D01*
X83757098Y-70280762D01*
X83757092Y-70280760D01*
X83713960Y-70273929D01*
X83702522Y-70271561D01*
X83660220Y-70260700D01*
X83660219Y-70260700D01*
X83640184Y-70260700D01*
X83620786Y-70259173D01*
X83613362Y-70257997D01*
X83601005Y-70256040D01*
X83601004Y-70256040D01*
X83557525Y-70260150D01*
X83545856Y-70260700D01*
X80045997Y-70260700D01*
X79978958Y-70241015D01*
X79933203Y-70188211D01*
X79923259Y-70119053D01*
X79926222Y-70104608D01*
X79934812Y-70072547D01*
X79937849Y-70061213D01*
X79956328Y-69850000D01*
X79954547Y-69829649D01*
X79952632Y-69807757D01*
X79937849Y-69638787D01*
X79882974Y-69433991D01*
X79793371Y-69241836D01*
X79793369Y-69241833D01*
X79793368Y-69241831D01*
X79671764Y-69068163D01*
X79671759Y-69068157D01*
X79521842Y-68918240D01*
X79521836Y-68918235D01*
X79348168Y-68796631D01*
X79348164Y-68796629D01*
X79156009Y-68707026D01*
X79156005Y-68707025D01*
X79156001Y-68707023D01*
X78951218Y-68652152D01*
X78951208Y-68652150D01*
X78740001Y-68633672D01*
X78739999Y-68633672D01*
X78528791Y-68652150D01*
X78528781Y-68652152D01*
X78323998Y-68707023D01*
X78323989Y-68707027D01*
X78131835Y-68796629D01*
X78131831Y-68796631D01*
X77958163Y-68918235D01*
X77958157Y-68918240D01*
X77808240Y-69068157D01*
X77808235Y-69068163D01*
X77686631Y-69241831D01*
X77686629Y-69241835D01*
X77597027Y-69433989D01*
X77597024Y-69433996D01*
X77589775Y-69461051D01*
X77553409Y-69520711D01*
X77490562Y-69551240D01*
X77421187Y-69542945D01*
X77367309Y-69498459D01*
X77350225Y-69461051D01*
X77342975Y-69433996D01*
X77342974Y-69433991D01*
X77253371Y-69241836D01*
X77253369Y-69241833D01*
X77253368Y-69241831D01*
X77131764Y-69068163D01*
X77131759Y-69068157D01*
X76981842Y-68918240D01*
X76981836Y-68918235D01*
X76808168Y-68796631D01*
X76808164Y-68796629D01*
X76616009Y-68707026D01*
X76616005Y-68707025D01*
X76616001Y-68707023D01*
X76588949Y-68699775D01*
X76529288Y-68663410D01*
X76498759Y-68600563D01*
X76507054Y-68531188D01*
X76551539Y-68477310D01*
X76588949Y-68460225D01*
X76606930Y-68455406D01*
X76616009Y-68452974D01*
X76808164Y-68363371D01*
X76981841Y-68241761D01*
X77131761Y-68091841D01*
X77253371Y-67918164D01*
X77342974Y-67726009D01*
X77397849Y-67521213D01*
X77416328Y-67310000D01*
X77397849Y-67098787D01*
X77342974Y-66893991D01*
X77253371Y-66701836D01*
X77253369Y-66701833D01*
X77253368Y-66701831D01*
X77131764Y-66528163D01*
X77131759Y-66528157D01*
X76981842Y-66378240D01*
X76981836Y-66378235D01*
X76808168Y-66256631D01*
X76808164Y-66256629D01*
X76616009Y-66167026D01*
X76616005Y-66167025D01*
X76616001Y-66167023D01*
X76411218Y-66112152D01*
X76411208Y-66112150D01*
X76200001Y-66093672D01*
X76199999Y-66093672D01*
X75988791Y-66112150D01*
X75988781Y-66112152D01*
X75783998Y-66167023D01*
X75783988Y-66167027D01*
X75733473Y-66190582D01*
X75664395Y-66201073D01*
X75600612Y-66172552D01*
X75562373Y-66114075D01*
X75557131Y-66082093D01*
X75557122Y-66081816D01*
X75555561Y-66032125D01*
X75555500Y-66028231D01*
X75555500Y-66000654D01*
X75555500Y-66000650D01*
X75554996Y-65996665D01*
X75554080Y-65985021D01*
X75553797Y-65976018D01*
X75552709Y-65941373D01*
X75547122Y-65922144D01*
X75543174Y-65903084D01*
X75542754Y-65899759D01*
X75540664Y-65883208D01*
X75540663Y-65883206D01*
X75540663Y-65883204D01*
X75524588Y-65842604D01*
X75520804Y-65831552D01*
X75508618Y-65789609D01*
X75508616Y-65789606D01*
X75498423Y-65772371D01*
X75489861Y-65754894D01*
X75482487Y-65736269D01*
X75456816Y-65700937D01*
X75450405Y-65691177D01*
X75428170Y-65653580D01*
X75428168Y-65653578D01*
X75428165Y-65653574D01*
X75414006Y-65639415D01*
X75401368Y-65624619D01*
X75389594Y-65608413D01*
X75384461Y-65604167D01*
X75355940Y-65580572D01*
X75347299Y-65572709D01*
X71366803Y-61592212D01*
X71356980Y-61579950D01*
X71356759Y-61580134D01*
X71351786Y-61574122D01*
X71302776Y-61528099D01*
X71299977Y-61525386D01*
X71280477Y-61505885D01*
X71280471Y-61505880D01*
X71277286Y-61503409D01*
X71268434Y-61495848D01*
X71236582Y-61465938D01*
X71236580Y-61465936D01*
X71236577Y-61465935D01*
X71219029Y-61456288D01*
X71202763Y-61445604D01*
X71186932Y-61433324D01*
X71146849Y-61415978D01*
X71136363Y-61410841D01*
X71098094Y-61389803D01*
X71098092Y-61389802D01*
X71078693Y-61384822D01*
X71060281Y-61378518D01*
X71041898Y-61370562D01*
X71041892Y-61370560D01*
X70998760Y-61363729D01*
X70987322Y-61361361D01*
X70945020Y-61350500D01*
X70945019Y-61350500D01*
X70924984Y-61350500D01*
X70905586Y-61348973D01*
X70898162Y-61347797D01*
X70885805Y-61345840D01*
X70885804Y-61345840D01*
X70842325Y-61349950D01*
X70830656Y-61350500D01*
X60026737Y-61350500D01*
X60011120Y-61348776D01*
X60011093Y-61349062D01*
X60003331Y-61348327D01*
X59936144Y-61350439D01*
X59932250Y-61350500D01*
X59904650Y-61350500D01*
X59900962Y-61350965D01*
X59900649Y-61351005D01*
X59889031Y-61351918D01*
X59845372Y-61353290D01*
X59845369Y-61353291D01*
X59826126Y-61358881D01*
X59807083Y-61362825D01*
X59787204Y-61365336D01*
X59787203Y-61365337D01*
X59746593Y-61381415D01*
X59735548Y-61385197D01*
X59693608Y-61397383D01*
X59693604Y-61397385D01*
X59676365Y-61407580D01*
X59658898Y-61416137D01*
X59640269Y-61423512D01*
X59640267Y-61423514D01*
X59604926Y-61449189D01*
X59595168Y-61455599D01*
X59557580Y-61477828D01*
X59543408Y-61492000D01*
X59528623Y-61504628D01*
X59512412Y-61516407D01*
X59484571Y-61550059D01*
X59476711Y-61558696D01*
X55433208Y-65602199D01*
X55420951Y-65612020D01*
X55421134Y-65612241D01*
X55415122Y-65617214D01*
X55369098Y-65666223D01*
X55366391Y-65669016D01*
X55346889Y-65688517D01*
X55346875Y-65688534D01*
X55344407Y-65691715D01*
X55336843Y-65700570D01*
X55306937Y-65732418D01*
X55306936Y-65732420D01*
X55297284Y-65749976D01*
X55286610Y-65766226D01*
X55274329Y-65782061D01*
X55274324Y-65782068D01*
X55256975Y-65822158D01*
X55251838Y-65832644D01*
X55230803Y-65870906D01*
X55225822Y-65890307D01*
X55219521Y-65908710D01*
X55211562Y-65927102D01*
X55211561Y-65927105D01*
X55204728Y-65970243D01*
X55202360Y-65981674D01*
X55191501Y-66023971D01*
X55191500Y-66023982D01*
X55191500Y-66044016D01*
X55189973Y-66063415D01*
X55186840Y-66083194D01*
X55186840Y-66083195D01*
X55190950Y-66126674D01*
X55191500Y-66138343D01*
X55191500Y-87884409D01*
X55171815Y-87951448D01*
X55119011Y-87997203D01*
X55103496Y-88003069D01*
X54984194Y-88039259D01*
X54809001Y-88132901D01*
X54808995Y-88132905D01*
X54688664Y-88231658D01*
X54624354Y-88258970D01*
X54555487Y-88247179D01*
X54531336Y-88231658D01*
X54411004Y-88132905D01*
X54410998Y-88132901D01*
X54235805Y-88039259D01*
X54053504Y-87983958D01*
X53995066Y-87945661D01*
X53966609Y-87881849D01*
X53965500Y-87865298D01*
X53965500Y-78803687D01*
X53985185Y-78736648D01*
X53997350Y-78720715D01*
X54028312Y-78686328D01*
X54072533Y-78637216D01*
X54167179Y-78473284D01*
X54225674Y-78293256D01*
X54245460Y-78105000D01*
X54225674Y-77916744D01*
X54167179Y-77736716D01*
X54072533Y-77572784D01*
X53945871Y-77432112D01*
X53938378Y-77426668D01*
X53792734Y-77320851D01*
X53792729Y-77320848D01*
X53619807Y-77243857D01*
X53619802Y-77243855D01*
X53474001Y-77212865D01*
X53434646Y-77204500D01*
X53245354Y-77204500D01*
X53212897Y-77211398D01*
X53060197Y-77243855D01*
X53060192Y-77243857D01*
X52887270Y-77320848D01*
X52887265Y-77320851D01*
X52734129Y-77432111D01*
X52607466Y-77572785D01*
X52512821Y-77736715D01*
X52512818Y-77736722D01*
X52454327Y-77916740D01*
X52454326Y-77916744D01*
X52434540Y-78105000D01*
X52454326Y-78293256D01*
X52454327Y-78293259D01*
X52512818Y-78473277D01*
X52512821Y-78473284D01*
X52607467Y-78637216D01*
X52650772Y-78685310D01*
X52682650Y-78720715D01*
X52712880Y-78783706D01*
X52714500Y-78803687D01*
X52714500Y-87865298D01*
X52694815Y-87932337D01*
X52642011Y-87978092D01*
X52626496Y-87983958D01*
X52444194Y-88039259D01*
X52269001Y-88132901D01*
X52268995Y-88132905D01*
X52148664Y-88231658D01*
X52084354Y-88258970D01*
X52015487Y-88247179D01*
X51991336Y-88231658D01*
X51871004Y-88132905D01*
X51870998Y-88132901D01*
X51695805Y-88039259D01*
X51513504Y-87983958D01*
X51455066Y-87945661D01*
X51426609Y-87881849D01*
X51425500Y-87865298D01*
X51425500Y-71430452D01*
X51445185Y-71363413D01*
X51461819Y-71342771D01*
X52017772Y-70786819D01*
X52079095Y-70753334D01*
X52105453Y-70750500D01*
X52164644Y-70750500D01*
X52164646Y-70750500D01*
X52349803Y-70711144D01*
X52522730Y-70634151D01*
X52675871Y-70522888D01*
X52802533Y-70382216D01*
X52897179Y-70218284D01*
X52955674Y-70038256D01*
X52975460Y-69850000D01*
X52955674Y-69661744D01*
X52897179Y-69481716D01*
X52802533Y-69317784D01*
X52675871Y-69177112D01*
X52669431Y-69172433D01*
X52522734Y-69065851D01*
X52522729Y-69065848D01*
X52349807Y-68988857D01*
X52349802Y-68988855D01*
X52194539Y-68955854D01*
X52164646Y-68949500D01*
X51975354Y-68949500D01*
X51945461Y-68955854D01*
X51790197Y-68988855D01*
X51790192Y-68988857D01*
X51617270Y-69065848D01*
X51617265Y-69065851D01*
X51464129Y-69177111D01*
X51337466Y-69317785D01*
X51242821Y-69481715D01*
X51242818Y-69481722D01*
X51217935Y-69558306D01*
X51184326Y-69661744D01*
X51166679Y-69829649D01*
X51140094Y-69894263D01*
X51131039Y-69904368D01*
X50416208Y-70619199D01*
X50403951Y-70629020D01*
X50404134Y-70629241D01*
X50398122Y-70634214D01*
X50352098Y-70683223D01*
X50349391Y-70686016D01*
X50329889Y-70705517D01*
X50329875Y-70705534D01*
X50327407Y-70708715D01*
X50319843Y-70717570D01*
X50289937Y-70749418D01*
X50289936Y-70749420D01*
X50280284Y-70766976D01*
X50269610Y-70783226D01*
X50257329Y-70799061D01*
X50257324Y-70799068D01*
X50239975Y-70839158D01*
X50234838Y-70849644D01*
X50213803Y-70887906D01*
X50208822Y-70907307D01*
X50202521Y-70925710D01*
X50194562Y-70944102D01*
X50194561Y-70944105D01*
X50187728Y-70987243D01*
X50185360Y-70998674D01*
X50174501Y-71040971D01*
X50174500Y-71040982D01*
X50174500Y-71061016D01*
X50172973Y-71080415D01*
X50169840Y-71100194D01*
X50169840Y-71100195D01*
X50173950Y-71143674D01*
X50174500Y-71155343D01*
X50174500Y-87865298D01*
X50154815Y-87932337D01*
X50102011Y-87978092D01*
X50086496Y-87983958D01*
X49904194Y-88039259D01*
X49729001Y-88132901D01*
X49728995Y-88132905D01*
X49608664Y-88231658D01*
X49544354Y-88258970D01*
X49475487Y-88247179D01*
X49451336Y-88231658D01*
X49331004Y-88132905D01*
X49330998Y-88132901D01*
X49155805Y-88039259D01*
X48973504Y-87983958D01*
X48915066Y-87945661D01*
X48886609Y-87881849D01*
X48885500Y-87865298D01*
X48885500Y-71430452D01*
X48905185Y-71363413D01*
X48921819Y-71342771D01*
X52017771Y-68246819D01*
X52079094Y-68213334D01*
X52105452Y-68210500D01*
X52164644Y-68210500D01*
X52164646Y-68210500D01*
X52349803Y-68171144D01*
X52522730Y-68094151D01*
X52675871Y-67982888D01*
X52802533Y-67842216D01*
X52897179Y-67678284D01*
X52955674Y-67498256D01*
X52975460Y-67310000D01*
X52955674Y-67121744D01*
X52897179Y-66941716D01*
X52802533Y-66777784D01*
X52675871Y-66637112D01*
X52675870Y-66637111D01*
X52522734Y-66525851D01*
X52522729Y-66525848D01*
X52349807Y-66448857D01*
X52349802Y-66448855D01*
X52204001Y-66417865D01*
X52164646Y-66409500D01*
X51975354Y-66409500D01*
X51942897Y-66416398D01*
X51790197Y-66448855D01*
X51790192Y-66448857D01*
X51617270Y-66525848D01*
X51617265Y-66525851D01*
X51464129Y-66637111D01*
X51337466Y-66777785D01*
X51242821Y-66941715D01*
X51242818Y-66941722D01*
X51191787Y-67098781D01*
X51184326Y-67121744D01*
X51176405Y-67197105D01*
X51166678Y-67289651D01*
X51140093Y-67354266D01*
X51131038Y-67364370D01*
X47876208Y-70619199D01*
X47863951Y-70629020D01*
X47864134Y-70629241D01*
X47858122Y-70634214D01*
X47812098Y-70683223D01*
X47809391Y-70686016D01*
X47789889Y-70705517D01*
X47789875Y-70705534D01*
X47787407Y-70708715D01*
X47779843Y-70717570D01*
X47749937Y-70749418D01*
X47749936Y-70749420D01*
X47740284Y-70766976D01*
X47729610Y-70783226D01*
X47717329Y-70799061D01*
X47717324Y-70799068D01*
X47699975Y-70839158D01*
X47694838Y-70849644D01*
X47673803Y-70887906D01*
X47668822Y-70907307D01*
X47662521Y-70925710D01*
X47654562Y-70944102D01*
X47654561Y-70944105D01*
X47647728Y-70987243D01*
X47645360Y-70998674D01*
X47634501Y-71040971D01*
X47634500Y-71040982D01*
X47634500Y-71061016D01*
X47632973Y-71080415D01*
X47629840Y-71100194D01*
X47629840Y-71100195D01*
X47633950Y-71143674D01*
X47634500Y-71155343D01*
X47634500Y-87865298D01*
X47614815Y-87932337D01*
X47562011Y-87978092D01*
X47546496Y-87983958D01*
X47364194Y-88039259D01*
X47189001Y-88132901D01*
X47188995Y-88132905D01*
X47068664Y-88231658D01*
X47004354Y-88258970D01*
X46935487Y-88247179D01*
X46911336Y-88231658D01*
X46791004Y-88132905D01*
X46790998Y-88132901D01*
X46615808Y-88039260D01*
X46491167Y-88001451D01*
X46425701Y-87981592D01*
X46425699Y-87981591D01*
X46425701Y-87981591D01*
X46319415Y-87971123D01*
X46277547Y-87967000D01*
X46277543Y-87967000D01*
X45162457Y-87967000D01*
X45014300Y-87981591D01*
X44824191Y-88039260D01*
X44649001Y-88132901D01*
X44648994Y-88132905D01*
X44528270Y-88231982D01*
X44463960Y-88259295D01*
X44395092Y-88247504D01*
X44370940Y-88231982D01*
X44250725Y-88133325D01*
X44250718Y-88133320D01*
X44075612Y-88039724D01*
X43885605Y-87982085D01*
X43885603Y-87982084D01*
X43737515Y-87967500D01*
X42622485Y-87967500D01*
X42474396Y-87982084D01*
X42474394Y-87982085D01*
X42284387Y-88039724D01*
X42109281Y-88133320D01*
X42109274Y-88133325D01*
X41955787Y-88259287D01*
X41922353Y-88300028D01*
X41864608Y-88339362D01*
X41794763Y-88341233D01*
X41734995Y-88305046D01*
X41704279Y-88242290D01*
X41702500Y-88221363D01*
X41702500Y-58678427D01*
X41702816Y-58669581D01*
X41704491Y-58646156D01*
X41719491Y-58436419D01*
X41722009Y-58418916D01*
X41770754Y-58194839D01*
X41775736Y-58177873D01*
X41855876Y-57963007D01*
X41863217Y-57946934D01*
X41973121Y-57745660D01*
X41982683Y-57730783D01*
X42120107Y-57547206D01*
X42131686Y-57533842D01*
X42293842Y-57371686D01*
X42307206Y-57360107D01*
X42490783Y-57222683D01*
X42505663Y-57213120D01*
X42706934Y-57103217D01*
X42723007Y-57095876D01*
X42937881Y-57015733D01*
X42954839Y-57010754D01*
X43178922Y-56962007D01*
X43196419Y-56959491D01*
X43429582Y-56942816D01*
X43438428Y-56942500D01*
X43481595Y-56942500D01*
X96208403Y-56942500D01*
X96208415Y-56942501D01*
G37*
%TD.AperFunction*%
%TA.AperFunction,Conductor*%
G36*
X56647703Y-85472739D02*
G01*
X56654181Y-85478771D01*
X58012181Y-86836771D01*
X58045666Y-86898094D01*
X58048500Y-86924452D01*
X58048500Y-87843000D01*
X58028815Y-87910039D01*
X57976011Y-87955794D01*
X57924502Y-87967000D01*
X57862457Y-87967000D01*
X57714300Y-87981591D01*
X57524191Y-88039260D01*
X57349001Y-88132901D01*
X57348995Y-88132905D01*
X57228664Y-88231658D01*
X57164354Y-88258970D01*
X57095487Y-88247179D01*
X57071336Y-88231658D01*
X56951004Y-88132905D01*
X56950998Y-88132901D01*
X56775808Y-88039260D01*
X56585699Y-87981591D01*
X56554344Y-87978503D01*
X56489557Y-87952341D01*
X56449199Y-87895306D01*
X56442500Y-87855100D01*
X56442500Y-85566452D01*
X56462185Y-85499413D01*
X56514989Y-85453658D01*
X56584147Y-85443714D01*
X56647703Y-85472739D01*
G37*
%TD.AperFunction*%
%TA.AperFunction,Conductor*%
G36*
X62552574Y-73160185D02*
G01*
X62573216Y-73176818D01*
X62718159Y-73321761D01*
X62718162Y-73321763D01*
X62718163Y-73321764D01*
X62891831Y-73443368D01*
X62891833Y-73443369D01*
X62891836Y-73443371D01*
X63083991Y-73532974D01*
X63098717Y-73536919D01*
X63111051Y-73540225D01*
X63170711Y-73576591D01*
X63201240Y-73639438D01*
X63192945Y-73708813D01*
X63148459Y-73762691D01*
X63111051Y-73779775D01*
X63083996Y-73787024D01*
X63083989Y-73787027D01*
X62891835Y-73876629D01*
X62891831Y-73876631D01*
X62718163Y-73998235D01*
X62718157Y-73998240D01*
X62568240Y-74148157D01*
X62568235Y-74148163D01*
X62446631Y-74321831D01*
X62446629Y-74321835D01*
X62387368Y-74448922D01*
X62361296Y-74504835D01*
X62357027Y-74513989D01*
X62357023Y-74513998D01*
X62302152Y-74718781D01*
X62302150Y-74718791D01*
X62283672Y-74929999D01*
X62283672Y-74930000D01*
X62302150Y-75141208D01*
X62302152Y-75141218D01*
X62357023Y-75346001D01*
X62357025Y-75346005D01*
X62357026Y-75346009D01*
X62389397Y-75415429D01*
X62446629Y-75538164D01*
X62446631Y-75538168D01*
X62568235Y-75711836D01*
X62568240Y-75711842D01*
X62718157Y-75861759D01*
X62718163Y-75861764D01*
X62891831Y-75983368D01*
X62891833Y-75983369D01*
X62891836Y-75983371D01*
X63083991Y-76072974D01*
X63098717Y-76076919D01*
X63111051Y-76080225D01*
X63170711Y-76116591D01*
X63201240Y-76179438D01*
X63192945Y-76248813D01*
X63148459Y-76302691D01*
X63111051Y-76319775D01*
X63083996Y-76327024D01*
X63083989Y-76327027D01*
X62891835Y-76416629D01*
X62891831Y-76416631D01*
X62718163Y-76538235D01*
X62718157Y-76538240D01*
X62568240Y-76688157D01*
X62568235Y-76688163D01*
X62446631Y-76861831D01*
X62446629Y-76861835D01*
X62446629Y-76861836D01*
X62359878Y-77047876D01*
X62357027Y-77053989D01*
X62357023Y-77053998D01*
X62302152Y-77258781D01*
X62302150Y-77258791D01*
X62283672Y-77469999D01*
X62283672Y-77470000D01*
X62302150Y-77681208D01*
X62302152Y-77681218D01*
X62357023Y-77886001D01*
X62357025Y-77886005D01*
X62357026Y-77886009D01*
X62363952Y-77900861D01*
X62446629Y-78078164D01*
X62446631Y-78078168D01*
X62568235Y-78251836D01*
X62568240Y-78251842D01*
X62718157Y-78401759D01*
X62718163Y-78401764D01*
X62891831Y-78523368D01*
X62891833Y-78523369D01*
X62891836Y-78523371D01*
X63083991Y-78612974D01*
X63288787Y-78667849D01*
X63457757Y-78682632D01*
X63499999Y-78686328D01*
X63500000Y-78686328D01*
X63641790Y-78673922D01*
X63710287Y-78687688D01*
X63760470Y-78736303D01*
X63776404Y-78804331D01*
X63753029Y-78870175D01*
X63740276Y-78885131D01*
X63116208Y-79509199D01*
X63103951Y-79519020D01*
X63104134Y-79519241D01*
X63098122Y-79524214D01*
X63052098Y-79573223D01*
X63049391Y-79576016D01*
X63029889Y-79595517D01*
X63029875Y-79595534D01*
X63027407Y-79598715D01*
X63019843Y-79607570D01*
X62989937Y-79639418D01*
X62989936Y-79639420D01*
X62980284Y-79656976D01*
X62969610Y-79673226D01*
X62957329Y-79689061D01*
X62957324Y-79689068D01*
X62939975Y-79729158D01*
X62934838Y-79739642D01*
X62934616Y-79740047D01*
X62913803Y-79777906D01*
X62908822Y-79797307D01*
X62902521Y-79815710D01*
X62894562Y-79834102D01*
X62894561Y-79834105D01*
X62887728Y-79877243D01*
X62885360Y-79888674D01*
X62874501Y-79930971D01*
X62874500Y-79930982D01*
X62874500Y-79951016D01*
X62872973Y-79970415D01*
X62869840Y-79990194D01*
X62869840Y-79990195D01*
X62873950Y-80033674D01*
X62874500Y-80045343D01*
X62874500Y-87865298D01*
X62854815Y-87932337D01*
X62802011Y-87978092D01*
X62786496Y-87983958D01*
X62604194Y-88039259D01*
X62429001Y-88132901D01*
X62428995Y-88132905D01*
X62308664Y-88231658D01*
X62244354Y-88258970D01*
X62175487Y-88247179D01*
X62151336Y-88231658D01*
X62031004Y-88132905D01*
X62030998Y-88132901D01*
X61855805Y-88039259D01*
X61673504Y-87983958D01*
X61615066Y-87945661D01*
X61586609Y-87881849D01*
X61585500Y-87865298D01*
X61585500Y-87204742D01*
X61587224Y-87189122D01*
X61586939Y-87189096D01*
X61587671Y-87181340D01*
X61587673Y-87181333D01*
X61585561Y-87114126D01*
X61585500Y-87110231D01*
X61585500Y-87082654D01*
X61585500Y-87082650D01*
X61584996Y-87078665D01*
X61584080Y-87067021D01*
X61582709Y-87023373D01*
X61577122Y-87004144D01*
X61573174Y-86985084D01*
X61572194Y-86977323D01*
X61570664Y-86965208D01*
X61570663Y-86965206D01*
X61570663Y-86965204D01*
X61554588Y-86924604D01*
X61550804Y-86913552D01*
X61538618Y-86871609D01*
X61538616Y-86871606D01*
X61528423Y-86854371D01*
X61519861Y-86836894D01*
X61512487Y-86818269D01*
X61486816Y-86782937D01*
X61480405Y-86773177D01*
X61458170Y-86735580D01*
X61458168Y-86735578D01*
X61458165Y-86735574D01*
X61444006Y-86721415D01*
X61431368Y-86706619D01*
X61419594Y-86690413D01*
X61410691Y-86683048D01*
X61385940Y-86662572D01*
X61377299Y-86654709D01*
X57557819Y-82835228D01*
X57524334Y-82773905D01*
X57521500Y-82747547D01*
X57521500Y-75509142D01*
X57541185Y-75442103D01*
X57593989Y-75396348D01*
X57663147Y-75386404D01*
X57726703Y-75415429D01*
X57757882Y-75456738D01*
X57797863Y-75542478D01*
X57848974Y-75615472D01*
X58530046Y-74934400D01*
X58542835Y-75015148D01*
X58600359Y-75128045D01*
X58689955Y-75217641D01*
X58802852Y-75275165D01*
X58883599Y-75287953D01*
X58202526Y-75969025D01*
X58275513Y-76020132D01*
X58275521Y-76020136D01*
X58481668Y-76116264D01*
X58481682Y-76116269D01*
X58701389Y-76175139D01*
X58701400Y-76175141D01*
X58927998Y-76194966D01*
X58928002Y-76194966D01*
X59154599Y-76175141D01*
X59154610Y-76175139D01*
X59374317Y-76116269D01*
X59374331Y-76116264D01*
X59580478Y-76020136D01*
X59653471Y-75969024D01*
X58972400Y-75287953D01*
X59053148Y-75275165D01*
X59166045Y-75217641D01*
X59255641Y-75128045D01*
X59313165Y-75015148D01*
X59325953Y-74934400D01*
X60007024Y-75615471D01*
X60058136Y-75542478D01*
X60154264Y-75336331D01*
X60154269Y-75336317D01*
X60213139Y-75116610D01*
X60213141Y-75116599D01*
X60232966Y-74890002D01*
X60232966Y-74889997D01*
X60213141Y-74663400D01*
X60213139Y-74663389D01*
X60154269Y-74443682D01*
X60154264Y-74443668D01*
X60058136Y-74237521D01*
X60058132Y-74237513D01*
X60007025Y-74164526D01*
X59325953Y-74845598D01*
X59313165Y-74764852D01*
X59255641Y-74651955D01*
X59166045Y-74562359D01*
X59053148Y-74504835D01*
X58972401Y-74492046D01*
X59653472Y-73810974D01*
X59580480Y-73759864D01*
X59565024Y-73752657D01*
X59512585Y-73706484D01*
X59493433Y-73639290D01*
X59513649Y-73572409D01*
X59565023Y-73527893D01*
X59580734Y-73520568D01*
X59767139Y-73390047D01*
X59928047Y-73229139D01*
X59953088Y-73193377D01*
X60007665Y-73149752D01*
X60054663Y-73140500D01*
X62485535Y-73140500D01*
X62552574Y-73160185D01*
G37*
%TD.AperFunction*%
%TA.AperFunction,Conductor*%
G36*
X64755882Y-79741220D02*
G01*
X64811816Y-79783091D01*
X64836233Y-79848556D01*
X64836077Y-79868209D01*
X64823672Y-80009998D01*
X64823672Y-80010000D01*
X64842150Y-80221208D01*
X64842152Y-80221218D01*
X64897023Y-80426001D01*
X64897025Y-80426005D01*
X64897026Y-80426009D01*
X64937522Y-80512853D01*
X64986629Y-80618164D01*
X64986631Y-80618168D01*
X65092902Y-80769938D01*
X65108239Y-80791841D01*
X65194520Y-80878122D01*
X65258160Y-80941762D01*
X65361623Y-81014207D01*
X65405248Y-81068784D01*
X65414500Y-81115782D01*
X65414500Y-87865298D01*
X65394815Y-87932337D01*
X65342011Y-87978092D01*
X65326496Y-87983958D01*
X65144194Y-88039259D01*
X64969001Y-88132901D01*
X64968995Y-88132905D01*
X64848664Y-88231658D01*
X64784354Y-88258970D01*
X64715487Y-88247179D01*
X64691336Y-88231658D01*
X64571004Y-88132905D01*
X64570998Y-88132901D01*
X64395805Y-88039259D01*
X64213504Y-87983958D01*
X64155066Y-87945661D01*
X64126609Y-87881849D01*
X64125500Y-87865298D01*
X64125500Y-80320452D01*
X64145185Y-80253413D01*
X64161819Y-80232771D01*
X64384592Y-80009998D01*
X64624870Y-79769719D01*
X64686191Y-79736236D01*
X64755882Y-79741220D01*
G37*
%TD.AperFunction*%
%TA.AperFunction,Conductor*%
G36*
X66868541Y-84266589D02*
G01*
X66884058Y-84279426D01*
X66892698Y-84287288D01*
X67918181Y-85312771D01*
X67951666Y-85374094D01*
X67954500Y-85400452D01*
X67954500Y-87865298D01*
X67934815Y-87932337D01*
X67882011Y-87978092D01*
X67866496Y-87983958D01*
X67684194Y-88039259D01*
X67509001Y-88132901D01*
X67508995Y-88132905D01*
X67388664Y-88231658D01*
X67324354Y-88258970D01*
X67255487Y-88247179D01*
X67231336Y-88231658D01*
X67111004Y-88132905D01*
X67110998Y-88132901D01*
X66935805Y-88039259D01*
X66753504Y-87983958D01*
X66695066Y-87945661D01*
X66666609Y-87881849D01*
X66665500Y-87865298D01*
X66665500Y-84362132D01*
X66685185Y-84295093D01*
X66737989Y-84249338D01*
X66807147Y-84239394D01*
X66868541Y-84266589D01*
G37*
%TD.AperFunction*%
%TA.AperFunction,Conductor*%
G36*
X69410703Y-85281739D02*
G01*
X69417181Y-85287771D01*
X70458181Y-86328771D01*
X70491666Y-86390094D01*
X70494500Y-86416452D01*
X70494500Y-87865298D01*
X70474815Y-87932337D01*
X70422011Y-87978092D01*
X70406496Y-87983958D01*
X70224194Y-88039259D01*
X70049001Y-88132901D01*
X70048995Y-88132905D01*
X69928664Y-88231658D01*
X69864354Y-88258970D01*
X69795487Y-88247179D01*
X69771336Y-88231658D01*
X69651004Y-88132905D01*
X69650998Y-88132901D01*
X69475805Y-88039259D01*
X69293504Y-87983958D01*
X69235066Y-87945661D01*
X69206609Y-87881849D01*
X69205500Y-87865298D01*
X69205500Y-85375452D01*
X69225185Y-85308413D01*
X69277989Y-85262658D01*
X69347147Y-85252714D01*
X69410703Y-85281739D01*
G37*
%TD.AperFunction*%
%TA.AperFunction,Conductor*%
G36*
X71950703Y-86805739D02*
G01*
X71957181Y-86811771D01*
X72940519Y-87795109D01*
X72974004Y-87856432D01*
X72969020Y-87926124D01*
X72927148Y-87982057D01*
X72888836Y-88001449D01*
X72791072Y-88031106D01*
X72764189Y-88039261D01*
X72589001Y-88132901D01*
X72588995Y-88132905D01*
X72468664Y-88231658D01*
X72404354Y-88258970D01*
X72335487Y-88247179D01*
X72311336Y-88231658D01*
X72191004Y-88132905D01*
X72190998Y-88132901D01*
X72015805Y-88039259D01*
X71833504Y-87983958D01*
X71775066Y-87945661D01*
X71746609Y-87881849D01*
X71745500Y-87865298D01*
X71745500Y-86899452D01*
X71765185Y-86832413D01*
X71817989Y-86786658D01*
X71887147Y-86776714D01*
X71950703Y-86805739D01*
G37*
%TD.AperFunction*%
%TA.AperFunction,Conductor*%
G36*
X71950703Y-81725739D02*
G01*
X71957181Y-81731771D01*
X78020519Y-87795109D01*
X78054004Y-87856432D01*
X78049020Y-87926124D01*
X78007148Y-87982057D01*
X77968836Y-88001449D01*
X77871072Y-88031106D01*
X77844189Y-88039261D01*
X77669001Y-88132901D01*
X77668995Y-88132905D01*
X77548664Y-88231658D01*
X77484354Y-88258970D01*
X77415487Y-88247179D01*
X77391336Y-88231658D01*
X77271004Y-88132905D01*
X77270998Y-88132901D01*
X77095805Y-88039259D01*
X76913504Y-87983958D01*
X76855066Y-87945661D01*
X76826609Y-87881849D01*
X76825500Y-87865298D01*
X76825500Y-87712742D01*
X76827224Y-87697122D01*
X76826939Y-87697096D01*
X76827671Y-87689340D01*
X76827673Y-87689333D01*
X76825561Y-87622126D01*
X76825500Y-87618231D01*
X76825500Y-87590654D01*
X76825500Y-87590650D01*
X76824996Y-87586665D01*
X76824080Y-87575021D01*
X76822709Y-87531373D01*
X76817122Y-87512144D01*
X76813174Y-87493084D01*
X76810663Y-87473204D01*
X76794588Y-87432604D01*
X76790804Y-87421552D01*
X76778618Y-87379609D01*
X76778616Y-87379606D01*
X76768423Y-87362371D01*
X76759861Y-87344894D01*
X76752487Y-87326269D01*
X76726816Y-87290937D01*
X76720405Y-87281177D01*
X76698170Y-87243580D01*
X76698168Y-87243578D01*
X76698165Y-87243574D01*
X76684006Y-87229415D01*
X76671368Y-87214619D01*
X76664192Y-87204742D01*
X76659594Y-87198413D01*
X76650698Y-87191054D01*
X76625940Y-87170572D01*
X76617299Y-87162709D01*
X71781819Y-82327228D01*
X71748334Y-82265905D01*
X71745500Y-82239547D01*
X71745500Y-81819452D01*
X71765185Y-81752413D01*
X71817989Y-81706658D01*
X71887147Y-81696714D01*
X71950703Y-81725739D01*
G37*
%TD.AperFunction*%
%TA.AperFunction,Conductor*%
G36*
X79793558Y-85771197D02*
G01*
X79833274Y-85797864D01*
X80618181Y-86582771D01*
X80651666Y-86644094D01*
X80654500Y-86670452D01*
X80654500Y-87865298D01*
X80634815Y-87932337D01*
X80582011Y-87978092D01*
X80566496Y-87983958D01*
X80384194Y-88039259D01*
X80209001Y-88132901D01*
X80208995Y-88132905D01*
X80088664Y-88231658D01*
X80024354Y-88258970D01*
X79955487Y-88247179D01*
X79931336Y-88231658D01*
X79811004Y-88132905D01*
X79810998Y-88132901D01*
X79635805Y-88039259D01*
X79453504Y-87983958D01*
X79395066Y-87945661D01*
X79366609Y-87881849D01*
X79365500Y-87865298D01*
X79365500Y-87712737D01*
X79367224Y-87697123D01*
X79366938Y-87697096D01*
X79367672Y-87689333D01*
X79365561Y-87622144D01*
X79365500Y-87618250D01*
X79365500Y-87590651D01*
X79365500Y-87590650D01*
X79364997Y-87586670D01*
X79364080Y-87575021D01*
X79362709Y-87531373D01*
X79357122Y-87512144D01*
X79353174Y-87493084D01*
X79350664Y-87473208D01*
X79334585Y-87432597D01*
X79330804Y-87421552D01*
X79318619Y-87379612D01*
X79318615Y-87379606D01*
X79315224Y-87373872D01*
X79308418Y-87362363D01*
X79299860Y-87344894D01*
X79292486Y-87326268D01*
X79292483Y-87326264D01*
X79292483Y-87326263D01*
X79266816Y-87290935D01*
X79260403Y-87281172D01*
X79238172Y-87243583D01*
X79238170Y-87243579D01*
X79238165Y-87243574D01*
X79238163Y-87243571D01*
X79224005Y-87229413D01*
X79211370Y-87214620D01*
X79199593Y-87198412D01*
X79165945Y-87170576D01*
X79157304Y-87162713D01*
X79107200Y-87112609D01*
X79073715Y-87051286D01*
X79078699Y-86981594D01*
X79120571Y-86925661D01*
X79144445Y-86911649D01*
X79192730Y-86890151D01*
X79345871Y-86778888D01*
X79472533Y-86638216D01*
X79567179Y-86474284D01*
X79625674Y-86294256D01*
X79645460Y-86106000D01*
X79625674Y-85917744D01*
X79625671Y-85917737D01*
X79624322Y-85911383D01*
X79627345Y-85910740D01*
X79625583Y-85854342D01*
X79661504Y-85794413D01*
X79724123Y-85763418D01*
X79793558Y-85771197D01*
G37*
%TD.AperFunction*%
%TA.AperFunction,Conductor*%
G36*
X77600175Y-79756968D02*
G01*
X77615131Y-79769721D01*
X83158181Y-85312771D01*
X83191666Y-85374094D01*
X83194500Y-85400452D01*
X83194500Y-87865298D01*
X83174815Y-87932337D01*
X83122011Y-87978092D01*
X83106496Y-87983958D01*
X82924194Y-88039259D01*
X82749001Y-88132901D01*
X82748995Y-88132905D01*
X82628664Y-88231658D01*
X82564354Y-88258970D01*
X82495487Y-88247179D01*
X82471336Y-88231658D01*
X82351004Y-88132905D01*
X82350998Y-88132901D01*
X82175805Y-88039259D01*
X81993504Y-87983958D01*
X81935066Y-87945661D01*
X81906609Y-87881849D01*
X81905500Y-87865298D01*
X81905500Y-86442738D01*
X81907224Y-86427124D01*
X81906938Y-86427097D01*
X81907672Y-86419334D01*
X81905561Y-86352144D01*
X81905500Y-86348250D01*
X81905500Y-86320651D01*
X81905500Y-86320650D01*
X81904997Y-86316670D01*
X81904080Y-86305021D01*
X81902986Y-86270206D01*
X81902709Y-86261373D01*
X81902464Y-86253573D01*
X81905015Y-86253492D01*
X81912369Y-86196562D01*
X81957361Y-86143107D01*
X81975443Y-86133176D01*
X81986730Y-86128151D01*
X82017219Y-86106000D01*
X82037401Y-86091336D01*
X82139871Y-86016888D01*
X82266533Y-85876216D01*
X82361179Y-85712284D01*
X82419674Y-85532256D01*
X82439460Y-85344000D01*
X82419674Y-85155744D01*
X82361179Y-84975716D01*
X82266533Y-84811784D01*
X82139871Y-84671112D01*
X82139870Y-84671111D01*
X81986734Y-84559851D01*
X81986729Y-84559848D01*
X81813807Y-84482857D01*
X81813802Y-84482855D01*
X81668001Y-84451865D01*
X81628646Y-84443500D01*
X81628645Y-84443500D01*
X81569452Y-84443500D01*
X81502413Y-84423815D01*
X81481771Y-84407181D01*
X77970803Y-80896212D01*
X77960980Y-80883950D01*
X77960759Y-80884134D01*
X77955786Y-80878122D01*
X77906776Y-80832099D01*
X77903977Y-80829386D01*
X77884477Y-80809885D01*
X77884471Y-80809880D01*
X77881286Y-80807409D01*
X77872434Y-80799848D01*
X77840582Y-80769938D01*
X77840580Y-80769936D01*
X77840577Y-80769935D01*
X77823029Y-80760288D01*
X77806763Y-80749604D01*
X77790932Y-80737324D01*
X77750849Y-80719978D01*
X77740363Y-80714841D01*
X77702094Y-80693803D01*
X77702092Y-80693802D01*
X77682693Y-80688822D01*
X77664281Y-80682518D01*
X77645898Y-80674562D01*
X77645892Y-80674560D01*
X77602760Y-80667729D01*
X77591322Y-80665361D01*
X77549020Y-80654500D01*
X77549019Y-80654500D01*
X77528984Y-80654500D01*
X77509586Y-80652973D01*
X77502162Y-80651797D01*
X77489805Y-80649840D01*
X77489804Y-80649840D01*
X77446325Y-80653950D01*
X77434656Y-80654500D01*
X77431068Y-80654500D01*
X77364029Y-80634815D01*
X77318274Y-80582011D01*
X77308330Y-80512853D01*
X77318686Y-80478096D01*
X77342971Y-80426015D01*
X77342974Y-80426009D01*
X77397849Y-80221213D01*
X77416328Y-80010000D01*
X77403922Y-79868207D01*
X77417688Y-79799710D01*
X77466303Y-79749527D01*
X77534332Y-79733593D01*
X77600175Y-79756968D01*
G37*
%TD.AperFunction*%
%TA.AperFunction,Conductor*%
G36*
X92593196Y-78568907D02*
G01*
X92649129Y-78610779D01*
X92673546Y-78676243D01*
X92673390Y-78695895D01*
X92669532Y-78739996D01*
X92669532Y-78740001D01*
X92689364Y-78966686D01*
X92689366Y-78966697D01*
X92748258Y-79186488D01*
X92748261Y-79186497D01*
X92844431Y-79392732D01*
X92844432Y-79392734D01*
X92974954Y-79579141D01*
X93135858Y-79740045D01*
X93135861Y-79740047D01*
X93301624Y-79856114D01*
X93345248Y-79910689D01*
X93354500Y-79957688D01*
X93354500Y-87865298D01*
X93334815Y-87932337D01*
X93282011Y-87978092D01*
X93266496Y-87983958D01*
X93084194Y-88039259D01*
X92909001Y-88132901D01*
X92908995Y-88132905D01*
X92788664Y-88231658D01*
X92724354Y-88258970D01*
X92655487Y-88247179D01*
X92631336Y-88231658D01*
X92511004Y-88132905D01*
X92510998Y-88132901D01*
X92335808Y-88039260D01*
X92211167Y-88001451D01*
X92145701Y-87981592D01*
X92145699Y-87981591D01*
X92145701Y-87981591D01*
X92039415Y-87971123D01*
X91997547Y-87967000D01*
X91997543Y-87967000D01*
X90882457Y-87967000D01*
X90734300Y-87981591D01*
X90544191Y-88039260D01*
X90369001Y-88132901D01*
X90368995Y-88132905D01*
X90248664Y-88231658D01*
X90184354Y-88258970D01*
X90115487Y-88247179D01*
X90091336Y-88231658D01*
X89971004Y-88132905D01*
X89970998Y-88132901D01*
X89795808Y-88039260D01*
X89671167Y-88001451D01*
X89605701Y-87981592D01*
X89605699Y-87981591D01*
X89605701Y-87981591D01*
X89499415Y-87971123D01*
X89457547Y-87967000D01*
X89457543Y-87967000D01*
X88342457Y-87967000D01*
X88194300Y-87981591D01*
X88004191Y-88039260D01*
X87829001Y-88132901D01*
X87828995Y-88132905D01*
X87708664Y-88231658D01*
X87644354Y-88258970D01*
X87575487Y-88247179D01*
X87551336Y-88231658D01*
X87431004Y-88132905D01*
X87430998Y-88132901D01*
X87255805Y-88039259D01*
X87073504Y-87983958D01*
X87015066Y-87945661D01*
X86986609Y-87881849D01*
X86985500Y-87865298D01*
X86985500Y-84125452D01*
X87005185Y-84058413D01*
X87021819Y-84037771D01*
X89539500Y-81520090D01*
X92462183Y-78597406D01*
X92523504Y-78563923D01*
X92593196Y-78568907D01*
G37*
%TD.AperFunction*%
%TA.AperFunction,Conductor*%
G36*
X76718587Y-82687185D02*
G01*
X76739229Y-82703819D01*
X79054567Y-85019157D01*
X79088052Y-85080480D01*
X79083068Y-85150172D01*
X79041196Y-85206105D01*
X78975732Y-85230522D01*
X78941106Y-85228128D01*
X78834647Y-85205500D01*
X78834646Y-85205500D01*
X78645354Y-85205500D01*
X78612897Y-85212398D01*
X78460197Y-85244855D01*
X78460192Y-85244857D01*
X78287271Y-85321848D01*
X78251996Y-85347477D01*
X78186189Y-85370956D01*
X78118135Y-85355130D01*
X78091430Y-85334839D01*
X75635772Y-82879181D01*
X75602287Y-82817858D01*
X75607271Y-82748166D01*
X75649143Y-82692233D01*
X75714607Y-82667816D01*
X75723453Y-82667500D01*
X76651548Y-82667500D01*
X76718587Y-82687185D01*
G37*
%TD.AperFunction*%
%TA.AperFunction,Conductor*%
G36*
X67385312Y-73238597D02*
G01*
X67398771Y-73247112D01*
X67543065Y-73351948D01*
X67543070Y-73351951D01*
X67715992Y-73428942D01*
X67715997Y-73428944D01*
X67901154Y-73468300D01*
X67960348Y-73468300D01*
X68027387Y-73487985D01*
X68048029Y-73504619D01*
X69421981Y-74878571D01*
X69455466Y-74939894D01*
X69458300Y-74966252D01*
X69458300Y-76367578D01*
X69438615Y-76434617D01*
X69385811Y-76480372D01*
X69316653Y-76490316D01*
X69263177Y-76469153D01*
X69188168Y-76416631D01*
X69188164Y-76416629D01*
X69082973Y-76367578D01*
X68996009Y-76327026D01*
X68996005Y-76327025D01*
X68996001Y-76327023D01*
X68791218Y-76272152D01*
X68791208Y-76272150D01*
X68580001Y-76253672D01*
X68579999Y-76253672D01*
X68368791Y-76272150D01*
X68368781Y-76272152D01*
X68163998Y-76327023D01*
X68163989Y-76327027D01*
X67971835Y-76416629D01*
X67971831Y-76416631D01*
X67798163Y-76538235D01*
X67798157Y-76538240D01*
X67648240Y-76688157D01*
X67648235Y-76688163D01*
X67526631Y-76861831D01*
X67526629Y-76861835D01*
X67526629Y-76861836D01*
X67439878Y-77047876D01*
X67437027Y-77053989D01*
X67437024Y-77053996D01*
X67429775Y-77081051D01*
X67393409Y-77140711D01*
X67330562Y-77171240D01*
X67261187Y-77162945D01*
X67207309Y-77118459D01*
X67190225Y-77081051D01*
X67182975Y-77053996D01*
X67182974Y-77053991D01*
X67093371Y-76861836D01*
X67093369Y-76861833D01*
X67093368Y-76861831D01*
X66971764Y-76688163D01*
X66971759Y-76688157D01*
X66821842Y-76538240D01*
X66821836Y-76538235D01*
X66648168Y-76416631D01*
X66648164Y-76416629D01*
X66542973Y-76367578D01*
X66456009Y-76327026D01*
X66456005Y-76327025D01*
X66456001Y-76327023D01*
X66428949Y-76319775D01*
X66369288Y-76283410D01*
X66338759Y-76220563D01*
X66347054Y-76151188D01*
X66391539Y-76097310D01*
X66428949Y-76080225D01*
X66446930Y-76075406D01*
X66456009Y-76072974D01*
X66648164Y-75983371D01*
X66821841Y-75861761D01*
X66971761Y-75711841D01*
X67093371Y-75538164D01*
X67182974Y-75346009D01*
X67237849Y-75141213D01*
X67256328Y-74930000D01*
X67237849Y-74718787D01*
X67182974Y-74513991D01*
X67093371Y-74321836D01*
X67093369Y-74321833D01*
X67093368Y-74321831D01*
X66971764Y-74148163D01*
X66971759Y-74148157D01*
X66821842Y-73998240D01*
X66821836Y-73998235D01*
X66648168Y-73876631D01*
X66648164Y-73876629D01*
X66565497Y-73838081D01*
X66513058Y-73791909D01*
X66493906Y-73724715D01*
X66514122Y-73657834D01*
X66567287Y-73612500D01*
X66617902Y-73601699D01*
X66799071Y-73601699D01*
X66799072Y-73601699D01*
X66858683Y-73595291D01*
X66993531Y-73544996D01*
X67108746Y-73458746D01*
X67194996Y-73343531D01*
X67203116Y-73321761D01*
X67209704Y-73304098D01*
X67251574Y-73248164D01*
X67317039Y-73223746D01*
X67385312Y-73238597D01*
G37*
%TD.AperFunction*%
%TA.AperFunction,Conductor*%
G36*
X78354835Y-75055148D02*
G01*
X78412359Y-75168045D01*
X78501955Y-75257641D01*
X78614852Y-75315165D01*
X78695599Y-75327953D01*
X78078285Y-75945265D01*
X78132087Y-75982937D01*
X78324161Y-76072502D01*
X78324166Y-76072505D01*
X78352011Y-76079965D01*
X78411673Y-76116328D01*
X78442204Y-76179175D01*
X78433911Y-76248550D01*
X78389427Y-76302429D01*
X78352018Y-76319515D01*
X78323999Y-76327023D01*
X78323989Y-76327027D01*
X78131835Y-76416629D01*
X78131831Y-76416631D01*
X77958163Y-76538235D01*
X77958157Y-76538240D01*
X77808240Y-76688157D01*
X77808235Y-76688163D01*
X77686631Y-76861831D01*
X77686629Y-76861835D01*
X77686629Y-76861836D01*
X77599878Y-77047876D01*
X77597027Y-77053989D01*
X77597024Y-77053996D01*
X77589775Y-77081051D01*
X77553409Y-77140711D01*
X77490562Y-77171240D01*
X77421187Y-77162945D01*
X77367309Y-77118459D01*
X77350225Y-77081051D01*
X77342975Y-77053996D01*
X77342974Y-77053991D01*
X77253371Y-76861836D01*
X77253369Y-76861833D01*
X77253368Y-76861831D01*
X77131764Y-76688163D01*
X77131759Y-76688157D01*
X76981842Y-76538240D01*
X76981836Y-76538235D01*
X76808168Y-76416631D01*
X76808164Y-76416629D01*
X76702973Y-76367578D01*
X76616009Y-76327026D01*
X76616005Y-76327025D01*
X76616001Y-76327023D01*
X76588949Y-76319775D01*
X76529288Y-76283410D01*
X76498759Y-76220563D01*
X76507054Y-76151188D01*
X76551539Y-76097310D01*
X76588949Y-76080225D01*
X76606930Y-76075406D01*
X76616009Y-76072974D01*
X76808164Y-75983371D01*
X76981841Y-75861761D01*
X77131761Y-75711841D01*
X77253371Y-75538164D01*
X77342974Y-75346009D01*
X77343023Y-75345829D01*
X77350483Y-75317986D01*
X77386847Y-75258325D01*
X77449694Y-75227795D01*
X77519069Y-75236089D01*
X77572948Y-75280574D01*
X77590033Y-75317985D01*
X77597493Y-75345829D01*
X77597497Y-75345838D01*
X77687062Y-75537912D01*
X77687063Y-75537914D01*
X77724733Y-75591712D01*
X77724733Y-75591713D01*
X78342046Y-74974400D01*
X78354835Y-75055148D01*
G37*
%TD.AperFunction*%
%TA.AperFunction,Conductor*%
G36*
X57726703Y-72916610D02*
G01*
X57757880Y-72957915D01*
X57789310Y-73025316D01*
X57797431Y-73042732D01*
X57797432Y-73042734D01*
X57927954Y-73229141D01*
X58088858Y-73390045D01*
X58088861Y-73390047D01*
X58275266Y-73520568D01*
X58290975Y-73527893D01*
X58343414Y-73574064D01*
X58362567Y-73641257D01*
X58342352Y-73708138D01*
X58290979Y-73752656D01*
X58275514Y-73759867D01*
X58275512Y-73759868D01*
X58202526Y-73810973D01*
X58202526Y-73810974D01*
X58883599Y-74492046D01*
X58802852Y-74504835D01*
X58689955Y-74562359D01*
X58600359Y-74651955D01*
X58542835Y-74764852D01*
X58530046Y-74845598D01*
X57848974Y-74164526D01*
X57848973Y-74164526D01*
X57797868Y-74237512D01*
X57797866Y-74237516D01*
X57757882Y-74323263D01*
X57711710Y-74375702D01*
X57644516Y-74394854D01*
X57577635Y-74374638D01*
X57532300Y-74321473D01*
X57521500Y-74270858D01*
X57521500Y-73010323D01*
X57541185Y-72943284D01*
X57593989Y-72897529D01*
X57663147Y-72887585D01*
X57726703Y-72916610D01*
G37*
%TD.AperFunction*%
%TA.AperFunction,Conductor*%
G36*
X83337787Y-71531385D02*
G01*
X83358429Y-71548019D01*
X85136107Y-73325697D01*
X85169592Y-73387020D01*
X85170266Y-73432742D01*
X85170414Y-73432756D01*
X85170287Y-73434125D01*
X85170317Y-73436153D01*
X85169884Y-73438465D01*
X85149357Y-73659999D01*
X85149357Y-73665402D01*
X85129672Y-73732441D01*
X85076868Y-73778196D01*
X85007710Y-73788140D01*
X84944154Y-73759115D01*
X84934930Y-73750065D01*
X84933870Y-73749111D01*
X84780734Y-73637851D01*
X84780729Y-73637848D01*
X84607807Y-73560857D01*
X84607802Y-73560855D01*
X84452718Y-73527892D01*
X84422646Y-73521500D01*
X84422645Y-73521500D01*
X84363452Y-73521500D01*
X84296413Y-73501815D01*
X84275771Y-73485181D01*
X83833003Y-73042412D01*
X83823180Y-73030150D01*
X83822959Y-73030334D01*
X83817986Y-73024322D01*
X83768976Y-72978299D01*
X83766177Y-72975586D01*
X83746677Y-72956085D01*
X83746671Y-72956080D01*
X83743486Y-72953609D01*
X83734634Y-72946048D01*
X83702782Y-72916138D01*
X83702780Y-72916136D01*
X83702777Y-72916135D01*
X83685229Y-72906488D01*
X83668963Y-72895804D01*
X83658367Y-72887585D01*
X83653136Y-72883527D01*
X83653135Y-72883526D01*
X83653132Y-72883524D01*
X83613049Y-72866178D01*
X83602563Y-72861041D01*
X83564294Y-72840003D01*
X83564292Y-72840002D01*
X83544893Y-72835022D01*
X83526481Y-72828718D01*
X83508098Y-72820762D01*
X83508092Y-72820760D01*
X83464960Y-72813929D01*
X83453522Y-72811561D01*
X83411220Y-72800700D01*
X83411219Y-72800700D01*
X83391184Y-72800700D01*
X83371786Y-72799173D01*
X83364362Y-72797997D01*
X83352005Y-72796040D01*
X83352004Y-72796040D01*
X83308525Y-72800150D01*
X83296856Y-72800700D01*
X82772069Y-72800700D01*
X82705030Y-72781015D01*
X82659275Y-72728211D01*
X82649331Y-72659053D01*
X82654138Y-72638382D01*
X82666212Y-72601221D01*
X82673674Y-72578256D01*
X82693460Y-72390000D01*
X82673674Y-72201744D01*
X82615179Y-72021716D01*
X82520533Y-71857784D01*
X82395276Y-71718672D01*
X82365046Y-71655681D01*
X82373671Y-71586345D01*
X82418413Y-71532680D01*
X82485065Y-71511722D01*
X82487426Y-71511700D01*
X83270748Y-71511700D01*
X83337787Y-71531385D01*
G37*
%TD.AperFunction*%
%TA.AperFunction,Conductor*%
G36*
X80490787Y-71981385D02*
G01*
X80511429Y-71998019D01*
X80849038Y-72335629D01*
X80882523Y-72396952D01*
X80884678Y-72410348D01*
X80891231Y-72472691D01*
X80902326Y-72578256D01*
X80902327Y-72578259D01*
X80921862Y-72638382D01*
X80923857Y-72708223D01*
X80887777Y-72768056D01*
X80825076Y-72798884D01*
X80803931Y-72800700D01*
X80045997Y-72800700D01*
X79978958Y-72781015D01*
X79933203Y-72728211D01*
X79923259Y-72659053D01*
X79926222Y-72644608D01*
X79933701Y-72616692D01*
X79937849Y-72601213D01*
X79956328Y-72390000D01*
X79937849Y-72178787D01*
X79921506Y-72117793D01*
X79923169Y-72047943D01*
X79962332Y-71990081D01*
X80026561Y-71962577D01*
X80041281Y-71961700D01*
X80423748Y-71961700D01*
X80490787Y-71981385D01*
G37*
%TD.AperFunction*%
%TA.AperFunction,Conductor*%
G36*
X68868314Y-65796185D02*
G01*
X68888956Y-65812819D01*
X69006396Y-65930259D01*
X69039881Y-65991582D01*
X69034897Y-66061274D01*
X68993025Y-66117207D01*
X68927561Y-66141624D01*
X68886622Y-66137715D01*
X68791218Y-66112152D01*
X68791208Y-66112150D01*
X68580001Y-66093672D01*
X68579999Y-66093672D01*
X68368791Y-66112150D01*
X68368781Y-66112152D01*
X68163998Y-66167023D01*
X68163989Y-66167027D01*
X67971835Y-66256629D01*
X67971831Y-66256631D01*
X67798163Y-66378235D01*
X67798157Y-66378240D01*
X67648240Y-66528157D01*
X67648235Y-66528163D01*
X67526631Y-66701831D01*
X67526629Y-66701835D01*
X67437027Y-66893989D01*
X67437024Y-66893996D01*
X67429775Y-66921051D01*
X67393409Y-66980711D01*
X67330562Y-67011240D01*
X67261187Y-67002945D01*
X67207309Y-66958459D01*
X67190225Y-66921051D01*
X67182975Y-66893996D01*
X67182974Y-66893991D01*
X67093371Y-66701836D01*
X67093369Y-66701833D01*
X67093368Y-66701831D01*
X66971764Y-66528163D01*
X66971759Y-66528157D01*
X66821842Y-66378240D01*
X66821836Y-66378235D01*
X66648168Y-66256631D01*
X66648164Y-66256629D01*
X66456009Y-66167026D01*
X66456005Y-66167025D01*
X66456001Y-66167023D01*
X66251218Y-66112152D01*
X66251208Y-66112150D01*
X66040001Y-66093672D01*
X66039999Y-66093672D01*
X65828791Y-66112150D01*
X65828781Y-66112152D01*
X65623998Y-66167023D01*
X65623989Y-66167027D01*
X65431835Y-66256629D01*
X65431831Y-66256631D01*
X65258163Y-66378235D01*
X65258157Y-66378240D01*
X65108240Y-66528157D01*
X65108235Y-66528163D01*
X64986631Y-66701831D01*
X64986629Y-66701835D01*
X64897027Y-66893989D01*
X64897023Y-66893998D01*
X64842152Y-67098781D01*
X64842150Y-67098791D01*
X64823672Y-67309999D01*
X64823672Y-67310000D01*
X64842150Y-67521208D01*
X64842152Y-67521218D01*
X64897023Y-67726001D01*
X64897025Y-67726005D01*
X64897026Y-67726009D01*
X64951213Y-67842214D01*
X64986629Y-67918164D01*
X64986631Y-67918168D01*
X65108235Y-68091836D01*
X65108240Y-68091842D01*
X65112369Y-68095971D01*
X65145854Y-68157294D01*
X65140870Y-68226986D01*
X65112369Y-68271333D01*
X64461333Y-68922369D01*
X64400010Y-68955854D01*
X64330318Y-68950870D01*
X64285971Y-68922369D01*
X64281842Y-68918240D01*
X64281836Y-68918235D01*
X64108168Y-68796631D01*
X64108164Y-68796629D01*
X63916009Y-68707026D01*
X63916005Y-68707025D01*
X63916001Y-68707023D01*
X63711218Y-68652152D01*
X63711208Y-68652150D01*
X63500001Y-68633672D01*
X63499999Y-68633672D01*
X63288791Y-68652150D01*
X63288781Y-68652152D01*
X63083998Y-68707023D01*
X63083989Y-68707027D01*
X62891835Y-68796629D01*
X62891831Y-68796631D01*
X62718163Y-68918235D01*
X62718157Y-68918240D01*
X62568240Y-69068157D01*
X62568235Y-69068163D01*
X62446631Y-69241831D01*
X62446629Y-69241835D01*
X62357027Y-69433989D01*
X62357023Y-69433998D01*
X62302152Y-69638781D01*
X62302150Y-69638791D01*
X62283672Y-69849999D01*
X62283672Y-69850000D01*
X62302150Y-70061208D01*
X62302152Y-70061218D01*
X62357023Y-70266001D01*
X62357025Y-70266005D01*
X62357026Y-70266009D01*
X62408379Y-70376136D01*
X62446629Y-70458164D01*
X62446631Y-70458168D01*
X62568235Y-70631836D01*
X62568240Y-70631842D01*
X62718157Y-70781759D01*
X62718163Y-70781764D01*
X62891831Y-70903368D01*
X62891833Y-70903369D01*
X62891836Y-70903371D01*
X63083991Y-70992974D01*
X63098717Y-70996919D01*
X63111051Y-71000225D01*
X63170711Y-71036591D01*
X63201240Y-71099438D01*
X63192945Y-71168813D01*
X63148459Y-71222691D01*
X63111051Y-71239775D01*
X63083996Y-71247024D01*
X63083989Y-71247027D01*
X62891835Y-71336629D01*
X62891831Y-71336631D01*
X62718163Y-71458235D01*
X62573216Y-71603182D01*
X62511893Y-71636666D01*
X62485535Y-71639500D01*
X60054663Y-71639500D01*
X59987624Y-71619815D01*
X59953088Y-71586623D01*
X59928045Y-71550858D01*
X59767141Y-71389954D01*
X59580734Y-71259432D01*
X59580732Y-71259431D01*
X59374497Y-71163261D01*
X59374488Y-71163258D01*
X59154697Y-71104366D01*
X59154693Y-71104365D01*
X59154692Y-71104365D01*
X59154691Y-71104364D01*
X59154686Y-71104364D01*
X58928002Y-71084532D01*
X58927998Y-71084532D01*
X58701313Y-71104364D01*
X58701302Y-71104366D01*
X58481511Y-71163258D01*
X58481502Y-71163261D01*
X58275267Y-71259431D01*
X58168367Y-71334282D01*
X58102161Y-71356609D01*
X58034394Y-71339597D01*
X57986581Y-71288648D01*
X57973904Y-71219939D01*
X58000387Y-71155282D01*
X58009554Y-71145035D01*
X63341772Y-65812819D01*
X63403095Y-65779334D01*
X63429453Y-65776500D01*
X68801275Y-65776500D01*
X68868314Y-65796185D01*
G37*
%TD.AperFunction*%
%TA.AperFunction,Conductor*%
G36*
X69606587Y-64145185D02*
G01*
X69627229Y-64161819D01*
X71360278Y-65894868D01*
X71393763Y-65956191D01*
X71388779Y-66025883D01*
X71346907Y-66081816D01*
X71281443Y-66106233D01*
X71261790Y-66106077D01*
X71120002Y-66093672D01*
X71119999Y-66093672D01*
X70908791Y-66112150D01*
X70908781Y-66112152D01*
X70703998Y-66167023D01*
X70703984Y-66167028D01*
X70651904Y-66191314D01*
X70582827Y-66201806D01*
X70519043Y-66173286D01*
X70480804Y-66114809D01*
X70475500Y-66078932D01*
X70475500Y-65972015D01*
X70477224Y-65956395D01*
X70476939Y-65956368D01*
X70477673Y-65948606D01*
X70475561Y-65881385D01*
X70475500Y-65877491D01*
X70475500Y-65849929D01*
X70475500Y-65849923D01*
X70474996Y-65845941D01*
X70474081Y-65834302D01*
X70473868Y-65827514D01*
X70472710Y-65790646D01*
X70467119Y-65771403D01*
X70463173Y-65752351D01*
X70460664Y-65732481D01*
X70444579Y-65691856D01*
X70440806Y-65680835D01*
X70428618Y-65638883D01*
X70428617Y-65638882D01*
X70428617Y-65638880D01*
X70428616Y-65638879D01*
X70418423Y-65621644D01*
X70409861Y-65604167D01*
X70402487Y-65585542D01*
X70376816Y-65550210D01*
X70370405Y-65540450D01*
X70348170Y-65502853D01*
X70348168Y-65502851D01*
X70348165Y-65502847D01*
X70334006Y-65488688D01*
X70321368Y-65473892D01*
X70309594Y-65457686D01*
X70275940Y-65429845D01*
X70267299Y-65421982D01*
X69612530Y-64767212D01*
X69602707Y-64754950D01*
X69602486Y-64755134D01*
X69597513Y-64749122D01*
X69548503Y-64703099D01*
X69545704Y-64700386D01*
X69526204Y-64680885D01*
X69526198Y-64680880D01*
X69523013Y-64678409D01*
X69514161Y-64670848D01*
X69482309Y-64640938D01*
X69482307Y-64640936D01*
X69482304Y-64640935D01*
X69464756Y-64631288D01*
X69448490Y-64620604D01*
X69432659Y-64608324D01*
X69392576Y-64590978D01*
X69382090Y-64585841D01*
X69343821Y-64564803D01*
X69343819Y-64564802D01*
X69324420Y-64559822D01*
X69306008Y-64553518D01*
X69287625Y-64545562D01*
X69287619Y-64545560D01*
X69244487Y-64538729D01*
X69233049Y-64536361D01*
X69190747Y-64525500D01*
X69190746Y-64525500D01*
X69170711Y-64525500D01*
X69151313Y-64523973D01*
X69143889Y-64522797D01*
X69131532Y-64520840D01*
X69131531Y-64520840D01*
X69088052Y-64524950D01*
X69076383Y-64525500D01*
X63201743Y-64525500D01*
X63186122Y-64523775D01*
X63186096Y-64524061D01*
X63178334Y-64523327D01*
X63178333Y-64523327D01*
X63126688Y-64524950D01*
X63111127Y-64525439D01*
X63107232Y-64525500D01*
X63079647Y-64525500D01*
X63075661Y-64526003D01*
X63064033Y-64526918D01*
X63020373Y-64528290D01*
X63001129Y-64533881D01*
X62982079Y-64537825D01*
X62962211Y-64540334D01*
X62962210Y-64540334D01*
X62921599Y-64556413D01*
X62910554Y-64560194D01*
X62868614Y-64572379D01*
X62868610Y-64572381D01*
X62851366Y-64582579D01*
X62833905Y-64591133D01*
X62815274Y-64598510D01*
X62815262Y-64598517D01*
X62779933Y-64624185D01*
X62770173Y-64630596D01*
X62732580Y-64652829D01*
X62718414Y-64666995D01*
X62703624Y-64679627D01*
X62687414Y-64691404D01*
X62687411Y-64691407D01*
X62659573Y-64725058D01*
X62651711Y-64733697D01*
X57225181Y-70160228D01*
X57163858Y-70193713D01*
X57094166Y-70188729D01*
X57038233Y-70146857D01*
X57013816Y-70081393D01*
X57013500Y-70072547D01*
X57013500Y-69144452D01*
X57033185Y-69077413D01*
X57049819Y-69056771D01*
X61944772Y-64161819D01*
X62006095Y-64128334D01*
X62032453Y-64125500D01*
X69539548Y-64125500D01*
X69606587Y-64145185D01*
G37*
%TD.AperFunction*%
%TA.AperFunction,Conductor*%
G36*
X70622587Y-62621185D02*
G01*
X70643229Y-62637819D01*
X73900277Y-65894868D01*
X73933762Y-65956191D01*
X73928778Y-66025883D01*
X73886906Y-66081816D01*
X73821442Y-66106233D01*
X73801788Y-66106077D01*
X73660001Y-66093672D01*
X73659999Y-66093672D01*
X73448792Y-66112150D01*
X73448777Y-66112153D01*
X73437449Y-66115188D01*
X73367599Y-66113520D01*
X73317683Y-66083092D01*
X70350803Y-63116212D01*
X70340980Y-63103950D01*
X70340759Y-63104134D01*
X70335786Y-63098122D01*
X70286776Y-63052099D01*
X70283977Y-63049386D01*
X70264477Y-63029885D01*
X70264471Y-63029880D01*
X70261286Y-63027409D01*
X70252434Y-63019848D01*
X70220582Y-62989938D01*
X70220580Y-62989936D01*
X70220577Y-62989935D01*
X70203029Y-62980288D01*
X70186763Y-62969604D01*
X70170932Y-62957324D01*
X70130849Y-62939978D01*
X70120363Y-62934841D01*
X70082094Y-62913803D01*
X70082092Y-62913802D01*
X70062693Y-62908822D01*
X70044281Y-62902518D01*
X70025898Y-62894562D01*
X70025892Y-62894560D01*
X69982760Y-62887729D01*
X69971322Y-62885361D01*
X69929020Y-62874500D01*
X69929019Y-62874500D01*
X69908984Y-62874500D01*
X69889586Y-62872973D01*
X69882162Y-62871797D01*
X69869805Y-62869840D01*
X69869804Y-62869840D01*
X69826325Y-62873950D01*
X69814656Y-62874500D01*
X61804738Y-62874500D01*
X61789121Y-62872776D01*
X61789094Y-62873062D01*
X61781332Y-62872327D01*
X61714145Y-62874439D01*
X61710251Y-62874500D01*
X61682650Y-62874500D01*
X61678962Y-62874965D01*
X61678649Y-62875005D01*
X61667031Y-62875918D01*
X61623373Y-62877290D01*
X61623372Y-62877290D01*
X61604129Y-62882881D01*
X61585079Y-62886825D01*
X61565211Y-62889334D01*
X61565210Y-62889335D01*
X61524600Y-62905413D01*
X61513553Y-62909195D01*
X61471610Y-62921381D01*
X61471609Y-62921382D01*
X61454367Y-62931579D01*
X61436899Y-62940137D01*
X61418269Y-62947513D01*
X61418266Y-62947515D01*
X61382939Y-62973181D01*
X61373180Y-62979592D01*
X61335579Y-63001830D01*
X61321408Y-63016000D01*
X61306623Y-63028628D01*
X61290412Y-63040407D01*
X61262571Y-63074059D01*
X61254711Y-63082696D01*
X56654181Y-67683227D01*
X56592858Y-67716712D01*
X56523166Y-67711728D01*
X56467233Y-67669856D01*
X56442816Y-67604392D01*
X56442500Y-67595546D01*
X56442500Y-66413452D01*
X56462185Y-66346413D01*
X56478819Y-66325771D01*
X60166772Y-62637819D01*
X60228095Y-62604334D01*
X60254453Y-62601500D01*
X70555548Y-62601500D01*
X70622587Y-62621185D01*
G37*
%TD.AperFunction*%
%TD*%
M02*
