%TF.GenerationSoftware,KiCad,Pcbnew,7.0.10*%
%TF.CreationDate,2024-01-06T19:25:44+00:00*%
%TF.ProjectId,v1a,7631612e-6b69-4636-9164-5f7063625858,rev?*%
%TF.SameCoordinates,Original*%
%TF.FileFunction,Legend,Top*%
%TF.FilePolarity,Positive*%
%FSLAX46Y46*%
G04 Gerber Fmt 4.6, Leading zero omitted, Abs format (unit mm)*
G04 Created by KiCad (PCBNEW 7.0.10) date 2024-01-06 19:25:44*
%MOMM*%
%LPD*%
G01*
G04 APERTURE LIST*
%ADD10C,0.150000*%
%ADD11C,0.400000*%
%ADD12C,0.160000*%
%ADD13C,0.200000*%
%ADD14C,0.120000*%
%ADD15C,0.300000*%
G04 APERTURE END LIST*
D10*
X43093095Y-61687152D02*
X43474047Y-61687152D01*
X43235952Y-62353819D02*
X43235952Y-61496676D01*
X43235952Y-61496676D02*
X43283571Y-61401438D01*
X43283571Y-61401438D02*
X43378809Y-61353819D01*
X43378809Y-61353819D02*
X43474047Y-61353819D01*
X43950238Y-62353819D02*
X43855000Y-62306200D01*
X43855000Y-62306200D02*
X43807381Y-62258580D01*
X43807381Y-62258580D02*
X43759762Y-62163342D01*
X43759762Y-62163342D02*
X43759762Y-61877628D01*
X43759762Y-61877628D02*
X43807381Y-61782390D01*
X43807381Y-61782390D02*
X43855000Y-61734771D01*
X43855000Y-61734771D02*
X43950238Y-61687152D01*
X43950238Y-61687152D02*
X44093095Y-61687152D01*
X44093095Y-61687152D02*
X44188333Y-61734771D01*
X44188333Y-61734771D02*
X44235952Y-61782390D01*
X44235952Y-61782390D02*
X44283571Y-61877628D01*
X44283571Y-61877628D02*
X44283571Y-62163342D01*
X44283571Y-62163342D02*
X44235952Y-62258580D01*
X44235952Y-62258580D02*
X44188333Y-62306200D01*
X44188333Y-62306200D02*
X44093095Y-62353819D01*
X44093095Y-62353819D02*
X43950238Y-62353819D01*
X44712143Y-62353819D02*
X44712143Y-61687152D01*
X44712143Y-61877628D02*
X44759762Y-61782390D01*
X44759762Y-61782390D02*
X44807381Y-61734771D01*
X44807381Y-61734771D02*
X44902619Y-61687152D01*
X44902619Y-61687152D02*
X44997857Y-61687152D01*
X46093096Y-62353819D02*
X46093096Y-61353819D01*
X46664524Y-62353819D02*
X46235953Y-61782390D01*
X46664524Y-61353819D02*
X46093096Y-61925247D01*
X47093096Y-62353819D02*
X47093096Y-61353819D01*
X47426429Y-61353819D02*
X47997857Y-61353819D01*
X47712143Y-62353819D02*
X47712143Y-61353819D01*
X48188334Y-61353819D02*
X48759762Y-61353819D01*
X48474048Y-62353819D02*
X48474048Y-61353819D01*
X49283572Y-61877628D02*
X49283572Y-62353819D01*
X48950239Y-61353819D02*
X49283572Y-61877628D01*
X49283572Y-61877628D02*
X49616905Y-61353819D01*
D11*
X43784856Y-59646819D02*
X43118189Y-59646819D01*
X43118189Y-60694438D02*
X43118189Y-58694438D01*
X43118189Y-58694438D02*
X44070570Y-58694438D01*
X45784856Y-60694438D02*
X44832475Y-60694438D01*
X44832475Y-60694438D02*
X44832475Y-58694438D01*
X46356285Y-60123009D02*
X47308666Y-60123009D01*
X46165809Y-60694438D02*
X46832475Y-58694438D01*
X46832475Y-58694438D02*
X47499142Y-60694438D01*
X48070571Y-60599200D02*
X48356285Y-60694438D01*
X48356285Y-60694438D02*
X48832476Y-60694438D01*
X48832476Y-60694438D02*
X49022952Y-60599200D01*
X49022952Y-60599200D02*
X49118190Y-60503961D01*
X49118190Y-60503961D02*
X49213428Y-60313485D01*
X49213428Y-60313485D02*
X49213428Y-60123009D01*
X49213428Y-60123009D02*
X49118190Y-59932533D01*
X49118190Y-59932533D02*
X49022952Y-59837295D01*
X49022952Y-59837295D02*
X48832476Y-59742057D01*
X48832476Y-59742057D02*
X48451523Y-59646819D01*
X48451523Y-59646819D02*
X48261047Y-59551580D01*
X48261047Y-59551580D02*
X48165809Y-59456342D01*
X48165809Y-59456342D02*
X48070571Y-59265866D01*
X48070571Y-59265866D02*
X48070571Y-59075390D01*
X48070571Y-59075390D02*
X48165809Y-58884914D01*
X48165809Y-58884914D02*
X48261047Y-58789676D01*
X48261047Y-58789676D02*
X48451523Y-58694438D01*
X48451523Y-58694438D02*
X48927714Y-58694438D01*
X48927714Y-58694438D02*
X49213428Y-58789676D01*
X50070571Y-60694438D02*
X50070571Y-58694438D01*
X50070571Y-59646819D02*
X51213428Y-59646819D01*
X51213428Y-60694438D02*
X51213428Y-58694438D01*
X54832476Y-60694438D02*
X54165809Y-59742057D01*
X53689619Y-60694438D02*
X53689619Y-58694438D01*
X53689619Y-58694438D02*
X54451524Y-58694438D01*
X54451524Y-58694438D02*
X54642000Y-58789676D01*
X54642000Y-58789676D02*
X54737238Y-58884914D01*
X54737238Y-58884914D02*
X54832476Y-59075390D01*
X54832476Y-59075390D02*
X54832476Y-59361104D01*
X54832476Y-59361104D02*
X54737238Y-59551580D01*
X54737238Y-59551580D02*
X54642000Y-59646819D01*
X54642000Y-59646819D02*
X54451524Y-59742057D01*
X54451524Y-59742057D02*
X53689619Y-59742057D01*
X56070571Y-58694438D02*
X56451524Y-58694438D01*
X56451524Y-58694438D02*
X56642000Y-58789676D01*
X56642000Y-58789676D02*
X56832476Y-58980152D01*
X56832476Y-58980152D02*
X56927714Y-59361104D01*
X56927714Y-59361104D02*
X56927714Y-60027771D01*
X56927714Y-60027771D02*
X56832476Y-60408723D01*
X56832476Y-60408723D02*
X56642000Y-60599200D01*
X56642000Y-60599200D02*
X56451524Y-60694438D01*
X56451524Y-60694438D02*
X56070571Y-60694438D01*
X56070571Y-60694438D02*
X55880095Y-60599200D01*
X55880095Y-60599200D02*
X55689619Y-60408723D01*
X55689619Y-60408723D02*
X55594381Y-60027771D01*
X55594381Y-60027771D02*
X55594381Y-59361104D01*
X55594381Y-59361104D02*
X55689619Y-58980152D01*
X55689619Y-58980152D02*
X55880095Y-58789676D01*
X55880095Y-58789676D02*
X56070571Y-58694438D01*
X57784857Y-60694438D02*
X57784857Y-58694438D01*
X57784857Y-58694438D02*
X58451524Y-60123009D01*
X58451524Y-60123009D02*
X59118190Y-58694438D01*
X59118190Y-58694438D02*
X59118190Y-60694438D01*
X62546762Y-58694438D02*
X61594381Y-58694438D01*
X61594381Y-58694438D02*
X61499143Y-59646819D01*
X61499143Y-59646819D02*
X61594381Y-59551580D01*
X61594381Y-59551580D02*
X61784857Y-59456342D01*
X61784857Y-59456342D02*
X62261048Y-59456342D01*
X62261048Y-59456342D02*
X62451524Y-59551580D01*
X62451524Y-59551580D02*
X62546762Y-59646819D01*
X62546762Y-59646819D02*
X62642000Y-59837295D01*
X62642000Y-59837295D02*
X62642000Y-60313485D01*
X62642000Y-60313485D02*
X62546762Y-60503961D01*
X62546762Y-60503961D02*
X62451524Y-60599200D01*
X62451524Y-60599200D02*
X62261048Y-60694438D01*
X62261048Y-60694438D02*
X61784857Y-60694438D01*
X61784857Y-60694438D02*
X61594381Y-60599200D01*
X61594381Y-60599200D02*
X61499143Y-60503961D01*
X64546762Y-60694438D02*
X63403905Y-60694438D01*
X63975333Y-60694438D02*
X63975333Y-58694438D01*
X63975333Y-58694438D02*
X63784857Y-58980152D01*
X63784857Y-58980152D02*
X63594381Y-59170628D01*
X63594381Y-59170628D02*
X63403905Y-59265866D01*
X65308667Y-58884914D02*
X65403905Y-58789676D01*
X65403905Y-58789676D02*
X65594381Y-58694438D01*
X65594381Y-58694438D02*
X66070572Y-58694438D01*
X66070572Y-58694438D02*
X66261048Y-58789676D01*
X66261048Y-58789676D02*
X66356286Y-58884914D01*
X66356286Y-58884914D02*
X66451524Y-59075390D01*
X66451524Y-59075390D02*
X66451524Y-59265866D01*
X66451524Y-59265866D02*
X66356286Y-59551580D01*
X66356286Y-59551580D02*
X65213429Y-60694438D01*
X65213429Y-60694438D02*
X66451524Y-60694438D01*
X67308667Y-60694438D02*
X67308667Y-58694438D01*
X68451524Y-60694438D02*
X67594381Y-59551580D01*
X68451524Y-58694438D02*
X67308667Y-59837295D01*
X69308667Y-60694438D02*
X69308667Y-58694438D01*
X69308667Y-59456342D02*
X69499143Y-59361104D01*
X69499143Y-59361104D02*
X69880096Y-59361104D01*
X69880096Y-59361104D02*
X70070572Y-59456342D01*
X70070572Y-59456342D02*
X70165810Y-59551580D01*
X70165810Y-59551580D02*
X70261048Y-59742057D01*
X70261048Y-59742057D02*
X70261048Y-60313485D01*
X70261048Y-60313485D02*
X70165810Y-60503961D01*
X70165810Y-60503961D02*
X70070572Y-60599200D01*
X70070572Y-60599200D02*
X69880096Y-60694438D01*
X69880096Y-60694438D02*
X69499143Y-60694438D01*
X69499143Y-60694438D02*
X69308667Y-60599200D01*
D10*
X70715333Y-60163152D02*
X70953428Y-60829819D01*
X70953428Y-60829819D02*
X71191523Y-60163152D01*
X72096285Y-60829819D02*
X71524857Y-60829819D01*
X71810571Y-60829819D02*
X71810571Y-59829819D01*
X71810571Y-59829819D02*
X71715333Y-59972676D01*
X71715333Y-59972676D02*
X71620095Y-60067914D01*
X71620095Y-60067914D02*
X71524857Y-60115533D01*
X72953428Y-60829819D02*
X72953428Y-60306009D01*
X72953428Y-60306009D02*
X72905809Y-60210771D01*
X72905809Y-60210771D02*
X72810571Y-60163152D01*
X72810571Y-60163152D02*
X72620095Y-60163152D01*
X72620095Y-60163152D02*
X72524857Y-60210771D01*
X72953428Y-60782200D02*
X72858190Y-60829819D01*
X72858190Y-60829819D02*
X72620095Y-60829819D01*
X72620095Y-60829819D02*
X72524857Y-60782200D01*
X72524857Y-60782200D02*
X72477238Y-60686961D01*
X72477238Y-60686961D02*
X72477238Y-60591723D01*
X72477238Y-60591723D02*
X72524857Y-60496485D01*
X72524857Y-60496485D02*
X72620095Y-60448866D01*
X72620095Y-60448866D02*
X72858190Y-60448866D01*
X72858190Y-60448866D02*
X72953428Y-60401247D01*
X87217809Y-58807152D02*
X87598761Y-58807152D01*
X87360666Y-58473819D02*
X87360666Y-59330961D01*
X87360666Y-59330961D02*
X87408285Y-59426200D01*
X87408285Y-59426200D02*
X87503523Y-59473819D01*
X87503523Y-59473819D02*
X87598761Y-59473819D01*
X87932095Y-59473819D02*
X87932095Y-58473819D01*
X88360666Y-59473819D02*
X88360666Y-58950009D01*
X88360666Y-58950009D02*
X88313047Y-58854771D01*
X88313047Y-58854771D02*
X88217809Y-58807152D01*
X88217809Y-58807152D02*
X88074952Y-58807152D01*
X88074952Y-58807152D02*
X87979714Y-58854771D01*
X87979714Y-58854771D02*
X87932095Y-58902390D01*
X88836857Y-59473819D02*
X88836857Y-58807152D01*
X88836857Y-58473819D02*
X88789238Y-58521438D01*
X88789238Y-58521438D02*
X88836857Y-58569057D01*
X88836857Y-58569057D02*
X88884476Y-58521438D01*
X88884476Y-58521438D02*
X88836857Y-58473819D01*
X88836857Y-58473819D02*
X88836857Y-58569057D01*
X89265428Y-59426200D02*
X89360666Y-59473819D01*
X89360666Y-59473819D02*
X89551142Y-59473819D01*
X89551142Y-59473819D02*
X89646380Y-59426200D01*
X89646380Y-59426200D02*
X89693999Y-59330961D01*
X89693999Y-59330961D02*
X89693999Y-59283342D01*
X89693999Y-59283342D02*
X89646380Y-59188104D01*
X89646380Y-59188104D02*
X89551142Y-59140485D01*
X89551142Y-59140485D02*
X89408285Y-59140485D01*
X89408285Y-59140485D02*
X89313047Y-59092866D01*
X89313047Y-59092866D02*
X89265428Y-58997628D01*
X89265428Y-58997628D02*
X89265428Y-58950009D01*
X89265428Y-58950009D02*
X89313047Y-58854771D01*
X89313047Y-58854771D02*
X89408285Y-58807152D01*
X89408285Y-58807152D02*
X89551142Y-58807152D01*
X89551142Y-58807152D02*
X89646380Y-58854771D01*
X90836857Y-59426200D02*
X90932095Y-59473819D01*
X90932095Y-59473819D02*
X91122571Y-59473819D01*
X91122571Y-59473819D02*
X91217809Y-59426200D01*
X91217809Y-59426200D02*
X91265428Y-59330961D01*
X91265428Y-59330961D02*
X91265428Y-59283342D01*
X91265428Y-59283342D02*
X91217809Y-59188104D01*
X91217809Y-59188104D02*
X91122571Y-59140485D01*
X91122571Y-59140485D02*
X90979714Y-59140485D01*
X90979714Y-59140485D02*
X90884476Y-59092866D01*
X90884476Y-59092866D02*
X90836857Y-58997628D01*
X90836857Y-58997628D02*
X90836857Y-58950009D01*
X90836857Y-58950009D02*
X90884476Y-58854771D01*
X90884476Y-58854771D02*
X90979714Y-58807152D01*
X90979714Y-58807152D02*
X91122571Y-58807152D01*
X91122571Y-58807152D02*
X91217809Y-58854771D01*
X91694000Y-59473819D02*
X91694000Y-58807152D01*
X91694000Y-58473819D02*
X91646381Y-58521438D01*
X91646381Y-58521438D02*
X91694000Y-58569057D01*
X91694000Y-58569057D02*
X91741619Y-58521438D01*
X91741619Y-58521438D02*
X91694000Y-58473819D01*
X91694000Y-58473819D02*
X91694000Y-58569057D01*
X92598761Y-59473819D02*
X92598761Y-58473819D01*
X92598761Y-59426200D02*
X92503523Y-59473819D01*
X92503523Y-59473819D02*
X92313047Y-59473819D01*
X92313047Y-59473819D02*
X92217809Y-59426200D01*
X92217809Y-59426200D02*
X92170190Y-59378580D01*
X92170190Y-59378580D02*
X92122571Y-59283342D01*
X92122571Y-59283342D02*
X92122571Y-58997628D01*
X92122571Y-58997628D02*
X92170190Y-58902390D01*
X92170190Y-58902390D02*
X92217809Y-58854771D01*
X92217809Y-58854771D02*
X92313047Y-58807152D01*
X92313047Y-58807152D02*
X92503523Y-58807152D01*
X92503523Y-58807152D02*
X92598761Y-58854771D01*
X93455904Y-59426200D02*
X93360666Y-59473819D01*
X93360666Y-59473819D02*
X93170190Y-59473819D01*
X93170190Y-59473819D02*
X93074952Y-59426200D01*
X93074952Y-59426200D02*
X93027333Y-59330961D01*
X93027333Y-59330961D02*
X93027333Y-58950009D01*
X93027333Y-58950009D02*
X93074952Y-58854771D01*
X93074952Y-58854771D02*
X93170190Y-58807152D01*
X93170190Y-58807152D02*
X93360666Y-58807152D01*
X93360666Y-58807152D02*
X93455904Y-58854771D01*
X93455904Y-58854771D02*
X93503523Y-58950009D01*
X93503523Y-58950009D02*
X93503523Y-59045247D01*
X93503523Y-59045247D02*
X93027333Y-59140485D01*
X95122571Y-58807152D02*
X95122571Y-59473819D01*
X94694000Y-58807152D02*
X94694000Y-59330961D01*
X94694000Y-59330961D02*
X94741619Y-59426200D01*
X94741619Y-59426200D02*
X94836857Y-59473819D01*
X94836857Y-59473819D02*
X94979714Y-59473819D01*
X94979714Y-59473819D02*
X95074952Y-59426200D01*
X95074952Y-59426200D02*
X95122571Y-59378580D01*
X95598762Y-58807152D02*
X95598762Y-59807152D01*
X95598762Y-58854771D02*
X95694000Y-58807152D01*
X95694000Y-58807152D02*
X95884476Y-58807152D01*
X95884476Y-58807152D02*
X95979714Y-58854771D01*
X95979714Y-58854771D02*
X96027333Y-58902390D01*
X96027333Y-58902390D02*
X96074952Y-58997628D01*
X96074952Y-58997628D02*
X96074952Y-59283342D01*
X96074952Y-59283342D02*
X96027333Y-59378580D01*
X96027333Y-59378580D02*
X95979714Y-59426200D01*
X95979714Y-59426200D02*
X95884476Y-59473819D01*
X95884476Y-59473819D02*
X95694000Y-59473819D01*
X95694000Y-59473819D02*
X95598762Y-59426200D01*
X91694000Y-61083819D02*
X91694000Y-60321914D01*
X91503524Y-60512390D02*
X91694000Y-60321914D01*
X91694000Y-60321914D02*
X91884476Y-60512390D01*
D12*
X57477299Y-74878095D02*
X57477299Y-75335238D01*
X57477299Y-75106666D02*
X56477299Y-75106666D01*
X56477299Y-75106666D02*
X56620156Y-75182857D01*
X56620156Y-75182857D02*
X56715394Y-75259047D01*
X56715394Y-75259047D02*
X56763013Y-75335238D01*
X56477299Y-74382856D02*
X56477299Y-74306666D01*
X56477299Y-74306666D02*
X56524918Y-74230475D01*
X56524918Y-74230475D02*
X56572537Y-74192380D01*
X56572537Y-74192380D02*
X56667775Y-74154285D01*
X56667775Y-74154285D02*
X56858251Y-74116190D01*
X56858251Y-74116190D02*
X57096346Y-74116190D01*
X57096346Y-74116190D02*
X57286822Y-74154285D01*
X57286822Y-74154285D02*
X57382060Y-74192380D01*
X57382060Y-74192380D02*
X57429680Y-74230475D01*
X57429680Y-74230475D02*
X57477299Y-74306666D01*
X57477299Y-74306666D02*
X57477299Y-74382856D01*
X57477299Y-74382856D02*
X57429680Y-74459047D01*
X57429680Y-74459047D02*
X57382060Y-74497142D01*
X57382060Y-74497142D02*
X57286822Y-74535237D01*
X57286822Y-74535237D02*
X57096346Y-74573333D01*
X57096346Y-74573333D02*
X56858251Y-74573333D01*
X56858251Y-74573333D02*
X56667775Y-74535237D01*
X56667775Y-74535237D02*
X56572537Y-74497142D01*
X56572537Y-74497142D02*
X56524918Y-74459047D01*
X56524918Y-74459047D02*
X56477299Y-74382856D01*
X56477299Y-73620951D02*
X56477299Y-73544761D01*
X56477299Y-73544761D02*
X56524918Y-73468570D01*
X56524918Y-73468570D02*
X56572537Y-73430475D01*
X56572537Y-73430475D02*
X56667775Y-73392380D01*
X56667775Y-73392380D02*
X56858251Y-73354285D01*
X56858251Y-73354285D02*
X57096346Y-73354285D01*
X57096346Y-73354285D02*
X57286822Y-73392380D01*
X57286822Y-73392380D02*
X57382060Y-73430475D01*
X57382060Y-73430475D02*
X57429680Y-73468570D01*
X57429680Y-73468570D02*
X57477299Y-73544761D01*
X57477299Y-73544761D02*
X57477299Y-73620951D01*
X57477299Y-73620951D02*
X57429680Y-73697142D01*
X57429680Y-73697142D02*
X57382060Y-73735237D01*
X57382060Y-73735237D02*
X57286822Y-73773332D01*
X57286822Y-73773332D02*
X57096346Y-73811428D01*
X57096346Y-73811428D02*
X56858251Y-73811428D01*
X56858251Y-73811428D02*
X56667775Y-73773332D01*
X56667775Y-73773332D02*
X56572537Y-73735237D01*
X56572537Y-73735237D02*
X56524918Y-73697142D01*
X56524918Y-73697142D02*
X56477299Y-73620951D01*
X56810632Y-73011427D02*
X57477299Y-73011427D01*
X56905870Y-73011427D02*
X56858251Y-72973332D01*
X56858251Y-72973332D02*
X56810632Y-72897142D01*
X56810632Y-72897142D02*
X56810632Y-72782856D01*
X56810632Y-72782856D02*
X56858251Y-72706665D01*
X56858251Y-72706665D02*
X56953489Y-72668570D01*
X56953489Y-72668570D02*
X57477299Y-72668570D01*
X56953489Y-72020951D02*
X56953489Y-72287617D01*
X57477299Y-72287617D02*
X56477299Y-72287617D01*
X56477299Y-72287617D02*
X56477299Y-71906665D01*
D13*
X88455713Y-81478219D02*
X87998570Y-81478219D01*
X88227142Y-81478219D02*
X88227142Y-80478219D01*
X88227142Y-80478219D02*
X88150951Y-80621076D01*
X88150951Y-80621076D02*
X88074761Y-80716314D01*
X88074761Y-80716314D02*
X87998570Y-80763933D01*
X88798571Y-81478219D02*
X88798571Y-80478219D01*
X88798571Y-80478219D02*
X89255714Y-81478219D01*
X89255714Y-81478219D02*
X89255714Y-80478219D01*
X89979523Y-80811552D02*
X89979523Y-81478219D01*
X89789047Y-80430600D02*
X89598570Y-81144885D01*
X89598570Y-81144885D02*
X90093809Y-81144885D01*
X90817618Y-81478219D02*
X90360475Y-81478219D01*
X90589047Y-81478219D02*
X90589047Y-80478219D01*
X90589047Y-80478219D02*
X90512856Y-80621076D01*
X90512856Y-80621076D02*
X90436666Y-80716314D01*
X90436666Y-80716314D02*
X90360475Y-80763933D01*
X91503333Y-80811552D02*
X91503333Y-81478219D01*
X91312857Y-80430600D02*
X91122380Y-81144885D01*
X91122380Y-81144885D02*
X91617619Y-81144885D01*
X92036666Y-80906790D02*
X91960476Y-80859171D01*
X91960476Y-80859171D02*
X91922381Y-80811552D01*
X91922381Y-80811552D02*
X91884285Y-80716314D01*
X91884285Y-80716314D02*
X91884285Y-80668695D01*
X91884285Y-80668695D02*
X91922381Y-80573457D01*
X91922381Y-80573457D02*
X91960476Y-80525838D01*
X91960476Y-80525838D02*
X92036666Y-80478219D01*
X92036666Y-80478219D02*
X92189047Y-80478219D01*
X92189047Y-80478219D02*
X92265238Y-80525838D01*
X92265238Y-80525838D02*
X92303333Y-80573457D01*
X92303333Y-80573457D02*
X92341428Y-80668695D01*
X92341428Y-80668695D02*
X92341428Y-80716314D01*
X92341428Y-80716314D02*
X92303333Y-80811552D01*
X92303333Y-80811552D02*
X92265238Y-80859171D01*
X92265238Y-80859171D02*
X92189047Y-80906790D01*
X92189047Y-80906790D02*
X92036666Y-80906790D01*
X92036666Y-80906790D02*
X91960476Y-80954409D01*
X91960476Y-80954409D02*
X91922381Y-81002028D01*
X91922381Y-81002028D02*
X91884285Y-81097266D01*
X91884285Y-81097266D02*
X91884285Y-81287742D01*
X91884285Y-81287742D02*
X91922381Y-81382980D01*
X91922381Y-81382980D02*
X91960476Y-81430600D01*
X91960476Y-81430600D02*
X92036666Y-81478219D01*
X92036666Y-81478219D02*
X92189047Y-81478219D01*
X92189047Y-81478219D02*
X92265238Y-81430600D01*
X92265238Y-81430600D02*
X92303333Y-81382980D01*
X92303333Y-81382980D02*
X92341428Y-81287742D01*
X92341428Y-81287742D02*
X92341428Y-81097266D01*
X92341428Y-81097266D02*
X92303333Y-81002028D01*
X92303333Y-81002028D02*
X92265238Y-80954409D01*
X92265238Y-80954409D02*
X92189047Y-80906790D01*
X89160475Y-72080219D02*
X88703332Y-72080219D01*
X88931904Y-72080219D02*
X88931904Y-71080219D01*
X88931904Y-71080219D02*
X88855713Y-71223076D01*
X88855713Y-71223076D02*
X88779523Y-71318314D01*
X88779523Y-71318314D02*
X88703332Y-71365933D01*
X89655714Y-71080219D02*
X89731904Y-71080219D01*
X89731904Y-71080219D02*
X89808095Y-71127838D01*
X89808095Y-71127838D02*
X89846190Y-71175457D01*
X89846190Y-71175457D02*
X89884285Y-71270695D01*
X89884285Y-71270695D02*
X89922380Y-71461171D01*
X89922380Y-71461171D02*
X89922380Y-71699266D01*
X89922380Y-71699266D02*
X89884285Y-71889742D01*
X89884285Y-71889742D02*
X89846190Y-71984980D01*
X89846190Y-71984980D02*
X89808095Y-72032600D01*
X89808095Y-72032600D02*
X89731904Y-72080219D01*
X89731904Y-72080219D02*
X89655714Y-72080219D01*
X89655714Y-72080219D02*
X89579523Y-72032600D01*
X89579523Y-72032600D02*
X89541428Y-71984980D01*
X89541428Y-71984980D02*
X89503333Y-71889742D01*
X89503333Y-71889742D02*
X89465237Y-71699266D01*
X89465237Y-71699266D02*
X89465237Y-71461171D01*
X89465237Y-71461171D02*
X89503333Y-71270695D01*
X89503333Y-71270695D02*
X89541428Y-71175457D01*
X89541428Y-71175457D02*
X89579523Y-71127838D01*
X89579523Y-71127838D02*
X89655714Y-71080219D01*
X90265238Y-72080219D02*
X90265238Y-71080219D01*
X90722381Y-72080219D02*
X90379523Y-71508790D01*
X90722381Y-71080219D02*
X90265238Y-71651647D01*
X91027142Y-72080219D02*
X91217619Y-72080219D01*
X91217619Y-72080219D02*
X91217619Y-71889742D01*
X91217619Y-71889742D02*
X91141428Y-71842123D01*
X91141428Y-71842123D02*
X91065238Y-71746885D01*
X91065238Y-71746885D02*
X91027142Y-71604028D01*
X91027142Y-71604028D02*
X91027142Y-71365933D01*
X91027142Y-71365933D02*
X91065238Y-71223076D01*
X91065238Y-71223076D02*
X91141428Y-71127838D01*
X91141428Y-71127838D02*
X91255714Y-71080219D01*
X91255714Y-71080219D02*
X91408095Y-71080219D01*
X91408095Y-71080219D02*
X91522381Y-71127838D01*
X91522381Y-71127838D02*
X91598571Y-71223076D01*
X91598571Y-71223076D02*
X91636666Y-71365933D01*
X91636666Y-71365933D02*
X91636666Y-71604028D01*
X91636666Y-71604028D02*
X91598571Y-71746885D01*
X91598571Y-71746885D02*
X91522381Y-71842123D01*
X91522381Y-71842123D02*
X91446190Y-71889742D01*
X91446190Y-71889742D02*
X91446190Y-72080219D01*
X91446190Y-72080219D02*
X91636666Y-72080219D01*
D14*
%TO.C,D1*%
X87395000Y-78740000D02*
X88045000Y-78740000D01*
X88045000Y-77620000D02*
X88045000Y-79860000D01*
X88045000Y-79860000D02*
X92285000Y-79860000D01*
X88645000Y-77620000D02*
X88645000Y-79860000D01*
X88765000Y-77620000D02*
X88765000Y-79860000D01*
X88885000Y-77620000D02*
X88885000Y-79860000D01*
X92285000Y-77620000D02*
X88045000Y-77620000D01*
X92285000Y-79860000D02*
X92285000Y-77620000D01*
X92935000Y-78740000D02*
X92285000Y-78740000D01*
%TO.C,C1*%
X58008000Y-74269000D02*
X58008000Y-73011000D01*
X59848000Y-74269000D02*
X59848000Y-73011000D01*
%TO.C,U1*%
X61720000Y-82785000D02*
X81520000Y-82785000D01*
X81520000Y-82785000D02*
X81520000Y-64535000D01*
X60720000Y-81785000D02*
X61720000Y-82785000D01*
X60720000Y-74168000D02*
X60720000Y-81785000D01*
X60720000Y-64535000D02*
X60720000Y-73152000D01*
X81520000Y-64535000D02*
X60720000Y-64535000D01*
D15*
X60769500Y-73660000D02*
G75*
G03*
X60642500Y-73660000I-63500J0D01*
G01*
X60642500Y-73660000D02*
G75*
G03*
X60769500Y-73660000I63500J0D01*
G01*
D14*
%TO.C,D2*%
X87395000Y-76200000D02*
X88045000Y-76200000D01*
X88045000Y-75080000D02*
X88045000Y-77320000D01*
X88045000Y-77320000D02*
X92285000Y-77320000D01*
X88645000Y-75080000D02*
X88645000Y-77320000D01*
X88765000Y-75080000D02*
X88765000Y-77320000D01*
X88885000Y-75080000D02*
X88885000Y-77320000D01*
X92285000Y-75080000D02*
X88045000Y-75080000D01*
X92285000Y-77320000D02*
X92285000Y-75080000D01*
X92935000Y-76200000D02*
X92285000Y-76200000D01*
%TO.C,R1*%
X93035000Y-73660000D02*
X92085000Y-73660000D01*
X92085000Y-74580000D02*
X92085000Y-72740000D01*
X92085000Y-72740000D02*
X88245000Y-72740000D01*
X88245000Y-74580000D02*
X92085000Y-74580000D01*
X88245000Y-72740000D02*
X88245000Y-74580000D01*
X87295000Y-73660000D02*
X88245000Y-73660000D01*
%TD*%
M02*
