%TF.GenerationSoftware,KiCad,Pcbnew,7.0.8*%
%TF.CreationDate,2023-11-13T09:49:40+00:00*%
%TF.ProjectId,rom-cart,726f6d2d-6361-4727-942e-6b696361645f,rev?*%
%TF.SameCoordinates,Original*%
%TF.FileFunction,Copper,L1,Top*%
%TF.FilePolarity,Positive*%
%FSLAX46Y46*%
G04 Gerber Fmt 4.6, Leading zero omitted, Abs format (unit mm)*
G04 Created by KiCad (PCBNEW 7.0.8) date 2023-11-13 09:49:40*
%MOMM*%
%LPD*%
G01*
G04 APERTURE LIST*
G04 Aperture macros list*
%AMRoundRect*
0 Rectangle with rounded corners*
0 $1 Rounding radius*
0 $2 $3 $4 $5 $6 $7 $8 $9 X,Y pos of 4 corners*
0 Add a 4 corners polygon primitive as box body*
4,1,4,$2,$3,$4,$5,$6,$7,$8,$9,$2,$3,0*
0 Add four circle primitives for the rounded corners*
1,1,$1+$1,$2,$3*
1,1,$1+$1,$4,$5*
1,1,$1+$1,$6,$7*
1,1,$1+$1,$8,$9*
0 Add four rect primitives between the rounded corners*
20,1,$1+$1,$2,$3,$4,$5,0*
20,1,$1+$1,$4,$5,$6,$7,0*
20,1,$1+$1,$6,$7,$8,$9,0*
20,1,$1+$1,$8,$9,$2,$3,0*%
G04 Aperture macros list end*
%TA.AperFunction,ComponentPad*%
%ADD10R,1.500000X1.500000*%
%TD*%
%TA.AperFunction,ComponentPad*%
%ADD11O,1.500000X1.500000*%
%TD*%
%TA.AperFunction,ComponentPad*%
%ADD12C,1.600000*%
%TD*%
%TA.AperFunction,ComponentPad*%
%ADD13R,1.422400X1.422400*%
%TD*%
%TA.AperFunction,ComponentPad*%
%ADD14C,1.422400*%
%TD*%
%TA.AperFunction,SMDPad,CuDef*%
%ADD15RoundRect,0.508000X0.508000X2.464500X-0.508000X2.464500X-0.508000X-2.464500X0.508000X-2.464500X0*%
%TD*%
%TA.AperFunction,SMDPad,CuDef*%
%ADD16RoundRect,0.508000X0.508000X2.468000X-0.508000X2.468000X-0.508000X-2.468000X0.508000X-2.468000X0*%
%TD*%
%TA.AperFunction,ComponentPad*%
%ADD17C,1.400000*%
%TD*%
%TA.AperFunction,ComponentPad*%
%ADD18O,1.400000X1.400000*%
%TD*%
%TA.AperFunction,ViaPad*%
%ADD19C,0.800000*%
%TD*%
%TA.AperFunction,Conductor*%
%ADD20C,0.500000*%
%TD*%
%TA.AperFunction,Conductor*%
%ADD21C,0.250000*%
%TD*%
G04 APERTURE END LIST*
D10*
%TO.P,D1,1,K*%
%TO.N,Net-(D1-K)*%
X86355000Y-78740000D03*
D11*
%TO.P,D1,2,A*%
%TO.N,~{SEL}*%
X93975000Y-78740000D03*
%TD*%
D12*
%TO.P,C1,1*%
%TO.N,GND*%
X73660000Y-60960000D03*
%TO.P,C1,2*%
%TO.N,+5V*%
X76160000Y-60960000D03*
%TD*%
D13*
%TO.P,U1,1,A18*%
%TO.N,B3*%
X76200000Y-68580000D03*
D14*
%TO.P,U1,2,A16*%
%TO.N,B1*%
X73660000Y-66040000D03*
%TO.P,U1,3,A15*%
%TO.N,B0*%
X73660000Y-68580000D03*
%TO.P,U1,4,A12*%
%TO.N,A12*%
X71120000Y-66040000D03*
%TO.P,U1,5,A7*%
%TO.N,A7*%
X68580000Y-68580000D03*
%TO.P,U1,6,A6*%
%TO.N,A6*%
X71120000Y-68580000D03*
%TO.P,U1,7,A5*%
%TO.N,A5*%
X68580000Y-71120000D03*
%TO.P,U1,8,A4*%
%TO.N,A4*%
X71120000Y-71120000D03*
%TO.P,U1,9,A3*%
%TO.N,A3*%
X68580000Y-73660000D03*
%TO.P,U1,10,A2*%
%TO.N,A2*%
X71120000Y-73660000D03*
%TO.P,U1,11,A1*%
%TO.N,A1*%
X68580000Y-76200000D03*
%TO.P,U1,12,A0*%
%TO.N,A0*%
X71120000Y-76200000D03*
%TO.P,U1,13,D0*%
%TO.N,D0*%
X68580000Y-78740000D03*
%TO.P,U1,14,D1*%
%TO.N,D1*%
X71120000Y-81280000D03*
%TO.P,U1,15,D2*%
%TO.N,D2*%
X71120000Y-78740000D03*
%TO.P,U1,16,VSS*%
%TO.N,GND*%
X73660000Y-81280000D03*
%TO.P,U1,17,D3*%
%TO.N,D3*%
X73660000Y-78740000D03*
%TO.P,U1,18,D4*%
%TO.N,D4*%
X76200000Y-81280000D03*
%TO.P,U1,19,D5*%
%TO.N,D5*%
X76200000Y-78740000D03*
%TO.P,U1,20,D6*%
%TO.N,D6*%
X78740000Y-81280000D03*
%TO.P,U1,21,D7*%
%TO.N,D7*%
X81280000Y-78740000D03*
%TO.P,U1,22,~{CE}*%
%TO.N,Net-(D1-K)*%
X78740000Y-78740000D03*
%TO.P,U1,23,A10*%
%TO.N,A10*%
X81280000Y-76200000D03*
%TO.P,U1,24,~{OE}*%
%TO.N,~{R}{slash}W*%
X78740000Y-76200000D03*
%TO.P,U1,25,A11*%
%TO.N,A11*%
X81280000Y-73660000D03*
%TO.P,U1,26,A9*%
%TO.N,A9*%
X78740000Y-73660000D03*
%TO.P,U1,27,A8*%
%TO.N,A8*%
X81280000Y-71120000D03*
%TO.P,U1,28,A13*%
%TO.N,A13*%
X78740000Y-71120000D03*
%TO.P,U1,29,A14*%
%TO.N,A14*%
X81280000Y-68580000D03*
%TO.P,U1,30,A17*%
%TO.N,B2*%
X78740000Y-66040000D03*
%TO.P,U1,31,~{WE}*%
%TO.N,R{slash}~{W}*%
X78740000Y-68580000D03*
%TO.P,U1,32,VDD*%
%TO.N,+5V*%
X76200000Y-66040000D03*
%TD*%
D10*
%TO.P,D2,1,K*%
%TO.N,Net-(D1-K)*%
X86355000Y-76200000D03*
D11*
%TO.P,D2,2,A*%
%TO.N,~{CART}*%
X93975000Y-76200000D03*
%TD*%
D15*
%TO.P,J1,1,Pin_1*%
%TO.N,GND*%
X96490000Y-91443500D03*
%TO.P,J1,3,Pin_3*%
%TO.N,A15*%
X93950000Y-91443500D03*
%TO.P,J1,5,Pin_5*%
%TO.N,A14*%
X91410000Y-91443500D03*
%TO.P,J1,7,Pin_7*%
%TO.N,A13*%
X88870000Y-91443500D03*
%TO.P,J1,9,Pin_9*%
%TO.N,A12*%
X86330000Y-91443500D03*
%TO.P,J1,11,Pin_11*%
%TO.N,A11*%
X83790000Y-91443500D03*
D16*
%TO.P,J1,13,Pin_13*%
%TO.N,A10*%
X81250000Y-91440000D03*
%TO.P,J1,15,Pin_15*%
%TO.N,A9*%
X78710000Y-91440000D03*
D15*
%TO.P,J1,17,Pin_17*%
%TO.N,A8*%
X76170000Y-91443500D03*
%TO.P,J1,19,Pin_19*%
%TO.N,A7*%
X73630000Y-91443500D03*
%TO.P,J1,21,Pin_21*%
%TO.N,A6*%
X71090000Y-91443500D03*
%TO.P,J1,23,Pin_23*%
%TO.N,A5*%
X68550000Y-91443500D03*
%TO.P,J1,25,Pin_25*%
%TO.N,A4*%
X66010000Y-91443500D03*
%TO.P,J1,27,Pin_27*%
%TO.N,A3*%
X63470000Y-91443500D03*
D16*
%TO.P,J1,29,Pin_29*%
%TO.N,A2*%
X60930000Y-91440000D03*
D15*
%TO.P,J1,31,Pin_31*%
%TO.N,A1*%
X58390000Y-91443500D03*
%TO.P,J1,33,Pin_33*%
%TO.N,A0*%
X55850000Y-91443500D03*
D16*
%TO.P,J1,35,Pin_35*%
%TO.N,~{CART}*%
X53310000Y-91440000D03*
D15*
%TO.P,J1,37,Pin_37*%
%TO.N,~{NMI}*%
X50770000Y-91443500D03*
%TO.P,J1,39,Pin_39*%
%TO.N,~{RESET}*%
X48230000Y-91443500D03*
%TO.P,J1,41,Pin_41*%
%TO.N,~{SEL}*%
X45690000Y-91443500D03*
%TO.P,J1,43,Pin_43*%
%TO.N,RIGHT*%
X43150000Y-91443500D03*
%TD*%
D17*
%TO.P,R1,1*%
%TO.N,GND*%
X93975000Y-73660000D03*
D18*
%TO.P,R1,2*%
%TO.N,Net-(D1-K)*%
X86355000Y-73660000D03*
%TD*%
D19*
%TO.N,GND*%
X75625000Y-84515000D03*
X85090000Y-83820000D03*
X70231000Y-87630000D03*
X62103000Y-85217000D03*
X95758000Y-67310000D03*
X64558126Y-82358895D03*
X78740000Y-87630000D03*
X62992000Y-78994000D03*
X87630000Y-80010000D03*
X66548000Y-72390000D03*
X59690000Y-83820000D03*
X56896000Y-74676000D03*
X95250000Y-86360000D03*
X54610000Y-86360000D03*
X60960000Y-78740000D03*
X90170000Y-86360000D03*
X81280000Y-81280000D03*
X83947000Y-73025000D03*
X57150000Y-85090000D03*
X70802500Y-84137500D03*
X59944000Y-86106000D03*
X72136000Y-82804000D03*
X86360000Y-71120000D03*
X65024000Y-86995000D03*
X92710000Y-68580000D03*
X76200000Y-76200000D03*
X68580000Y-86360000D03*
X62230000Y-82275500D03*
X92710000Y-86360000D03*
X87630000Y-86360000D03*
X58166000Y-75946000D03*
X59690000Y-77470000D03*
X77089000Y-86106000D03*
%TO.N,A12*%
X87825497Y-84894503D03*
X88900000Y-82550000D03*
%TO.N,~{R}{slash}W*%
X65151000Y-80899000D03*
X54064500Y-84114300D03*
%TO.N,R{slash}~{W}*%
X54064500Y-82967000D03*
%TD*%
D20*
%TO.N,GND*%
X73660000Y-81280000D02*
X72136000Y-82804000D01*
X55880000Y-85090000D02*
X54610000Y-86360000D01*
X57150000Y-85090000D02*
X55880000Y-85090000D01*
X93980000Y-67310000D02*
X92710000Y-68580000D01*
X58420000Y-83820000D02*
X57150000Y-85090000D01*
X59690000Y-83820000D02*
X58420000Y-83820000D01*
X95250000Y-86360000D02*
X92710000Y-86360000D01*
X95758000Y-67310000D02*
X93980000Y-67310000D01*
X64558126Y-82358895D02*
X64474731Y-82275500D01*
X72136000Y-82804000D02*
X70802500Y-84137500D01*
X96520000Y-87630000D02*
X96520000Y-91440000D01*
X60960000Y-78740000D02*
X59690000Y-77470000D01*
X70802500Y-84137500D02*
X68580000Y-86360000D01*
X62230000Y-82275500D02*
X61234500Y-82275500D01*
X62992000Y-78994000D02*
X62738000Y-78740000D01*
X61234500Y-82275500D02*
X59690000Y-83820000D01*
X62738000Y-78740000D02*
X60960000Y-78740000D01*
X95250000Y-86360000D02*
X96520000Y-87630000D01*
X64474731Y-82275500D02*
X62230000Y-82275500D01*
D21*
%TO.N,~{SEL}*%
X95700000Y-72840000D02*
X85090000Y-62230000D01*
X68072000Y-62230000D02*
X45720000Y-84582000D01*
X85090000Y-62230000D02*
X68072000Y-62230000D01*
X45720000Y-84582000D02*
X45720000Y-91440000D01*
X95700000Y-77015000D02*
X95700000Y-72840000D01*
X93975000Y-78740000D02*
X95700000Y-77015000D01*
%TO.N,~{CART}*%
X52070000Y-80772000D02*
X68892000Y-63950000D01*
X68892000Y-63950000D02*
X84270000Y-63950000D01*
X91440000Y-71120000D02*
X91440000Y-73665000D01*
X53340000Y-91440000D02*
X53340000Y-86360000D01*
X52070000Y-85090000D02*
X52070000Y-80772000D01*
X84270000Y-63950000D02*
X91440000Y-71120000D01*
X91440000Y-73665000D02*
X93975000Y-76200000D01*
X53340000Y-86360000D02*
X52070000Y-85090000D01*
%TO.N,A14*%
X82550000Y-68580000D02*
X81280000Y-68580000D01*
X91408500Y-86328500D02*
X85090000Y-80010000D01*
X85090000Y-71120000D02*
X82550000Y-68580000D01*
X91408500Y-91440000D02*
X91408500Y-86328500D01*
X85090000Y-80010000D02*
X85090000Y-71120000D01*
%TO.N,A13*%
X88900000Y-84456396D02*
X83198000Y-78754396D01*
X82931000Y-71213713D02*
X81567287Y-69850000D01*
X80010000Y-69850000D02*
X78740000Y-71120000D01*
X83198000Y-74941604D02*
X82931000Y-74674604D01*
X82931000Y-74674604D02*
X82931000Y-71213713D01*
X81567287Y-69850000D02*
X80010000Y-69850000D01*
X83198000Y-78754396D02*
X83198000Y-74941604D01*
X88900000Y-91440000D02*
X88900000Y-84456396D01*
%TO.N,A12*%
X88900000Y-82550000D02*
X88900000Y-71120000D01*
X72390000Y-64770000D02*
X71120000Y-66040000D01*
X82550000Y-64770000D02*
X72390000Y-64770000D01*
X86360000Y-86360000D02*
X87825497Y-84894503D01*
X88900000Y-71120000D02*
X82550000Y-64770000D01*
X86360000Y-91440000D02*
X86360000Y-86360000D01*
%TO.N,A11*%
X82748000Y-75128000D02*
X82748000Y-90368000D01*
X82748000Y-90368000D02*
X83820000Y-91440000D01*
X81280000Y-73660000D02*
X82748000Y-75128000D01*
%TO.N,A10*%
X80243800Y-77236200D02*
X81280000Y-76200000D01*
X81280000Y-91440000D02*
X80243800Y-90403800D01*
X80243800Y-90403800D02*
X80243800Y-77236200D01*
%TO.N,A9*%
X79793800Y-90386200D02*
X78740000Y-91440000D01*
X79793800Y-74713800D02*
X79793800Y-90386200D01*
X78740000Y-73660000D02*
X79793800Y-74713800D01*
%TO.N,A8*%
X80010000Y-72390000D02*
X78359000Y-72390000D01*
X77703800Y-82275800D02*
X78232000Y-82804000D01*
X78232000Y-82804000D02*
X78232000Y-86432000D01*
X78232000Y-86432000D02*
X76200000Y-88464000D01*
X76200000Y-88464000D02*
X76200000Y-91440000D01*
X78359000Y-72390000D02*
X77703800Y-73045200D01*
X81280000Y-71120000D02*
X80010000Y-72390000D01*
X77703800Y-73045200D02*
X77703800Y-82275800D01*
%TO.N,A7*%
X77253800Y-71515820D02*
X75163800Y-69425820D01*
X73660000Y-91440000D02*
X73660000Y-88138000D01*
X75163800Y-68178800D02*
X74515000Y-67530000D01*
X73660000Y-88138000D02*
X77253800Y-84544200D01*
X75163800Y-69425820D02*
X75163800Y-68178800D01*
X69630000Y-67530000D02*
X68580000Y-68580000D01*
X77253800Y-84544200D02*
X77253800Y-71515820D01*
X74515000Y-67530000D02*
X69630000Y-67530000D01*
%TO.N,A6*%
X71120000Y-91440000D02*
X71120000Y-86360000D01*
X71120000Y-86360000D02*
X75163800Y-82316200D01*
X75163800Y-82316200D02*
X75163800Y-72623800D01*
X75163800Y-72623800D02*
X71120000Y-68580000D01*
%TO.N,A5*%
X69850000Y-69850000D02*
X71374000Y-69850000D01*
X74713800Y-81877200D02*
X68580000Y-88011000D01*
X74713800Y-73189800D02*
X74713800Y-81877200D01*
X68580000Y-88011000D02*
X68580000Y-91440000D01*
X68580000Y-71120000D02*
X69850000Y-69850000D01*
X71374000Y-69850000D02*
X74713800Y-73189800D01*
%TO.N,A4*%
X67905586Y-82781310D02*
X70456896Y-80230000D01*
X72623800Y-79649200D02*
X72623800Y-78092611D01*
X66040000Y-91440000D02*
X66040000Y-84837396D01*
X66040000Y-84837396D02*
X67905586Y-82971810D01*
X72043000Y-80230000D02*
X72623800Y-79649200D01*
X73660000Y-73660000D02*
X71120000Y-71120000D01*
X70456896Y-80230000D02*
X72043000Y-80230000D01*
X72623800Y-78092611D02*
X73660000Y-77056411D01*
X67905586Y-82971810D02*
X67905586Y-82781310D01*
X73660000Y-77056411D02*
X73660000Y-73660000D01*
%TO.N,A3*%
X72173800Y-79210200D02*
X71604000Y-79780000D01*
X71753604Y-72390000D02*
X73210000Y-73846396D01*
X72173800Y-77906215D02*
X72173800Y-79210200D01*
X67455586Y-82785414D02*
X63500000Y-86741000D01*
X63500000Y-86741000D02*
X63500000Y-91440000D01*
X73210000Y-76870015D02*
X72173800Y-77906215D01*
X73210000Y-73846396D02*
X73210000Y-76870015D01*
X69850000Y-72390000D02*
X71753604Y-72390000D01*
X67455586Y-82594914D02*
X67455586Y-82785414D01*
X71604000Y-79780000D02*
X70270500Y-79780000D01*
X68580000Y-73660000D02*
X69850000Y-72390000D01*
X70270500Y-79780000D02*
X67455586Y-82594914D01*
%TO.N,A2*%
X72156200Y-76941800D02*
X71628000Y-77470000D01*
X67005586Y-78807627D02*
X67005586Y-82599018D01*
X60960000Y-88644604D02*
X60960000Y-91440000D01*
X71628000Y-77470000D02*
X68343213Y-77470000D01*
X67005586Y-82599018D02*
X60960000Y-88644604D01*
X72156200Y-74696200D02*
X72156200Y-76941800D01*
X68343213Y-77470000D02*
X67005586Y-78807627D01*
X71120000Y-73660000D02*
X72156200Y-74696200D01*
%TO.N,A1*%
X61846208Y-87122000D02*
X66555586Y-82412622D01*
X66555586Y-78224414D02*
X68580000Y-76200000D01*
X58420000Y-91440000D02*
X58420000Y-88392000D01*
X66555586Y-82412622D02*
X66555586Y-78224414D01*
X59690000Y-87122000D02*
X61846208Y-87122000D01*
X58420000Y-88392000D02*
X59690000Y-87122000D01*
%TO.N,A0*%
X60960000Y-83820000D02*
X64511812Y-83820000D01*
X66040000Y-82291812D02*
X66040000Y-76962000D01*
X68072000Y-74930000D02*
X69850000Y-74930000D01*
X55880000Y-88900000D02*
X60960000Y-83820000D01*
X55880000Y-91440000D02*
X55880000Y-88900000D01*
X69850000Y-74930000D02*
X71120000Y-76200000D01*
X64511812Y-83820000D02*
X66040000Y-82291812D01*
X66040000Y-76962000D02*
X68072000Y-74930000D01*
%TO.N,~{R}{slash}W*%
X65151000Y-80899000D02*
X64770000Y-81280000D01*
X58420000Y-81280000D02*
X55585700Y-84114300D01*
X64770000Y-81280000D02*
X58420000Y-81280000D01*
X55585700Y-84114300D02*
X54064500Y-84114300D01*
%TO.N,R{slash}~{W}*%
X68302000Y-67080000D02*
X54064500Y-81317500D01*
X77240000Y-67080000D02*
X68302000Y-67080000D01*
X54064500Y-81317500D02*
X54064500Y-82967000D01*
X78740000Y-68580000D02*
X77240000Y-67080000D01*
%TD*%
%TA.AperFunction,Conductor*%
%TO.N,GND*%
G36*
X96208415Y-56942501D02*
G01*
X96218405Y-56942501D01*
X96263785Y-56942501D01*
X96268207Y-56942658D01*
X96503577Y-56959492D01*
X96521078Y-56962009D01*
X96745156Y-57010754D01*
X96762121Y-57015735D01*
X96976991Y-57095877D01*
X96993064Y-57103218D01*
X97194332Y-57213118D01*
X97194336Y-57213120D01*
X97209219Y-57222685D01*
X97392791Y-57360105D01*
X97406162Y-57371691D01*
X97568308Y-57533837D01*
X97579894Y-57547208D01*
X97717314Y-57730780D01*
X97726879Y-57745663D01*
X97836776Y-57946924D01*
X97844124Y-57963014D01*
X97850015Y-57978807D01*
X97924262Y-58177873D01*
X97929246Y-58194848D01*
X97977989Y-58418916D01*
X97980507Y-58436428D01*
X97997341Y-58671789D01*
X97997499Y-58676213D01*
X97997499Y-88261417D01*
X97977814Y-88328456D01*
X97925010Y-88374211D01*
X97855852Y-88384155D01*
X97792296Y-88355130D01*
X97777646Y-88340082D01*
X97714212Y-88262787D01*
X97560725Y-88136825D01*
X97560718Y-88136820D01*
X97385612Y-88043224D01*
X97195605Y-87985585D01*
X97195603Y-87985584D01*
X97047515Y-87971000D01*
X95932485Y-87971000D01*
X95784396Y-87985584D01*
X95784394Y-87985585D01*
X95594387Y-88043224D01*
X95419281Y-88136820D01*
X95419274Y-88136825D01*
X95299060Y-88235482D01*
X95234750Y-88262795D01*
X95165882Y-88251004D01*
X95141730Y-88235482D01*
X95021005Y-88136405D01*
X95020998Y-88136401D01*
X94845808Y-88042760D01*
X94750752Y-88013925D01*
X94655701Y-87985092D01*
X94655699Y-87985091D01*
X94655701Y-87985091D01*
X94549415Y-87974623D01*
X94507547Y-87970500D01*
X94507543Y-87970500D01*
X93392457Y-87970500D01*
X93244300Y-87985091D01*
X93054191Y-88042760D01*
X92879001Y-88136401D01*
X92878995Y-88136405D01*
X92758664Y-88235158D01*
X92694354Y-88262470D01*
X92625487Y-88250679D01*
X92601336Y-88235158D01*
X92481004Y-88136405D01*
X92480998Y-88136401D01*
X92305805Y-88042759D01*
X92122004Y-87987003D01*
X92063566Y-87948706D01*
X92035109Y-87884894D01*
X92034000Y-87868343D01*
X92034000Y-86411237D01*
X92035724Y-86395623D01*
X92035438Y-86395596D01*
X92036172Y-86387833D01*
X92034000Y-86318702D01*
X92034000Y-86289151D01*
X92034000Y-86289150D01*
X92033129Y-86282259D01*
X92032672Y-86276445D01*
X92032198Y-86261372D01*
X92031209Y-86229872D01*
X92025620Y-86210637D01*
X92021674Y-86191584D01*
X92019164Y-86171708D01*
X92002001Y-86128359D01*
X92000114Y-86122846D01*
X91999736Y-86121546D01*
X91987117Y-86078110D01*
X91987116Y-86078108D01*
X91976921Y-86060869D01*
X91968360Y-86043393D01*
X91960986Y-86024769D01*
X91960986Y-86024767D01*
X91948059Y-86006976D01*
X91933583Y-85987050D01*
X91930400Y-85982205D01*
X91906670Y-85942079D01*
X91906665Y-85942073D01*
X91892505Y-85927913D01*
X91879870Y-85913120D01*
X91868093Y-85896912D01*
X91832193Y-85867213D01*
X91827881Y-85863290D01*
X89424122Y-83459531D01*
X89390637Y-83398208D01*
X89395621Y-83328516D01*
X89437493Y-83272583D01*
X89438918Y-83271532D01*
X89454607Y-83260133D01*
X89505871Y-83222888D01*
X89632533Y-83082216D01*
X89727179Y-82918284D01*
X89785674Y-82738256D01*
X89805460Y-82550000D01*
X89785674Y-82361744D01*
X89727179Y-82181716D01*
X89632533Y-82017784D01*
X89564134Y-81941819D01*
X89557350Y-81934284D01*
X89527120Y-81871292D01*
X89525500Y-81851312D01*
X89525500Y-71202738D01*
X89527224Y-71187124D01*
X89526938Y-71187097D01*
X89527672Y-71179334D01*
X89525500Y-71110203D01*
X89525500Y-71080651D01*
X89525500Y-71080650D01*
X89524629Y-71073759D01*
X89524172Y-71067945D01*
X89522709Y-71021372D01*
X89517122Y-71002144D01*
X89513174Y-70983084D01*
X89510664Y-70963208D01*
X89493507Y-70919875D01*
X89491619Y-70914359D01*
X89478619Y-70869612D01*
X89468418Y-70852363D01*
X89459860Y-70834894D01*
X89452486Y-70816268D01*
X89452483Y-70816264D01*
X89452483Y-70816263D01*
X89425098Y-70778571D01*
X89421890Y-70773687D01*
X89398172Y-70733582D01*
X89398163Y-70733571D01*
X89384005Y-70719413D01*
X89371370Y-70704620D01*
X89359593Y-70688412D01*
X89323693Y-70658713D01*
X89319381Y-70654790D01*
X83451772Y-64787181D01*
X83418287Y-64725858D01*
X83423271Y-64656166D01*
X83465143Y-64600233D01*
X83530607Y-64575816D01*
X83539453Y-64575500D01*
X83959548Y-64575500D01*
X84026587Y-64595185D01*
X84047229Y-64611819D01*
X90778181Y-71342771D01*
X90811666Y-71404094D01*
X90814500Y-71430452D01*
X90814500Y-73582255D01*
X90812775Y-73597872D01*
X90813061Y-73597899D01*
X90812326Y-73605665D01*
X90814500Y-73674814D01*
X90814500Y-73704343D01*
X90814501Y-73704360D01*
X90815368Y-73711231D01*
X90815826Y-73717050D01*
X90817290Y-73763624D01*
X90817291Y-73763627D01*
X90822880Y-73782867D01*
X90826824Y-73801911D01*
X90829336Y-73821791D01*
X90846490Y-73865119D01*
X90848382Y-73870647D01*
X90861381Y-73915388D01*
X90871580Y-73932634D01*
X90880136Y-73950100D01*
X90887514Y-73968732D01*
X90914898Y-74006423D01*
X90918106Y-74011307D01*
X90941827Y-74051416D01*
X90941833Y-74051424D01*
X90955990Y-74065580D01*
X90968628Y-74080376D01*
X90980405Y-74096586D01*
X90980406Y-74096587D01*
X91016309Y-74126288D01*
X91020620Y-74130210D01*
X92292532Y-75402123D01*
X92716411Y-75826002D01*
X92749896Y-75887325D01*
X92748505Y-75945775D01*
X92738794Y-75982017D01*
X92738793Y-75982024D01*
X92719723Y-76199997D01*
X92719723Y-76200002D01*
X92738793Y-76417975D01*
X92738793Y-76417979D01*
X92795422Y-76629322D01*
X92795424Y-76629326D01*
X92795425Y-76629330D01*
X92823289Y-76689084D01*
X92887897Y-76827638D01*
X92893065Y-76835018D01*
X93013402Y-77006877D01*
X93168123Y-77161598D01*
X93347361Y-77287102D01*
X93498583Y-77357618D01*
X93551022Y-77403790D01*
X93570174Y-77470984D01*
X93549958Y-77537865D01*
X93498583Y-77582382D01*
X93347361Y-77652898D01*
X93347357Y-77652900D01*
X93168121Y-77778402D01*
X93013402Y-77933121D01*
X92887900Y-78112357D01*
X92887898Y-78112361D01*
X92795426Y-78310668D01*
X92795422Y-78310677D01*
X92738793Y-78522020D01*
X92738793Y-78522024D01*
X92719723Y-78739997D01*
X92719723Y-78740002D01*
X92738793Y-78957975D01*
X92738793Y-78957979D01*
X92795422Y-79169322D01*
X92795424Y-79169326D01*
X92795425Y-79169330D01*
X92815111Y-79211546D01*
X92887897Y-79367638D01*
X92887898Y-79367639D01*
X93013402Y-79546877D01*
X93168123Y-79701598D01*
X93347361Y-79827102D01*
X93545670Y-79919575D01*
X93757023Y-79976207D01*
X93927370Y-79991110D01*
X93974998Y-79995277D01*
X93975000Y-79995277D01*
X93975002Y-79995277D01*
X94003254Y-79992805D01*
X94192977Y-79976207D01*
X94404330Y-79919575D01*
X94602639Y-79827102D01*
X94781877Y-79701598D01*
X94936598Y-79546877D01*
X95062102Y-79367639D01*
X95154575Y-79169330D01*
X95211207Y-78957977D01*
X95230277Y-78740000D01*
X95211207Y-78522023D01*
X95201494Y-78485774D01*
X95203157Y-78415925D01*
X95233586Y-78366002D01*
X96083787Y-77515802D01*
X96096042Y-77505986D01*
X96095859Y-77505764D01*
X96101866Y-77500792D01*
X96101877Y-77500786D01*
X96132775Y-77467882D01*
X96149227Y-77450364D01*
X96159671Y-77439918D01*
X96170120Y-77429471D01*
X96174379Y-77423978D01*
X96178152Y-77419561D01*
X96210062Y-77385582D01*
X96219713Y-77368024D01*
X96230396Y-77351761D01*
X96242673Y-77335936D01*
X96261185Y-77293153D01*
X96263738Y-77287941D01*
X96286197Y-77247092D01*
X96291180Y-77227680D01*
X96297481Y-77209280D01*
X96305437Y-77190896D01*
X96312729Y-77144852D01*
X96313906Y-77139171D01*
X96325500Y-77094019D01*
X96325500Y-77073983D01*
X96327027Y-77054582D01*
X96330160Y-77034804D01*
X96325775Y-76988415D01*
X96325500Y-76982577D01*
X96325500Y-72922742D01*
X96327224Y-72907122D01*
X96326939Y-72907096D01*
X96327671Y-72899340D01*
X96327673Y-72899333D01*
X96325500Y-72830185D01*
X96325500Y-72800650D01*
X96324631Y-72793772D01*
X96324172Y-72787943D01*
X96323490Y-72766249D01*
X96322709Y-72741373D01*
X96317122Y-72722144D01*
X96313174Y-72703084D01*
X96310663Y-72683204D01*
X96293512Y-72639887D01*
X96291619Y-72634358D01*
X96278618Y-72589609D01*
X96278616Y-72589606D01*
X96268423Y-72572371D01*
X96259861Y-72554894D01*
X96252487Y-72536270D01*
X96252486Y-72536268D01*
X96225079Y-72498545D01*
X96221888Y-72493686D01*
X96217865Y-72486884D01*
X96198170Y-72453580D01*
X96198168Y-72453578D01*
X96198165Y-72453574D01*
X96184006Y-72439415D01*
X96171368Y-72424619D01*
X96161156Y-72410563D01*
X96159594Y-72408413D01*
X96123688Y-72378709D01*
X96119376Y-72374786D01*
X85590803Y-61846212D01*
X85580980Y-61833950D01*
X85580759Y-61834134D01*
X85575786Y-61828123D01*
X85557159Y-61810631D01*
X85525364Y-61780773D01*
X85514919Y-61770328D01*
X85504475Y-61759883D01*
X85498986Y-61755625D01*
X85494561Y-61751847D01*
X85460582Y-61719938D01*
X85460580Y-61719936D01*
X85460577Y-61719935D01*
X85443029Y-61710288D01*
X85426763Y-61699604D01*
X85410933Y-61687325D01*
X85368168Y-61668818D01*
X85362922Y-61666248D01*
X85322093Y-61643803D01*
X85322092Y-61643802D01*
X85302693Y-61638822D01*
X85284281Y-61632518D01*
X85265898Y-61624562D01*
X85265892Y-61624560D01*
X85219874Y-61617272D01*
X85214152Y-61616087D01*
X85169021Y-61604500D01*
X85169019Y-61604500D01*
X85148984Y-61604500D01*
X85129586Y-61602973D01*
X85122162Y-61601797D01*
X85109805Y-61599840D01*
X85109804Y-61599840D01*
X85063416Y-61604225D01*
X85057578Y-61604500D01*
X77489049Y-61604500D01*
X77422010Y-61584815D01*
X77376255Y-61532011D01*
X77366311Y-61462853D01*
X77376667Y-61428095D01*
X77386739Y-61406496D01*
X77445635Y-61186692D01*
X77465468Y-60960000D01*
X77445635Y-60733308D01*
X77386739Y-60513504D01*
X77290568Y-60307266D01*
X77160047Y-60120861D01*
X77160045Y-60120858D01*
X76999141Y-59959954D01*
X76812734Y-59829432D01*
X76812732Y-59829431D01*
X76606497Y-59733261D01*
X76606488Y-59733258D01*
X76386697Y-59674366D01*
X76386693Y-59674365D01*
X76386692Y-59674365D01*
X76386691Y-59674364D01*
X76386686Y-59674364D01*
X76160002Y-59654532D01*
X76159998Y-59654532D01*
X75933313Y-59674364D01*
X75933302Y-59674366D01*
X75713511Y-59733258D01*
X75713502Y-59733261D01*
X75507267Y-59829431D01*
X75507265Y-59829432D01*
X75320858Y-59959954D01*
X75159954Y-60120858D01*
X75029432Y-60307265D01*
X75029430Y-60307269D01*
X75022105Y-60322978D01*
X74975931Y-60375417D01*
X74908737Y-60394567D01*
X74841857Y-60374350D01*
X74797341Y-60322974D01*
X74790132Y-60307515D01*
X74790131Y-60307512D01*
X74739025Y-60234526D01*
X74057953Y-60915598D01*
X74045165Y-60834852D01*
X73987641Y-60721955D01*
X73898045Y-60632359D01*
X73785148Y-60574835D01*
X73704400Y-60562046D01*
X74385472Y-59880974D01*
X74385471Y-59880973D01*
X74312483Y-59829866D01*
X74312481Y-59829865D01*
X74106326Y-59733734D01*
X74106317Y-59733730D01*
X73886610Y-59674860D01*
X73886599Y-59674858D01*
X73660002Y-59655034D01*
X73659998Y-59655034D01*
X73433400Y-59674858D01*
X73433389Y-59674860D01*
X73213682Y-59733730D01*
X73213673Y-59733734D01*
X73007513Y-59829868D01*
X72934527Y-59880972D01*
X72934526Y-59880973D01*
X73615600Y-60562046D01*
X73534852Y-60574835D01*
X73421955Y-60632359D01*
X73332359Y-60721955D01*
X73274835Y-60834852D01*
X73262046Y-60915600D01*
X72580973Y-60234527D01*
X72529868Y-60307513D01*
X72433734Y-60513673D01*
X72433730Y-60513682D01*
X72374860Y-60733389D01*
X72374858Y-60733400D01*
X72355034Y-60959997D01*
X72355034Y-60960002D01*
X72374858Y-61186599D01*
X72374860Y-61186610D01*
X72433730Y-61406317D01*
X72433732Y-61406321D01*
X72443885Y-61428094D01*
X72454377Y-61497172D01*
X72425858Y-61560956D01*
X72367382Y-61599196D01*
X72331503Y-61604500D01*
X68154743Y-61604500D01*
X68139122Y-61602775D01*
X68139095Y-61603061D01*
X68131333Y-61602326D01*
X68062172Y-61604500D01*
X68032649Y-61604500D01*
X68025778Y-61605367D01*
X68019959Y-61605825D01*
X67973374Y-61607289D01*
X67973368Y-61607290D01*
X67954126Y-61612880D01*
X67935087Y-61616823D01*
X67915217Y-61619334D01*
X67915203Y-61619337D01*
X67871883Y-61636488D01*
X67866358Y-61638380D01*
X67821613Y-61651380D01*
X67821610Y-61651381D01*
X67804366Y-61661579D01*
X67786905Y-61670133D01*
X67768274Y-61677510D01*
X67768262Y-61677517D01*
X67730570Y-61704902D01*
X67725687Y-61708109D01*
X67685580Y-61731829D01*
X67671414Y-61745995D01*
X67656624Y-61758627D01*
X67640414Y-61770404D01*
X67640411Y-61770407D01*
X67610710Y-61806309D01*
X67606777Y-61810631D01*
X45336208Y-84081199D01*
X45323951Y-84091020D01*
X45324134Y-84091241D01*
X45318123Y-84096213D01*
X45270772Y-84146636D01*
X45249889Y-84167519D01*
X45249877Y-84167532D01*
X45245621Y-84173017D01*
X45241837Y-84177447D01*
X45209937Y-84211418D01*
X45209936Y-84211420D01*
X45200284Y-84228976D01*
X45189610Y-84245226D01*
X45177329Y-84261061D01*
X45177324Y-84261068D01*
X45158815Y-84303838D01*
X45156245Y-84309084D01*
X45133803Y-84349906D01*
X45128822Y-84369307D01*
X45122521Y-84387710D01*
X45114562Y-84406102D01*
X45114561Y-84406105D01*
X45107271Y-84452127D01*
X45106087Y-84457846D01*
X45094501Y-84502972D01*
X45094500Y-84502982D01*
X45094500Y-84523016D01*
X45092973Y-84542415D01*
X45089840Y-84562194D01*
X45089840Y-84562195D01*
X45094225Y-84608583D01*
X45094500Y-84614421D01*
X45094500Y-87861850D01*
X45074815Y-87928889D01*
X45022011Y-87974644D01*
X44990142Y-87983237D01*
X44990275Y-87983903D01*
X44984302Y-87985091D01*
X44794191Y-88042760D01*
X44619001Y-88136401D01*
X44618995Y-88136405D01*
X44498664Y-88235158D01*
X44434354Y-88262470D01*
X44365487Y-88250679D01*
X44341336Y-88235158D01*
X44221004Y-88136405D01*
X44220998Y-88136401D01*
X44045808Y-88042760D01*
X43950752Y-88013925D01*
X43855701Y-87985092D01*
X43855699Y-87985091D01*
X43855701Y-87985091D01*
X43749415Y-87974623D01*
X43707547Y-87970500D01*
X43707543Y-87970500D01*
X42592457Y-87970500D01*
X42444300Y-87985091D01*
X42254191Y-88042760D01*
X42079001Y-88136401D01*
X42078994Y-88136405D01*
X41925431Y-88262431D01*
X41922353Y-88266183D01*
X41864607Y-88305517D01*
X41794762Y-88307388D01*
X41734994Y-88271200D01*
X41704278Y-88208444D01*
X41702500Y-88187518D01*
X41702500Y-58676213D01*
X41702658Y-58671789D01*
X41704491Y-58646156D01*
X41719491Y-58436419D01*
X41722009Y-58418916D01*
X41770754Y-58194839D01*
X41775736Y-58177873D01*
X41855876Y-57963007D01*
X41863217Y-57946934D01*
X41973121Y-57745660D01*
X41982683Y-57730783D01*
X42120107Y-57547206D01*
X42131686Y-57533842D01*
X42293842Y-57371686D01*
X42307206Y-57360107D01*
X42490783Y-57222683D01*
X42505663Y-57213120D01*
X42706934Y-57103217D01*
X42723007Y-57095876D01*
X42937881Y-57015733D01*
X42954839Y-57010754D01*
X43178922Y-56962007D01*
X43196419Y-56959491D01*
X43431791Y-56942657D01*
X43436214Y-56942500D01*
X43481595Y-56942500D01*
X96208403Y-56942500D01*
X96208415Y-56942501D01*
G37*
%TD.AperFunction*%
%TA.AperFunction,Conductor*%
G36*
X84846587Y-62875185D02*
G01*
X84867229Y-62891819D01*
X94232548Y-72257138D01*
X94266033Y-72318461D01*
X94261049Y-72388153D01*
X94219177Y-72444086D01*
X94153713Y-72468503D01*
X94122084Y-72466708D01*
X94086197Y-72460000D01*
X93863807Y-72460000D01*
X93645195Y-72500865D01*
X93437824Y-72581200D01*
X93437823Y-72581201D01*
X93321671Y-72653119D01*
X93975000Y-73306447D01*
X93978553Y-73310000D01*
X93945995Y-73310000D01*
X93859784Y-73324386D01*
X93757053Y-73379981D01*
X93677940Y-73465921D01*
X93631018Y-73572892D01*
X93623619Y-73662172D01*
X92966138Y-73004691D01*
X92966137Y-73004691D01*
X92950368Y-73025574D01*
X92851240Y-73224649D01*
X92790378Y-73438560D01*
X92769859Y-73659999D01*
X92769859Y-73660000D01*
X92784156Y-73814291D01*
X92770741Y-73882861D01*
X92722384Y-73933292D01*
X92654438Y-73949575D01*
X92588475Y-73926538D01*
X92573004Y-73913413D01*
X92101819Y-73442228D01*
X92068334Y-73380905D01*
X92065500Y-73354547D01*
X92065500Y-71202737D01*
X92067224Y-71187123D01*
X92066938Y-71187096D01*
X92067672Y-71179333D01*
X92065500Y-71110203D01*
X92065500Y-71080651D01*
X92065500Y-71080650D01*
X92064629Y-71073759D01*
X92064172Y-71067945D01*
X92062709Y-71021372D01*
X92057122Y-71002144D01*
X92053174Y-70983084D01*
X92050664Y-70963208D01*
X92033507Y-70919875D01*
X92031619Y-70914359D01*
X92018619Y-70869612D01*
X92008418Y-70852363D01*
X91999860Y-70834894D01*
X91992486Y-70816268D01*
X91992483Y-70816264D01*
X91992483Y-70816263D01*
X91965098Y-70778571D01*
X91961890Y-70773687D01*
X91938172Y-70733582D01*
X91938163Y-70733571D01*
X91924005Y-70719413D01*
X91911370Y-70704620D01*
X91899593Y-70688412D01*
X91863693Y-70658713D01*
X91859381Y-70654790D01*
X84770803Y-63566212D01*
X84760980Y-63553950D01*
X84760759Y-63554134D01*
X84755786Y-63548123D01*
X84737159Y-63530631D01*
X84705364Y-63500773D01*
X84694919Y-63490328D01*
X84684475Y-63479883D01*
X84678986Y-63475625D01*
X84674561Y-63471847D01*
X84640582Y-63439938D01*
X84640580Y-63439936D01*
X84640577Y-63439935D01*
X84623029Y-63430288D01*
X84606763Y-63419604D01*
X84590933Y-63407325D01*
X84548168Y-63388818D01*
X84542922Y-63386248D01*
X84502093Y-63363803D01*
X84502092Y-63363802D01*
X84482693Y-63358822D01*
X84464281Y-63352518D01*
X84445898Y-63344562D01*
X84445892Y-63344560D01*
X84399874Y-63337272D01*
X84394152Y-63336087D01*
X84349021Y-63324500D01*
X84349019Y-63324500D01*
X84328984Y-63324500D01*
X84309586Y-63322973D01*
X84302162Y-63321797D01*
X84289805Y-63319840D01*
X84289804Y-63319840D01*
X84243416Y-63324225D01*
X84237578Y-63324500D01*
X68974743Y-63324500D01*
X68959122Y-63322775D01*
X68959095Y-63323061D01*
X68951333Y-63322326D01*
X68882172Y-63324500D01*
X68852649Y-63324500D01*
X68845778Y-63325367D01*
X68839959Y-63325825D01*
X68793374Y-63327289D01*
X68793368Y-63327290D01*
X68774126Y-63332880D01*
X68755087Y-63336823D01*
X68735217Y-63339334D01*
X68735203Y-63339337D01*
X68691883Y-63356488D01*
X68686358Y-63358380D01*
X68641613Y-63371380D01*
X68641610Y-63371381D01*
X68624366Y-63381579D01*
X68606905Y-63390133D01*
X68588274Y-63397510D01*
X68588262Y-63397517D01*
X68550570Y-63424902D01*
X68545687Y-63428109D01*
X68505580Y-63451829D01*
X68491414Y-63465995D01*
X68476624Y-63478627D01*
X68460414Y-63490404D01*
X68460411Y-63490407D01*
X68430710Y-63526309D01*
X68426777Y-63530631D01*
X51686208Y-80271199D01*
X51673951Y-80281020D01*
X51674134Y-80281241D01*
X51668123Y-80286213D01*
X51620772Y-80336636D01*
X51599889Y-80357519D01*
X51599877Y-80357532D01*
X51595621Y-80363017D01*
X51591837Y-80367447D01*
X51559937Y-80401418D01*
X51559936Y-80401420D01*
X51550284Y-80418976D01*
X51539610Y-80435226D01*
X51527329Y-80451061D01*
X51527324Y-80451068D01*
X51508815Y-80493838D01*
X51506245Y-80499084D01*
X51483803Y-80539906D01*
X51478822Y-80559307D01*
X51472521Y-80577710D01*
X51464562Y-80596102D01*
X51464561Y-80596105D01*
X51457271Y-80642127D01*
X51456087Y-80647846D01*
X51444501Y-80692972D01*
X51444500Y-80692982D01*
X51444500Y-80713016D01*
X51442973Y-80732415D01*
X51439840Y-80752194D01*
X51439840Y-80752195D01*
X51444225Y-80798583D01*
X51444500Y-80804421D01*
X51444500Y-85007255D01*
X51442775Y-85022872D01*
X51443061Y-85022899D01*
X51442326Y-85030665D01*
X51444500Y-85099814D01*
X51444500Y-85129343D01*
X51444501Y-85129360D01*
X51445368Y-85136231D01*
X51445826Y-85142050D01*
X51447290Y-85188624D01*
X51447291Y-85188627D01*
X51452880Y-85207867D01*
X51456824Y-85226911D01*
X51459336Y-85246791D01*
X51476490Y-85290119D01*
X51478382Y-85295647D01*
X51491381Y-85340388D01*
X51501580Y-85357634D01*
X51510138Y-85375103D01*
X51517514Y-85393732D01*
X51544898Y-85431423D01*
X51548106Y-85436307D01*
X51571827Y-85476416D01*
X51571833Y-85476424D01*
X51585990Y-85490580D01*
X51598628Y-85505376D01*
X51610405Y-85521586D01*
X51610406Y-85521587D01*
X51646309Y-85551288D01*
X51650620Y-85555210D01*
X52170296Y-86074886D01*
X52678181Y-86582771D01*
X52711666Y-86644094D01*
X52714500Y-86670452D01*
X52714500Y-87854850D01*
X52694815Y-87921889D01*
X52642011Y-87967644D01*
X52610142Y-87976237D01*
X52610275Y-87976903D01*
X52604302Y-87978091D01*
X52414191Y-88035760D01*
X52239001Y-88129401D01*
X52238994Y-88129405D01*
X52114400Y-88231658D01*
X52050090Y-88258971D01*
X51981222Y-88247180D01*
X51957070Y-88231658D01*
X51841005Y-88136405D01*
X51840998Y-88136401D01*
X51665808Y-88042760D01*
X51570752Y-88013925D01*
X51475701Y-87985092D01*
X51475699Y-87985091D01*
X51475701Y-87985091D01*
X51369415Y-87974623D01*
X51327547Y-87970500D01*
X51327543Y-87970500D01*
X50212457Y-87970500D01*
X50064300Y-87985091D01*
X49874191Y-88042760D01*
X49699001Y-88136401D01*
X49698995Y-88136405D01*
X49578664Y-88235158D01*
X49514354Y-88262470D01*
X49445487Y-88250679D01*
X49421336Y-88235158D01*
X49301004Y-88136405D01*
X49300998Y-88136401D01*
X49125808Y-88042760D01*
X49030752Y-88013925D01*
X48935701Y-87985092D01*
X48935699Y-87985091D01*
X48935701Y-87985091D01*
X48829415Y-87974623D01*
X48787547Y-87970500D01*
X48787543Y-87970500D01*
X47672457Y-87970500D01*
X47524300Y-87985091D01*
X47334191Y-88042760D01*
X47159001Y-88136401D01*
X47158995Y-88136405D01*
X47038664Y-88235158D01*
X46974354Y-88262470D01*
X46905487Y-88250679D01*
X46881336Y-88235158D01*
X46761004Y-88136405D01*
X46760998Y-88136401D01*
X46585805Y-88042759D01*
X46433504Y-87996558D01*
X46375066Y-87958261D01*
X46346609Y-87894448D01*
X46345500Y-87877898D01*
X46345500Y-84892452D01*
X46365185Y-84825413D01*
X46381819Y-84804771D01*
X68294771Y-62891819D01*
X68356094Y-62858334D01*
X68382452Y-62855500D01*
X84779548Y-62855500D01*
X84846587Y-62875185D01*
G37*
%TD.AperFunction*%
%TA.AperFunction,Conductor*%
G36*
X65333834Y-85894270D02*
G01*
X65389767Y-85936142D01*
X65414184Y-86001606D01*
X65414500Y-86010452D01*
X65414500Y-87861850D01*
X65394815Y-87928889D01*
X65342011Y-87974644D01*
X65310142Y-87983237D01*
X65310275Y-87983903D01*
X65304302Y-87985091D01*
X65114191Y-88042760D01*
X64939001Y-88136401D01*
X64938995Y-88136405D01*
X64818664Y-88235158D01*
X64754354Y-88262470D01*
X64685487Y-88250679D01*
X64661336Y-88235158D01*
X64541004Y-88136405D01*
X64540998Y-88136401D01*
X64365805Y-88042759D01*
X64213504Y-87996558D01*
X64155066Y-87958261D01*
X64126609Y-87894448D01*
X64125500Y-87877898D01*
X64125500Y-87051452D01*
X64145185Y-86984413D01*
X64161819Y-86963771D01*
X65202819Y-85922771D01*
X65264142Y-85889286D01*
X65333834Y-85894270D01*
G37*
%TD.AperFunction*%
%TA.AperFunction,Conductor*%
G36*
X73274835Y-81405148D02*
G01*
X73332359Y-81518045D01*
X73421955Y-81607641D01*
X73534852Y-81665165D01*
X73615598Y-81677953D01*
X72998286Y-82295266D01*
X73052082Y-82332935D01*
X73052085Y-82332936D01*
X73110766Y-82360299D01*
X73163206Y-82406471D01*
X73182359Y-82473664D01*
X73162144Y-82540546D01*
X73146044Y-82560363D01*
X68196208Y-87510199D01*
X68183951Y-87520020D01*
X68184134Y-87520241D01*
X68178123Y-87525213D01*
X68130772Y-87575636D01*
X68109889Y-87596519D01*
X68109877Y-87596532D01*
X68105621Y-87602017D01*
X68101837Y-87606447D01*
X68069937Y-87640418D01*
X68069936Y-87640420D01*
X68060284Y-87657976D01*
X68049610Y-87674226D01*
X68037329Y-87690061D01*
X68037324Y-87690068D01*
X68018815Y-87732838D01*
X68016245Y-87738084D01*
X67993803Y-87778906D01*
X67988822Y-87798307D01*
X67982521Y-87816710D01*
X67974562Y-87835102D01*
X67974561Y-87835105D01*
X67967274Y-87881109D01*
X67966098Y-87886794D01*
X67964969Y-87891202D01*
X67929268Y-87951262D01*
X67866763Y-87982486D01*
X67857000Y-87983841D01*
X67844300Y-87985091D01*
X67654191Y-88042760D01*
X67479001Y-88136401D01*
X67478995Y-88136405D01*
X67358664Y-88235158D01*
X67294354Y-88262470D01*
X67225487Y-88250679D01*
X67201336Y-88235158D01*
X67081004Y-88136405D01*
X67080998Y-88136401D01*
X66905805Y-88042759D01*
X66753504Y-87996558D01*
X66695066Y-87958261D01*
X66666609Y-87894448D01*
X66665500Y-87877898D01*
X66665500Y-85147848D01*
X66685185Y-85080809D01*
X66701819Y-85060167D01*
X67476877Y-84285109D01*
X68289374Y-83472611D01*
X68301628Y-83462796D01*
X68301445Y-83462574D01*
X68307452Y-83457602D01*
X68307463Y-83457596D01*
X68346232Y-83416311D01*
X68354813Y-83407174D01*
X68365257Y-83396728D01*
X68375706Y-83386281D01*
X68379965Y-83380788D01*
X68383738Y-83376371D01*
X68415648Y-83342392D01*
X68425301Y-83324830D01*
X68435975Y-83308580D01*
X68448259Y-83292746D01*
X68466766Y-83249977D01*
X68469335Y-83244734D01*
X68481345Y-83222888D01*
X68491783Y-83203902D01*
X68496763Y-83184501D01*
X68503064Y-83166098D01*
X68511024Y-83147706D01*
X68518316Y-83101663D01*
X68519497Y-83095963D01*
X68526252Y-83069654D01*
X68558673Y-83012812D01*
X69819512Y-81751973D01*
X69880833Y-81718490D01*
X69950525Y-81723474D01*
X70006458Y-81765346D01*
X70019573Y-81787252D01*
X70066627Y-81888160D01*
X70066631Y-81888168D01*
X70188235Y-82061836D01*
X70188240Y-82061842D01*
X70338157Y-82211759D01*
X70338163Y-82211764D01*
X70511831Y-82333368D01*
X70511833Y-82333369D01*
X70511836Y-82333371D01*
X70703991Y-82422974D01*
X70908787Y-82477849D01*
X71071629Y-82492096D01*
X71119999Y-82496328D01*
X71120000Y-82496328D01*
X71120001Y-82496328D01*
X71168371Y-82492096D01*
X71331213Y-82477849D01*
X71536009Y-82422974D01*
X71728164Y-82333371D01*
X71901841Y-82211761D01*
X72051761Y-82061841D01*
X72173371Y-81888164D01*
X72262974Y-81696009D01*
X72263023Y-81695829D01*
X72270483Y-81667986D01*
X72306847Y-81608325D01*
X72369694Y-81577795D01*
X72439069Y-81586089D01*
X72492948Y-81630574D01*
X72510033Y-81667985D01*
X72517493Y-81695829D01*
X72517497Y-81695838D01*
X72607062Y-81887913D01*
X72644733Y-81941712D01*
X73262045Y-81324399D01*
X73274835Y-81405148D01*
G37*
%TD.AperFunction*%
%TA.AperFunction,Conductor*%
G36*
X70413834Y-87164269D02*
G01*
X70469767Y-87206141D01*
X70494184Y-87271605D01*
X70494500Y-87280451D01*
X70494500Y-87861850D01*
X70474815Y-87928889D01*
X70422011Y-87974644D01*
X70390142Y-87983237D01*
X70390275Y-87983903D01*
X70384302Y-87985091D01*
X70194191Y-88042760D01*
X70019001Y-88136401D01*
X70018995Y-88136405D01*
X69898664Y-88235158D01*
X69834354Y-88262470D01*
X69765487Y-88250679D01*
X69741336Y-88235158D01*
X69621005Y-88136405D01*
X69597805Y-88124005D01*
X69584801Y-88117054D01*
X69534958Y-88068092D01*
X69519497Y-87999955D01*
X69543328Y-87934275D01*
X69555574Y-87920015D01*
X69955711Y-87519878D01*
X70282820Y-87192769D01*
X70344142Y-87159285D01*
X70413834Y-87164269D01*
G37*
%TD.AperFunction*%
%TA.AperFunction,Conductor*%
G36*
X75903322Y-82454948D02*
G01*
X75988787Y-82477849D01*
X76151629Y-82492096D01*
X76199999Y-82496328D01*
X76200000Y-82496328D01*
X76200001Y-82496328D01*
X76248371Y-82492096D01*
X76411213Y-82477849D01*
X76472209Y-82461505D01*
X76542055Y-82463168D01*
X76599918Y-82502330D01*
X76627423Y-82566558D01*
X76628300Y-82581280D01*
X76628300Y-84233746D01*
X76608615Y-84300785D01*
X76591981Y-84321427D01*
X73276208Y-87637199D01*
X73263951Y-87647020D01*
X73264134Y-87647241D01*
X73258123Y-87652213D01*
X73210772Y-87702636D01*
X73189889Y-87723519D01*
X73189877Y-87723532D01*
X73185621Y-87729017D01*
X73181837Y-87733447D01*
X73149937Y-87767418D01*
X73149936Y-87767420D01*
X73140284Y-87784976D01*
X73129610Y-87801226D01*
X73117329Y-87817061D01*
X73117324Y-87817068D01*
X73098815Y-87859838D01*
X73096245Y-87865084D01*
X73070045Y-87912744D01*
X73068065Y-87911655D01*
X73032105Y-87957735D01*
X72971957Y-87980398D01*
X72924300Y-87985091D01*
X72734191Y-88042760D01*
X72559001Y-88136401D01*
X72558995Y-88136405D01*
X72438664Y-88235158D01*
X72374354Y-88262470D01*
X72305487Y-88250679D01*
X72281336Y-88235158D01*
X72161004Y-88136405D01*
X72160998Y-88136401D01*
X71985805Y-88042759D01*
X71833504Y-87996558D01*
X71775066Y-87958261D01*
X71746609Y-87894448D01*
X71745500Y-87877898D01*
X71745500Y-86670452D01*
X71765185Y-86603413D01*
X71781819Y-86582771D01*
X73658673Y-84705917D01*
X75547588Y-82817001D01*
X75559842Y-82807186D01*
X75559659Y-82806964D01*
X75565666Y-82801992D01*
X75565677Y-82801986D01*
X75600738Y-82764650D01*
X75613027Y-82751564D01*
X75623471Y-82741118D01*
X75633920Y-82730671D01*
X75638179Y-82725178D01*
X75641952Y-82720761D01*
X75673862Y-82686782D01*
X75683515Y-82669220D01*
X75694189Y-82652970D01*
X75706473Y-82637136D01*
X75724980Y-82594367D01*
X75727549Y-82589124D01*
X75749995Y-82548295D01*
X75749997Y-82548292D01*
X75751125Y-82543897D01*
X75786854Y-82483859D01*
X75849374Y-82452666D01*
X75903322Y-82454948D01*
G37*
%TD.AperFunction*%
%TA.AperFunction,Conductor*%
G36*
X77525834Y-85259269D02*
G01*
X77581767Y-85301141D01*
X77606184Y-85366605D01*
X77606500Y-85375451D01*
X77606500Y-86121546D01*
X77586815Y-86188585D01*
X77570181Y-86209227D01*
X75845226Y-87934181D01*
X75783903Y-87967666D01*
X75757546Y-87970500D01*
X75612457Y-87970500D01*
X75464300Y-87985091D01*
X75274191Y-88042760D01*
X75099001Y-88136401D01*
X75098995Y-88136405D01*
X74978664Y-88235158D01*
X74914354Y-88262470D01*
X74845487Y-88250679D01*
X74821335Y-88235157D01*
X74721727Y-88153411D01*
X74682393Y-88095666D01*
X74680522Y-88025821D01*
X74712709Y-87969879D01*
X77394821Y-85287768D01*
X77456142Y-85254285D01*
X77525834Y-85259269D01*
G37*
%TD.AperFunction*%
%TA.AperFunction,Conductor*%
G36*
X83578703Y-80020135D02*
G01*
X83585181Y-80026167D01*
X87450416Y-83891402D01*
X87483901Y-83952725D01*
X87478917Y-84022417D01*
X87437045Y-84078350D01*
X87413173Y-84092361D01*
X87372767Y-84110352D01*
X87372765Y-84110352D01*
X87372761Y-84110355D01*
X87219626Y-84221614D01*
X87092963Y-84362288D01*
X86998318Y-84526218D01*
X86998315Y-84526225D01*
X86952644Y-84666788D01*
X86939823Y-84706247D01*
X86926721Y-84830909D01*
X86922176Y-84874152D01*
X86895591Y-84938766D01*
X86886536Y-84948871D01*
X85976208Y-85859199D01*
X85963951Y-85869020D01*
X85964134Y-85869241D01*
X85958123Y-85874213D01*
X85910772Y-85924636D01*
X85889889Y-85945519D01*
X85889877Y-85945532D01*
X85885621Y-85951017D01*
X85881837Y-85955447D01*
X85849937Y-85989418D01*
X85849936Y-85989420D01*
X85840284Y-86006976D01*
X85829610Y-86023226D01*
X85817329Y-86039061D01*
X85817324Y-86039068D01*
X85798815Y-86081838D01*
X85796245Y-86087084D01*
X85773803Y-86127906D01*
X85768822Y-86147307D01*
X85762521Y-86165710D01*
X85754562Y-86184102D01*
X85754561Y-86184105D01*
X85747271Y-86230127D01*
X85746087Y-86235846D01*
X85734501Y-86280972D01*
X85734500Y-86280982D01*
X85734500Y-86301016D01*
X85732973Y-86320413D01*
X85729840Y-86340196D01*
X85733831Y-86382415D01*
X85734225Y-86386583D01*
X85734500Y-86392421D01*
X85734500Y-87861850D01*
X85714815Y-87928889D01*
X85662011Y-87974644D01*
X85630142Y-87983237D01*
X85630275Y-87983903D01*
X85624302Y-87985091D01*
X85434191Y-88042760D01*
X85259001Y-88136401D01*
X85258995Y-88136405D01*
X85138664Y-88235158D01*
X85074354Y-88262470D01*
X85005487Y-88250679D01*
X84981336Y-88235158D01*
X84861004Y-88136405D01*
X84860998Y-88136401D01*
X84685808Y-88042760D01*
X84590752Y-88013925D01*
X84495701Y-87985092D01*
X84495699Y-87985091D01*
X84495701Y-87985091D01*
X84374422Y-87973147D01*
X84347547Y-87970500D01*
X84347544Y-87970500D01*
X83497500Y-87970500D01*
X83430461Y-87950815D01*
X83384706Y-87898011D01*
X83373500Y-87846500D01*
X83373500Y-80113848D01*
X83393185Y-80046809D01*
X83445989Y-80001054D01*
X83515147Y-79991110D01*
X83578703Y-80020135D01*
G37*
%TD.AperFunction*%
%TA.AperFunction,Conductor*%
G36*
X88232492Y-85778234D02*
G01*
X88269768Y-85837329D01*
X88274500Y-85871257D01*
X88274500Y-87861850D01*
X88254815Y-87928889D01*
X88202011Y-87974644D01*
X88170142Y-87983237D01*
X88170275Y-87983903D01*
X88164302Y-87985091D01*
X87974191Y-88042760D01*
X87799001Y-88136401D01*
X87798995Y-88136405D01*
X87678664Y-88235158D01*
X87614354Y-88262470D01*
X87545487Y-88250679D01*
X87521336Y-88235158D01*
X87401004Y-88136405D01*
X87400998Y-88136401D01*
X87225805Y-88042759D01*
X87073504Y-87996558D01*
X87015066Y-87958261D01*
X86986609Y-87894448D01*
X86985500Y-87877898D01*
X86985500Y-86670452D01*
X87005185Y-86603413D01*
X87021819Y-86582771D01*
X87773268Y-85831322D01*
X87834591Y-85797837D01*
X87860949Y-85795003D01*
X87920141Y-85795003D01*
X87920143Y-85795003D01*
X88105300Y-85755647D01*
X88105302Y-85755645D01*
X88111484Y-85753638D01*
X88112365Y-85756352D01*
X88169184Y-85748673D01*
X88232492Y-85778234D01*
G37*
%TD.AperFunction*%
%TA.AperFunction,Conductor*%
G36*
X89730703Y-85535739D02*
G01*
X89737181Y-85541771D01*
X90746681Y-86551271D01*
X90780166Y-86612594D01*
X90783000Y-86638952D01*
X90783000Y-87869253D01*
X90763315Y-87936292D01*
X90710511Y-87982047D01*
X90694996Y-87987913D01*
X90514194Y-88042759D01*
X90339001Y-88136401D01*
X90338995Y-88136405D01*
X90218664Y-88235158D01*
X90154354Y-88262470D01*
X90085487Y-88250679D01*
X90061336Y-88235158D01*
X89941004Y-88136405D01*
X89940998Y-88136401D01*
X89765805Y-88042759D01*
X89613504Y-87996558D01*
X89555066Y-87958261D01*
X89526609Y-87894448D01*
X89525500Y-87877898D01*
X89525500Y-85629452D01*
X89545185Y-85562413D01*
X89597989Y-85516658D01*
X89667147Y-85506714D01*
X89730703Y-85535739D01*
G37*
%TD.AperFunction*%
%TA.AperFunction,Conductor*%
G36*
X71467585Y-64595185D02*
G01*
X71513340Y-64647989D01*
X71523284Y-64717147D01*
X71494259Y-64780703D01*
X71488235Y-64787172D01*
X71467314Y-64808093D01*
X71462314Y-64813094D01*
X71400990Y-64846578D01*
X71342543Y-64845187D01*
X71337522Y-64843841D01*
X71331214Y-64842151D01*
X71331208Y-64842150D01*
X71120001Y-64823672D01*
X71119999Y-64823672D01*
X70908791Y-64842150D01*
X70908781Y-64842152D01*
X70703998Y-64897023D01*
X70703989Y-64897027D01*
X70511835Y-64986629D01*
X70511831Y-64986631D01*
X70338163Y-65108235D01*
X70338157Y-65108240D01*
X70188240Y-65258157D01*
X70188235Y-65258163D01*
X70066631Y-65431831D01*
X70066629Y-65431835D01*
X69977027Y-65623989D01*
X69977023Y-65623998D01*
X69922152Y-65828781D01*
X69922150Y-65828791D01*
X69903672Y-66039999D01*
X69903672Y-66040000D01*
X69922150Y-66251208D01*
X69922151Y-66251213D01*
X69934796Y-66298407D01*
X69933134Y-66368256D01*
X69893972Y-66426118D01*
X69829744Y-66453623D01*
X69815022Y-66454500D01*
X68384743Y-66454500D01*
X68369122Y-66452775D01*
X68369095Y-66453061D01*
X68361333Y-66452326D01*
X68292172Y-66454500D01*
X68262649Y-66454500D01*
X68255778Y-66455367D01*
X68249959Y-66455825D01*
X68203374Y-66457289D01*
X68203368Y-66457290D01*
X68184126Y-66462880D01*
X68165087Y-66466823D01*
X68145217Y-66469334D01*
X68145203Y-66469337D01*
X68101883Y-66486488D01*
X68096358Y-66488380D01*
X68051613Y-66501380D01*
X68051610Y-66501381D01*
X68034366Y-66511579D01*
X68016905Y-66520133D01*
X67998274Y-66527510D01*
X67998262Y-66527517D01*
X67960570Y-66554902D01*
X67955687Y-66558109D01*
X67915580Y-66581829D01*
X67901414Y-66595995D01*
X67886624Y-66608627D01*
X67870414Y-66620404D01*
X67870411Y-66620407D01*
X67840710Y-66656309D01*
X67836777Y-66660631D01*
X53680708Y-80816699D01*
X53668451Y-80826520D01*
X53668634Y-80826741D01*
X53662623Y-80831713D01*
X53615272Y-80882136D01*
X53594389Y-80903019D01*
X53594377Y-80903032D01*
X53590121Y-80908517D01*
X53586337Y-80912947D01*
X53554437Y-80946918D01*
X53554436Y-80946920D01*
X53544784Y-80964476D01*
X53534110Y-80980726D01*
X53521829Y-80996561D01*
X53521824Y-80996568D01*
X53503315Y-81039338D01*
X53500745Y-81044584D01*
X53478303Y-81085406D01*
X53473322Y-81104807D01*
X53467021Y-81123210D01*
X53459062Y-81141602D01*
X53459061Y-81141605D01*
X53451771Y-81187627D01*
X53450587Y-81193346D01*
X53439001Y-81238472D01*
X53439000Y-81238482D01*
X53439000Y-81258516D01*
X53437473Y-81277913D01*
X53434340Y-81297696D01*
X53436745Y-81323142D01*
X53438725Y-81344083D01*
X53439000Y-81349921D01*
X53439000Y-82268312D01*
X53419315Y-82335351D01*
X53407150Y-82351284D01*
X53331966Y-82434784D01*
X53237321Y-82598715D01*
X53237318Y-82598722D01*
X53194444Y-82730676D01*
X53178826Y-82778744D01*
X53159040Y-82967000D01*
X53178826Y-83155256D01*
X53178827Y-83155259D01*
X53237318Y-83335277D01*
X53237321Y-83335284D01*
X53320093Y-83478650D01*
X53336566Y-83546551D01*
X53320093Y-83602650D01*
X53237321Y-83746015D01*
X53237318Y-83746022D01*
X53178827Y-83926040D01*
X53178826Y-83926044D01*
X53159040Y-84114300D01*
X53178826Y-84302556D01*
X53178827Y-84302559D01*
X53237318Y-84482577D01*
X53237321Y-84482584D01*
X53331967Y-84646516D01*
X53451749Y-84779547D01*
X53458629Y-84787188D01*
X53611765Y-84898448D01*
X53611770Y-84898451D01*
X53784692Y-84975442D01*
X53784697Y-84975444D01*
X53969854Y-85014800D01*
X53969855Y-85014800D01*
X54159144Y-85014800D01*
X54159146Y-85014800D01*
X54344303Y-84975444D01*
X54517230Y-84898451D01*
X54670371Y-84787188D01*
X54673288Y-84783947D01*
X54676100Y-84780826D01*
X54735587Y-84744179D01*
X54768248Y-84739800D01*
X55502957Y-84739800D01*
X55518577Y-84741524D01*
X55518604Y-84741239D01*
X55526360Y-84741971D01*
X55526367Y-84741973D01*
X55595514Y-84739800D01*
X55625050Y-84739800D01*
X55631928Y-84738930D01*
X55637741Y-84738472D01*
X55684327Y-84737009D01*
X55703569Y-84731417D01*
X55722612Y-84727474D01*
X55742492Y-84724964D01*
X55785822Y-84707807D01*
X55791346Y-84705917D01*
X55795096Y-84704827D01*
X55836090Y-84692918D01*
X55853329Y-84682722D01*
X55870803Y-84674162D01*
X55889427Y-84666788D01*
X55889427Y-84666787D01*
X55889432Y-84666786D01*
X55927149Y-84639382D01*
X55932005Y-84636192D01*
X55972120Y-84612470D01*
X55986289Y-84598299D01*
X56001079Y-84585668D01*
X56017287Y-84573894D01*
X56046999Y-84537976D01*
X56050912Y-84533676D01*
X58642772Y-81941819D01*
X58704095Y-81908334D01*
X58730453Y-81905500D01*
X64687257Y-81905500D01*
X64702877Y-81907224D01*
X64702904Y-81906939D01*
X64710660Y-81907671D01*
X64710667Y-81907673D01*
X64779814Y-81905500D01*
X64809350Y-81905500D01*
X64816228Y-81904630D01*
X64822041Y-81904172D01*
X64868627Y-81902709D01*
X64887869Y-81897117D01*
X64906912Y-81893174D01*
X64926792Y-81890664D01*
X64970122Y-81873507D01*
X64975646Y-81871617D01*
X64979396Y-81870527D01*
X65020390Y-81858618D01*
X65037629Y-81848422D01*
X65055103Y-81839862D01*
X65073729Y-81832487D01*
X65073728Y-81832487D01*
X65073732Y-81832486D01*
X65086536Y-81823182D01*
X65152342Y-81799702D01*
X65159423Y-81799500D01*
X65245641Y-81799500D01*
X65245646Y-81799500D01*
X65264721Y-81795445D01*
X65334383Y-81800760D01*
X65390118Y-81842895D01*
X65414225Y-81908475D01*
X65414500Y-81916735D01*
X65414500Y-81981359D01*
X65394815Y-82048398D01*
X65378181Y-82069040D01*
X64289040Y-83158181D01*
X64227717Y-83191666D01*
X64201359Y-83194500D01*
X61042743Y-83194500D01*
X61027122Y-83192775D01*
X61027096Y-83193061D01*
X61019334Y-83192327D01*
X61019333Y-83192327D01*
X60950186Y-83194500D01*
X60920649Y-83194500D01*
X60913766Y-83195369D01*
X60907949Y-83195826D01*
X60861373Y-83197290D01*
X60842129Y-83202881D01*
X60823079Y-83206825D01*
X60803211Y-83209334D01*
X60759884Y-83226488D01*
X60754358Y-83228379D01*
X60709614Y-83241379D01*
X60709610Y-83241381D01*
X60692366Y-83251579D01*
X60674905Y-83260133D01*
X60656274Y-83267510D01*
X60656262Y-83267517D01*
X60618570Y-83294902D01*
X60613687Y-83298109D01*
X60573580Y-83321829D01*
X60559414Y-83335995D01*
X60544624Y-83348627D01*
X60528414Y-83360404D01*
X60528411Y-83360407D01*
X60498710Y-83396309D01*
X60494777Y-83400631D01*
X55961226Y-87934181D01*
X55899903Y-87967666D01*
X55873545Y-87970500D01*
X55292457Y-87970500D01*
X55144300Y-87985091D01*
X54954191Y-88042760D01*
X54779001Y-88136401D01*
X54778994Y-88136405D01*
X54662930Y-88231658D01*
X54598620Y-88258971D01*
X54529753Y-88247180D01*
X54505600Y-88231658D01*
X54381005Y-88129405D01*
X54380998Y-88129401D01*
X54205805Y-88035759D01*
X54053504Y-87989558D01*
X53995066Y-87951261D01*
X53966609Y-87887448D01*
X53965500Y-87870898D01*
X53965500Y-86442737D01*
X53967224Y-86427123D01*
X53966938Y-86427096D01*
X53967672Y-86419333D01*
X53965500Y-86350203D01*
X53965500Y-86320651D01*
X53965500Y-86320650D01*
X53964629Y-86313759D01*
X53964172Y-86307945D01*
X53963954Y-86301016D01*
X53962709Y-86261373D01*
X53957122Y-86242144D01*
X53953174Y-86223084D01*
X53951424Y-86209227D01*
X53950664Y-86203208D01*
X53933507Y-86159875D01*
X53931619Y-86154359D01*
X53918619Y-86109612D01*
X53908418Y-86092363D01*
X53899860Y-86074894D01*
X53892486Y-86056268D01*
X53892483Y-86056264D01*
X53892483Y-86056263D01*
X53865098Y-86018571D01*
X53861890Y-86013687D01*
X53838172Y-85973582D01*
X53838163Y-85973571D01*
X53824005Y-85959413D01*
X53811370Y-85944620D01*
X53799593Y-85928412D01*
X53763693Y-85898713D01*
X53759381Y-85894790D01*
X52731819Y-84867228D01*
X52698334Y-84805905D01*
X52695500Y-84779547D01*
X52695500Y-81082452D01*
X52715185Y-81015413D01*
X52731819Y-80994771D01*
X69114771Y-64611819D01*
X69176094Y-64578334D01*
X69202452Y-64575500D01*
X71400546Y-64575500D01*
X71467585Y-64595185D01*
G37*
%TD.AperFunction*%
%TA.AperFunction,Conductor*%
G36*
X79082055Y-82463168D02*
G01*
X79139918Y-82502330D01*
X79167423Y-82566558D01*
X79168300Y-82581280D01*
X79168300Y-87839500D01*
X79148615Y-87906539D01*
X79095811Y-87952294D01*
X79044300Y-87963500D01*
X78152457Y-87963500D01*
X78004300Y-87978091D01*
X77855323Y-88023283D01*
X77785456Y-88023906D01*
X77726343Y-87986658D01*
X77696752Y-87923363D01*
X77706079Y-87854119D01*
X77731644Y-87816945D01*
X78615787Y-86932802D01*
X78628042Y-86922986D01*
X78627859Y-86922764D01*
X78633866Y-86917792D01*
X78633877Y-86917786D01*
X78664775Y-86884882D01*
X78681227Y-86867364D01*
X78691671Y-86856918D01*
X78702120Y-86846471D01*
X78706379Y-86840978D01*
X78710152Y-86836561D01*
X78742062Y-86802582D01*
X78751715Y-86785020D01*
X78762389Y-86768770D01*
X78774673Y-86752936D01*
X78793180Y-86710167D01*
X78795749Y-86704924D01*
X78818196Y-86664093D01*
X78818197Y-86664092D01*
X78823177Y-86644691D01*
X78829478Y-86626288D01*
X78837438Y-86607896D01*
X78844730Y-86561849D01*
X78845911Y-86556152D01*
X78857500Y-86511019D01*
X78857500Y-86490983D01*
X78859027Y-86471582D01*
X78862160Y-86451804D01*
X78857775Y-86405415D01*
X78857500Y-86399577D01*
X78857500Y-82886742D01*
X78859224Y-82871122D01*
X78858939Y-82871095D01*
X78859673Y-82863333D01*
X78857500Y-82794172D01*
X78857500Y-82764656D01*
X78857500Y-82764650D01*
X78856631Y-82757779D01*
X78856173Y-82751952D01*
X78855743Y-82738256D01*
X78854710Y-82705373D01*
X78849119Y-82686130D01*
X78845173Y-82667078D01*
X78842664Y-82647208D01*
X78842662Y-82647204D01*
X78840724Y-82639654D01*
X78841993Y-82639328D01*
X78836350Y-82577805D01*
X78868598Y-82515822D01*
X78929236Y-82481113D01*
X78947210Y-82478199D01*
X78951213Y-82477849D01*
X79012209Y-82461505D01*
X79082055Y-82463168D01*
G37*
%TD.AperFunction*%
%TA.AperFunction,Conductor*%
G36*
X82061350Y-79760597D02*
G01*
X82109163Y-79811545D01*
X82122500Y-79867489D01*
X82122500Y-87861495D01*
X82102815Y-87928534D01*
X82050011Y-87974289D01*
X81980853Y-87984233D01*
X81962509Y-87980157D01*
X81955700Y-87978091D01*
X81844116Y-87967101D01*
X81807547Y-87963500D01*
X81807544Y-87963500D01*
X80993300Y-87963500D01*
X80926261Y-87943815D01*
X80880506Y-87891011D01*
X80869300Y-87839500D01*
X80869300Y-80045996D01*
X80888985Y-79978957D01*
X80941789Y-79933202D01*
X81010947Y-79923258D01*
X81025394Y-79926221D01*
X81068787Y-79937849D01*
X81237757Y-79952632D01*
X81279999Y-79956328D01*
X81280000Y-79956328D01*
X81280001Y-79956328D01*
X81315202Y-79953248D01*
X81491213Y-79937849D01*
X81696009Y-79882974D01*
X81888164Y-79793371D01*
X81927377Y-79765913D01*
X81993583Y-79743587D01*
X82061350Y-79760597D01*
G37*
%TD.AperFunction*%
%TA.AperFunction,Conductor*%
G36*
X63405794Y-84465185D02*
G01*
X63451549Y-84517989D01*
X63461493Y-84587147D01*
X63432468Y-84650703D01*
X63426436Y-84657181D01*
X61623436Y-86460181D01*
X61562113Y-86493666D01*
X61535755Y-86496500D01*
X59772737Y-86496500D01*
X59757120Y-86494776D01*
X59757093Y-86495062D01*
X59749331Y-86494327D01*
X59680203Y-86496500D01*
X59650650Y-86496500D01*
X59649929Y-86496590D01*
X59643757Y-86497369D01*
X59637945Y-86497826D01*
X59591373Y-86499290D01*
X59591372Y-86499290D01*
X59572129Y-86504881D01*
X59553079Y-86508825D01*
X59533211Y-86511334D01*
X59533209Y-86511335D01*
X59489883Y-86528488D01*
X59484355Y-86530381D01*
X59454595Y-86539027D01*
X59384726Y-86538828D01*
X59326056Y-86500886D01*
X59297212Y-86437248D01*
X59307353Y-86368118D01*
X59332316Y-86332273D01*
X61182772Y-84481819D01*
X61244095Y-84448334D01*
X61270453Y-84445500D01*
X63338755Y-84445500D01*
X63405794Y-84465185D01*
G37*
%TD.AperFunction*%
%TA.AperFunction,Conductor*%
G36*
X67389887Y-68979215D02*
G01*
X67445820Y-69021087D01*
X67458935Y-69042993D01*
X67526627Y-69188160D01*
X67526631Y-69188168D01*
X67648235Y-69361836D01*
X67648240Y-69361842D01*
X67798157Y-69511759D01*
X67798163Y-69511764D01*
X67971831Y-69633368D01*
X67971833Y-69633369D01*
X67971836Y-69633371D01*
X68163991Y-69722974D01*
X68178717Y-69726919D01*
X68191051Y-69730225D01*
X68250711Y-69766591D01*
X68281240Y-69829438D01*
X68272945Y-69898813D01*
X68228459Y-69952691D01*
X68191051Y-69969775D01*
X68163996Y-69977024D01*
X68163989Y-69977027D01*
X67971835Y-70066629D01*
X67971831Y-70066631D01*
X67798163Y-70188235D01*
X67798157Y-70188240D01*
X67648240Y-70338157D01*
X67648235Y-70338163D01*
X67526631Y-70511831D01*
X67526629Y-70511835D01*
X67437027Y-70703989D01*
X67437023Y-70703998D01*
X67382152Y-70908781D01*
X67382150Y-70908791D01*
X67363672Y-71119999D01*
X67363672Y-71120000D01*
X67382150Y-71331208D01*
X67382152Y-71331218D01*
X67437023Y-71536001D01*
X67437025Y-71536005D01*
X67437026Y-71536009D01*
X67521276Y-71716685D01*
X67526629Y-71728164D01*
X67526631Y-71728168D01*
X67648235Y-71901836D01*
X67648240Y-71901842D01*
X67798157Y-72051759D01*
X67798163Y-72051764D01*
X67971831Y-72173368D01*
X67971833Y-72173369D01*
X67971836Y-72173371D01*
X68163991Y-72262974D01*
X68178717Y-72266919D01*
X68191051Y-72270225D01*
X68250711Y-72306591D01*
X68281240Y-72369438D01*
X68272945Y-72438813D01*
X68228459Y-72492691D01*
X68191051Y-72509775D01*
X68163996Y-72517024D01*
X68163989Y-72517027D01*
X67971835Y-72606629D01*
X67971831Y-72606631D01*
X67798163Y-72728235D01*
X67798157Y-72728240D01*
X67648240Y-72878157D01*
X67648235Y-72878163D01*
X67526631Y-73051831D01*
X67526629Y-73051835D01*
X67437027Y-73243989D01*
X67437023Y-73243998D01*
X67382152Y-73448781D01*
X67382150Y-73448791D01*
X67363672Y-73659999D01*
X67363672Y-73660000D01*
X67382150Y-73871208D01*
X67382152Y-73871218D01*
X67437023Y-74076001D01*
X67437025Y-74076005D01*
X67437026Y-74076009D01*
X67510254Y-74233047D01*
X67526629Y-74268164D01*
X67526631Y-74268168D01*
X67599814Y-74372684D01*
X67622141Y-74438890D01*
X67605131Y-74506657D01*
X67585920Y-74531488D01*
X65656208Y-76461199D01*
X65643951Y-76471020D01*
X65644134Y-76471241D01*
X65638123Y-76476213D01*
X65590772Y-76526636D01*
X65569889Y-76547519D01*
X65569877Y-76547532D01*
X65565621Y-76553017D01*
X65561837Y-76557447D01*
X65529937Y-76591418D01*
X65529936Y-76591420D01*
X65520284Y-76608976D01*
X65509610Y-76625226D01*
X65497329Y-76641061D01*
X65497324Y-76641068D01*
X65478815Y-76683838D01*
X65476245Y-76689084D01*
X65453803Y-76729906D01*
X65448822Y-76749307D01*
X65442521Y-76767710D01*
X65434562Y-76786102D01*
X65434561Y-76786105D01*
X65427271Y-76832127D01*
X65426087Y-76837846D01*
X65414501Y-76882972D01*
X65414500Y-76882982D01*
X65414500Y-76903016D01*
X65412973Y-76922415D01*
X65409840Y-76942194D01*
X65409840Y-76942195D01*
X65414225Y-76988583D01*
X65414500Y-76994421D01*
X65414500Y-79881263D01*
X65394815Y-79948302D01*
X65342011Y-79994057D01*
X65272853Y-80004001D01*
X65264720Y-80002554D01*
X65245646Y-79998500D01*
X65056354Y-79998500D01*
X65036218Y-80002780D01*
X64871197Y-80037855D01*
X64871192Y-80037857D01*
X64698270Y-80114848D01*
X64698265Y-80114851D01*
X64545129Y-80226111D01*
X64418466Y-80366785D01*
X64323821Y-80530715D01*
X64323817Y-80530724D01*
X64311441Y-80568817D01*
X64272004Y-80626493D01*
X64207646Y-80653692D01*
X64193510Y-80654500D01*
X58502737Y-80654500D01*
X58487120Y-80652776D01*
X58487093Y-80653062D01*
X58479331Y-80652327D01*
X58410203Y-80654500D01*
X58380650Y-80654500D01*
X58379929Y-80654590D01*
X58373757Y-80655369D01*
X58367945Y-80655826D01*
X58321372Y-80657290D01*
X58321369Y-80657291D01*
X58302126Y-80662881D01*
X58283083Y-80666825D01*
X58263204Y-80669336D01*
X58263203Y-80669337D01*
X58219878Y-80686490D01*
X58214352Y-80688382D01*
X58169608Y-80701383D01*
X58169604Y-80701385D01*
X58152365Y-80711580D01*
X58134898Y-80720137D01*
X58116269Y-80727512D01*
X58116267Y-80727513D01*
X58078564Y-80754906D01*
X58073682Y-80758112D01*
X58033580Y-80781828D01*
X58019408Y-80796000D01*
X58004623Y-80808628D01*
X57988412Y-80820407D01*
X57958709Y-80856310D01*
X57954777Y-80860631D01*
X55362928Y-83452481D01*
X55301605Y-83485966D01*
X55275247Y-83488800D01*
X55012470Y-83488800D01*
X54945431Y-83469115D01*
X54899676Y-83416311D01*
X54889732Y-83347153D01*
X54894539Y-83326482D01*
X54896596Y-83320148D01*
X54950174Y-83155256D01*
X54969960Y-82967000D01*
X54950174Y-82778744D01*
X54891679Y-82598716D01*
X54797033Y-82434784D01*
X54786399Y-82422974D01*
X54721850Y-82351284D01*
X54691620Y-82288292D01*
X54690000Y-82268312D01*
X54690000Y-81627951D01*
X54709685Y-81560912D01*
X54726314Y-81540275D01*
X67258874Y-69007714D01*
X67320195Y-68974231D01*
X67389887Y-68979215D01*
G37*
%TD.AperFunction*%
%TA.AperFunction,Conductor*%
G36*
X82306587Y-65415185D02*
G01*
X82327229Y-65431819D01*
X88238181Y-71342771D01*
X88271666Y-71404094D01*
X88274500Y-71430452D01*
X88274500Y-81851312D01*
X88254815Y-81918351D01*
X88242650Y-81934284D01*
X88167205Y-82018074D01*
X88107718Y-82054723D01*
X88037861Y-82053392D01*
X87987374Y-82022783D01*
X86166771Y-80202180D01*
X86133286Y-80140857D01*
X86138270Y-80071165D01*
X86180142Y-80015232D01*
X86245606Y-79990815D01*
X86254452Y-79990499D01*
X87152871Y-79990499D01*
X87152872Y-79990499D01*
X87212483Y-79984091D01*
X87347331Y-79933796D01*
X87462546Y-79847546D01*
X87548796Y-79732331D01*
X87599091Y-79597483D01*
X87605500Y-79537873D01*
X87605499Y-77942128D01*
X87599091Y-77882517D01*
X87594011Y-77868898D01*
X87548797Y-77747671D01*
X87548793Y-77747664D01*
X87462547Y-77632456D01*
X87462548Y-77632456D01*
X87462546Y-77632454D01*
X87378136Y-77569265D01*
X87336267Y-77513333D01*
X87331283Y-77443641D01*
X87364768Y-77382318D01*
X87378130Y-77370739D01*
X87462546Y-77307546D01*
X87548796Y-77192331D01*
X87599091Y-77057483D01*
X87605500Y-76997873D01*
X87605499Y-75402128D01*
X87600299Y-75353757D01*
X87599091Y-75342516D01*
X87548797Y-75207671D01*
X87548793Y-75207664D01*
X87462547Y-75092455D01*
X87462544Y-75092452D01*
X87347335Y-75006206D01*
X87347328Y-75006202D01*
X87212482Y-74955908D01*
X87212483Y-74955908D01*
X87152883Y-74949501D01*
X87152881Y-74949500D01*
X87152873Y-74949500D01*
X87152865Y-74949500D01*
X86988646Y-74949500D01*
X86921607Y-74929815D01*
X86875852Y-74877011D01*
X86865908Y-74807853D01*
X86894933Y-74744297D01*
X86923369Y-74720073D01*
X87081560Y-74622125D01*
X87081559Y-74622125D01*
X87081562Y-74622124D01*
X87237113Y-74480320D01*
X87245979Y-74472238D01*
X87247363Y-74470406D01*
X87380058Y-74294689D01*
X87479229Y-74095528D01*
X87540115Y-73881536D01*
X87560643Y-73660000D01*
X87540115Y-73438464D01*
X87479229Y-73224472D01*
X87416796Y-73099090D01*
X87380061Y-73025316D01*
X87380056Y-73025308D01*
X87245979Y-72847761D01*
X87081562Y-72697876D01*
X87081560Y-72697874D01*
X86892404Y-72580754D01*
X86892398Y-72580752D01*
X86684940Y-72500382D01*
X86466243Y-72459500D01*
X86243757Y-72459500D01*
X86025060Y-72500382D01*
X86025057Y-72500382D01*
X86025057Y-72500383D01*
X85884293Y-72554915D01*
X85814670Y-72560777D01*
X85752930Y-72528066D01*
X85718675Y-72467170D01*
X85715500Y-72439288D01*
X85715500Y-71202737D01*
X85717224Y-71187123D01*
X85716938Y-71187096D01*
X85717672Y-71179333D01*
X85715500Y-71110202D01*
X85715500Y-71080651D01*
X85715500Y-71080650D01*
X85714629Y-71073759D01*
X85714172Y-71067945D01*
X85712709Y-71021374D01*
X85712709Y-71021373D01*
X85712709Y-71021372D01*
X85707120Y-71002137D01*
X85703174Y-70983084D01*
X85700664Y-70963208D01*
X85683501Y-70919859D01*
X85681614Y-70914346D01*
X85668617Y-70869610D01*
X85668616Y-70869608D01*
X85658421Y-70852369D01*
X85649860Y-70834893D01*
X85647252Y-70828306D01*
X85642486Y-70816268D01*
X85642486Y-70816267D01*
X85630691Y-70800034D01*
X85615083Y-70778550D01*
X85611900Y-70773705D01*
X85588170Y-70733579D01*
X85588165Y-70733573D01*
X85574005Y-70719413D01*
X85561370Y-70704620D01*
X85549593Y-70688412D01*
X85513693Y-70658713D01*
X85509381Y-70654790D01*
X83050803Y-68196212D01*
X83040980Y-68183950D01*
X83040759Y-68184134D01*
X83035786Y-68178123D01*
X83011695Y-68155500D01*
X82985364Y-68130773D01*
X82974919Y-68120328D01*
X82964475Y-68109883D01*
X82958986Y-68105625D01*
X82954561Y-68101847D01*
X82920582Y-68069938D01*
X82920580Y-68069936D01*
X82920577Y-68069935D01*
X82903029Y-68060288D01*
X82886763Y-68049604D01*
X82870933Y-68037325D01*
X82828168Y-68018818D01*
X82822922Y-68016248D01*
X82782093Y-67993803D01*
X82782092Y-67993802D01*
X82762693Y-67988822D01*
X82744281Y-67982518D01*
X82725898Y-67974562D01*
X82725892Y-67974560D01*
X82679874Y-67967272D01*
X82674152Y-67966087D01*
X82629021Y-67954500D01*
X82629019Y-67954500D01*
X82608984Y-67954500D01*
X82589586Y-67952973D01*
X82582162Y-67951797D01*
X82569805Y-67949840D01*
X82569804Y-67949840D01*
X82523416Y-67954225D01*
X82517578Y-67954500D01*
X82385782Y-67954500D01*
X82318743Y-67934815D01*
X82284207Y-67901623D01*
X82211762Y-67798160D01*
X82211759Y-67798157D01*
X82061841Y-67648239D01*
X82061837Y-67648236D01*
X82061836Y-67648235D01*
X81888168Y-67526631D01*
X81888164Y-67526629D01*
X81696009Y-67437026D01*
X81696005Y-67437025D01*
X81696001Y-67437023D01*
X81491218Y-67382152D01*
X81491208Y-67382150D01*
X81280001Y-67363672D01*
X81279999Y-67363672D01*
X81068791Y-67382150D01*
X81068781Y-67382152D01*
X80863998Y-67437023D01*
X80863989Y-67437027D01*
X80671835Y-67526629D01*
X80671831Y-67526631D01*
X80498163Y-67648235D01*
X80498157Y-67648240D01*
X80348240Y-67798157D01*
X80348235Y-67798163D01*
X80226631Y-67971831D01*
X80226629Y-67971835D01*
X80137027Y-68163989D01*
X80137024Y-68163996D01*
X80129775Y-68191051D01*
X80093409Y-68250711D01*
X80030562Y-68281240D01*
X79961187Y-68272945D01*
X79907309Y-68228459D01*
X79890225Y-68191051D01*
X79882975Y-68163996D01*
X79882974Y-68163991D01*
X79793371Y-67971836D01*
X79793369Y-67971833D01*
X79793368Y-67971831D01*
X79671764Y-67798163D01*
X79671759Y-67798157D01*
X79521842Y-67648240D01*
X79521836Y-67648235D01*
X79348168Y-67526631D01*
X79348164Y-67526629D01*
X79156009Y-67437026D01*
X79156005Y-67437025D01*
X79156001Y-67437023D01*
X79128949Y-67429775D01*
X79069288Y-67393410D01*
X79038759Y-67330563D01*
X79047054Y-67261188D01*
X79091539Y-67207310D01*
X79128949Y-67190225D01*
X79146930Y-67185406D01*
X79156009Y-67182974D01*
X79348164Y-67093371D01*
X79521841Y-66971761D01*
X79671761Y-66821841D01*
X79793371Y-66648164D01*
X79882974Y-66456009D01*
X79937849Y-66251213D01*
X79956328Y-66040000D01*
X79937849Y-65828787D01*
X79882974Y-65623991D01*
X79858686Y-65571904D01*
X79848194Y-65502827D01*
X79876714Y-65439043D01*
X79935191Y-65400804D01*
X79971068Y-65395500D01*
X82239548Y-65395500D01*
X82306587Y-65415185D01*
G37*
%TD.AperFunction*%
%TA.AperFunction,Conductor*%
G36*
X82410408Y-69325086D02*
G01*
X82413238Y-69327828D01*
X84428181Y-71342771D01*
X84461666Y-71404094D01*
X84464500Y-71430452D01*
X84464500Y-78836943D01*
X84444815Y-78903982D01*
X84392011Y-78949737D01*
X84322853Y-78959681D01*
X84259297Y-78930656D01*
X84252819Y-78924624D01*
X83859819Y-78531624D01*
X83826334Y-78470301D01*
X83823500Y-78443943D01*
X83823500Y-75024346D01*
X83825224Y-75008726D01*
X83824939Y-75008700D01*
X83825671Y-75000944D01*
X83825673Y-75000937D01*
X83823500Y-74931789D01*
X83823500Y-74902254D01*
X83822631Y-74895376D01*
X83822172Y-74889547D01*
X83820709Y-74842976D01*
X83815122Y-74823748D01*
X83811174Y-74804688D01*
X83810958Y-74802974D01*
X83808664Y-74784812D01*
X83808663Y-74784810D01*
X83808663Y-74784808D01*
X83791512Y-74741491D01*
X83789619Y-74735962D01*
X83776618Y-74691213D01*
X83776616Y-74691210D01*
X83766423Y-74673975D01*
X83757861Y-74656498D01*
X83750487Y-74637874D01*
X83750486Y-74637872D01*
X83723079Y-74600149D01*
X83719888Y-74595290D01*
X83696172Y-74555187D01*
X83696165Y-74555178D01*
X83682006Y-74541019D01*
X83669368Y-74526223D01*
X83657594Y-74510017D01*
X83653532Y-74506657D01*
X83621684Y-74480310D01*
X83617372Y-74476385D01*
X83592817Y-74451829D01*
X83559333Y-74390505D01*
X83556500Y-74364150D01*
X83556500Y-71296450D01*
X83558224Y-71280836D01*
X83557938Y-71280809D01*
X83558672Y-71273046D01*
X83556500Y-71203915D01*
X83556500Y-71174364D01*
X83556500Y-71174363D01*
X83555629Y-71167472D01*
X83555172Y-71161658D01*
X83553709Y-71115087D01*
X83553709Y-71115085D01*
X83548120Y-71095850D01*
X83544174Y-71076797D01*
X83543056Y-71067945D01*
X83541664Y-71056921D01*
X83524501Y-71013572D01*
X83522614Y-71008059D01*
X83509617Y-70963323D01*
X83509616Y-70963321D01*
X83499421Y-70946082D01*
X83490860Y-70928606D01*
X83483486Y-70909982D01*
X83483486Y-70909980D01*
X83473474Y-70896201D01*
X83456083Y-70872263D01*
X83452900Y-70867418D01*
X83429170Y-70827292D01*
X83429165Y-70827286D01*
X83415005Y-70813126D01*
X83402370Y-70798333D01*
X83390593Y-70782125D01*
X83354693Y-70752426D01*
X83350381Y-70748503D01*
X82175421Y-69573543D01*
X82141936Y-69512220D01*
X82146920Y-69442528D01*
X82175422Y-69398180D01*
X82211758Y-69361844D01*
X82211761Y-69361841D01*
X82223981Y-69344387D01*
X82278554Y-69300763D01*
X82348052Y-69293566D01*
X82410408Y-69325086D01*
G37*
%TD.AperFunction*%
%TA.AperFunction,Conductor*%
G36*
X74512371Y-69550864D02*
G01*
X74560184Y-69601812D01*
X74564815Y-69612111D01*
X74570289Y-69625938D01*
X74572182Y-69631466D01*
X74585181Y-69676208D01*
X74595380Y-69693454D01*
X74603938Y-69710923D01*
X74611314Y-69729552D01*
X74638698Y-69767243D01*
X74641906Y-69772127D01*
X74665627Y-69812236D01*
X74665633Y-69812244D01*
X74679790Y-69826400D01*
X74692428Y-69841196D01*
X74704205Y-69857406D01*
X74704206Y-69857407D01*
X74740109Y-69887108D01*
X74744420Y-69891030D01*
X75669653Y-70816263D01*
X76591981Y-71738591D01*
X76625466Y-71799914D01*
X76628300Y-71826272D01*
X76628300Y-77438719D01*
X76608615Y-77505758D01*
X76555811Y-77551513D01*
X76486653Y-77561457D01*
X76472207Y-77558494D01*
X76411218Y-77542152D01*
X76411208Y-77542150D01*
X76200001Y-77523672D01*
X76199999Y-77523672D01*
X75988791Y-77542150D01*
X75988778Y-77542153D01*
X75945392Y-77553778D01*
X75875543Y-77552115D01*
X75817680Y-77512952D01*
X75790177Y-77448723D01*
X75789300Y-77434003D01*
X75789300Y-72706542D01*
X75791024Y-72690922D01*
X75790739Y-72690896D01*
X75791471Y-72683140D01*
X75791473Y-72683133D01*
X75789300Y-72613985D01*
X75789300Y-72584450D01*
X75788431Y-72577572D01*
X75787972Y-72571743D01*
X75786509Y-72525172D01*
X75780922Y-72505944D01*
X75776974Y-72486884D01*
X75776574Y-72483715D01*
X75774464Y-72467008D01*
X75774463Y-72467006D01*
X75774463Y-72467004D01*
X75757312Y-72423687D01*
X75755419Y-72418158D01*
X75742418Y-72373409D01*
X75742416Y-72373406D01*
X75732223Y-72356171D01*
X75723661Y-72338694D01*
X75716287Y-72320070D01*
X75715118Y-72318461D01*
X75688879Y-72282345D01*
X75685688Y-72277486D01*
X75661972Y-72237383D01*
X75661965Y-72237374D01*
X75647806Y-72223215D01*
X75635168Y-72208419D01*
X75623394Y-72192213D01*
X75607087Y-72178723D01*
X75587488Y-72162509D01*
X75583176Y-72158586D01*
X73419721Y-69995131D01*
X73386236Y-69933808D01*
X73391220Y-69864116D01*
X73433092Y-69808183D01*
X73498556Y-69783766D01*
X73518199Y-69783921D01*
X73646175Y-69795118D01*
X73659999Y-69796328D01*
X73660000Y-69796328D01*
X73660001Y-69796328D01*
X73709297Y-69792015D01*
X73871213Y-69777849D01*
X74076009Y-69722974D01*
X74268164Y-69633371D01*
X74378402Y-69556181D01*
X74444603Y-69533855D01*
X74512371Y-69550864D01*
G37*
%TD.AperFunction*%
%TA.AperFunction,Conductor*%
G36*
X94999404Y-74330851D02*
G01*
X95010153Y-74333213D01*
X95059456Y-74382721D01*
X95074500Y-74441921D01*
X95074500Y-75231662D01*
X95054815Y-75298701D01*
X95002011Y-75344456D01*
X94932853Y-75354400D01*
X94869297Y-75325375D01*
X94862819Y-75319344D01*
X94781878Y-75238403D01*
X94737988Y-75207671D01*
X94650812Y-75146629D01*
X94602638Y-75112897D01*
X94467271Y-75049775D01*
X94404330Y-75020425D01*
X94404323Y-75020423D01*
X94399236Y-75018571D01*
X94399682Y-75017344D01*
X94345392Y-74984251D01*
X94314865Y-74921403D01*
X94323162Y-74852028D01*
X94367649Y-74798151D01*
X94392355Y-74785218D01*
X94512168Y-74738801D01*
X94512181Y-74738795D01*
X94628326Y-74666879D01*
X93971447Y-74010000D01*
X94004005Y-74010000D01*
X94090216Y-73995614D01*
X94192947Y-73940019D01*
X94272060Y-73854079D01*
X94318982Y-73747108D01*
X94326380Y-73657827D01*
X94999404Y-74330851D01*
G37*
%TD.AperFunction*%
%TD*%
M02*
