%TF.GenerationSoftware,KiCad,Pcbnew,7.0.8*%
%TF.CreationDate,2023-11-13T09:49:42+00:00*%
%TF.ProjectId,rom-cart,726f6d2d-6361-4727-942e-6b696361645f,rev?*%
%TF.SameCoordinates,Original*%
%TF.FileFunction,Copper,L2,Bot*%
%TF.FilePolarity,Positive*%
%FSLAX46Y46*%
G04 Gerber Fmt 4.6, Leading zero omitted, Abs format (unit mm)*
G04 Created by KiCad (PCBNEW 7.0.8) date 2023-11-13 09:49:42*
%MOMM*%
%LPD*%
G01*
G04 APERTURE LIST*
G04 Aperture macros list*
%AMRoundRect*
0 Rectangle with rounded corners*
0 $1 Rounding radius*
0 $2 $3 $4 $5 $6 $7 $8 $9 X,Y pos of 4 corners*
0 Add a 4 corners polygon primitive as box body*
4,1,4,$2,$3,$4,$5,$6,$7,$8,$9,$2,$3,0*
0 Add four circle primitives for the rounded corners*
1,1,$1+$1,$2,$3*
1,1,$1+$1,$4,$5*
1,1,$1+$1,$6,$7*
1,1,$1+$1,$8,$9*
0 Add four rect primitives between the rounded corners*
20,1,$1+$1,$2,$3,$4,$5,0*
20,1,$1+$1,$4,$5,$6,$7,0*
20,1,$1+$1,$6,$7,$8,$9,0*
20,1,$1+$1,$8,$9,$2,$3,0*%
G04 Aperture macros list end*
%TA.AperFunction,ComponentPad*%
%ADD10R,1.500000X1.500000*%
%TD*%
%TA.AperFunction,ComponentPad*%
%ADD11O,1.500000X1.500000*%
%TD*%
%TA.AperFunction,ComponentPad*%
%ADD12C,1.600000*%
%TD*%
%TA.AperFunction,ComponentPad*%
%ADD13R,1.422400X1.422400*%
%TD*%
%TA.AperFunction,ComponentPad*%
%ADD14C,1.422400*%
%TD*%
%TA.AperFunction,SMDPad,CuDef*%
%ADD15RoundRect,0.508000X0.508000X2.464500X-0.508000X2.464500X-0.508000X-2.464500X0.508000X-2.464500X0*%
%TD*%
%TA.AperFunction,SMDPad,CuDef*%
%ADD16RoundRect,0.508000X0.508000X2.468000X-0.508000X2.468000X-0.508000X-2.468000X0.508000X-2.468000X0*%
%TD*%
%TA.AperFunction,SMDPad,CuDef*%
%ADD17RoundRect,0.539750X0.539750X2.436250X-0.539750X2.436250X-0.539750X-2.436250X0.539750X-2.436250X0*%
%TD*%
%TA.AperFunction,ComponentPad*%
%ADD18C,1.400000*%
%TD*%
%TA.AperFunction,ComponentPad*%
%ADD19O,1.400000X1.400000*%
%TD*%
%TA.AperFunction,ViaPad*%
%ADD20C,0.800000*%
%TD*%
%TA.AperFunction,Conductor*%
%ADD21C,0.500000*%
%TD*%
%TA.AperFunction,Conductor*%
%ADD22C,0.250000*%
%TD*%
G04 APERTURE END LIST*
D10*
%TO.P,D1,1,K*%
%TO.N,Net-(D1-K)*%
X86355000Y-78740000D03*
D11*
%TO.P,D1,2,A*%
%TO.N,~{SEL}*%
X93975000Y-78740000D03*
%TD*%
D12*
%TO.P,C1,1*%
%TO.N,GND*%
X73660000Y-60960000D03*
%TO.P,C1,2*%
%TO.N,+5V*%
X76160000Y-60960000D03*
%TD*%
D13*
%TO.P,U1,1,A18*%
%TO.N,B3*%
X76200000Y-68580000D03*
D14*
%TO.P,U1,2,A16*%
%TO.N,B1*%
X73660000Y-66040000D03*
%TO.P,U1,3,A15*%
%TO.N,B0*%
X73660000Y-68580000D03*
%TO.P,U1,4,A12*%
%TO.N,A12*%
X71120000Y-66040000D03*
%TO.P,U1,5,A7*%
%TO.N,A7*%
X68580000Y-68580000D03*
%TO.P,U1,6,A6*%
%TO.N,A6*%
X71120000Y-68580000D03*
%TO.P,U1,7,A5*%
%TO.N,A5*%
X68580000Y-71120000D03*
%TO.P,U1,8,A4*%
%TO.N,A4*%
X71120000Y-71120000D03*
%TO.P,U1,9,A3*%
%TO.N,A3*%
X68580000Y-73660000D03*
%TO.P,U1,10,A2*%
%TO.N,A2*%
X71120000Y-73660000D03*
%TO.P,U1,11,A1*%
%TO.N,A1*%
X68580000Y-76200000D03*
%TO.P,U1,12,A0*%
%TO.N,A0*%
X71120000Y-76200000D03*
%TO.P,U1,13,D0*%
%TO.N,D0*%
X68580000Y-78740000D03*
%TO.P,U1,14,D1*%
%TO.N,D1*%
X71120000Y-81280000D03*
%TO.P,U1,15,D2*%
%TO.N,D2*%
X71120000Y-78740000D03*
%TO.P,U1,16,VSS*%
%TO.N,GND*%
X73660000Y-81280000D03*
%TO.P,U1,17,D3*%
%TO.N,D3*%
X73660000Y-78740000D03*
%TO.P,U1,18,D4*%
%TO.N,D4*%
X76200000Y-81280000D03*
%TO.P,U1,19,D5*%
%TO.N,D5*%
X76200000Y-78740000D03*
%TO.P,U1,20,D6*%
%TO.N,D6*%
X78740000Y-81280000D03*
%TO.P,U1,21,D7*%
%TO.N,D7*%
X81280000Y-78740000D03*
%TO.P,U1,22,~{CE}*%
%TO.N,Net-(D1-K)*%
X78740000Y-78740000D03*
%TO.P,U1,23,A10*%
%TO.N,A10*%
X81280000Y-76200000D03*
%TO.P,U1,24,~{OE}*%
%TO.N,~{R}{slash}W*%
X78740000Y-76200000D03*
%TO.P,U1,25,A11*%
%TO.N,A11*%
X81280000Y-73660000D03*
%TO.P,U1,26,A9*%
%TO.N,A9*%
X78740000Y-73660000D03*
%TO.P,U1,27,A8*%
%TO.N,A8*%
X81280000Y-71120000D03*
%TO.P,U1,28,A13*%
%TO.N,A13*%
X78740000Y-71120000D03*
%TO.P,U1,29,A14*%
%TO.N,A14*%
X81280000Y-68580000D03*
%TO.P,U1,30,A17*%
%TO.N,B2*%
X78740000Y-66040000D03*
%TO.P,U1,31,~{WE}*%
%TO.N,R{slash}~{W}*%
X78740000Y-68580000D03*
%TO.P,U1,32,VDD*%
%TO.N,+5V*%
X76200000Y-66040000D03*
%TD*%
D10*
%TO.P,D2,1,K*%
%TO.N,Net-(D1-K)*%
X86355000Y-76200000D03*
D11*
%TO.P,D2,2,A*%
%TO.N,~{CART}*%
X93975000Y-76200000D03*
%TD*%
D15*
%TO.P,J1,2,Pin_2*%
%TO.N,+5V*%
X96490000Y-91443500D03*
%TO.P,J1,4,Pin_4*%
%TO.N,D7*%
X93950000Y-91443500D03*
%TO.P,J1,6,Pin_6*%
%TO.N,D6*%
X91410000Y-91443500D03*
%TO.P,J1,8,Pin_8*%
%TO.N,D5*%
X88870000Y-91443500D03*
%TO.P,J1,10,Pin_10*%
%TO.N,D4*%
X86330000Y-91443500D03*
D16*
%TO.P,J1,12,Pin_12*%
%TO.N,D3*%
X83790000Y-91440000D03*
D15*
%TO.P,J1,14,Pin_14*%
%TO.N,D2*%
X81250000Y-91443500D03*
%TO.P,J1,16,Pin_16*%
%TO.N,D1*%
X78710000Y-91443500D03*
%TO.P,J1,18,Pin_18*%
%TO.N,D0*%
X76170000Y-91443500D03*
%TO.P,J1,20,Pin_20*%
%TO.N,B7*%
X73630000Y-91443500D03*
D17*
%TO.P,J1,22,Pin_22*%
%TO.N,B6*%
X71153500Y-91440000D03*
D15*
%TO.P,J1,24,Pin_24*%
%TO.N,B5*%
X68550000Y-91443500D03*
%TO.P,J1,26,Pin_26*%
%TO.N,B4*%
X66010000Y-91443500D03*
%TO.P,J1,28,Pin_28*%
%TO.N,B3*%
X63470000Y-91443500D03*
%TO.P,J1,30,Pin_30*%
%TO.N,B2*%
X60930000Y-91443500D03*
%TO.P,J1,32,Pin_32*%
%TO.N,B1*%
X58390000Y-91443500D03*
D16*
%TO.P,J1,34,Pin_34*%
%TO.N,B0*%
X55850000Y-91440000D03*
D15*
%TO.P,J1,36,Pin_36*%
%TO.N,3M*%
X53310000Y-91443500D03*
%TO.P,J1,38,Pin_38*%
%TO.N,~{R}{slash}W*%
X50770000Y-91443500D03*
%TO.P,J1,40,Pin_40*%
%TO.N,R{slash}~{W}*%
X48230000Y-91443500D03*
D16*
%TO.P,J1,42,Pin_42*%
%TO.N,LEFT*%
X45690000Y-91440000D03*
D15*
%TO.P,J1,44,Pin_44*%
%TO.N,GND*%
X43150000Y-91443500D03*
%TD*%
D18*
%TO.P,R1,1*%
%TO.N,GND*%
X93975000Y-73660000D03*
D19*
%TO.P,R1,2*%
%TO.N,Net-(D1-K)*%
X86355000Y-73660000D03*
%TD*%
D20*
%TO.N,GND*%
X75625000Y-84515000D03*
X85090000Y-83820000D03*
X70231000Y-87630000D03*
X62103000Y-85217000D03*
X95758000Y-67310000D03*
X64558126Y-82358895D03*
X78740000Y-87630000D03*
X62992000Y-78994000D03*
X87630000Y-80010000D03*
X66548000Y-72390000D03*
X59690000Y-83820000D03*
X56896000Y-74676000D03*
X95250000Y-86360000D03*
X54610000Y-86360000D03*
X60960000Y-78740000D03*
X90170000Y-86360000D03*
X81280000Y-81280000D03*
X83947000Y-73025000D03*
X57150000Y-85090000D03*
X70802500Y-84137500D03*
X59944000Y-86106000D03*
X72136000Y-82804000D03*
X86360000Y-71120000D03*
X65024000Y-86995000D03*
X92710000Y-68580000D03*
X76200000Y-76200000D03*
X68580000Y-86360000D03*
X62230000Y-82275500D03*
X92710000Y-86360000D03*
X87630000Y-86360000D03*
X58166000Y-75946000D03*
X59690000Y-77470000D03*
X77089000Y-86106000D03*
%TO.N,A12*%
X87825497Y-84894503D03*
X88900000Y-82550000D03*
%TO.N,~{R}{slash}W*%
X65151000Y-80899000D03*
X54064500Y-84114300D03*
%TO.N,R{slash}~{W}*%
X54064500Y-82967000D03*
%TD*%
D21*
%TO.N,GND*%
X91435000Y-71120000D02*
X93975000Y-73660000D01*
X95250000Y-67310000D02*
X87650000Y-59710000D01*
X82550000Y-81280000D02*
X81280000Y-81280000D01*
X76200000Y-77470000D02*
X77470000Y-77470000D01*
X60960000Y-78232000D02*
X66548000Y-72644000D01*
X80118800Y-76548027D02*
X80118800Y-74930000D01*
X54914500Y-73660000D02*
X54914500Y-61925500D01*
X74910000Y-59710000D02*
X73660000Y-60960000D01*
X76200000Y-77470000D02*
X76200000Y-76200000D01*
X54610000Y-86360000D02*
X55245000Y-85725000D01*
X57725000Y-81975000D02*
X60960000Y-78740000D01*
X93975000Y-73660000D02*
X95250000Y-74935000D01*
X73660000Y-81280000D02*
X73660000Y-80645000D01*
X64578895Y-82358895D02*
X68580000Y-86360000D01*
X54914500Y-61925500D02*
X55880000Y-60960000D01*
X72390000Y-78740000D02*
X72390000Y-77888553D01*
X55245000Y-73990500D02*
X54914500Y-73660000D01*
X57725000Y-84515000D02*
X57725000Y-81975000D01*
X64558126Y-82358895D02*
X64578895Y-82358895D01*
X72390000Y-78740000D02*
X72390000Y-78256015D01*
X92710000Y-86360000D02*
X90170000Y-86360000D01*
X43180000Y-91440000D02*
X43180000Y-73660000D01*
X57150000Y-85090000D02*
X57725000Y-84515000D01*
X86360000Y-71120000D02*
X91435000Y-71120000D01*
X92710000Y-72395000D02*
X93975000Y-73660000D01*
X90170000Y-86360000D02*
X87630000Y-86360000D01*
X66548000Y-72644000D02*
X66548000Y-72390000D01*
X60960000Y-78740000D02*
X60960000Y-78232000D01*
X72136000Y-82804000D02*
X73847000Y-84515000D01*
X72390000Y-77888553D02*
X72808553Y-77470000D01*
X77470000Y-77470000D02*
X79196827Y-77470000D01*
X77470000Y-77470000D02*
X77470000Y-79502000D01*
X87630000Y-86360000D02*
X85090000Y-83820000D01*
X75625000Y-84515000D02*
X78740000Y-87630000D01*
X82550000Y-74930000D02*
X86360000Y-71120000D01*
X59690000Y-77470000D02*
X58166000Y-75946000D01*
X73847000Y-84515000D02*
X75625000Y-84515000D01*
X58166000Y-75946000D02*
X56896000Y-74676000D01*
X95250000Y-74935000D02*
X95250000Y-86360000D01*
X55245000Y-85725000D02*
X55245000Y-73990500D01*
X43180000Y-73660000D02*
X55880000Y-60960000D01*
X77978000Y-80010000D02*
X80010000Y-80010000D01*
X80010000Y-80010000D02*
X81280000Y-81280000D01*
X73660000Y-80645000D02*
X72390000Y-79375000D01*
X77470000Y-79502000D02*
X77978000Y-80010000D01*
X55880000Y-60960000D02*
X73660000Y-60960000D01*
X85090000Y-83820000D02*
X82550000Y-81280000D01*
X72390000Y-79375000D02*
X72390000Y-78740000D01*
X55880000Y-73660000D02*
X54914500Y-73660000D01*
X92710000Y-68580000D02*
X92710000Y-72395000D01*
X56896000Y-74676000D02*
X55880000Y-73660000D01*
X87650000Y-59710000D02*
X74910000Y-59710000D01*
X72808553Y-77470000D02*
X76200000Y-77470000D01*
X80118800Y-74930000D02*
X82550000Y-74930000D01*
X95758000Y-67310000D02*
X95250000Y-67310000D01*
X79196827Y-77470000D02*
X80118800Y-76548027D01*
%TO.N,+5V*%
X76160000Y-60960000D02*
X76160000Y-63460000D01*
X96520000Y-69850000D02*
X90170000Y-63500000D01*
X76200000Y-63500000D02*
X76200000Y-66040000D01*
X90170000Y-63500000D02*
X76200000Y-63500000D01*
X96520000Y-91440000D02*
X96520000Y-69850000D01*
X76160000Y-63460000D02*
X76200000Y-63500000D01*
D22*
%TO.N,Net-(D1-K)*%
X86355000Y-77465000D02*
X86355000Y-76200000D01*
X78740000Y-78740000D02*
X80010000Y-77470000D01*
X86355000Y-73660000D02*
X86355000Y-76200000D01*
X85085000Y-77470000D02*
X86355000Y-76200000D01*
X80010000Y-77470000D02*
X85085000Y-77470000D01*
X86355000Y-77475000D02*
X86360000Y-77470000D01*
X86355000Y-78740000D02*
X86355000Y-77475000D01*
X86360000Y-77470000D02*
X86355000Y-77465000D01*
%TO.N,D7*%
X83820000Y-81280000D02*
X81280000Y-78740000D01*
X90170000Y-81280000D02*
X83820000Y-81280000D01*
X93980000Y-91440000D02*
X93980000Y-85090000D01*
X93980000Y-85090000D02*
X90170000Y-81280000D01*
%TO.N,D6*%
X80010000Y-82550000D02*
X82552792Y-82550000D01*
X91408500Y-88106500D02*
X91408500Y-91440000D01*
X91186000Y-87884000D02*
X91408500Y-88106500D01*
X78740000Y-81280000D02*
X80010000Y-82550000D01*
X82552792Y-82550000D02*
X87886792Y-87884000D01*
X87886792Y-87884000D02*
X91186000Y-87884000D01*
%TO.N,D5*%
X77470000Y-81661000D02*
X77470000Y-80518000D01*
X88900000Y-91440000D02*
X88900000Y-89533604D01*
X79629000Y-83820000D02*
X77470000Y-81661000D01*
X88900000Y-89533604D02*
X83186396Y-83820000D01*
X83186396Y-83820000D02*
X79629000Y-83820000D01*
X77470000Y-80518000D02*
X76200000Y-79248000D01*
X76200000Y-79248000D02*
X76200000Y-78740000D01*
%TO.N,A12*%
X88900000Y-82550000D02*
X88900000Y-83820000D01*
X88900000Y-83820000D02*
X87825497Y-84894503D01*
%TO.N,D4*%
X83820000Y-85090000D02*
X80010000Y-85090000D01*
X86360000Y-91440000D02*
X86360000Y-87630000D01*
X86360000Y-87630000D02*
X83820000Y-85090000D01*
X80010000Y-85090000D02*
X76200000Y-81280000D01*
%TO.N,D3*%
X73660000Y-78740000D02*
X74930000Y-80010000D01*
X83820000Y-87630000D02*
X83820000Y-91440000D01*
X79629000Y-86360000D02*
X82550000Y-86360000D01*
X74930000Y-81661000D02*
X79629000Y-86360000D01*
X74930000Y-80010000D02*
X74930000Y-81661000D01*
X82550000Y-86360000D02*
X83820000Y-87630000D01*
%TO.N,D2*%
X71120000Y-78994000D02*
X71120000Y-78740000D01*
X73279000Y-82550000D02*
X72390000Y-81661000D01*
X72390000Y-81661000D02*
X72390000Y-80264000D01*
X81280000Y-91440000D02*
X81280000Y-88900000D01*
X74930000Y-82550000D02*
X73279000Y-82550000D01*
X81280000Y-88900000D02*
X74930000Y-82550000D01*
X72390000Y-80264000D02*
X71120000Y-78994000D01*
%TO.N,D1*%
X71120000Y-83058000D02*
X73152000Y-85090000D01*
X78740000Y-89154000D02*
X78740000Y-91440000D01*
X74676000Y-85090000D02*
X78740000Y-89154000D01*
X71120000Y-81280000D02*
X71120000Y-83058000D01*
X73152000Y-85090000D02*
X74676000Y-85090000D01*
%TO.N,D0*%
X76200000Y-91440000D02*
X76200000Y-87630000D01*
X74930000Y-86360000D02*
X71755000Y-86360000D01*
X71755000Y-86360000D02*
X68580000Y-83185000D01*
X68580000Y-83185000D02*
X68580000Y-78740000D01*
X76200000Y-87630000D02*
X74930000Y-86360000D01*
%TO.N,B3*%
X67531400Y-77248600D02*
X63500000Y-81280000D01*
X63500000Y-81280000D02*
X63500000Y-91440000D01*
X76200000Y-72628985D02*
X71580385Y-77248600D01*
X76200000Y-68580000D02*
X76200000Y-72628985D01*
X71580385Y-77248600D02*
X67531400Y-77248600D01*
%TO.N,B2*%
X75163800Y-67734180D02*
X75587980Y-67310000D01*
X67818000Y-74930000D02*
X72390000Y-74930000D01*
X72390000Y-74930000D02*
X75163800Y-72156200D01*
X75587980Y-67310000D02*
X77470000Y-67310000D01*
X60960000Y-82378773D02*
X67056000Y-76282773D01*
X60960000Y-91440000D02*
X60960000Y-82378773D01*
X75163800Y-72156200D02*
X75163800Y-67734180D01*
X67056000Y-75692000D02*
X67818000Y-74930000D01*
X77470000Y-67310000D02*
X78740000Y-66040000D01*
X67056000Y-76282773D02*
X67056000Y-75692000D01*
%TO.N,B1*%
X62039500Y-78295500D02*
X67945000Y-72390000D01*
X67945000Y-72390000D02*
X71940000Y-72390000D01*
X74696200Y-67076200D02*
X73660000Y-66040000D01*
X62039500Y-78827226D02*
X62039500Y-78295500D01*
X74696200Y-69633800D02*
X74696200Y-67076200D01*
X58420000Y-91440000D02*
X58420000Y-82446726D01*
X58420000Y-82446726D02*
X62039500Y-78827226D01*
X71940000Y-72390000D02*
X74696200Y-69633800D01*
%TO.N,B0*%
X55880000Y-91440000D02*
X55880000Y-82446727D01*
X60515000Y-77811727D02*
X60515000Y-77026000D01*
X55880000Y-82446727D02*
X60515000Y-77811727D01*
X60515000Y-77026000D02*
X67691000Y-69850000D01*
X72390000Y-69850000D02*
X73660000Y-68580000D01*
X67691000Y-69850000D02*
X72390000Y-69850000D01*
%TO.N,~{R}{slash}W*%
X65151000Y-80899000D02*
X65151000Y-80391000D01*
X67843400Y-77698600D02*
X71766781Y-77698600D01*
X54064500Y-84114300D02*
X53246096Y-84114300D01*
X71766781Y-77698600D02*
X74535381Y-74930000D01*
X65151000Y-80391000D02*
X67843400Y-77698600D01*
X77470000Y-74930000D02*
X78740000Y-76200000D01*
X50800000Y-86560396D02*
X50800000Y-91440000D01*
X53246096Y-84114300D02*
X50800000Y-86560396D01*
X74535381Y-74930000D02*
X77470000Y-74930000D01*
%TO.N,R{slash}~{W}*%
X48260000Y-88464000D02*
X48260000Y-91440000D01*
X53757000Y-82967000D02*
X48260000Y-88464000D01*
X54064500Y-82967000D02*
X53757000Y-82967000D01*
%TD*%
%TA.AperFunction,Conductor*%
%TO.N,GND*%
G36*
X96208415Y-56942501D02*
G01*
X96218405Y-56942501D01*
X96263785Y-56942501D01*
X96268207Y-56942658D01*
X96503577Y-56959492D01*
X96521078Y-56962009D01*
X96745156Y-57010754D01*
X96762121Y-57015735D01*
X96976991Y-57095877D01*
X96993064Y-57103218D01*
X97194332Y-57213118D01*
X97194336Y-57213120D01*
X97209219Y-57222685D01*
X97392791Y-57360105D01*
X97406162Y-57371691D01*
X97568308Y-57533837D01*
X97579894Y-57547208D01*
X97717314Y-57730780D01*
X97726879Y-57745663D01*
X97836776Y-57946924D01*
X97844124Y-57963014D01*
X97850015Y-57978807D01*
X97924262Y-58177873D01*
X97929246Y-58194848D01*
X97977989Y-58418916D01*
X97980507Y-58436428D01*
X97997341Y-58671789D01*
X97997499Y-58676213D01*
X97997499Y-88260626D01*
X97977814Y-88327665D01*
X97925010Y-88373420D01*
X97855852Y-88383364D01*
X97792296Y-88354339D01*
X97777646Y-88339291D01*
X97714568Y-88262431D01*
X97561005Y-88136405D01*
X97560998Y-88136401D01*
X97385806Y-88042759D01*
X97358503Y-88034477D01*
X97300065Y-87996179D01*
X97271609Y-87932366D01*
X97270500Y-87915817D01*
X97270500Y-69913705D01*
X97271809Y-69895735D01*
X97275289Y-69871974D01*
X97270736Y-69819939D01*
X97270500Y-69814532D01*
X97270500Y-69806296D01*
X97270500Y-69806291D01*
X97266691Y-69773705D01*
X97259998Y-69697203D01*
X97259995Y-69697194D01*
X97258538Y-69690135D01*
X97258598Y-69690122D01*
X97256966Y-69682764D01*
X97256908Y-69682778D01*
X97255241Y-69675747D01*
X97255241Y-69675745D01*
X97228969Y-69603563D01*
X97205765Y-69533535D01*
X97204815Y-69530668D01*
X97201762Y-69524121D01*
X97201815Y-69524095D01*
X97198531Y-69517311D01*
X97198479Y-69517338D01*
X97195236Y-69510882D01*
X97153034Y-69446716D01*
X97112714Y-69381347D01*
X97108234Y-69375681D01*
X97108280Y-69375643D01*
X97103519Y-69369799D01*
X97103474Y-69369838D01*
X97098834Y-69364308D01*
X97042982Y-69311613D01*
X90745729Y-63014361D01*
X90733949Y-63000730D01*
X90726482Y-62990701D01*
X90719612Y-62981472D01*
X90719610Y-62981470D01*
X90679587Y-62947886D01*
X90675612Y-62944244D01*
X90672690Y-62941322D01*
X90669780Y-62938411D01*
X90644040Y-62918059D01*
X90585209Y-62868694D01*
X90579180Y-62864729D01*
X90579212Y-62864680D01*
X90572853Y-62860628D01*
X90572822Y-62860679D01*
X90566680Y-62856891D01*
X90566678Y-62856890D01*
X90566677Y-62856889D01*
X90527474Y-62838608D01*
X90497058Y-62824424D01*
X90462894Y-62807267D01*
X90428433Y-62789960D01*
X90428431Y-62789959D01*
X90428430Y-62789959D01*
X90421645Y-62787489D01*
X90421665Y-62787433D01*
X90414549Y-62784959D01*
X90414531Y-62785015D01*
X90407671Y-62782742D01*
X90379841Y-62776996D01*
X90332434Y-62767207D01*
X90283472Y-62755603D01*
X90257719Y-62749499D01*
X90250547Y-62748661D01*
X90250553Y-62748601D01*
X90243055Y-62747835D01*
X90243050Y-62747895D01*
X90235860Y-62747265D01*
X90159083Y-62749500D01*
X77034500Y-62749500D01*
X76967461Y-62729815D01*
X76921706Y-62677011D01*
X76910500Y-62625500D01*
X76910500Y-62086662D01*
X76930185Y-62019623D01*
X76963379Y-61985086D01*
X76999140Y-61960046D01*
X77160045Y-61799141D01*
X77160047Y-61799139D01*
X77290568Y-61612734D01*
X77386739Y-61406496D01*
X77445635Y-61186692D01*
X77465468Y-60960000D01*
X77445635Y-60733308D01*
X77386739Y-60513504D01*
X77290568Y-60307266D01*
X77160047Y-60120861D01*
X77160045Y-60120858D01*
X76999141Y-59959954D01*
X76812734Y-59829432D01*
X76812732Y-59829431D01*
X76606497Y-59733261D01*
X76606488Y-59733258D01*
X76386697Y-59674366D01*
X76386693Y-59674365D01*
X76386692Y-59674365D01*
X76386691Y-59674364D01*
X76386686Y-59674364D01*
X76160002Y-59654532D01*
X76159998Y-59654532D01*
X75933313Y-59674364D01*
X75933302Y-59674366D01*
X75713511Y-59733258D01*
X75713502Y-59733261D01*
X75507267Y-59829431D01*
X75507265Y-59829432D01*
X75320858Y-59959954D01*
X75159954Y-60120858D01*
X75029432Y-60307265D01*
X75029430Y-60307269D01*
X75022105Y-60322978D01*
X74975931Y-60375417D01*
X74908737Y-60394567D01*
X74841857Y-60374350D01*
X74797341Y-60322974D01*
X74790132Y-60307515D01*
X74790131Y-60307512D01*
X74739026Y-60234526D01*
X74739025Y-60234526D01*
X74057953Y-60915598D01*
X74045165Y-60834852D01*
X73987641Y-60721955D01*
X73898045Y-60632359D01*
X73785148Y-60574835D01*
X73704400Y-60562046D01*
X74385472Y-59880974D01*
X74385471Y-59880973D01*
X74312483Y-59829866D01*
X74312481Y-59829865D01*
X74106326Y-59733734D01*
X74106317Y-59733730D01*
X73886610Y-59674860D01*
X73886599Y-59674858D01*
X73660002Y-59655034D01*
X73659998Y-59655034D01*
X73433400Y-59674858D01*
X73433389Y-59674860D01*
X73213682Y-59733730D01*
X73213673Y-59733734D01*
X73007513Y-59829868D01*
X72934527Y-59880972D01*
X72934526Y-59880973D01*
X73615600Y-60562046D01*
X73534852Y-60574835D01*
X73421955Y-60632359D01*
X73332359Y-60721955D01*
X73274835Y-60834852D01*
X73262046Y-60915599D01*
X72580973Y-60234526D01*
X72580972Y-60234527D01*
X72529868Y-60307513D01*
X72433734Y-60513673D01*
X72433730Y-60513682D01*
X72374860Y-60733389D01*
X72374858Y-60733400D01*
X72355034Y-60959997D01*
X72355034Y-60960002D01*
X72374858Y-61186599D01*
X72374860Y-61186610D01*
X72433730Y-61406317D01*
X72433734Y-61406326D01*
X72529865Y-61612481D01*
X72529866Y-61612483D01*
X72580973Y-61685471D01*
X72580974Y-61685472D01*
X73262046Y-61004399D01*
X73274835Y-61085148D01*
X73332359Y-61198045D01*
X73421955Y-61287641D01*
X73534852Y-61345165D01*
X73615599Y-61357953D01*
X72934526Y-62039025D01*
X72934526Y-62039026D01*
X73007512Y-62090131D01*
X73007516Y-62090133D01*
X73213673Y-62186265D01*
X73213682Y-62186269D01*
X73433389Y-62245139D01*
X73433400Y-62245141D01*
X73659998Y-62264966D01*
X73660002Y-62264966D01*
X73886599Y-62245141D01*
X73886610Y-62245139D01*
X74106317Y-62186269D01*
X74106331Y-62186264D01*
X74312478Y-62090136D01*
X74385472Y-62039025D01*
X73704401Y-61357953D01*
X73785148Y-61345165D01*
X73898045Y-61287641D01*
X73987641Y-61198045D01*
X74045165Y-61085148D01*
X74057953Y-61004400D01*
X74739025Y-61685472D01*
X74790134Y-61612481D01*
X74797340Y-61597028D01*
X74843511Y-61544587D01*
X74910704Y-61525433D01*
X74977585Y-61545646D01*
X75022105Y-61597022D01*
X75029430Y-61612730D01*
X75029432Y-61612734D01*
X75159954Y-61799141D01*
X75320859Y-61960046D01*
X75356621Y-61985086D01*
X75400247Y-62039662D01*
X75409500Y-62086662D01*
X75409500Y-63396294D01*
X75408191Y-63414263D01*
X75404710Y-63438025D01*
X75409264Y-63490064D01*
X75409500Y-63495470D01*
X75409500Y-63503709D01*
X75413306Y-63536274D01*
X75420000Y-63612791D01*
X75421461Y-63619867D01*
X75421403Y-63619878D01*
X75423035Y-63627239D01*
X75423092Y-63627226D01*
X75424757Y-63634249D01*
X75442022Y-63681685D01*
X75449500Y-63724095D01*
X75449500Y-65025536D01*
X75429815Y-65092575D01*
X75413181Y-65113217D01*
X75268240Y-65258157D01*
X75268235Y-65258163D01*
X75146631Y-65431831D01*
X75146629Y-65431835D01*
X75057027Y-65623989D01*
X75057024Y-65623996D01*
X75049775Y-65651051D01*
X75013409Y-65710711D01*
X74950562Y-65741240D01*
X74881187Y-65732945D01*
X74827309Y-65688459D01*
X74810225Y-65651051D01*
X74802975Y-65623996D01*
X74802974Y-65623991D01*
X74713371Y-65431836D01*
X74713369Y-65431833D01*
X74713368Y-65431831D01*
X74591764Y-65258163D01*
X74591759Y-65258157D01*
X74441842Y-65108240D01*
X74441836Y-65108235D01*
X74268168Y-64986631D01*
X74268164Y-64986629D01*
X74076009Y-64897026D01*
X74076005Y-64897025D01*
X74076001Y-64897023D01*
X73871218Y-64842152D01*
X73871208Y-64842150D01*
X73660001Y-64823672D01*
X73659999Y-64823672D01*
X73448791Y-64842150D01*
X73448781Y-64842152D01*
X73243998Y-64897023D01*
X73243989Y-64897027D01*
X73051835Y-64986629D01*
X73051831Y-64986631D01*
X72878163Y-65108235D01*
X72878157Y-65108240D01*
X72728240Y-65258157D01*
X72728235Y-65258163D01*
X72606631Y-65431831D01*
X72606629Y-65431835D01*
X72517027Y-65623989D01*
X72517024Y-65623996D01*
X72509775Y-65651051D01*
X72473409Y-65710711D01*
X72410562Y-65741240D01*
X72341187Y-65732945D01*
X72287309Y-65688459D01*
X72270225Y-65651051D01*
X72262975Y-65623996D01*
X72262974Y-65623991D01*
X72173371Y-65431836D01*
X72173369Y-65431833D01*
X72173368Y-65431831D01*
X72051764Y-65258163D01*
X72051759Y-65258157D01*
X71901842Y-65108240D01*
X71901836Y-65108235D01*
X71728168Y-64986631D01*
X71728164Y-64986629D01*
X71536009Y-64897026D01*
X71536005Y-64897025D01*
X71536001Y-64897023D01*
X71331218Y-64842152D01*
X71331208Y-64842150D01*
X71120001Y-64823672D01*
X71119999Y-64823672D01*
X70908791Y-64842150D01*
X70908781Y-64842152D01*
X70703998Y-64897023D01*
X70703989Y-64897027D01*
X70511835Y-64986629D01*
X70511831Y-64986631D01*
X70338163Y-65108235D01*
X70338157Y-65108240D01*
X70188240Y-65258157D01*
X70188235Y-65258163D01*
X70066631Y-65431831D01*
X70066629Y-65431835D01*
X69977027Y-65623989D01*
X69977023Y-65623998D01*
X69922152Y-65828781D01*
X69922150Y-65828791D01*
X69903672Y-66039999D01*
X69903672Y-66040000D01*
X69922150Y-66251208D01*
X69922152Y-66251218D01*
X69977023Y-66456001D01*
X69977025Y-66456005D01*
X69977026Y-66456009D01*
X70050254Y-66613047D01*
X70066629Y-66648164D01*
X70066631Y-66648168D01*
X70188235Y-66821836D01*
X70188240Y-66821842D01*
X70338157Y-66971759D01*
X70338163Y-66971764D01*
X70511831Y-67093368D01*
X70511833Y-67093369D01*
X70511836Y-67093371D01*
X70703991Y-67182974D01*
X70718717Y-67186919D01*
X70731051Y-67190225D01*
X70790711Y-67226591D01*
X70821240Y-67289438D01*
X70812945Y-67358813D01*
X70768459Y-67412691D01*
X70731051Y-67429775D01*
X70703996Y-67437024D01*
X70703989Y-67437027D01*
X70511835Y-67526629D01*
X70511831Y-67526631D01*
X70338163Y-67648235D01*
X70338157Y-67648240D01*
X70188240Y-67798157D01*
X70188235Y-67798163D01*
X70066631Y-67971831D01*
X70066629Y-67971835D01*
X69977027Y-68163989D01*
X69977024Y-68163996D01*
X69969775Y-68191051D01*
X69933409Y-68250711D01*
X69870562Y-68281240D01*
X69801187Y-68272945D01*
X69747309Y-68228459D01*
X69730225Y-68191051D01*
X69722975Y-68163996D01*
X69722974Y-68163991D01*
X69633371Y-67971836D01*
X69633369Y-67971833D01*
X69633368Y-67971831D01*
X69511764Y-67798163D01*
X69511759Y-67798157D01*
X69361842Y-67648240D01*
X69361836Y-67648235D01*
X69188168Y-67526631D01*
X69188164Y-67526629D01*
X68996009Y-67437026D01*
X68996005Y-67437025D01*
X68996001Y-67437023D01*
X68791218Y-67382152D01*
X68791208Y-67382150D01*
X68580001Y-67363672D01*
X68579999Y-67363672D01*
X68368791Y-67382150D01*
X68368781Y-67382152D01*
X68163998Y-67437023D01*
X68163989Y-67437027D01*
X67971835Y-67526629D01*
X67971831Y-67526631D01*
X67798163Y-67648235D01*
X67798157Y-67648240D01*
X67648240Y-67798157D01*
X67648235Y-67798163D01*
X67526631Y-67971831D01*
X67526629Y-67971835D01*
X67437027Y-68163989D01*
X67437023Y-68163998D01*
X67382152Y-68368781D01*
X67382150Y-68368791D01*
X67363672Y-68579999D01*
X67363672Y-68580000D01*
X67382150Y-68791208D01*
X67382152Y-68791218D01*
X67437023Y-68996001D01*
X67437028Y-68996015D01*
X67490934Y-69111617D01*
X67501426Y-69180694D01*
X67472906Y-69244478D01*
X67441670Y-69270755D01*
X67423368Y-69281578D01*
X67405905Y-69290133D01*
X67387274Y-69297510D01*
X67387262Y-69297517D01*
X67349570Y-69324902D01*
X67344687Y-69328109D01*
X67304580Y-69351829D01*
X67290414Y-69365995D01*
X67275624Y-69378627D01*
X67259414Y-69390404D01*
X67259411Y-69390407D01*
X67229710Y-69426309D01*
X67225777Y-69430631D01*
X60131208Y-76525199D01*
X60118951Y-76535020D01*
X60119134Y-76535241D01*
X60113123Y-76540213D01*
X60065772Y-76590636D01*
X60044889Y-76611519D01*
X60044877Y-76611532D01*
X60040621Y-76617017D01*
X60036837Y-76621447D01*
X60004937Y-76655418D01*
X60004936Y-76655420D01*
X59995284Y-76672976D01*
X59984610Y-76689226D01*
X59972329Y-76705061D01*
X59972324Y-76705068D01*
X59953815Y-76747838D01*
X59951245Y-76753084D01*
X59928803Y-76793906D01*
X59923822Y-76813307D01*
X59917521Y-76831710D01*
X59909562Y-76850102D01*
X59909561Y-76850105D01*
X59902271Y-76896127D01*
X59901087Y-76901846D01*
X59889501Y-76946972D01*
X59889500Y-76946982D01*
X59889500Y-76967016D01*
X59887973Y-76986415D01*
X59884840Y-77006194D01*
X59884840Y-77006195D01*
X59889225Y-77052583D01*
X59889500Y-77058421D01*
X59889500Y-77501273D01*
X59869815Y-77568312D01*
X59853181Y-77588954D01*
X55496208Y-81945926D01*
X55483951Y-81955747D01*
X55484134Y-81955968D01*
X55478123Y-81960940D01*
X55430772Y-82011363D01*
X55409889Y-82032246D01*
X55409877Y-82032259D01*
X55405621Y-82037744D01*
X55401837Y-82042174D01*
X55369937Y-82076145D01*
X55369936Y-82076147D01*
X55360284Y-82093703D01*
X55349610Y-82109953D01*
X55337329Y-82125788D01*
X55337324Y-82125795D01*
X55318815Y-82168565D01*
X55316245Y-82173811D01*
X55293803Y-82214633D01*
X55288822Y-82234034D01*
X55282521Y-82252437D01*
X55274562Y-82270829D01*
X55274561Y-82270832D01*
X55267271Y-82316854D01*
X55266087Y-82322573D01*
X55254501Y-82367699D01*
X55254500Y-82367709D01*
X55254500Y-82387743D01*
X55252973Y-82407142D01*
X55249840Y-82426921D01*
X55249840Y-82426922D01*
X55254225Y-82473310D01*
X55254500Y-82479148D01*
X55254500Y-87854850D01*
X55234815Y-87921889D01*
X55182011Y-87967644D01*
X55150142Y-87976237D01*
X55150275Y-87976903D01*
X55144302Y-87978091D01*
X54954191Y-88035760D01*
X54779001Y-88129401D01*
X54778994Y-88129405D01*
X54654400Y-88231658D01*
X54590090Y-88258971D01*
X54521222Y-88247180D01*
X54497070Y-88231658D01*
X54381005Y-88136405D01*
X54380998Y-88136401D01*
X54205808Y-88042760D01*
X54052250Y-87996179D01*
X54015701Y-87985092D01*
X54015699Y-87985091D01*
X54015701Y-87985091D01*
X53905499Y-87974238D01*
X53867547Y-87970500D01*
X53867543Y-87970500D01*
X52752457Y-87970500D01*
X52604300Y-87985091D01*
X52414191Y-88042760D01*
X52239001Y-88136401D01*
X52238995Y-88136405D01*
X52118664Y-88235158D01*
X52054354Y-88262470D01*
X51985487Y-88250679D01*
X51961336Y-88235158D01*
X51841004Y-88136405D01*
X51840998Y-88136401D01*
X51665805Y-88042759D01*
X51513504Y-87996558D01*
X51455066Y-87958261D01*
X51426609Y-87894448D01*
X51425500Y-87877898D01*
X51425500Y-86870848D01*
X51445185Y-86803809D01*
X51461819Y-86783167D01*
X52409401Y-85835585D01*
X53383262Y-84861723D01*
X53444583Y-84828240D01*
X53514275Y-84833224D01*
X53543826Y-84849087D01*
X53611770Y-84898451D01*
X53784692Y-84975442D01*
X53784697Y-84975444D01*
X53969854Y-85014800D01*
X53969855Y-85014800D01*
X54159144Y-85014800D01*
X54159146Y-85014800D01*
X54344303Y-84975444D01*
X54517230Y-84898451D01*
X54670371Y-84787188D01*
X54797033Y-84646516D01*
X54891679Y-84482584D01*
X54950174Y-84302556D01*
X54969960Y-84114300D01*
X54950174Y-83926044D01*
X54891679Y-83746016D01*
X54808905Y-83602647D01*
X54792433Y-83534750D01*
X54808905Y-83478652D01*
X54891679Y-83335284D01*
X54950174Y-83155256D01*
X54969960Y-82967000D01*
X54950174Y-82778744D01*
X54891679Y-82598716D01*
X54797033Y-82434784D01*
X54670371Y-82294112D01*
X54638329Y-82270832D01*
X54517234Y-82182851D01*
X54517229Y-82182848D01*
X54344307Y-82105857D01*
X54344302Y-82105855D01*
X54184222Y-82071830D01*
X54159146Y-82066500D01*
X53969854Y-82066500D01*
X53944778Y-82071830D01*
X53784697Y-82105855D01*
X53784692Y-82105857D01*
X53611770Y-82182848D01*
X53611765Y-82182851D01*
X53458629Y-82294111D01*
X53331966Y-82434785D01*
X53240878Y-82592555D01*
X53221172Y-82618236D01*
X47905226Y-87934181D01*
X47843903Y-87967666D01*
X47817546Y-87970500D01*
X47672457Y-87970500D01*
X47524300Y-87985091D01*
X47334191Y-88042760D01*
X47159001Y-88136401D01*
X47158994Y-88136405D01*
X47042930Y-88231658D01*
X46978620Y-88258971D01*
X46909753Y-88247180D01*
X46885600Y-88231658D01*
X46761005Y-88129405D01*
X46760998Y-88129401D01*
X46585808Y-88035760D01*
X46420402Y-87985585D01*
X46395701Y-87978092D01*
X46395699Y-87978091D01*
X46395701Y-87978091D01*
X46285499Y-87967238D01*
X46247547Y-87963500D01*
X46247543Y-87963500D01*
X45132457Y-87963500D01*
X44984300Y-87978091D01*
X44794191Y-88035760D01*
X44619001Y-88129401D01*
X44618994Y-88129405D01*
X44494005Y-88231982D01*
X44429695Y-88259295D01*
X44360827Y-88247504D01*
X44336675Y-88231982D01*
X44220725Y-88136824D01*
X44220718Y-88136820D01*
X44045612Y-88043224D01*
X43855605Y-87985585D01*
X43855603Y-87985584D01*
X43707515Y-87971000D01*
X42592485Y-87971000D01*
X42444396Y-87985584D01*
X42444394Y-87985585D01*
X42254387Y-88043224D01*
X42079281Y-88136820D01*
X42079274Y-88136825D01*
X41925787Y-88262787D01*
X41922350Y-88266976D01*
X41864602Y-88306308D01*
X41794757Y-88308175D01*
X41734991Y-88271985D01*
X41704278Y-88209228D01*
X41702500Y-88188307D01*
X41702500Y-58676213D01*
X41702658Y-58671789D01*
X41704491Y-58646156D01*
X41719491Y-58436419D01*
X41722009Y-58418916D01*
X41770754Y-58194839D01*
X41775736Y-58177873D01*
X41855876Y-57963007D01*
X41863217Y-57946934D01*
X41973121Y-57745660D01*
X41982683Y-57730783D01*
X42120107Y-57547206D01*
X42131686Y-57533842D01*
X42293842Y-57371686D01*
X42307206Y-57360107D01*
X42490783Y-57222683D01*
X42505663Y-57213120D01*
X42706934Y-57103217D01*
X42723007Y-57095876D01*
X42937881Y-57015733D01*
X42954839Y-57010754D01*
X43178922Y-56962007D01*
X43196419Y-56959491D01*
X43431791Y-56942657D01*
X43436214Y-56942500D01*
X43481595Y-56942500D01*
X96208403Y-56942500D01*
X96208415Y-56942501D01*
G37*
%TD.AperFunction*%
%TA.AperFunction,Conductor*%
G36*
X67389887Y-79139215D02*
G01*
X67445820Y-79181087D01*
X67458935Y-79202993D01*
X67526627Y-79348160D01*
X67526631Y-79348168D01*
X67602384Y-79456354D01*
X67648239Y-79521841D01*
X67723880Y-79597482D01*
X67798160Y-79671762D01*
X67840771Y-79701598D01*
X67886998Y-79733967D01*
X67901623Y-79744207D01*
X67945248Y-79798784D01*
X67954500Y-79845782D01*
X67954500Y-83102255D01*
X67952775Y-83117872D01*
X67953061Y-83117899D01*
X67952326Y-83125665D01*
X67954500Y-83194814D01*
X67954500Y-83224343D01*
X67954501Y-83224360D01*
X67955368Y-83231231D01*
X67955826Y-83237050D01*
X67957290Y-83283624D01*
X67957291Y-83283627D01*
X67962880Y-83302867D01*
X67966824Y-83321911D01*
X67967295Y-83325634D01*
X67969336Y-83341791D01*
X67986490Y-83385119D01*
X67988382Y-83390647D01*
X67991621Y-83401796D01*
X68001382Y-83435390D01*
X68006724Y-83444424D01*
X68011580Y-83452634D01*
X68020138Y-83470103D01*
X68027514Y-83488732D01*
X68054898Y-83526423D01*
X68058106Y-83531307D01*
X68081827Y-83571416D01*
X68081833Y-83571424D01*
X68095990Y-83585580D01*
X68108628Y-83600376D01*
X68120405Y-83616586D01*
X68120406Y-83616587D01*
X68156309Y-83646288D01*
X68160620Y-83650210D01*
X70486621Y-85976212D01*
X71254197Y-86743788D01*
X71264022Y-86756051D01*
X71264243Y-86755869D01*
X71269214Y-86761878D01*
X71291885Y-86783167D01*
X71319635Y-86809226D01*
X71340529Y-86830120D01*
X71346011Y-86834373D01*
X71350443Y-86838157D01*
X71384418Y-86870062D01*
X71401976Y-86879714D01*
X71418233Y-86890393D01*
X71434064Y-86902673D01*
X71453737Y-86911186D01*
X71476833Y-86921182D01*
X71482077Y-86923750D01*
X71522908Y-86946197D01*
X71535523Y-86949435D01*
X71542305Y-86951177D01*
X71560719Y-86957481D01*
X71579104Y-86965438D01*
X71625157Y-86972732D01*
X71630826Y-86973906D01*
X71675981Y-86985500D01*
X71696016Y-86985500D01*
X71715413Y-86987026D01*
X71735196Y-86990160D01*
X71781584Y-86985775D01*
X71787422Y-86985500D01*
X74619548Y-86985500D01*
X74686587Y-87005185D01*
X74707229Y-87021819D01*
X75476222Y-87790812D01*
X75509707Y-87852135D01*
X75504723Y-87921827D01*
X75462851Y-87977760D01*
X75424538Y-87997153D01*
X75361499Y-88016276D01*
X75274189Y-88042761D01*
X75099001Y-88136401D01*
X75098995Y-88136405D01*
X74978664Y-88235158D01*
X74914354Y-88262470D01*
X74845487Y-88250679D01*
X74821336Y-88235158D01*
X74701004Y-88136405D01*
X74700998Y-88136401D01*
X74525808Y-88042760D01*
X74372250Y-87996179D01*
X74335701Y-87985092D01*
X74335699Y-87985091D01*
X74335701Y-87985091D01*
X74225499Y-87974238D01*
X74187547Y-87970500D01*
X74187543Y-87970500D01*
X73072457Y-87970500D01*
X72924300Y-87985091D01*
X72734191Y-88042760D01*
X72559002Y-88136401D01*
X72558996Y-88136405D01*
X72496233Y-88187913D01*
X72431923Y-88215225D01*
X72363055Y-88203433D01*
X72338905Y-88187913D01*
X72273978Y-88134629D01*
X72273974Y-88134627D01*
X72273972Y-88134625D01*
X72093266Y-88038035D01*
X71956533Y-87996558D01*
X71897175Y-87978552D01*
X71897173Y-87978551D01*
X71897175Y-87978551D01*
X71782303Y-87967238D01*
X71744351Y-87963500D01*
X71744347Y-87963500D01*
X70562653Y-87963500D01*
X70409826Y-87978551D01*
X70213733Y-88038035D01*
X70033027Y-88134625D01*
X70033021Y-88134629D01*
X69904594Y-88240026D01*
X69840284Y-88267338D01*
X69771417Y-88255547D01*
X69747265Y-88240025D01*
X69621005Y-88136405D01*
X69620998Y-88136401D01*
X69445808Y-88042760D01*
X69292250Y-87996179D01*
X69255701Y-87985092D01*
X69255699Y-87985091D01*
X69255701Y-87985091D01*
X69145499Y-87974238D01*
X69107547Y-87970500D01*
X69107543Y-87970500D01*
X67992457Y-87970500D01*
X67844300Y-87985091D01*
X67654191Y-88042760D01*
X67479001Y-88136401D01*
X67478995Y-88136405D01*
X67358664Y-88235158D01*
X67294354Y-88262470D01*
X67225487Y-88250679D01*
X67201336Y-88235158D01*
X67081004Y-88136405D01*
X67080998Y-88136401D01*
X66905808Y-88042760D01*
X66752250Y-87996179D01*
X66715701Y-87985092D01*
X66715699Y-87985091D01*
X66715701Y-87985091D01*
X66605499Y-87974238D01*
X66567547Y-87970500D01*
X66567543Y-87970500D01*
X65452457Y-87970500D01*
X65304300Y-87985091D01*
X65114191Y-88042760D01*
X64939001Y-88136401D01*
X64938995Y-88136405D01*
X64818664Y-88235158D01*
X64754354Y-88262470D01*
X64685487Y-88250679D01*
X64661336Y-88235158D01*
X64541004Y-88136405D01*
X64540998Y-88136401D01*
X64365805Y-88042759D01*
X64213504Y-87996558D01*
X64155066Y-87958261D01*
X64126609Y-87894448D01*
X64125500Y-87877898D01*
X64125500Y-81590451D01*
X64145185Y-81523412D01*
X64161810Y-81502779D01*
X64238377Y-81426211D01*
X64299695Y-81392730D01*
X64369387Y-81397714D01*
X64418204Y-81430924D01*
X64545129Y-81571888D01*
X64698265Y-81683148D01*
X64698270Y-81683151D01*
X64871192Y-81760142D01*
X64871197Y-81760144D01*
X65056354Y-81799500D01*
X65056355Y-81799500D01*
X65245644Y-81799500D01*
X65245646Y-81799500D01*
X65430803Y-81760144D01*
X65603730Y-81683151D01*
X65756871Y-81571888D01*
X65883533Y-81431216D01*
X65978179Y-81267284D01*
X66036674Y-81087256D01*
X66056460Y-80899000D01*
X66036674Y-80710744D01*
X65981474Y-80540859D01*
X65979480Y-80471022D01*
X66011723Y-80414865D01*
X67258874Y-79167714D01*
X67320195Y-79134231D01*
X67389887Y-79139215D01*
G37*
%TD.AperFunction*%
%TA.AperFunction,Conductor*%
G36*
X67354160Y-73967943D02*
G01*
X67410093Y-74009815D01*
X67430601Y-74052031D01*
X67437024Y-74076004D01*
X67437028Y-74076015D01*
X67518386Y-74250488D01*
X67528878Y-74319565D01*
X67500358Y-74383349D01*
X67469129Y-74409622D01*
X67431578Y-74431830D01*
X67417414Y-74445995D01*
X67402624Y-74458627D01*
X67386414Y-74470404D01*
X67386411Y-74470407D01*
X67356710Y-74506309D01*
X67352777Y-74510631D01*
X66672208Y-75191199D01*
X66659951Y-75201020D01*
X66660134Y-75201241D01*
X66654123Y-75206213D01*
X66606772Y-75256636D01*
X66585889Y-75277519D01*
X66585877Y-75277532D01*
X66581621Y-75283017D01*
X66577837Y-75287447D01*
X66545937Y-75321418D01*
X66545936Y-75321420D01*
X66536284Y-75338976D01*
X66525610Y-75355226D01*
X66513329Y-75371061D01*
X66513324Y-75371068D01*
X66494815Y-75413838D01*
X66492245Y-75419084D01*
X66469803Y-75459906D01*
X66464822Y-75479307D01*
X66458521Y-75497710D01*
X66450562Y-75516102D01*
X66450561Y-75516105D01*
X66443271Y-75562127D01*
X66442087Y-75567846D01*
X66430501Y-75612972D01*
X66430500Y-75612982D01*
X66430500Y-75633016D01*
X66428973Y-75652415D01*
X66425840Y-75672194D01*
X66425840Y-75672195D01*
X66430225Y-75718583D01*
X66430500Y-75724421D01*
X66430500Y-75972319D01*
X66410815Y-76039358D01*
X66394181Y-76060000D01*
X60576208Y-81877972D01*
X60563951Y-81887793D01*
X60564134Y-81888014D01*
X60558123Y-81892986D01*
X60510772Y-81943409D01*
X60489889Y-81964292D01*
X60489877Y-81964305D01*
X60485621Y-81969790D01*
X60481837Y-81974220D01*
X60449937Y-82008191D01*
X60449936Y-82008193D01*
X60440284Y-82025749D01*
X60429610Y-82041999D01*
X60417329Y-82057834D01*
X60417324Y-82057841D01*
X60398815Y-82100611D01*
X60396245Y-82105857D01*
X60373803Y-82146679D01*
X60368822Y-82166080D01*
X60362521Y-82184483D01*
X60354562Y-82202875D01*
X60354561Y-82202878D01*
X60347271Y-82248900D01*
X60346087Y-82254619D01*
X60334501Y-82299745D01*
X60334500Y-82299755D01*
X60334500Y-82319789D01*
X60332973Y-82339188D01*
X60329840Y-82358967D01*
X60329840Y-82358968D01*
X60334225Y-82405356D01*
X60334500Y-82411194D01*
X60334500Y-87861850D01*
X60314815Y-87928889D01*
X60262011Y-87974644D01*
X60230142Y-87983237D01*
X60230275Y-87983903D01*
X60224302Y-87985091D01*
X60034191Y-88042760D01*
X59859001Y-88136401D01*
X59858995Y-88136405D01*
X59738664Y-88235158D01*
X59674354Y-88262470D01*
X59605487Y-88250679D01*
X59581336Y-88235158D01*
X59461004Y-88136405D01*
X59460998Y-88136401D01*
X59285805Y-88042759D01*
X59133504Y-87996558D01*
X59075066Y-87958261D01*
X59046609Y-87894448D01*
X59045500Y-87877898D01*
X59045500Y-82757178D01*
X59065185Y-82690139D01*
X59081819Y-82669497D01*
X60709361Y-81041955D01*
X62423288Y-79328027D01*
X62435542Y-79318212D01*
X62435359Y-79317990D01*
X62441366Y-79313018D01*
X62441377Y-79313012D01*
X62472275Y-79280108D01*
X62488727Y-79262590D01*
X62499171Y-79252144D01*
X62509620Y-79241697D01*
X62513879Y-79236204D01*
X62517652Y-79231787D01*
X62549562Y-79197808D01*
X62559215Y-79180246D01*
X62569889Y-79163996D01*
X62582173Y-79148162D01*
X62600680Y-79105393D01*
X62603249Y-79100150D01*
X62625696Y-79059319D01*
X62625697Y-79059318D01*
X62630677Y-79039917D01*
X62636978Y-79021514D01*
X62644938Y-79003122D01*
X62652230Y-78957075D01*
X62653411Y-78951378D01*
X62665000Y-78906245D01*
X62665000Y-78886209D01*
X62666527Y-78866808D01*
X62669660Y-78847030D01*
X62665275Y-78800641D01*
X62665000Y-78794803D01*
X62665000Y-78605951D01*
X62684685Y-78538912D01*
X62701314Y-78518275D01*
X67223145Y-73996443D01*
X67284468Y-73962959D01*
X67354160Y-73967943D01*
G37*
%TD.AperFunction*%
%TA.AperFunction,Conductor*%
G36*
X62793834Y-81532043D02*
G01*
X62849767Y-81573915D01*
X62874184Y-81639379D01*
X62874500Y-81648225D01*
X62874500Y-87861850D01*
X62854815Y-87928889D01*
X62802011Y-87974644D01*
X62770142Y-87983237D01*
X62770275Y-87983903D01*
X62764302Y-87985091D01*
X62574191Y-88042760D01*
X62399001Y-88136401D01*
X62398995Y-88136405D01*
X62278664Y-88235158D01*
X62214354Y-88262470D01*
X62145487Y-88250679D01*
X62121336Y-88235158D01*
X62001004Y-88136405D01*
X62000998Y-88136401D01*
X61825805Y-88042759D01*
X61673504Y-87996558D01*
X61615066Y-87958261D01*
X61586609Y-87894448D01*
X61585500Y-87877898D01*
X61585500Y-82689225D01*
X61605185Y-82622186D01*
X61621819Y-82601544D01*
X62662819Y-81560544D01*
X62724142Y-81527059D01*
X62793834Y-81532043D01*
G37*
%TD.AperFunction*%
%TA.AperFunction,Conductor*%
G36*
X80058812Y-79047054D02*
G01*
X80112690Y-79091539D01*
X80129775Y-79128949D01*
X80137023Y-79156001D01*
X80137025Y-79156005D01*
X80137026Y-79156009D01*
X80211756Y-79316268D01*
X80226629Y-79348164D01*
X80226631Y-79348168D01*
X80302384Y-79456354D01*
X80348239Y-79521841D01*
X80498159Y-79671761D01*
X80498161Y-79671762D01*
X80498163Y-79671764D01*
X80671831Y-79793368D01*
X80671833Y-79793369D01*
X80671836Y-79793371D01*
X80863991Y-79882974D01*
X81068787Y-79937849D01*
X81237757Y-79952632D01*
X81279999Y-79956328D01*
X81280000Y-79956328D01*
X81280001Y-79956328D01*
X81296993Y-79954841D01*
X81491213Y-79937849D01*
X81502539Y-79934814D01*
X81572388Y-79936475D01*
X81622316Y-79966907D01*
X83319197Y-81663788D01*
X83329022Y-81676051D01*
X83329243Y-81675869D01*
X83334214Y-81681878D01*
X83360217Y-81706295D01*
X83384635Y-81729226D01*
X83405529Y-81750120D01*
X83411011Y-81754373D01*
X83415443Y-81758157D01*
X83449418Y-81790062D01*
X83466976Y-81799714D01*
X83483235Y-81810395D01*
X83499064Y-81822673D01*
X83541838Y-81841182D01*
X83547056Y-81843738D01*
X83587908Y-81866197D01*
X83607316Y-81871180D01*
X83625717Y-81877480D01*
X83644104Y-81885437D01*
X83687488Y-81892308D01*
X83690119Y-81892725D01*
X83695839Y-81893909D01*
X83740981Y-81905500D01*
X83761016Y-81905500D01*
X83780414Y-81907026D01*
X83800194Y-81910159D01*
X83800195Y-81910160D01*
X83800195Y-81910159D01*
X83800196Y-81910160D01*
X83846584Y-81905775D01*
X83852422Y-81905500D01*
X88017520Y-81905500D01*
X88084559Y-81925185D01*
X88130314Y-81977989D01*
X88140258Y-82047147D01*
X88124907Y-82091500D01*
X88072821Y-82181715D01*
X88072818Y-82181722D01*
X88014327Y-82361740D01*
X88014326Y-82361744D01*
X87994540Y-82550000D01*
X88014326Y-82738256D01*
X88014327Y-82738259D01*
X88072818Y-82918277D01*
X88072821Y-82918284D01*
X88167467Y-83082216D01*
X88206589Y-83125665D01*
X88242650Y-83165715D01*
X88272880Y-83228706D01*
X88274500Y-83248687D01*
X88274500Y-83509547D01*
X88254815Y-83576586D01*
X88238181Y-83597228D01*
X87877725Y-83957684D01*
X87816402Y-83991169D01*
X87790044Y-83994003D01*
X87730851Y-83994003D01*
X87721950Y-83995895D01*
X87545694Y-84033358D01*
X87545689Y-84033360D01*
X87372767Y-84110351D01*
X87372762Y-84110354D01*
X87219626Y-84221614D01*
X87092963Y-84362288D01*
X86998318Y-84526218D01*
X86998315Y-84526225D01*
X86939834Y-84706212D01*
X86939823Y-84706247D01*
X86920037Y-84894503D01*
X86939823Y-85082759D01*
X86939824Y-85082762D01*
X86998315Y-85262780D01*
X86998318Y-85262787D01*
X87092964Y-85426719D01*
X87146387Y-85486051D01*
X87219626Y-85567391D01*
X87372762Y-85678651D01*
X87372767Y-85678654D01*
X87545689Y-85755645D01*
X87545694Y-85755647D01*
X87730851Y-85795003D01*
X87730852Y-85795003D01*
X87920141Y-85795003D01*
X87920143Y-85795003D01*
X88105300Y-85755647D01*
X88278227Y-85678654D01*
X88431368Y-85567391D01*
X88558030Y-85426719D01*
X88652676Y-85262787D01*
X88711171Y-85082759D01*
X88728818Y-84914848D01*
X88755402Y-84850235D01*
X88764449Y-84840139D01*
X89283786Y-84320802D01*
X89296048Y-84310980D01*
X89295865Y-84310759D01*
X89301867Y-84305792D01*
X89301877Y-84305786D01*
X89349241Y-84255348D01*
X89370120Y-84234470D01*
X89374373Y-84228986D01*
X89378150Y-84224563D01*
X89410062Y-84190582D01*
X89419714Y-84173023D01*
X89430389Y-84156772D01*
X89442674Y-84140936D01*
X89461186Y-84098152D01*
X89463742Y-84092935D01*
X89486197Y-84052092D01*
X89491180Y-84032680D01*
X89497477Y-84014291D01*
X89505438Y-83995895D01*
X89512729Y-83949853D01*
X89513908Y-83944162D01*
X89525500Y-83899019D01*
X89525500Y-83878983D01*
X89527027Y-83859582D01*
X89530160Y-83839804D01*
X89525775Y-83793415D01*
X89525500Y-83787577D01*
X89525500Y-83248687D01*
X89545185Y-83181648D01*
X89557350Y-83165715D01*
X89583928Y-83136197D01*
X89632533Y-83082216D01*
X89727179Y-82918284D01*
X89785674Y-82738256D01*
X89805460Y-82550000D01*
X89785674Y-82361744D01*
X89727179Y-82181716D01*
X89675093Y-82091500D01*
X89658620Y-82023599D01*
X89681473Y-81957573D01*
X89736394Y-81914382D01*
X89782480Y-81905500D01*
X89859548Y-81905500D01*
X89926587Y-81925185D01*
X89947229Y-81941819D01*
X93318181Y-85312771D01*
X93351666Y-85374094D01*
X93354500Y-85400452D01*
X93354500Y-87861850D01*
X93334815Y-87928889D01*
X93282011Y-87974644D01*
X93250142Y-87983237D01*
X93250275Y-87983903D01*
X93244302Y-87985091D01*
X93054191Y-88042760D01*
X92879001Y-88136401D01*
X92878995Y-88136405D01*
X92758664Y-88235158D01*
X92694354Y-88262470D01*
X92625487Y-88250679D01*
X92601336Y-88235158D01*
X92481004Y-88136405D01*
X92480998Y-88136401D01*
X92305808Y-88042760D01*
X92152250Y-87996179D01*
X92115701Y-87985092D01*
X92115699Y-87985091D01*
X92115697Y-87985091D01*
X92115694Y-87985090D01*
X92105410Y-87984077D01*
X92040624Y-87957913D01*
X92000268Y-87900876D01*
X91998494Y-87895268D01*
X91996915Y-87889834D01*
X91987118Y-87856110D01*
X91976919Y-87838864D01*
X91968358Y-87821388D01*
X91960987Y-87802770D01*
X91960986Y-87802768D01*
X91933590Y-87765060D01*
X91930392Y-87760191D01*
X91906673Y-87720083D01*
X91906666Y-87720074D01*
X91892505Y-87705913D01*
X91879870Y-87691120D01*
X91868093Y-87674912D01*
X91832193Y-87645213D01*
X91827881Y-87641290D01*
X91686803Y-87500212D01*
X91676980Y-87487950D01*
X91676759Y-87488134D01*
X91671786Y-87482123D01*
X91621364Y-87434773D01*
X91610919Y-87424328D01*
X91600475Y-87413883D01*
X91594986Y-87409625D01*
X91590561Y-87405847D01*
X91556582Y-87373938D01*
X91556580Y-87373936D01*
X91556577Y-87373935D01*
X91539029Y-87364288D01*
X91522763Y-87353604D01*
X91506933Y-87341325D01*
X91464168Y-87322818D01*
X91458922Y-87320248D01*
X91418093Y-87297803D01*
X91418092Y-87297802D01*
X91398693Y-87292822D01*
X91380281Y-87286518D01*
X91361898Y-87278562D01*
X91361892Y-87278560D01*
X91315874Y-87271272D01*
X91310152Y-87270087D01*
X91265021Y-87258500D01*
X91265019Y-87258500D01*
X91244984Y-87258500D01*
X91225586Y-87256973D01*
X91218162Y-87255797D01*
X91205805Y-87253840D01*
X91205804Y-87253840D01*
X91159416Y-87258225D01*
X91153578Y-87258500D01*
X88197245Y-87258500D01*
X88130206Y-87238815D01*
X88109564Y-87222181D01*
X83053595Y-82166212D01*
X83043772Y-82153950D01*
X83043551Y-82154134D01*
X83038578Y-82148123D01*
X83014796Y-82125790D01*
X82988156Y-82100773D01*
X82977711Y-82090328D01*
X82967267Y-82079883D01*
X82961778Y-82075625D01*
X82957353Y-82071847D01*
X82923374Y-82039938D01*
X82923372Y-82039936D01*
X82923369Y-82039935D01*
X82905821Y-82030288D01*
X82889555Y-82019604D01*
X82878931Y-82011363D01*
X82873728Y-82007327D01*
X82873727Y-82007326D01*
X82873725Y-82007325D01*
X82830960Y-81988818D01*
X82825714Y-81986248D01*
X82784885Y-81963803D01*
X82784884Y-81963802D01*
X82765485Y-81958822D01*
X82747073Y-81952518D01*
X82728690Y-81944562D01*
X82728684Y-81944560D01*
X82682666Y-81937272D01*
X82676944Y-81936087D01*
X82631813Y-81924500D01*
X82631811Y-81924500D01*
X82611776Y-81924500D01*
X82592378Y-81922973D01*
X82584954Y-81921797D01*
X82572597Y-81919840D01*
X82572596Y-81919840D01*
X82526208Y-81924225D01*
X82520370Y-81924500D01*
X80320453Y-81924500D01*
X80253414Y-81904815D01*
X80232772Y-81888181D01*
X79966907Y-81622316D01*
X79933422Y-81560993D01*
X79934814Y-81502538D01*
X79937849Y-81491213D01*
X79956328Y-81280000D01*
X79955215Y-81267284D01*
X79937849Y-81068791D01*
X79937849Y-81068787D01*
X79882974Y-80863991D01*
X79793371Y-80671836D01*
X79793369Y-80671833D01*
X79793368Y-80671831D01*
X79671764Y-80498163D01*
X79671759Y-80498157D01*
X79521842Y-80348240D01*
X79521836Y-80348235D01*
X79348168Y-80226631D01*
X79348164Y-80226629D01*
X79322938Y-80214866D01*
X79156009Y-80137026D01*
X79156005Y-80137025D01*
X79156001Y-80137023D01*
X79128949Y-80129775D01*
X79069288Y-80093410D01*
X79038759Y-80030563D01*
X79047054Y-79961188D01*
X79091539Y-79907310D01*
X79128949Y-79890225D01*
X79146930Y-79885406D01*
X79156009Y-79882974D01*
X79348164Y-79793371D01*
X79521841Y-79671761D01*
X79671761Y-79521841D01*
X79793371Y-79348164D01*
X79882974Y-79156009D01*
X79887474Y-79139215D01*
X79890225Y-79128949D01*
X79926590Y-79069288D01*
X79989437Y-79038759D01*
X80058812Y-79047054D01*
G37*
%TD.AperFunction*%
%TA.AperFunction,Conductor*%
G36*
X89874809Y-64270185D02*
G01*
X89895451Y-64286819D01*
X95733181Y-70124548D01*
X95766666Y-70185871D01*
X95769500Y-70212229D01*
X95769500Y-87897616D01*
X95749815Y-87964655D01*
X95697011Y-88010410D01*
X95681496Y-88016276D01*
X95594194Y-88042759D01*
X95419001Y-88136401D01*
X95418995Y-88136405D01*
X95298664Y-88235158D01*
X95234354Y-88262470D01*
X95165487Y-88250679D01*
X95141336Y-88235158D01*
X95021004Y-88136405D01*
X95020998Y-88136401D01*
X94845805Y-88042759D01*
X94693504Y-87996558D01*
X94635066Y-87958261D01*
X94606609Y-87894448D01*
X94605500Y-87877898D01*
X94605500Y-85172742D01*
X94607224Y-85157122D01*
X94606939Y-85157095D01*
X94607673Y-85149333D01*
X94605500Y-85080172D01*
X94605500Y-85050656D01*
X94605500Y-85050650D01*
X94604631Y-85043779D01*
X94604173Y-85037952D01*
X94602710Y-84991373D01*
X94597119Y-84972130D01*
X94593173Y-84953078D01*
X94590664Y-84933208D01*
X94573504Y-84889867D01*
X94571624Y-84884379D01*
X94558618Y-84839610D01*
X94554841Y-84833224D01*
X94548423Y-84822371D01*
X94539861Y-84804894D01*
X94532487Y-84786270D01*
X94532486Y-84786268D01*
X94505079Y-84748545D01*
X94501888Y-84743686D01*
X94478172Y-84703583D01*
X94478165Y-84703574D01*
X94464006Y-84689415D01*
X94451368Y-84674619D01*
X94439594Y-84658413D01*
X94425210Y-84646514D01*
X94403688Y-84628709D01*
X94399376Y-84624786D01*
X90670803Y-80896212D01*
X90660980Y-80883950D01*
X90660759Y-80884134D01*
X90655786Y-80878123D01*
X90605364Y-80830773D01*
X90594919Y-80820328D01*
X90584475Y-80809883D01*
X90578986Y-80805625D01*
X90574561Y-80801847D01*
X90540582Y-80769938D01*
X90540580Y-80769936D01*
X90540577Y-80769935D01*
X90523029Y-80760288D01*
X90506763Y-80749604D01*
X90490933Y-80737325D01*
X90448168Y-80718818D01*
X90442922Y-80716248D01*
X90402093Y-80693803D01*
X90402092Y-80693802D01*
X90382693Y-80688822D01*
X90364281Y-80682518D01*
X90345898Y-80674562D01*
X90345892Y-80674560D01*
X90299874Y-80667272D01*
X90294152Y-80666087D01*
X90249021Y-80654500D01*
X90249019Y-80654500D01*
X90228984Y-80654500D01*
X90209586Y-80652973D01*
X90202162Y-80651797D01*
X90189805Y-80649840D01*
X90189804Y-80649840D01*
X90143416Y-80654225D01*
X90137578Y-80654500D01*
X84130453Y-80654500D01*
X84063414Y-80634815D01*
X84042772Y-80618181D01*
X82506907Y-79082316D01*
X82473422Y-79020993D01*
X82474814Y-78962538D01*
X82477849Y-78951213D01*
X82496328Y-78740000D01*
X82477849Y-78528787D01*
X82422974Y-78323991D01*
X82422971Y-78323984D01*
X82398686Y-78271904D01*
X82388194Y-78202827D01*
X82416714Y-78139043D01*
X82475191Y-78100804D01*
X82511068Y-78095500D01*
X84980500Y-78095500D01*
X85047539Y-78115185D01*
X85093294Y-78167989D01*
X85104500Y-78219500D01*
X85104500Y-79537870D01*
X85104501Y-79537876D01*
X85110908Y-79597483D01*
X85161202Y-79732328D01*
X85161206Y-79732335D01*
X85247452Y-79847544D01*
X85247455Y-79847547D01*
X85362664Y-79933793D01*
X85362671Y-79933797D01*
X85497517Y-79984091D01*
X85497516Y-79984091D01*
X85504444Y-79984835D01*
X85557127Y-79990500D01*
X87152872Y-79990499D01*
X87212483Y-79984091D01*
X87347331Y-79933796D01*
X87462546Y-79847546D01*
X87548796Y-79732331D01*
X87599091Y-79597483D01*
X87605500Y-79537873D01*
X87605500Y-78740002D01*
X92719723Y-78740002D01*
X92738793Y-78957975D01*
X92738793Y-78957979D01*
X92795422Y-79169322D01*
X92795424Y-79169326D01*
X92795425Y-79169330D01*
X92824543Y-79231774D01*
X92887897Y-79367638D01*
X92887898Y-79367639D01*
X93013402Y-79546877D01*
X93168123Y-79701598D01*
X93347361Y-79827102D01*
X93545670Y-79919575D01*
X93545676Y-79919576D01*
X93545677Y-79919577D01*
X93571854Y-79926591D01*
X93757023Y-79976207D01*
X93939926Y-79992208D01*
X93974998Y-79995277D01*
X93975000Y-79995277D01*
X93975002Y-79995277D01*
X94003254Y-79992805D01*
X94192977Y-79976207D01*
X94404330Y-79919575D01*
X94602639Y-79827102D01*
X94781877Y-79701598D01*
X94936598Y-79546877D01*
X95062102Y-79367639D01*
X95154575Y-79169330D01*
X95211207Y-78957977D01*
X95230277Y-78740000D01*
X95211207Y-78522023D01*
X95165395Y-78351051D01*
X95154577Y-78310677D01*
X95154576Y-78310676D01*
X95154575Y-78310670D01*
X95062102Y-78112362D01*
X95062100Y-78112359D01*
X95062099Y-78112357D01*
X94936599Y-77933124D01*
X94863610Y-77860135D01*
X94781877Y-77778402D01*
X94602639Y-77652898D01*
X94451414Y-77582381D01*
X94398977Y-77536210D01*
X94379825Y-77469016D01*
X94400041Y-77402135D01*
X94451414Y-77357618D01*
X94602639Y-77287102D01*
X94781877Y-77161598D01*
X94936598Y-77006877D01*
X95062102Y-76827639D01*
X95154575Y-76629330D01*
X95211207Y-76417977D01*
X95230277Y-76200000D01*
X95211207Y-75982023D01*
X95154575Y-75770670D01*
X95062102Y-75572362D01*
X95062100Y-75572359D01*
X95062099Y-75572357D01*
X94936599Y-75393124D01*
X94864893Y-75321418D01*
X94781877Y-75238402D01*
X94602639Y-75112898D01*
X94602640Y-75112898D01*
X94602638Y-75112897D01*
X94482817Y-75057024D01*
X94404330Y-75020425D01*
X94404323Y-75020423D01*
X94399236Y-75018571D01*
X94399682Y-75017344D01*
X94345392Y-74984251D01*
X94314865Y-74921403D01*
X94323162Y-74852028D01*
X94367649Y-74798151D01*
X94392355Y-74785218D01*
X94512168Y-74738801D01*
X94512181Y-74738795D01*
X94628326Y-74666879D01*
X93975001Y-74013553D01*
X93975000Y-74013553D01*
X93321672Y-74666879D01*
X93321672Y-74666880D01*
X93437821Y-74738797D01*
X93437822Y-74738798D01*
X93557644Y-74785217D01*
X93613045Y-74827790D01*
X93636636Y-74893557D01*
X93620925Y-74961637D01*
X93570901Y-75010416D01*
X93550687Y-75018361D01*
X93550764Y-75018571D01*
X93545672Y-75020424D01*
X93545670Y-75020425D01*
X93545668Y-75020426D01*
X93347361Y-75112898D01*
X93347357Y-75112900D01*
X93168121Y-75238402D01*
X93013402Y-75393121D01*
X92887900Y-75572357D01*
X92887898Y-75572361D01*
X92795426Y-75770668D01*
X92795422Y-75770677D01*
X92738793Y-75982020D01*
X92738793Y-75982024D01*
X92719723Y-76199997D01*
X92719723Y-76200002D01*
X92738793Y-76417975D01*
X92738793Y-76417979D01*
X92795422Y-76629322D01*
X92795424Y-76629326D01*
X92795425Y-76629330D01*
X92819764Y-76681525D01*
X92887897Y-76827638D01*
X92912998Y-76863486D01*
X93013402Y-77006877D01*
X93168123Y-77161598D01*
X93306832Y-77258723D01*
X93347361Y-77287102D01*
X93498583Y-77357618D01*
X93551022Y-77403790D01*
X93570174Y-77470984D01*
X93549958Y-77537865D01*
X93498583Y-77582382D01*
X93347361Y-77652898D01*
X93347357Y-77652900D01*
X93168121Y-77778402D01*
X93013402Y-77933121D01*
X92887900Y-78112357D01*
X92887898Y-78112361D01*
X92820958Y-78255915D01*
X92799073Y-78302848D01*
X92795426Y-78310668D01*
X92795422Y-78310677D01*
X92738793Y-78522020D01*
X92738793Y-78522023D01*
X92735944Y-78554590D01*
X92719723Y-78739997D01*
X92719723Y-78740002D01*
X87605500Y-78740002D01*
X87605499Y-77942128D01*
X87599976Y-77890746D01*
X87599091Y-77882516D01*
X87548797Y-77747671D01*
X87548793Y-77747664D01*
X87497123Y-77678643D01*
X87462546Y-77632454D01*
X87378136Y-77569265D01*
X87336267Y-77513333D01*
X87331283Y-77443641D01*
X87364768Y-77382318D01*
X87378130Y-77370739D01*
X87462546Y-77307546D01*
X87548796Y-77192331D01*
X87599091Y-77057483D01*
X87605500Y-76997873D01*
X87605499Y-75402128D01*
X87599091Y-75342517D01*
X87597770Y-75338976D01*
X87548797Y-75207671D01*
X87548793Y-75207664D01*
X87462547Y-75092455D01*
X87462544Y-75092452D01*
X87347335Y-75006206D01*
X87347328Y-75006202D01*
X87212482Y-74955908D01*
X87212483Y-74955908D01*
X87152883Y-74949501D01*
X87152881Y-74949500D01*
X87152873Y-74949500D01*
X87152865Y-74949500D01*
X87104500Y-74949500D01*
X87037461Y-74929815D01*
X86991706Y-74877011D01*
X86980500Y-74825500D01*
X86980500Y-74753765D01*
X87000185Y-74686726D01*
X87039220Y-74648340D01*
X87081562Y-74622124D01*
X87245981Y-74472236D01*
X87380058Y-74294689D01*
X87479229Y-74095528D01*
X87540115Y-73881536D01*
X87560643Y-73660000D01*
X92769859Y-73660000D01*
X92790378Y-73881439D01*
X92851240Y-74095350D01*
X92950369Y-74294428D01*
X92966137Y-74315308D01*
X92966138Y-74315308D01*
X93592145Y-73689302D01*
X93621372Y-73689302D01*
X93650047Y-73802538D01*
X93713936Y-73900327D01*
X93806115Y-73972072D01*
X93916595Y-74010000D01*
X94004005Y-74010000D01*
X94090216Y-73995614D01*
X94192947Y-73940019D01*
X94272060Y-73854079D01*
X94318982Y-73747108D01*
X94326200Y-73660000D01*
X94328553Y-73660000D01*
X94983861Y-74315308D01*
X94999631Y-74294425D01*
X94999633Y-74294422D01*
X95098759Y-74095350D01*
X95159621Y-73881439D01*
X95180141Y-73660000D01*
X95180141Y-73659999D01*
X95159621Y-73438560D01*
X95098759Y-73224649D01*
X94999635Y-73025580D01*
X94999630Y-73025572D01*
X94983860Y-73004690D01*
X94328553Y-73659999D01*
X94328553Y-73660000D01*
X94326200Y-73660000D01*
X94328628Y-73630698D01*
X94299953Y-73517462D01*
X94236064Y-73419673D01*
X94143885Y-73347928D01*
X94033405Y-73310000D01*
X93945995Y-73310000D01*
X93859784Y-73324386D01*
X93757053Y-73379981D01*
X93677940Y-73465921D01*
X93631018Y-73572892D01*
X93621372Y-73689302D01*
X93592145Y-73689302D01*
X93621447Y-73660000D01*
X92966138Y-73004691D01*
X92966137Y-73004691D01*
X92950368Y-73025574D01*
X92851240Y-73224649D01*
X92790378Y-73438560D01*
X92769859Y-73659999D01*
X92769859Y-73660000D01*
X87560643Y-73660000D01*
X87540115Y-73438464D01*
X87479229Y-73224472D01*
X87479224Y-73224461D01*
X87380061Y-73025316D01*
X87380056Y-73025308D01*
X87245979Y-72847761D01*
X87081562Y-72697876D01*
X87081560Y-72697874D01*
X87009278Y-72653119D01*
X93321671Y-72653119D01*
X93975000Y-73306447D01*
X93975001Y-73306447D01*
X94628327Y-72653119D01*
X94512178Y-72581202D01*
X94512177Y-72581201D01*
X94304804Y-72500865D01*
X94086193Y-72460000D01*
X93863807Y-72460000D01*
X93645195Y-72500865D01*
X93437824Y-72581200D01*
X93437823Y-72581201D01*
X93321671Y-72653119D01*
X87009278Y-72653119D01*
X86892404Y-72580754D01*
X86892398Y-72580752D01*
X86684940Y-72500382D01*
X86466243Y-72459500D01*
X86243757Y-72459500D01*
X86025060Y-72500382D01*
X85893864Y-72551207D01*
X85817601Y-72580752D01*
X85817595Y-72580754D01*
X85628439Y-72697874D01*
X85628437Y-72697876D01*
X85464020Y-72847761D01*
X85329943Y-73025308D01*
X85329938Y-73025316D01*
X85230775Y-73224461D01*
X85230769Y-73224476D01*
X85169885Y-73438462D01*
X85169884Y-73438464D01*
X85149357Y-73659999D01*
X85149357Y-73660000D01*
X85169884Y-73881535D01*
X85169885Y-73881537D01*
X85230769Y-74095523D01*
X85230775Y-74095538D01*
X85329938Y-74294683D01*
X85329943Y-74294691D01*
X85464020Y-74472238D01*
X85628433Y-74622120D01*
X85628435Y-74622122D01*
X85628437Y-74622123D01*
X85628438Y-74622124D01*
X85670778Y-74648339D01*
X85717412Y-74700364D01*
X85729500Y-74753765D01*
X85729500Y-74825500D01*
X85709815Y-74892539D01*
X85657011Y-74938294D01*
X85605502Y-74949500D01*
X85557131Y-74949500D01*
X85557123Y-74949501D01*
X85497516Y-74955908D01*
X85362671Y-75006202D01*
X85362664Y-75006206D01*
X85247455Y-75092452D01*
X85247452Y-75092455D01*
X85161206Y-75207664D01*
X85161202Y-75207671D01*
X85110908Y-75342517D01*
X85107839Y-75371068D01*
X85104501Y-75402123D01*
X85104500Y-75402135D01*
X85104500Y-76514546D01*
X85084815Y-76581585D01*
X85068181Y-76602227D01*
X84862228Y-76808181D01*
X84800905Y-76841666D01*
X84774547Y-76844500D01*
X82511068Y-76844500D01*
X82444029Y-76824815D01*
X82398274Y-76772011D01*
X82388330Y-76702853D01*
X82398686Y-76668096D01*
X82420438Y-76621447D01*
X82422974Y-76616009D01*
X82477849Y-76411213D01*
X82496328Y-76200000D01*
X82477849Y-75988787D01*
X82422974Y-75783991D01*
X82333371Y-75591836D01*
X82333369Y-75591833D01*
X82333368Y-75591831D01*
X82211764Y-75418163D01*
X82211759Y-75418157D01*
X82061842Y-75268240D01*
X82061836Y-75268235D01*
X81888168Y-75146631D01*
X81888164Y-75146629D01*
X81696009Y-75057026D01*
X81696005Y-75057025D01*
X81696001Y-75057023D01*
X81668949Y-75049775D01*
X81609288Y-75013410D01*
X81578759Y-74950563D01*
X81587054Y-74881188D01*
X81631539Y-74827310D01*
X81668949Y-74810225D01*
X81686930Y-74805406D01*
X81696009Y-74802974D01*
X81888164Y-74713371D01*
X82061841Y-74591761D01*
X82211761Y-74441841D01*
X82333371Y-74268164D01*
X82422974Y-74076009D01*
X82477849Y-73871213D01*
X82496328Y-73660000D01*
X82477849Y-73448787D01*
X82422974Y-73243991D01*
X82333371Y-73051836D01*
X82333369Y-73051833D01*
X82333368Y-73051831D01*
X82211764Y-72878163D01*
X82211759Y-72878157D01*
X82061842Y-72728240D01*
X82061836Y-72728235D01*
X81888168Y-72606631D01*
X81888164Y-72606629D01*
X81833631Y-72581200D01*
X81696009Y-72517026D01*
X81696005Y-72517025D01*
X81696001Y-72517023D01*
X81668949Y-72509775D01*
X81609288Y-72473410D01*
X81578759Y-72410563D01*
X81587054Y-72341188D01*
X81631539Y-72287310D01*
X81668949Y-72270225D01*
X81686930Y-72265406D01*
X81696009Y-72262974D01*
X81888164Y-72173371D01*
X82061841Y-72051761D01*
X82211761Y-71901841D01*
X82333371Y-71728164D01*
X82422974Y-71536009D01*
X82477849Y-71331213D01*
X82496328Y-71120000D01*
X82477849Y-70908787D01*
X82422974Y-70703991D01*
X82333371Y-70511836D01*
X82333369Y-70511833D01*
X82333368Y-70511831D01*
X82211764Y-70338163D01*
X82211759Y-70338157D01*
X82061842Y-70188240D01*
X82061836Y-70188235D01*
X81888168Y-70066631D01*
X81888164Y-70066629D01*
X81696009Y-69977026D01*
X81696005Y-69977025D01*
X81696001Y-69977023D01*
X81668949Y-69969775D01*
X81609288Y-69933410D01*
X81578759Y-69870563D01*
X81587054Y-69801188D01*
X81631539Y-69747310D01*
X81668949Y-69730225D01*
X81686930Y-69725406D01*
X81696009Y-69722974D01*
X81888164Y-69633371D01*
X82061841Y-69511761D01*
X82211761Y-69361841D01*
X82333371Y-69188164D01*
X82422974Y-68996009D01*
X82477849Y-68791213D01*
X82496328Y-68580000D01*
X82477849Y-68368787D01*
X82422974Y-68163991D01*
X82333371Y-67971836D01*
X82333369Y-67971833D01*
X82333368Y-67971831D01*
X82211764Y-67798163D01*
X82211759Y-67798157D01*
X82061842Y-67648240D01*
X82061836Y-67648235D01*
X81888168Y-67526631D01*
X81888164Y-67526629D01*
X81696009Y-67437026D01*
X81696005Y-67437025D01*
X81696001Y-67437023D01*
X81491218Y-67382152D01*
X81491208Y-67382150D01*
X81280001Y-67363672D01*
X81279999Y-67363672D01*
X81068791Y-67382150D01*
X81068781Y-67382152D01*
X80863998Y-67437023D01*
X80863989Y-67437027D01*
X80671835Y-67526629D01*
X80671831Y-67526631D01*
X80498163Y-67648235D01*
X80498157Y-67648240D01*
X80348240Y-67798157D01*
X80348235Y-67798163D01*
X80226631Y-67971831D01*
X80226629Y-67971835D01*
X80137027Y-68163989D01*
X80137024Y-68163996D01*
X80129775Y-68191051D01*
X80093409Y-68250711D01*
X80030562Y-68281240D01*
X79961187Y-68272945D01*
X79907309Y-68228459D01*
X79890225Y-68191051D01*
X79882975Y-68163996D01*
X79882974Y-68163991D01*
X79793371Y-67971836D01*
X79793369Y-67971833D01*
X79793368Y-67971831D01*
X79671764Y-67798163D01*
X79671759Y-67798157D01*
X79521842Y-67648240D01*
X79521836Y-67648235D01*
X79348168Y-67526631D01*
X79348164Y-67526629D01*
X79156009Y-67437026D01*
X79156005Y-67437025D01*
X79156001Y-67437023D01*
X79128949Y-67429775D01*
X79069288Y-67393410D01*
X79038759Y-67330563D01*
X79047054Y-67261188D01*
X79091539Y-67207310D01*
X79128949Y-67190225D01*
X79146930Y-67185406D01*
X79156009Y-67182974D01*
X79348164Y-67093371D01*
X79521841Y-66971761D01*
X79671761Y-66821841D01*
X79793371Y-66648164D01*
X79882974Y-66456009D01*
X79937849Y-66251213D01*
X79956328Y-66040000D01*
X79937849Y-65828787D01*
X79882974Y-65623991D01*
X79793371Y-65431836D01*
X79793369Y-65431833D01*
X79793368Y-65431831D01*
X79671764Y-65258163D01*
X79671759Y-65258157D01*
X79521842Y-65108240D01*
X79521836Y-65108235D01*
X79348168Y-64986631D01*
X79348164Y-64986629D01*
X79156009Y-64897026D01*
X79156005Y-64897025D01*
X79156001Y-64897023D01*
X78951218Y-64842152D01*
X78951208Y-64842150D01*
X78740001Y-64823672D01*
X78739999Y-64823672D01*
X78528791Y-64842150D01*
X78528781Y-64842152D01*
X78323998Y-64897023D01*
X78323989Y-64897027D01*
X78131835Y-64986629D01*
X78131831Y-64986631D01*
X77958163Y-65108235D01*
X77958157Y-65108240D01*
X77808240Y-65258157D01*
X77808235Y-65258163D01*
X77686631Y-65431831D01*
X77686629Y-65431835D01*
X77597027Y-65623989D01*
X77597024Y-65623996D01*
X77589775Y-65651051D01*
X77553409Y-65710711D01*
X77490562Y-65741240D01*
X77421187Y-65732945D01*
X77367309Y-65688459D01*
X77350225Y-65651051D01*
X77342975Y-65623996D01*
X77342974Y-65623991D01*
X77253371Y-65431836D01*
X77253369Y-65431833D01*
X77253368Y-65431831D01*
X77131764Y-65258163D01*
X77131759Y-65258157D01*
X76986819Y-65113217D01*
X76953334Y-65051894D01*
X76950500Y-65025536D01*
X76950500Y-64374500D01*
X76970185Y-64307461D01*
X77022989Y-64261706D01*
X77074500Y-64250500D01*
X89807770Y-64250500D01*
X89874809Y-64270185D01*
G37*
%TD.AperFunction*%
%TA.AperFunction,Conductor*%
G36*
X67301981Y-71226121D02*
G01*
X67357914Y-71267993D01*
X67380110Y-71326078D01*
X67381212Y-71325884D01*
X67382152Y-71331218D01*
X67437023Y-71536001D01*
X67437025Y-71536005D01*
X67437026Y-71536009D01*
X67526629Y-71728164D01*
X67526633Y-71728170D01*
X67546140Y-71756029D01*
X67568468Y-71822235D01*
X67551458Y-71890002D01*
X67517461Y-71927464D01*
X67513416Y-71930402D01*
X67513412Y-71930406D01*
X67483709Y-71966310D01*
X67479777Y-71970631D01*
X61655708Y-77794699D01*
X61643451Y-77804520D01*
X61643634Y-77804741D01*
X61637623Y-77809713D01*
X61590272Y-77860136D01*
X61569389Y-77881019D01*
X61569377Y-77881032D01*
X61565121Y-77886517D01*
X61561337Y-77890947D01*
X61529437Y-77924918D01*
X61529436Y-77924920D01*
X61519784Y-77942476D01*
X61509110Y-77958726D01*
X61496829Y-77974561D01*
X61496824Y-77974568D01*
X61478315Y-78017338D01*
X61475745Y-78022584D01*
X61453303Y-78063406D01*
X61448322Y-78082807D01*
X61442021Y-78101210D01*
X61434062Y-78119602D01*
X61434061Y-78119605D01*
X61426771Y-78165627D01*
X61425587Y-78171346D01*
X61414001Y-78216472D01*
X61414000Y-78216482D01*
X61414000Y-78236516D01*
X61412473Y-78255915D01*
X61409340Y-78275694D01*
X61409340Y-78275695D01*
X61413725Y-78322083D01*
X61414000Y-78327921D01*
X61414000Y-78516772D01*
X61394315Y-78583811D01*
X61377681Y-78604453D01*
X58036208Y-81945925D01*
X58023951Y-81955746D01*
X58024134Y-81955967D01*
X58018123Y-81960939D01*
X57970772Y-82011362D01*
X57949889Y-82032245D01*
X57949877Y-82032258D01*
X57945621Y-82037743D01*
X57941837Y-82042173D01*
X57909937Y-82076144D01*
X57909936Y-82076146D01*
X57900284Y-82093702D01*
X57889610Y-82109952D01*
X57877329Y-82125787D01*
X57877324Y-82125794D01*
X57858815Y-82168564D01*
X57856245Y-82173810D01*
X57833803Y-82214632D01*
X57828822Y-82234033D01*
X57822521Y-82252436D01*
X57814562Y-82270828D01*
X57814561Y-82270831D01*
X57807271Y-82316853D01*
X57806087Y-82322572D01*
X57794501Y-82367698D01*
X57794500Y-82367708D01*
X57794500Y-82387742D01*
X57792973Y-82407141D01*
X57789840Y-82426920D01*
X57789840Y-82426921D01*
X57794225Y-82473309D01*
X57794500Y-82479147D01*
X57794500Y-87861850D01*
X57774815Y-87928889D01*
X57722011Y-87974644D01*
X57690142Y-87983237D01*
X57690275Y-87983903D01*
X57684302Y-87985091D01*
X57494191Y-88042760D01*
X57319001Y-88136401D01*
X57318994Y-88136405D01*
X57202930Y-88231658D01*
X57138620Y-88258971D01*
X57069753Y-88247180D01*
X57045600Y-88231658D01*
X56921005Y-88129405D01*
X56920998Y-88129401D01*
X56745805Y-88035759D01*
X56593504Y-87989558D01*
X56535066Y-87951261D01*
X56506609Y-87887448D01*
X56505500Y-87870898D01*
X56505500Y-82757179D01*
X56525185Y-82690140D01*
X56541819Y-82669498D01*
X58713160Y-80498157D01*
X60898788Y-78312528D01*
X60911042Y-78302713D01*
X60910859Y-78302491D01*
X60916866Y-78297519D01*
X60916877Y-78297513D01*
X60955940Y-78255915D01*
X60964227Y-78247091D01*
X60974671Y-78236645D01*
X60985120Y-78226198D01*
X60989379Y-78220705D01*
X60993152Y-78216288D01*
X61025062Y-78182309D01*
X61034715Y-78164747D01*
X61045389Y-78148497D01*
X61057673Y-78132663D01*
X61076180Y-78089894D01*
X61078749Y-78084651D01*
X61080953Y-78080640D01*
X61101197Y-78043819D01*
X61106177Y-78024418D01*
X61112478Y-78006015D01*
X61120438Y-77987623D01*
X61127730Y-77941576D01*
X61128911Y-77935879D01*
X61140500Y-77890746D01*
X61140500Y-77870710D01*
X61142027Y-77851309D01*
X61145160Y-77831531D01*
X61141207Y-77789717D01*
X61140775Y-77785142D01*
X61140500Y-77779304D01*
X61140500Y-77336451D01*
X61160185Y-77269412D01*
X61176814Y-77248775D01*
X67170968Y-71254620D01*
X67232289Y-71221137D01*
X67301981Y-71226121D01*
G37*
%TD.AperFunction*%
%TA.AperFunction,Conductor*%
G36*
X72031697Y-82197402D02*
G01*
X72066101Y-82221692D01*
X72778197Y-82933788D01*
X72788022Y-82946051D01*
X72788243Y-82945869D01*
X72793214Y-82951878D01*
X72809318Y-82967000D01*
X72843635Y-82999226D01*
X72864529Y-83020120D01*
X72870011Y-83024373D01*
X72874443Y-83028157D01*
X72908418Y-83060062D01*
X72925976Y-83069714D01*
X72942233Y-83080393D01*
X72958064Y-83092673D01*
X72977737Y-83101186D01*
X73000833Y-83111182D01*
X73006077Y-83113750D01*
X73046908Y-83136197D01*
X73059523Y-83139435D01*
X73066305Y-83141177D01*
X73084719Y-83147481D01*
X73103104Y-83155438D01*
X73149157Y-83162732D01*
X73154826Y-83163906D01*
X73199981Y-83175500D01*
X73220016Y-83175500D01*
X73239413Y-83177026D01*
X73259196Y-83180160D01*
X73305584Y-83175775D01*
X73311422Y-83175500D01*
X74619548Y-83175500D01*
X74686587Y-83195185D01*
X74707229Y-83211819D01*
X79254228Y-87758819D01*
X79287713Y-87820142D01*
X79282729Y-87889834D01*
X79240857Y-87945767D01*
X79175393Y-87970184D01*
X79166547Y-87970500D01*
X78492452Y-87970500D01*
X78425413Y-87950815D01*
X78404771Y-87934181D01*
X75176803Y-84706212D01*
X75166980Y-84693950D01*
X75166759Y-84694134D01*
X75161786Y-84688123D01*
X75130146Y-84658411D01*
X75111364Y-84640773D01*
X75097438Y-84626847D01*
X75090475Y-84619883D01*
X75084986Y-84615625D01*
X75080561Y-84611847D01*
X75046582Y-84579938D01*
X75046580Y-84579936D01*
X75046577Y-84579935D01*
X75029029Y-84570288D01*
X75012763Y-84559604D01*
X74996933Y-84547325D01*
X74954168Y-84528818D01*
X74948922Y-84526248D01*
X74908093Y-84503803D01*
X74908092Y-84503802D01*
X74888693Y-84498822D01*
X74870281Y-84492518D01*
X74851898Y-84484562D01*
X74851892Y-84484560D01*
X74805874Y-84477272D01*
X74800152Y-84476087D01*
X74755021Y-84464500D01*
X74755019Y-84464500D01*
X74734984Y-84464500D01*
X74715586Y-84462973D01*
X74708162Y-84461797D01*
X74695805Y-84459840D01*
X74695804Y-84459840D01*
X74649416Y-84464225D01*
X74643578Y-84464500D01*
X73462452Y-84464500D01*
X73395413Y-84444815D01*
X73374771Y-84428181D01*
X71781819Y-82835228D01*
X71748334Y-82773905D01*
X71745500Y-82747547D01*
X71745500Y-82385781D01*
X71765185Y-82318742D01*
X71798373Y-82284209D01*
X71901841Y-82211761D01*
X71901843Y-82211758D01*
X71906276Y-82208655D01*
X71907574Y-82210509D01*
X71962703Y-82186373D01*
X72031697Y-82197402D01*
G37*
%TD.AperFunction*%
%TA.AperFunction,Conductor*%
G36*
X69898812Y-79047054D02*
G01*
X69952690Y-79091539D01*
X69969775Y-79128949D01*
X69977023Y-79156001D01*
X69977025Y-79156005D01*
X69977026Y-79156009D01*
X70051756Y-79316268D01*
X70066629Y-79348164D01*
X70066631Y-79348168D01*
X70142384Y-79456354D01*
X70188239Y-79521841D01*
X70338159Y-79671761D01*
X70338161Y-79671762D01*
X70338163Y-79671764D01*
X70511831Y-79793368D01*
X70511833Y-79793369D01*
X70511836Y-79793371D01*
X70703991Y-79882974D01*
X70718717Y-79886919D01*
X70731051Y-79890225D01*
X70790711Y-79926591D01*
X70821240Y-79989438D01*
X70812945Y-80058813D01*
X70768459Y-80112691D01*
X70731051Y-80129775D01*
X70703996Y-80137024D01*
X70703989Y-80137027D01*
X70511835Y-80226629D01*
X70511831Y-80226631D01*
X70338163Y-80348235D01*
X70338157Y-80348240D01*
X70188240Y-80498157D01*
X70188235Y-80498163D01*
X70066631Y-80671831D01*
X70066629Y-80671835D01*
X69977027Y-80863989D01*
X69977023Y-80863998D01*
X69922152Y-81068781D01*
X69922150Y-81068791D01*
X69903672Y-81279999D01*
X69903672Y-81280000D01*
X69922150Y-81491208D01*
X69922152Y-81491218D01*
X69977023Y-81696001D01*
X69977025Y-81696005D01*
X69977026Y-81696009D01*
X70033814Y-81817792D01*
X70066629Y-81888164D01*
X70066631Y-81888168D01*
X70177950Y-82047147D01*
X70188239Y-82061841D01*
X70273077Y-82146679D01*
X70338160Y-82211762D01*
X70383467Y-82243486D01*
X70441621Y-82284206D01*
X70441623Y-82284207D01*
X70485248Y-82338784D01*
X70494500Y-82385782D01*
X70494500Y-82975255D01*
X70492775Y-82990872D01*
X70493061Y-82990899D01*
X70492326Y-82998665D01*
X70494500Y-83067814D01*
X70494500Y-83097343D01*
X70494501Y-83097360D01*
X70495368Y-83104231D01*
X70495826Y-83110050D01*
X70497290Y-83156624D01*
X70497291Y-83156627D01*
X70502880Y-83175867D01*
X70506824Y-83194911D01*
X70509336Y-83214792D01*
X70522756Y-83248687D01*
X70526490Y-83258119D01*
X70528382Y-83263647D01*
X70541381Y-83308388D01*
X70551580Y-83325634D01*
X70560138Y-83343103D01*
X70567514Y-83361732D01*
X70594898Y-83399423D01*
X70598106Y-83404307D01*
X70621827Y-83444416D01*
X70621833Y-83444424D01*
X70635990Y-83458580D01*
X70648628Y-83473376D01*
X70660405Y-83489586D01*
X70660406Y-83489587D01*
X70696309Y-83519288D01*
X70700620Y-83523210D01*
X72168781Y-84991372D01*
X72651197Y-85473788D01*
X72661022Y-85486051D01*
X72661243Y-85485869D01*
X72666210Y-85491874D01*
X72696276Y-85520107D01*
X72731671Y-85580348D01*
X72728879Y-85650162D01*
X72688786Y-85707383D01*
X72624121Y-85733845D01*
X72611393Y-85734500D01*
X72065452Y-85734500D01*
X71998413Y-85714815D01*
X71977771Y-85698181D01*
X69241819Y-82962228D01*
X69208334Y-82900905D01*
X69205500Y-82874547D01*
X69205500Y-79845782D01*
X69225185Y-79778743D01*
X69258377Y-79744207D01*
X69361841Y-79671761D01*
X69511761Y-79521841D01*
X69633371Y-79348164D01*
X69722974Y-79156009D01*
X69727474Y-79139215D01*
X69730225Y-79128949D01*
X69766590Y-79069288D01*
X69829437Y-79038759D01*
X69898812Y-79047054D01*
G37*
%TD.AperFunction*%
%TA.AperFunction,Conductor*%
G36*
X77518812Y-79047054D02*
G01*
X77572690Y-79091539D01*
X77589775Y-79128949D01*
X77597023Y-79156001D01*
X77597025Y-79156005D01*
X77597026Y-79156009D01*
X77671756Y-79316268D01*
X77686629Y-79348164D01*
X77686631Y-79348168D01*
X77762384Y-79456354D01*
X77808239Y-79521841D01*
X77958159Y-79671761D01*
X77958161Y-79671762D01*
X77958163Y-79671764D01*
X78131831Y-79793368D01*
X78131833Y-79793369D01*
X78131836Y-79793371D01*
X78323991Y-79882974D01*
X78338717Y-79886919D01*
X78351051Y-79890225D01*
X78410711Y-79926591D01*
X78441240Y-79989438D01*
X78432945Y-80058813D01*
X78388459Y-80112691D01*
X78351051Y-80129775D01*
X78323996Y-80137024D01*
X78323984Y-80137028D01*
X78149511Y-80218386D01*
X78080434Y-80228878D01*
X78016650Y-80200358D01*
X77990376Y-80169126D01*
X77971390Y-80137024D01*
X77968170Y-80131579D01*
X77968166Y-80131575D01*
X77968163Y-80131571D01*
X77954005Y-80117413D01*
X77941370Y-80102620D01*
X77929593Y-80086412D01*
X77893693Y-80056713D01*
X77889381Y-80052790D01*
X77292945Y-79456354D01*
X77259460Y-79395031D01*
X77264444Y-79325339D01*
X77268244Y-79316268D01*
X77342974Y-79156009D01*
X77347474Y-79139215D01*
X77350225Y-79128949D01*
X77386590Y-79069288D01*
X77449437Y-79038759D01*
X77518812Y-79047054D01*
G37*
%TD.AperFunction*%
%TA.AperFunction,Conductor*%
G36*
X73120126Y-79825215D02*
G01*
X73243991Y-79882974D01*
X73243997Y-79882975D01*
X73243998Y-79882976D01*
X73272014Y-79890483D01*
X73331675Y-79926848D01*
X73362204Y-79989695D01*
X73353909Y-80059070D01*
X73309424Y-80112948D01*
X73272014Y-80130033D01*
X73244170Y-80137493D01*
X73244156Y-80137498D01*
X73167993Y-80173014D01*
X73098916Y-80183506D01*
X73035132Y-80154986D01*
X73000297Y-80106281D01*
X72995201Y-80093410D01*
X72983507Y-80063875D01*
X72981619Y-80058359D01*
X72968618Y-80013610D01*
X72968618Y-80013609D01*
X72960995Y-80000719D01*
X72943812Y-79932995D01*
X72965972Y-79866733D01*
X73020439Y-79822970D01*
X73089919Y-79815601D01*
X73120126Y-79825215D01*
G37*
%TD.AperFunction*%
%TA.AperFunction,Conductor*%
G36*
X72642828Y-77809655D02*
G01*
X72698761Y-77851527D01*
X72723178Y-77916991D01*
X72708326Y-77985264D01*
X72701069Y-77996960D01*
X72606631Y-78131831D01*
X72606629Y-78131835D01*
X72517027Y-78323989D01*
X72517024Y-78323996D01*
X72509775Y-78351051D01*
X72473409Y-78410711D01*
X72410562Y-78441240D01*
X72341187Y-78432945D01*
X72287309Y-78388459D01*
X72270225Y-78351051D01*
X72262975Y-78323996D01*
X72262974Y-78323991D01*
X72262971Y-78323984D01*
X72224300Y-78241053D01*
X72213808Y-78171976D01*
X72242328Y-78108192D01*
X72248988Y-78100981D01*
X72511815Y-77838154D01*
X72573136Y-77804671D01*
X72642828Y-77809655D01*
G37*
%TD.AperFunction*%
%TA.AperFunction,Conductor*%
G36*
X77226587Y-75575185D02*
G01*
X77247229Y-75591819D01*
X77513092Y-75857683D01*
X77546577Y-75919006D01*
X77545188Y-75977449D01*
X77542153Y-75988777D01*
X77542150Y-75988792D01*
X77523672Y-76199999D01*
X77523672Y-76200000D01*
X77542150Y-76411208D01*
X77542152Y-76411218D01*
X77597023Y-76616001D01*
X77597025Y-76616005D01*
X77597026Y-76616009D01*
X77660945Y-76753084D01*
X77686629Y-76808164D01*
X77686631Y-76808168D01*
X77808235Y-76981836D01*
X77808240Y-76981842D01*
X77958157Y-77131759D01*
X77958163Y-77131764D01*
X78131831Y-77253368D01*
X78131833Y-77253369D01*
X78131836Y-77253371D01*
X78323991Y-77342974D01*
X78338717Y-77346919D01*
X78351051Y-77350225D01*
X78410711Y-77386591D01*
X78441240Y-77449438D01*
X78432945Y-77518813D01*
X78388459Y-77572691D01*
X78351051Y-77589775D01*
X78323996Y-77597024D01*
X78323989Y-77597027D01*
X78131835Y-77686629D01*
X78131831Y-77686631D01*
X77958163Y-77808235D01*
X77958157Y-77808240D01*
X77808240Y-77958157D01*
X77808235Y-77958163D01*
X77686631Y-78131831D01*
X77686629Y-78131835D01*
X77597027Y-78323989D01*
X77597024Y-78323996D01*
X77589775Y-78351051D01*
X77553409Y-78410711D01*
X77490562Y-78441240D01*
X77421187Y-78432945D01*
X77367309Y-78388459D01*
X77350225Y-78351051D01*
X77342975Y-78323996D01*
X77342974Y-78323991D01*
X77253371Y-78131836D01*
X77253369Y-78131833D01*
X77253368Y-78131831D01*
X77131764Y-77958163D01*
X77131759Y-77958157D01*
X76981842Y-77808240D01*
X76981836Y-77808235D01*
X76808168Y-77686631D01*
X76808164Y-77686629D01*
X76765486Y-77666728D01*
X76616009Y-77597026D01*
X76616005Y-77597025D01*
X76616001Y-77597023D01*
X76411218Y-77542152D01*
X76411208Y-77542150D01*
X76200001Y-77523672D01*
X76199999Y-77523672D01*
X75988791Y-77542150D01*
X75988781Y-77542152D01*
X75783998Y-77597023D01*
X75783989Y-77597027D01*
X75591835Y-77686629D01*
X75591831Y-77686631D01*
X75418163Y-77808235D01*
X75418157Y-77808240D01*
X75268240Y-77958157D01*
X75268235Y-77958163D01*
X75146631Y-78131831D01*
X75146629Y-78131835D01*
X75057027Y-78323989D01*
X75057024Y-78323996D01*
X75049775Y-78351051D01*
X75013409Y-78410711D01*
X74950562Y-78441240D01*
X74881187Y-78432945D01*
X74827309Y-78388459D01*
X74810225Y-78351051D01*
X74802975Y-78323996D01*
X74802974Y-78323991D01*
X74713371Y-78131836D01*
X74713369Y-78131833D01*
X74713368Y-78131831D01*
X74591764Y-77958163D01*
X74591759Y-77958157D01*
X74441842Y-77808240D01*
X74441836Y-77808235D01*
X74268168Y-77686631D01*
X74268164Y-77686629D01*
X74225486Y-77666728D01*
X74076009Y-77597026D01*
X74076005Y-77597025D01*
X74076001Y-77597023D01*
X73871218Y-77542152D01*
X73871208Y-77542150D01*
X73660001Y-77523672D01*
X73659999Y-77523672D01*
X73448791Y-77542150D01*
X73448781Y-77542152D01*
X73243998Y-77597023D01*
X73243989Y-77597027D01*
X73051835Y-77686629D01*
X73051831Y-77686631D01*
X72916961Y-77781069D01*
X72850755Y-77803396D01*
X72782988Y-77786386D01*
X72735175Y-77735438D01*
X72722497Y-77666728D01*
X72748979Y-77602071D01*
X72758157Y-77591813D01*
X73518261Y-76831710D01*
X74758152Y-75591819D01*
X74819475Y-75558334D01*
X74845833Y-75555500D01*
X77159548Y-75555500D01*
X77226587Y-75575185D01*
G37*
%TD.AperFunction*%
%TA.AperFunction,Conductor*%
G36*
X80058812Y-73967054D02*
G01*
X80112690Y-74011539D01*
X80129775Y-74048949D01*
X80137023Y-74076001D01*
X80137025Y-74076005D01*
X80137026Y-74076009D01*
X80159715Y-74124665D01*
X80226629Y-74268164D01*
X80226631Y-74268168D01*
X80348235Y-74441836D01*
X80348240Y-74441842D01*
X80498157Y-74591759D01*
X80498163Y-74591764D01*
X80671831Y-74713368D01*
X80671833Y-74713369D01*
X80671836Y-74713371D01*
X80863991Y-74802974D01*
X80878717Y-74806919D01*
X80891051Y-74810225D01*
X80950711Y-74846591D01*
X80981240Y-74909438D01*
X80972945Y-74978813D01*
X80928459Y-75032691D01*
X80891051Y-75049775D01*
X80863996Y-75057024D01*
X80863989Y-75057027D01*
X80671835Y-75146629D01*
X80671831Y-75146631D01*
X80498163Y-75268235D01*
X80498157Y-75268240D01*
X80348240Y-75418157D01*
X80348235Y-75418163D01*
X80226631Y-75591831D01*
X80226629Y-75591835D01*
X80137027Y-75783989D01*
X80137024Y-75783996D01*
X80129775Y-75811051D01*
X80093409Y-75870711D01*
X80030562Y-75901240D01*
X79961187Y-75892945D01*
X79907309Y-75848459D01*
X79890225Y-75811051D01*
X79882975Y-75783996D01*
X79882974Y-75783991D01*
X79793371Y-75591836D01*
X79793369Y-75591833D01*
X79793368Y-75591831D01*
X79671764Y-75418163D01*
X79671759Y-75418157D01*
X79521842Y-75268240D01*
X79521836Y-75268235D01*
X79348168Y-75146631D01*
X79348164Y-75146629D01*
X79156009Y-75057026D01*
X79156005Y-75057025D01*
X79156001Y-75057023D01*
X79128949Y-75049775D01*
X79069288Y-75013410D01*
X79038759Y-74950563D01*
X79047054Y-74881188D01*
X79091539Y-74827310D01*
X79128949Y-74810225D01*
X79146930Y-74805406D01*
X79156009Y-74802974D01*
X79348164Y-74713371D01*
X79521841Y-74591761D01*
X79671761Y-74441841D01*
X79793371Y-74268164D01*
X79882974Y-74076009D01*
X79890225Y-74048949D01*
X79926590Y-73989288D01*
X79989437Y-73958759D01*
X80058812Y-73967054D01*
G37*
%TD.AperFunction*%
%TD*%
M02*
