%TF.GenerationSoftware,KiCad,Pcbnew,7.0.8*%
%TF.CreationDate,2023-11-13T09:49:43+00:00*%
%TF.ProjectId,rom-cart,726f6d2d-6361-4727-942e-6b696361645f,rev?*%
%TF.SameCoordinates,Original*%
%TF.FileFunction,Legend,Top*%
%TF.FilePolarity,Positive*%
%FSLAX46Y46*%
G04 Gerber Fmt 4.6, Leading zero omitted, Abs format (unit mm)*
G04 Created by KiCad (PCBNEW 7.0.8) date 2023-11-13 09:49:43*
%MOMM*%
%LPD*%
G01*
G04 APERTURE LIST*
%ADD10C,0.150000*%
%ADD11C,0.400000*%
%ADD12C,0.160000*%
%ADD13C,0.200000*%
%ADD14C,0.120000*%
%ADD15C,0.300000*%
G04 APERTURE END LIST*
D10*
X43093095Y-61687152D02*
X43474047Y-61687152D01*
X43235952Y-62353819D02*
X43235952Y-61496676D01*
X43235952Y-61496676D02*
X43283571Y-61401438D01*
X43283571Y-61401438D02*
X43378809Y-61353819D01*
X43378809Y-61353819D02*
X43474047Y-61353819D01*
X43950238Y-62353819D02*
X43855000Y-62306200D01*
X43855000Y-62306200D02*
X43807381Y-62258580D01*
X43807381Y-62258580D02*
X43759762Y-62163342D01*
X43759762Y-62163342D02*
X43759762Y-61877628D01*
X43759762Y-61877628D02*
X43807381Y-61782390D01*
X43807381Y-61782390D02*
X43855000Y-61734771D01*
X43855000Y-61734771D02*
X43950238Y-61687152D01*
X43950238Y-61687152D02*
X44093095Y-61687152D01*
X44093095Y-61687152D02*
X44188333Y-61734771D01*
X44188333Y-61734771D02*
X44235952Y-61782390D01*
X44235952Y-61782390D02*
X44283571Y-61877628D01*
X44283571Y-61877628D02*
X44283571Y-62163342D01*
X44283571Y-62163342D02*
X44235952Y-62258580D01*
X44235952Y-62258580D02*
X44188333Y-62306200D01*
X44188333Y-62306200D02*
X44093095Y-62353819D01*
X44093095Y-62353819D02*
X43950238Y-62353819D01*
X44712143Y-62353819D02*
X44712143Y-61687152D01*
X44712143Y-61877628D02*
X44759762Y-61782390D01*
X44759762Y-61782390D02*
X44807381Y-61734771D01*
X44807381Y-61734771D02*
X44902619Y-61687152D01*
X44902619Y-61687152D02*
X44997857Y-61687152D01*
X46093096Y-62353819D02*
X46093096Y-61353819D01*
X46664524Y-62353819D02*
X46235953Y-61782390D01*
X46664524Y-61353819D02*
X46093096Y-61925247D01*
X47093096Y-62353819D02*
X47093096Y-61353819D01*
X47426429Y-61353819D02*
X47997857Y-61353819D01*
X47712143Y-62353819D02*
X47712143Y-61353819D01*
X48188334Y-61353819D02*
X48759762Y-61353819D01*
X48474048Y-62353819D02*
X48474048Y-61353819D01*
X49283572Y-61877628D02*
X49283572Y-62353819D01*
X48950239Y-61353819D02*
X49283572Y-61877628D01*
X49283572Y-61877628D02*
X49616905Y-61353819D01*
D11*
X43784856Y-59646819D02*
X43118189Y-59646819D01*
X43118189Y-60694438D02*
X43118189Y-58694438D01*
X43118189Y-58694438D02*
X44070570Y-58694438D01*
X45784856Y-60694438D02*
X44832475Y-60694438D01*
X44832475Y-60694438D02*
X44832475Y-58694438D01*
X46356285Y-60123009D02*
X47308666Y-60123009D01*
X46165809Y-60694438D02*
X46832475Y-58694438D01*
X46832475Y-58694438D02*
X47499142Y-60694438D01*
X48070571Y-60599200D02*
X48356285Y-60694438D01*
X48356285Y-60694438D02*
X48832476Y-60694438D01*
X48832476Y-60694438D02*
X49022952Y-60599200D01*
X49022952Y-60599200D02*
X49118190Y-60503961D01*
X49118190Y-60503961D02*
X49213428Y-60313485D01*
X49213428Y-60313485D02*
X49213428Y-60123009D01*
X49213428Y-60123009D02*
X49118190Y-59932533D01*
X49118190Y-59932533D02*
X49022952Y-59837295D01*
X49022952Y-59837295D02*
X48832476Y-59742057D01*
X48832476Y-59742057D02*
X48451523Y-59646819D01*
X48451523Y-59646819D02*
X48261047Y-59551580D01*
X48261047Y-59551580D02*
X48165809Y-59456342D01*
X48165809Y-59456342D02*
X48070571Y-59265866D01*
X48070571Y-59265866D02*
X48070571Y-59075390D01*
X48070571Y-59075390D02*
X48165809Y-58884914D01*
X48165809Y-58884914D02*
X48261047Y-58789676D01*
X48261047Y-58789676D02*
X48451523Y-58694438D01*
X48451523Y-58694438D02*
X48927714Y-58694438D01*
X48927714Y-58694438D02*
X49213428Y-58789676D01*
X50070571Y-60694438D02*
X50070571Y-58694438D01*
X50070571Y-59646819D02*
X51213428Y-59646819D01*
X51213428Y-60694438D02*
X51213428Y-58694438D01*
X54832476Y-60694438D02*
X54165809Y-59742057D01*
X53689619Y-60694438D02*
X53689619Y-58694438D01*
X53689619Y-58694438D02*
X54451524Y-58694438D01*
X54451524Y-58694438D02*
X54642000Y-58789676D01*
X54642000Y-58789676D02*
X54737238Y-58884914D01*
X54737238Y-58884914D02*
X54832476Y-59075390D01*
X54832476Y-59075390D02*
X54832476Y-59361104D01*
X54832476Y-59361104D02*
X54737238Y-59551580D01*
X54737238Y-59551580D02*
X54642000Y-59646819D01*
X54642000Y-59646819D02*
X54451524Y-59742057D01*
X54451524Y-59742057D02*
X53689619Y-59742057D01*
X56070571Y-58694438D02*
X56451524Y-58694438D01*
X56451524Y-58694438D02*
X56642000Y-58789676D01*
X56642000Y-58789676D02*
X56832476Y-58980152D01*
X56832476Y-58980152D02*
X56927714Y-59361104D01*
X56927714Y-59361104D02*
X56927714Y-60027771D01*
X56927714Y-60027771D02*
X56832476Y-60408723D01*
X56832476Y-60408723D02*
X56642000Y-60599200D01*
X56642000Y-60599200D02*
X56451524Y-60694438D01*
X56451524Y-60694438D02*
X56070571Y-60694438D01*
X56070571Y-60694438D02*
X55880095Y-60599200D01*
X55880095Y-60599200D02*
X55689619Y-60408723D01*
X55689619Y-60408723D02*
X55594381Y-60027771D01*
X55594381Y-60027771D02*
X55594381Y-59361104D01*
X55594381Y-59361104D02*
X55689619Y-58980152D01*
X55689619Y-58980152D02*
X55880095Y-58789676D01*
X55880095Y-58789676D02*
X56070571Y-58694438D01*
X57784857Y-60694438D02*
X57784857Y-58694438D01*
X57784857Y-58694438D02*
X58451524Y-60123009D01*
X58451524Y-60123009D02*
X59118190Y-58694438D01*
X59118190Y-58694438D02*
X59118190Y-60694438D01*
X62546762Y-58694438D02*
X61594381Y-58694438D01*
X61594381Y-58694438D02*
X61499143Y-59646819D01*
X61499143Y-59646819D02*
X61594381Y-59551580D01*
X61594381Y-59551580D02*
X61784857Y-59456342D01*
X61784857Y-59456342D02*
X62261048Y-59456342D01*
X62261048Y-59456342D02*
X62451524Y-59551580D01*
X62451524Y-59551580D02*
X62546762Y-59646819D01*
X62546762Y-59646819D02*
X62642000Y-59837295D01*
X62642000Y-59837295D02*
X62642000Y-60313485D01*
X62642000Y-60313485D02*
X62546762Y-60503961D01*
X62546762Y-60503961D02*
X62451524Y-60599200D01*
X62451524Y-60599200D02*
X62261048Y-60694438D01*
X62261048Y-60694438D02*
X61784857Y-60694438D01*
X61784857Y-60694438D02*
X61594381Y-60599200D01*
X61594381Y-60599200D02*
X61499143Y-60503961D01*
X64546762Y-60694438D02*
X63403905Y-60694438D01*
X63975333Y-60694438D02*
X63975333Y-58694438D01*
X63975333Y-58694438D02*
X63784857Y-58980152D01*
X63784857Y-58980152D02*
X63594381Y-59170628D01*
X63594381Y-59170628D02*
X63403905Y-59265866D01*
X65308667Y-58884914D02*
X65403905Y-58789676D01*
X65403905Y-58789676D02*
X65594381Y-58694438D01*
X65594381Y-58694438D02*
X66070572Y-58694438D01*
X66070572Y-58694438D02*
X66261048Y-58789676D01*
X66261048Y-58789676D02*
X66356286Y-58884914D01*
X66356286Y-58884914D02*
X66451524Y-59075390D01*
X66451524Y-59075390D02*
X66451524Y-59265866D01*
X66451524Y-59265866D02*
X66356286Y-59551580D01*
X66356286Y-59551580D02*
X65213429Y-60694438D01*
X65213429Y-60694438D02*
X66451524Y-60694438D01*
X67308667Y-60694438D02*
X67308667Y-58694438D01*
X68451524Y-60694438D02*
X67594381Y-59551580D01*
X68451524Y-58694438D02*
X67308667Y-59837295D01*
X69308667Y-60694438D02*
X69308667Y-58694438D01*
X69308667Y-59456342D02*
X69499143Y-59361104D01*
X69499143Y-59361104D02*
X69880096Y-59361104D01*
X69880096Y-59361104D02*
X70070572Y-59456342D01*
X70070572Y-59456342D02*
X70165810Y-59551580D01*
X70165810Y-59551580D02*
X70261048Y-59742057D01*
X70261048Y-59742057D02*
X70261048Y-60313485D01*
X70261048Y-60313485D02*
X70165810Y-60503961D01*
X70165810Y-60503961D02*
X70070572Y-60599200D01*
X70070572Y-60599200D02*
X69880096Y-60694438D01*
X69880096Y-60694438D02*
X69499143Y-60694438D01*
X69499143Y-60694438D02*
X69308667Y-60599200D01*
D10*
X69546933Y-61356952D02*
X69785028Y-62023619D01*
X69785028Y-62023619D02*
X70023123Y-61356952D01*
X70594552Y-61023619D02*
X70689790Y-61023619D01*
X70689790Y-61023619D02*
X70785028Y-61071238D01*
X70785028Y-61071238D02*
X70832647Y-61118857D01*
X70832647Y-61118857D02*
X70880266Y-61214095D01*
X70880266Y-61214095D02*
X70927885Y-61404571D01*
X70927885Y-61404571D02*
X70927885Y-61642666D01*
X70927885Y-61642666D02*
X70880266Y-61833142D01*
X70880266Y-61833142D02*
X70832647Y-61928380D01*
X70832647Y-61928380D02*
X70785028Y-61976000D01*
X70785028Y-61976000D02*
X70689790Y-62023619D01*
X70689790Y-62023619D02*
X70594552Y-62023619D01*
X70594552Y-62023619D02*
X70499314Y-61976000D01*
X70499314Y-61976000D02*
X70451695Y-61928380D01*
X70451695Y-61928380D02*
X70404076Y-61833142D01*
X70404076Y-61833142D02*
X70356457Y-61642666D01*
X70356457Y-61642666D02*
X70356457Y-61404571D01*
X70356457Y-61404571D02*
X70404076Y-61214095D01*
X70404076Y-61214095D02*
X70451695Y-61118857D01*
X70451695Y-61118857D02*
X70499314Y-61071238D01*
X70499314Y-61071238D02*
X70594552Y-61023619D01*
X71785028Y-62023619D02*
X71785028Y-61499809D01*
X71785028Y-61499809D02*
X71737409Y-61404571D01*
X71737409Y-61404571D02*
X71642171Y-61356952D01*
X71642171Y-61356952D02*
X71451695Y-61356952D01*
X71451695Y-61356952D02*
X71356457Y-61404571D01*
X71785028Y-61976000D02*
X71689790Y-62023619D01*
X71689790Y-62023619D02*
X71451695Y-62023619D01*
X71451695Y-62023619D02*
X71356457Y-61976000D01*
X71356457Y-61976000D02*
X71308838Y-61880761D01*
X71308838Y-61880761D02*
X71308838Y-61785523D01*
X71308838Y-61785523D02*
X71356457Y-61690285D01*
X71356457Y-61690285D02*
X71451695Y-61642666D01*
X71451695Y-61642666D02*
X71689790Y-61642666D01*
X71689790Y-61642666D02*
X71785028Y-61595047D01*
X50210009Y-71634152D02*
X50590961Y-71634152D01*
X50352866Y-71300819D02*
X50352866Y-72157961D01*
X50352866Y-72157961D02*
X50400485Y-72253200D01*
X50400485Y-72253200D02*
X50495723Y-72300819D01*
X50495723Y-72300819D02*
X50590961Y-72300819D01*
X50924295Y-72300819D02*
X50924295Y-71300819D01*
X51352866Y-72300819D02*
X51352866Y-71777009D01*
X51352866Y-71777009D02*
X51305247Y-71681771D01*
X51305247Y-71681771D02*
X51210009Y-71634152D01*
X51210009Y-71634152D02*
X51067152Y-71634152D01*
X51067152Y-71634152D02*
X50971914Y-71681771D01*
X50971914Y-71681771D02*
X50924295Y-71729390D01*
X51829057Y-72300819D02*
X51829057Y-71634152D01*
X51829057Y-71300819D02*
X51781438Y-71348438D01*
X51781438Y-71348438D02*
X51829057Y-71396057D01*
X51829057Y-71396057D02*
X51876676Y-71348438D01*
X51876676Y-71348438D02*
X51829057Y-71300819D01*
X51829057Y-71300819D02*
X51829057Y-71396057D01*
X52257628Y-72253200D02*
X52352866Y-72300819D01*
X52352866Y-72300819D02*
X52543342Y-72300819D01*
X52543342Y-72300819D02*
X52638580Y-72253200D01*
X52638580Y-72253200D02*
X52686199Y-72157961D01*
X52686199Y-72157961D02*
X52686199Y-72110342D01*
X52686199Y-72110342D02*
X52638580Y-72015104D01*
X52638580Y-72015104D02*
X52543342Y-71967485D01*
X52543342Y-71967485D02*
X52400485Y-71967485D01*
X52400485Y-71967485D02*
X52305247Y-71919866D01*
X52305247Y-71919866D02*
X52257628Y-71824628D01*
X52257628Y-71824628D02*
X52257628Y-71777009D01*
X52257628Y-71777009D02*
X52305247Y-71681771D01*
X52305247Y-71681771D02*
X52400485Y-71634152D01*
X52400485Y-71634152D02*
X52543342Y-71634152D01*
X52543342Y-71634152D02*
X52638580Y-71681771D01*
X53829057Y-72253200D02*
X53924295Y-72300819D01*
X53924295Y-72300819D02*
X54114771Y-72300819D01*
X54114771Y-72300819D02*
X54210009Y-72253200D01*
X54210009Y-72253200D02*
X54257628Y-72157961D01*
X54257628Y-72157961D02*
X54257628Y-72110342D01*
X54257628Y-72110342D02*
X54210009Y-72015104D01*
X54210009Y-72015104D02*
X54114771Y-71967485D01*
X54114771Y-71967485D02*
X53971914Y-71967485D01*
X53971914Y-71967485D02*
X53876676Y-71919866D01*
X53876676Y-71919866D02*
X53829057Y-71824628D01*
X53829057Y-71824628D02*
X53829057Y-71777009D01*
X53829057Y-71777009D02*
X53876676Y-71681771D01*
X53876676Y-71681771D02*
X53971914Y-71634152D01*
X53971914Y-71634152D02*
X54114771Y-71634152D01*
X54114771Y-71634152D02*
X54210009Y-71681771D01*
X54686200Y-72300819D02*
X54686200Y-71634152D01*
X54686200Y-71300819D02*
X54638581Y-71348438D01*
X54638581Y-71348438D02*
X54686200Y-71396057D01*
X54686200Y-71396057D02*
X54733819Y-71348438D01*
X54733819Y-71348438D02*
X54686200Y-71300819D01*
X54686200Y-71300819D02*
X54686200Y-71396057D01*
X55590961Y-72300819D02*
X55590961Y-71300819D01*
X55590961Y-72253200D02*
X55495723Y-72300819D01*
X55495723Y-72300819D02*
X55305247Y-72300819D01*
X55305247Y-72300819D02*
X55210009Y-72253200D01*
X55210009Y-72253200D02*
X55162390Y-72205580D01*
X55162390Y-72205580D02*
X55114771Y-72110342D01*
X55114771Y-72110342D02*
X55114771Y-71824628D01*
X55114771Y-71824628D02*
X55162390Y-71729390D01*
X55162390Y-71729390D02*
X55210009Y-71681771D01*
X55210009Y-71681771D02*
X55305247Y-71634152D01*
X55305247Y-71634152D02*
X55495723Y-71634152D01*
X55495723Y-71634152D02*
X55590961Y-71681771D01*
X56448104Y-72253200D02*
X56352866Y-72300819D01*
X56352866Y-72300819D02*
X56162390Y-72300819D01*
X56162390Y-72300819D02*
X56067152Y-72253200D01*
X56067152Y-72253200D02*
X56019533Y-72157961D01*
X56019533Y-72157961D02*
X56019533Y-71777009D01*
X56019533Y-71777009D02*
X56067152Y-71681771D01*
X56067152Y-71681771D02*
X56162390Y-71634152D01*
X56162390Y-71634152D02*
X56352866Y-71634152D01*
X56352866Y-71634152D02*
X56448104Y-71681771D01*
X56448104Y-71681771D02*
X56495723Y-71777009D01*
X56495723Y-71777009D02*
X56495723Y-71872247D01*
X56495723Y-71872247D02*
X56019533Y-71967485D01*
X58114771Y-71634152D02*
X58114771Y-72300819D01*
X57686200Y-71634152D02*
X57686200Y-72157961D01*
X57686200Y-72157961D02*
X57733819Y-72253200D01*
X57733819Y-72253200D02*
X57829057Y-72300819D01*
X57829057Y-72300819D02*
X57971914Y-72300819D01*
X57971914Y-72300819D02*
X58067152Y-72253200D01*
X58067152Y-72253200D02*
X58114771Y-72205580D01*
X58590962Y-71634152D02*
X58590962Y-72634152D01*
X58590962Y-71681771D02*
X58686200Y-71634152D01*
X58686200Y-71634152D02*
X58876676Y-71634152D01*
X58876676Y-71634152D02*
X58971914Y-71681771D01*
X58971914Y-71681771D02*
X59019533Y-71729390D01*
X59019533Y-71729390D02*
X59067152Y-71824628D01*
X59067152Y-71824628D02*
X59067152Y-72110342D01*
X59067152Y-72110342D02*
X59019533Y-72205580D01*
X59019533Y-72205580D02*
X58971914Y-72253200D01*
X58971914Y-72253200D02*
X58876676Y-72300819D01*
X58876676Y-72300819D02*
X58686200Y-72300819D01*
X58686200Y-72300819D02*
X58590962Y-72253200D01*
X54686200Y-73910819D02*
X54686200Y-73148914D01*
X54495724Y-73339390D02*
X54686200Y-73148914D01*
X54686200Y-73148914D02*
X54876676Y-73339390D01*
D12*
X88455713Y-81114299D02*
X87998570Y-81114299D01*
X88227142Y-81114299D02*
X88227142Y-80114299D01*
X88227142Y-80114299D02*
X88150951Y-80257156D01*
X88150951Y-80257156D02*
X88074761Y-80352394D01*
X88074761Y-80352394D02*
X87998570Y-80400013D01*
X88798571Y-81114299D02*
X88798571Y-80114299D01*
X88798571Y-80114299D02*
X89255714Y-81114299D01*
X89255714Y-81114299D02*
X89255714Y-80114299D01*
X89979523Y-80447632D02*
X89979523Y-81114299D01*
X89789047Y-80066680D02*
X89598570Y-80780965D01*
X89598570Y-80780965D02*
X90093809Y-80780965D01*
X90817618Y-81114299D02*
X90360475Y-81114299D01*
X90589047Y-81114299D02*
X90589047Y-80114299D01*
X90589047Y-80114299D02*
X90512856Y-80257156D01*
X90512856Y-80257156D02*
X90436666Y-80352394D01*
X90436666Y-80352394D02*
X90360475Y-80400013D01*
X91503333Y-80447632D02*
X91503333Y-81114299D01*
X91312857Y-80066680D02*
X91122380Y-80780965D01*
X91122380Y-80780965D02*
X91617619Y-80780965D01*
X92036666Y-80542870D02*
X91960476Y-80495251D01*
X91960476Y-80495251D02*
X91922381Y-80447632D01*
X91922381Y-80447632D02*
X91884285Y-80352394D01*
X91884285Y-80352394D02*
X91884285Y-80304775D01*
X91884285Y-80304775D02*
X91922381Y-80209537D01*
X91922381Y-80209537D02*
X91960476Y-80161918D01*
X91960476Y-80161918D02*
X92036666Y-80114299D01*
X92036666Y-80114299D02*
X92189047Y-80114299D01*
X92189047Y-80114299D02*
X92265238Y-80161918D01*
X92265238Y-80161918D02*
X92303333Y-80209537D01*
X92303333Y-80209537D02*
X92341428Y-80304775D01*
X92341428Y-80304775D02*
X92341428Y-80352394D01*
X92341428Y-80352394D02*
X92303333Y-80447632D01*
X92303333Y-80447632D02*
X92265238Y-80495251D01*
X92265238Y-80495251D02*
X92189047Y-80542870D01*
X92189047Y-80542870D02*
X92036666Y-80542870D01*
X92036666Y-80542870D02*
X91960476Y-80590489D01*
X91960476Y-80590489D02*
X91922381Y-80638108D01*
X91922381Y-80638108D02*
X91884285Y-80733346D01*
X91884285Y-80733346D02*
X91884285Y-80923822D01*
X91884285Y-80923822D02*
X91922381Y-81019060D01*
X91922381Y-81019060D02*
X91960476Y-81066680D01*
X91960476Y-81066680D02*
X92036666Y-81114299D01*
X92036666Y-81114299D02*
X92189047Y-81114299D01*
X92189047Y-81114299D02*
X92265238Y-81066680D01*
X92265238Y-81066680D02*
X92303333Y-81019060D01*
X92303333Y-81019060D02*
X92341428Y-80923822D01*
X92341428Y-80923822D02*
X92341428Y-80733346D01*
X92341428Y-80733346D02*
X92303333Y-80638108D01*
X92303333Y-80638108D02*
X92265238Y-80590489D01*
X92265238Y-80590489D02*
X92189047Y-80542870D01*
X73671904Y-59509299D02*
X73214761Y-59509299D01*
X73443333Y-59509299D02*
X73443333Y-58509299D01*
X73443333Y-58509299D02*
X73367142Y-58652156D01*
X73367142Y-58652156D02*
X73290952Y-58747394D01*
X73290952Y-58747394D02*
X73214761Y-58795013D01*
X74167143Y-58509299D02*
X74243333Y-58509299D01*
X74243333Y-58509299D02*
X74319524Y-58556918D01*
X74319524Y-58556918D02*
X74357619Y-58604537D01*
X74357619Y-58604537D02*
X74395714Y-58699775D01*
X74395714Y-58699775D02*
X74433809Y-58890251D01*
X74433809Y-58890251D02*
X74433809Y-59128346D01*
X74433809Y-59128346D02*
X74395714Y-59318822D01*
X74395714Y-59318822D02*
X74357619Y-59414060D01*
X74357619Y-59414060D02*
X74319524Y-59461680D01*
X74319524Y-59461680D02*
X74243333Y-59509299D01*
X74243333Y-59509299D02*
X74167143Y-59509299D01*
X74167143Y-59509299D02*
X74090952Y-59461680D01*
X74090952Y-59461680D02*
X74052857Y-59414060D01*
X74052857Y-59414060D02*
X74014762Y-59318822D01*
X74014762Y-59318822D02*
X73976666Y-59128346D01*
X73976666Y-59128346D02*
X73976666Y-58890251D01*
X73976666Y-58890251D02*
X74014762Y-58699775D01*
X74014762Y-58699775D02*
X74052857Y-58604537D01*
X74052857Y-58604537D02*
X74090952Y-58556918D01*
X74090952Y-58556918D02*
X74167143Y-58509299D01*
X74929048Y-58509299D02*
X75005238Y-58509299D01*
X75005238Y-58509299D02*
X75081429Y-58556918D01*
X75081429Y-58556918D02*
X75119524Y-58604537D01*
X75119524Y-58604537D02*
X75157619Y-58699775D01*
X75157619Y-58699775D02*
X75195714Y-58890251D01*
X75195714Y-58890251D02*
X75195714Y-59128346D01*
X75195714Y-59128346D02*
X75157619Y-59318822D01*
X75157619Y-59318822D02*
X75119524Y-59414060D01*
X75119524Y-59414060D02*
X75081429Y-59461680D01*
X75081429Y-59461680D02*
X75005238Y-59509299D01*
X75005238Y-59509299D02*
X74929048Y-59509299D01*
X74929048Y-59509299D02*
X74852857Y-59461680D01*
X74852857Y-59461680D02*
X74814762Y-59414060D01*
X74814762Y-59414060D02*
X74776667Y-59318822D01*
X74776667Y-59318822D02*
X74738571Y-59128346D01*
X74738571Y-59128346D02*
X74738571Y-58890251D01*
X74738571Y-58890251D02*
X74776667Y-58699775D01*
X74776667Y-58699775D02*
X74814762Y-58604537D01*
X74814762Y-58604537D02*
X74852857Y-58556918D01*
X74852857Y-58556918D02*
X74929048Y-58509299D01*
X75538572Y-58842632D02*
X75538572Y-59509299D01*
X75538572Y-58937870D02*
X75576667Y-58890251D01*
X75576667Y-58890251D02*
X75652857Y-58842632D01*
X75652857Y-58842632D02*
X75767143Y-58842632D01*
X75767143Y-58842632D02*
X75843334Y-58890251D01*
X75843334Y-58890251D02*
X75881429Y-58985489D01*
X75881429Y-58985489D02*
X75881429Y-59509299D01*
X76529048Y-58985489D02*
X76262382Y-58985489D01*
X76262382Y-59509299D02*
X76262382Y-58509299D01*
X76262382Y-58509299D02*
X76643334Y-58509299D01*
D13*
X89160475Y-74112219D02*
X88703332Y-74112219D01*
X88931904Y-74112219D02*
X88931904Y-73112219D01*
X88931904Y-73112219D02*
X88855713Y-73255076D01*
X88855713Y-73255076D02*
X88779523Y-73350314D01*
X88779523Y-73350314D02*
X88703332Y-73397933D01*
X89655714Y-73112219D02*
X89731904Y-73112219D01*
X89731904Y-73112219D02*
X89808095Y-73159838D01*
X89808095Y-73159838D02*
X89846190Y-73207457D01*
X89846190Y-73207457D02*
X89884285Y-73302695D01*
X89884285Y-73302695D02*
X89922380Y-73493171D01*
X89922380Y-73493171D02*
X89922380Y-73731266D01*
X89922380Y-73731266D02*
X89884285Y-73921742D01*
X89884285Y-73921742D02*
X89846190Y-74016980D01*
X89846190Y-74016980D02*
X89808095Y-74064600D01*
X89808095Y-74064600D02*
X89731904Y-74112219D01*
X89731904Y-74112219D02*
X89655714Y-74112219D01*
X89655714Y-74112219D02*
X89579523Y-74064600D01*
X89579523Y-74064600D02*
X89541428Y-74016980D01*
X89541428Y-74016980D02*
X89503333Y-73921742D01*
X89503333Y-73921742D02*
X89465237Y-73731266D01*
X89465237Y-73731266D02*
X89465237Y-73493171D01*
X89465237Y-73493171D02*
X89503333Y-73302695D01*
X89503333Y-73302695D02*
X89541428Y-73207457D01*
X89541428Y-73207457D02*
X89579523Y-73159838D01*
X89579523Y-73159838D02*
X89655714Y-73112219D01*
X90265238Y-74112219D02*
X90265238Y-73112219D01*
X90722381Y-74112219D02*
X90379523Y-73540790D01*
X90722381Y-73112219D02*
X90265238Y-73683647D01*
X91027142Y-74112219D02*
X91217619Y-74112219D01*
X91217619Y-74112219D02*
X91217619Y-73921742D01*
X91217619Y-73921742D02*
X91141428Y-73874123D01*
X91141428Y-73874123D02*
X91065238Y-73778885D01*
X91065238Y-73778885D02*
X91027142Y-73636028D01*
X91027142Y-73636028D02*
X91027142Y-73397933D01*
X91027142Y-73397933D02*
X91065238Y-73255076D01*
X91065238Y-73255076D02*
X91141428Y-73159838D01*
X91141428Y-73159838D02*
X91255714Y-73112219D01*
X91255714Y-73112219D02*
X91408095Y-73112219D01*
X91408095Y-73112219D02*
X91522381Y-73159838D01*
X91522381Y-73159838D02*
X91598571Y-73255076D01*
X91598571Y-73255076D02*
X91636666Y-73397933D01*
X91636666Y-73397933D02*
X91636666Y-73636028D01*
X91636666Y-73636028D02*
X91598571Y-73778885D01*
X91598571Y-73778885D02*
X91522381Y-73874123D01*
X91522381Y-73874123D02*
X91446190Y-73921742D01*
X91446190Y-73921742D02*
X91446190Y-74112219D01*
X91446190Y-74112219D02*
X91636666Y-74112219D01*
D14*
%TO.C,D1*%
X87345000Y-78740000D02*
X88525000Y-78740000D01*
X88525000Y-77820000D02*
X88525000Y-79660000D01*
X88525000Y-79660000D02*
X91805000Y-79660000D01*
X88981000Y-77820000D02*
X88981000Y-79660000D01*
X89101000Y-77820000D02*
X89101000Y-79660000D01*
X89221000Y-77820000D02*
X89221000Y-79660000D01*
X91805000Y-77820000D02*
X88525000Y-77820000D01*
X91805000Y-79660000D02*
X91805000Y-77820000D01*
X92985000Y-78740000D02*
X91805000Y-78740000D01*
%TO.C,C1*%
X74281000Y-60040000D02*
X75539000Y-60040000D01*
X74281000Y-61880000D02*
X75539000Y-61880000D01*
%TO.C,U1*%
X65805000Y-64260000D02*
X65805000Y-84060000D01*
X65805000Y-84060000D02*
X84055000Y-84060000D01*
X66805000Y-63260000D02*
X65805000Y-64260000D01*
X74422000Y-63260000D02*
X66805000Y-63260000D01*
X84055000Y-63260000D02*
X75438000Y-63260000D01*
X84055000Y-84060000D02*
X84055000Y-63260000D01*
D15*
X74993500Y-63246000D02*
G75*
G03*
X74993500Y-63246000I-63500J0D01*
G01*
D14*
%TO.C,D2*%
X87345000Y-76200000D02*
X88525000Y-76200000D01*
X88525000Y-75280000D02*
X88525000Y-77120000D01*
X88525000Y-77120000D02*
X91805000Y-77120000D01*
X88981000Y-75280000D02*
X88981000Y-77120000D01*
X89101000Y-75280000D02*
X89101000Y-77120000D01*
X89221000Y-75280000D02*
X89221000Y-77120000D01*
X91805000Y-75280000D02*
X88525000Y-75280000D01*
X91805000Y-77120000D02*
X91805000Y-75280000D01*
X92985000Y-76200000D02*
X91805000Y-76200000D01*
%TO.C,R1*%
X93035000Y-73660000D02*
X92085000Y-73660000D01*
X92085000Y-74580000D02*
X92085000Y-72740000D01*
X92085000Y-72740000D02*
X88245000Y-72740000D01*
X88245000Y-74580000D02*
X92085000Y-74580000D01*
X88245000Y-72740000D02*
X88245000Y-74580000D01*
X87295000Y-73660000D02*
X88245000Y-73660000D01*
%TD*%
M02*
