M48
; DRILL file {KiCad 7.0.8} date seg 13 nov 2023 09:49:16
; FORMAT={-:-/ absolute / inch / decimal}
; #@! TF.CreationDate,2023-11-13T09:49:16+00:00
; #@! TF.GenerationSoftware,Kicad,Pcbnew,7.0.8
; #@! TF.FileFunction,Plated,1,2,PTH
FMAT,2
INCH
; #@! TA.AperFunction,Plated,PTH,ViaDrill
T1C0.0157
; #@! TA.AperFunction,Plated,PTH,ComponentDrill
T2C0.0276
; #@! TA.AperFunction,Plated,PTH,ComponentDrill
T3C0.0295
; #@! TA.AperFunction,Plated,PTH,ComponentDrill
T4C0.0315
%
G90
G05
T1
X2.1285Y-3.2664
X2.1285Y-3.3116
X2.15Y-3.4
X2.24Y-2.94
X2.25Y-3.35
X2.29Y-2.99
X2.35Y-3.05
X2.35Y-3.3
X2.36Y-3.39
X2.4Y-3.1
X2.445Y-3.355
X2.45Y-3.2392
X2.48Y-3.11
X2.5417Y-3.2425
X2.56Y-3.425
X2.565Y-3.185
X2.62Y-2.85
X2.7Y-3.4
X2.765Y-3.45
X2.7875Y-3.3125
X2.84Y-3.26
X2.9774Y-3.3274
X3.0Y-3.0
X3.035Y-3.39
X3.1Y-3.45
X3.2Y-3.2
X3.305Y-2.875
X3.35Y-3.3
X3.4Y-2.8
X3.45Y-3.15
X3.45Y-3.4
X3.4577Y-3.3423
X3.5Y-3.25
X3.55Y-3.4
X3.65Y-2.7
X3.65Y-3.4
X3.75Y-3.4
X3.77Y-2.65
T2
X3.3998Y-2.9
X3.6998Y-2.9
T3
X3.3998Y-3.0
X3.3998Y-3.1
X3.6998Y-3.0
X3.6998Y-3.1
T4
X2.7Y-2.7
X2.7Y-2.8
X2.7Y-2.9
X2.7Y-3.0
X2.7Y-3.1
X2.8Y-2.6
X2.8Y-2.7
X2.8Y-2.8
X2.8Y-2.9
X2.8Y-3.0
X2.8Y-3.1
X2.8Y-3.2
X2.9Y-2.4
X2.9Y-2.6
X2.9Y-2.7
X2.9Y-3.1
X2.9Y-3.2
X2.9984Y-2.4
X3.0Y-2.6
X3.0Y-2.7
X3.0Y-3.1
X3.0Y-3.2
X3.1Y-2.6
X3.1Y-2.7
X3.1Y-2.8
X3.1Y-2.9
X3.1Y-3.0
X3.1Y-3.1
X3.1Y-3.2
X3.2Y-2.7
X3.2Y-2.8
X3.2Y-2.9
X3.2Y-3.0
X3.2Y-3.1
T0
M30
