%TF.GenerationSoftware,KiCad,Pcbnew,7.0.8*%
%TF.CreationDate,2023-11-13T09:49:44+00:00*%
%TF.ProjectId,rom-cart,726f6d2d-6361-4727-942e-6b696361645f,rev?*%
%TF.SameCoordinates,Original*%
%TF.FileFunction,Soldermask,Top*%
%TF.FilePolarity,Negative*%
%FSLAX46Y46*%
G04 Gerber Fmt 4.6, Leading zero omitted, Abs format (unit mm)*
G04 Created by KiCad (PCBNEW 7.0.8) date 2023-11-13 09:49:44*
%MOMM*%
%LPD*%
G01*
G04 APERTURE LIST*
G04 Aperture macros list*
%AMRoundRect*
0 Rectangle with rounded corners*
0 $1 Rounding radius*
0 $2 $3 $4 $5 $6 $7 $8 $9 X,Y pos of 4 corners*
0 Add a 4 corners polygon primitive as box body*
4,1,4,$2,$3,$4,$5,$6,$7,$8,$9,$2,$3,0*
0 Add four circle primitives for the rounded corners*
1,1,$1+$1,$2,$3*
1,1,$1+$1,$4,$5*
1,1,$1+$1,$6,$7*
1,1,$1+$1,$8,$9*
0 Add four rect primitives between the rounded corners*
20,1,$1+$1,$2,$3,$4,$5,0*
20,1,$1+$1,$4,$5,$6,$7,0*
20,1,$1+$1,$6,$7,$8,$9,0*
20,1,$1+$1,$8,$9,$2,$3,0*%
G04 Aperture macros list end*
%ADD10C,0.150000*%
%ADD11R,1.500000X1.500000*%
%ADD12O,1.500000X1.500000*%
%ADD13C,1.600000*%
%ADD14R,1.422400X1.422400*%
%ADD15C,1.422400*%
%ADD16RoundRect,0.508000X0.508000X2.464500X-0.508000X2.464500X-0.508000X-2.464500X0.508000X-2.464500X0*%
%ADD17RoundRect,0.508000X0.508000X2.468000X-0.508000X2.468000X-0.508000X-2.468000X0.508000X-2.468000X0*%
%ADD18C,1.400000*%
%ADD19O,1.400000X1.400000*%
G04 APERTURE END LIST*
D10*
X40640000Y-88900000D02*
X99060000Y-88900000D01*
X99060000Y-95250000D01*
X40640000Y-95250000D01*
X40640000Y-88900000D01*
G36*
X40640000Y-88900000D02*
G01*
X99060000Y-88900000D01*
X99060000Y-95250000D01*
X40640000Y-95250000D01*
X40640000Y-88900000D01*
G37*
D11*
%TO.C,D1*%
X86355000Y-78740000D03*
D12*
X93975000Y-78740000D03*
%TD*%
D13*
%TO.C,C1*%
X73660000Y-60960000D03*
X76160000Y-60960000D03*
%TD*%
D14*
%TO.C,U1*%
X76200000Y-68580000D03*
D15*
X73660000Y-66040000D03*
X73660000Y-68580000D03*
X71120000Y-66040000D03*
X68580000Y-68580000D03*
X71120000Y-68580000D03*
X68580000Y-71120000D03*
X71120000Y-71120000D03*
X68580000Y-73660000D03*
X71120000Y-73660000D03*
X68580000Y-76200000D03*
X71120000Y-76200000D03*
X68580000Y-78740000D03*
X71120000Y-81280000D03*
X71120000Y-78740000D03*
X73660000Y-81280000D03*
X73660000Y-78740000D03*
X76200000Y-81280000D03*
X76200000Y-78740000D03*
X78740000Y-81280000D03*
X81280000Y-78740000D03*
X78740000Y-78740000D03*
X81280000Y-76200000D03*
X78740000Y-76200000D03*
X81280000Y-73660000D03*
X78740000Y-73660000D03*
X81280000Y-71120000D03*
X78740000Y-71120000D03*
X81280000Y-68580000D03*
X78740000Y-66040000D03*
X78740000Y-68580000D03*
X76200000Y-66040000D03*
%TD*%
D11*
%TO.C,D2*%
X86355000Y-76200000D03*
D12*
X93975000Y-76200000D03*
%TD*%
D16*
%TO.C,J1*%
X96490000Y-91443500D03*
X93950000Y-91443500D03*
X91410000Y-91443500D03*
X88870000Y-91443500D03*
X86330000Y-91443500D03*
X83790000Y-91443500D03*
D17*
X81250000Y-91440000D03*
X78710000Y-91440000D03*
D16*
X76170000Y-91443500D03*
X73630000Y-91443500D03*
X71090000Y-91443500D03*
X68550000Y-91443500D03*
X66010000Y-91443500D03*
X63470000Y-91443500D03*
D17*
X60930000Y-91440000D03*
D16*
X58390000Y-91443500D03*
X55850000Y-91443500D03*
D17*
X53310000Y-91440000D03*
D16*
X50770000Y-91443500D03*
X48230000Y-91443500D03*
X45690000Y-91443500D03*
X43150000Y-91443500D03*
%TD*%
D18*
%TO.C,R1*%
X93975000Y-73660000D03*
D19*
X86355000Y-73660000D03*
%TD*%
M02*
