%TF.GenerationSoftware,KiCad,Pcbnew,7.0.10*%
%TF.CreationDate,2024-01-06T19:25:44+00:00*%
%TF.ProjectId,v1a,7631612e-6b69-4636-9164-5f7063625858,rev?*%
%TF.SameCoordinates,Original*%
%TF.FileFunction,Legend,Bot*%
%TF.FilePolarity,Positive*%
%FSLAX46Y46*%
G04 Gerber Fmt 4.6, Leading zero omitted, Abs format (unit mm)*
G04 Created by KiCad (PCBNEW 7.0.10) date 2024-01-06 19:25:44*
%MOMM*%
%LPD*%
G01*
G04 APERTURE LIST*
%ADD10C,0.150000*%
G04 APERTURE END LIST*
D10*
X51447506Y-86499819D02*
X51447506Y-87214104D01*
X51447506Y-87214104D02*
X51495125Y-87356961D01*
X51495125Y-87356961D02*
X51590363Y-87452200D01*
X51590363Y-87452200D02*
X51733220Y-87499819D01*
X51733220Y-87499819D02*
X51828458Y-87499819D01*
X50495125Y-87499819D02*
X50971315Y-87499819D01*
X50971315Y-87499819D02*
X50971315Y-86499819D01*
X49590363Y-87404580D02*
X49637982Y-87452200D01*
X49637982Y-87452200D02*
X49780839Y-87499819D01*
X49780839Y-87499819D02*
X49876077Y-87499819D01*
X49876077Y-87499819D02*
X50018934Y-87452200D01*
X50018934Y-87452200D02*
X50114172Y-87356961D01*
X50114172Y-87356961D02*
X50161791Y-87261723D01*
X50161791Y-87261723D02*
X50209410Y-87071247D01*
X50209410Y-87071247D02*
X50209410Y-86928390D01*
X50209410Y-86928390D02*
X50161791Y-86737914D01*
X50161791Y-86737914D02*
X50114172Y-86642676D01*
X50114172Y-86642676D02*
X50018934Y-86547438D01*
X50018934Y-86547438D02*
X49876077Y-86499819D01*
X49876077Y-86499819D02*
X49780839Y-86499819D01*
X49780839Y-86499819D02*
X49637982Y-86547438D01*
X49637982Y-86547438D02*
X49590363Y-86595057D01*
X48876077Y-86499819D02*
X48876077Y-87214104D01*
X48876077Y-87214104D02*
X48923696Y-87356961D01*
X48923696Y-87356961D02*
X49018934Y-87452200D01*
X49018934Y-87452200D02*
X49161791Y-87499819D01*
X49161791Y-87499819D02*
X49257029Y-87499819D01*
X47923696Y-87499819D02*
X48399886Y-87499819D01*
X48399886Y-87499819D02*
X48399886Y-86499819D01*
X47018934Y-87404580D02*
X47066553Y-87452200D01*
X47066553Y-87452200D02*
X47209410Y-87499819D01*
X47209410Y-87499819D02*
X47304648Y-87499819D01*
X47304648Y-87499819D02*
X47447505Y-87452200D01*
X47447505Y-87452200D02*
X47542743Y-87356961D01*
X47542743Y-87356961D02*
X47590362Y-87261723D01*
X47590362Y-87261723D02*
X47637981Y-87071247D01*
X47637981Y-87071247D02*
X47637981Y-86928390D01*
X47637981Y-86928390D02*
X47590362Y-86737914D01*
X47590362Y-86737914D02*
X47542743Y-86642676D01*
X47542743Y-86642676D02*
X47447505Y-86547438D01*
X47447505Y-86547438D02*
X47304648Y-86499819D01*
X47304648Y-86499819D02*
X47209410Y-86499819D01*
X47209410Y-86499819D02*
X47066553Y-86547438D01*
X47066553Y-86547438D02*
X47018934Y-86595057D01*
X46304648Y-86499819D02*
X46304648Y-87214104D01*
X46304648Y-87214104D02*
X46352267Y-87356961D01*
X46352267Y-87356961D02*
X46447505Y-87452200D01*
X46447505Y-87452200D02*
X46590362Y-87499819D01*
X46590362Y-87499819D02*
X46685600Y-87499819D01*
X45352267Y-87499819D02*
X45828457Y-87499819D01*
X45828457Y-87499819D02*
X45828457Y-86499819D01*
X44447505Y-87404580D02*
X44495124Y-87452200D01*
X44495124Y-87452200D02*
X44637981Y-87499819D01*
X44637981Y-87499819D02*
X44733219Y-87499819D01*
X44733219Y-87499819D02*
X44876076Y-87452200D01*
X44876076Y-87452200D02*
X44971314Y-87356961D01*
X44971314Y-87356961D02*
X45018933Y-87261723D01*
X45018933Y-87261723D02*
X45066552Y-87071247D01*
X45066552Y-87071247D02*
X45066552Y-86928390D01*
X45066552Y-86928390D02*
X45018933Y-86737914D01*
X45018933Y-86737914D02*
X44971314Y-86642676D01*
X44971314Y-86642676D02*
X44876076Y-86547438D01*
X44876076Y-86547438D02*
X44733219Y-86499819D01*
X44733219Y-86499819D02*
X44637981Y-86499819D01*
X44637981Y-86499819D02*
X44495124Y-86547438D01*
X44495124Y-86547438D02*
X44447505Y-86595057D01*
X43733219Y-86499819D02*
X43733219Y-87214104D01*
X43733219Y-87214104D02*
X43780838Y-87356961D01*
X43780838Y-87356961D02*
X43876076Y-87452200D01*
X43876076Y-87452200D02*
X44018933Y-87499819D01*
X44018933Y-87499819D02*
X44114171Y-87499819D01*
X42780838Y-87499819D02*
X43257028Y-87499819D01*
X43257028Y-87499819D02*
X43257028Y-86499819D01*
X41876076Y-87404580D02*
X41923695Y-87452200D01*
X41923695Y-87452200D02*
X42066552Y-87499819D01*
X42066552Y-87499819D02*
X42161790Y-87499819D01*
X42161790Y-87499819D02*
X42304647Y-87452200D01*
X42304647Y-87452200D02*
X42399885Y-87356961D01*
X42399885Y-87356961D02*
X42447504Y-87261723D01*
X42447504Y-87261723D02*
X42495123Y-87071247D01*
X42495123Y-87071247D02*
X42495123Y-86928390D01*
X42495123Y-86928390D02*
X42447504Y-86737914D01*
X42447504Y-86737914D02*
X42399885Y-86642676D01*
X42399885Y-86642676D02*
X42304647Y-86547438D01*
X42304647Y-86547438D02*
X42161790Y-86499819D01*
X42161790Y-86499819D02*
X42066552Y-86499819D01*
X42066552Y-86499819D02*
X41923695Y-86547438D01*
X41923695Y-86547438D02*
X41876076Y-86595057D01*
X96183220Y-58879819D02*
X96183220Y-57879819D01*
X96183220Y-57879819D02*
X95945125Y-57879819D01*
X95945125Y-57879819D02*
X95802268Y-57927438D01*
X95802268Y-57927438D02*
X95707030Y-58022676D01*
X95707030Y-58022676D02*
X95659411Y-58117914D01*
X95659411Y-58117914D02*
X95611792Y-58308390D01*
X95611792Y-58308390D02*
X95611792Y-58451247D01*
X95611792Y-58451247D02*
X95659411Y-58641723D01*
X95659411Y-58641723D02*
X95707030Y-58736961D01*
X95707030Y-58736961D02*
X95802268Y-58832200D01*
X95802268Y-58832200D02*
X95945125Y-58879819D01*
X95945125Y-58879819D02*
X96183220Y-58879819D01*
X94802268Y-58832200D02*
X94897506Y-58879819D01*
X94897506Y-58879819D02*
X95087982Y-58879819D01*
X95087982Y-58879819D02*
X95183220Y-58832200D01*
X95183220Y-58832200D02*
X95230839Y-58736961D01*
X95230839Y-58736961D02*
X95230839Y-58356009D01*
X95230839Y-58356009D02*
X95183220Y-58260771D01*
X95183220Y-58260771D02*
X95087982Y-58213152D01*
X95087982Y-58213152D02*
X94897506Y-58213152D01*
X94897506Y-58213152D02*
X94802268Y-58260771D01*
X94802268Y-58260771D02*
X94754649Y-58356009D01*
X94754649Y-58356009D02*
X94754649Y-58451247D01*
X94754649Y-58451247D02*
X95230839Y-58546485D01*
X94373696Y-58832200D02*
X94278458Y-58879819D01*
X94278458Y-58879819D02*
X94087982Y-58879819D01*
X94087982Y-58879819D02*
X93992744Y-58832200D01*
X93992744Y-58832200D02*
X93945125Y-58736961D01*
X93945125Y-58736961D02*
X93945125Y-58689342D01*
X93945125Y-58689342D02*
X93992744Y-58594104D01*
X93992744Y-58594104D02*
X94087982Y-58546485D01*
X94087982Y-58546485D02*
X94230839Y-58546485D01*
X94230839Y-58546485D02*
X94326077Y-58498866D01*
X94326077Y-58498866D02*
X94373696Y-58403628D01*
X94373696Y-58403628D02*
X94373696Y-58356009D01*
X94373696Y-58356009D02*
X94326077Y-58260771D01*
X94326077Y-58260771D02*
X94230839Y-58213152D01*
X94230839Y-58213152D02*
X94087982Y-58213152D01*
X94087982Y-58213152D02*
X93992744Y-58260771D01*
X93516553Y-58879819D02*
X93516553Y-58213152D01*
X93516553Y-57879819D02*
X93564172Y-57927438D01*
X93564172Y-57927438D02*
X93516553Y-57975057D01*
X93516553Y-57975057D02*
X93468934Y-57927438D01*
X93468934Y-57927438D02*
X93516553Y-57879819D01*
X93516553Y-57879819D02*
X93516553Y-57975057D01*
X92611792Y-58213152D02*
X92611792Y-59022676D01*
X92611792Y-59022676D02*
X92659411Y-59117914D01*
X92659411Y-59117914D02*
X92707030Y-59165533D01*
X92707030Y-59165533D02*
X92802268Y-59213152D01*
X92802268Y-59213152D02*
X92945125Y-59213152D01*
X92945125Y-59213152D02*
X93040363Y-59165533D01*
X92611792Y-58832200D02*
X92707030Y-58879819D01*
X92707030Y-58879819D02*
X92897506Y-58879819D01*
X92897506Y-58879819D02*
X92992744Y-58832200D01*
X92992744Y-58832200D02*
X93040363Y-58784580D01*
X93040363Y-58784580D02*
X93087982Y-58689342D01*
X93087982Y-58689342D02*
X93087982Y-58403628D01*
X93087982Y-58403628D02*
X93040363Y-58308390D01*
X93040363Y-58308390D02*
X92992744Y-58260771D01*
X92992744Y-58260771D02*
X92897506Y-58213152D01*
X92897506Y-58213152D02*
X92707030Y-58213152D01*
X92707030Y-58213152D02*
X92611792Y-58260771D01*
X92135601Y-58213152D02*
X92135601Y-58879819D01*
X92135601Y-58308390D02*
X92087982Y-58260771D01*
X92087982Y-58260771D02*
X91992744Y-58213152D01*
X91992744Y-58213152D02*
X91849887Y-58213152D01*
X91849887Y-58213152D02*
X91754649Y-58260771D01*
X91754649Y-58260771D02*
X91707030Y-58356009D01*
X91707030Y-58356009D02*
X91707030Y-58879819D01*
X90849887Y-58832200D02*
X90945125Y-58879819D01*
X90945125Y-58879819D02*
X91135601Y-58879819D01*
X91135601Y-58879819D02*
X91230839Y-58832200D01*
X91230839Y-58832200D02*
X91278458Y-58736961D01*
X91278458Y-58736961D02*
X91278458Y-58356009D01*
X91278458Y-58356009D02*
X91230839Y-58260771D01*
X91230839Y-58260771D02*
X91135601Y-58213152D01*
X91135601Y-58213152D02*
X90945125Y-58213152D01*
X90945125Y-58213152D02*
X90849887Y-58260771D01*
X90849887Y-58260771D02*
X90802268Y-58356009D01*
X90802268Y-58356009D02*
X90802268Y-58451247D01*
X90802268Y-58451247D02*
X91278458Y-58546485D01*
X89945125Y-58879819D02*
X89945125Y-57879819D01*
X89945125Y-58832200D02*
X90040363Y-58879819D01*
X90040363Y-58879819D02*
X90230839Y-58879819D01*
X90230839Y-58879819D02*
X90326077Y-58832200D01*
X90326077Y-58832200D02*
X90373696Y-58784580D01*
X90373696Y-58784580D02*
X90421315Y-58689342D01*
X90421315Y-58689342D02*
X90421315Y-58403628D01*
X90421315Y-58403628D02*
X90373696Y-58308390D01*
X90373696Y-58308390D02*
X90326077Y-58260771D01*
X90326077Y-58260771D02*
X90230839Y-58213152D01*
X90230839Y-58213152D02*
X90040363Y-58213152D01*
X90040363Y-58213152D02*
X89945125Y-58260771D01*
X88421315Y-57879819D02*
X88421315Y-58594104D01*
X88421315Y-58594104D02*
X88468934Y-58736961D01*
X88468934Y-58736961D02*
X88564172Y-58832200D01*
X88564172Y-58832200D02*
X88707029Y-58879819D01*
X88707029Y-58879819D02*
X88802267Y-58879819D01*
X87516553Y-58879819D02*
X87516553Y-58356009D01*
X87516553Y-58356009D02*
X87564172Y-58260771D01*
X87564172Y-58260771D02*
X87659410Y-58213152D01*
X87659410Y-58213152D02*
X87849886Y-58213152D01*
X87849886Y-58213152D02*
X87945124Y-58260771D01*
X87516553Y-58832200D02*
X87611791Y-58879819D01*
X87611791Y-58879819D02*
X87849886Y-58879819D01*
X87849886Y-58879819D02*
X87945124Y-58832200D01*
X87945124Y-58832200D02*
X87992743Y-58736961D01*
X87992743Y-58736961D02*
X87992743Y-58641723D01*
X87992743Y-58641723D02*
X87945124Y-58546485D01*
X87945124Y-58546485D02*
X87849886Y-58498866D01*
X87849886Y-58498866D02*
X87611791Y-58498866D01*
X87611791Y-58498866D02*
X87516553Y-58451247D01*
X87040362Y-58213152D02*
X87040362Y-58879819D01*
X87040362Y-58308390D02*
X86992743Y-58260771D01*
X86992743Y-58260771D02*
X86897505Y-58213152D01*
X86897505Y-58213152D02*
X86754648Y-58213152D01*
X86754648Y-58213152D02*
X86659410Y-58260771D01*
X86659410Y-58260771D02*
X86611791Y-58356009D01*
X86611791Y-58356009D02*
X86611791Y-58879819D01*
X85707029Y-58213152D02*
X85707029Y-58879819D01*
X86135600Y-58213152D02*
X86135600Y-58736961D01*
X86135600Y-58736961D02*
X86087981Y-58832200D01*
X86087981Y-58832200D02*
X85992743Y-58879819D01*
X85992743Y-58879819D02*
X85849886Y-58879819D01*
X85849886Y-58879819D02*
X85754648Y-58832200D01*
X85754648Y-58832200D02*
X85707029Y-58784580D01*
X84802267Y-58879819D02*
X84802267Y-58356009D01*
X84802267Y-58356009D02*
X84849886Y-58260771D01*
X84849886Y-58260771D02*
X84945124Y-58213152D01*
X84945124Y-58213152D02*
X85135600Y-58213152D01*
X85135600Y-58213152D02*
X85230838Y-58260771D01*
X84802267Y-58832200D02*
X84897505Y-58879819D01*
X84897505Y-58879819D02*
X85135600Y-58879819D01*
X85135600Y-58879819D02*
X85230838Y-58832200D01*
X85230838Y-58832200D02*
X85278457Y-58736961D01*
X85278457Y-58736961D02*
X85278457Y-58641723D01*
X85278457Y-58641723D02*
X85230838Y-58546485D01*
X85230838Y-58546485D02*
X85135600Y-58498866D01*
X85135600Y-58498866D02*
X84897505Y-58498866D01*
X84897505Y-58498866D02*
X84802267Y-58451247D01*
X84326076Y-58879819D02*
X84326076Y-58213152D01*
X84326076Y-58403628D02*
X84278457Y-58308390D01*
X84278457Y-58308390D02*
X84230838Y-58260771D01*
X84230838Y-58260771D02*
X84135600Y-58213152D01*
X84135600Y-58213152D02*
X84040362Y-58213152D01*
X83802266Y-58213152D02*
X83564171Y-58879819D01*
X83326076Y-58213152D02*
X83564171Y-58879819D01*
X83564171Y-58879819D02*
X83659409Y-59117914D01*
X83659409Y-59117914D02*
X83707028Y-59165533D01*
X83707028Y-59165533D02*
X83802266Y-59213152D01*
X82230837Y-57975057D02*
X82183218Y-57927438D01*
X82183218Y-57927438D02*
X82087980Y-57879819D01*
X82087980Y-57879819D02*
X81849885Y-57879819D01*
X81849885Y-57879819D02*
X81754647Y-57927438D01*
X81754647Y-57927438D02*
X81707028Y-57975057D01*
X81707028Y-57975057D02*
X81659409Y-58070295D01*
X81659409Y-58070295D02*
X81659409Y-58165533D01*
X81659409Y-58165533D02*
X81707028Y-58308390D01*
X81707028Y-58308390D02*
X82278456Y-58879819D01*
X82278456Y-58879819D02*
X81659409Y-58879819D01*
X81040361Y-57879819D02*
X80945123Y-57879819D01*
X80945123Y-57879819D02*
X80849885Y-57927438D01*
X80849885Y-57927438D02*
X80802266Y-57975057D01*
X80802266Y-57975057D02*
X80754647Y-58070295D01*
X80754647Y-58070295D02*
X80707028Y-58260771D01*
X80707028Y-58260771D02*
X80707028Y-58498866D01*
X80707028Y-58498866D02*
X80754647Y-58689342D01*
X80754647Y-58689342D02*
X80802266Y-58784580D01*
X80802266Y-58784580D02*
X80849885Y-58832200D01*
X80849885Y-58832200D02*
X80945123Y-58879819D01*
X80945123Y-58879819D02*
X81040361Y-58879819D01*
X81040361Y-58879819D02*
X81135599Y-58832200D01*
X81135599Y-58832200D02*
X81183218Y-58784580D01*
X81183218Y-58784580D02*
X81230837Y-58689342D01*
X81230837Y-58689342D02*
X81278456Y-58498866D01*
X81278456Y-58498866D02*
X81278456Y-58260771D01*
X81278456Y-58260771D02*
X81230837Y-58070295D01*
X81230837Y-58070295D02*
X81183218Y-57975057D01*
X81183218Y-57975057D02*
X81135599Y-57927438D01*
X81135599Y-57927438D02*
X81040361Y-57879819D01*
X80326075Y-57975057D02*
X80278456Y-57927438D01*
X80278456Y-57927438D02*
X80183218Y-57879819D01*
X80183218Y-57879819D02*
X79945123Y-57879819D01*
X79945123Y-57879819D02*
X79849885Y-57927438D01*
X79849885Y-57927438D02*
X79802266Y-57975057D01*
X79802266Y-57975057D02*
X79754647Y-58070295D01*
X79754647Y-58070295D02*
X79754647Y-58165533D01*
X79754647Y-58165533D02*
X79802266Y-58308390D01*
X79802266Y-58308390D02*
X80373694Y-58879819D01*
X80373694Y-58879819D02*
X79754647Y-58879819D01*
X78897504Y-58213152D02*
X78897504Y-58879819D01*
X79135599Y-57832200D02*
X79373694Y-58546485D01*
X79373694Y-58546485D02*
X78754647Y-58546485D01*
X96183220Y-60489819D02*
X96183220Y-59489819D01*
X96183220Y-59870771D02*
X96087982Y-59823152D01*
X96087982Y-59823152D02*
X95897506Y-59823152D01*
X95897506Y-59823152D02*
X95802268Y-59870771D01*
X95802268Y-59870771D02*
X95754649Y-59918390D01*
X95754649Y-59918390D02*
X95707030Y-60013628D01*
X95707030Y-60013628D02*
X95707030Y-60299342D01*
X95707030Y-60299342D02*
X95754649Y-60394580D01*
X95754649Y-60394580D02*
X95802268Y-60442200D01*
X95802268Y-60442200D02*
X95897506Y-60489819D01*
X95897506Y-60489819D02*
X96087982Y-60489819D01*
X96087982Y-60489819D02*
X96183220Y-60442200D01*
X95373696Y-59823152D02*
X95135601Y-60489819D01*
X94897506Y-59823152D02*
X95135601Y-60489819D01*
X95135601Y-60489819D02*
X95230839Y-60727914D01*
X95230839Y-60727914D02*
X95278458Y-60775533D01*
X95278458Y-60775533D02*
X95373696Y-60823152D01*
X93802267Y-60442200D02*
X93707029Y-60489819D01*
X93707029Y-60489819D02*
X93516553Y-60489819D01*
X93516553Y-60489819D02*
X93421315Y-60442200D01*
X93421315Y-60442200D02*
X93373696Y-60346961D01*
X93373696Y-60346961D02*
X93373696Y-60299342D01*
X93373696Y-60299342D02*
X93421315Y-60204104D01*
X93421315Y-60204104D02*
X93516553Y-60156485D01*
X93516553Y-60156485D02*
X93659410Y-60156485D01*
X93659410Y-60156485D02*
X93754648Y-60108866D01*
X93754648Y-60108866D02*
X93802267Y-60013628D01*
X93802267Y-60013628D02*
X93802267Y-59966009D01*
X93802267Y-59966009D02*
X93754648Y-59870771D01*
X93754648Y-59870771D02*
X93659410Y-59823152D01*
X93659410Y-59823152D02*
X93516553Y-59823152D01*
X93516553Y-59823152D02*
X93421315Y-59870771D01*
X92945124Y-60489819D02*
X92945124Y-59823152D01*
X92945124Y-59918390D02*
X92897505Y-59870771D01*
X92897505Y-59870771D02*
X92802267Y-59823152D01*
X92802267Y-59823152D02*
X92659410Y-59823152D01*
X92659410Y-59823152D02*
X92564172Y-59870771D01*
X92564172Y-59870771D02*
X92516553Y-59966009D01*
X92516553Y-59966009D02*
X92516553Y-60489819D01*
X92516553Y-59966009D02*
X92468934Y-59870771D01*
X92468934Y-59870771D02*
X92373696Y-59823152D01*
X92373696Y-59823152D02*
X92230839Y-59823152D01*
X92230839Y-59823152D02*
X92135600Y-59870771D01*
X92135600Y-59870771D02*
X92087981Y-59966009D01*
X92087981Y-59966009D02*
X92087981Y-60489819D01*
X91183220Y-60489819D02*
X91183220Y-59966009D01*
X91183220Y-59966009D02*
X91230839Y-59870771D01*
X91230839Y-59870771D02*
X91326077Y-59823152D01*
X91326077Y-59823152D02*
X91516553Y-59823152D01*
X91516553Y-59823152D02*
X91611791Y-59870771D01*
X91183220Y-60442200D02*
X91278458Y-60489819D01*
X91278458Y-60489819D02*
X91516553Y-60489819D01*
X91516553Y-60489819D02*
X91611791Y-60442200D01*
X91611791Y-60442200D02*
X91659410Y-60346961D01*
X91659410Y-60346961D02*
X91659410Y-60251723D01*
X91659410Y-60251723D02*
X91611791Y-60156485D01*
X91611791Y-60156485D02*
X91516553Y-60108866D01*
X91516553Y-60108866D02*
X91278458Y-60108866D01*
X91278458Y-60108866D02*
X91183220Y-60061247D01*
X90564172Y-60489819D02*
X90659410Y-60442200D01*
X90659410Y-60442200D02*
X90707029Y-60346961D01*
X90707029Y-60346961D02*
X90707029Y-59489819D01*
X96230839Y-62052200D02*
X96135601Y-62099819D01*
X96135601Y-62099819D02*
X95945125Y-62099819D01*
X95945125Y-62099819D02*
X95849887Y-62052200D01*
X95849887Y-62052200D02*
X95802268Y-61956961D01*
X95802268Y-61956961D02*
X95802268Y-61909342D01*
X95802268Y-61909342D02*
X95849887Y-61814104D01*
X95849887Y-61814104D02*
X95945125Y-61766485D01*
X95945125Y-61766485D02*
X96087982Y-61766485D01*
X96087982Y-61766485D02*
X96183220Y-61718866D01*
X96183220Y-61718866D02*
X96230839Y-61623628D01*
X96230839Y-61623628D02*
X96230839Y-61576009D01*
X96230839Y-61576009D02*
X96183220Y-61480771D01*
X96183220Y-61480771D02*
X96087982Y-61433152D01*
X96087982Y-61433152D02*
X95945125Y-61433152D01*
X95945125Y-61433152D02*
X95849887Y-61480771D01*
X95373696Y-62099819D02*
X95373696Y-61433152D01*
X95373696Y-61528390D02*
X95326077Y-61480771D01*
X95326077Y-61480771D02*
X95230839Y-61433152D01*
X95230839Y-61433152D02*
X95087982Y-61433152D01*
X95087982Y-61433152D02*
X94992744Y-61480771D01*
X94992744Y-61480771D02*
X94945125Y-61576009D01*
X94945125Y-61576009D02*
X94945125Y-62099819D01*
X94945125Y-61576009D02*
X94897506Y-61480771D01*
X94897506Y-61480771D02*
X94802268Y-61433152D01*
X94802268Y-61433152D02*
X94659411Y-61433152D01*
X94659411Y-61433152D02*
X94564172Y-61480771D01*
X94564172Y-61480771D02*
X94516553Y-61576009D01*
X94516553Y-61576009D02*
X94516553Y-62099819D01*
X93611792Y-62099819D02*
X93611792Y-61576009D01*
X93611792Y-61576009D02*
X93659411Y-61480771D01*
X93659411Y-61480771D02*
X93754649Y-61433152D01*
X93754649Y-61433152D02*
X93945125Y-61433152D01*
X93945125Y-61433152D02*
X94040363Y-61480771D01*
X93611792Y-62052200D02*
X93707030Y-62099819D01*
X93707030Y-62099819D02*
X93945125Y-62099819D01*
X93945125Y-62099819D02*
X94040363Y-62052200D01*
X94040363Y-62052200D02*
X94087982Y-61956961D01*
X94087982Y-61956961D02*
X94087982Y-61861723D01*
X94087982Y-61861723D02*
X94040363Y-61766485D01*
X94040363Y-61766485D02*
X93945125Y-61718866D01*
X93945125Y-61718866D02*
X93707030Y-61718866D01*
X93707030Y-61718866D02*
X93611792Y-61671247D01*
X92992744Y-62099819D02*
X93087982Y-62052200D01*
X93087982Y-62052200D02*
X93135601Y-61956961D01*
X93135601Y-61956961D02*
X93135601Y-61099819D01*
X92183220Y-62099819D02*
X92183220Y-61099819D01*
X92183220Y-62052200D02*
X92278458Y-62099819D01*
X92278458Y-62099819D02*
X92468934Y-62099819D01*
X92468934Y-62099819D02*
X92564172Y-62052200D01*
X92564172Y-62052200D02*
X92611791Y-62004580D01*
X92611791Y-62004580D02*
X92659410Y-61909342D01*
X92659410Y-61909342D02*
X92659410Y-61623628D01*
X92659410Y-61623628D02*
X92611791Y-61528390D01*
X92611791Y-61528390D02*
X92564172Y-61480771D01*
X92564172Y-61480771D02*
X92468934Y-61433152D01*
X92468934Y-61433152D02*
X92278458Y-61433152D01*
X92278458Y-61433152D02*
X92183220Y-61480771D01*
X91707029Y-62099819D02*
X91707029Y-61433152D01*
X91707029Y-61623628D02*
X91659410Y-61528390D01*
X91659410Y-61528390D02*
X91611791Y-61480771D01*
X91611791Y-61480771D02*
X91516553Y-61433152D01*
X91516553Y-61433152D02*
X91421315Y-61433152D01*
X90659410Y-62099819D02*
X90659410Y-61576009D01*
X90659410Y-61576009D02*
X90707029Y-61480771D01*
X90707029Y-61480771D02*
X90802267Y-61433152D01*
X90802267Y-61433152D02*
X90992743Y-61433152D01*
X90992743Y-61433152D02*
X91087981Y-61480771D01*
X90659410Y-62052200D02*
X90754648Y-62099819D01*
X90754648Y-62099819D02*
X90992743Y-62099819D01*
X90992743Y-62099819D02*
X91087981Y-62052200D01*
X91087981Y-62052200D02*
X91135600Y-61956961D01*
X91135600Y-61956961D02*
X91135600Y-61861723D01*
X91135600Y-61861723D02*
X91087981Y-61766485D01*
X91087981Y-61766485D02*
X90992743Y-61718866D01*
X90992743Y-61718866D02*
X90754648Y-61718866D01*
X90754648Y-61718866D02*
X90659410Y-61671247D01*
X89754648Y-61433152D02*
X89754648Y-62242676D01*
X89754648Y-62242676D02*
X89802267Y-62337914D01*
X89802267Y-62337914D02*
X89849886Y-62385533D01*
X89849886Y-62385533D02*
X89945124Y-62433152D01*
X89945124Y-62433152D02*
X90087981Y-62433152D01*
X90087981Y-62433152D02*
X90183219Y-62385533D01*
X89754648Y-62052200D02*
X89849886Y-62099819D01*
X89849886Y-62099819D02*
X90040362Y-62099819D01*
X90040362Y-62099819D02*
X90135600Y-62052200D01*
X90135600Y-62052200D02*
X90183219Y-62004580D01*
X90183219Y-62004580D02*
X90230838Y-61909342D01*
X90230838Y-61909342D02*
X90230838Y-61623628D01*
X90230838Y-61623628D02*
X90183219Y-61528390D01*
X90183219Y-61528390D02*
X90135600Y-61480771D01*
X90135600Y-61480771D02*
X90040362Y-61433152D01*
X90040362Y-61433152D02*
X89849886Y-61433152D01*
X89849886Y-61433152D02*
X89754648Y-61480771D01*
X89135600Y-62099819D02*
X89230838Y-62052200D01*
X89230838Y-62052200D02*
X89278457Y-62004580D01*
X89278457Y-62004580D02*
X89326076Y-61909342D01*
X89326076Y-61909342D02*
X89326076Y-61623628D01*
X89326076Y-61623628D02*
X89278457Y-61528390D01*
X89278457Y-61528390D02*
X89230838Y-61480771D01*
X89230838Y-61480771D02*
X89135600Y-61433152D01*
X89135600Y-61433152D02*
X88992743Y-61433152D01*
X88992743Y-61433152D02*
X88897505Y-61480771D01*
X88897505Y-61480771D02*
X88849886Y-61528390D01*
X88849886Y-61528390D02*
X88802267Y-61623628D01*
X88802267Y-61623628D02*
X88802267Y-61909342D01*
X88802267Y-61909342D02*
X88849886Y-62004580D01*
X88849886Y-62004580D02*
X88897505Y-62052200D01*
X88897505Y-62052200D02*
X88992743Y-62099819D01*
X88992743Y-62099819D02*
X89135600Y-62099819D01*
X88373695Y-61433152D02*
X88373695Y-62099819D01*
X88373695Y-61528390D02*
X88326076Y-61480771D01*
X88326076Y-61480771D02*
X88230838Y-61433152D01*
X88230838Y-61433152D02*
X88087981Y-61433152D01*
X88087981Y-61433152D02*
X87992743Y-61480771D01*
X87992743Y-61480771D02*
X87945124Y-61576009D01*
X87945124Y-61576009D02*
X87945124Y-62099819D01*
X87468933Y-62004580D02*
X87421314Y-62052200D01*
X87421314Y-62052200D02*
X87468933Y-62099819D01*
X87468933Y-62099819D02*
X87516552Y-62052200D01*
X87516552Y-62052200D02*
X87468933Y-62004580D01*
X87468933Y-62004580D02*
X87468933Y-62099819D01*
X86564172Y-61433152D02*
X86564172Y-62242676D01*
X86564172Y-62242676D02*
X86611791Y-62337914D01*
X86611791Y-62337914D02*
X86659410Y-62385533D01*
X86659410Y-62385533D02*
X86754648Y-62433152D01*
X86754648Y-62433152D02*
X86897505Y-62433152D01*
X86897505Y-62433152D02*
X86992743Y-62385533D01*
X86564172Y-62052200D02*
X86659410Y-62099819D01*
X86659410Y-62099819D02*
X86849886Y-62099819D01*
X86849886Y-62099819D02*
X86945124Y-62052200D01*
X86945124Y-62052200D02*
X86992743Y-62004580D01*
X86992743Y-62004580D02*
X87040362Y-61909342D01*
X87040362Y-61909342D02*
X87040362Y-61623628D01*
X87040362Y-61623628D02*
X86992743Y-61528390D01*
X86992743Y-61528390D02*
X86945124Y-61480771D01*
X86945124Y-61480771D02*
X86849886Y-61433152D01*
X86849886Y-61433152D02*
X86659410Y-61433152D01*
X86659410Y-61433152D02*
X86564172Y-61480771D01*
X86087981Y-62099819D02*
X86087981Y-61433152D01*
X86087981Y-61099819D02*
X86135600Y-61147438D01*
X86135600Y-61147438D02*
X86087981Y-61195057D01*
X86087981Y-61195057D02*
X86040362Y-61147438D01*
X86040362Y-61147438D02*
X86087981Y-61099819D01*
X86087981Y-61099819D02*
X86087981Y-61195057D01*
X85754648Y-61433152D02*
X85373696Y-61433152D01*
X85611791Y-61099819D02*
X85611791Y-61956961D01*
X85611791Y-61956961D02*
X85564172Y-62052200D01*
X85564172Y-62052200D02*
X85468934Y-62099819D01*
X85468934Y-62099819D02*
X85373696Y-62099819D01*
X85040362Y-62099819D02*
X85040362Y-61099819D01*
X84611791Y-62099819D02*
X84611791Y-61576009D01*
X84611791Y-61576009D02*
X84659410Y-61480771D01*
X84659410Y-61480771D02*
X84754648Y-61433152D01*
X84754648Y-61433152D02*
X84897505Y-61433152D01*
X84897505Y-61433152D02*
X84992743Y-61480771D01*
X84992743Y-61480771D02*
X85040362Y-61528390D01*
X83707029Y-61433152D02*
X83707029Y-62099819D01*
X84135600Y-61433152D02*
X84135600Y-61956961D01*
X84135600Y-61956961D02*
X84087981Y-62052200D01*
X84087981Y-62052200D02*
X83992743Y-62099819D01*
X83992743Y-62099819D02*
X83849886Y-62099819D01*
X83849886Y-62099819D02*
X83754648Y-62052200D01*
X83754648Y-62052200D02*
X83707029Y-62004580D01*
X83230838Y-62099819D02*
X83230838Y-61099819D01*
X83230838Y-61480771D02*
X83135600Y-61433152D01*
X83135600Y-61433152D02*
X82945124Y-61433152D01*
X82945124Y-61433152D02*
X82849886Y-61480771D01*
X82849886Y-61480771D02*
X82802267Y-61528390D01*
X82802267Y-61528390D02*
X82754648Y-61623628D01*
X82754648Y-61623628D02*
X82754648Y-61909342D01*
X82754648Y-61909342D02*
X82802267Y-62004580D01*
X82802267Y-62004580D02*
X82849886Y-62052200D01*
X82849886Y-62052200D02*
X82945124Y-62099819D01*
X82945124Y-62099819D02*
X83135600Y-62099819D01*
X83135600Y-62099819D02*
X83230838Y-62052200D01*
X82326076Y-62004580D02*
X82278457Y-62052200D01*
X82278457Y-62052200D02*
X82326076Y-62099819D01*
X82326076Y-62099819D02*
X82373695Y-62052200D01*
X82373695Y-62052200D02*
X82326076Y-62004580D01*
X82326076Y-62004580D02*
X82326076Y-62099819D01*
X81849886Y-62099819D02*
X81849886Y-61433152D01*
X81849886Y-61099819D02*
X81897505Y-61147438D01*
X81897505Y-61147438D02*
X81849886Y-61195057D01*
X81849886Y-61195057D02*
X81802267Y-61147438D01*
X81802267Y-61147438D02*
X81849886Y-61099819D01*
X81849886Y-61099819D02*
X81849886Y-61195057D01*
X81230839Y-62099819D02*
X81326077Y-62052200D01*
X81326077Y-62052200D02*
X81373696Y-62004580D01*
X81373696Y-62004580D02*
X81421315Y-61909342D01*
X81421315Y-61909342D02*
X81421315Y-61623628D01*
X81421315Y-61623628D02*
X81373696Y-61528390D01*
X81373696Y-61528390D02*
X81326077Y-61480771D01*
X81326077Y-61480771D02*
X81230839Y-61433152D01*
X81230839Y-61433152D02*
X81087982Y-61433152D01*
X81087982Y-61433152D02*
X80992744Y-61480771D01*
X80992744Y-61480771D02*
X80945125Y-61528390D01*
X80945125Y-61528390D02*
X80897506Y-61623628D01*
X80897506Y-61623628D02*
X80897506Y-61909342D01*
X80897506Y-61909342D02*
X80945125Y-62004580D01*
X80945125Y-62004580D02*
X80992744Y-62052200D01*
X80992744Y-62052200D02*
X81087982Y-62099819D01*
X81087982Y-62099819D02*
X81230839Y-62099819D01*
M02*
