%TF.GenerationSoftware,KiCad,Pcbnew,7.0.10*%
%TF.CreationDate,2024-01-06T19:25:43+00:00*%
%TF.ProjectId,v1a,7631612e-6b69-4636-9164-5f7063625858,rev?*%
%TF.SameCoordinates,Original*%
%TF.FileFunction,Copper,L2,Bot*%
%TF.FilePolarity,Positive*%
%FSLAX46Y46*%
G04 Gerber Fmt 4.6, Leading zero omitted, Abs format (unit mm)*
G04 Created by KiCad (PCBNEW 7.0.10) date 2024-01-06 19:25:43*
%MOMM*%
%LPD*%
G01*
G04 APERTURE LIST*
G04 Aperture macros list*
%AMRoundRect*
0 Rectangle with rounded corners*
0 $1 Rounding radius*
0 $2 $3 $4 $5 $6 $7 $8 $9 X,Y pos of 4 corners*
0 Add a 4 corners polygon primitive as box body*
4,1,4,$2,$3,$4,$5,$6,$7,$8,$9,$2,$3,0*
0 Add four circle primitives for the rounded corners*
1,1,$1+$1,$2,$3*
1,1,$1+$1,$4,$5*
1,1,$1+$1,$6,$7*
1,1,$1+$1,$8,$9*
0 Add four rect primitives between the rounded corners*
20,1,$1+$1,$2,$3,$4,$5,0*
20,1,$1+$1,$4,$5,$6,$7,0*
20,1,$1+$1,$6,$7,$8,$9,0*
20,1,$1+$1,$8,$9,$2,$3,0*%
G04 Aperture macros list end*
%TA.AperFunction,ComponentPad*%
%ADD10R,1.600000X1.600000*%
%TD*%
%TA.AperFunction,ComponentPad*%
%ADD11O,1.600000X1.600000*%
%TD*%
%TA.AperFunction,ComponentPad*%
%ADD12C,1.600000*%
%TD*%
%TA.AperFunction,ComponentPad*%
%ADD13R,1.422400X1.422400*%
%TD*%
%TA.AperFunction,ComponentPad*%
%ADD14C,1.422400*%
%TD*%
%TA.AperFunction,SMDPad,CuDef*%
%ADD15RoundRect,0.508000X-0.508000X-2.464500X0.508000X-2.464500X0.508000X2.464500X-0.508000X2.464500X0*%
%TD*%
%TA.AperFunction,SMDPad,CuDef*%
%ADD16RoundRect,0.508000X-0.508000X-2.468000X0.508000X-2.468000X0.508000X2.468000X-0.508000X2.468000X0*%
%TD*%
%TA.AperFunction,SMDPad,CuDef*%
%ADD17RoundRect,0.539750X-0.539750X-2.436250X0.539750X-2.436250X0.539750X2.436250X-0.539750X2.436250X0*%
%TD*%
%TA.AperFunction,ComponentPad*%
%ADD18C,1.400000*%
%TD*%
%TA.AperFunction,ComponentPad*%
%ADD19O,1.400000X1.400000*%
%TD*%
%TA.AperFunction,ViaPad*%
%ADD20C,0.800000*%
%TD*%
%TA.AperFunction,Conductor*%
%ADD21C,0.500000*%
%TD*%
%TA.AperFunction,Conductor*%
%ADD22C,0.250000*%
%TD*%
G04 APERTURE END LIST*
D10*
%TO.P,D1,1,K*%
%TO.N,Net-(D1-K)*%
X86355000Y-78740000D03*
D11*
%TO.P,D1,2,A*%
%TO.N,~{SEL}*%
X93975000Y-78740000D03*
%TD*%
D12*
%TO.P,C1,1*%
%TO.N,GND*%
X58928000Y-74890000D03*
%TO.P,C1,2*%
%TO.N,+5V*%
X58928000Y-72390000D03*
%TD*%
D13*
%TO.P,U1,1,A18*%
%TO.N,B3*%
X66040000Y-72390000D03*
D14*
%TO.P,U1,2,A16*%
%TO.N,B1*%
X63500000Y-74930000D03*
%TO.P,U1,3,A15*%
%TO.N,B0*%
X66040000Y-74930000D03*
%TO.P,U1,4,A12*%
%TO.N,A12*%
X63500000Y-77470000D03*
%TO.P,U1,5,A7*%
%TO.N,A7*%
X66040000Y-80010000D03*
%TO.P,U1,6,A6*%
%TO.N,A6*%
X66040000Y-77470000D03*
%TO.P,U1,7,A5*%
%TO.N,A5*%
X68580000Y-80010000D03*
%TO.P,U1,8,A4*%
%TO.N,A4*%
X68580000Y-77470000D03*
%TO.P,U1,9,A3*%
%TO.N,A3*%
X71120000Y-80010000D03*
%TO.P,U1,10,A2*%
%TO.N,A2*%
X71120000Y-77470000D03*
%TO.P,U1,11,A1*%
%TO.N,A1*%
X73660000Y-80010000D03*
%TO.P,U1,12,A0*%
%TO.N,A0*%
X73660000Y-77470000D03*
%TO.P,U1,13,D0*%
%TO.N,D0*%
X76200000Y-80010000D03*
%TO.P,U1,14,D1*%
%TO.N,D1*%
X78740000Y-77470000D03*
%TO.P,U1,15,D2*%
%TO.N,D2*%
X76200000Y-77470000D03*
%TO.P,U1,16,VSS*%
%TO.N,GND*%
X78740000Y-74930000D03*
%TO.P,U1,17,D3*%
%TO.N,D3*%
X76200000Y-74930000D03*
%TO.P,U1,18,D4*%
%TO.N,D4*%
X78740000Y-72390000D03*
%TO.P,U1,19,D5*%
%TO.N,D5*%
X76200000Y-72390000D03*
%TO.P,U1,20,D6*%
%TO.N,D6*%
X78740000Y-69850000D03*
%TO.P,U1,21,D7*%
%TO.N,D7*%
X76200000Y-67310000D03*
%TO.P,U1,22,~{CE}*%
%TO.N,Net-(D1-K)*%
X76200000Y-69850000D03*
%TO.P,U1,23,A10*%
%TO.N,A10*%
X73660000Y-67310000D03*
%TO.P,U1,24,~{OE}*%
%TO.N,~{R}{slash}W*%
X73660000Y-69850000D03*
%TO.P,U1,25,A11*%
%TO.N,A11*%
X71120000Y-67310000D03*
%TO.P,U1,26,A9*%
%TO.N,A9*%
X71120000Y-69850000D03*
%TO.P,U1,27,A8*%
%TO.N,A8*%
X68580000Y-67310000D03*
%TO.P,U1,28,A13*%
%TO.N,A13*%
X68580000Y-69850000D03*
%TO.P,U1,29,A14*%
%TO.N,A14*%
X66040000Y-67310000D03*
%TO.P,U1,30,A17*%
%TO.N,B2*%
X63500000Y-69850000D03*
%TO.P,U1,31,~{WE}*%
%TO.N,R{slash}~{W}*%
X66040000Y-69850000D03*
%TO.P,U1,32,VDD*%
%TO.N,+5V*%
X63500000Y-72390000D03*
%TD*%
D10*
%TO.P,D2,1,K*%
%TO.N,Net-(D1-K)*%
X86355000Y-76200000D03*
D11*
%TO.P,D2,2,A*%
%TO.N,~{CART}*%
X93975000Y-76200000D03*
%TD*%
D15*
%TO.P,J1,2,Pin_2*%
%TO.N,+5V*%
X43180000Y-91440000D03*
%TO.P,J1,4,Pin_4*%
%TO.N,D7*%
X45720000Y-91440000D03*
%TO.P,J1,6,Pin_6*%
%TO.N,D6*%
X48260000Y-91440000D03*
%TO.P,J1,8,Pin_8*%
%TO.N,D5*%
X50800000Y-91440000D03*
%TO.P,J1,10,Pin_10*%
%TO.N,D4*%
X53340000Y-91440000D03*
D16*
%TO.P,J1,12,Pin_12*%
%TO.N,D3*%
X55880000Y-91443500D03*
D15*
%TO.P,J1,14,Pin_14*%
%TO.N,D2*%
X58420000Y-91440000D03*
%TO.P,J1,16,Pin_16*%
%TO.N,D1*%
X60960000Y-91440000D03*
%TO.P,J1,18,Pin_18*%
%TO.N,D0*%
X63500000Y-91440000D03*
%TO.P,J1,20,Pin_20*%
%TO.N,B7*%
X66040000Y-91440000D03*
D17*
%TO.P,J1,22,Pin_22*%
%TO.N,B6*%
X68516500Y-91443500D03*
D15*
%TO.P,J1,24,Pin_24*%
%TO.N,B5*%
X71120000Y-91440000D03*
%TO.P,J1,26,Pin_26*%
%TO.N,B4*%
X73660000Y-91440000D03*
%TO.P,J1,28,Pin_28*%
%TO.N,B3*%
X76200000Y-91440000D03*
%TO.P,J1,30,Pin_30*%
%TO.N,B2*%
X78740000Y-91440000D03*
%TO.P,J1,32,Pin_32*%
%TO.N,B1*%
X81280000Y-91440000D03*
D16*
%TO.P,J1,34,Pin_34*%
%TO.N,B0*%
X83820000Y-91443500D03*
D15*
%TO.P,J1,36,Pin_36*%
%TO.N,3M*%
X86360000Y-91440000D03*
%TO.P,J1,38,Pin_38*%
%TO.N,~{R}{slash}W*%
X88900000Y-91440000D03*
%TO.P,J1,40,Pin_40*%
%TO.N,R{slash}~{W}*%
X91440000Y-91440000D03*
D16*
%TO.P,J1,42,Pin_42*%
%TO.N,+5V*%
X93980000Y-91443500D03*
D15*
%TO.P,J1,44,Pin_44*%
%TO.N,GND*%
X96520000Y-91440000D03*
%TD*%
D18*
%TO.P,R1,1*%
%TO.N,GND*%
X93975000Y-73660000D03*
D19*
%TO.P,R1,2*%
%TO.N,Net-(D1-K)*%
X86355000Y-73660000D03*
%TD*%
D20*
%TO.N,GND*%
X49580800Y-84074000D03*
X51943000Y-77978000D03*
X69977000Y-87630000D03*
X64617600Y-80162400D03*
X87376000Y-87376000D03*
X49428400Y-73533000D03*
X75438000Y-85598000D03*
X57251600Y-69697600D03*
X52019200Y-85013800D03*
X54864000Y-85090000D03*
X49530000Y-79959200D03*
X52120800Y-87884000D03*
X56642000Y-86106000D03*
X77393800Y-76123800D03*
X83439000Y-72390000D03*
X51993800Y-72136000D03*
X49809400Y-86995000D03*
X57810400Y-82397600D03*
X77470000Y-84074000D03*
X61214000Y-65786000D03*
X60706000Y-84836000D03*
X50292000Y-64516000D03*
X47040800Y-86791800D03*
X77393800Y-68681600D03*
X51993800Y-81686400D03*
X67462400Y-74879200D03*
X67310000Y-87630000D03*
X72390000Y-87630000D03*
X65024000Y-87630000D03*
X80391000Y-72517000D03*
X57658000Y-87630000D03*
X80010000Y-86995000D03*
X56997600Y-66395600D03*
X58674000Y-65024000D03*
X90424000Y-83566000D03*
X59131200Y-83566000D03*
X67310000Y-66040000D03*
X80772000Y-83312000D03*
X54102000Y-75946000D03*
X54356000Y-65786000D03*
X54356000Y-82804000D03*
X46024800Y-83159600D03*
X58420000Y-80264000D03*
X85090000Y-87376000D03*
X45720000Y-76454000D03*
X61976000Y-86360000D03*
X83235800Y-77317600D03*
X80467200Y-77241400D03*
X59182000Y-78486000D03*
X60960000Y-70612000D03*
X86690200Y-81153000D03*
X71628000Y-64008000D03*
X92964000Y-80518000D03*
%TO.N,A14*%
X52070000Y-67310000D03*
%TO.N,A13*%
X52070000Y-69850000D03*
%TO.N,A12*%
X53340000Y-78105000D03*
%TO.N,B3*%
X67995800Y-72567800D03*
X75057000Y-87757000D03*
%TO.N,B2*%
X68849466Y-71866534D03*
X78740000Y-86106000D03*
%TO.N,B1*%
X70231000Y-71755000D03*
X81534000Y-85344000D03*
%TO.N,B0*%
X71577200Y-71831200D03*
X84582000Y-84582000D03*
%TO.N,~{R}{slash}W*%
X81788000Y-72390000D03*
%TO.N,R{slash}~{W}*%
X84328000Y-74422000D03*
%TD*%
D21*
%TO.N,GND*%
X71221600Y-72948800D02*
X69291200Y-74879200D01*
X72390000Y-69088000D02*
X72390000Y-70982800D01*
X76555600Y-65735200D02*
X80391000Y-69570600D01*
X72390000Y-69088000D02*
X71990800Y-68688800D01*
X55880000Y-58928000D02*
X50292000Y-64516000D01*
X60129200Y-76091200D02*
X58928000Y-74890000D01*
X81859296Y-58928000D02*
X74422000Y-58928000D01*
X69977000Y-87630000D02*
X67310000Y-87630000D01*
X67462400Y-74879200D02*
X67462400Y-75149785D01*
X67310000Y-67682185D02*
X67310000Y-66040000D01*
X67462400Y-75149785D02*
X66520985Y-76091200D01*
X72527200Y-71120000D02*
X72527200Y-72224703D01*
X96520000Y-76205000D02*
X93975000Y-73660000D01*
X96520000Y-91440000D02*
X96520000Y-76205000D01*
X74422000Y-58928000D02*
X55880000Y-58928000D01*
X54102000Y-75946000D02*
X55158000Y-74890000D01*
X72390000Y-66937815D02*
X73592615Y-65735200D01*
X60960000Y-72858000D02*
X60960000Y-70612000D01*
X80391000Y-69570600D02*
X80391000Y-72517000D01*
X93975000Y-71043704D02*
X81859296Y-58928000D01*
X71990800Y-68688800D02*
X68316615Y-68688800D01*
X67310000Y-87630000D02*
X65024000Y-87630000D01*
X68316615Y-68688800D02*
X67310000Y-67682185D01*
X55158000Y-74890000D02*
X58928000Y-74890000D01*
X72527200Y-72224703D02*
X71803103Y-72948800D01*
X72390000Y-69088000D02*
X72390000Y-66937815D01*
X73592615Y-65735200D02*
X76555600Y-65735200D01*
X87376000Y-87376000D02*
X85090000Y-87376000D01*
X75438000Y-85598000D02*
X74422000Y-85598000D01*
X66520985Y-76091200D02*
X60129200Y-76091200D01*
X71803103Y-72948800D02*
X71221600Y-72948800D01*
X69291200Y-74879200D02*
X67462400Y-74879200D01*
X72390000Y-70982800D02*
X72527200Y-71120000D01*
X93975000Y-73660000D02*
X93975000Y-71043704D01*
X69977000Y-87630000D02*
X72390000Y-87630000D01*
X58928000Y-74890000D02*
X60960000Y-72858000D01*
X74422000Y-85598000D02*
X72390000Y-87630000D01*
%TO.N,+5V*%
X57838497Y-60198000D02*
X82139346Y-60198000D01*
X93980000Y-83820000D02*
X93980000Y-91443500D01*
X43180000Y-84074000D02*
X43180000Y-91440000D01*
X43180000Y-74856497D02*
X57838497Y-60198000D01*
X89916000Y-67974654D02*
X89916000Y-79756000D01*
X54864000Y-72390000D02*
X43180000Y-84074000D01*
X89916000Y-79756000D02*
X93980000Y-83820000D01*
X43180000Y-84074000D02*
X43180000Y-74856497D01*
X58928000Y-72390000D02*
X54864000Y-72390000D01*
X82139346Y-60198000D02*
X89916000Y-67974654D01*
D22*
%TO.N,D7*%
X76200000Y-67310000D02*
X74930000Y-68580000D01*
X71854816Y-74189600D02*
X70916412Y-74189600D01*
X64135000Y-79375000D02*
X52705000Y-79375000D01*
X69253714Y-75852298D02*
X68038702Y-75852298D01*
X66253009Y-78740000D02*
X64770000Y-78740000D01*
X73248804Y-73130000D02*
X72914416Y-73130000D01*
X52705000Y-79375000D02*
X45720000Y-86360000D01*
X64770000Y-78740000D02*
X64135000Y-79375000D01*
X68038702Y-75852298D02*
X67093800Y-76797200D01*
X67093800Y-76797200D02*
X67093800Y-77899209D01*
X70916412Y-74189600D02*
X69253714Y-75852298D01*
X72914416Y-73130000D02*
X71854816Y-74189600D01*
X45720000Y-86360000D02*
X45720000Y-91440000D01*
X74930000Y-68580000D02*
X74930000Y-71448804D01*
X67093800Y-77899209D02*
X66253009Y-78740000D01*
X74930000Y-71448804D02*
X73248804Y-73130000D01*
%TO.N,A14*%
X52070000Y-67310000D02*
X66040000Y-67310000D01*
%TO.N,D6*%
X67543800Y-76983596D02*
X67543800Y-80050400D01*
X66505200Y-81089000D02*
X54166000Y-81089000D01*
X54166000Y-81089000D02*
X48260000Y-86995000D01*
X72041212Y-74639600D02*
X71102808Y-74639600D01*
X73100812Y-73580000D02*
X72041212Y-74639600D01*
X71102808Y-74639600D02*
X69440110Y-76302298D01*
X69440110Y-76302298D02*
X68225098Y-76302298D01*
X67543800Y-80050400D02*
X66505200Y-81089000D01*
X77470000Y-71120000D02*
X75895200Y-71120000D01*
X73435200Y-73580000D02*
X73100812Y-73580000D01*
X78740000Y-69850000D02*
X77470000Y-71120000D01*
X48260000Y-86995000D02*
X48260000Y-91440000D01*
X75895200Y-71120000D02*
X73435200Y-73580000D01*
X68225098Y-76302298D02*
X67543800Y-76983596D01*
%TO.N,A13*%
X67543800Y-68813800D02*
X68580000Y-69850000D01*
X52070000Y-69850000D02*
X53106200Y-68813800D01*
X53106200Y-68813800D02*
X67543800Y-68813800D01*
%TO.N,D5*%
X57145000Y-81539000D02*
X50800000Y-87884000D01*
X69616200Y-76762604D02*
X69616200Y-81259800D01*
X71289204Y-75089600D02*
X69616200Y-76762604D01*
X72227608Y-75089600D02*
X71289204Y-75089600D01*
X69337000Y-81539000D02*
X57145000Y-81539000D01*
X76200000Y-72390000D02*
X74560000Y-74030000D01*
X74560000Y-74030000D02*
X73287208Y-74030000D01*
X69616200Y-81259800D02*
X69337000Y-81539000D01*
X73287208Y-74030000D02*
X72227608Y-75089600D01*
X50800000Y-87884000D02*
X50800000Y-91440000D01*
%TO.N,A12*%
X53975000Y-77470000D02*
X63500000Y-77470000D01*
X53340000Y-78105000D02*
X53975000Y-77470000D01*
%TO.N,D4*%
X75844400Y-73660000D02*
X75024400Y-74480000D01*
X69459396Y-82053000D02*
X59323400Y-82053000D01*
X73473604Y-74480000D02*
X72414004Y-75539600D01*
X77470000Y-73660000D02*
X75844400Y-73660000D01*
X72414004Y-75539600D02*
X71475600Y-75539600D01*
X70066200Y-76949000D02*
X70066200Y-81446196D01*
X59323400Y-82053000D02*
X53340000Y-88036400D01*
X78740000Y-72390000D02*
X77470000Y-73660000D01*
X53340000Y-88036400D02*
X53340000Y-91440000D01*
X70066200Y-81446196D02*
X69459396Y-82053000D01*
X71475600Y-75539600D02*
X70066200Y-76949000D01*
X75024400Y-74480000D02*
X73473604Y-74480000D01*
%TO.N,D3*%
X55880000Y-88034727D02*
X60247127Y-83667600D01*
X72156200Y-76474200D02*
X72136000Y-76454000D01*
X72156200Y-82529800D02*
X72156200Y-76474200D01*
X71018400Y-83667600D02*
X72156200Y-82529800D01*
X72136000Y-76454000D02*
X73660000Y-74930000D01*
X73660000Y-74930000D02*
X76200000Y-74930000D01*
X60247127Y-83667600D02*
X71018400Y-83667600D01*
X55880000Y-91443500D02*
X55880000Y-88034727D01*
%TO.N,D2*%
X69978396Y-85344000D02*
X72606200Y-82716196D01*
X74696200Y-78973800D02*
X76200000Y-77470000D01*
X73172200Y-78973800D02*
X74696200Y-78973800D01*
X72606200Y-82716196D02*
X72606200Y-79539800D01*
X58420000Y-91440000D02*
X58420000Y-88467500D01*
X72606200Y-79539800D02*
X73172200Y-78973800D01*
X58420000Y-88467500D02*
X61543500Y-85344000D01*
X61543500Y-85344000D02*
X69978396Y-85344000D01*
%TO.N,D1*%
X74930000Y-81534000D02*
X70612000Y-85852000D01*
X77703800Y-78506200D02*
X76179800Y-78506200D01*
X78740000Y-77470000D02*
X77703800Y-78506200D01*
X70612000Y-85852000D02*
X63804800Y-85852000D01*
X76179800Y-78506200D02*
X74930000Y-79756000D01*
X60960000Y-88696800D02*
X60960000Y-91440000D01*
X74930000Y-79756000D02*
X74930000Y-81534000D01*
X63804800Y-85852000D02*
X60960000Y-88696800D01*
%TO.N,D0*%
X76200000Y-82550000D02*
X76200000Y-80010000D01*
X63500000Y-87630000D02*
X64516000Y-86614000D01*
X63500000Y-91440000D02*
X63500000Y-87630000D01*
X64516000Y-86614000D02*
X72136000Y-86614000D01*
X72136000Y-86614000D02*
X76200000Y-82550000D01*
%TO.N,B3*%
X67995800Y-72567800D02*
X67818000Y-72390000D01*
X75057000Y-87757000D02*
X76200000Y-88900000D01*
X67818000Y-72390000D02*
X66040000Y-72390000D01*
X76200000Y-88900000D02*
X76200000Y-91440000D01*
%TO.N,B2*%
X78740000Y-86106000D02*
X78740000Y-91440000D01*
X67869132Y-70886200D02*
X64536200Y-70886200D01*
X68849466Y-71866534D02*
X67869132Y-70886200D01*
X64536200Y-70886200D02*
X63500000Y-69850000D01*
%TO.N,B1*%
X69161408Y-73456800D02*
X64973200Y-73456800D01*
X81280000Y-91440000D02*
X81280000Y-85598000D01*
X70231000Y-71755000D02*
X70231000Y-72387208D01*
X81280000Y-85598000D02*
X81534000Y-85344000D01*
X64973200Y-73456800D02*
X63500000Y-74930000D01*
X70231000Y-72387208D02*
X69161408Y-73456800D01*
%TO.N,B0*%
X66040000Y-74574400D02*
X66040000Y-74930000D01*
X66707600Y-73906800D02*
X66040000Y-74574400D01*
X69347804Y-73906800D02*
X66707600Y-73906800D01*
X71577200Y-71831200D02*
X71423404Y-71831200D01*
X83820000Y-85344000D02*
X83820000Y-91443500D01*
X71423404Y-71831200D02*
X69347804Y-73906800D01*
X84582000Y-84582000D02*
X83820000Y-85344000D01*
%TO.N,~{R}{slash}W*%
X88900000Y-87630000D02*
X81788000Y-80518000D01*
X88900000Y-91440000D02*
X88900000Y-87630000D01*
X81788000Y-80518000D02*
X81788000Y-72390000D01*
%TO.N,R{slash}~{W}*%
X91440000Y-91440000D02*
X91440000Y-87884000D01*
X91440000Y-87884000D02*
X84328000Y-80772000D01*
X84328000Y-80772000D02*
X84328000Y-74422000D01*
%TD*%
%TA.AperFunction,Conductor*%
%TO.N,GND*%
G36*
X96208415Y-56942501D02*
G01*
X96218405Y-56942501D01*
X96261571Y-56942501D01*
X96270417Y-56942817D01*
X96503577Y-56959492D01*
X96521078Y-56962009D01*
X96745156Y-57010754D01*
X96762121Y-57015735D01*
X96976991Y-57095877D01*
X96993064Y-57103218D01*
X97194332Y-57213118D01*
X97194336Y-57213120D01*
X97209219Y-57222685D01*
X97392791Y-57360105D01*
X97406162Y-57371691D01*
X97568308Y-57533837D01*
X97579894Y-57547208D01*
X97717314Y-57730780D01*
X97726879Y-57745663D01*
X97836776Y-57946924D01*
X97844124Y-57963014D01*
X97850015Y-57978807D01*
X97924262Y-58177873D01*
X97929246Y-58194848D01*
X97977989Y-58418916D01*
X97980507Y-58436428D01*
X97997183Y-58669581D01*
X97997499Y-58678427D01*
X97997499Y-88221361D01*
X97977814Y-88288400D01*
X97925010Y-88334155D01*
X97855852Y-88344099D01*
X97792296Y-88315074D01*
X97777646Y-88300027D01*
X97744210Y-88259285D01*
X97590725Y-88133325D01*
X97590718Y-88133320D01*
X97415612Y-88039724D01*
X97225605Y-87982085D01*
X97225603Y-87982084D01*
X97077515Y-87967500D01*
X95962485Y-87967500D01*
X95814396Y-87982084D01*
X95814394Y-87982085D01*
X95624387Y-88039724D01*
X95449281Y-88133320D01*
X95449274Y-88133325D01*
X95329060Y-88231982D01*
X95264750Y-88259295D01*
X95195882Y-88247504D01*
X95171730Y-88231982D01*
X95051005Y-88132905D01*
X95050998Y-88132901D01*
X94875806Y-88039259D01*
X94818503Y-88021876D01*
X94760065Y-87983578D01*
X94731609Y-87919765D01*
X94730500Y-87903216D01*
X94730500Y-83883705D01*
X94731809Y-83865735D01*
X94732581Y-83860467D01*
X94735289Y-83841977D01*
X94731921Y-83803483D01*
X94730972Y-83792630D01*
X94730500Y-83781822D01*
X94730500Y-83776296D01*
X94730500Y-83776291D01*
X94726901Y-83745509D01*
X94726536Y-83741929D01*
X94719999Y-83667201D01*
X94718539Y-83660129D01*
X94718597Y-83660116D01*
X94716965Y-83652757D01*
X94716906Y-83652772D01*
X94715241Y-83645751D01*
X94715241Y-83645745D01*
X94689569Y-83575212D01*
X94688421Y-83571909D01*
X94664814Y-83500666D01*
X94664810Y-83500659D01*
X94661760Y-83494118D01*
X94661815Y-83494091D01*
X94658533Y-83487313D01*
X94658480Y-83487340D01*
X94655235Y-83480880D01*
X94614025Y-83418223D01*
X94612086Y-83415181D01*
X94572710Y-83351342D01*
X94568234Y-83345682D01*
X94568281Y-83345644D01*
X94563519Y-83339799D01*
X94563474Y-83339838D01*
X94558831Y-83334305D01*
X94504272Y-83282831D01*
X94501685Y-83280318D01*
X90702819Y-79481451D01*
X90669334Y-79420128D01*
X90666500Y-79393770D01*
X90666500Y-78740001D01*
X92669532Y-78740001D01*
X92689364Y-78966686D01*
X92689366Y-78966697D01*
X92748258Y-79186488D01*
X92748261Y-79186497D01*
X92844431Y-79392732D01*
X92844432Y-79392734D01*
X92974954Y-79579141D01*
X93135858Y-79740045D01*
X93135861Y-79740047D01*
X93322266Y-79870568D01*
X93528504Y-79966739D01*
X93748308Y-80025635D01*
X93910230Y-80039801D01*
X93974998Y-80045468D01*
X93975000Y-80045468D01*
X93975002Y-80045468D01*
X94031807Y-80040498D01*
X94201692Y-80025635D01*
X94421496Y-79966739D01*
X94627734Y-79870568D01*
X94814139Y-79740047D01*
X94975047Y-79579139D01*
X95105568Y-79392734D01*
X95201739Y-79186496D01*
X95260635Y-78966692D01*
X95280468Y-78740000D01*
X95260635Y-78513308D01*
X95201739Y-78293504D01*
X95105568Y-78087266D01*
X94986168Y-77916744D01*
X94975045Y-77900858D01*
X94814141Y-77739954D01*
X94627734Y-77609432D01*
X94627728Y-77609429D01*
X94569882Y-77582455D01*
X94569724Y-77582381D01*
X94517285Y-77536210D01*
X94498133Y-77469017D01*
X94518348Y-77402135D01*
X94569725Y-77357618D01*
X94627734Y-77330568D01*
X94814139Y-77200047D01*
X94975047Y-77039139D01*
X95105568Y-76852734D01*
X95201739Y-76646496D01*
X95260635Y-76426692D01*
X95280468Y-76200000D01*
X95276197Y-76151188D01*
X95269355Y-76072975D01*
X95260635Y-75973308D01*
X95201739Y-75753504D01*
X95105568Y-75547266D01*
X94975047Y-75360861D01*
X94975045Y-75360858D01*
X94814141Y-75199954D01*
X94627734Y-75069432D01*
X94627732Y-75069431D01*
X94451631Y-74987313D01*
X94399192Y-74941140D01*
X94380040Y-74873947D01*
X94400256Y-74807066D01*
X94453422Y-74761731D01*
X94459243Y-74759304D01*
X94512174Y-74738798D01*
X94512181Y-74738795D01*
X94628326Y-74666879D01*
X93975001Y-74013553D01*
X93975000Y-74013553D01*
X93321672Y-74666879D01*
X93321672Y-74666880D01*
X93437821Y-74738797D01*
X93437831Y-74738802D01*
X93490756Y-74759306D01*
X93546158Y-74801879D01*
X93569748Y-74867645D01*
X93554037Y-74935726D01*
X93504013Y-74984504D01*
X93498367Y-74987314D01*
X93322267Y-75069431D01*
X93322265Y-75069432D01*
X93135858Y-75199954D01*
X92974954Y-75360858D01*
X92844432Y-75547265D01*
X92844431Y-75547267D01*
X92748261Y-75753502D01*
X92748258Y-75753511D01*
X92689366Y-75973302D01*
X92689364Y-75973313D01*
X92669532Y-76199998D01*
X92669532Y-76200001D01*
X92689364Y-76426686D01*
X92689366Y-76426697D01*
X92748258Y-76646488D01*
X92748261Y-76646497D01*
X92844431Y-76852732D01*
X92844432Y-76852734D01*
X92974954Y-77039141D01*
X93135858Y-77200045D01*
X93182693Y-77232839D01*
X93322266Y-77330568D01*
X93380275Y-77357618D01*
X93432714Y-77403791D01*
X93451866Y-77470984D01*
X93431650Y-77537865D01*
X93380275Y-77582381D01*
X93380118Y-77582455D01*
X93322267Y-77609431D01*
X93322265Y-77609432D01*
X93135858Y-77739954D01*
X92974954Y-77900858D01*
X92844432Y-78087265D01*
X92844431Y-78087267D01*
X92748261Y-78293502D01*
X92748258Y-78293511D01*
X92689366Y-78513302D01*
X92689364Y-78513313D01*
X92669532Y-78739998D01*
X92669532Y-78740001D01*
X90666500Y-78740001D01*
X90666500Y-73660000D01*
X92769859Y-73660000D01*
X92790378Y-73881439D01*
X92851240Y-74095350D01*
X92950369Y-74294428D01*
X92966137Y-74315308D01*
X92966138Y-74315308D01*
X93592145Y-73689302D01*
X93621372Y-73689302D01*
X93650047Y-73802538D01*
X93713936Y-73900327D01*
X93806115Y-73972072D01*
X93916595Y-74010000D01*
X94004005Y-74010000D01*
X94090216Y-73995614D01*
X94192947Y-73940019D01*
X94272060Y-73854079D01*
X94318982Y-73747108D01*
X94326200Y-73660000D01*
X94328553Y-73660000D01*
X94983861Y-74315308D01*
X94999631Y-74294425D01*
X94999633Y-74294422D01*
X95098759Y-74095350D01*
X95159621Y-73881439D01*
X95180141Y-73660000D01*
X95180141Y-73659999D01*
X95159621Y-73438560D01*
X95098759Y-73224649D01*
X94999635Y-73025580D01*
X94999630Y-73025572D01*
X94983860Y-73004690D01*
X94328553Y-73659999D01*
X94328553Y-73660000D01*
X94326200Y-73660000D01*
X94328628Y-73630698D01*
X94299953Y-73517462D01*
X94236064Y-73419673D01*
X94143885Y-73347928D01*
X94033405Y-73310000D01*
X93945995Y-73310000D01*
X93859784Y-73324386D01*
X93757053Y-73379981D01*
X93677940Y-73465921D01*
X93631018Y-73572892D01*
X93621372Y-73689302D01*
X93592145Y-73689302D01*
X93621447Y-73660000D01*
X92966138Y-73004691D01*
X92966137Y-73004691D01*
X92950368Y-73025574D01*
X92851240Y-73224649D01*
X92790378Y-73438560D01*
X92769859Y-73659999D01*
X92769859Y-73660000D01*
X90666500Y-73660000D01*
X90666500Y-72653119D01*
X93321671Y-72653119D01*
X93975000Y-73306447D01*
X93975001Y-73306447D01*
X94628327Y-72653119D01*
X94512178Y-72581202D01*
X94512177Y-72581201D01*
X94304804Y-72500865D01*
X94086193Y-72460000D01*
X93863807Y-72460000D01*
X93645195Y-72500865D01*
X93437824Y-72581200D01*
X93437823Y-72581201D01*
X93321671Y-72653119D01*
X90666500Y-72653119D01*
X90666500Y-68038359D01*
X90667809Y-68020389D01*
X90668129Y-68018201D01*
X90671289Y-67996631D01*
X90670086Y-67982885D01*
X90666972Y-67947284D01*
X90666500Y-67936476D01*
X90666500Y-67930950D01*
X90666500Y-67930945D01*
X90662901Y-67900163D01*
X90662536Y-67896583D01*
X90655999Y-67821855D01*
X90654539Y-67814783D01*
X90654597Y-67814770D01*
X90652965Y-67807411D01*
X90652906Y-67807426D01*
X90651241Y-67800405D01*
X90651241Y-67800399D01*
X90625569Y-67729866D01*
X90624421Y-67726563D01*
X90600814Y-67655320D01*
X90600810Y-67655313D01*
X90597760Y-67648772D01*
X90597815Y-67648745D01*
X90594533Y-67641967D01*
X90594480Y-67641994D01*
X90591235Y-67635534D01*
X90550025Y-67572877D01*
X90548086Y-67569835D01*
X90508710Y-67505996D01*
X90504234Y-67500336D01*
X90504281Y-67500298D01*
X90499519Y-67494453D01*
X90499474Y-67494492D01*
X90494831Y-67488959D01*
X90440272Y-67437485D01*
X90437685Y-67434972D01*
X82715075Y-59712361D01*
X82703295Y-59698730D01*
X82688956Y-59679470D01*
X82650997Y-59647619D01*
X82643032Y-59640318D01*
X82639126Y-59636411D01*
X82614789Y-59617168D01*
X82611993Y-59614890D01*
X82554560Y-59566698D01*
X82548526Y-59562729D01*
X82548558Y-59562680D01*
X82542199Y-59558628D01*
X82542168Y-59558679D01*
X82536026Y-59554891D01*
X82536024Y-59554890D01*
X82536023Y-59554889D01*
X82468034Y-59523184D01*
X82464793Y-59521615D01*
X82433876Y-59506088D01*
X82397779Y-59487960D01*
X82397777Y-59487959D01*
X82397776Y-59487959D01*
X82390991Y-59485489D01*
X82391011Y-59485433D01*
X82383895Y-59482959D01*
X82383877Y-59483015D01*
X82377020Y-59480743D01*
X82303556Y-59465573D01*
X82300039Y-59464793D01*
X82227064Y-59447499D01*
X82219893Y-59446661D01*
X82219899Y-59446601D01*
X82212401Y-59445835D01*
X82212396Y-59445895D01*
X82205206Y-59445265D01*
X82130216Y-59447448D01*
X82126609Y-59447500D01*
X57902202Y-59447500D01*
X57884232Y-59446191D01*
X57860469Y-59442710D01*
X57814139Y-59446764D01*
X57811129Y-59447028D01*
X57800323Y-59447500D01*
X57794779Y-59447500D01*
X57763985Y-59451099D01*
X57760402Y-59451465D01*
X57685697Y-59458001D01*
X57678631Y-59459461D01*
X57678619Y-59459404D01*
X57671250Y-59461038D01*
X57671264Y-59461095D01*
X57664240Y-59462759D01*
X57593742Y-59488417D01*
X57590342Y-59489598D01*
X57519162Y-59513186D01*
X57519160Y-59513186D01*
X57519157Y-59513188D01*
X57512620Y-59516236D01*
X57512595Y-59516184D01*
X57505807Y-59519470D01*
X57505833Y-59519521D01*
X57499381Y-59522761D01*
X57436733Y-59563965D01*
X57433693Y-59565902D01*
X57369844Y-59605285D01*
X57364179Y-59609765D01*
X57364143Y-59609719D01*
X57358295Y-59614484D01*
X57358332Y-59614528D01*
X57352807Y-59619164D01*
X57352801Y-59619169D01*
X57352801Y-59619170D01*
X57329230Y-59644153D01*
X57301345Y-59673709D01*
X57298833Y-59676294D01*
X42694358Y-74280769D01*
X42680729Y-74292548D01*
X42661469Y-74306887D01*
X42629632Y-74344828D01*
X42622346Y-74352781D01*
X42618407Y-74356721D01*
X42599176Y-74381042D01*
X42596902Y-74383834D01*
X42548694Y-74441287D01*
X42544729Y-74447316D01*
X42544682Y-74447285D01*
X42540630Y-74453644D01*
X42540679Y-74453674D01*
X42536889Y-74459818D01*
X42505192Y-74527791D01*
X42503623Y-74531033D01*
X42469957Y-74598069D01*
X42467488Y-74604854D01*
X42467432Y-74604833D01*
X42464960Y-74611947D01*
X42465015Y-74611966D01*
X42462743Y-74618822D01*
X42447573Y-74692285D01*
X42446793Y-74695801D01*
X42429499Y-74768776D01*
X42428661Y-74775951D01*
X42428601Y-74775944D01*
X42427835Y-74783442D01*
X42427895Y-74783448D01*
X42427265Y-74790637D01*
X42429448Y-74865625D01*
X42429500Y-74869232D01*
X42429500Y-83984655D01*
X42427835Y-84000945D01*
X42427895Y-84000951D01*
X42427265Y-84008140D01*
X42429448Y-84083128D01*
X42429500Y-84086735D01*
X42429500Y-87903216D01*
X42409815Y-87970255D01*
X42357011Y-88016010D01*
X42341497Y-88021876D01*
X42284193Y-88039259D01*
X42109001Y-88132901D01*
X42108994Y-88132905D01*
X41955431Y-88258931D01*
X41922353Y-88299238D01*
X41864607Y-88338572D01*
X41794763Y-88340443D01*
X41734994Y-88304255D01*
X41704279Y-88241499D01*
X41702500Y-88220573D01*
X41702500Y-58678427D01*
X41702816Y-58669581D01*
X41704491Y-58646156D01*
X41719491Y-58436419D01*
X41722009Y-58418916D01*
X41770754Y-58194839D01*
X41775736Y-58177873D01*
X41855876Y-57963007D01*
X41863217Y-57946934D01*
X41973121Y-57745660D01*
X41982683Y-57730783D01*
X42120107Y-57547206D01*
X42131686Y-57533842D01*
X42293842Y-57371686D01*
X42307206Y-57360107D01*
X42490783Y-57222683D01*
X42505663Y-57213120D01*
X42706934Y-57103217D01*
X42723007Y-57095876D01*
X42937881Y-57015733D01*
X42954839Y-57010754D01*
X43178922Y-56962007D01*
X43196419Y-56959491D01*
X43429582Y-56942816D01*
X43438428Y-56942500D01*
X43481595Y-56942500D01*
X96208403Y-56942500D01*
X96208415Y-56942501D01*
G37*
%TD.AperFunction*%
%TA.AperFunction,Conductor*%
G36*
X81844155Y-60968185D02*
G01*
X81864797Y-60984819D01*
X89129181Y-68249202D01*
X89162666Y-68310525D01*
X89165500Y-68336883D01*
X89165500Y-79692294D01*
X89164191Y-79710263D01*
X89160710Y-79734025D01*
X89165028Y-79783368D01*
X89165500Y-79794176D01*
X89165500Y-79799711D01*
X89169098Y-79830495D01*
X89169464Y-79834083D01*
X89176000Y-79908791D01*
X89177461Y-79915867D01*
X89177403Y-79915878D01*
X89179034Y-79923237D01*
X89179092Y-79923224D01*
X89180757Y-79930249D01*
X89180758Y-79930254D01*
X89180759Y-79930255D01*
X89206347Y-80000561D01*
X89206400Y-80000705D01*
X89207582Y-80004107D01*
X89231182Y-80075326D01*
X89234236Y-80081874D01*
X89234182Y-80081898D01*
X89237470Y-80088688D01*
X89237521Y-80088663D01*
X89240761Y-80095114D01*
X89281979Y-80157784D01*
X89283889Y-80160782D01*
X89312735Y-80207547D01*
X89323289Y-80224658D01*
X89327766Y-80230319D01*
X89327719Y-80230356D01*
X89332482Y-80236202D01*
X89332528Y-80236164D01*
X89337173Y-80241699D01*
X89391707Y-80293149D01*
X89394295Y-80295663D01*
X93193181Y-84094549D01*
X93226666Y-84155872D01*
X93229500Y-84182230D01*
X93229500Y-87903216D01*
X93209815Y-87970255D01*
X93157011Y-88016010D01*
X93141497Y-88021876D01*
X93084193Y-88039259D01*
X92909001Y-88132901D01*
X92908995Y-88132905D01*
X92788664Y-88231658D01*
X92724354Y-88258970D01*
X92655487Y-88247179D01*
X92631336Y-88231658D01*
X92511004Y-88132905D01*
X92510998Y-88132901D01*
X92335805Y-88039259D01*
X92153504Y-87983958D01*
X92095066Y-87945661D01*
X92066609Y-87881849D01*
X92065500Y-87865298D01*
X92065500Y-87844654D01*
X92065500Y-87844650D01*
X92064996Y-87840665D01*
X92064080Y-87829021D01*
X92063913Y-87823707D01*
X92062709Y-87785373D01*
X92057122Y-87766144D01*
X92053174Y-87747084D01*
X92050663Y-87727204D01*
X92034588Y-87686604D01*
X92030804Y-87675552D01*
X92018618Y-87633609D01*
X92018616Y-87633606D01*
X92008423Y-87616371D01*
X91999861Y-87598894D01*
X91992487Y-87580269D01*
X91979989Y-87563068D01*
X91966811Y-87544930D01*
X91960405Y-87535177D01*
X91938170Y-87497580D01*
X91938168Y-87497578D01*
X91938165Y-87497574D01*
X91924006Y-87483415D01*
X91911368Y-87468619D01*
X91899594Y-87452413D01*
X91895027Y-87448635D01*
X91865940Y-87424572D01*
X91857299Y-87416709D01*
X84989819Y-80549228D01*
X84956334Y-80487905D01*
X84953500Y-80461547D01*
X84953500Y-79944222D01*
X84973185Y-79877183D01*
X85025989Y-79831428D01*
X85095147Y-79821484D01*
X85158703Y-79850509D01*
X85176766Y-79869911D01*
X85197452Y-79897544D01*
X85197455Y-79897547D01*
X85312664Y-79983793D01*
X85312671Y-79983797D01*
X85447517Y-80034091D01*
X85447516Y-80034091D01*
X85454444Y-80034835D01*
X85507127Y-80040500D01*
X87202872Y-80040499D01*
X87262483Y-80034091D01*
X87397331Y-79983796D01*
X87512546Y-79897546D01*
X87598796Y-79782331D01*
X87649091Y-79647483D01*
X87655500Y-79587873D01*
X87655499Y-77892128D01*
X87649091Y-77832517D01*
X87622675Y-77761693D01*
X87598797Y-77697671D01*
X87598793Y-77697664D01*
X87512547Y-77582455D01*
X87512546Y-77582454D01*
X87499630Y-77572785D01*
X87494929Y-77569266D01*
X87453058Y-77513334D01*
X87448074Y-77443642D01*
X87481558Y-77382319D01*
X87494930Y-77370733D01*
X87512546Y-77357546D01*
X87598796Y-77242331D01*
X87649091Y-77107483D01*
X87655500Y-77047873D01*
X87655499Y-75352128D01*
X87649091Y-75292517D01*
X87649060Y-75292435D01*
X87598797Y-75157671D01*
X87598793Y-75157664D01*
X87512547Y-75042455D01*
X87512544Y-75042452D01*
X87397335Y-74956206D01*
X87397328Y-74956202D01*
X87262482Y-74905908D01*
X87262483Y-74905908D01*
X87202883Y-74899501D01*
X87202881Y-74899500D01*
X87202873Y-74899500D01*
X87202865Y-74899500D01*
X87069398Y-74899500D01*
X87002359Y-74879815D01*
X86956604Y-74827011D01*
X86946660Y-74757853D01*
X86975685Y-74694297D01*
X87004121Y-74670073D01*
X87009280Y-74666879D01*
X87081562Y-74622124D01*
X87245981Y-74472236D01*
X87380058Y-74294689D01*
X87479229Y-74095528D01*
X87540115Y-73881536D01*
X87560643Y-73660000D01*
X87558590Y-73637849D01*
X87540115Y-73438464D01*
X87540114Y-73438462D01*
X87526338Y-73390045D01*
X87479229Y-73224472D01*
X87479224Y-73224461D01*
X87380061Y-73025316D01*
X87380056Y-73025308D01*
X87245979Y-72847761D01*
X87081562Y-72697876D01*
X87081560Y-72697874D01*
X86892404Y-72580754D01*
X86892398Y-72580752D01*
X86885963Y-72578259D01*
X86684940Y-72500382D01*
X86466243Y-72459500D01*
X86243757Y-72459500D01*
X86025060Y-72500382D01*
X85976132Y-72519337D01*
X85817601Y-72580752D01*
X85817595Y-72580754D01*
X85628439Y-72697874D01*
X85628437Y-72697876D01*
X85464020Y-72847761D01*
X85329943Y-73025308D01*
X85329938Y-73025316D01*
X85230775Y-73224461D01*
X85230769Y-73224476D01*
X85169885Y-73438462D01*
X85169884Y-73438464D01*
X85149357Y-73659999D01*
X85149357Y-73665402D01*
X85129672Y-73732441D01*
X85076868Y-73778196D01*
X85007710Y-73788140D01*
X84944154Y-73759115D01*
X84934930Y-73750065D01*
X84933870Y-73749111D01*
X84780734Y-73637851D01*
X84780729Y-73637848D01*
X84607807Y-73560857D01*
X84607802Y-73560855D01*
X84452196Y-73527781D01*
X84422646Y-73521500D01*
X84233354Y-73521500D01*
X84203804Y-73527781D01*
X84048197Y-73560855D01*
X84048192Y-73560857D01*
X83875270Y-73637848D01*
X83875265Y-73637851D01*
X83722129Y-73749111D01*
X83595466Y-73889785D01*
X83500821Y-74053715D01*
X83500818Y-74053722D01*
X83442327Y-74233740D01*
X83442326Y-74233744D01*
X83422540Y-74422000D01*
X83442326Y-74610256D01*
X83442327Y-74610259D01*
X83500818Y-74790277D01*
X83500821Y-74790284D01*
X83595467Y-74954216D01*
X83622739Y-74984504D01*
X83670650Y-75037715D01*
X83700880Y-75100706D01*
X83702500Y-75120687D01*
X83702500Y-80689255D01*
X83700775Y-80704872D01*
X83701061Y-80704899D01*
X83700326Y-80712665D01*
X83702439Y-80779872D01*
X83702500Y-80783767D01*
X83702500Y-80811357D01*
X83703003Y-80815335D01*
X83703918Y-80826967D01*
X83705290Y-80870624D01*
X83705291Y-80870627D01*
X83710880Y-80889867D01*
X83714824Y-80908911D01*
X83716046Y-80918580D01*
X83717336Y-80928792D01*
X83733414Y-80969403D01*
X83737197Y-80980452D01*
X83749381Y-81022388D01*
X83759580Y-81039634D01*
X83768138Y-81057103D01*
X83775514Y-81075732D01*
X83801181Y-81111060D01*
X83807593Y-81120821D01*
X83829828Y-81158417D01*
X83829833Y-81158424D01*
X83843990Y-81172580D01*
X83856627Y-81187375D01*
X83868406Y-81203587D01*
X83895895Y-81226328D01*
X83902057Y-81231425D01*
X83910698Y-81239288D01*
X90534456Y-87863047D01*
X90567941Y-87924370D01*
X90562957Y-87994062D01*
X90521085Y-88049995D01*
X90505229Y-88060086D01*
X90368997Y-88132903D01*
X90368995Y-88132905D01*
X90248664Y-88231658D01*
X90184354Y-88258970D01*
X90115487Y-88247179D01*
X90091336Y-88231658D01*
X89971004Y-88132905D01*
X89970998Y-88132901D01*
X89795805Y-88039259D01*
X89613504Y-87983958D01*
X89555066Y-87945661D01*
X89526609Y-87881849D01*
X89525500Y-87865298D01*
X89525500Y-87712742D01*
X89527224Y-87697122D01*
X89526939Y-87697096D01*
X89527671Y-87689340D01*
X89527673Y-87689333D01*
X89525561Y-87622126D01*
X89525500Y-87618231D01*
X89525500Y-87590654D01*
X89525500Y-87590650D01*
X89524996Y-87586665D01*
X89524080Y-87575021D01*
X89523883Y-87568740D01*
X89522709Y-87531373D01*
X89517122Y-87512144D01*
X89513174Y-87493084D01*
X89511183Y-87477319D01*
X89510664Y-87473208D01*
X89510663Y-87473206D01*
X89510663Y-87473204D01*
X89494588Y-87432604D01*
X89490804Y-87421552D01*
X89478618Y-87379609D01*
X89478616Y-87379606D01*
X89468423Y-87362371D01*
X89459861Y-87344894D01*
X89452487Y-87326269D01*
X89426816Y-87290937D01*
X89420405Y-87281177D01*
X89398170Y-87243580D01*
X89398168Y-87243578D01*
X89398165Y-87243574D01*
X89384006Y-87229415D01*
X89371368Y-87214619D01*
X89366985Y-87208586D01*
X89359594Y-87198413D01*
X89325940Y-87170572D01*
X89317299Y-87162709D01*
X82449819Y-80295228D01*
X82416334Y-80233905D01*
X82413500Y-80207547D01*
X82413500Y-73088687D01*
X82433185Y-73021648D01*
X82445350Y-73005715D01*
X82487745Y-72958630D01*
X82520533Y-72922216D01*
X82615179Y-72758284D01*
X82673674Y-72578256D01*
X82693460Y-72390000D01*
X82673674Y-72201744D01*
X82615179Y-72021716D01*
X82520533Y-71857784D01*
X82393871Y-71717112D01*
X82390638Y-71714763D01*
X82240734Y-71605851D01*
X82240729Y-71605848D01*
X82067807Y-71528857D01*
X82067802Y-71528855D01*
X81922001Y-71497865D01*
X81882646Y-71489500D01*
X81693354Y-71489500D01*
X81660897Y-71496398D01*
X81508197Y-71528855D01*
X81508192Y-71528857D01*
X81335270Y-71605848D01*
X81335265Y-71605851D01*
X81182129Y-71717111D01*
X81055466Y-71857785D01*
X80960821Y-72021715D01*
X80960818Y-72021722D01*
X80903060Y-72199484D01*
X80902326Y-72201744D01*
X80882540Y-72390000D01*
X80902326Y-72578256D01*
X80902327Y-72578259D01*
X80960818Y-72758277D01*
X80960821Y-72758284D01*
X81055467Y-72922216D01*
X81088255Y-72958630D01*
X81130650Y-73005715D01*
X81160880Y-73068706D01*
X81162500Y-73088687D01*
X81162500Y-80435255D01*
X81160775Y-80450872D01*
X81161061Y-80450899D01*
X81160326Y-80458665D01*
X81162439Y-80525872D01*
X81162500Y-80529767D01*
X81162500Y-80557357D01*
X81163003Y-80561335D01*
X81163918Y-80572967D01*
X81165290Y-80616624D01*
X81165739Y-80618168D01*
X81170880Y-80635867D01*
X81174824Y-80654911D01*
X81175854Y-80663059D01*
X81177336Y-80674792D01*
X81193414Y-80715403D01*
X81197197Y-80726452D01*
X81209381Y-80768388D01*
X81219580Y-80785634D01*
X81228138Y-80803103D01*
X81235514Y-80821732D01*
X81261181Y-80857060D01*
X81267593Y-80866821D01*
X81289828Y-80904417D01*
X81289833Y-80904424D01*
X81303990Y-80918580D01*
X81316627Y-80933375D01*
X81328406Y-80949587D01*
X81358928Y-80974837D01*
X81362057Y-80977425D01*
X81370698Y-80985288D01*
X84057878Y-83672468D01*
X84091363Y-83733791D01*
X84086379Y-83803483D01*
X84044507Y-83859416D01*
X84043083Y-83860467D01*
X83976127Y-83909113D01*
X83849466Y-84049785D01*
X83754821Y-84213715D01*
X83754818Y-84213722D01*
X83711011Y-84348548D01*
X83696326Y-84393744D01*
X83686960Y-84482857D01*
X83678679Y-84561649D01*
X83652094Y-84626263D01*
X83643039Y-84636368D01*
X83436208Y-84843199D01*
X83423951Y-84853020D01*
X83424134Y-84853241D01*
X83418122Y-84858214D01*
X83372098Y-84907223D01*
X83369391Y-84910016D01*
X83349889Y-84929517D01*
X83349875Y-84929534D01*
X83347407Y-84932715D01*
X83339843Y-84941570D01*
X83309937Y-84973418D01*
X83309936Y-84973420D01*
X83300284Y-84990976D01*
X83289610Y-85007226D01*
X83277329Y-85023061D01*
X83277324Y-85023068D01*
X83259975Y-85063158D01*
X83254838Y-85073644D01*
X83233803Y-85111906D01*
X83228822Y-85131307D01*
X83222521Y-85149710D01*
X83214562Y-85168102D01*
X83214561Y-85168105D01*
X83207728Y-85211243D01*
X83205360Y-85222674D01*
X83194501Y-85264971D01*
X83194500Y-85264982D01*
X83194500Y-85285016D01*
X83192973Y-85304415D01*
X83189840Y-85324194D01*
X83189840Y-85324195D01*
X83193950Y-85367674D01*
X83194500Y-85379343D01*
X83194500Y-87865298D01*
X83174815Y-87932337D01*
X83122011Y-87978092D01*
X83106496Y-87983958D01*
X82924194Y-88039259D01*
X82749001Y-88132901D01*
X82748995Y-88132905D01*
X82628664Y-88231658D01*
X82564354Y-88258970D01*
X82495487Y-88247179D01*
X82471336Y-88231658D01*
X82351004Y-88132905D01*
X82350998Y-88132901D01*
X82175805Y-88039259D01*
X81993504Y-87983958D01*
X81935066Y-87945661D01*
X81906609Y-87881849D01*
X81905500Y-87865298D01*
X81905500Y-86244843D01*
X81925185Y-86177804D01*
X81977989Y-86132049D01*
X81978958Y-86131611D01*
X81986730Y-86128151D01*
X82139871Y-86016888D01*
X82266533Y-85876216D01*
X82361179Y-85712284D01*
X82419674Y-85532256D01*
X82439460Y-85344000D01*
X82419674Y-85155744D01*
X82361179Y-84975716D01*
X82266533Y-84811784D01*
X82139871Y-84671112D01*
X82092050Y-84636368D01*
X81986734Y-84559851D01*
X81986729Y-84559848D01*
X81813807Y-84482857D01*
X81813802Y-84482855D01*
X81668001Y-84451865D01*
X81628646Y-84443500D01*
X81439354Y-84443500D01*
X81406897Y-84450398D01*
X81254197Y-84482855D01*
X81254192Y-84482857D01*
X81081270Y-84559848D01*
X81081265Y-84559851D01*
X80928129Y-84671111D01*
X80801466Y-84811785D01*
X80706821Y-84975715D01*
X80706818Y-84975722D01*
X80648327Y-85155740D01*
X80648326Y-85155744D01*
X80630868Y-85321848D01*
X80628540Y-85344000D01*
X80648325Y-85532256D01*
X80648585Y-85533476D01*
X80648628Y-85535137D01*
X80649005Y-85538719D01*
X80648723Y-85538748D01*
X80649552Y-85570383D01*
X80650085Y-85570400D01*
X80649840Y-85578195D01*
X80653950Y-85621673D01*
X80654500Y-85633343D01*
X80654500Y-87865298D01*
X80634815Y-87932337D01*
X80582011Y-87978092D01*
X80566496Y-87983958D01*
X80384194Y-88039259D01*
X80209001Y-88132901D01*
X80208995Y-88132905D01*
X80088664Y-88231658D01*
X80024354Y-88258970D01*
X79955487Y-88247179D01*
X79931336Y-88231658D01*
X79811004Y-88132905D01*
X79810998Y-88132901D01*
X79635805Y-88039259D01*
X79453504Y-87983958D01*
X79395066Y-87945661D01*
X79366609Y-87881849D01*
X79365500Y-87865298D01*
X79365500Y-86804687D01*
X79385185Y-86737648D01*
X79397350Y-86721715D01*
X79440251Y-86674068D01*
X79472533Y-86638216D01*
X79567179Y-86474284D01*
X79625674Y-86294256D01*
X79645460Y-86106000D01*
X79625674Y-85917744D01*
X79567179Y-85737716D01*
X79472533Y-85573784D01*
X79345871Y-85433112D01*
X79345870Y-85433111D01*
X79192734Y-85321851D01*
X79192729Y-85321848D01*
X79019807Y-85244857D01*
X79019802Y-85244855D01*
X78861665Y-85211243D01*
X78834646Y-85205500D01*
X78645354Y-85205500D01*
X78618335Y-85211243D01*
X78460197Y-85244855D01*
X78460192Y-85244857D01*
X78287270Y-85321848D01*
X78287265Y-85321851D01*
X78134129Y-85433111D01*
X78007466Y-85573785D01*
X77912821Y-85737715D01*
X77912818Y-85737722D01*
X77867820Y-85876214D01*
X77854326Y-85917744D01*
X77834540Y-86106000D01*
X77854326Y-86294256D01*
X77854327Y-86294259D01*
X77912818Y-86474277D01*
X77912821Y-86474284D01*
X78007467Y-86638216D01*
X78039745Y-86674064D01*
X78082650Y-86721715D01*
X78112880Y-86784706D01*
X78114500Y-86804687D01*
X78114500Y-87865298D01*
X78094815Y-87932337D01*
X78042011Y-87978092D01*
X78026496Y-87983958D01*
X77844194Y-88039259D01*
X77669001Y-88132901D01*
X77668995Y-88132905D01*
X77548664Y-88231658D01*
X77484354Y-88258970D01*
X77415487Y-88247179D01*
X77391336Y-88231658D01*
X77271004Y-88132905D01*
X77270998Y-88132901D01*
X77095808Y-88039260D01*
X76946809Y-87994062D01*
X76905701Y-87981592D01*
X76905699Y-87981591D01*
X76905701Y-87981591D01*
X76790595Y-87970255D01*
X76757547Y-87967000D01*
X76757544Y-87967000D01*
X76202952Y-87967000D01*
X76135913Y-87947315D01*
X76115271Y-87930681D01*
X76058775Y-87874185D01*
X75995959Y-87811368D01*
X75962475Y-87750047D01*
X75960323Y-87736671D01*
X75942674Y-87568744D01*
X75884179Y-87388716D01*
X75789533Y-87224784D01*
X75662871Y-87084112D01*
X75648396Y-87073595D01*
X75509734Y-86972851D01*
X75509729Y-86972848D01*
X75336807Y-86895857D01*
X75336802Y-86895855D01*
X75178665Y-86862243D01*
X75151646Y-86856500D01*
X74962354Y-86856500D01*
X74935335Y-86862243D01*
X74777197Y-86895855D01*
X74777192Y-86895857D01*
X74604270Y-86972848D01*
X74604265Y-86972851D01*
X74451129Y-87084111D01*
X74324466Y-87224785D01*
X74229821Y-87388715D01*
X74229818Y-87388722D01*
X74173170Y-87563068D01*
X74171326Y-87568744D01*
X74155905Y-87715468D01*
X74151540Y-87757000D01*
X74159216Y-87830040D01*
X74146646Y-87898770D01*
X74098913Y-87949793D01*
X74035895Y-87967000D01*
X73102457Y-87967000D01*
X72954300Y-87981591D01*
X72764191Y-88039260D01*
X72589001Y-88132901D01*
X72588995Y-88132905D01*
X72468664Y-88231658D01*
X72404354Y-88258970D01*
X72335487Y-88247179D01*
X72311336Y-88231658D01*
X72191004Y-88132905D01*
X72190998Y-88132901D01*
X72015808Y-88039260D01*
X71866809Y-87994062D01*
X71825701Y-87981592D01*
X71825699Y-87981591D01*
X71825701Y-87981591D01*
X71719415Y-87971123D01*
X71677547Y-87967000D01*
X71677543Y-87967000D01*
X70562457Y-87967000D01*
X70414300Y-87981591D01*
X70224191Y-88039260D01*
X70049001Y-88132901D01*
X70048995Y-88132905D01*
X69918468Y-88240025D01*
X69854158Y-88267337D01*
X69785291Y-88255546D01*
X69761140Y-88240025D01*
X69636978Y-88138129D01*
X69636972Y-88138125D01*
X69456266Y-88041535D01*
X69304471Y-87995489D01*
X69260175Y-87982052D01*
X69260173Y-87982051D01*
X69260175Y-87982051D01*
X69150539Y-87971253D01*
X69107351Y-87967000D01*
X69107347Y-87967000D01*
X67925653Y-87967000D01*
X67772826Y-87982051D01*
X67576733Y-88041535D01*
X67396027Y-88138125D01*
X67335358Y-88187913D01*
X67271047Y-88215225D01*
X67202180Y-88203432D01*
X67178031Y-88187912D01*
X67111004Y-88132905D01*
X67111002Y-88132903D01*
X66935808Y-88039260D01*
X66786809Y-87994062D01*
X66745701Y-87981592D01*
X66745699Y-87981591D01*
X66745701Y-87981591D01*
X66639415Y-87971123D01*
X66597547Y-87967000D01*
X66597543Y-87967000D01*
X65482457Y-87967000D01*
X65334300Y-87981591D01*
X65144191Y-88039260D01*
X64969001Y-88132901D01*
X64968995Y-88132905D01*
X64848664Y-88231658D01*
X64784354Y-88258970D01*
X64715487Y-88247179D01*
X64691336Y-88231658D01*
X64571004Y-88132905D01*
X64570998Y-88132901D01*
X64395808Y-88039260D01*
X64319162Y-88016010D01*
X64271164Y-88001450D01*
X64212727Y-87963153D01*
X64184271Y-87899341D01*
X64194831Y-87830274D01*
X64219477Y-87795112D01*
X64738772Y-87275819D01*
X64800095Y-87242334D01*
X64826453Y-87239500D01*
X72053257Y-87239500D01*
X72068877Y-87241224D01*
X72068904Y-87240939D01*
X72076660Y-87241671D01*
X72076667Y-87241673D01*
X72143873Y-87239561D01*
X72147768Y-87239500D01*
X72175346Y-87239500D01*
X72175350Y-87239500D01*
X72179324Y-87238997D01*
X72190963Y-87238080D01*
X72234627Y-87236709D01*
X72253869Y-87231117D01*
X72272912Y-87227174D01*
X72292792Y-87224664D01*
X72333401Y-87208585D01*
X72344444Y-87204803D01*
X72386390Y-87192618D01*
X72403629Y-87182422D01*
X72421103Y-87173862D01*
X72439727Y-87166488D01*
X72439727Y-87166487D01*
X72439732Y-87166486D01*
X72475083Y-87140800D01*
X72484814Y-87134408D01*
X72522420Y-87112170D01*
X72536589Y-87097999D01*
X72551379Y-87085368D01*
X72567587Y-87073594D01*
X72595438Y-87039926D01*
X72603279Y-87031309D01*
X76583788Y-83050801D01*
X76596042Y-83040986D01*
X76595859Y-83040764D01*
X76601868Y-83035791D01*
X76601877Y-83035786D01*
X76647949Y-82986722D01*
X76650566Y-82984023D01*
X76670120Y-82964471D01*
X76672576Y-82961303D01*
X76680156Y-82952427D01*
X76710062Y-82920582D01*
X76719715Y-82903020D01*
X76730389Y-82886770D01*
X76742673Y-82870936D01*
X76760019Y-82830850D01*
X76765157Y-82820362D01*
X76786196Y-82782093D01*
X76786197Y-82782092D01*
X76791177Y-82762691D01*
X76797478Y-82744288D01*
X76805438Y-82725896D01*
X76812272Y-82682741D01*
X76814635Y-82671331D01*
X76825500Y-82629019D01*
X76825500Y-82608983D01*
X76827027Y-82589582D01*
X76830160Y-82569804D01*
X76826050Y-82526324D01*
X76825500Y-82514655D01*
X76825500Y-81115782D01*
X76845185Y-81048743D01*
X76878377Y-81014207D01*
X76919678Y-80985288D01*
X76981841Y-80941761D01*
X77131761Y-80791841D01*
X77253371Y-80618164D01*
X77342974Y-80426009D01*
X77397849Y-80221213D01*
X77416328Y-80010000D01*
X77397849Y-79798787D01*
X77342974Y-79593991D01*
X77253371Y-79401836D01*
X77253369Y-79401833D01*
X77253368Y-79401831D01*
X77200847Y-79326823D01*
X77178520Y-79260617D01*
X77195530Y-79192850D01*
X77246478Y-79145037D01*
X77302422Y-79131700D01*
X77621057Y-79131700D01*
X77636677Y-79133424D01*
X77636704Y-79133139D01*
X77644460Y-79133871D01*
X77644467Y-79133873D01*
X77711673Y-79131761D01*
X77715568Y-79131700D01*
X77743146Y-79131700D01*
X77743150Y-79131700D01*
X77747124Y-79131197D01*
X77758763Y-79130280D01*
X77802427Y-79128909D01*
X77821669Y-79123317D01*
X77840712Y-79119374D01*
X77860592Y-79116864D01*
X77901201Y-79100785D01*
X77912244Y-79097003D01*
X77954190Y-79084818D01*
X77971429Y-79074622D01*
X77988903Y-79066062D01*
X78007527Y-79058688D01*
X78007527Y-79058687D01*
X78007532Y-79058686D01*
X78042883Y-79033000D01*
X78052614Y-79026608D01*
X78090220Y-79004370D01*
X78104389Y-78990199D01*
X78119179Y-78977568D01*
X78135387Y-78965794D01*
X78163238Y-78932126D01*
X78171079Y-78923509D01*
X78397683Y-78696906D01*
X78459005Y-78663422D01*
X78517455Y-78664813D01*
X78522208Y-78666086D01*
X78528787Y-78667849D01*
X78697757Y-78682632D01*
X78739999Y-78686328D01*
X78740000Y-78686328D01*
X78740001Y-78686328D01*
X78775202Y-78683248D01*
X78951213Y-78667849D01*
X79156009Y-78612974D01*
X79348164Y-78523371D01*
X79521841Y-78401761D01*
X79671761Y-78251841D01*
X79793371Y-78078164D01*
X79882974Y-77886009D01*
X79937849Y-77681213D01*
X79956328Y-77470000D01*
X79937849Y-77258787D01*
X79882974Y-77053991D01*
X79793371Y-76861836D01*
X79793369Y-76861833D01*
X79793368Y-76861831D01*
X79671764Y-76688163D01*
X79671759Y-76688157D01*
X79521842Y-76538240D01*
X79521836Y-76538235D01*
X79348168Y-76416631D01*
X79348164Y-76416629D01*
X79156009Y-76327026D01*
X79156005Y-76327024D01*
X79155998Y-76327022D01*
X79127982Y-76319515D01*
X79068323Y-76283149D01*
X79037795Y-76220302D01*
X79046091Y-76150926D01*
X79090577Y-76097049D01*
X79127989Y-76079965D01*
X79155830Y-76072505D01*
X79155838Y-76072502D01*
X79347913Y-75982937D01*
X79347917Y-75982935D01*
X79401713Y-75945266D01*
X78784401Y-75327953D01*
X78865148Y-75315165D01*
X78978045Y-75257641D01*
X79067641Y-75168045D01*
X79125165Y-75055148D01*
X79137953Y-74974400D01*
X79755266Y-75591713D01*
X79792935Y-75537917D01*
X79792937Y-75537913D01*
X79882502Y-75345838D01*
X79882506Y-75345829D01*
X79937354Y-75141131D01*
X79937356Y-75141120D01*
X79955827Y-74930001D01*
X79955827Y-74929998D01*
X79937356Y-74718879D01*
X79937354Y-74718868D01*
X79882506Y-74514170D01*
X79882502Y-74514161D01*
X79792934Y-74322083D01*
X79755266Y-74268286D01*
X79755265Y-74268285D01*
X79137953Y-74885598D01*
X79125165Y-74804852D01*
X79067641Y-74691955D01*
X78978045Y-74602359D01*
X78865148Y-74544835D01*
X78784399Y-74532046D01*
X79401713Y-73914733D01*
X79347914Y-73877063D01*
X79347912Y-73877062D01*
X79155838Y-73787497D01*
X79155829Y-73787493D01*
X79127985Y-73780033D01*
X79068325Y-73743669D01*
X79037795Y-73680822D01*
X79046089Y-73611446D01*
X79090574Y-73557568D01*
X79127986Y-73540483D01*
X79155999Y-73532977D01*
X79156000Y-73532976D01*
X79156009Y-73532974D01*
X79348164Y-73443371D01*
X79521841Y-73321761D01*
X79671761Y-73171841D01*
X79793371Y-72998164D01*
X79882974Y-72806009D01*
X79937849Y-72601213D01*
X79956328Y-72390000D01*
X79937849Y-72178787D01*
X79882974Y-71973991D01*
X79793371Y-71781836D01*
X79793369Y-71781833D01*
X79793368Y-71781831D01*
X79671764Y-71608163D01*
X79671759Y-71608157D01*
X79521842Y-71458240D01*
X79521836Y-71458235D01*
X79348168Y-71336631D01*
X79348164Y-71336629D01*
X79156009Y-71247026D01*
X79156005Y-71247025D01*
X79156001Y-71247023D01*
X79128949Y-71239775D01*
X79069288Y-71203410D01*
X79038759Y-71140563D01*
X79047054Y-71071188D01*
X79091539Y-71017310D01*
X79128949Y-71000225D01*
X79146930Y-70995406D01*
X79156009Y-70992974D01*
X79348164Y-70903371D01*
X79521841Y-70781761D01*
X79671761Y-70631841D01*
X79793371Y-70458164D01*
X79882974Y-70266009D01*
X79937849Y-70061213D01*
X79956328Y-69850000D01*
X79937849Y-69638787D01*
X79882974Y-69433991D01*
X79793371Y-69241836D01*
X79793369Y-69241833D01*
X79793368Y-69241831D01*
X79671764Y-69068163D01*
X79671759Y-69068157D01*
X79521842Y-68918240D01*
X79521836Y-68918235D01*
X79348168Y-68796631D01*
X79348164Y-68796629D01*
X79156009Y-68707026D01*
X79156005Y-68707025D01*
X79156001Y-68707023D01*
X78951218Y-68652152D01*
X78951208Y-68652150D01*
X78740001Y-68633672D01*
X78739999Y-68633672D01*
X78528791Y-68652150D01*
X78528781Y-68652152D01*
X78323998Y-68707023D01*
X78323989Y-68707027D01*
X78131835Y-68796629D01*
X78131831Y-68796631D01*
X77958163Y-68918235D01*
X77958157Y-68918240D01*
X77808240Y-69068157D01*
X77808235Y-69068163D01*
X77686631Y-69241831D01*
X77686629Y-69241835D01*
X77597027Y-69433989D01*
X77597024Y-69433996D01*
X77589775Y-69461051D01*
X77553409Y-69520711D01*
X77490562Y-69551240D01*
X77421187Y-69542945D01*
X77367309Y-69498459D01*
X77350225Y-69461051D01*
X77345156Y-69442134D01*
X77342974Y-69433991D01*
X77253371Y-69241836D01*
X77253369Y-69241833D01*
X77253368Y-69241831D01*
X77131764Y-69068163D01*
X77131759Y-69068157D01*
X76981842Y-68918240D01*
X76981836Y-68918235D01*
X76808168Y-68796631D01*
X76808164Y-68796629D01*
X76616009Y-68707026D01*
X76616005Y-68707025D01*
X76616001Y-68707023D01*
X76588949Y-68699775D01*
X76529288Y-68663410D01*
X76498759Y-68600563D01*
X76507054Y-68531188D01*
X76551539Y-68477310D01*
X76588949Y-68460225D01*
X76606930Y-68455406D01*
X76616009Y-68452974D01*
X76808164Y-68363371D01*
X76981841Y-68241761D01*
X77131761Y-68091841D01*
X77253371Y-67918164D01*
X77342974Y-67726009D01*
X77397849Y-67521213D01*
X77416328Y-67310000D01*
X77397849Y-67098787D01*
X77342974Y-66893991D01*
X77253371Y-66701836D01*
X77253369Y-66701833D01*
X77253368Y-66701831D01*
X77131764Y-66528163D01*
X77131759Y-66528157D01*
X76981842Y-66378240D01*
X76981836Y-66378235D01*
X76808168Y-66256631D01*
X76808164Y-66256629D01*
X76616009Y-66167026D01*
X76616005Y-66167025D01*
X76616001Y-66167023D01*
X76411218Y-66112152D01*
X76411208Y-66112150D01*
X76200001Y-66093672D01*
X76199999Y-66093672D01*
X75988791Y-66112150D01*
X75988781Y-66112152D01*
X75783998Y-66167023D01*
X75783989Y-66167027D01*
X75591835Y-66256629D01*
X75591831Y-66256631D01*
X75418163Y-66378235D01*
X75418157Y-66378240D01*
X75268240Y-66528157D01*
X75268235Y-66528163D01*
X75146631Y-66701831D01*
X75146629Y-66701835D01*
X75057027Y-66893989D01*
X75057024Y-66893996D01*
X75049775Y-66921051D01*
X75013409Y-66980711D01*
X74950562Y-67011240D01*
X74881187Y-67002945D01*
X74827309Y-66958459D01*
X74810225Y-66921051D01*
X74802975Y-66893996D01*
X74802974Y-66893991D01*
X74713371Y-66701836D01*
X74713369Y-66701833D01*
X74713368Y-66701831D01*
X74591764Y-66528163D01*
X74591759Y-66528157D01*
X74441842Y-66378240D01*
X74441836Y-66378235D01*
X74268168Y-66256631D01*
X74268164Y-66256629D01*
X74076009Y-66167026D01*
X74076005Y-66167025D01*
X74076001Y-66167023D01*
X73871218Y-66112152D01*
X73871208Y-66112150D01*
X73660001Y-66093672D01*
X73659999Y-66093672D01*
X73448791Y-66112150D01*
X73448781Y-66112152D01*
X73243998Y-66167023D01*
X73243989Y-66167027D01*
X73051835Y-66256629D01*
X73051831Y-66256631D01*
X72878163Y-66378235D01*
X72878157Y-66378240D01*
X72728240Y-66528157D01*
X72728235Y-66528163D01*
X72606631Y-66701831D01*
X72606629Y-66701835D01*
X72517027Y-66893989D01*
X72517024Y-66893996D01*
X72509775Y-66921051D01*
X72473409Y-66980711D01*
X72410562Y-67011240D01*
X72341187Y-67002945D01*
X72287309Y-66958459D01*
X72270225Y-66921051D01*
X72262975Y-66893996D01*
X72262974Y-66893991D01*
X72173371Y-66701836D01*
X72173369Y-66701833D01*
X72173368Y-66701831D01*
X72051764Y-66528163D01*
X72051759Y-66528157D01*
X71901842Y-66378240D01*
X71901836Y-66378235D01*
X71728168Y-66256631D01*
X71728164Y-66256629D01*
X71536009Y-66167026D01*
X71536005Y-66167025D01*
X71536001Y-66167023D01*
X71331218Y-66112152D01*
X71331208Y-66112150D01*
X71120001Y-66093672D01*
X71119999Y-66093672D01*
X70908791Y-66112150D01*
X70908781Y-66112152D01*
X70703998Y-66167023D01*
X70703989Y-66167027D01*
X70511835Y-66256629D01*
X70511831Y-66256631D01*
X70338163Y-66378235D01*
X70338157Y-66378240D01*
X70188240Y-66528157D01*
X70188235Y-66528163D01*
X70066631Y-66701831D01*
X70066629Y-66701835D01*
X69977027Y-66893989D01*
X69977024Y-66893996D01*
X69969775Y-66921051D01*
X69933409Y-66980711D01*
X69870562Y-67011240D01*
X69801187Y-67002945D01*
X69747309Y-66958459D01*
X69730225Y-66921051D01*
X69722975Y-66893996D01*
X69722974Y-66893991D01*
X69633371Y-66701836D01*
X69633369Y-66701833D01*
X69633368Y-66701831D01*
X69511764Y-66528163D01*
X69511759Y-66528157D01*
X69361842Y-66378240D01*
X69361836Y-66378235D01*
X69188168Y-66256631D01*
X69188164Y-66256629D01*
X68996009Y-66167026D01*
X68996005Y-66167025D01*
X68996001Y-66167023D01*
X68791218Y-66112152D01*
X68791208Y-66112150D01*
X68580001Y-66093672D01*
X68579999Y-66093672D01*
X68368791Y-66112150D01*
X68368781Y-66112152D01*
X68163998Y-66167023D01*
X68163989Y-66167027D01*
X67971835Y-66256629D01*
X67971831Y-66256631D01*
X67798163Y-66378235D01*
X67798157Y-66378240D01*
X67648240Y-66528157D01*
X67648235Y-66528163D01*
X67526631Y-66701831D01*
X67526629Y-66701835D01*
X67437027Y-66893989D01*
X67437024Y-66893996D01*
X67429775Y-66921051D01*
X67393409Y-66980711D01*
X67330562Y-67011240D01*
X67261187Y-67002945D01*
X67207309Y-66958459D01*
X67190225Y-66921051D01*
X67182975Y-66893996D01*
X67182974Y-66893991D01*
X67093371Y-66701836D01*
X67093369Y-66701833D01*
X67093368Y-66701831D01*
X66971764Y-66528163D01*
X66971759Y-66528157D01*
X66821842Y-66378240D01*
X66821836Y-66378235D01*
X66648168Y-66256631D01*
X66648164Y-66256629D01*
X66456009Y-66167026D01*
X66456005Y-66167025D01*
X66456001Y-66167023D01*
X66251218Y-66112152D01*
X66251208Y-66112150D01*
X66040001Y-66093672D01*
X66039999Y-66093672D01*
X65828791Y-66112150D01*
X65828781Y-66112152D01*
X65623998Y-66167023D01*
X65623989Y-66167027D01*
X65431835Y-66256629D01*
X65431831Y-66256631D01*
X65258163Y-66378235D01*
X65108237Y-66528160D01*
X65035793Y-66631623D01*
X64981216Y-66675248D01*
X64934218Y-66684500D01*
X52773748Y-66684500D01*
X52706709Y-66664815D01*
X52681600Y-66643474D01*
X52675873Y-66637114D01*
X52675872Y-66637113D01*
X52675871Y-66637112D01*
X52668730Y-66631923D01*
X52626066Y-66576595D01*
X52620087Y-66506981D01*
X52652693Y-66445186D01*
X52653861Y-66444001D01*
X58113045Y-60984819D01*
X58174368Y-60951334D01*
X58200726Y-60948500D01*
X81777116Y-60948500D01*
X81844155Y-60968185D01*
G37*
%TD.AperFunction*%
%TA.AperFunction,Conductor*%
G36*
X51337319Y-67863058D02*
G01*
X51386134Y-67896267D01*
X51464128Y-67982887D01*
X51464129Y-67982888D01*
X51617265Y-68094148D01*
X51617270Y-68094151D01*
X51790192Y-68171142D01*
X51790197Y-68171144D01*
X51975354Y-68210500D01*
X51975355Y-68210500D01*
X52164644Y-68210500D01*
X52164646Y-68210500D01*
X52349803Y-68171144D01*
X52522730Y-68094151D01*
X52675871Y-67982888D01*
X52678788Y-67979647D01*
X52681600Y-67976526D01*
X52741087Y-67939879D01*
X52773748Y-67935500D01*
X64934218Y-67935500D01*
X65001257Y-67955185D01*
X65035790Y-67988373D01*
X65039154Y-67993177D01*
X65061481Y-68059383D01*
X65044471Y-68127150D01*
X64993523Y-68174963D01*
X64937579Y-68188300D01*
X53188938Y-68188300D01*
X53173321Y-68186576D01*
X53173294Y-68186862D01*
X53165532Y-68186127D01*
X53098345Y-68188239D01*
X53094451Y-68188300D01*
X53066850Y-68188300D01*
X53063162Y-68188765D01*
X53062849Y-68188805D01*
X53051231Y-68189718D01*
X53007573Y-68191090D01*
X53007572Y-68191090D01*
X52988329Y-68196681D01*
X52969279Y-68200625D01*
X52949411Y-68203134D01*
X52949410Y-68203134D01*
X52908799Y-68219213D01*
X52897754Y-68222994D01*
X52855814Y-68235179D01*
X52855810Y-68235181D01*
X52838566Y-68245379D01*
X52821105Y-68253933D01*
X52802474Y-68261310D01*
X52802462Y-68261317D01*
X52767133Y-68286985D01*
X52757373Y-68293396D01*
X52719780Y-68315629D01*
X52705614Y-68329795D01*
X52690824Y-68342427D01*
X52674614Y-68354204D01*
X52674611Y-68354207D01*
X52646773Y-68387858D01*
X52638911Y-68396497D01*
X52122228Y-68913181D01*
X52060905Y-68946666D01*
X52034547Y-68949500D01*
X51975354Y-68949500D01*
X51942897Y-68956398D01*
X51790197Y-68988855D01*
X51790192Y-68988857D01*
X51617270Y-69065848D01*
X51617265Y-69065851D01*
X51464129Y-69177111D01*
X51337466Y-69317785D01*
X51242821Y-69481715D01*
X51242818Y-69481722D01*
X51205885Y-69595392D01*
X51184326Y-69661744D01*
X51164540Y-69850000D01*
X51184326Y-70038256D01*
X51184327Y-70038259D01*
X51242818Y-70218277D01*
X51242821Y-70218284D01*
X51337467Y-70382216D01*
X51405851Y-70458164D01*
X51464129Y-70522888D01*
X51617265Y-70634148D01*
X51617270Y-70634151D01*
X51790192Y-70711142D01*
X51790197Y-70711144D01*
X51975354Y-70750500D01*
X51975355Y-70750500D01*
X52164644Y-70750500D01*
X52164646Y-70750500D01*
X52349803Y-70711144D01*
X52522730Y-70634151D01*
X52675871Y-70522888D01*
X52802533Y-70382216D01*
X52897179Y-70218284D01*
X52955674Y-70038256D01*
X52973321Y-69870344D01*
X52999904Y-69805734D01*
X53008941Y-69795648D01*
X53328973Y-69475616D01*
X53390295Y-69442134D01*
X53416653Y-69439300D01*
X62194003Y-69439300D01*
X62261042Y-69458985D01*
X62306797Y-69511789D01*
X62316741Y-69580947D01*
X62313778Y-69595392D01*
X62302153Y-69638778D01*
X62302150Y-69638791D01*
X62283672Y-69849999D01*
X62283672Y-69850000D01*
X62302150Y-70061208D01*
X62302152Y-70061218D01*
X62357023Y-70266001D01*
X62357025Y-70266005D01*
X62357026Y-70266009D01*
X62411213Y-70382214D01*
X62446629Y-70458164D01*
X62446631Y-70458168D01*
X62568235Y-70631836D01*
X62568240Y-70631842D01*
X62718157Y-70781759D01*
X62718163Y-70781764D01*
X62891831Y-70903368D01*
X62891833Y-70903369D01*
X62891836Y-70903371D01*
X63083991Y-70992974D01*
X63098717Y-70996919D01*
X63111051Y-71000225D01*
X63170711Y-71036591D01*
X63201240Y-71099438D01*
X63192945Y-71168813D01*
X63148459Y-71222691D01*
X63111051Y-71239775D01*
X63083996Y-71247024D01*
X63083989Y-71247027D01*
X62891835Y-71336629D01*
X62891831Y-71336631D01*
X62718163Y-71458235D01*
X62718157Y-71458240D01*
X62568240Y-71608157D01*
X62568235Y-71608163D01*
X62446631Y-71781831D01*
X62446629Y-71781835D01*
X62357027Y-71973989D01*
X62357023Y-71973998D01*
X62302152Y-72178781D01*
X62302150Y-72178791D01*
X62283672Y-72389999D01*
X62283672Y-72390000D01*
X62302150Y-72601208D01*
X62302152Y-72601218D01*
X62357023Y-72806001D01*
X62357025Y-72806005D01*
X62357026Y-72806009D01*
X62402866Y-72904314D01*
X62446629Y-72998164D01*
X62446631Y-72998168D01*
X62568235Y-73171836D01*
X62568240Y-73171842D01*
X62718157Y-73321759D01*
X62718163Y-73321764D01*
X62891831Y-73443368D01*
X62891833Y-73443369D01*
X62891836Y-73443371D01*
X63083991Y-73532974D01*
X63098717Y-73536919D01*
X63111051Y-73540225D01*
X63170711Y-73576591D01*
X63201240Y-73639438D01*
X63192945Y-73708813D01*
X63148459Y-73762691D01*
X63111051Y-73779775D01*
X63083996Y-73787024D01*
X63083989Y-73787027D01*
X62891835Y-73876629D01*
X62891831Y-73876631D01*
X62718163Y-73998235D01*
X62718157Y-73998240D01*
X62568240Y-74148157D01*
X62568235Y-74148163D01*
X62446631Y-74321831D01*
X62446629Y-74321835D01*
X62388131Y-74447285D01*
X62361296Y-74504835D01*
X62357027Y-74513989D01*
X62357023Y-74513998D01*
X62302152Y-74718781D01*
X62302150Y-74718791D01*
X62283672Y-74929999D01*
X62283672Y-74930000D01*
X62302150Y-75141208D01*
X62302152Y-75141218D01*
X62357023Y-75346001D01*
X62357025Y-75346005D01*
X62357026Y-75346009D01*
X62446511Y-75537912D01*
X62446629Y-75538164D01*
X62446631Y-75538168D01*
X62568235Y-75711836D01*
X62568240Y-75711842D01*
X62718157Y-75861759D01*
X62718163Y-75861764D01*
X62891831Y-75983368D01*
X62891833Y-75983369D01*
X62891836Y-75983371D01*
X63083991Y-76072974D01*
X63098717Y-76076919D01*
X63111051Y-76080225D01*
X63170711Y-76116591D01*
X63201240Y-76179438D01*
X63192945Y-76248813D01*
X63148459Y-76302691D01*
X63111051Y-76319775D01*
X63083996Y-76327024D01*
X63083989Y-76327027D01*
X62891835Y-76416629D01*
X62891831Y-76416631D01*
X62718163Y-76538235D01*
X62568237Y-76688160D01*
X62495793Y-76791623D01*
X62441216Y-76835248D01*
X62394218Y-76844500D01*
X54057743Y-76844500D01*
X54042122Y-76842775D01*
X54042095Y-76843061D01*
X54034333Y-76842326D01*
X53967113Y-76844439D01*
X53963219Y-76844500D01*
X53935650Y-76844500D01*
X53931673Y-76845002D01*
X53920042Y-76845917D01*
X53876374Y-76847289D01*
X53876368Y-76847290D01*
X53857126Y-76852880D01*
X53838087Y-76856823D01*
X53818217Y-76859334D01*
X53818203Y-76859337D01*
X53777598Y-76875413D01*
X53766554Y-76879194D01*
X53724614Y-76891379D01*
X53724610Y-76891381D01*
X53707366Y-76901579D01*
X53689905Y-76910133D01*
X53671274Y-76917510D01*
X53671262Y-76917517D01*
X53635933Y-76943185D01*
X53626173Y-76949596D01*
X53588580Y-76971829D01*
X53574414Y-76985995D01*
X53559624Y-76998627D01*
X53543414Y-77010404D01*
X53543411Y-77010407D01*
X53515577Y-77044053D01*
X53507716Y-77052691D01*
X53392229Y-77168180D01*
X53330906Y-77201666D01*
X53304547Y-77204500D01*
X53245354Y-77204500D01*
X53212897Y-77211398D01*
X53060197Y-77243855D01*
X53060192Y-77243857D01*
X52887270Y-77320848D01*
X52887265Y-77320851D01*
X52734129Y-77432111D01*
X52607466Y-77572785D01*
X52512821Y-77736715D01*
X52512818Y-77736722D01*
X52454327Y-77916740D01*
X52454326Y-77916744D01*
X52434540Y-78105000D01*
X52454326Y-78293256D01*
X52454327Y-78293259D01*
X52512818Y-78473277D01*
X52512820Y-78473281D01*
X52512821Y-78473284D01*
X52541739Y-78523371D01*
X52584351Y-78597178D01*
X52600823Y-78665078D01*
X52577970Y-78731105D01*
X52523048Y-78774295D01*
X52522610Y-78774470D01*
X52507602Y-78780412D01*
X52496554Y-78784194D01*
X52454614Y-78796379D01*
X52454610Y-78796381D01*
X52437366Y-78806579D01*
X52419905Y-78815133D01*
X52401274Y-78822510D01*
X52401262Y-78822517D01*
X52365933Y-78848185D01*
X52356173Y-78854596D01*
X52318580Y-78876829D01*
X52304414Y-78890995D01*
X52289624Y-78903627D01*
X52273414Y-78915404D01*
X52273411Y-78915407D01*
X52245573Y-78949058D01*
X52237711Y-78957697D01*
X45336208Y-85859199D01*
X45323951Y-85869020D01*
X45324134Y-85869241D01*
X45318122Y-85874214D01*
X45272098Y-85923223D01*
X45269391Y-85926016D01*
X45249889Y-85945517D01*
X45249875Y-85945534D01*
X45247407Y-85948715D01*
X45239843Y-85957570D01*
X45209937Y-85989418D01*
X45209936Y-85989420D01*
X45200284Y-86006976D01*
X45189610Y-86023226D01*
X45177329Y-86039061D01*
X45177324Y-86039068D01*
X45159975Y-86079158D01*
X45154838Y-86089644D01*
X45133803Y-86127906D01*
X45128822Y-86147307D01*
X45122521Y-86165710D01*
X45114562Y-86184102D01*
X45114561Y-86184105D01*
X45107728Y-86227243D01*
X45105360Y-86238674D01*
X45094501Y-86280971D01*
X45094500Y-86280982D01*
X45094500Y-86301016D01*
X45092973Y-86320415D01*
X45089840Y-86340194D01*
X45089840Y-86340195D01*
X45093950Y-86383674D01*
X45094500Y-86395343D01*
X45094500Y-87865298D01*
X45074815Y-87932337D01*
X45022011Y-87978092D01*
X45006496Y-87983958D01*
X44824194Y-88039259D01*
X44649001Y-88132901D01*
X44648995Y-88132905D01*
X44528664Y-88231658D01*
X44464354Y-88258970D01*
X44395487Y-88247179D01*
X44371336Y-88231658D01*
X44251004Y-88132905D01*
X44250998Y-88132901D01*
X44075806Y-88039259D01*
X44018503Y-88021876D01*
X43960065Y-87983578D01*
X43931609Y-87919765D01*
X43930500Y-87903216D01*
X43930500Y-84436229D01*
X43950185Y-84369190D01*
X43966819Y-84348548D01*
X55138548Y-73176819D01*
X55199871Y-73143334D01*
X55226229Y-73140500D01*
X57801337Y-73140500D01*
X57868376Y-73160185D01*
X57902912Y-73193377D01*
X57927954Y-73229141D01*
X58088858Y-73390045D01*
X58088861Y-73390047D01*
X58275266Y-73520568D01*
X58290975Y-73527893D01*
X58343414Y-73574064D01*
X58362567Y-73641257D01*
X58342352Y-73708138D01*
X58290979Y-73752656D01*
X58275514Y-73759867D01*
X58275512Y-73759868D01*
X58202526Y-73810973D01*
X58202526Y-73810974D01*
X58883599Y-74492046D01*
X58802852Y-74504835D01*
X58689955Y-74562359D01*
X58600359Y-74651955D01*
X58542835Y-74764852D01*
X58530046Y-74845598D01*
X57848974Y-74164526D01*
X57848973Y-74164526D01*
X57797868Y-74237512D01*
X57797866Y-74237516D01*
X57701734Y-74443673D01*
X57701730Y-74443682D01*
X57642860Y-74663389D01*
X57642858Y-74663400D01*
X57623034Y-74889997D01*
X57623034Y-74890002D01*
X57642858Y-75116599D01*
X57642860Y-75116610D01*
X57701730Y-75336317D01*
X57701735Y-75336331D01*
X57797863Y-75542478D01*
X57848974Y-75615472D01*
X58530046Y-74934400D01*
X58542835Y-75015148D01*
X58600359Y-75128045D01*
X58689955Y-75217641D01*
X58802852Y-75275165D01*
X58883599Y-75287953D01*
X58202526Y-75969025D01*
X58275513Y-76020132D01*
X58275521Y-76020136D01*
X58481668Y-76116264D01*
X58481682Y-76116269D01*
X58701389Y-76175139D01*
X58701400Y-76175141D01*
X58927998Y-76194966D01*
X58928002Y-76194966D01*
X59154599Y-76175141D01*
X59154610Y-76175139D01*
X59374317Y-76116269D01*
X59374331Y-76116264D01*
X59580478Y-76020136D01*
X59653471Y-75969024D01*
X58972400Y-75287953D01*
X59053148Y-75275165D01*
X59166045Y-75217641D01*
X59255641Y-75128045D01*
X59313165Y-75015148D01*
X59325953Y-74934400D01*
X60007024Y-75615471D01*
X60058136Y-75542478D01*
X60154264Y-75336331D01*
X60154269Y-75336317D01*
X60213139Y-75116610D01*
X60213141Y-75116599D01*
X60232966Y-74890002D01*
X60232966Y-74889997D01*
X60213141Y-74663400D01*
X60213139Y-74663389D01*
X60154269Y-74443682D01*
X60154264Y-74443668D01*
X60058136Y-74237521D01*
X60058132Y-74237513D01*
X60007025Y-74164526D01*
X59325953Y-74845598D01*
X59313165Y-74764852D01*
X59255641Y-74651955D01*
X59166045Y-74562359D01*
X59053148Y-74504835D01*
X58972401Y-74492046D01*
X59653472Y-73810974D01*
X59580480Y-73759864D01*
X59565024Y-73752657D01*
X59512585Y-73706484D01*
X59493433Y-73639290D01*
X59513649Y-73572409D01*
X59565023Y-73527893D01*
X59580734Y-73520568D01*
X59767139Y-73390047D01*
X59928047Y-73229139D01*
X60058568Y-73042734D01*
X60154739Y-72836496D01*
X60213635Y-72616692D01*
X60233468Y-72390000D01*
X60213635Y-72163308D01*
X60154739Y-71943504D01*
X60058568Y-71737266D01*
X59928047Y-71550861D01*
X59928045Y-71550858D01*
X59767141Y-71389954D01*
X59580734Y-71259432D01*
X59580732Y-71259431D01*
X59374497Y-71163261D01*
X59374488Y-71163258D01*
X59154697Y-71104366D01*
X59154693Y-71104365D01*
X59154692Y-71104365D01*
X59154691Y-71104364D01*
X59154686Y-71104364D01*
X58928002Y-71084532D01*
X58927998Y-71084532D01*
X58701313Y-71104364D01*
X58701302Y-71104366D01*
X58481511Y-71163258D01*
X58481502Y-71163261D01*
X58275267Y-71259431D01*
X58275265Y-71259432D01*
X58088858Y-71389954D01*
X57927954Y-71550858D01*
X57902912Y-71586623D01*
X57848335Y-71630248D01*
X57801337Y-71639500D01*
X54927705Y-71639500D01*
X54909735Y-71638191D01*
X54885972Y-71634710D01*
X54839642Y-71638764D01*
X54836632Y-71639028D01*
X54825826Y-71639500D01*
X54820282Y-71639500D01*
X54789488Y-71643099D01*
X54785905Y-71643465D01*
X54711200Y-71650001D01*
X54704134Y-71651461D01*
X54704122Y-71651404D01*
X54696753Y-71653038D01*
X54696767Y-71653095D01*
X54689743Y-71654759D01*
X54619245Y-71680417D01*
X54615845Y-71681598D01*
X54544665Y-71705186D01*
X54544663Y-71705186D01*
X54544660Y-71705188D01*
X54538123Y-71708236D01*
X54538098Y-71708184D01*
X54531310Y-71711470D01*
X54531336Y-71711521D01*
X54524884Y-71714761D01*
X54462236Y-71755965D01*
X54459196Y-71757902D01*
X54395347Y-71797285D01*
X54389682Y-71801765D01*
X54389646Y-71801719D01*
X54383798Y-71806484D01*
X54383835Y-71806528D01*
X54378310Y-71811164D01*
X54378304Y-71811169D01*
X54378304Y-71811170D01*
X54359406Y-71831200D01*
X54326848Y-71865709D01*
X54324336Y-71868294D01*
X44142181Y-82050450D01*
X44080858Y-82083935D01*
X44011166Y-82078951D01*
X43955233Y-82037079D01*
X43930816Y-81971615D01*
X43930500Y-81962769D01*
X43930500Y-75218726D01*
X43950185Y-75151687D01*
X43966819Y-75131045D01*
X47586164Y-71511700D01*
X51206306Y-67891557D01*
X51267627Y-67858074D01*
X51337319Y-67863058D01*
G37*
%TD.AperFunction*%
%TA.AperFunction,Conductor*%
G36*
X64755883Y-79741219D02*
G01*
X64811816Y-79783091D01*
X64836233Y-79848555D01*
X64836077Y-79868208D01*
X64823672Y-80009998D01*
X64823672Y-80010000D01*
X64842150Y-80221208D01*
X64842151Y-80221214D01*
X64843074Y-80224658D01*
X64865246Y-80307408D01*
X64863584Y-80377256D01*
X64824422Y-80435119D01*
X64760194Y-80462623D01*
X64745472Y-80463500D01*
X54248737Y-80463500D01*
X54233120Y-80461776D01*
X54233093Y-80462062D01*
X54225331Y-80461327D01*
X54158144Y-80463439D01*
X54154250Y-80463500D01*
X54126650Y-80463500D01*
X54122962Y-80463965D01*
X54122649Y-80464005D01*
X54111031Y-80464918D01*
X54067377Y-80466290D01*
X54067367Y-80466292D01*
X54048134Y-80471879D01*
X54029094Y-80475822D01*
X54009217Y-80478334D01*
X54009210Y-80478335D01*
X54009208Y-80478336D01*
X54009206Y-80478336D01*
X54009205Y-80478337D01*
X53968584Y-80494419D01*
X53957537Y-80498201D01*
X53915611Y-80510382D01*
X53915608Y-80510383D01*
X53898363Y-80520581D01*
X53880901Y-80529135D01*
X53862272Y-80536511D01*
X53862267Y-80536514D01*
X53826926Y-80562189D01*
X53817168Y-80568599D01*
X53779580Y-80590828D01*
X53765408Y-80605000D01*
X53750623Y-80617628D01*
X53734412Y-80629407D01*
X53706571Y-80663059D01*
X53698711Y-80671696D01*
X47876208Y-86494199D01*
X47863951Y-86504020D01*
X47864134Y-86504241D01*
X47858122Y-86509214D01*
X47812098Y-86558223D01*
X47809391Y-86561016D01*
X47789889Y-86580517D01*
X47789875Y-86580534D01*
X47787407Y-86583715D01*
X47779843Y-86592570D01*
X47749937Y-86624418D01*
X47749936Y-86624420D01*
X47740284Y-86641976D01*
X47729610Y-86658226D01*
X47717329Y-86674061D01*
X47717324Y-86674068D01*
X47699975Y-86714158D01*
X47694838Y-86724644D01*
X47673803Y-86762906D01*
X47668822Y-86782307D01*
X47662521Y-86800710D01*
X47654562Y-86819102D01*
X47654561Y-86819105D01*
X47647728Y-86862243D01*
X47645360Y-86873674D01*
X47634501Y-86915971D01*
X47634500Y-86915982D01*
X47634500Y-86936016D01*
X47632973Y-86955415D01*
X47629840Y-86975194D01*
X47629840Y-86975195D01*
X47633950Y-87018674D01*
X47634500Y-87030343D01*
X47634500Y-87865298D01*
X47614815Y-87932337D01*
X47562011Y-87978092D01*
X47546496Y-87983958D01*
X47364194Y-88039259D01*
X47189001Y-88132901D01*
X47188995Y-88132905D01*
X47068664Y-88231658D01*
X47004354Y-88258970D01*
X46935487Y-88247179D01*
X46911336Y-88231658D01*
X46791004Y-88132905D01*
X46790998Y-88132901D01*
X46615805Y-88039259D01*
X46433504Y-87983958D01*
X46375066Y-87945661D01*
X46346609Y-87881849D01*
X46345500Y-87865298D01*
X46345500Y-86670452D01*
X46365185Y-86603413D01*
X46381819Y-86582771D01*
X52927771Y-80036819D01*
X52989094Y-80003334D01*
X53015452Y-80000500D01*
X64052257Y-80000500D01*
X64067877Y-80002224D01*
X64067904Y-80001939D01*
X64075660Y-80002671D01*
X64075667Y-80002673D01*
X64142873Y-80000561D01*
X64146768Y-80000500D01*
X64174346Y-80000500D01*
X64174350Y-80000500D01*
X64178324Y-79999997D01*
X64189963Y-79999080D01*
X64233627Y-79997709D01*
X64252869Y-79992117D01*
X64271912Y-79988174D01*
X64291792Y-79985664D01*
X64332401Y-79969585D01*
X64343444Y-79965803D01*
X64385390Y-79953618D01*
X64402629Y-79943422D01*
X64420103Y-79934862D01*
X64438727Y-79927488D01*
X64438727Y-79927487D01*
X64438732Y-79927486D01*
X64474083Y-79901800D01*
X64483814Y-79895408D01*
X64521420Y-79873170D01*
X64535589Y-79858999D01*
X64550379Y-79846368D01*
X64566587Y-79834594D01*
X64594438Y-79800926D01*
X64602279Y-79792309D01*
X64624870Y-79769718D01*
X64686191Y-79736235D01*
X64755883Y-79741219D01*
G37*
%TD.AperFunction*%
%TA.AperFunction,Conductor*%
G36*
X55852587Y-81734185D02*
G01*
X55898342Y-81786989D01*
X55908286Y-81856147D01*
X55879261Y-81919703D01*
X55873229Y-81926181D01*
X50416208Y-87383199D01*
X50403951Y-87393020D01*
X50404134Y-87393241D01*
X50398122Y-87398214D01*
X50352098Y-87447223D01*
X50349391Y-87450016D01*
X50329889Y-87469517D01*
X50329875Y-87469534D01*
X50327407Y-87472715D01*
X50319843Y-87481570D01*
X50289937Y-87513418D01*
X50289936Y-87513420D01*
X50280284Y-87530976D01*
X50269610Y-87547226D01*
X50257329Y-87563061D01*
X50257324Y-87563068D01*
X50239975Y-87603158D01*
X50234838Y-87613644D01*
X50213803Y-87651906D01*
X50208822Y-87671307D01*
X50202521Y-87689710D01*
X50194562Y-87708102D01*
X50194561Y-87708105D01*
X50187728Y-87751243D01*
X50185360Y-87762674D01*
X50174501Y-87804971D01*
X50174500Y-87804982D01*
X50174500Y-87825016D01*
X50172973Y-87844415D01*
X50169839Y-87864194D01*
X50169637Y-87870651D01*
X50147855Y-87937039D01*
X50093640Y-87981112D01*
X50081699Y-87985413D01*
X50048487Y-87995489D01*
X49904189Y-88039261D01*
X49729001Y-88132901D01*
X49728995Y-88132905D01*
X49608664Y-88231658D01*
X49544354Y-88258970D01*
X49475487Y-88247179D01*
X49451336Y-88231658D01*
X49331004Y-88132905D01*
X49330998Y-88132901D01*
X49155805Y-88039259D01*
X48973504Y-87983958D01*
X48915066Y-87945661D01*
X48886609Y-87881849D01*
X48885500Y-87865298D01*
X48885500Y-87305452D01*
X48905185Y-87238413D01*
X48921819Y-87217771D01*
X54388772Y-81750819D01*
X54450095Y-81717334D01*
X54476453Y-81714500D01*
X55785548Y-81714500D01*
X55852587Y-81734185D01*
G37*
%TD.AperFunction*%
%TA.AperFunction,Conductor*%
G36*
X58094986Y-82184185D02*
G01*
X58140741Y-82236989D01*
X58150685Y-82306147D01*
X58121660Y-82369703D01*
X58115628Y-82376181D01*
X52956208Y-87535599D01*
X52943951Y-87545420D01*
X52944134Y-87545641D01*
X52938122Y-87550614D01*
X52892098Y-87599623D01*
X52889391Y-87602416D01*
X52869889Y-87621917D01*
X52869875Y-87621934D01*
X52867407Y-87625115D01*
X52859843Y-87633970D01*
X52829937Y-87665818D01*
X52829936Y-87665820D01*
X52820284Y-87683376D01*
X52809610Y-87699626D01*
X52797329Y-87715461D01*
X52797324Y-87715468D01*
X52779975Y-87755558D01*
X52774838Y-87766044D01*
X52753803Y-87804306D01*
X52748822Y-87823707D01*
X52742521Y-87842110D01*
X52734562Y-87860502D01*
X52734559Y-87860511D01*
X52731538Y-87879585D01*
X52701606Y-87942718D01*
X52642293Y-87979646D01*
X52634932Y-87981399D01*
X52444191Y-88039260D01*
X52269001Y-88132901D01*
X52268995Y-88132905D01*
X52148664Y-88231658D01*
X52084354Y-88258970D01*
X52015487Y-88247179D01*
X51991336Y-88231658D01*
X51871004Y-88132905D01*
X51870998Y-88132901D01*
X51734770Y-88060086D01*
X51684926Y-88011124D01*
X51669465Y-87942987D01*
X51693296Y-87877307D01*
X51705542Y-87863047D01*
X53059376Y-86509214D01*
X57367772Y-82200819D01*
X57429095Y-82167334D01*
X57455453Y-82164500D01*
X58027947Y-82164500D01*
X58094986Y-82184185D01*
G37*
%TD.AperFunction*%
%TA.AperFunction,Conductor*%
G36*
X70847775Y-81191501D02*
G01*
X70908787Y-81207849D01*
X71053341Y-81220496D01*
X71119999Y-81226328D01*
X71120000Y-81226328D01*
X71120001Y-81226328D01*
X71155202Y-81223248D01*
X71331213Y-81207849D01*
X71374605Y-81196222D01*
X71444455Y-81197884D01*
X71502318Y-81237045D01*
X71529823Y-81301274D01*
X71530700Y-81315996D01*
X71530700Y-82219347D01*
X71511015Y-82286386D01*
X71494381Y-82307028D01*
X70795628Y-83005781D01*
X70734305Y-83039266D01*
X70707947Y-83042100D01*
X60329864Y-83042100D01*
X60314247Y-83040376D01*
X60314220Y-83040662D01*
X60306458Y-83039927D01*
X60239271Y-83042039D01*
X60235377Y-83042100D01*
X60207777Y-83042100D01*
X60204089Y-83042565D01*
X60203776Y-83042605D01*
X60192158Y-83043518D01*
X60148500Y-83044890D01*
X60148499Y-83044890D01*
X60129256Y-83050481D01*
X60110206Y-83054425D01*
X60090338Y-83056934D01*
X60090337Y-83056935D01*
X60049727Y-83073013D01*
X60038680Y-83076795D01*
X59996737Y-83088981D01*
X59996736Y-83088982D01*
X59979494Y-83099179D01*
X59962026Y-83107737D01*
X59943396Y-83115113D01*
X59943393Y-83115115D01*
X59908066Y-83140781D01*
X59898307Y-83147192D01*
X59860706Y-83169430D01*
X59846535Y-83183600D01*
X59831750Y-83196228D01*
X59815539Y-83208007D01*
X59787698Y-83241659D01*
X59779838Y-83250296D01*
X55496208Y-87533926D01*
X55483951Y-87543747D01*
X55484134Y-87543968D01*
X55478122Y-87548941D01*
X55432098Y-87597950D01*
X55429391Y-87600743D01*
X55409889Y-87620244D01*
X55409875Y-87620261D01*
X55407407Y-87623442D01*
X55399843Y-87632297D01*
X55369937Y-87664145D01*
X55369936Y-87664147D01*
X55360284Y-87681703D01*
X55349610Y-87697953D01*
X55337329Y-87713788D01*
X55337324Y-87713795D01*
X55319975Y-87753885D01*
X55314838Y-87764371D01*
X55293803Y-87802633D01*
X55288822Y-87822034D01*
X55282521Y-87840437D01*
X55274562Y-87858829D01*
X55274561Y-87858834D01*
X55271266Y-87879636D01*
X55241335Y-87942771D01*
X55182023Y-87979701D01*
X55175094Y-87981350D01*
X54984191Y-88039260D01*
X54809001Y-88132901D01*
X54808995Y-88132905D01*
X54688664Y-88231658D01*
X54624354Y-88258970D01*
X54555487Y-88247179D01*
X54531336Y-88231658D01*
X54411004Y-88132905D01*
X54411001Y-88132903D01*
X54374084Y-88113170D01*
X54324240Y-88064207D01*
X54308780Y-87996069D01*
X54332612Y-87930390D01*
X54344850Y-87916138D01*
X59546172Y-82714819D01*
X59607495Y-82681334D01*
X59633853Y-82678500D01*
X69376653Y-82678500D01*
X69392273Y-82680224D01*
X69392300Y-82679939D01*
X69400056Y-82680671D01*
X69400063Y-82680673D01*
X69467269Y-82678561D01*
X69471164Y-82678500D01*
X69498742Y-82678500D01*
X69498746Y-82678500D01*
X69502720Y-82677997D01*
X69514359Y-82677080D01*
X69558023Y-82675709D01*
X69577265Y-82670117D01*
X69596308Y-82666174D01*
X69616188Y-82663664D01*
X69656797Y-82647585D01*
X69667840Y-82643803D01*
X69709786Y-82631618D01*
X69727025Y-82621422D01*
X69744499Y-82612862D01*
X69763123Y-82605488D01*
X69763123Y-82605487D01*
X69763128Y-82605486D01*
X69798479Y-82579800D01*
X69808210Y-82573408D01*
X69845816Y-82551170D01*
X69859985Y-82536999D01*
X69874775Y-82524368D01*
X69890983Y-82512594D01*
X69918834Y-82478926D01*
X69926675Y-82470309D01*
X70449987Y-81946998D01*
X70462242Y-81937182D01*
X70462059Y-81936960D01*
X70468068Y-81931987D01*
X70468077Y-81931982D01*
X70514149Y-81882918D01*
X70516766Y-81880219D01*
X70536320Y-81860667D01*
X70538776Y-81857499D01*
X70546356Y-81848623D01*
X70576262Y-81816778D01*
X70585913Y-81799220D01*
X70596596Y-81782957D01*
X70608873Y-81767132D01*
X70626221Y-81727040D01*
X70631351Y-81716567D01*
X70652397Y-81678288D01*
X70657380Y-81658876D01*
X70663681Y-81640476D01*
X70671637Y-81622092D01*
X70678470Y-81578944D01*
X70680833Y-81567534D01*
X70691700Y-81525215D01*
X70691700Y-81505179D01*
X70693227Y-81485778D01*
X70696360Y-81466000D01*
X70692250Y-81422520D01*
X70691700Y-81410851D01*
X70691700Y-81311280D01*
X70711385Y-81244241D01*
X70764189Y-81198486D01*
X70833347Y-81188542D01*
X70847775Y-81191501D01*
G37*
%TD.AperFunction*%
%TA.AperFunction,Conductor*%
G36*
X69912382Y-84312785D02*
G01*
X69958137Y-84365589D01*
X69968081Y-84434747D01*
X69939056Y-84498303D01*
X69933024Y-84504781D01*
X69755624Y-84682181D01*
X69694301Y-84715666D01*
X69667943Y-84718500D01*
X61626238Y-84718500D01*
X61610621Y-84716776D01*
X61610594Y-84717062D01*
X61602832Y-84716327D01*
X61535645Y-84718439D01*
X61531751Y-84718500D01*
X61504150Y-84718500D01*
X61500462Y-84718965D01*
X61500149Y-84719005D01*
X61488531Y-84719918D01*
X61444873Y-84721290D01*
X61444872Y-84721290D01*
X61425629Y-84726881D01*
X61406579Y-84730825D01*
X61386711Y-84733334D01*
X61386710Y-84733334D01*
X61346099Y-84749413D01*
X61335054Y-84753194D01*
X61293114Y-84765379D01*
X61293110Y-84765381D01*
X61275866Y-84775579D01*
X61258405Y-84784133D01*
X61239774Y-84791510D01*
X61239762Y-84791517D01*
X61204433Y-84817185D01*
X61194673Y-84823596D01*
X61157080Y-84845829D01*
X61142914Y-84859995D01*
X61128124Y-84872627D01*
X61111914Y-84884404D01*
X61111911Y-84884407D01*
X61084073Y-84918058D01*
X61076211Y-84926697D01*
X58072226Y-87930681D01*
X58010903Y-87964166D01*
X57984546Y-87967000D01*
X57862457Y-87967000D01*
X57714300Y-87981591D01*
X57524191Y-88039260D01*
X57349001Y-88132901D01*
X57348995Y-88132905D01*
X57228664Y-88231658D01*
X57164354Y-88258970D01*
X57095487Y-88247179D01*
X57071336Y-88231658D01*
X56951004Y-88132905D01*
X56950998Y-88132901D01*
X56912995Y-88112588D01*
X56863151Y-88063626D01*
X56847690Y-87995489D01*
X56871521Y-87929809D01*
X56883767Y-87915549D01*
X57701304Y-87098013D01*
X60469899Y-84329419D01*
X60531222Y-84295934D01*
X60557580Y-84293100D01*
X69845343Y-84293100D01*
X69912382Y-84312785D01*
G37*
%TD.AperFunction*%
%TA.AperFunction,Conductor*%
G36*
X85444137Y-85078606D02*
G01*
X85494625Y-85109216D01*
X88180519Y-87795109D01*
X88214004Y-87856432D01*
X88209020Y-87926124D01*
X88167148Y-87982057D01*
X88128836Y-88001449D01*
X88031072Y-88031106D01*
X88004189Y-88039261D01*
X87829001Y-88132901D01*
X87828995Y-88132905D01*
X87708664Y-88231658D01*
X87644354Y-88258970D01*
X87575487Y-88247179D01*
X87551336Y-88231658D01*
X87431004Y-88132905D01*
X87430998Y-88132901D01*
X87255808Y-88039260D01*
X87106809Y-87994062D01*
X87065701Y-87981592D01*
X87065699Y-87981591D01*
X87065701Y-87981591D01*
X86959415Y-87971123D01*
X86917547Y-87967000D01*
X86917543Y-87967000D01*
X85802457Y-87967000D01*
X85654300Y-87981591D01*
X85464191Y-88039260D01*
X85289001Y-88132901D01*
X85288995Y-88132905D01*
X85168664Y-88231658D01*
X85104354Y-88258970D01*
X85035487Y-88247179D01*
X85011336Y-88231658D01*
X84891004Y-88132905D01*
X84890998Y-88132901D01*
X84715805Y-88039259D01*
X84533504Y-87983958D01*
X84475066Y-87945661D01*
X84446609Y-87881849D01*
X84445500Y-87865298D01*
X84445500Y-85654452D01*
X84465185Y-85587413D01*
X84481819Y-85566771D01*
X84529771Y-85518819D01*
X84591094Y-85485334D01*
X84617452Y-85482500D01*
X84676644Y-85482500D01*
X84676646Y-85482500D01*
X84861803Y-85443144D01*
X85034730Y-85366151D01*
X85187871Y-85254888D01*
X85314533Y-85114216D01*
X85314534Y-85114212D01*
X85314794Y-85113925D01*
X85374280Y-85077276D01*
X85444137Y-85078606D01*
G37*
%TD.AperFunction*%
%TA.AperFunction,Conductor*%
G36*
X62570387Y-85989185D02*
G01*
X62616142Y-86041989D01*
X62626086Y-86111147D01*
X62597061Y-86174703D01*
X62591029Y-86181181D01*
X60841526Y-87930681D01*
X60780203Y-87964166D01*
X60753845Y-87967000D01*
X60402457Y-87967000D01*
X60254300Y-87981591D01*
X60062260Y-88039846D01*
X59992393Y-88040469D01*
X59933280Y-88003221D01*
X59903689Y-87939926D01*
X59913016Y-87870682D01*
X59938581Y-87833508D01*
X61766272Y-86005819D01*
X61827595Y-85972334D01*
X61853953Y-85969500D01*
X62503348Y-85969500D01*
X62570387Y-85989185D01*
G37*
%TD.AperFunction*%
%TA.AperFunction,Conductor*%
G36*
X62461257Y-78115185D02*
G01*
X62495793Y-78148377D01*
X62568237Y-78251839D01*
X62568238Y-78251840D01*
X62568239Y-78251841D01*
X62718159Y-78401761D01*
X62718162Y-78401763D01*
X62718163Y-78401764D01*
X62892627Y-78523925D01*
X62936252Y-78578502D01*
X62943446Y-78648000D01*
X62911923Y-78710355D01*
X62851693Y-78745769D01*
X62821504Y-78749500D01*
X54222480Y-78749500D01*
X54155441Y-78729815D01*
X54109686Y-78677011D01*
X54099742Y-78607853D01*
X54115093Y-78563500D01*
X54144071Y-78513308D01*
X54167179Y-78473284D01*
X54225674Y-78293256D01*
X54234788Y-78206537D01*
X54261373Y-78141923D01*
X54318670Y-78101939D01*
X54358109Y-78095500D01*
X62394218Y-78095500D01*
X62461257Y-78115185D01*
G37*
%TD.AperFunction*%
%TA.AperFunction,Conductor*%
G36*
X64818812Y-75237054D02*
G01*
X64872690Y-75281539D01*
X64889775Y-75318949D01*
X64897023Y-75346001D01*
X64897025Y-75346005D01*
X64897026Y-75346009D01*
X64986511Y-75537912D01*
X64986629Y-75538164D01*
X64986631Y-75538168D01*
X65108235Y-75711836D01*
X65108240Y-75711842D01*
X65258157Y-75861759D01*
X65258163Y-75861764D01*
X65431831Y-75983368D01*
X65431833Y-75983369D01*
X65431836Y-75983371D01*
X65623991Y-76072974D01*
X65638717Y-76076919D01*
X65651051Y-76080225D01*
X65710711Y-76116591D01*
X65741240Y-76179438D01*
X65732945Y-76248813D01*
X65688459Y-76302691D01*
X65651051Y-76319775D01*
X65623996Y-76327024D01*
X65623989Y-76327027D01*
X65431835Y-76416629D01*
X65431831Y-76416631D01*
X65258163Y-76538235D01*
X65258157Y-76538240D01*
X65108240Y-76688157D01*
X65108235Y-76688163D01*
X64986631Y-76861831D01*
X64986629Y-76861835D01*
X64897027Y-77053989D01*
X64897024Y-77053996D01*
X64889775Y-77081051D01*
X64853409Y-77140711D01*
X64790562Y-77171240D01*
X64721187Y-77162945D01*
X64667309Y-77118459D01*
X64650225Y-77081051D01*
X64642975Y-77053996D01*
X64642974Y-77053991D01*
X64553371Y-76861836D01*
X64553369Y-76861833D01*
X64553368Y-76861831D01*
X64431764Y-76688163D01*
X64431759Y-76688157D01*
X64281842Y-76538240D01*
X64281836Y-76538235D01*
X64108168Y-76416631D01*
X64108164Y-76416629D01*
X63916009Y-76327026D01*
X63916005Y-76327025D01*
X63916001Y-76327023D01*
X63888949Y-76319775D01*
X63829288Y-76283410D01*
X63798759Y-76220563D01*
X63807054Y-76151188D01*
X63851539Y-76097310D01*
X63888949Y-76080225D01*
X63906930Y-76075406D01*
X63916009Y-76072974D01*
X64108164Y-75983371D01*
X64281841Y-75861761D01*
X64431761Y-75711841D01*
X64553371Y-75538164D01*
X64642974Y-75346009D01*
X64650225Y-75318949D01*
X64686590Y-75259288D01*
X64749437Y-75228759D01*
X64818812Y-75237054D01*
G37*
%TD.AperFunction*%
%TA.AperFunction,Conductor*%
G36*
X78354835Y-75055148D02*
G01*
X78412359Y-75168045D01*
X78501955Y-75257641D01*
X78614852Y-75315165D01*
X78695599Y-75327953D01*
X78078285Y-75945265D01*
X78132087Y-75982937D01*
X78324161Y-76072502D01*
X78324166Y-76072505D01*
X78352011Y-76079965D01*
X78411673Y-76116328D01*
X78442204Y-76179175D01*
X78433911Y-76248550D01*
X78389427Y-76302429D01*
X78352018Y-76319515D01*
X78323999Y-76327023D01*
X78323989Y-76327027D01*
X78131835Y-76416629D01*
X78131831Y-76416631D01*
X77958163Y-76538235D01*
X77958157Y-76538240D01*
X77808240Y-76688157D01*
X77808235Y-76688163D01*
X77686631Y-76861831D01*
X77686629Y-76861835D01*
X77597027Y-77053989D01*
X77597024Y-77053996D01*
X77589775Y-77081051D01*
X77553409Y-77140711D01*
X77490562Y-77171240D01*
X77421187Y-77162945D01*
X77367309Y-77118459D01*
X77350225Y-77081051D01*
X77342975Y-77053996D01*
X77342974Y-77053991D01*
X77253371Y-76861836D01*
X77253369Y-76861833D01*
X77253368Y-76861831D01*
X77131764Y-76688163D01*
X77131759Y-76688157D01*
X76981842Y-76538240D01*
X76981836Y-76538235D01*
X76808168Y-76416631D01*
X76808164Y-76416629D01*
X76616009Y-76327026D01*
X76616005Y-76327025D01*
X76616001Y-76327023D01*
X76588949Y-76319775D01*
X76529288Y-76283410D01*
X76498759Y-76220563D01*
X76507054Y-76151188D01*
X76551539Y-76097310D01*
X76588949Y-76080225D01*
X76606930Y-76075406D01*
X76616009Y-76072974D01*
X76808164Y-75983371D01*
X76981841Y-75861761D01*
X77131761Y-75711841D01*
X77253371Y-75538164D01*
X77342974Y-75346009D01*
X77343023Y-75345829D01*
X77350483Y-75317986D01*
X77386847Y-75258325D01*
X77449694Y-75227795D01*
X77519069Y-75236089D01*
X77572948Y-75280574D01*
X77590033Y-75317985D01*
X77597493Y-75345829D01*
X77597497Y-75345838D01*
X77687062Y-75537912D01*
X77687063Y-75537914D01*
X77724733Y-75591712D01*
X77724733Y-75591713D01*
X78342046Y-74974399D01*
X78354835Y-75055148D01*
G37*
%TD.AperFunction*%
%TA.AperFunction,Conductor*%
G36*
X66871573Y-75915429D02*
G01*
X66919387Y-75966376D01*
X66932065Y-76035086D01*
X66905584Y-76099743D01*
X66896405Y-76110002D01*
X66710008Y-76296399D01*
X66697751Y-76306220D01*
X66697934Y-76306441D01*
X66691921Y-76311415D01*
X66671324Y-76333348D01*
X66611082Y-76368741D01*
X66541268Y-76365945D01*
X66528531Y-76360843D01*
X66456015Y-76327028D01*
X66456001Y-76327023D01*
X66428949Y-76319775D01*
X66369288Y-76283410D01*
X66338759Y-76220563D01*
X66347054Y-76151188D01*
X66391539Y-76097310D01*
X66428949Y-76080225D01*
X66446930Y-76075406D01*
X66456009Y-76072974D01*
X66648164Y-75983371D01*
X66737600Y-75920746D01*
X66803806Y-75898419D01*
X66871573Y-75915429D01*
G37*
%TD.AperFunction*%
%TA.AperFunction,Conductor*%
G36*
X69280681Y-74534024D02*
G01*
X69280708Y-74533739D01*
X69288464Y-74534471D01*
X69288471Y-74534473D01*
X69355677Y-74532361D01*
X69359572Y-74532300D01*
X69389759Y-74532300D01*
X69456798Y-74551985D01*
X69502553Y-74604789D01*
X69512497Y-74673947D01*
X69483472Y-74737503D01*
X69477440Y-74743981D01*
X69030942Y-75190479D01*
X68969619Y-75223964D01*
X68943261Y-75226798D01*
X68121439Y-75226798D01*
X68105822Y-75225074D01*
X68105795Y-75225360D01*
X68098033Y-75224625D01*
X68030846Y-75226737D01*
X68026952Y-75226798D01*
X67999352Y-75226798D01*
X67995664Y-75227263D01*
X67995351Y-75227303D01*
X67983733Y-75228216D01*
X67940075Y-75229588D01*
X67940074Y-75229588D01*
X67920831Y-75235179D01*
X67901781Y-75239123D01*
X67881913Y-75241632D01*
X67881912Y-75241633D01*
X67841302Y-75257711D01*
X67830255Y-75261493D01*
X67788312Y-75273679D01*
X67788311Y-75273680D01*
X67771069Y-75283877D01*
X67753601Y-75292435D01*
X67734971Y-75299811D01*
X67734968Y-75299813D01*
X67699641Y-75325479D01*
X67689882Y-75331890D01*
X67652281Y-75354128D01*
X67638110Y-75368298D01*
X67623325Y-75380926D01*
X67607114Y-75392705D01*
X67579273Y-75426357D01*
X67571413Y-75434994D01*
X67220002Y-75786405D01*
X67158679Y-75819890D01*
X67088987Y-75814906D01*
X67033054Y-75773034D01*
X67008637Y-75707570D01*
X67023489Y-75639297D01*
X67030747Y-75627600D01*
X67055801Y-75591819D01*
X67093371Y-75538164D01*
X67182974Y-75346009D01*
X67237849Y-75141213D01*
X67256328Y-74930000D01*
X67237849Y-74718787D01*
X67229705Y-74688393D01*
X67231368Y-74618543D01*
X67270531Y-74560681D01*
X67334759Y-74533177D01*
X67349480Y-74532300D01*
X69265061Y-74532300D01*
X69280681Y-74534024D01*
G37*
%TD.AperFunction*%
%TA.AperFunction,Conductor*%
G36*
X72438812Y-70157054D02*
G01*
X72492690Y-70201539D01*
X72509775Y-70238949D01*
X72517023Y-70266001D01*
X72517025Y-70266005D01*
X72517026Y-70266009D01*
X72571213Y-70382214D01*
X72606629Y-70458164D01*
X72606631Y-70458168D01*
X72728235Y-70631836D01*
X72728240Y-70631842D01*
X72878157Y-70781759D01*
X72878163Y-70781764D01*
X73051831Y-70903368D01*
X73051833Y-70903369D01*
X73051836Y-70903371D01*
X73243991Y-70992974D01*
X73448787Y-71047849D01*
X73617757Y-71062632D01*
X73659999Y-71066328D01*
X73660000Y-71066328D01*
X73660001Y-71066328D01*
X73695202Y-71063248D01*
X73871213Y-71047849D01*
X74076009Y-70992974D01*
X74128098Y-70968684D01*
X74197171Y-70958193D01*
X74260956Y-70986712D01*
X74299196Y-71045188D01*
X74304500Y-71081067D01*
X74304500Y-71138351D01*
X74284815Y-71205390D01*
X74268181Y-71226032D01*
X73027190Y-72467022D01*
X72965867Y-72500507D01*
X72943405Y-72503280D01*
X72910556Y-72504312D01*
X72906527Y-72504439D01*
X72902635Y-72504500D01*
X72875066Y-72504500D01*
X72871089Y-72505002D01*
X72859458Y-72505917D01*
X72815790Y-72507289D01*
X72815784Y-72507290D01*
X72796542Y-72512880D01*
X72777503Y-72516823D01*
X72757633Y-72519334D01*
X72757619Y-72519337D01*
X72717014Y-72535413D01*
X72705970Y-72539194D01*
X72664030Y-72551379D01*
X72664026Y-72551381D01*
X72646782Y-72561579D01*
X72629321Y-72570133D01*
X72610690Y-72577510D01*
X72610678Y-72577517D01*
X72575349Y-72603185D01*
X72565589Y-72609596D01*
X72527996Y-72631829D01*
X72513830Y-72645995D01*
X72499040Y-72658627D01*
X72482830Y-72670404D01*
X72482827Y-72670407D01*
X72454989Y-72704058D01*
X72447127Y-72712697D01*
X71632044Y-73527781D01*
X71570721Y-73561266D01*
X71544363Y-73564100D01*
X70999150Y-73564100D01*
X70983533Y-73562376D01*
X70983506Y-73562662D01*
X70975744Y-73561927D01*
X70908557Y-73564039D01*
X70904663Y-73564100D01*
X70874455Y-73564100D01*
X70807416Y-73544415D01*
X70761661Y-73491611D01*
X70751717Y-73422453D01*
X70780742Y-73358897D01*
X70786774Y-73352419D01*
X71070487Y-73068706D01*
X71373045Y-72766147D01*
X71434366Y-72732664D01*
X71475932Y-72732563D01*
X71476095Y-72731021D01*
X71482553Y-72731700D01*
X71482554Y-72731700D01*
X71671844Y-72731700D01*
X71671846Y-72731700D01*
X71857003Y-72692344D01*
X72029930Y-72615351D01*
X72183071Y-72504088D01*
X72309733Y-72363416D01*
X72404379Y-72199484D01*
X72462874Y-72019456D01*
X72482660Y-71831200D01*
X72462874Y-71642944D01*
X72404379Y-71462916D01*
X72309733Y-71298984D01*
X72183071Y-71158312D01*
X72183070Y-71158311D01*
X72029934Y-71047051D01*
X72029929Y-71047048D01*
X71920245Y-70998213D01*
X71867008Y-70952963D01*
X71846687Y-70886113D01*
X71865733Y-70818890D01*
X71897724Y-70785287D01*
X71897689Y-70785245D01*
X71898070Y-70784924D01*
X71899566Y-70783353D01*
X71901841Y-70781761D01*
X72051761Y-70631841D01*
X72173371Y-70458164D01*
X72262974Y-70266009D01*
X72270225Y-70238949D01*
X72306590Y-70179288D01*
X72369437Y-70148759D01*
X72438812Y-70157054D01*
G37*
%TD.AperFunction*%
%TA.AperFunction,Conductor*%
G36*
X69898812Y-67617054D02*
G01*
X69952690Y-67661539D01*
X69969775Y-67698949D01*
X69977023Y-67726001D01*
X69977025Y-67726005D01*
X69977026Y-67726009D01*
X70031214Y-67842216D01*
X70066629Y-67918164D01*
X70066631Y-67918168D01*
X70188235Y-68091836D01*
X70188240Y-68091842D01*
X70338157Y-68241759D01*
X70338163Y-68241764D01*
X70511831Y-68363368D01*
X70511833Y-68363369D01*
X70511836Y-68363371D01*
X70703991Y-68452974D01*
X70718717Y-68456919D01*
X70731051Y-68460225D01*
X70790711Y-68496591D01*
X70821240Y-68559438D01*
X70812945Y-68628813D01*
X70768459Y-68682691D01*
X70731051Y-68699775D01*
X70703996Y-68707024D01*
X70703989Y-68707027D01*
X70511835Y-68796629D01*
X70511831Y-68796631D01*
X70338163Y-68918235D01*
X70338157Y-68918240D01*
X70188240Y-69068157D01*
X70188235Y-69068163D01*
X70066631Y-69241831D01*
X70066629Y-69241835D01*
X69977027Y-69433989D01*
X69977024Y-69433996D01*
X69969775Y-69461051D01*
X69933409Y-69520711D01*
X69870562Y-69551240D01*
X69801187Y-69542945D01*
X69747309Y-69498459D01*
X69730225Y-69461051D01*
X69725156Y-69442134D01*
X69722974Y-69433991D01*
X69633371Y-69241836D01*
X69633369Y-69241833D01*
X69633368Y-69241831D01*
X69511764Y-69068163D01*
X69511759Y-69068157D01*
X69361842Y-68918240D01*
X69361836Y-68918235D01*
X69188168Y-68796631D01*
X69188164Y-68796629D01*
X68996009Y-68707026D01*
X68996005Y-68707025D01*
X68996001Y-68707023D01*
X68968949Y-68699775D01*
X68909288Y-68663410D01*
X68878759Y-68600563D01*
X68887054Y-68531188D01*
X68931539Y-68477310D01*
X68968949Y-68460225D01*
X68986930Y-68455406D01*
X68996009Y-68452974D01*
X69188164Y-68363371D01*
X69361841Y-68241761D01*
X69511761Y-68091841D01*
X69633371Y-67918164D01*
X69722974Y-67726009D01*
X69730225Y-67698949D01*
X69766590Y-67639288D01*
X69829437Y-67608759D01*
X69898812Y-67617054D01*
G37*
%TD.AperFunction*%
%TA.AperFunction,Conductor*%
G36*
X72438812Y-67617054D02*
G01*
X72492690Y-67661539D01*
X72509775Y-67698949D01*
X72517023Y-67726001D01*
X72517025Y-67726005D01*
X72517026Y-67726009D01*
X72571214Y-67842216D01*
X72606629Y-67918164D01*
X72606631Y-67918168D01*
X72728235Y-68091836D01*
X72728240Y-68091842D01*
X72878157Y-68241759D01*
X72878163Y-68241764D01*
X73051831Y-68363368D01*
X73051833Y-68363369D01*
X73051836Y-68363371D01*
X73243991Y-68452974D01*
X73258717Y-68456919D01*
X73271051Y-68460225D01*
X73330711Y-68496591D01*
X73361240Y-68559438D01*
X73352945Y-68628813D01*
X73308459Y-68682691D01*
X73271051Y-68699775D01*
X73243996Y-68707024D01*
X73243989Y-68707027D01*
X73051835Y-68796629D01*
X73051831Y-68796631D01*
X72878163Y-68918235D01*
X72878157Y-68918240D01*
X72728240Y-69068157D01*
X72728235Y-69068163D01*
X72606631Y-69241831D01*
X72606629Y-69241835D01*
X72517027Y-69433989D01*
X72517024Y-69433996D01*
X72509775Y-69461051D01*
X72473409Y-69520711D01*
X72410562Y-69551240D01*
X72341187Y-69542945D01*
X72287309Y-69498459D01*
X72270225Y-69461051D01*
X72265156Y-69442134D01*
X72262974Y-69433991D01*
X72173371Y-69241836D01*
X72173369Y-69241833D01*
X72173368Y-69241831D01*
X72051764Y-69068163D01*
X72051759Y-69068157D01*
X71901842Y-68918240D01*
X71901836Y-68918235D01*
X71728168Y-68796631D01*
X71728164Y-68796629D01*
X71536009Y-68707026D01*
X71536005Y-68707025D01*
X71536001Y-68707023D01*
X71508949Y-68699775D01*
X71449288Y-68663410D01*
X71418759Y-68600563D01*
X71427054Y-68531188D01*
X71471539Y-68477310D01*
X71508949Y-68460225D01*
X71526930Y-68455406D01*
X71536009Y-68452974D01*
X71728164Y-68363371D01*
X71901841Y-68241761D01*
X72051761Y-68091841D01*
X72173371Y-67918164D01*
X72262974Y-67726009D01*
X72270225Y-67698949D01*
X72306590Y-67639288D01*
X72369437Y-67608759D01*
X72438812Y-67617054D01*
G37*
%TD.AperFunction*%
%TA.AperFunction,Conductor*%
G36*
X67358812Y-67617054D02*
G01*
X67412690Y-67661539D01*
X67429775Y-67698949D01*
X67437023Y-67726001D01*
X67437025Y-67726005D01*
X67437026Y-67726009D01*
X67491214Y-67842216D01*
X67526629Y-67918164D01*
X67526631Y-67918168D01*
X67579153Y-67993177D01*
X67601480Y-68059383D01*
X67584470Y-68127150D01*
X67533522Y-68174963D01*
X67477578Y-68188300D01*
X67142422Y-68188300D01*
X67075383Y-68168615D01*
X67029628Y-68115811D01*
X67019684Y-68046653D01*
X67040847Y-67993177D01*
X67093368Y-67918168D01*
X67093367Y-67918168D01*
X67093371Y-67918164D01*
X67182974Y-67726009D01*
X67190225Y-67698949D01*
X67226590Y-67639288D01*
X67289437Y-67608759D01*
X67358812Y-67617054D01*
G37*
%TD.AperFunction*%
%TD*%
M02*
