%TF.GenerationSoftware,KiCad,Pcbnew,7.0.10*%
%TF.CreationDate,2024-01-06T19:25:06+00:00*%
%TF.ProjectId,v1a,7631612e-6b69-4636-9164-5f7063625858,rev?*%
%TF.SameCoordinates,Original*%
%TF.FileFunction,Copper,L1,Top*%
%TF.FilePolarity,Positive*%
%FSLAX46Y46*%
G04 Gerber Fmt 4.6, Leading zero omitted, Abs format (unit mm)*
G04 Created by KiCad (PCBNEW 7.0.10) date 2024-01-06 19:25:06*
%MOMM*%
%LPD*%
G01*
G04 APERTURE LIST*
G04 Aperture macros list*
%AMRoundRect*
0 Rectangle with rounded corners*
0 $1 Rounding radius*
0 $2 $3 $4 $5 $6 $7 $8 $9 X,Y pos of 4 corners*
0 Add a 4 corners polygon primitive as box body*
4,1,4,$2,$3,$4,$5,$6,$7,$8,$9,$2,$3,0*
0 Add four circle primitives for the rounded corners*
1,1,$1+$1,$2,$3*
1,1,$1+$1,$4,$5*
1,1,$1+$1,$6,$7*
1,1,$1+$1,$8,$9*
0 Add four rect primitives between the rounded corners*
20,1,$1+$1,$2,$3,$4,$5,0*
20,1,$1+$1,$4,$5,$6,$7,0*
20,1,$1+$1,$6,$7,$8,$9,0*
20,1,$1+$1,$8,$9,$2,$3,0*%
G04 Aperture macros list end*
%TA.AperFunction,ComponentPad*%
%ADD10R,1.600000X1.600000*%
%TD*%
%TA.AperFunction,ComponentPad*%
%ADD11O,1.600000X1.600000*%
%TD*%
%TA.AperFunction,ComponentPad*%
%ADD12C,1.600000*%
%TD*%
%TA.AperFunction,SMDPad,CuDef*%
%ADD13R,1.000000X1.500000*%
%TD*%
%TA.AperFunction,SMDPad,CuDef*%
%ADD14RoundRect,0.508000X-0.508000X-2.464500X0.508000X-2.464500X0.508000X2.464500X-0.508000X2.464500X0*%
%TD*%
%TA.AperFunction,SMDPad,CuDef*%
%ADD15RoundRect,0.508000X-0.508000X-2.468000X0.508000X-2.468000X0.508000X2.468000X-0.508000X2.468000X0*%
%TD*%
%TA.AperFunction,ComponentPad*%
%ADD16C,1.400000*%
%TD*%
%TA.AperFunction,ComponentPad*%
%ADD17O,1.400000X1.400000*%
%TD*%
%TA.AperFunction,ViaPad*%
%ADD18C,0.800000*%
%TD*%
%TA.AperFunction,Conductor*%
%ADD19C,0.250000*%
%TD*%
G04 APERTURE END LIST*
D10*
%TO.P,D1,1,K*%
%TO.N,Net-(D1-K)*%
X88874600Y-73660000D03*
D11*
%TO.P,D1,2,A*%
%TO.N,~{SEL}*%
X96494600Y-73660000D03*
%TD*%
D12*
%TO.P,C1,1*%
%TO.N,GND*%
X43180000Y-67270000D03*
%TO.P,C1,2*%
%TO.N,+5V*%
X43180000Y-64770000D03*
%TD*%
D10*
%TO.P,U1,1,A18*%
%TO.N,B3*%
X46990000Y-80010000D03*
D11*
%TO.P,U1,2,A16*%
%TO.N,B1*%
X49530000Y-80010000D03*
%TO.P,U1,3,A14*%
%TO.N,A14*%
X52070000Y-80010000D03*
%TO.P,U1,4,A12*%
%TO.N,A12*%
X54610000Y-80010000D03*
%TO.P,U1,5,A7*%
%TO.N,A7*%
X57150000Y-80010000D03*
%TO.P,U1,6,A6*%
%TO.N,A6*%
X59690000Y-80010000D03*
%TO.P,U1,7,A5*%
%TO.N,A5*%
X62230000Y-80010000D03*
%TO.P,U1,8,A4*%
%TO.N,A4*%
X64770000Y-80010000D03*
%TO.P,U1,9,A3*%
%TO.N,A3*%
X67310000Y-80010000D03*
%TO.P,U1,10,A2*%
%TO.N,A2*%
X69850000Y-80010000D03*
%TO.P,U1,11,A1*%
%TO.N,A1*%
X72390000Y-80010000D03*
%TO.P,U1,12,A0*%
%TO.N,A0*%
X74930000Y-80010000D03*
%TO.P,U1,13,DQ0*%
%TO.N,D0*%
X77470000Y-80010000D03*
%TO.P,U1,14,DQ1*%
%TO.N,D1*%
X80010000Y-80010000D03*
%TO.P,U1,15,DQ2*%
%TO.N,D2*%
X82550000Y-80010000D03*
%TO.P,U1,16,VSS*%
%TO.N,GND*%
X85090000Y-80010000D03*
%TO.P,U1,17,DQ3*%
%TO.N,D3*%
X85090000Y-64770000D03*
%TO.P,U1,18,DQ4*%
%TO.N,D4*%
X82550000Y-64770000D03*
%TO.P,U1,19,DQ5*%
%TO.N,D5*%
X80010000Y-64770000D03*
%TO.P,U1,20,DQ6*%
%TO.N,D6*%
X77470000Y-64770000D03*
%TO.P,U1,21,DQ7*%
%TO.N,D7*%
X74930000Y-64770000D03*
%TO.P,U1,22,CE#*%
%TO.N,Net-(D1-K)*%
X72390000Y-64770000D03*
%TO.P,U1,23,A10*%
%TO.N,A10*%
X69850000Y-64770000D03*
%TO.P,U1,24,OE#*%
%TO.N,+5V*%
X67310000Y-64770000D03*
%TO.P,U1,25,A11*%
%TO.N,A11*%
X64770000Y-64770000D03*
%TO.P,U1,26,A9*%
%TO.N,A9*%
X62230000Y-64770000D03*
%TO.P,U1,27,A8*%
%TO.N,A8*%
X59690000Y-64770000D03*
%TO.P,U1,28,A13*%
%TO.N,A13*%
X57150000Y-64770000D03*
%TO.P,U1,29,WE#*%
%TO.N,R{slash}~{W}*%
X54610000Y-64770000D03*
%TO.P,U1,30,A17*%
%TO.N,/Enable 128*%
X52070000Y-64770000D03*
%TO.P,U1,31,A15*%
%TO.N,B0*%
X49530000Y-64770000D03*
%TO.P,U1,32,VCC*%
%TO.N,+5V*%
X46990000Y-64770000D03*
%TD*%
D13*
%TO.P,JP1,1,A*%
%TO.N,B2*%
X88900000Y-76200000D03*
%TO.P,JP1,2,C*%
%TO.N,/Enable 128*%
X90200000Y-76200000D03*
%TO.P,JP1,3,B*%
%TO.N,+5V*%
X91500000Y-76200000D03*
%TD*%
D10*
%TO.P,D2,1,K*%
%TO.N,Net-(D1-K)*%
X88874600Y-71120000D03*
D11*
%TO.P,D2,2,A*%
%TO.N,~{CART}*%
X96494600Y-71120000D03*
%TD*%
D13*
%TO.P,JP2,1,A*%
%TO.N,/Enable 128*%
X88900000Y-78740000D03*
%TO.P,JP2,2,C*%
%TO.N,B6*%
X90200000Y-78740000D03*
%TO.P,JP2,3,B*%
%TO.N,Net-(J1-Pin_42)*%
X91500000Y-78740000D03*
%TD*%
D14*
%TO.P,J1,1,Pin_1*%
%TO.N,GND*%
X43180000Y-91440000D03*
%TO.P,J1,3,Pin_3*%
%TO.N,A15*%
X45720000Y-91440000D03*
%TO.P,J1,5,Pin_5*%
%TO.N,A14*%
X48260000Y-91440000D03*
%TO.P,J1,7,Pin_7*%
%TO.N,A13*%
X50800000Y-91440000D03*
%TO.P,J1,9,Pin_9*%
%TO.N,A12*%
X53340000Y-91440000D03*
%TO.P,J1,11,Pin_11*%
%TO.N,A11*%
X55880000Y-91440000D03*
D15*
%TO.P,J1,13,Pin_13*%
%TO.N,A10*%
X58420000Y-91443500D03*
%TO.P,J1,15,Pin_15*%
%TO.N,A9*%
X60960000Y-91443500D03*
D14*
%TO.P,J1,17,Pin_17*%
%TO.N,A8*%
X63500000Y-91440000D03*
%TO.P,J1,19,Pin_19*%
%TO.N,A7*%
X66040000Y-91440000D03*
%TO.P,J1,21,Pin_21*%
%TO.N,A6*%
X68580000Y-91440000D03*
%TO.P,J1,23,Pin_23*%
%TO.N,A5*%
X71120000Y-91440000D03*
%TO.P,J1,25,Pin_25*%
%TO.N,A4*%
X73660000Y-91440000D03*
%TO.P,J1,27,Pin_27*%
%TO.N,A3*%
X76200000Y-91440000D03*
D15*
%TO.P,J1,29,Pin_29*%
%TO.N,A2*%
X78740000Y-91443500D03*
D14*
%TO.P,J1,31,Pin_31*%
%TO.N,A1*%
X81280000Y-91440000D03*
%TO.P,J1,33,Pin_33*%
%TO.N,A0*%
X83820000Y-91440000D03*
D15*
%TO.P,J1,35,Pin_35*%
%TO.N,~{CART}*%
X86360000Y-91443500D03*
D14*
%TO.P,J1,37,Pin_37*%
%TO.N,~{NMI}*%
X88900000Y-91440000D03*
%TO.P,J1,39,Pin_39*%
%TO.N,~{RESET}*%
X91440000Y-91440000D03*
%TO.P,J1,41,Pin_41*%
%TO.N,~{SEL}*%
X93980000Y-91440000D03*
%TO.P,J1,43,Pin_43*%
%TO.N,unconnected-(J1-Pin_43-Pad43)*%
X96520000Y-91440000D03*
%TD*%
D16*
%TO.P,R1,1*%
%TO.N,GND*%
X96520000Y-68580000D03*
D17*
%TO.P,R1,2*%
%TO.N,Net-(D1-K)*%
X88900000Y-68580000D03*
%TD*%
D18*
%TO.N,GND*%
X52324000Y-78486000D03*
X80010000Y-85090000D03*
X50800000Y-62738000D03*
X89662000Y-85090000D03*
X53340000Y-62738000D03*
X96266000Y-82296000D03*
X71374000Y-81534000D03*
X77978000Y-66802000D03*
X72898000Y-76962000D03*
X71628000Y-87122000D03*
X56896000Y-87630000D03*
X51968400Y-87579200D03*
X95250000Y-77724000D03*
X66040000Y-63246000D03*
X74295000Y-73025000D03*
X56642000Y-84836000D03*
X64262000Y-85852000D03*
X46990000Y-75438000D03*
X54864000Y-78232000D03*
X73406000Y-63500000D03*
X50404773Y-85991038D03*
X82804000Y-71374000D03*
X58420000Y-69342000D03*
X70231000Y-85852000D03*
X92710000Y-82296000D03*
X55118000Y-62230000D03*
X61468000Y-69342000D03*
X80518000Y-66802000D03*
X59944000Y-77978000D03*
X69850000Y-67056000D03*
X88900000Y-81280000D03*
X57658000Y-77724000D03*
X75946000Y-66294000D03*
X59436000Y-87630000D03*
X67310000Y-87884000D03*
X57912000Y-83566000D03*
X71628000Y-75692000D03*
X92456000Y-67564000D03*
X61976000Y-87630000D03*
X67259200Y-84988400D03*
X60452000Y-86106000D03*
X64770000Y-59690000D03*
X52984400Y-86156800D03*
X75438000Y-78486000D03*
X83312000Y-82550000D03*
X50038000Y-67056000D03*
X62484000Y-84074000D03*
X56642000Y-82296000D03*
X67919600Y-83210400D03*
X82296000Y-87376000D03*
X75565000Y-74295000D03*
X77470000Y-85090000D03*
X49530000Y-82804000D03*
X88900000Y-66802000D03*
X87122000Y-83312000D03*
X80010000Y-87630000D03*
X55372000Y-83566000D03*
X56083200Y-66395600D03*
X50800000Y-81026000D03*
X66548000Y-81534000D03*
X68580000Y-63246000D03*
X49225200Y-87426800D03*
X66040000Y-66294000D03*
X54305200Y-87731600D03*
X45212000Y-85852000D03*
X75565000Y-83312000D03*
X45085000Y-62865000D03*
X61264800Y-82804000D03*
X68834000Y-86995000D03*
X73914000Y-86868000D03*
X65532000Y-83210400D03*
X55626000Y-69342000D03*
X83312000Y-66548000D03*
X46609000Y-83997800D03*
X77470000Y-76200000D03*
%TO.N,+5V*%
X93980000Y-69850000D03*
X71307000Y-61027000D03*
%TO.N,A14*%
X46990000Y-87376000D03*
%TO.N,A12*%
X51244500Y-85280500D03*
%TO.N,A11*%
X57292819Y-66817819D03*
%TO.N,B6*%
X79375000Y-81915000D03*
%TO.N,B3*%
X76200000Y-86614000D03*
X66040000Y-70485000D03*
%TO.N,B2*%
X85090000Y-77470000D03*
%TO.N,B1*%
X72390000Y-69850000D03*
X81280000Y-82550000D03*
%TO.N,B0*%
X86995000Y-66040000D03*
%TO.N,Net-(J1-Pin_42)*%
X92710000Y-78740000D03*
%TO.N,/Enable 128*%
X66040000Y-67945000D03*
%TD*%
D19*
%TO.N,GND*%
X48683735Y-84270000D02*
X51968400Y-87554665D01*
X51968400Y-87554665D02*
X51968400Y-87579200D01*
X65278000Y-86868000D02*
X64262000Y-85852000D01*
X46609000Y-83997800D02*
X46881200Y-84270000D01*
X50038000Y-67056000D02*
X49824000Y-67270000D01*
X46881200Y-84270000D02*
X48683735Y-84270000D01*
X49824000Y-67270000D02*
X43180000Y-67270000D01*
X45085000Y-65365000D02*
X43180000Y-67270000D01*
X45085000Y-62865000D02*
X45085000Y-65365000D01*
X43180000Y-67270000D02*
X43180000Y-91440000D01*
X67310000Y-87884000D02*
X66294000Y-86868000D01*
X66294000Y-86868000D02*
X65278000Y-86868000D01*
%TO.N,+5V*%
X71120000Y-61214000D02*
X71120000Y-65380991D01*
X93980000Y-69850000D02*
X91470000Y-72360000D01*
X91470000Y-72360000D02*
X91470000Y-76170000D01*
X71120000Y-65380991D02*
X70605991Y-65895000D01*
X71307000Y-61027000D02*
X71120000Y-61214000D01*
X70605991Y-65895000D02*
X68435000Y-65895000D01*
X91470000Y-76170000D02*
X91500000Y-76200000D01*
X68435000Y-65895000D02*
X67310000Y-64770000D01*
%TO.N,Net-(D1-K)*%
X76835000Y-68580000D02*
X73025000Y-64770000D01*
X88900000Y-71729600D02*
X88900000Y-68580000D01*
X88874600Y-74295000D02*
X88874600Y-71755000D01*
X88900000Y-68580000D02*
X76835000Y-68580000D01*
X88874600Y-71755000D02*
X88900000Y-71729600D01*
X73025000Y-64770000D02*
X72390000Y-64770000D01*
%TO.N,~{SEL}*%
X96494600Y-80035400D02*
X93980000Y-82550000D01*
X96494600Y-74295000D02*
X96494600Y-80035400D01*
X93980000Y-82550000D02*
X93980000Y-91440000D01*
%TO.N,~{CART}*%
X93980000Y-73025000D02*
X93980000Y-78740000D01*
X95885000Y-71120000D02*
X93980000Y-73025000D01*
X86360000Y-86360000D02*
X86360000Y-91443500D01*
X96494600Y-71120000D02*
X95885000Y-71120000D01*
X93980000Y-78740000D02*
X86360000Y-86360000D01*
%TO.N,A14*%
X47752000Y-87376000D02*
X48260000Y-87884000D01*
X46990000Y-87376000D02*
X47752000Y-87376000D01*
X48260000Y-87884000D02*
X48260000Y-91440000D01*
%TO.N,A13*%
X45720000Y-84836000D02*
X44450000Y-83566000D01*
X44450000Y-83566000D02*
X44450000Y-76811273D01*
X50800000Y-91440000D02*
X50800000Y-87833200D01*
X47802800Y-84836000D02*
X45720000Y-84836000D01*
X50800000Y-87833200D02*
X47802800Y-84836000D01*
X56491273Y-64770000D02*
X57150000Y-64770000D01*
X44450000Y-76811273D02*
X56491273Y-64770000D01*
%TO.N,A12*%
X51244500Y-85280500D02*
X51244500Y-85636100D01*
X51244500Y-85636100D02*
X53340000Y-87731600D01*
X53340000Y-87731600D02*
X53340000Y-91440000D01*
%TO.N,A11*%
X56880181Y-66817819D02*
X45720000Y-77978000D01*
X45720000Y-77978000D02*
X45720000Y-81135000D01*
X45720000Y-81135000D02*
X48405000Y-83820000D01*
X57292819Y-66817819D02*
X56880181Y-66817819D01*
X52070000Y-83820000D02*
X55880000Y-87630000D01*
X55880000Y-87630000D02*
X55880000Y-91440000D01*
X48405000Y-83820000D02*
X52070000Y-83820000D01*
%TO.N,A10*%
X69850000Y-62865000D02*
X69850000Y-64770000D01*
X58420000Y-87884000D02*
X52451000Y-81915000D01*
X68580000Y-61595000D02*
X69850000Y-62865000D01*
X58420000Y-63500000D02*
X60325000Y-61595000D01*
X58420000Y-91443500D02*
X58420000Y-87884000D01*
X48405000Y-77960000D02*
X58420000Y-67945000D01*
X60325000Y-61595000D02*
X68580000Y-61595000D01*
X49530000Y-81915000D02*
X48405000Y-80790000D01*
X58420000Y-67945000D02*
X58420000Y-63500000D01*
X48405000Y-80790000D02*
X48405000Y-77960000D01*
X52451000Y-81915000D02*
X49530000Y-81915000D01*
%TO.N,A9*%
X55562500Y-82550000D02*
X54610000Y-82550000D01*
X60960000Y-87947500D02*
X55562500Y-82550000D01*
X53340000Y-81280000D02*
X53340000Y-76200000D01*
X60960000Y-91443500D02*
X60960000Y-87947500D01*
X53340000Y-76200000D02*
X62230000Y-67310000D01*
X54610000Y-82550000D02*
X53340000Y-81280000D01*
X62230000Y-67310000D02*
X62230000Y-64770000D01*
%TO.N,A8*%
X55880000Y-76835000D02*
X63500000Y-69215000D01*
X60325000Y-62865000D02*
X59690000Y-63500000D01*
X63500000Y-63500000D02*
X62865000Y-62865000D01*
X59690000Y-63500000D02*
X59690000Y-64770000D01*
X62865000Y-62865000D02*
X60325000Y-62865000D01*
X63500000Y-91440000D02*
X63500000Y-87950991D01*
X63500000Y-69215000D02*
X63500000Y-63500000D01*
X55880000Y-80330991D02*
X55880000Y-76835000D01*
X63500000Y-87950991D02*
X55880000Y-80330991D01*
%TO.N,A7*%
X64516000Y-87376000D02*
X65532000Y-87376000D01*
X66040000Y-87884000D02*
X66040000Y-91440000D01*
X65532000Y-87376000D02*
X66040000Y-87884000D01*
X57150000Y-80010000D02*
X64516000Y-87376000D01*
%TO.N,A6*%
X68580000Y-87987273D02*
X66952727Y-86360000D01*
X66952727Y-86360000D02*
X66040000Y-86360000D01*
X66040000Y-86360000D02*
X59690000Y-80010000D01*
X68580000Y-91440000D02*
X68580000Y-87987273D01*
%TO.N,B6*%
X80835000Y-83375000D02*
X84900000Y-83375000D01*
X90200000Y-79345000D02*
X90200000Y-78740000D01*
X79375000Y-81915000D02*
X80835000Y-83375000D01*
X88011000Y-80264000D02*
X89281000Y-80264000D01*
X89281000Y-80264000D02*
X90200000Y-79345000D01*
X84900000Y-83375000D02*
X88011000Y-80264000D01*
%TO.N,A5*%
X66802000Y-85852000D02*
X62230000Y-81280000D01*
X62230000Y-81280000D02*
X62230000Y-80010000D01*
X71120000Y-88011000D02*
X68961000Y-85852000D01*
X68961000Y-85852000D02*
X66802000Y-85852000D01*
X71120000Y-91440000D02*
X71120000Y-88011000D01*
%TO.N,A4*%
X64770000Y-81280000D02*
X64770000Y-80010000D01*
X70739000Y-84963000D02*
X68453000Y-84963000D01*
X73660000Y-91440000D02*
X73660000Y-87884000D01*
X73660000Y-87884000D02*
X70739000Y-84963000D01*
X68453000Y-84963000D02*
X64770000Y-81280000D01*
%TO.N,A3*%
X67310000Y-81129273D02*
X67310000Y-80010000D01*
X76200000Y-87884000D02*
X72771000Y-84455000D01*
X72771000Y-84455000D02*
X70635727Y-84455000D01*
X76200000Y-91440000D02*
X76200000Y-87884000D01*
X70635727Y-84455000D02*
X67310000Y-81129273D01*
%TO.N,B3*%
X68580000Y-81280000D02*
X68580000Y-73025000D01*
X76200000Y-86614000D02*
X76200000Y-86360000D01*
X71120000Y-83820000D02*
X68580000Y-81280000D01*
X76200000Y-86360000D02*
X73660000Y-83820000D01*
X68580000Y-73025000D02*
X66040000Y-70485000D01*
X73660000Y-83820000D02*
X71120000Y-83820000D01*
%TO.N,A2*%
X74041000Y-83185000D02*
X71755000Y-83185000D01*
X69850000Y-81280000D02*
X69850000Y-80010000D01*
X78740000Y-87884000D02*
X74041000Y-83185000D01*
X78740000Y-91443500D02*
X78740000Y-87884000D01*
X71755000Y-83185000D02*
X69850000Y-81280000D01*
%TO.N,B2*%
X86360000Y-76200000D02*
X88900000Y-76200000D01*
X85090000Y-77470000D02*
X86360000Y-76200000D01*
%TO.N,A1*%
X81280000Y-87733273D02*
X81280000Y-91440000D01*
X75969727Y-82423000D02*
X81280000Y-87733273D01*
X72390000Y-81280000D02*
X73533000Y-82423000D01*
X73533000Y-82423000D02*
X75969727Y-82423000D01*
X72390000Y-80010000D02*
X72390000Y-81280000D01*
%TO.N,B1*%
X72390000Y-69850000D02*
X73025000Y-69850000D01*
X81280000Y-78105000D02*
X81280000Y-82550000D01*
X73025000Y-69850000D02*
X81280000Y-78105000D01*
%TO.N,A0*%
X74930000Y-81280000D02*
X74930000Y-80010000D01*
X83820000Y-91440000D02*
X83820000Y-87630000D01*
X75565000Y-81915000D02*
X74930000Y-81280000D01*
X78105000Y-81915000D02*
X75565000Y-81915000D01*
X83820000Y-87630000D02*
X78105000Y-81915000D01*
%TO.N,B0*%
X49530000Y-62333273D02*
X53189273Y-58674000D01*
X80584991Y-58674000D02*
X86995000Y-65084009D01*
X49530000Y-64770000D02*
X49530000Y-62333273D01*
X53189273Y-58674000D02*
X80584991Y-58674000D01*
X86995000Y-65084009D02*
X86995000Y-66040000D01*
%TO.N,Net-(J1-Pin_42)*%
X91500000Y-78740000D02*
X92710000Y-78740000D01*
%TO.N,/Enable 128*%
X88900000Y-78100000D02*
X90200000Y-76800000D01*
X88900000Y-78740000D02*
X88900000Y-78100000D01*
X89530000Y-74930000D02*
X90200000Y-75600000D01*
X90200000Y-76800000D02*
X90200000Y-76200000D01*
X80645000Y-74930000D02*
X89530000Y-74930000D01*
X90200000Y-75600000D02*
X90200000Y-76200000D01*
X66040000Y-67945000D02*
X73660000Y-67945000D01*
X73660000Y-67945000D02*
X80645000Y-74930000D01*
%TD*%
%TA.AperFunction,Conductor*%
%TO.N,GND*%
G36*
X97922311Y-73903738D02*
G01*
X97976189Y-73948223D01*
X97997464Y-74014775D01*
X97997499Y-74017726D01*
X97997499Y-88220571D01*
X97977814Y-88287610D01*
X97925010Y-88333365D01*
X97855852Y-88343309D01*
X97792296Y-88314284D01*
X97777647Y-88299237D01*
X97744569Y-88258932D01*
X97591005Y-88132905D01*
X97590998Y-88132901D01*
X97415808Y-88039260D01*
X97250725Y-87989183D01*
X97225701Y-87981592D01*
X97225699Y-87981591D01*
X97225701Y-87981591D01*
X97113590Y-87970550D01*
X97077547Y-87967000D01*
X97077543Y-87967000D01*
X95962457Y-87967000D01*
X95814300Y-87981591D01*
X95624191Y-88039260D01*
X95449001Y-88132901D01*
X95448995Y-88132905D01*
X95328664Y-88231658D01*
X95264354Y-88258970D01*
X95195487Y-88247179D01*
X95171336Y-88231658D01*
X95051004Y-88132905D01*
X95050998Y-88132901D01*
X94875805Y-88039259D01*
X94693504Y-87983958D01*
X94635066Y-87945661D01*
X94606609Y-87881849D01*
X94605500Y-87865298D01*
X94605500Y-82860452D01*
X94625185Y-82793413D01*
X94641819Y-82772771D01*
X95748173Y-81666417D01*
X96878388Y-80536201D01*
X96890642Y-80526386D01*
X96890459Y-80526164D01*
X96896468Y-80521191D01*
X96896477Y-80521186D01*
X96942549Y-80472122D01*
X96945166Y-80469423D01*
X96964720Y-80449871D01*
X96967176Y-80446703D01*
X96974756Y-80437827D01*
X97004662Y-80405982D01*
X97014313Y-80388424D01*
X97024996Y-80372161D01*
X97037273Y-80356336D01*
X97054621Y-80316244D01*
X97059751Y-80305771D01*
X97080797Y-80267492D01*
X97085780Y-80248080D01*
X97092081Y-80229680D01*
X97100037Y-80211296D01*
X97106870Y-80168148D01*
X97109233Y-80156738D01*
X97120100Y-80114419D01*
X97120100Y-80094383D01*
X97121627Y-80074982D01*
X97123527Y-80062987D01*
X97124760Y-80055204D01*
X97120650Y-80011724D01*
X97120100Y-80000055D01*
X97120100Y-74874188D01*
X97139785Y-74807149D01*
X97172977Y-74772613D01*
X97264156Y-74708769D01*
X97333739Y-74660047D01*
X97494647Y-74499139D01*
X97625168Y-74312734D01*
X97721339Y-74106496D01*
X97753724Y-73985633D01*
X97790089Y-73925972D01*
X97852936Y-73895443D01*
X97922311Y-73903738D01*
G37*
%TD.AperFunction*%
%TA.AperFunction,Conductor*%
G36*
X96208415Y-56942501D02*
G01*
X96218405Y-56942501D01*
X96261571Y-56942501D01*
X96270417Y-56942817D01*
X96503577Y-56959492D01*
X96521078Y-56962009D01*
X96745156Y-57010754D01*
X96762121Y-57015735D01*
X96976991Y-57095877D01*
X96993064Y-57103218D01*
X97194332Y-57213118D01*
X97194336Y-57213120D01*
X97209219Y-57222685D01*
X97392791Y-57360105D01*
X97406162Y-57371691D01*
X97568308Y-57533837D01*
X97579894Y-57547208D01*
X97717314Y-57730780D01*
X97726879Y-57745663D01*
X97836776Y-57946924D01*
X97844124Y-57963014D01*
X97850015Y-57978807D01*
X97924262Y-58177873D01*
X97929246Y-58194848D01*
X97977989Y-58418916D01*
X97980507Y-58436428D01*
X97997183Y-58669581D01*
X97997499Y-58678427D01*
X97997499Y-70762273D01*
X97977814Y-70829312D01*
X97925010Y-70875067D01*
X97855852Y-70885011D01*
X97792296Y-70855986D01*
X97754522Y-70797208D01*
X97753724Y-70794366D01*
X97721341Y-70673511D01*
X97721338Y-70673502D01*
X97642243Y-70503884D01*
X97625168Y-70467266D01*
X97505768Y-70296744D01*
X97494645Y-70280858D01*
X97333741Y-70119954D01*
X97147334Y-69989432D01*
X97147332Y-69989431D01*
X96982757Y-69912688D01*
X96930318Y-69866515D01*
X96911166Y-69799322D01*
X96931382Y-69732441D01*
X96984547Y-69687106D01*
X96990369Y-69684679D01*
X97057174Y-69658798D01*
X97057181Y-69658795D01*
X97173326Y-69586879D01*
X96520001Y-68933553D01*
X96520000Y-68933553D01*
X95866672Y-69586879D01*
X95866672Y-69586880D01*
X95982821Y-69658797D01*
X95982822Y-69658798D01*
X96021882Y-69673930D01*
X96077284Y-69716503D01*
X96100874Y-69782270D01*
X96085163Y-69850350D01*
X96035139Y-69899129D01*
X96029493Y-69901939D01*
X95841867Y-69989431D01*
X95841865Y-69989432D01*
X95655458Y-70119954D01*
X95494554Y-70280858D01*
X95364032Y-70467265D01*
X95364031Y-70467267D01*
X95267861Y-70673502D01*
X95267858Y-70673511D01*
X95210926Y-70885988D01*
X95178832Y-70941576D01*
X93596208Y-72524199D01*
X93583951Y-72534020D01*
X93584134Y-72534241D01*
X93578122Y-72539214D01*
X93532098Y-72588223D01*
X93529391Y-72591016D01*
X93509889Y-72610517D01*
X93509875Y-72610534D01*
X93507407Y-72613715D01*
X93499843Y-72622570D01*
X93469937Y-72654418D01*
X93469936Y-72654420D01*
X93460284Y-72671976D01*
X93449610Y-72688226D01*
X93437329Y-72704061D01*
X93437324Y-72704068D01*
X93419975Y-72744158D01*
X93414838Y-72754644D01*
X93393803Y-72792906D01*
X93388822Y-72812307D01*
X93382521Y-72830710D01*
X93374562Y-72849102D01*
X93374561Y-72849105D01*
X93367728Y-72892243D01*
X93365360Y-72903674D01*
X93354501Y-72945971D01*
X93354500Y-72945982D01*
X93354500Y-72966016D01*
X93352973Y-72985415D01*
X93349840Y-73005194D01*
X93349840Y-73005195D01*
X93353950Y-73048674D01*
X93354500Y-73060343D01*
X93354500Y-77851814D01*
X93334815Y-77918853D01*
X93282011Y-77964608D01*
X93212853Y-77974552D01*
X93169572Y-77957005D01*
X93168363Y-77959101D01*
X93162729Y-77955848D01*
X92989807Y-77878857D01*
X92989802Y-77878855D01*
X92844001Y-77847865D01*
X92804646Y-77839500D01*
X92615354Y-77839500D01*
X92615351Y-77839500D01*
X92592724Y-77844309D01*
X92523057Y-77838991D01*
X92467324Y-77796853D01*
X92450764Y-77766350D01*
X92443798Y-77747673D01*
X92443793Y-77747664D01*
X92388206Y-77673411D01*
X92357546Y-77632454D01*
X92273136Y-77569265D01*
X92231267Y-77513333D01*
X92226283Y-77443641D01*
X92259768Y-77382318D01*
X92273130Y-77370739D01*
X92357546Y-77307546D01*
X92443796Y-77192331D01*
X92494091Y-77057483D01*
X92500500Y-76997873D01*
X92500499Y-75402128D01*
X92494091Y-75342517D01*
X92490121Y-75331874D01*
X92443797Y-75207671D01*
X92443793Y-75207664D01*
X92357547Y-75092455D01*
X92357544Y-75092452D01*
X92242335Y-75006206D01*
X92242328Y-75006202D01*
X92176167Y-74981526D01*
X92120233Y-74939655D01*
X92095816Y-74874191D01*
X92095500Y-74865344D01*
X92095500Y-72670452D01*
X92115185Y-72603413D01*
X92131819Y-72582771D01*
X93927772Y-70786819D01*
X93989095Y-70753334D01*
X94015453Y-70750500D01*
X94074644Y-70750500D01*
X94074646Y-70750500D01*
X94259803Y-70711144D01*
X94432730Y-70634151D01*
X94585871Y-70522888D01*
X94712533Y-70382216D01*
X94807179Y-70218284D01*
X94865674Y-70038256D01*
X94885460Y-69850000D01*
X94865674Y-69661744D01*
X94807179Y-69481716D01*
X94712533Y-69317784D01*
X94585871Y-69177112D01*
X94541897Y-69145163D01*
X94432734Y-69065851D01*
X94432729Y-69065848D01*
X94259807Y-68988857D01*
X94259802Y-68988855D01*
X94104798Y-68955909D01*
X94074646Y-68949500D01*
X93885354Y-68949500D01*
X93855202Y-68955909D01*
X93700197Y-68988855D01*
X93700192Y-68988857D01*
X93527270Y-69065848D01*
X93527265Y-69065851D01*
X93374129Y-69177111D01*
X93247466Y-69317785D01*
X93152821Y-69481715D01*
X93152818Y-69481722D01*
X93095283Y-69658798D01*
X93094326Y-69661744D01*
X93077072Y-69825908D01*
X93076679Y-69829649D01*
X93050094Y-69894263D01*
X93041039Y-69904368D01*
X91086208Y-71859199D01*
X91073951Y-71869020D01*
X91074134Y-71869241D01*
X91068122Y-71874214D01*
X91022098Y-71923223D01*
X91019391Y-71926016D01*
X90999889Y-71945517D01*
X90999875Y-71945534D01*
X90997407Y-71948715D01*
X90989843Y-71957570D01*
X90959937Y-71989418D01*
X90959936Y-71989420D01*
X90950284Y-72006976D01*
X90939610Y-72023226D01*
X90927329Y-72039061D01*
X90927324Y-72039068D01*
X90909975Y-72079158D01*
X90904838Y-72089644D01*
X90883803Y-72127906D01*
X90878822Y-72147307D01*
X90872521Y-72165710D01*
X90864562Y-72184102D01*
X90864561Y-72184105D01*
X90857728Y-72227243D01*
X90855360Y-72238674D01*
X90844501Y-72280971D01*
X90844500Y-72280982D01*
X90844500Y-72301016D01*
X90842973Y-72320413D01*
X90842438Y-72323791D01*
X90839840Y-72340194D01*
X90839840Y-72340195D01*
X90843950Y-72383674D01*
X90844500Y-72395343D01*
X90844500Y-74825500D01*
X90824815Y-74892539D01*
X90772011Y-74938294D01*
X90720500Y-74949500D01*
X90485452Y-74949500D01*
X90418413Y-74929815D01*
X90397771Y-74913181D01*
X90193360Y-74708769D01*
X90159875Y-74647446D01*
X90164858Y-74577757D01*
X90168691Y-74567483D01*
X90175100Y-74507873D01*
X90175099Y-72812128D01*
X90168691Y-72752517D01*
X90167368Y-72748971D01*
X90118397Y-72617671D01*
X90118393Y-72617664D01*
X90032147Y-72502455D01*
X90032146Y-72502454D01*
X90014530Y-72489267D01*
X89972658Y-72433334D01*
X89967674Y-72363642D01*
X90001158Y-72302319D01*
X90014530Y-72290733D01*
X90032146Y-72277546D01*
X90118396Y-72162331D01*
X90168691Y-72027483D01*
X90175100Y-71967873D01*
X90175099Y-70272128D01*
X90168691Y-70212517D01*
X90134167Y-70119954D01*
X90118397Y-70077671D01*
X90118393Y-70077664D01*
X90032147Y-69962455D01*
X90032144Y-69962452D01*
X89916935Y-69876206D01*
X89916928Y-69876202D01*
X89782082Y-69825908D01*
X89782083Y-69825908D01*
X89722483Y-69819501D01*
X89722481Y-69819500D01*
X89722473Y-69819500D01*
X89722465Y-69819500D01*
X89649500Y-69819500D01*
X89582461Y-69799815D01*
X89536706Y-69747011D01*
X89525500Y-69695500D01*
X89525500Y-69673765D01*
X89545185Y-69606726D01*
X89584220Y-69568340D01*
X89626562Y-69542124D01*
X89762462Y-69418235D01*
X89790979Y-69392238D01*
X89791993Y-69390896D01*
X89925058Y-69214689D01*
X90024229Y-69015528D01*
X90085115Y-68801536D01*
X90105643Y-68580000D01*
X95314859Y-68580000D01*
X95335378Y-68801439D01*
X95396240Y-69015350D01*
X95495369Y-69214428D01*
X95511137Y-69235308D01*
X95511138Y-69235308D01*
X96137145Y-68609302D01*
X96166372Y-68609302D01*
X96195047Y-68722538D01*
X96258936Y-68820327D01*
X96351115Y-68892072D01*
X96461595Y-68930000D01*
X96549005Y-68930000D01*
X96635216Y-68915614D01*
X96737947Y-68860019D01*
X96817060Y-68774079D01*
X96863982Y-68667108D01*
X96871200Y-68580000D01*
X96873553Y-68580000D01*
X97528861Y-69235308D01*
X97544631Y-69214425D01*
X97544633Y-69214422D01*
X97643759Y-69015350D01*
X97704621Y-68801439D01*
X97725141Y-68580000D01*
X97725141Y-68579999D01*
X97704621Y-68358560D01*
X97643759Y-68144649D01*
X97544635Y-67945580D01*
X97544630Y-67945572D01*
X97528860Y-67924690D01*
X96873553Y-68579999D01*
X96873553Y-68580000D01*
X96871200Y-68580000D01*
X96873628Y-68550698D01*
X96844953Y-68437462D01*
X96781064Y-68339673D01*
X96688885Y-68267928D01*
X96578405Y-68230000D01*
X96490995Y-68230000D01*
X96404784Y-68244386D01*
X96302053Y-68299981D01*
X96222940Y-68385921D01*
X96176018Y-68492892D01*
X96166372Y-68609302D01*
X96137145Y-68609302D01*
X96166447Y-68580000D01*
X95511138Y-67924691D01*
X95511137Y-67924691D01*
X95495368Y-67945574D01*
X95396240Y-68144649D01*
X95335378Y-68358560D01*
X95314859Y-68579999D01*
X95314859Y-68580000D01*
X90105643Y-68580000D01*
X90105168Y-68574879D01*
X90085115Y-68358464D01*
X90085114Y-68358462D01*
X90084503Y-68356315D01*
X90024229Y-68144472D01*
X90018646Y-68133259D01*
X89925061Y-67945316D01*
X89925056Y-67945308D01*
X89790979Y-67767761D01*
X89626562Y-67617876D01*
X89626560Y-67617874D01*
X89554278Y-67573119D01*
X95866671Y-67573119D01*
X96520000Y-68226447D01*
X96520001Y-68226447D01*
X97173327Y-67573119D01*
X97057178Y-67501202D01*
X97057177Y-67501201D01*
X96849804Y-67420865D01*
X96631193Y-67380000D01*
X96408807Y-67380000D01*
X96190195Y-67420865D01*
X95982824Y-67501200D01*
X95982823Y-67501201D01*
X95866671Y-67573119D01*
X89554278Y-67573119D01*
X89437404Y-67500754D01*
X89437398Y-67500752D01*
X89229940Y-67420382D01*
X89011243Y-67379500D01*
X88788757Y-67379500D01*
X88570060Y-67420382D01*
X88532487Y-67434938D01*
X88362601Y-67500752D01*
X88362595Y-67500754D01*
X88173439Y-67617874D01*
X88173437Y-67617876D01*
X88009020Y-67767761D01*
X87905212Y-67905227D01*
X87849103Y-67946863D01*
X87806258Y-67954500D01*
X77145452Y-67954500D01*
X77078413Y-67934815D01*
X77057771Y-67918181D01*
X75337927Y-66198336D01*
X75304442Y-66137013D01*
X75309426Y-66067321D01*
X75351298Y-66011388D01*
X75373204Y-65998273D01*
X75376490Y-65996740D01*
X75376496Y-65996739D01*
X75582734Y-65900568D01*
X75769139Y-65770047D01*
X75930047Y-65609139D01*
X76060568Y-65422734D01*
X76087618Y-65364724D01*
X76133790Y-65312285D01*
X76200983Y-65293133D01*
X76267865Y-65313348D01*
X76312382Y-65364725D01*
X76339429Y-65422728D01*
X76339432Y-65422734D01*
X76469954Y-65609141D01*
X76630858Y-65770045D01*
X76668899Y-65796681D01*
X76817266Y-65900568D01*
X77023504Y-65996739D01*
X77243308Y-66055635D01*
X77398722Y-66069232D01*
X77469998Y-66075468D01*
X77470000Y-66075468D01*
X77470002Y-66075468D01*
X77526673Y-66070509D01*
X77696692Y-66055635D01*
X77916496Y-65996739D01*
X78122734Y-65900568D01*
X78309139Y-65770047D01*
X78470047Y-65609139D01*
X78600568Y-65422734D01*
X78627618Y-65364724D01*
X78673790Y-65312285D01*
X78740983Y-65293133D01*
X78807865Y-65313348D01*
X78852382Y-65364725D01*
X78879429Y-65422728D01*
X78879432Y-65422734D01*
X79009954Y-65609141D01*
X79170858Y-65770045D01*
X79208899Y-65796681D01*
X79357266Y-65900568D01*
X79563504Y-65996739D01*
X79783308Y-66055635D01*
X79938722Y-66069232D01*
X80009998Y-66075468D01*
X80010000Y-66075468D01*
X80010002Y-66075468D01*
X80066673Y-66070509D01*
X80236692Y-66055635D01*
X80456496Y-65996739D01*
X80662734Y-65900568D01*
X80849139Y-65770047D01*
X81010047Y-65609139D01*
X81140568Y-65422734D01*
X81167618Y-65364724D01*
X81213790Y-65312285D01*
X81280983Y-65293133D01*
X81347865Y-65313348D01*
X81392382Y-65364725D01*
X81419429Y-65422728D01*
X81419432Y-65422734D01*
X81549954Y-65609141D01*
X81710858Y-65770045D01*
X81748899Y-65796681D01*
X81897266Y-65900568D01*
X82103504Y-65996739D01*
X82323308Y-66055635D01*
X82478722Y-66069232D01*
X82549998Y-66075468D01*
X82550000Y-66075468D01*
X82550002Y-66075468D01*
X82606673Y-66070509D01*
X82776692Y-66055635D01*
X82996496Y-65996739D01*
X83202734Y-65900568D01*
X83389139Y-65770047D01*
X83550047Y-65609139D01*
X83680568Y-65422734D01*
X83707618Y-65364724D01*
X83753790Y-65312285D01*
X83820983Y-65293133D01*
X83887865Y-65313348D01*
X83932382Y-65364725D01*
X83959429Y-65422728D01*
X83959432Y-65422734D01*
X84089954Y-65609141D01*
X84250858Y-65770045D01*
X84288899Y-65796681D01*
X84437266Y-65900568D01*
X84643504Y-65996739D01*
X84863308Y-66055635D01*
X85018722Y-66069232D01*
X85089998Y-66075468D01*
X85090000Y-66075468D01*
X85090002Y-66075468D01*
X85146673Y-66070509D01*
X85316692Y-66055635D01*
X85536496Y-65996739D01*
X85742734Y-65900568D01*
X85910024Y-65783430D01*
X85976230Y-65761104D01*
X86043997Y-65778114D01*
X86091810Y-65829063D01*
X86104488Y-65897772D01*
X86104194Y-65900570D01*
X86090206Y-66033668D01*
X86089540Y-66040000D01*
X86109326Y-66228256D01*
X86109327Y-66228259D01*
X86167818Y-66408277D01*
X86167821Y-66408284D01*
X86262467Y-66572216D01*
X86303260Y-66617521D01*
X86389129Y-66712888D01*
X86542265Y-66824148D01*
X86542270Y-66824151D01*
X86715192Y-66901142D01*
X86715197Y-66901144D01*
X86900354Y-66940500D01*
X86900355Y-66940500D01*
X87089644Y-66940500D01*
X87089646Y-66940500D01*
X87274803Y-66901144D01*
X87447730Y-66824151D01*
X87600871Y-66712888D01*
X87727533Y-66572216D01*
X87822179Y-66408284D01*
X87880674Y-66228256D01*
X87900460Y-66040000D01*
X87880674Y-65851744D01*
X87822179Y-65671716D01*
X87727533Y-65507784D01*
X87652350Y-65424284D01*
X87622120Y-65361292D01*
X87620500Y-65341312D01*
X87620500Y-65166751D01*
X87622224Y-65151131D01*
X87621939Y-65151104D01*
X87622673Y-65143342D01*
X87620561Y-65076121D01*
X87620500Y-65072227D01*
X87620500Y-65044665D01*
X87620500Y-65044659D01*
X87619996Y-65040677D01*
X87619081Y-65029038D01*
X87618065Y-64996697D01*
X87617710Y-64985382D01*
X87612119Y-64966139D01*
X87608173Y-64947087D01*
X87605664Y-64927217D01*
X87589579Y-64886592D01*
X87585806Y-64875571D01*
X87573618Y-64833619D01*
X87573617Y-64833618D01*
X87573617Y-64833616D01*
X87573616Y-64833615D01*
X87563423Y-64816380D01*
X87554861Y-64798903D01*
X87547487Y-64780278D01*
X87521816Y-64744946D01*
X87515405Y-64735186D01*
X87493170Y-64697589D01*
X87493168Y-64697587D01*
X87493165Y-64697583D01*
X87479006Y-64683424D01*
X87466368Y-64668628D01*
X87454594Y-64652422D01*
X87420940Y-64624581D01*
X87412299Y-64616718D01*
X81085794Y-58290212D01*
X81075971Y-58277950D01*
X81075750Y-58278134D01*
X81070777Y-58272122D01*
X81021767Y-58226099D01*
X81018968Y-58223386D01*
X80999468Y-58203885D01*
X80999462Y-58203880D01*
X80996277Y-58201409D01*
X80987425Y-58193848D01*
X80955573Y-58163938D01*
X80955571Y-58163936D01*
X80955568Y-58163935D01*
X80938020Y-58154288D01*
X80921754Y-58143604D01*
X80905923Y-58131324D01*
X80865840Y-58113978D01*
X80855354Y-58108841D01*
X80817085Y-58087803D01*
X80817083Y-58087802D01*
X80797684Y-58082822D01*
X80779272Y-58076518D01*
X80760889Y-58068562D01*
X80760883Y-58068560D01*
X80717751Y-58061729D01*
X80706313Y-58059361D01*
X80664011Y-58048500D01*
X80664010Y-58048500D01*
X80643975Y-58048500D01*
X80624577Y-58046973D01*
X80617153Y-58045797D01*
X80604796Y-58043840D01*
X80604795Y-58043840D01*
X80561316Y-58047950D01*
X80549647Y-58048500D01*
X53272016Y-58048500D01*
X53256395Y-58046775D01*
X53256368Y-58047061D01*
X53248606Y-58046326D01*
X53181386Y-58048439D01*
X53177492Y-58048500D01*
X53149923Y-58048500D01*
X53145946Y-58049002D01*
X53134315Y-58049917D01*
X53090647Y-58051289D01*
X53090641Y-58051290D01*
X53071399Y-58056880D01*
X53052360Y-58060823D01*
X53032490Y-58063334D01*
X53032473Y-58063338D01*
X52991869Y-58079413D01*
X52980828Y-58083194D01*
X52938879Y-58095383D01*
X52938877Y-58095384D01*
X52921631Y-58105583D01*
X52904166Y-58114139D01*
X52898283Y-58116468D01*
X52885539Y-58121514D01*
X52850207Y-58147183D01*
X52840451Y-58153592D01*
X52802853Y-58175828D01*
X52788681Y-58190000D01*
X52773896Y-58202628D01*
X52757685Y-58214407D01*
X52729844Y-58248059D01*
X52721984Y-58256696D01*
X49146208Y-61832472D01*
X49133951Y-61842293D01*
X49134134Y-61842514D01*
X49128122Y-61847487D01*
X49082098Y-61896496D01*
X49079391Y-61899289D01*
X49059889Y-61918790D01*
X49059875Y-61918807D01*
X49057407Y-61921988D01*
X49049843Y-61930843D01*
X49019937Y-61962691D01*
X49019936Y-61962693D01*
X49010284Y-61980249D01*
X48999610Y-61996499D01*
X48987329Y-62012334D01*
X48987324Y-62012341D01*
X48969975Y-62052431D01*
X48964838Y-62062917D01*
X48943803Y-62101179D01*
X48938822Y-62120580D01*
X48932521Y-62138983D01*
X48924562Y-62157375D01*
X48924561Y-62157378D01*
X48917728Y-62200516D01*
X48915360Y-62211947D01*
X48904501Y-62254244D01*
X48904500Y-62254255D01*
X48904500Y-62274289D01*
X48902973Y-62293688D01*
X48899840Y-62313467D01*
X48899840Y-62313468D01*
X48903950Y-62356947D01*
X48904500Y-62368616D01*
X48904500Y-63555811D01*
X48884815Y-63622850D01*
X48851623Y-63657386D01*
X48690859Y-63769953D01*
X48529954Y-63930858D01*
X48399432Y-64117265D01*
X48399431Y-64117267D01*
X48372382Y-64175275D01*
X48326209Y-64227714D01*
X48259016Y-64246866D01*
X48192135Y-64226650D01*
X48147618Y-64175275D01*
X48120568Y-64117267D01*
X48120567Y-64117265D01*
X47990045Y-63930858D01*
X47829141Y-63769954D01*
X47642734Y-63639432D01*
X47642732Y-63639431D01*
X47436497Y-63543261D01*
X47436488Y-63543258D01*
X47216697Y-63484366D01*
X47216693Y-63484365D01*
X47216692Y-63484365D01*
X47216691Y-63484364D01*
X47216686Y-63484364D01*
X46990002Y-63464532D01*
X46989998Y-63464532D01*
X46763313Y-63484364D01*
X46763302Y-63484366D01*
X46543511Y-63543258D01*
X46543502Y-63543261D01*
X46337267Y-63639431D01*
X46337265Y-63639432D01*
X46150858Y-63769954D01*
X45989954Y-63930858D01*
X45859432Y-64117265D01*
X45859431Y-64117267D01*
X45763261Y-64323502D01*
X45763258Y-64323511D01*
X45704366Y-64543302D01*
X45704364Y-64543313D01*
X45684532Y-64769998D01*
X45684532Y-64770001D01*
X45704364Y-64996686D01*
X45704366Y-64996697D01*
X45763258Y-65216488D01*
X45763261Y-65216497D01*
X45859431Y-65422732D01*
X45859432Y-65422734D01*
X45989954Y-65609141D01*
X46150858Y-65770045D01*
X46188899Y-65796681D01*
X46337266Y-65900568D01*
X46543504Y-65996739D01*
X46763308Y-66055635D01*
X46918722Y-66069232D01*
X46989998Y-66075468D01*
X46990000Y-66075468D01*
X46990002Y-66075468D01*
X47046673Y-66070509D01*
X47216692Y-66055635D01*
X47436496Y-65996739D01*
X47642734Y-65900568D01*
X47829139Y-65770047D01*
X47990047Y-65609139D01*
X48120568Y-65422734D01*
X48147618Y-65364724D01*
X48193790Y-65312285D01*
X48260983Y-65293133D01*
X48327865Y-65313348D01*
X48372382Y-65364725D01*
X48399429Y-65422728D01*
X48399432Y-65422734D01*
X48529954Y-65609141D01*
X48690858Y-65770045D01*
X48728899Y-65796681D01*
X48877266Y-65900568D01*
X49083504Y-65996739D01*
X49303308Y-66055635D01*
X49458722Y-66069232D01*
X49529998Y-66075468D01*
X49530000Y-66075468D01*
X49530002Y-66075468D01*
X49586673Y-66070509D01*
X49756692Y-66055635D01*
X49976496Y-65996739D01*
X50182734Y-65900568D01*
X50369139Y-65770047D01*
X50530047Y-65609139D01*
X50660568Y-65422734D01*
X50687618Y-65364724D01*
X50733790Y-65312285D01*
X50800983Y-65293133D01*
X50867865Y-65313348D01*
X50912382Y-65364725D01*
X50939429Y-65422728D01*
X50939432Y-65422734D01*
X51069954Y-65609141D01*
X51230858Y-65770045D01*
X51268899Y-65796681D01*
X51417266Y-65900568D01*
X51623504Y-65996739D01*
X51843308Y-66055635D01*
X51998722Y-66069232D01*
X52069998Y-66075468D01*
X52070000Y-66075468D01*
X52070002Y-66075468D01*
X52126673Y-66070509D01*
X52296692Y-66055635D01*
X52516496Y-65996739D01*
X52722734Y-65900568D01*
X52909139Y-65770047D01*
X53070047Y-65609139D01*
X53200568Y-65422734D01*
X53227618Y-65364724D01*
X53273790Y-65312285D01*
X53340983Y-65293133D01*
X53407865Y-65313348D01*
X53452382Y-65364725D01*
X53479429Y-65422728D01*
X53479432Y-65422734D01*
X53609954Y-65609141D01*
X53770858Y-65770045D01*
X53808899Y-65796681D01*
X53957266Y-65900568D01*
X54068439Y-65952409D01*
X54150613Y-65990728D01*
X54203052Y-66036901D01*
X54222204Y-66104094D01*
X54201988Y-66170975D01*
X54185889Y-66190791D01*
X44066208Y-76310472D01*
X44053951Y-76320293D01*
X44054134Y-76320514D01*
X44048122Y-76325487D01*
X44002098Y-76374496D01*
X43999391Y-76377289D01*
X43979889Y-76396790D01*
X43979875Y-76396807D01*
X43977407Y-76399988D01*
X43969843Y-76408843D01*
X43939937Y-76440691D01*
X43939936Y-76440693D01*
X43930284Y-76458249D01*
X43919610Y-76474499D01*
X43907329Y-76490334D01*
X43907324Y-76490341D01*
X43889975Y-76530431D01*
X43884838Y-76540917D01*
X43863803Y-76579179D01*
X43858822Y-76598580D01*
X43852521Y-76616983D01*
X43844562Y-76635375D01*
X43844561Y-76635378D01*
X43837728Y-76678516D01*
X43835360Y-76689947D01*
X43824501Y-76732244D01*
X43824500Y-76732255D01*
X43824500Y-76752289D01*
X43822973Y-76771686D01*
X43819840Y-76791469D01*
X43822083Y-76815194D01*
X43823950Y-76834947D01*
X43824500Y-76846616D01*
X43824500Y-83483255D01*
X43822775Y-83498872D01*
X43823061Y-83498899D01*
X43822326Y-83506665D01*
X43824439Y-83573872D01*
X43824500Y-83577767D01*
X43824500Y-83605357D01*
X43825003Y-83609335D01*
X43825918Y-83620967D01*
X43827290Y-83664624D01*
X43827291Y-83664627D01*
X43832880Y-83683867D01*
X43836824Y-83702911D01*
X43839336Y-83722792D01*
X43855414Y-83763403D01*
X43859197Y-83774452D01*
X43871381Y-83816388D01*
X43881580Y-83833634D01*
X43890136Y-83851100D01*
X43893270Y-83859013D01*
X43897514Y-83869732D01*
X43923181Y-83905060D01*
X43929593Y-83914821D01*
X43951828Y-83952417D01*
X43951833Y-83952424D01*
X43965990Y-83966580D01*
X43978628Y-83981376D01*
X43990405Y-83997586D01*
X43990406Y-83997587D01*
X44024057Y-84025425D01*
X44032698Y-84033288D01*
X45219197Y-85219788D01*
X45229022Y-85232051D01*
X45229243Y-85231869D01*
X45234211Y-85237874D01*
X45283222Y-85283899D01*
X45286021Y-85286612D01*
X45305522Y-85306114D01*
X45305526Y-85306117D01*
X45305529Y-85306120D01*
X45308702Y-85308581D01*
X45317574Y-85316159D01*
X45349418Y-85346062D01*
X45366976Y-85355714D01*
X45383235Y-85366395D01*
X45399064Y-85378673D01*
X45439155Y-85396021D01*
X45449626Y-85401151D01*
X45472180Y-85413550D01*
X45487902Y-85422194D01*
X45487904Y-85422195D01*
X45487908Y-85422197D01*
X45507316Y-85427180D01*
X45525719Y-85433481D01*
X45544101Y-85441436D01*
X45544102Y-85441436D01*
X45544104Y-85441437D01*
X45587250Y-85448270D01*
X45598672Y-85450636D01*
X45640981Y-85461500D01*
X45661016Y-85461500D01*
X45680414Y-85463026D01*
X45700194Y-85466159D01*
X45700195Y-85466160D01*
X45700195Y-85466159D01*
X45700196Y-85466160D01*
X45743675Y-85462050D01*
X45755344Y-85461500D01*
X47492348Y-85461500D01*
X47559387Y-85481185D01*
X47580029Y-85497819D01*
X49927561Y-87845352D01*
X49961046Y-87906675D01*
X49956062Y-87976367D01*
X49914190Y-88032300D01*
X49898333Y-88042391D01*
X49729001Y-88132900D01*
X49728995Y-88132905D01*
X49608664Y-88231658D01*
X49544354Y-88258970D01*
X49475487Y-88247179D01*
X49451336Y-88231658D01*
X49331004Y-88132905D01*
X49330998Y-88132901D01*
X49155805Y-88039259D01*
X48973504Y-87983958D01*
X48915066Y-87945661D01*
X48886609Y-87881849D01*
X48885500Y-87865298D01*
X48885500Y-87844651D01*
X48885500Y-87844650D01*
X48884997Y-87840670D01*
X48884080Y-87829021D01*
X48883671Y-87816011D01*
X48882709Y-87785372D01*
X48877120Y-87766137D01*
X48873174Y-87747084D01*
X48873172Y-87747069D01*
X48870664Y-87727208D01*
X48854578Y-87686581D01*
X48850803Y-87675554D01*
X48838617Y-87633610D01*
X48838616Y-87633608D01*
X48828421Y-87616369D01*
X48819860Y-87598893D01*
X48816599Y-87590656D01*
X48812486Y-87580268D01*
X48786809Y-87544926D01*
X48780412Y-87535190D01*
X48758170Y-87497579D01*
X48758167Y-87497576D01*
X48758165Y-87497573D01*
X48744005Y-87483413D01*
X48731370Y-87468620D01*
X48719593Y-87452412D01*
X48685945Y-87424576D01*
X48677304Y-87416713D01*
X48252803Y-86992212D01*
X48242980Y-86979950D01*
X48242759Y-86980134D01*
X48237786Y-86974122D01*
X48188776Y-86928099D01*
X48185977Y-86925386D01*
X48166477Y-86905885D01*
X48166471Y-86905880D01*
X48163286Y-86903409D01*
X48154434Y-86895848D01*
X48122582Y-86865938D01*
X48122580Y-86865936D01*
X48122577Y-86865935D01*
X48105029Y-86856288D01*
X48088763Y-86845604D01*
X48072932Y-86833324D01*
X48032849Y-86815978D01*
X48022363Y-86810841D01*
X47984094Y-86789803D01*
X47984092Y-86789802D01*
X47964693Y-86784822D01*
X47946281Y-86778518D01*
X47927898Y-86770562D01*
X47927892Y-86770560D01*
X47884760Y-86763729D01*
X47873322Y-86761361D01*
X47831020Y-86750500D01*
X47831019Y-86750500D01*
X47810984Y-86750500D01*
X47791586Y-86748973D01*
X47784162Y-86747797D01*
X47771805Y-86745840D01*
X47771804Y-86745840D01*
X47728325Y-86749950D01*
X47716656Y-86750500D01*
X47693748Y-86750500D01*
X47626709Y-86730815D01*
X47601600Y-86709474D01*
X47595873Y-86703114D01*
X47595869Y-86703110D01*
X47442734Y-86591851D01*
X47442729Y-86591848D01*
X47269807Y-86514857D01*
X47269802Y-86514855D01*
X47124001Y-86483865D01*
X47084646Y-86475500D01*
X46895354Y-86475500D01*
X46862897Y-86482398D01*
X46710197Y-86514855D01*
X46710192Y-86514857D01*
X46537270Y-86591848D01*
X46537265Y-86591851D01*
X46384129Y-86703111D01*
X46257466Y-86843785D01*
X46162821Y-87007715D01*
X46162818Y-87007722D01*
X46109904Y-87170576D01*
X46104326Y-87187744D01*
X46084540Y-87376000D01*
X46104326Y-87564256D01*
X46104327Y-87564259D01*
X46162818Y-87744277D01*
X46162820Y-87744281D01*
X46162821Y-87744284D01*
X46182759Y-87778817D01*
X46184020Y-87781001D01*
X46200492Y-87848901D01*
X46177639Y-87914928D01*
X46122717Y-87958118D01*
X46076632Y-87967000D01*
X45162457Y-87967000D01*
X45014300Y-87981591D01*
X44824191Y-88039260D01*
X44649001Y-88132901D01*
X44648994Y-88132905D01*
X44528270Y-88231982D01*
X44463960Y-88259295D01*
X44395092Y-88247504D01*
X44370940Y-88231982D01*
X44250725Y-88133325D01*
X44250718Y-88133320D01*
X44075612Y-88039724D01*
X43885605Y-87982085D01*
X43885603Y-87982084D01*
X43737515Y-87967500D01*
X42622485Y-87967500D01*
X42474396Y-87982084D01*
X42474394Y-87982085D01*
X42284387Y-88039724D01*
X42109281Y-88133320D01*
X42109274Y-88133325D01*
X41955787Y-88259287D01*
X41922353Y-88300028D01*
X41864608Y-88339362D01*
X41794763Y-88341233D01*
X41734995Y-88305046D01*
X41704279Y-88242290D01*
X41702500Y-88221363D01*
X41702500Y-67720585D01*
X41722185Y-67653546D01*
X41774989Y-67607791D01*
X41844147Y-67597847D01*
X41907703Y-67626872D01*
X41945477Y-67685650D01*
X41946275Y-67688492D01*
X41953730Y-67716317D01*
X41953735Y-67716331D01*
X42049863Y-67922478D01*
X42100974Y-67995472D01*
X42782046Y-67314400D01*
X42794835Y-67395148D01*
X42852359Y-67508045D01*
X42941955Y-67597641D01*
X43054852Y-67655165D01*
X43135599Y-67667953D01*
X42454526Y-68349025D01*
X42527513Y-68400132D01*
X42527521Y-68400136D01*
X42733668Y-68496264D01*
X42733682Y-68496269D01*
X42953389Y-68555139D01*
X42953400Y-68555141D01*
X43179998Y-68574966D01*
X43180002Y-68574966D01*
X43406599Y-68555141D01*
X43406610Y-68555139D01*
X43626317Y-68496269D01*
X43626331Y-68496264D01*
X43832478Y-68400136D01*
X43905471Y-68349024D01*
X43224400Y-67667953D01*
X43305148Y-67655165D01*
X43418045Y-67597641D01*
X43507641Y-67508045D01*
X43565165Y-67395148D01*
X43577953Y-67314400D01*
X44259024Y-67995471D01*
X44310136Y-67922478D01*
X44406264Y-67716331D01*
X44406269Y-67716317D01*
X44465139Y-67496610D01*
X44465141Y-67496599D01*
X44484966Y-67270002D01*
X44484966Y-67269997D01*
X44465141Y-67043400D01*
X44465139Y-67043389D01*
X44406269Y-66823682D01*
X44406264Y-66823668D01*
X44310136Y-66617521D01*
X44310132Y-66617513D01*
X44259025Y-66544526D01*
X43577953Y-67225598D01*
X43565165Y-67144852D01*
X43507641Y-67031955D01*
X43418045Y-66942359D01*
X43305148Y-66884835D01*
X43224401Y-66872046D01*
X43905472Y-66190974D01*
X43832480Y-66139864D01*
X43817024Y-66132657D01*
X43764585Y-66086484D01*
X43745433Y-66019290D01*
X43765649Y-65952409D01*
X43817023Y-65907893D01*
X43832734Y-65900568D01*
X44019139Y-65770047D01*
X44180047Y-65609139D01*
X44310568Y-65422734D01*
X44406739Y-65216496D01*
X44465635Y-64996692D01*
X44485468Y-64770000D01*
X44465635Y-64543308D01*
X44406739Y-64323504D01*
X44310568Y-64117266D01*
X44180047Y-63930861D01*
X44180045Y-63930858D01*
X44019141Y-63769954D01*
X43832734Y-63639432D01*
X43832732Y-63639431D01*
X43626497Y-63543261D01*
X43626488Y-63543258D01*
X43406697Y-63484366D01*
X43406693Y-63484365D01*
X43406692Y-63484365D01*
X43406691Y-63484364D01*
X43406686Y-63484364D01*
X43180002Y-63464532D01*
X43179998Y-63464532D01*
X42953313Y-63484364D01*
X42953302Y-63484366D01*
X42733511Y-63543258D01*
X42733502Y-63543261D01*
X42527267Y-63639431D01*
X42527265Y-63639432D01*
X42340858Y-63769954D01*
X42179954Y-63930858D01*
X42049432Y-64117265D01*
X42049431Y-64117267D01*
X41953261Y-64323502D01*
X41953258Y-64323511D01*
X41946275Y-64349575D01*
X41909910Y-64409236D01*
X41847063Y-64439765D01*
X41777688Y-64431470D01*
X41723810Y-64386985D01*
X41702535Y-64320433D01*
X41702500Y-64317482D01*
X41702500Y-58678427D01*
X41702816Y-58669581D01*
X41704491Y-58646156D01*
X41719491Y-58436419D01*
X41722009Y-58418916D01*
X41770754Y-58194839D01*
X41775736Y-58177873D01*
X41855876Y-57963007D01*
X41863217Y-57946934D01*
X41973121Y-57745660D01*
X41982683Y-57730783D01*
X42120107Y-57547206D01*
X42131686Y-57533842D01*
X42293842Y-57371686D01*
X42307206Y-57360107D01*
X42490783Y-57222683D01*
X42505663Y-57213120D01*
X42706934Y-57103217D01*
X42723007Y-57095876D01*
X42937881Y-57015733D01*
X42954839Y-57010754D01*
X43178922Y-56962007D01*
X43196419Y-56959491D01*
X43429582Y-56942816D01*
X43438428Y-56942500D01*
X43481595Y-56942500D01*
X96208403Y-56942500D01*
X96208415Y-56942501D01*
G37*
%TD.AperFunction*%
%TA.AperFunction,Conductor*%
G36*
X50573126Y-84465185D02*
G01*
X50618881Y-84517989D01*
X50628825Y-84587147D01*
X50599800Y-84650703D01*
X50598237Y-84652472D01*
X50511966Y-84748285D01*
X50417321Y-84912215D01*
X50417318Y-84912222D01*
X50360893Y-85085883D01*
X50358826Y-85092244D01*
X50339040Y-85280500D01*
X50358826Y-85468756D01*
X50358827Y-85468759D01*
X50417318Y-85648777D01*
X50417321Y-85648784D01*
X50511967Y-85812716D01*
X50638629Y-85953388D01*
X50756671Y-86039150D01*
X50779538Y-86062017D01*
X50779561Y-86061996D01*
X50780235Y-86062714D01*
X50784101Y-86066580D01*
X50784903Y-86067684D01*
X50784905Y-86067685D01*
X50784906Y-86067687D01*
X50805247Y-86084514D01*
X50818557Y-86095525D01*
X50827198Y-86103388D01*
X52542566Y-87818756D01*
X52576051Y-87880079D01*
X52571067Y-87949771D01*
X52529195Y-88005704D01*
X52490882Y-88025096D01*
X52474607Y-88030034D01*
X52444191Y-88039260D01*
X52269001Y-88132901D01*
X52268995Y-88132905D01*
X52148664Y-88231658D01*
X52084354Y-88258970D01*
X52015487Y-88247179D01*
X51991336Y-88231658D01*
X51871004Y-88132905D01*
X51870998Y-88132901D01*
X51695805Y-88039259D01*
X51514895Y-87984380D01*
X51456457Y-87946083D01*
X51428000Y-87882271D01*
X51426953Y-87869627D01*
X51425561Y-87825324D01*
X51425500Y-87821431D01*
X51425500Y-87793854D01*
X51425500Y-87793850D01*
X51424996Y-87789865D01*
X51424080Y-87778221D01*
X51422709Y-87734573D01*
X51417122Y-87715344D01*
X51413174Y-87696284D01*
X51412876Y-87693922D01*
X51410664Y-87676408D01*
X51410663Y-87676406D01*
X51410663Y-87676404D01*
X51394588Y-87635804D01*
X51390804Y-87624752D01*
X51378618Y-87582809D01*
X51378616Y-87582806D01*
X51368423Y-87565571D01*
X51359861Y-87548094D01*
X51352487Y-87529469D01*
X51329317Y-87497579D01*
X51326811Y-87494130D01*
X51320405Y-87484377D01*
X51298170Y-87446780D01*
X51298168Y-87446778D01*
X51298165Y-87446774D01*
X51284006Y-87432615D01*
X51271368Y-87417819D01*
X51259594Y-87401613D01*
X51255409Y-87398151D01*
X51225940Y-87373772D01*
X51217299Y-87365909D01*
X48508572Y-84657181D01*
X48475087Y-84595858D01*
X48480071Y-84526166D01*
X48521943Y-84470233D01*
X48587407Y-84445816D01*
X48596253Y-84445500D01*
X50506087Y-84445500D01*
X50573126Y-84465185D01*
G37*
%TD.AperFunction*%
%TA.AperFunction,Conductor*%
G36*
X52298058Y-84945697D02*
G01*
X52337774Y-84972364D01*
X55160519Y-87795109D01*
X55194004Y-87856432D01*
X55189020Y-87926124D01*
X55147148Y-87982057D01*
X55108836Y-88001449D01*
X55030879Y-88025098D01*
X54984189Y-88039261D01*
X54809001Y-88132901D01*
X54808995Y-88132905D01*
X54688664Y-88231658D01*
X54624354Y-88258970D01*
X54555487Y-88247179D01*
X54531336Y-88231658D01*
X54411004Y-88132905D01*
X54410998Y-88132901D01*
X54235805Y-88039259D01*
X54053504Y-87983958D01*
X53995066Y-87945661D01*
X53966609Y-87881849D01*
X53965500Y-87865298D01*
X53965500Y-87814342D01*
X53967224Y-87798722D01*
X53966939Y-87798695D01*
X53967673Y-87790933D01*
X53965561Y-87723712D01*
X53965500Y-87719818D01*
X53965500Y-87692256D01*
X53965500Y-87692250D01*
X53964996Y-87688268D01*
X53964081Y-87676629D01*
X53964074Y-87676404D01*
X53962710Y-87632973D01*
X53957119Y-87613730D01*
X53953173Y-87594678D01*
X53950664Y-87574808D01*
X53934579Y-87534183D01*
X53930804Y-87523155D01*
X53918618Y-87481210D01*
X53918026Y-87480209D01*
X53908419Y-87463964D01*
X53899858Y-87446488D01*
X53892487Y-87427871D01*
X53892486Y-87427868D01*
X53866805Y-87392521D01*
X53860409Y-87382782D01*
X53839162Y-87346856D01*
X53838173Y-87345183D01*
X53838166Y-87345174D01*
X53824005Y-87331013D01*
X53811370Y-87316220D01*
X53799593Y-87300012D01*
X53765945Y-87272176D01*
X53757304Y-87264313D01*
X52142600Y-85649609D01*
X52109115Y-85588286D01*
X52112349Y-85523612D01*
X52130174Y-85468756D01*
X52149960Y-85280500D01*
X52130174Y-85092244D01*
X52130171Y-85092237D01*
X52128822Y-85085883D01*
X52131845Y-85085240D01*
X52130083Y-85028842D01*
X52166004Y-84968913D01*
X52228623Y-84937918D01*
X52298058Y-84945697D01*
G37*
%TD.AperFunction*%
%TA.AperFunction,Conductor*%
G36*
X48053625Y-81323215D02*
G01*
X48581721Y-81851312D01*
X49029197Y-82298788D01*
X49039022Y-82311051D01*
X49039243Y-82310869D01*
X49044211Y-82316874D01*
X49044213Y-82316876D01*
X49044214Y-82316877D01*
X49091988Y-82361740D01*
X49093222Y-82362899D01*
X49096021Y-82365612D01*
X49115522Y-82385114D01*
X49115526Y-82385117D01*
X49115529Y-82385120D01*
X49118702Y-82387581D01*
X49127574Y-82395159D01*
X49159418Y-82425062D01*
X49176976Y-82434714D01*
X49193235Y-82445395D01*
X49209064Y-82457673D01*
X49249155Y-82475021D01*
X49259626Y-82480151D01*
X49279389Y-82491016D01*
X49297902Y-82501194D01*
X49297904Y-82501195D01*
X49297908Y-82501197D01*
X49317316Y-82506180D01*
X49335719Y-82512481D01*
X49354101Y-82520436D01*
X49354102Y-82520436D01*
X49354104Y-82520437D01*
X49397250Y-82527270D01*
X49408672Y-82529636D01*
X49450981Y-82540500D01*
X49471016Y-82540500D01*
X49490414Y-82542026D01*
X49510194Y-82545159D01*
X49510195Y-82545160D01*
X49510195Y-82545159D01*
X49510196Y-82545160D01*
X49553675Y-82541050D01*
X49565344Y-82540500D01*
X52140548Y-82540500D01*
X52207587Y-82560185D01*
X52228229Y-82576819D01*
X57514457Y-87863047D01*
X57547942Y-87924370D01*
X57542958Y-87994062D01*
X57501086Y-88049995D01*
X57485229Y-88060086D01*
X57349001Y-88132901D01*
X57348995Y-88132905D01*
X57228664Y-88231658D01*
X57164354Y-88258970D01*
X57095487Y-88247179D01*
X57071336Y-88231658D01*
X56951004Y-88132905D01*
X56950998Y-88132901D01*
X56775805Y-88039259D01*
X56593504Y-87983958D01*
X56535066Y-87945661D01*
X56506609Y-87881849D01*
X56505500Y-87865298D01*
X56505500Y-87712742D01*
X56507224Y-87697122D01*
X56506939Y-87697095D01*
X56507673Y-87689333D01*
X56505561Y-87622112D01*
X56505500Y-87618218D01*
X56505500Y-87590656D01*
X56505500Y-87590650D01*
X56504996Y-87586668D01*
X56504081Y-87575029D01*
X56504074Y-87574808D01*
X56502710Y-87531373D01*
X56497119Y-87512130D01*
X56493173Y-87493078D01*
X56490664Y-87473208D01*
X56474579Y-87432583D01*
X56470806Y-87421562D01*
X56458618Y-87379610D01*
X56458617Y-87379608D01*
X56458617Y-87379607D01*
X56458616Y-87379606D01*
X56448423Y-87362371D01*
X56439861Y-87344894D01*
X56432487Y-87326269D01*
X56414626Y-87301686D01*
X56406811Y-87290930D01*
X56400403Y-87281175D01*
X56378170Y-87243580D01*
X56378168Y-87243578D01*
X56378165Y-87243574D01*
X56364006Y-87229415D01*
X56351368Y-87214619D01*
X56339594Y-87198413D01*
X56326697Y-87187744D01*
X56305940Y-87170572D01*
X56297299Y-87162709D01*
X52570803Y-83436212D01*
X52560980Y-83423950D01*
X52560759Y-83424134D01*
X52555786Y-83418122D01*
X52506776Y-83372099D01*
X52503977Y-83369386D01*
X52484477Y-83349885D01*
X52484471Y-83349880D01*
X52481286Y-83347409D01*
X52472434Y-83339848D01*
X52440582Y-83309938D01*
X52440580Y-83309936D01*
X52440577Y-83309935D01*
X52423029Y-83300288D01*
X52406763Y-83289604D01*
X52390932Y-83277324D01*
X52350849Y-83259978D01*
X52340363Y-83254841D01*
X52302094Y-83233803D01*
X52302092Y-83233802D01*
X52282693Y-83228822D01*
X52264281Y-83222518D01*
X52245898Y-83214562D01*
X52245892Y-83214560D01*
X52202760Y-83207729D01*
X52191322Y-83205361D01*
X52149020Y-83194500D01*
X52149019Y-83194500D01*
X52128984Y-83194500D01*
X52109586Y-83192973D01*
X52102162Y-83191797D01*
X52089805Y-83189840D01*
X52089804Y-83189840D01*
X52046325Y-83193950D01*
X52034656Y-83194500D01*
X48715453Y-83194500D01*
X48648414Y-83174815D01*
X48627772Y-83158181D01*
X46991771Y-81522180D01*
X46958286Y-81460857D01*
X46963270Y-81391165D01*
X47005142Y-81335232D01*
X47070606Y-81310815D01*
X47079452Y-81310499D01*
X47837871Y-81310499D01*
X47837872Y-81310499D01*
X47897483Y-81304091D01*
X47922613Y-81294717D01*
X47992302Y-81289732D01*
X48053625Y-81323215D01*
G37*
%TD.AperFunction*%
%TA.AperFunction,Conductor*%
G36*
X55319087Y-83195185D02*
G01*
X55339729Y-83211819D01*
X60013075Y-87885165D01*
X60046560Y-87946488D01*
X60041576Y-88016180D01*
X59999704Y-88072113D01*
X59983848Y-88082204D01*
X59888998Y-88132903D01*
X59888995Y-88132905D01*
X59768664Y-88231658D01*
X59704354Y-88258970D01*
X59635487Y-88247179D01*
X59611336Y-88231658D01*
X59491004Y-88132905D01*
X59490998Y-88132901D01*
X59315805Y-88039259D01*
X59133504Y-87983958D01*
X59075066Y-87945661D01*
X59046609Y-87881849D01*
X59045500Y-87865298D01*
X59045500Y-87844656D01*
X59045500Y-87844650D01*
X59044996Y-87840668D01*
X59044081Y-87829029D01*
X59043904Y-87823385D01*
X59042710Y-87785373D01*
X59037119Y-87766130D01*
X59033173Y-87747078D01*
X59030664Y-87727208D01*
X59014579Y-87686583D01*
X59010803Y-87675552D01*
X58998618Y-87633610D01*
X58998617Y-87633609D01*
X58998617Y-87633607D01*
X58998616Y-87633606D01*
X58988423Y-87616371D01*
X58979861Y-87598894D01*
X58972487Y-87580269D01*
X58954626Y-87555686D01*
X58946811Y-87544930D01*
X58940405Y-87535177D01*
X58918170Y-87497580D01*
X58918168Y-87497578D01*
X58918165Y-87497574D01*
X58904006Y-87483415D01*
X58891368Y-87468619D01*
X58879594Y-87452413D01*
X58874461Y-87448167D01*
X58845940Y-87424572D01*
X58837299Y-87416709D01*
X54807772Y-83387181D01*
X54774287Y-83325858D01*
X54779271Y-83256166D01*
X54821143Y-83200233D01*
X54886607Y-83175816D01*
X54895453Y-83175500D01*
X55252048Y-83175500D01*
X55319087Y-83195185D01*
G37*
%TD.AperFunction*%
%TA.AperFunction,Conductor*%
G36*
X55605134Y-80956562D02*
G01*
X55649483Y-80985064D01*
X62550800Y-87886382D01*
X62584285Y-87947705D01*
X62579301Y-88017397D01*
X62537429Y-88073330D01*
X62521572Y-88083421D01*
X62429001Y-88132900D01*
X62428995Y-88132905D01*
X62308664Y-88231658D01*
X62244354Y-88258970D01*
X62175487Y-88247179D01*
X62151336Y-88231658D01*
X62031004Y-88132905D01*
X62030998Y-88132901D01*
X61855805Y-88039259D01*
X61671269Y-87983280D01*
X61612831Y-87944983D01*
X61584374Y-87881170D01*
X61583327Y-87868524D01*
X61582710Y-87848873D01*
X61577119Y-87829630D01*
X61573173Y-87810578D01*
X61570664Y-87790708D01*
X61554579Y-87750083D01*
X61550806Y-87739062D01*
X61538618Y-87697110D01*
X61538617Y-87697109D01*
X61538617Y-87697107D01*
X61538616Y-87697106D01*
X61528423Y-87679871D01*
X61519861Y-87662394D01*
X61512487Y-87643769D01*
X61492579Y-87616369D01*
X61486811Y-87608430D01*
X61480405Y-87598677D01*
X61458170Y-87561080D01*
X61458168Y-87561078D01*
X61458165Y-87561074D01*
X61444006Y-87546915D01*
X61431368Y-87532119D01*
X61430826Y-87531373D01*
X61419594Y-87515913D01*
X61385940Y-87488072D01*
X61377299Y-87480209D01*
X56063303Y-82166212D01*
X56053480Y-82153950D01*
X56053259Y-82154134D01*
X56048286Y-82148122D01*
X55999276Y-82102099D01*
X55996477Y-82099386D01*
X55976977Y-82079885D01*
X55976971Y-82079880D01*
X55973786Y-82077409D01*
X55964934Y-82069848D01*
X55933082Y-82039938D01*
X55933080Y-82039936D01*
X55933077Y-82039935D01*
X55915529Y-82030288D01*
X55899263Y-82019604D01*
X55883432Y-82007324D01*
X55843349Y-81989978D01*
X55832863Y-81984841D01*
X55794594Y-81963803D01*
X55794592Y-81963802D01*
X55775193Y-81958822D01*
X55756781Y-81952518D01*
X55738398Y-81944562D01*
X55738392Y-81944560D01*
X55695260Y-81937729D01*
X55683822Y-81935361D01*
X55641520Y-81924500D01*
X55641519Y-81924500D01*
X55621484Y-81924500D01*
X55602086Y-81922973D01*
X55594662Y-81921797D01*
X55582305Y-81919840D01*
X55582304Y-81919840D01*
X55538825Y-81923950D01*
X55527156Y-81924500D01*
X54920453Y-81924500D01*
X54853414Y-81904815D01*
X54832772Y-81888181D01*
X54467409Y-81522818D01*
X54433924Y-81461495D01*
X54438908Y-81391803D01*
X54480780Y-81335870D01*
X54546244Y-81311453D01*
X54565890Y-81311608D01*
X54610000Y-81315468D01*
X54610000Y-81315467D01*
X54610001Y-81315468D01*
X54610002Y-81315468D01*
X54666807Y-81310498D01*
X54836692Y-81295635D01*
X55056496Y-81236739D01*
X55262734Y-81140568D01*
X55449139Y-81010047D01*
X55474122Y-80985062D01*
X55535442Y-80951579D01*
X55605134Y-80956562D01*
G37*
%TD.AperFunction*%
%TA.AperFunction,Conductor*%
G36*
X66709314Y-87005185D02*
G01*
X66729956Y-87021819D01*
X67607156Y-87899019D01*
X67640641Y-87960342D01*
X67635657Y-88030034D01*
X67593785Y-88085967D01*
X67577930Y-88096058D01*
X67508994Y-88132905D01*
X67388664Y-88231658D01*
X67324354Y-88258970D01*
X67255487Y-88247179D01*
X67231336Y-88231658D01*
X67111004Y-88132905D01*
X67110998Y-88132901D01*
X66935805Y-88039259D01*
X66753504Y-87983958D01*
X66695066Y-87945661D01*
X66666609Y-87881849D01*
X66665500Y-87865298D01*
X66665500Y-87844651D01*
X66665500Y-87844650D01*
X66664997Y-87840670D01*
X66664080Y-87829021D01*
X66663671Y-87816011D01*
X66662709Y-87785372D01*
X66657120Y-87766137D01*
X66653174Y-87747084D01*
X66653172Y-87747069D01*
X66650664Y-87727208D01*
X66634578Y-87686581D01*
X66630803Y-87675554D01*
X66618617Y-87633610D01*
X66618616Y-87633608D01*
X66608421Y-87616369D01*
X66599860Y-87598893D01*
X66596599Y-87590656D01*
X66592486Y-87580268D01*
X66566809Y-87544926D01*
X66560412Y-87535190D01*
X66538170Y-87497579D01*
X66538167Y-87497576D01*
X66538165Y-87497573D01*
X66524005Y-87483413D01*
X66511370Y-87468620D01*
X66499593Y-87452412D01*
X66465945Y-87424576D01*
X66457304Y-87416713D01*
X66237772Y-87197181D01*
X66204287Y-87135858D01*
X66209271Y-87066166D01*
X66251143Y-87010233D01*
X66316607Y-86985816D01*
X66325453Y-86985500D01*
X66642275Y-86985500D01*
X66709314Y-87005185D01*
G37*
%TD.AperFunction*%
%TA.AperFunction,Conductor*%
G36*
X68717587Y-86497185D02*
G01*
X68738228Y-86513818D01*
X70131695Y-87907286D01*
X70165179Y-87968607D01*
X70160195Y-88038299D01*
X70118323Y-88094232D01*
X70102467Y-88104323D01*
X70048998Y-88132903D01*
X70048995Y-88132905D01*
X69928664Y-88231658D01*
X69864354Y-88258970D01*
X69795487Y-88247179D01*
X69771336Y-88231658D01*
X69651004Y-88132905D01*
X69650998Y-88132901D01*
X69475805Y-88039259D01*
X69288312Y-87982383D01*
X69229874Y-87944086D01*
X69207482Y-87895387D01*
X69204888Y-87896141D01*
X69197120Y-87869407D01*
X69193173Y-87850351D01*
X69190664Y-87830481D01*
X69174579Y-87789856D01*
X69170806Y-87778835D01*
X69158618Y-87736883D01*
X69158617Y-87736882D01*
X69158617Y-87736880D01*
X69158616Y-87736879D01*
X69148423Y-87719644D01*
X69139861Y-87702167D01*
X69132487Y-87683542D01*
X69106816Y-87648210D01*
X69100405Y-87638450D01*
X69080245Y-87604361D01*
X69078172Y-87600856D01*
X69078165Y-87600847D01*
X69064006Y-87586688D01*
X69051368Y-87571892D01*
X69039594Y-87555686D01*
X69030118Y-87547847D01*
X69005940Y-87527845D01*
X68997299Y-87519982D01*
X68166499Y-86689181D01*
X68133014Y-86627858D01*
X68137998Y-86558166D01*
X68179870Y-86502233D01*
X68245334Y-86477816D01*
X68254180Y-86477500D01*
X68650548Y-86477500D01*
X68717587Y-86497185D01*
G37*
%TD.AperFunction*%
%TA.AperFunction,Conductor*%
G36*
X70495587Y-85608185D02*
G01*
X70516229Y-85624819D01*
X72754456Y-87863047D01*
X72787941Y-87924370D01*
X72782957Y-87994062D01*
X72741085Y-88049995D01*
X72725229Y-88060086D01*
X72588997Y-88132903D01*
X72588995Y-88132905D01*
X72468664Y-88231658D01*
X72404354Y-88258970D01*
X72335487Y-88247179D01*
X72311336Y-88231658D01*
X72191004Y-88132905D01*
X72190998Y-88132901D01*
X72015805Y-88039259D01*
X71821066Y-87980185D01*
X71762628Y-87941888D01*
X71737982Y-87896107D01*
X71737113Y-87893113D01*
X71733174Y-87874084D01*
X71730664Y-87854208D01*
X71730663Y-87854206D01*
X71730663Y-87854204D01*
X71714588Y-87813604D01*
X71710804Y-87802552D01*
X71698618Y-87760609D01*
X71698617Y-87760608D01*
X71688421Y-87743368D01*
X71679863Y-87725901D01*
X71672486Y-87707268D01*
X71646811Y-87671930D01*
X71640405Y-87662177D01*
X71623133Y-87632972D01*
X71618172Y-87624583D01*
X71618165Y-87624574D01*
X71604006Y-87610415D01*
X71591368Y-87595619D01*
X71587758Y-87590650D01*
X71579594Y-87579413D01*
X71574027Y-87574808D01*
X71545940Y-87551572D01*
X71537299Y-87543709D01*
X69793772Y-85800181D01*
X69760287Y-85738858D01*
X69765271Y-85669166D01*
X69807143Y-85613233D01*
X69872607Y-85588816D01*
X69881453Y-85588500D01*
X70428548Y-85588500D01*
X70495587Y-85608185D01*
G37*
%TD.AperFunction*%
%TA.AperFunction,Conductor*%
G36*
X72527587Y-85100185D02*
G01*
X72548229Y-85116819D01*
X75294456Y-87863047D01*
X75327941Y-87924370D01*
X75322957Y-87994062D01*
X75281085Y-88049995D01*
X75265229Y-88060086D01*
X75128997Y-88132903D01*
X75128995Y-88132905D01*
X75008664Y-88231658D01*
X74944354Y-88258970D01*
X74875487Y-88247179D01*
X74851336Y-88231658D01*
X74731004Y-88132905D01*
X74730998Y-88132901D01*
X74555805Y-88039259D01*
X74373504Y-87983958D01*
X74315066Y-87945661D01*
X74286609Y-87881849D01*
X74285500Y-87865298D01*
X74285500Y-87844654D01*
X74285500Y-87844653D01*
X74285500Y-87844650D01*
X74284996Y-87840665D01*
X74284080Y-87829021D01*
X74283903Y-87823385D01*
X74282709Y-87785373D01*
X74278068Y-87769401D01*
X74277122Y-87766144D01*
X74273174Y-87747084D01*
X74273172Y-87747069D01*
X74270664Y-87727208D01*
X74270663Y-87727205D01*
X74270663Y-87727204D01*
X74254588Y-87686604D01*
X74250804Y-87675552D01*
X74238618Y-87633609D01*
X74238616Y-87633606D01*
X74228423Y-87616371D01*
X74219861Y-87598894D01*
X74212487Y-87580269D01*
X74194626Y-87555686D01*
X74186811Y-87544930D01*
X74180405Y-87535177D01*
X74158170Y-87497580D01*
X74158168Y-87497578D01*
X74158165Y-87497574D01*
X74144006Y-87483415D01*
X74131368Y-87468619D01*
X74119594Y-87452413D01*
X74114461Y-87448167D01*
X74085940Y-87424572D01*
X74077299Y-87416709D01*
X71952772Y-85292181D01*
X71919287Y-85230858D01*
X71924271Y-85161166D01*
X71966143Y-85105233D01*
X72031607Y-85080816D01*
X72040453Y-85080500D01*
X72460548Y-85080500D01*
X72527587Y-85100185D01*
G37*
%TD.AperFunction*%
%TA.AperFunction,Conductor*%
G36*
X75726314Y-83068185D02*
G01*
X75746956Y-83084819D01*
X80481281Y-87819145D01*
X80514766Y-87880468D01*
X80509782Y-87950160D01*
X80467910Y-88006093D01*
X80429597Y-88025486D01*
X80384193Y-88039259D01*
X80209001Y-88132901D01*
X80208995Y-88132905D01*
X80088664Y-88231658D01*
X80024354Y-88258970D01*
X79955487Y-88247179D01*
X79931336Y-88231658D01*
X79811004Y-88132905D01*
X79810998Y-88132901D01*
X79635805Y-88039259D01*
X79453504Y-87983958D01*
X79395066Y-87945661D01*
X79366609Y-87881849D01*
X79365500Y-87865298D01*
X79365500Y-87844656D01*
X79365500Y-87844650D01*
X79364996Y-87840668D01*
X79364081Y-87829029D01*
X79363904Y-87823385D01*
X79362710Y-87785373D01*
X79357119Y-87766130D01*
X79353173Y-87747078D01*
X79350664Y-87727208D01*
X79334579Y-87686583D01*
X79330803Y-87675552D01*
X79318618Y-87633610D01*
X79318617Y-87633609D01*
X79318617Y-87633607D01*
X79318616Y-87633606D01*
X79308423Y-87616371D01*
X79299861Y-87598894D01*
X79292487Y-87580269D01*
X79274626Y-87555686D01*
X79266811Y-87544930D01*
X79260405Y-87535177D01*
X79238170Y-87497580D01*
X79238168Y-87497578D01*
X79238165Y-87497574D01*
X79224006Y-87483415D01*
X79211368Y-87468619D01*
X79199594Y-87452413D01*
X79194461Y-87448167D01*
X79165940Y-87424572D01*
X79157299Y-87416709D01*
X75000772Y-83260181D01*
X74967287Y-83198858D01*
X74972271Y-83129166D01*
X75014143Y-83073233D01*
X75079607Y-83048816D01*
X75088453Y-83048500D01*
X75659275Y-83048500D01*
X75726314Y-83068185D01*
G37*
%TD.AperFunction*%
%TA.AperFunction,Conductor*%
G36*
X77861587Y-82560185D02*
G01*
X77882229Y-82576819D01*
X83100519Y-87795109D01*
X83134004Y-87856432D01*
X83129020Y-87926124D01*
X83087148Y-87982057D01*
X83048836Y-88001449D01*
X82970879Y-88025098D01*
X82924189Y-88039261D01*
X82749001Y-88132901D01*
X82748995Y-88132905D01*
X82628664Y-88231658D01*
X82564354Y-88258970D01*
X82495487Y-88247179D01*
X82471336Y-88231658D01*
X82351004Y-88132905D01*
X82350998Y-88132901D01*
X82175805Y-88039259D01*
X81993504Y-87983958D01*
X81935066Y-87945661D01*
X81906609Y-87881849D01*
X81905500Y-87865298D01*
X81905500Y-87816011D01*
X81907224Y-87800397D01*
X81906938Y-87800370D01*
X81907672Y-87792607D01*
X81906336Y-87750100D01*
X81905561Y-87725417D01*
X81905500Y-87721523D01*
X81905500Y-87693924D01*
X81905500Y-87693923D01*
X81904997Y-87689943D01*
X81904080Y-87678294D01*
X81903994Y-87675544D01*
X81902709Y-87634646D01*
X81897399Y-87616370D01*
X81897122Y-87615417D01*
X81893174Y-87596357D01*
X81891463Y-87582809D01*
X81890664Y-87576481D01*
X81890663Y-87576479D01*
X81890663Y-87576477D01*
X81874588Y-87535877D01*
X81870804Y-87524825D01*
X81858618Y-87482882D01*
X81858616Y-87482879D01*
X81848423Y-87465644D01*
X81839861Y-87448167D01*
X81832487Y-87429542D01*
X81812195Y-87401613D01*
X81806811Y-87394203D01*
X81800405Y-87384450D01*
X81778170Y-87346853D01*
X81778168Y-87346851D01*
X81778165Y-87346847D01*
X81764006Y-87332688D01*
X81751368Y-87317892D01*
X81750153Y-87316220D01*
X81739594Y-87301686D01*
X81737570Y-87300012D01*
X81705940Y-87273845D01*
X81697299Y-87265982D01*
X77183499Y-82752181D01*
X77150014Y-82690858D01*
X77154998Y-82621166D01*
X77196870Y-82565233D01*
X77262334Y-82540816D01*
X77271180Y-82540500D01*
X77794548Y-82540500D01*
X77861587Y-82560185D01*
G37*
%TD.AperFunction*%
%TA.AperFunction,Conductor*%
G36*
X90891378Y-79983822D02*
G01*
X90892513Y-79984089D01*
X90892517Y-79984091D01*
X90952127Y-79990500D01*
X91545547Y-79990499D01*
X91612585Y-80010183D01*
X91658340Y-80062987D01*
X91668284Y-80132146D01*
X91639259Y-80195702D01*
X91633227Y-80202180D01*
X85976208Y-85859199D01*
X85963951Y-85869020D01*
X85964134Y-85869241D01*
X85958122Y-85874214D01*
X85912098Y-85923223D01*
X85909391Y-85926016D01*
X85889889Y-85945517D01*
X85889875Y-85945534D01*
X85887407Y-85948715D01*
X85879843Y-85957570D01*
X85849937Y-85989418D01*
X85849936Y-85989420D01*
X85840284Y-86006976D01*
X85829610Y-86023226D01*
X85817329Y-86039061D01*
X85817324Y-86039068D01*
X85799975Y-86079158D01*
X85794838Y-86089644D01*
X85773803Y-86127906D01*
X85768822Y-86147307D01*
X85762521Y-86165710D01*
X85754562Y-86184102D01*
X85754561Y-86184105D01*
X85747728Y-86227243D01*
X85745360Y-86238674D01*
X85734501Y-86280971D01*
X85734500Y-86280982D01*
X85734500Y-86301016D01*
X85732973Y-86320415D01*
X85729840Y-86340194D01*
X85729840Y-86340195D01*
X85733950Y-86383674D01*
X85734500Y-86395343D01*
X85734500Y-87865298D01*
X85714815Y-87932337D01*
X85662011Y-87978092D01*
X85646496Y-87983958D01*
X85464194Y-88039259D01*
X85289001Y-88132901D01*
X85288995Y-88132905D01*
X85168664Y-88231658D01*
X85104354Y-88258970D01*
X85035487Y-88247179D01*
X85011336Y-88231658D01*
X84891004Y-88132905D01*
X84890998Y-88132901D01*
X84715805Y-88039259D01*
X84533504Y-87983958D01*
X84475066Y-87945661D01*
X84446609Y-87881849D01*
X84445500Y-87865298D01*
X84445500Y-87712742D01*
X84447224Y-87697122D01*
X84446939Y-87697095D01*
X84447673Y-87689333D01*
X84445561Y-87622112D01*
X84445500Y-87618218D01*
X84445500Y-87590656D01*
X84445500Y-87590650D01*
X84444996Y-87586668D01*
X84444081Y-87575029D01*
X84444074Y-87574808D01*
X84442710Y-87531373D01*
X84437119Y-87512130D01*
X84433173Y-87493078D01*
X84430664Y-87473208D01*
X84414579Y-87432583D01*
X84410804Y-87421555D01*
X84398618Y-87379610D01*
X84396483Y-87376000D01*
X84388419Y-87362364D01*
X84379858Y-87344888D01*
X84375028Y-87332688D01*
X84372486Y-87326268D01*
X84346805Y-87290921D01*
X84340409Y-87281182D01*
X84318171Y-87243580D01*
X84318169Y-87243578D01*
X84318166Y-87243574D01*
X84304005Y-87229413D01*
X84291370Y-87214620D01*
X84279593Y-87198412D01*
X84245945Y-87170576D01*
X84237304Y-87162713D01*
X81286772Y-84212181D01*
X81253287Y-84150858D01*
X81258271Y-84081166D01*
X81300143Y-84025233D01*
X81365607Y-84000816D01*
X81374453Y-84000500D01*
X84817257Y-84000500D01*
X84832877Y-84002224D01*
X84832904Y-84001939D01*
X84840660Y-84002671D01*
X84840667Y-84002673D01*
X84907873Y-84000561D01*
X84911768Y-84000500D01*
X84939346Y-84000500D01*
X84939350Y-84000500D01*
X84943324Y-83999997D01*
X84954963Y-83999080D01*
X84998627Y-83997709D01*
X85017869Y-83992117D01*
X85036912Y-83988174D01*
X85056792Y-83985664D01*
X85097401Y-83969585D01*
X85108444Y-83965803D01*
X85150390Y-83953618D01*
X85167629Y-83943422D01*
X85185103Y-83934862D01*
X85203727Y-83927488D01*
X85203727Y-83927487D01*
X85203732Y-83927486D01*
X85239083Y-83901800D01*
X85248814Y-83895408D01*
X85286420Y-83873170D01*
X85300589Y-83858999D01*
X85315379Y-83846368D01*
X85331587Y-83834594D01*
X85359438Y-83800926D01*
X85367279Y-83792309D01*
X88233772Y-80925819D01*
X88295095Y-80892334D01*
X88321453Y-80889500D01*
X89198257Y-80889500D01*
X89213877Y-80891224D01*
X89213904Y-80890939D01*
X89221660Y-80891671D01*
X89221667Y-80891673D01*
X89288873Y-80889561D01*
X89292768Y-80889500D01*
X89320346Y-80889500D01*
X89320350Y-80889500D01*
X89324324Y-80888997D01*
X89335963Y-80888080D01*
X89379627Y-80886709D01*
X89398869Y-80881117D01*
X89417912Y-80877174D01*
X89437792Y-80874664D01*
X89478401Y-80858585D01*
X89489444Y-80854803D01*
X89531390Y-80842618D01*
X89548629Y-80832422D01*
X89566103Y-80823862D01*
X89584727Y-80816488D01*
X89584727Y-80816487D01*
X89584732Y-80816486D01*
X89620083Y-80790800D01*
X89629814Y-80784408D01*
X89667420Y-80762170D01*
X89681589Y-80747999D01*
X89696379Y-80735368D01*
X89712587Y-80723594D01*
X89740438Y-80689926D01*
X89748279Y-80681309D01*
X90402772Y-80026818D01*
X90464095Y-79993333D01*
X90490453Y-79990499D01*
X90747871Y-79990499D01*
X90747872Y-79990499D01*
X90807483Y-79984091D01*
X90807485Y-79984090D01*
X90807487Y-79984090D01*
X90815031Y-79982308D01*
X90815377Y-79983775D01*
X90876342Y-79979408D01*
X90891378Y-79983822D01*
G37*
%TD.AperFunction*%
%TA.AperFunction,Conductor*%
G36*
X95780002Y-72212101D02*
G01*
X95807786Y-72226705D01*
X95841866Y-72250568D01*
X95899875Y-72277618D01*
X95952314Y-72323791D01*
X95971466Y-72390984D01*
X95951250Y-72457865D01*
X95899875Y-72502381D01*
X95899718Y-72502455D01*
X95841867Y-72529431D01*
X95841865Y-72529432D01*
X95655458Y-72659954D01*
X95494554Y-72820858D01*
X95364032Y-73007265D01*
X95364031Y-73007267D01*
X95267861Y-73213502D01*
X95267858Y-73213511D01*
X95208966Y-73433302D01*
X95208964Y-73433313D01*
X95189132Y-73659998D01*
X95189132Y-73660001D01*
X95208964Y-73886686D01*
X95208966Y-73886697D01*
X95267858Y-74106488D01*
X95267861Y-74106497D01*
X95364031Y-74312732D01*
X95364032Y-74312734D01*
X95494554Y-74499141D01*
X95655458Y-74660045D01*
X95816223Y-74772613D01*
X95859848Y-74827189D01*
X95869100Y-74874188D01*
X95869100Y-79724946D01*
X95849415Y-79791985D01*
X95832781Y-79812627D01*
X93596208Y-82049199D01*
X93583951Y-82059020D01*
X93584134Y-82059241D01*
X93578122Y-82064214D01*
X93532098Y-82113223D01*
X93529391Y-82116016D01*
X93509889Y-82135517D01*
X93509875Y-82135534D01*
X93507407Y-82138715D01*
X93499843Y-82147570D01*
X93469937Y-82179418D01*
X93469936Y-82179420D01*
X93460284Y-82196976D01*
X93449610Y-82213226D01*
X93437329Y-82229061D01*
X93437324Y-82229068D01*
X93419975Y-82269158D01*
X93414838Y-82279644D01*
X93393803Y-82317906D01*
X93388822Y-82337307D01*
X93382521Y-82355710D01*
X93374562Y-82374102D01*
X93374561Y-82374105D01*
X93367728Y-82417243D01*
X93365360Y-82428674D01*
X93354501Y-82470971D01*
X93354500Y-82470982D01*
X93354500Y-82491016D01*
X93352973Y-82510415D01*
X93349929Y-82529637D01*
X93349840Y-82530196D01*
X93351255Y-82545160D01*
X93353950Y-82573674D01*
X93354500Y-82585343D01*
X93354500Y-87865298D01*
X93334815Y-87932337D01*
X93282011Y-87978092D01*
X93266496Y-87983958D01*
X93084194Y-88039259D01*
X92909001Y-88132901D01*
X92908995Y-88132905D01*
X92788664Y-88231658D01*
X92724354Y-88258970D01*
X92655487Y-88247179D01*
X92631336Y-88231658D01*
X92511004Y-88132905D01*
X92510998Y-88132901D01*
X92335808Y-88039260D01*
X92170725Y-87989183D01*
X92145701Y-87981592D01*
X92145699Y-87981591D01*
X92145701Y-87981591D01*
X92033590Y-87970550D01*
X91997547Y-87967000D01*
X91997543Y-87967000D01*
X90882457Y-87967000D01*
X90734300Y-87981591D01*
X90544191Y-88039260D01*
X90369001Y-88132901D01*
X90368995Y-88132905D01*
X90248664Y-88231658D01*
X90184354Y-88258970D01*
X90115487Y-88247179D01*
X90091336Y-88231658D01*
X89971004Y-88132905D01*
X89970998Y-88132901D01*
X89795808Y-88039260D01*
X89630725Y-87989183D01*
X89605701Y-87981592D01*
X89605699Y-87981591D01*
X89605701Y-87981591D01*
X89493590Y-87970550D01*
X89457547Y-87967000D01*
X89457543Y-87967000D01*
X88342457Y-87967000D01*
X88194300Y-87981591D01*
X88004191Y-88039260D01*
X87829001Y-88132901D01*
X87828995Y-88132905D01*
X87708664Y-88231658D01*
X87644354Y-88258970D01*
X87575487Y-88247179D01*
X87551336Y-88231658D01*
X87431004Y-88132905D01*
X87430998Y-88132901D01*
X87255805Y-88039259D01*
X87073504Y-87983958D01*
X87015066Y-87945661D01*
X86986609Y-87881849D01*
X86985500Y-87865298D01*
X86985500Y-86670452D01*
X87005185Y-86603413D01*
X87021819Y-86582771D01*
X90556090Y-83048500D01*
X94363788Y-79240801D01*
X94376042Y-79230986D01*
X94375859Y-79230764D01*
X94381868Y-79225791D01*
X94381877Y-79225786D01*
X94427949Y-79176722D01*
X94430566Y-79174023D01*
X94450120Y-79154471D01*
X94452576Y-79151303D01*
X94460156Y-79142427D01*
X94490062Y-79110582D01*
X94499713Y-79093024D01*
X94510396Y-79076761D01*
X94522673Y-79060936D01*
X94540021Y-79020844D01*
X94545151Y-79010371D01*
X94566197Y-78972092D01*
X94571180Y-78952680D01*
X94577481Y-78934280D01*
X94585437Y-78915896D01*
X94592270Y-78872748D01*
X94594633Y-78861338D01*
X94605500Y-78819019D01*
X94605500Y-78798983D01*
X94607027Y-78779582D01*
X94607705Y-78775302D01*
X94610160Y-78759804D01*
X94606050Y-78716324D01*
X94605500Y-78704655D01*
X94605500Y-73335452D01*
X94625185Y-73268413D01*
X94641819Y-73247771D01*
X95140619Y-72748971D01*
X95648989Y-72240600D01*
X95710310Y-72207117D01*
X95780002Y-72212101D01*
G37*
%TD.AperFunction*%
%TA.AperFunction,Conductor*%
G36*
X60054897Y-81278982D02*
G01*
X60104822Y-81309413D01*
X65334228Y-86538819D01*
X65367713Y-86600142D01*
X65362729Y-86669834D01*
X65320857Y-86725767D01*
X65255393Y-86750184D01*
X65246547Y-86750500D01*
X64826452Y-86750500D01*
X64759413Y-86730815D01*
X64738771Y-86714181D01*
X59547409Y-81522818D01*
X59513924Y-81461495D01*
X59518908Y-81391803D01*
X59560780Y-81335870D01*
X59626244Y-81311453D01*
X59645890Y-81311608D01*
X59690000Y-81315468D01*
X59690000Y-81315467D01*
X59690001Y-81315468D01*
X59690002Y-81315468D01*
X59746807Y-81310498D01*
X59916692Y-81295635D01*
X59985048Y-81277319D01*
X60054897Y-81278982D01*
G37*
%TD.AperFunction*%
%TA.AperFunction,Conductor*%
G36*
X63567865Y-80553348D02*
G01*
X63612382Y-80604725D01*
X63639429Y-80662728D01*
X63639432Y-80662734D01*
X63769954Y-80849141D01*
X63930858Y-81010045D01*
X64089451Y-81121092D01*
X64133076Y-81175668D01*
X64142267Y-81218771D01*
X64144439Y-81287871D01*
X64144500Y-81291767D01*
X64144500Y-81319357D01*
X64145003Y-81323335D01*
X64145918Y-81334967D01*
X64147290Y-81378624D01*
X64147291Y-81378627D01*
X64152880Y-81397867D01*
X64156824Y-81416911D01*
X64157445Y-81421820D01*
X64159336Y-81436792D01*
X64175414Y-81477403D01*
X64179197Y-81488452D01*
X64188996Y-81522180D01*
X64191382Y-81530390D01*
X64201040Y-81546722D01*
X64201580Y-81547634D01*
X64210136Y-81565100D01*
X64216665Y-81581589D01*
X64217514Y-81583732D01*
X64243181Y-81619060D01*
X64249593Y-81628821D01*
X64271828Y-81666417D01*
X64271833Y-81666424D01*
X64285990Y-81680580D01*
X64298627Y-81695375D01*
X64310406Y-81711587D01*
X64338074Y-81734476D01*
X64344057Y-81739425D01*
X64352698Y-81747288D01*
X67620229Y-85014819D01*
X67653714Y-85076142D01*
X67648730Y-85145834D01*
X67606858Y-85201767D01*
X67541394Y-85226184D01*
X67532548Y-85226500D01*
X67112453Y-85226500D01*
X67045414Y-85206815D01*
X67024772Y-85190181D01*
X63041590Y-81206999D01*
X63008105Y-81145676D01*
X63013089Y-81075984D01*
X63054961Y-81020051D01*
X63058149Y-81017742D01*
X63058152Y-81017740D01*
X63069139Y-81010047D01*
X63230047Y-80849139D01*
X63360568Y-80662734D01*
X63387618Y-80604724D01*
X63433790Y-80552285D01*
X63500983Y-80533133D01*
X63567865Y-80553348D01*
G37*
%TD.AperFunction*%
%TA.AperFunction,Conductor*%
G36*
X66107865Y-80553348D02*
G01*
X66152382Y-80604725D01*
X66179429Y-80662728D01*
X66179432Y-80662734D01*
X66309954Y-80849141D01*
X66470858Y-81010045D01*
X66634294Y-81124483D01*
X66677919Y-81179059D01*
X66687110Y-81222157D01*
X66687290Y-81227897D01*
X66687291Y-81227900D01*
X66692880Y-81247140D01*
X66696824Y-81266184D01*
X66698231Y-81277319D01*
X66699336Y-81286065D01*
X66715414Y-81326676D01*
X66719197Y-81337725D01*
X66729250Y-81372327D01*
X66731382Y-81379663D01*
X66740622Y-81395288D01*
X66741580Y-81396907D01*
X66750138Y-81414376D01*
X66757514Y-81433005D01*
X66783181Y-81468333D01*
X66789593Y-81478094D01*
X66811828Y-81515690D01*
X66811833Y-81515697D01*
X66825990Y-81529853D01*
X66838627Y-81544648D01*
X66850406Y-81560860D01*
X66875463Y-81581589D01*
X66884057Y-81588698D01*
X66892698Y-81596561D01*
X69421955Y-84125819D01*
X69455440Y-84187142D01*
X69450456Y-84256834D01*
X69408584Y-84312767D01*
X69343120Y-84337184D01*
X69334274Y-84337500D01*
X68763452Y-84337500D01*
X68696413Y-84317815D01*
X68675771Y-84301181D01*
X65581590Y-81206999D01*
X65548105Y-81145676D01*
X65553089Y-81075984D01*
X65594961Y-81020051D01*
X65598149Y-81017742D01*
X65598152Y-81017740D01*
X65609139Y-81010047D01*
X65770047Y-80849139D01*
X65900568Y-80662734D01*
X65927618Y-80604724D01*
X65973790Y-80552285D01*
X66040983Y-80533133D01*
X66107865Y-80553348D01*
G37*
%TD.AperFunction*%
%TA.AperFunction,Conductor*%
G36*
X45278541Y-81581589D02*
G01*
X45294058Y-81594426D01*
X45302698Y-81602288D01*
X47699228Y-83998819D01*
X47732713Y-84060142D01*
X47727729Y-84129834D01*
X47685857Y-84185767D01*
X47620393Y-84210184D01*
X47611547Y-84210500D01*
X46030453Y-84210500D01*
X45963414Y-84190815D01*
X45942772Y-84174181D01*
X45111819Y-83343228D01*
X45078334Y-83281905D01*
X45075500Y-83255547D01*
X45075500Y-81677132D01*
X45095185Y-81610093D01*
X45147989Y-81564338D01*
X45217147Y-81554394D01*
X45278541Y-81581589D01*
G37*
%TD.AperFunction*%
%TA.AperFunction,Conductor*%
G36*
X66107865Y-65313348D02*
G01*
X66152382Y-65364725D01*
X66179429Y-65422728D01*
X66179432Y-65422734D01*
X66309954Y-65609141D01*
X66470858Y-65770045D01*
X66508899Y-65796681D01*
X66657266Y-65900568D01*
X66863504Y-65996739D01*
X67083308Y-66055635D01*
X67238722Y-66069232D01*
X67309998Y-66075468D01*
X67310000Y-66075468D01*
X67310002Y-66075468D01*
X67366673Y-66070509D01*
X67536692Y-66055635D01*
X67605048Y-66037319D01*
X67674897Y-66038982D01*
X67724822Y-66069413D01*
X67934197Y-66278788D01*
X67944022Y-66291051D01*
X67944243Y-66290869D01*
X67949211Y-66296874D01*
X67949213Y-66296876D01*
X67949214Y-66296877D01*
X67974840Y-66320942D01*
X67998222Y-66342899D01*
X68001021Y-66345612D01*
X68020522Y-66365114D01*
X68020526Y-66365117D01*
X68020529Y-66365120D01*
X68023702Y-66367581D01*
X68032574Y-66375159D01*
X68064418Y-66405062D01*
X68081976Y-66414714D01*
X68098235Y-66425395D01*
X68114064Y-66437673D01*
X68154155Y-66455021D01*
X68164626Y-66460151D01*
X68187180Y-66472550D01*
X68202902Y-66481194D01*
X68202904Y-66481195D01*
X68202908Y-66481197D01*
X68222316Y-66486180D01*
X68240719Y-66492481D01*
X68259101Y-66500436D01*
X68259102Y-66500436D01*
X68259104Y-66500437D01*
X68302250Y-66507270D01*
X68313672Y-66509636D01*
X68355981Y-66520500D01*
X68376016Y-66520500D01*
X68395414Y-66522026D01*
X68415194Y-66525159D01*
X68415195Y-66525160D01*
X68415195Y-66525159D01*
X68415196Y-66525160D01*
X68458675Y-66521050D01*
X68470344Y-66520500D01*
X70523248Y-66520500D01*
X70538868Y-66522224D01*
X70538895Y-66521939D01*
X70546651Y-66522671D01*
X70546658Y-66522673D01*
X70613864Y-66520561D01*
X70617759Y-66520500D01*
X70645337Y-66520500D01*
X70645341Y-66520500D01*
X70649315Y-66519997D01*
X70660954Y-66519080D01*
X70704618Y-66517709D01*
X70723860Y-66512117D01*
X70742903Y-66508174D01*
X70762783Y-66505664D01*
X70803392Y-66489585D01*
X70814435Y-66485803D01*
X70856381Y-66473618D01*
X70873620Y-66463422D01*
X70891094Y-66454862D01*
X70909718Y-66447488D01*
X70909718Y-66447487D01*
X70909723Y-66447486D01*
X70945074Y-66421800D01*
X70954805Y-66415408D01*
X70992411Y-66393170D01*
X71006580Y-66378999D01*
X71021370Y-66366368D01*
X71037578Y-66354594D01*
X71065429Y-66320926D01*
X71073270Y-66312309D01*
X71503785Y-65881794D01*
X71516033Y-65871984D01*
X71515850Y-65871763D01*
X71521873Y-65866779D01*
X71521877Y-65866777D01*
X71521879Y-65866773D01*
X71525699Y-65863614D01*
X71589899Y-65836044D01*
X71658813Y-65847560D01*
X71675870Y-65857578D01*
X71737262Y-65900566D01*
X71737266Y-65900568D01*
X71943504Y-65996739D01*
X72163308Y-66055635D01*
X72318722Y-66069232D01*
X72389998Y-66075468D01*
X72390000Y-66075468D01*
X72390002Y-66075468D01*
X72446673Y-66070509D01*
X72616692Y-66055635D01*
X72836496Y-65996739D01*
X73042734Y-65900568D01*
X73091749Y-65866247D01*
X73157953Y-65843921D01*
X73225721Y-65860931D01*
X73250552Y-65880142D01*
X76334194Y-68963784D01*
X76344019Y-68976048D01*
X76344240Y-68975866D01*
X76349210Y-68981874D01*
X76398239Y-69027915D01*
X76401036Y-69030626D01*
X76420530Y-69050120D01*
X76423695Y-69052575D01*
X76432571Y-69060156D01*
X76464418Y-69090062D01*
X76464422Y-69090064D01*
X76481973Y-69099713D01*
X76498231Y-69110392D01*
X76514064Y-69122674D01*
X76549410Y-69137968D01*
X76554155Y-69140022D01*
X76564635Y-69145155D01*
X76602908Y-69166197D01*
X76622312Y-69171179D01*
X76640710Y-69177478D01*
X76659105Y-69185438D01*
X76702254Y-69192271D01*
X76713680Y-69194638D01*
X76755981Y-69205500D01*
X76776016Y-69205500D01*
X76795413Y-69207026D01*
X76815196Y-69210160D01*
X76858675Y-69206050D01*
X76870344Y-69205500D01*
X87806258Y-69205500D01*
X87873297Y-69225185D01*
X87905212Y-69254773D01*
X88009020Y-69392238D01*
X88173433Y-69542120D01*
X88173435Y-69542122D01*
X88173437Y-69542123D01*
X88173438Y-69542124D01*
X88215778Y-69568339D01*
X88262412Y-69620364D01*
X88274500Y-69673765D01*
X88274500Y-69695500D01*
X88254815Y-69762539D01*
X88202011Y-69808294D01*
X88150501Y-69819500D01*
X88026730Y-69819500D01*
X88026723Y-69819501D01*
X87967116Y-69825908D01*
X87832271Y-69876202D01*
X87832264Y-69876206D01*
X87717055Y-69962452D01*
X87717052Y-69962455D01*
X87630806Y-70077664D01*
X87630802Y-70077671D01*
X87580508Y-70212517D01*
X87574101Y-70272116D01*
X87574101Y-70272123D01*
X87574100Y-70272135D01*
X87574100Y-71967870D01*
X87574101Y-71967876D01*
X87580508Y-72027483D01*
X87630802Y-72162328D01*
X87630806Y-72162335D01*
X87717052Y-72277544D01*
X87717053Y-72277544D01*
X87717054Y-72277546D01*
X87721643Y-72280981D01*
X87734671Y-72290734D01*
X87776541Y-72346668D01*
X87781525Y-72416360D01*
X87748039Y-72477683D01*
X87734671Y-72489266D01*
X87717052Y-72502455D01*
X87630806Y-72617664D01*
X87630802Y-72617671D01*
X87580508Y-72752517D01*
X87576166Y-72792908D01*
X87574101Y-72812123D01*
X87574100Y-72812135D01*
X87574101Y-74180500D01*
X87554416Y-74247539D01*
X87501613Y-74293294D01*
X87450101Y-74304500D01*
X80955452Y-74304500D01*
X80888413Y-74284815D01*
X80867771Y-74268181D01*
X74160803Y-67561212D01*
X74150980Y-67548950D01*
X74150759Y-67549134D01*
X74145786Y-67543122D01*
X74096776Y-67497099D01*
X74093977Y-67494386D01*
X74074477Y-67474885D01*
X74074471Y-67474880D01*
X74071286Y-67472409D01*
X74062434Y-67464848D01*
X74030582Y-67434938D01*
X74030580Y-67434936D01*
X74030577Y-67434935D01*
X74013029Y-67425288D01*
X73996763Y-67414604D01*
X73980932Y-67402324D01*
X73940849Y-67384978D01*
X73930363Y-67379841D01*
X73892094Y-67358803D01*
X73892092Y-67358802D01*
X73872693Y-67353822D01*
X73854281Y-67347518D01*
X73835898Y-67339562D01*
X73835892Y-67339560D01*
X73792760Y-67332729D01*
X73781322Y-67330361D01*
X73739020Y-67319500D01*
X73739019Y-67319500D01*
X73718984Y-67319500D01*
X73699586Y-67317973D01*
X73692162Y-67316797D01*
X73679805Y-67314840D01*
X73679804Y-67314840D01*
X73636325Y-67318950D01*
X73624656Y-67319500D01*
X66743748Y-67319500D01*
X66676709Y-67299815D01*
X66651600Y-67278474D01*
X66645873Y-67272114D01*
X66645869Y-67272110D01*
X66492734Y-67160851D01*
X66492729Y-67160848D01*
X66319807Y-67083857D01*
X66319802Y-67083855D01*
X66164798Y-67050909D01*
X66134646Y-67044500D01*
X65945354Y-67044500D01*
X65915202Y-67050909D01*
X65760197Y-67083855D01*
X65760192Y-67083857D01*
X65587270Y-67160848D01*
X65587265Y-67160851D01*
X65434129Y-67272111D01*
X65307466Y-67412785D01*
X65212821Y-67576715D01*
X65212818Y-67576722D01*
X65154327Y-67756740D01*
X65154326Y-67756744D01*
X65134540Y-67945000D01*
X65154326Y-68133256D01*
X65154327Y-68133259D01*
X65212818Y-68313277D01*
X65212821Y-68313284D01*
X65307467Y-68477216D01*
X65409185Y-68590185D01*
X65434129Y-68617888D01*
X65587265Y-68729148D01*
X65587270Y-68729151D01*
X65760192Y-68806142D01*
X65760197Y-68806144D01*
X65945354Y-68845500D01*
X65945355Y-68845500D01*
X66134644Y-68845500D01*
X66134646Y-68845500D01*
X66319803Y-68806144D01*
X66492730Y-68729151D01*
X66645871Y-68617888D01*
X66648788Y-68614647D01*
X66651600Y-68611526D01*
X66711087Y-68574879D01*
X66743748Y-68570500D01*
X73349548Y-68570500D01*
X73416587Y-68590185D01*
X73437229Y-68606819D01*
X80144194Y-75313784D01*
X80154019Y-75326048D01*
X80154240Y-75325866D01*
X80159210Y-75331874D01*
X80208239Y-75377915D01*
X80211036Y-75380626D01*
X80230530Y-75400120D01*
X80233695Y-75402575D01*
X80242571Y-75410156D01*
X80274418Y-75440062D01*
X80274422Y-75440064D01*
X80291973Y-75449713D01*
X80308231Y-75460392D01*
X80324064Y-75472674D01*
X80359410Y-75487968D01*
X80364155Y-75490022D01*
X80374635Y-75495155D01*
X80412908Y-75516197D01*
X80432312Y-75521179D01*
X80450710Y-75527478D01*
X80469105Y-75535438D01*
X80512254Y-75542271D01*
X80523680Y-75544638D01*
X80565981Y-75555500D01*
X80586016Y-75555500D01*
X80605413Y-75557026D01*
X80625196Y-75560160D01*
X80668675Y-75556050D01*
X80680344Y-75555500D01*
X85817867Y-75555500D01*
X85884906Y-75575185D01*
X85930661Y-75627989D01*
X85940605Y-75697147D01*
X85913405Y-75758547D01*
X85900568Y-75774062D01*
X85892711Y-75782696D01*
X85142228Y-76533181D01*
X85080905Y-76566666D01*
X85054547Y-76569500D01*
X84995354Y-76569500D01*
X84962897Y-76576398D01*
X84810197Y-76608855D01*
X84810192Y-76608857D01*
X84637270Y-76685848D01*
X84637265Y-76685851D01*
X84484129Y-76797111D01*
X84357466Y-76937785D01*
X84262821Y-77101715D01*
X84262818Y-77101722D01*
X84204327Y-77281740D01*
X84204326Y-77281744D01*
X84184540Y-77470000D01*
X84204326Y-77658256D01*
X84204327Y-77658259D01*
X84262818Y-77838277D01*
X84262821Y-77838284D01*
X84357467Y-78002216D01*
X84414587Y-78065654D01*
X84484129Y-78142888D01*
X84637265Y-78254148D01*
X84637270Y-78254151D01*
X84810192Y-78331142D01*
X84810197Y-78331144D01*
X84995354Y-78370500D01*
X84995355Y-78370500D01*
X85184644Y-78370500D01*
X85184646Y-78370500D01*
X85369803Y-78331144D01*
X85542730Y-78254151D01*
X85695871Y-78142888D01*
X85822533Y-78002216D01*
X85917179Y-77838284D01*
X85975674Y-77658256D01*
X85993321Y-77490344D01*
X86019904Y-77425734D01*
X86028950Y-77415639D01*
X86582772Y-76861819D01*
X86644095Y-76828334D01*
X86670453Y-76825500D01*
X87775501Y-76825500D01*
X87842540Y-76845185D01*
X87888295Y-76897989D01*
X87899501Y-76949500D01*
X87899501Y-76997876D01*
X87905908Y-77057483D01*
X87956202Y-77192328D01*
X87956206Y-77192335D01*
X88042452Y-77307544D01*
X88042455Y-77307547D01*
X88126861Y-77370734D01*
X88168732Y-77426668D01*
X88173716Y-77496359D01*
X88140230Y-77557682D01*
X88126861Y-77569266D01*
X88042455Y-77632452D01*
X88042452Y-77632455D01*
X87956206Y-77747664D01*
X87956202Y-77747671D01*
X87905908Y-77882517D01*
X87899501Y-77942116D01*
X87899500Y-77942135D01*
X87899500Y-79537870D01*
X87899679Y-79541195D01*
X87898822Y-79541240D01*
X87887055Y-79606389D01*
X87839434Y-79657517D01*
X87821829Y-79666155D01*
X87813595Y-79669415D01*
X87802548Y-79673197D01*
X87760608Y-79685383D01*
X87760604Y-79685385D01*
X87743365Y-79695580D01*
X87725898Y-79704137D01*
X87707269Y-79711512D01*
X87707267Y-79711514D01*
X87671926Y-79737189D01*
X87662168Y-79743599D01*
X87624580Y-79765828D01*
X87610408Y-79780000D01*
X87595623Y-79792628D01*
X87579412Y-79804407D01*
X87551571Y-79838059D01*
X87543711Y-79846696D01*
X84677228Y-82713181D01*
X84615905Y-82746666D01*
X84589547Y-82749500D01*
X82302208Y-82749500D01*
X82235169Y-82729815D01*
X82189414Y-82677011D01*
X82178887Y-82612539D01*
X82182641Y-82576819D01*
X82185460Y-82550000D01*
X82165674Y-82361744D01*
X82107179Y-82181716D01*
X82012533Y-82017784D01*
X81937350Y-81934284D01*
X81907120Y-81871292D01*
X81905500Y-81851312D01*
X81905500Y-81339048D01*
X81925185Y-81272009D01*
X81977989Y-81226254D01*
X82047147Y-81216310D01*
X82081905Y-81226667D01*
X82103504Y-81236739D01*
X82103509Y-81236740D01*
X82103511Y-81236741D01*
X82123556Y-81242112D01*
X82323308Y-81295635D01*
X82480791Y-81309413D01*
X82549998Y-81315468D01*
X82550000Y-81315468D01*
X82550002Y-81315468D01*
X82606807Y-81310498D01*
X82776692Y-81295635D01*
X82996496Y-81236739D01*
X83202734Y-81140568D01*
X83389139Y-81010047D01*
X83550047Y-80849139D01*
X83680568Y-80662734D01*
X83707895Y-80604129D01*
X83754064Y-80551695D01*
X83821257Y-80532542D01*
X83888139Y-80552757D01*
X83932657Y-80604133D01*
X83959865Y-80662482D01*
X84090342Y-80848820D01*
X84251179Y-81009657D01*
X84437517Y-81140134D01*
X84643673Y-81236265D01*
X84643682Y-81236269D01*
X84839999Y-81288872D01*
X84840000Y-81288871D01*
X84840000Y-80325686D01*
X84851955Y-80337641D01*
X84964852Y-80395165D01*
X85058519Y-80410000D01*
X85121481Y-80410000D01*
X85215148Y-80395165D01*
X85328045Y-80337641D01*
X85340000Y-80325686D01*
X85340000Y-81288872D01*
X85536317Y-81236269D01*
X85536326Y-81236265D01*
X85742482Y-81140134D01*
X85928820Y-81009657D01*
X86089657Y-80848820D01*
X86220134Y-80662482D01*
X86316265Y-80456326D01*
X86316269Y-80456317D01*
X86368872Y-80260000D01*
X85405686Y-80260000D01*
X85417641Y-80248045D01*
X85475165Y-80135148D01*
X85494986Y-80010000D01*
X85475165Y-79884852D01*
X85417641Y-79771955D01*
X85405686Y-79760000D01*
X86368872Y-79760000D01*
X86368872Y-79759999D01*
X86316269Y-79563682D01*
X86316265Y-79563673D01*
X86220134Y-79357517D01*
X86089657Y-79171179D01*
X85928820Y-79010342D01*
X85742482Y-78879865D01*
X85536328Y-78783734D01*
X85340000Y-78731127D01*
X85340000Y-79694314D01*
X85328045Y-79682359D01*
X85215148Y-79624835D01*
X85121481Y-79610000D01*
X85058519Y-79610000D01*
X84964852Y-79624835D01*
X84851955Y-79682359D01*
X84840000Y-79694314D01*
X84840000Y-78731127D01*
X84643671Y-78783734D01*
X84437517Y-78879865D01*
X84251179Y-79010342D01*
X84090342Y-79171179D01*
X83959867Y-79357515D01*
X83932657Y-79415867D01*
X83886484Y-79468306D01*
X83819290Y-79487457D01*
X83752409Y-79467241D01*
X83707893Y-79415865D01*
X83680570Y-79357271D01*
X83680567Y-79357265D01*
X83550045Y-79170858D01*
X83389141Y-79009954D01*
X83202734Y-78879432D01*
X83202732Y-78879431D01*
X82996497Y-78783261D01*
X82996488Y-78783258D01*
X82776697Y-78724366D01*
X82776693Y-78724365D01*
X82776692Y-78724365D01*
X82776691Y-78724364D01*
X82776686Y-78724364D01*
X82550002Y-78704532D01*
X82549998Y-78704532D01*
X82323313Y-78724364D01*
X82323302Y-78724366D01*
X82103511Y-78783258D01*
X82103501Y-78783262D01*
X82081901Y-78793334D01*
X82012824Y-78803824D01*
X81949040Y-78775302D01*
X81910803Y-78716824D01*
X81905500Y-78680950D01*
X81905500Y-78187742D01*
X81907224Y-78172122D01*
X81906939Y-78172096D01*
X81907671Y-78164340D01*
X81907673Y-78164333D01*
X81905561Y-78097126D01*
X81905500Y-78093231D01*
X81905500Y-78065654D01*
X81905500Y-78065650D01*
X81904996Y-78061665D01*
X81904080Y-78050021D01*
X81902709Y-78006373D01*
X81897122Y-77987144D01*
X81893174Y-77968084D01*
X81892735Y-77964608D01*
X81890664Y-77948208D01*
X81890663Y-77948206D01*
X81890663Y-77948204D01*
X81874588Y-77907604D01*
X81870804Y-77896552D01*
X81858618Y-77854609D01*
X81858616Y-77854606D01*
X81848423Y-77837371D01*
X81839861Y-77819894D01*
X81832487Y-77801269D01*
X81813226Y-77774759D01*
X81806811Y-77765930D01*
X81800405Y-77756177D01*
X81778170Y-77718580D01*
X81778168Y-77718578D01*
X81778165Y-77718574D01*
X81764006Y-77704415D01*
X81751368Y-77689619D01*
X81743768Y-77679158D01*
X81739594Y-77673413D01*
X81721272Y-77658256D01*
X81705940Y-77645572D01*
X81697299Y-77637709D01*
X73525803Y-69466212D01*
X73515980Y-69453950D01*
X73515759Y-69454134D01*
X73510786Y-69448122D01*
X73461776Y-69402099D01*
X73458977Y-69399386D01*
X73439477Y-69379885D01*
X73439471Y-69379880D01*
X73436286Y-69377409D01*
X73427434Y-69369848D01*
X73395582Y-69339938D01*
X73395580Y-69339936D01*
X73395577Y-69339935D01*
X73378029Y-69330288D01*
X73361763Y-69319604D01*
X73345932Y-69307324D01*
X73305849Y-69289978D01*
X73295363Y-69284841D01*
X73257094Y-69263803D01*
X73257092Y-69263802D01*
X73237693Y-69258822D01*
X73219281Y-69252518D01*
X73200898Y-69244562D01*
X73200892Y-69244560D01*
X73157760Y-69237729D01*
X73146322Y-69235361D01*
X73104020Y-69224500D01*
X73104019Y-69224500D01*
X73093748Y-69224500D01*
X73026709Y-69204815D01*
X73001600Y-69183474D01*
X72995872Y-69177113D01*
X72995864Y-69177106D01*
X72842734Y-69065851D01*
X72842729Y-69065848D01*
X72669807Y-68988857D01*
X72669802Y-68988855D01*
X72514798Y-68955909D01*
X72484646Y-68949500D01*
X72295354Y-68949500D01*
X72265202Y-68955909D01*
X72110197Y-68988855D01*
X72110192Y-68988857D01*
X71937270Y-69065848D01*
X71937265Y-69065851D01*
X71784129Y-69177111D01*
X71657466Y-69317785D01*
X71562821Y-69481715D01*
X71562818Y-69481722D01*
X71505283Y-69658798D01*
X71504326Y-69661744D01*
X71484540Y-69850000D01*
X71504326Y-70038256D01*
X71504327Y-70038259D01*
X71562818Y-70218277D01*
X71562821Y-70218284D01*
X71657467Y-70382216D01*
X71767018Y-70503884D01*
X71784129Y-70522888D01*
X71937265Y-70634148D01*
X71937270Y-70634151D01*
X72110192Y-70711142D01*
X72110197Y-70711144D01*
X72295354Y-70750500D01*
X72295355Y-70750500D01*
X72484644Y-70750500D01*
X72484646Y-70750500D01*
X72669803Y-70711144D01*
X72821496Y-70643604D01*
X72890746Y-70634320D01*
X72954022Y-70663948D01*
X72959613Y-70669203D01*
X80618181Y-78327771D01*
X80651666Y-78389094D01*
X80654500Y-78415452D01*
X80654500Y-78680950D01*
X80634815Y-78747989D01*
X80582011Y-78793744D01*
X80512853Y-78803688D01*
X80478099Y-78793334D01*
X80456498Y-78783262D01*
X80456488Y-78783258D01*
X80236697Y-78724366D01*
X80236693Y-78724365D01*
X80236692Y-78724365D01*
X80236691Y-78724364D01*
X80236686Y-78724364D01*
X80010002Y-78704532D01*
X80009998Y-78704532D01*
X79783313Y-78724364D01*
X79783302Y-78724366D01*
X79563511Y-78783258D01*
X79563502Y-78783261D01*
X79357267Y-78879431D01*
X79357265Y-78879432D01*
X79170858Y-79009954D01*
X79009954Y-79170858D01*
X78879432Y-79357265D01*
X78879431Y-79357267D01*
X78852382Y-79415275D01*
X78806209Y-79467714D01*
X78739016Y-79486866D01*
X78672135Y-79466650D01*
X78627618Y-79415275D01*
X78600568Y-79357267D01*
X78600567Y-79357265D01*
X78470045Y-79170858D01*
X78309141Y-79009954D01*
X78122734Y-78879432D01*
X78122732Y-78879431D01*
X77916497Y-78783261D01*
X77916488Y-78783258D01*
X77696697Y-78724366D01*
X77696693Y-78724365D01*
X77696692Y-78724365D01*
X77696691Y-78724364D01*
X77696686Y-78724364D01*
X77470002Y-78704532D01*
X77469998Y-78704532D01*
X77243313Y-78724364D01*
X77243302Y-78724366D01*
X77023511Y-78783258D01*
X77023502Y-78783261D01*
X76817267Y-78879431D01*
X76817265Y-78879432D01*
X76630858Y-79009954D01*
X76469954Y-79170858D01*
X76339432Y-79357265D01*
X76339431Y-79357267D01*
X76312382Y-79415275D01*
X76266209Y-79467714D01*
X76199016Y-79486866D01*
X76132135Y-79466650D01*
X76087618Y-79415275D01*
X76060568Y-79357267D01*
X76060567Y-79357265D01*
X75930045Y-79170858D01*
X75769141Y-79009954D01*
X75582734Y-78879432D01*
X75582732Y-78879431D01*
X75376497Y-78783261D01*
X75376488Y-78783258D01*
X75156697Y-78724366D01*
X75156693Y-78724365D01*
X75156692Y-78724365D01*
X75156691Y-78724364D01*
X75156686Y-78724364D01*
X74930002Y-78704532D01*
X74929998Y-78704532D01*
X74703313Y-78724364D01*
X74703302Y-78724366D01*
X74483511Y-78783258D01*
X74483502Y-78783261D01*
X74277267Y-78879431D01*
X74277265Y-78879432D01*
X74090858Y-79009954D01*
X73929954Y-79170858D01*
X73799432Y-79357265D01*
X73799431Y-79357267D01*
X73772382Y-79415275D01*
X73726209Y-79467714D01*
X73659016Y-79486866D01*
X73592135Y-79466650D01*
X73547618Y-79415275D01*
X73520568Y-79357267D01*
X73520567Y-79357265D01*
X73390045Y-79170858D01*
X73229141Y-79009954D01*
X73042734Y-78879432D01*
X73042732Y-78879431D01*
X72836497Y-78783261D01*
X72836488Y-78783258D01*
X72616697Y-78724366D01*
X72616693Y-78724365D01*
X72616692Y-78724365D01*
X72616691Y-78724364D01*
X72616686Y-78724364D01*
X72390002Y-78704532D01*
X72389998Y-78704532D01*
X72163313Y-78724364D01*
X72163302Y-78724366D01*
X71943511Y-78783258D01*
X71943502Y-78783261D01*
X71737267Y-78879431D01*
X71737265Y-78879432D01*
X71550858Y-79009954D01*
X71389954Y-79170858D01*
X71259432Y-79357265D01*
X71259431Y-79357267D01*
X71232382Y-79415275D01*
X71186209Y-79467714D01*
X71119016Y-79486866D01*
X71052135Y-79466650D01*
X71007618Y-79415275D01*
X70980568Y-79357267D01*
X70980567Y-79357265D01*
X70850045Y-79170858D01*
X70689141Y-79009954D01*
X70502734Y-78879432D01*
X70502732Y-78879431D01*
X70296497Y-78783261D01*
X70296488Y-78783258D01*
X70076697Y-78724366D01*
X70076693Y-78724365D01*
X70076692Y-78724365D01*
X70076691Y-78724364D01*
X70076686Y-78724364D01*
X69850002Y-78704532D01*
X69849998Y-78704532D01*
X69623313Y-78724364D01*
X69623302Y-78724366D01*
X69403511Y-78783258D01*
X69403501Y-78783262D01*
X69381901Y-78793334D01*
X69312824Y-78803824D01*
X69249040Y-78775302D01*
X69210803Y-78716824D01*
X69205500Y-78680950D01*
X69205500Y-73107737D01*
X69207224Y-73092123D01*
X69206938Y-73092096D01*
X69207672Y-73084333D01*
X69205561Y-73017143D01*
X69205500Y-73013249D01*
X69205500Y-72985651D01*
X69205500Y-72985650D01*
X69204997Y-72981670D01*
X69204080Y-72970021D01*
X69203954Y-72966016D01*
X69202709Y-72926372D01*
X69197120Y-72907137D01*
X69193174Y-72888084D01*
X69190664Y-72868208D01*
X69174578Y-72827581D01*
X69170803Y-72816554D01*
X69158617Y-72774610D01*
X69148421Y-72757369D01*
X69139860Y-72739893D01*
X69132486Y-72721269D01*
X69132485Y-72721267D01*
X69106809Y-72685926D01*
X69100412Y-72676190D01*
X69078170Y-72638579D01*
X69078167Y-72638576D01*
X69078165Y-72638573D01*
X69064005Y-72624413D01*
X69051370Y-72609620D01*
X69039593Y-72593412D01*
X69005945Y-72565576D01*
X68997304Y-72557713D01*
X66978960Y-70539369D01*
X66945475Y-70478046D01*
X66943323Y-70464668D01*
X66925674Y-70296744D01*
X66867179Y-70116716D01*
X66772533Y-69952784D01*
X66645871Y-69812112D01*
X66604797Y-69782270D01*
X66492734Y-69700851D01*
X66492729Y-69700848D01*
X66319807Y-69623857D01*
X66319802Y-69623855D01*
X66174001Y-69592865D01*
X66134646Y-69584500D01*
X65945354Y-69584500D01*
X65912897Y-69591398D01*
X65760197Y-69623855D01*
X65760192Y-69623857D01*
X65587270Y-69700848D01*
X65587265Y-69700851D01*
X65434129Y-69812111D01*
X65307466Y-69952785D01*
X65212821Y-70116715D01*
X65212818Y-70116722D01*
X65154327Y-70296740D01*
X65154326Y-70296744D01*
X65134540Y-70485000D01*
X65154326Y-70673256D01*
X65154327Y-70673259D01*
X65212818Y-70853277D01*
X65212821Y-70853284D01*
X65307467Y-71017216D01*
X65434129Y-71157888D01*
X65587265Y-71269148D01*
X65587270Y-71269151D01*
X65760192Y-71346142D01*
X65760197Y-71346144D01*
X65945354Y-71385500D01*
X66004548Y-71385500D01*
X66071587Y-71405185D01*
X66092229Y-71421819D01*
X67918181Y-73247771D01*
X67951666Y-73309094D01*
X67954500Y-73335452D01*
X67954500Y-78680950D01*
X67934815Y-78747989D01*
X67882011Y-78793744D01*
X67812853Y-78803688D01*
X67778099Y-78793334D01*
X67756498Y-78783262D01*
X67756488Y-78783258D01*
X67536697Y-78724366D01*
X67536693Y-78724365D01*
X67536692Y-78724365D01*
X67536691Y-78724364D01*
X67536686Y-78724364D01*
X67310002Y-78704532D01*
X67309998Y-78704532D01*
X67083313Y-78724364D01*
X67083302Y-78724366D01*
X66863511Y-78783258D01*
X66863502Y-78783261D01*
X66657267Y-78879431D01*
X66657265Y-78879432D01*
X66470858Y-79009954D01*
X66309954Y-79170858D01*
X66179432Y-79357265D01*
X66179431Y-79357267D01*
X66152382Y-79415275D01*
X66106209Y-79467714D01*
X66039016Y-79486866D01*
X65972135Y-79466650D01*
X65927618Y-79415275D01*
X65900568Y-79357267D01*
X65900567Y-79357265D01*
X65770045Y-79170858D01*
X65609141Y-79009954D01*
X65422734Y-78879432D01*
X65422732Y-78879431D01*
X65216497Y-78783261D01*
X65216488Y-78783258D01*
X64996697Y-78724366D01*
X64996693Y-78724365D01*
X64996692Y-78724365D01*
X64996691Y-78724364D01*
X64996686Y-78724364D01*
X64770002Y-78704532D01*
X64769998Y-78704532D01*
X64543313Y-78724364D01*
X64543302Y-78724366D01*
X64323511Y-78783258D01*
X64323502Y-78783261D01*
X64117267Y-78879431D01*
X64117265Y-78879432D01*
X63930858Y-79009954D01*
X63769954Y-79170858D01*
X63639432Y-79357265D01*
X63639431Y-79357267D01*
X63612382Y-79415275D01*
X63566209Y-79467714D01*
X63499016Y-79486866D01*
X63432135Y-79466650D01*
X63387618Y-79415275D01*
X63360568Y-79357267D01*
X63360567Y-79357265D01*
X63230045Y-79170858D01*
X63069141Y-79009954D01*
X62882734Y-78879432D01*
X62882732Y-78879431D01*
X62676497Y-78783261D01*
X62676488Y-78783258D01*
X62456697Y-78724366D01*
X62456693Y-78724365D01*
X62456692Y-78724365D01*
X62456691Y-78724364D01*
X62456686Y-78724364D01*
X62230002Y-78704532D01*
X62229998Y-78704532D01*
X62003313Y-78724364D01*
X62003302Y-78724366D01*
X61783511Y-78783258D01*
X61783502Y-78783261D01*
X61577267Y-78879431D01*
X61577265Y-78879432D01*
X61390858Y-79009954D01*
X61229954Y-79170858D01*
X61099432Y-79357265D01*
X61099431Y-79357267D01*
X61072382Y-79415275D01*
X61026209Y-79467714D01*
X60959016Y-79486866D01*
X60892135Y-79466650D01*
X60847618Y-79415275D01*
X60820568Y-79357267D01*
X60820567Y-79357265D01*
X60690045Y-79170858D01*
X60529141Y-79009954D01*
X60342734Y-78879432D01*
X60342732Y-78879431D01*
X60136497Y-78783261D01*
X60136488Y-78783258D01*
X59916697Y-78724366D01*
X59916693Y-78724365D01*
X59916692Y-78724365D01*
X59916691Y-78724364D01*
X59916686Y-78724364D01*
X59690002Y-78704532D01*
X59689998Y-78704532D01*
X59463313Y-78724364D01*
X59463302Y-78724366D01*
X59243511Y-78783258D01*
X59243502Y-78783261D01*
X59037267Y-78879431D01*
X59037265Y-78879432D01*
X58850858Y-79009954D01*
X58689954Y-79170858D01*
X58559432Y-79357265D01*
X58559431Y-79357267D01*
X58532382Y-79415275D01*
X58486209Y-79467714D01*
X58419016Y-79486866D01*
X58352135Y-79466650D01*
X58307618Y-79415275D01*
X58280568Y-79357267D01*
X58280567Y-79357265D01*
X58150045Y-79170858D01*
X57989141Y-79009954D01*
X57802734Y-78879432D01*
X57802732Y-78879431D01*
X57596497Y-78783261D01*
X57596488Y-78783258D01*
X57376697Y-78724366D01*
X57376693Y-78724365D01*
X57376692Y-78724365D01*
X57376691Y-78724364D01*
X57376686Y-78724364D01*
X57150002Y-78704532D01*
X57149998Y-78704532D01*
X56923313Y-78724364D01*
X56923302Y-78724366D01*
X56703511Y-78783258D01*
X56703501Y-78783262D01*
X56681901Y-78793334D01*
X56612824Y-78803824D01*
X56549040Y-78775302D01*
X56510803Y-78716824D01*
X56505500Y-78680950D01*
X56505500Y-77145452D01*
X56525185Y-77078413D01*
X56541819Y-77057771D01*
X60203604Y-73395986D01*
X63883788Y-69715801D01*
X63896042Y-69705986D01*
X63895859Y-69705764D01*
X63901868Y-69700791D01*
X63901877Y-69700786D01*
X63947949Y-69651722D01*
X63950566Y-69649023D01*
X63970120Y-69629471D01*
X63972576Y-69626303D01*
X63980156Y-69617427D01*
X64010062Y-69585582D01*
X64019713Y-69568024D01*
X64030396Y-69551761D01*
X64042673Y-69535936D01*
X64060021Y-69495844D01*
X64065151Y-69485371D01*
X64086197Y-69447092D01*
X64091180Y-69427680D01*
X64097481Y-69409280D01*
X64105437Y-69390896D01*
X64112270Y-69347748D01*
X64114633Y-69336338D01*
X64125500Y-69294019D01*
X64125500Y-69273983D01*
X64127027Y-69254582D01*
X64128614Y-69244562D01*
X64130160Y-69234804D01*
X64126050Y-69191324D01*
X64125500Y-69179655D01*
X64125500Y-66099048D01*
X64145185Y-66032009D01*
X64197989Y-65986254D01*
X64267147Y-65976310D01*
X64301905Y-65986667D01*
X64323504Y-65996739D01*
X64543308Y-66055635D01*
X64698722Y-66069232D01*
X64769998Y-66075468D01*
X64770000Y-66075468D01*
X64770002Y-66075468D01*
X64826673Y-66070509D01*
X64996692Y-66055635D01*
X65216496Y-65996739D01*
X65422734Y-65900568D01*
X65609139Y-65770047D01*
X65770047Y-65609139D01*
X65900568Y-65422734D01*
X65927618Y-65364724D01*
X65973790Y-65312285D01*
X66040983Y-65293133D01*
X66107865Y-65313348D01*
G37*
%TD.AperFunction*%
%TA.AperFunction,Conductor*%
G36*
X71187865Y-80553348D02*
G01*
X71232382Y-80604725D01*
X71259429Y-80662728D01*
X71259432Y-80662734D01*
X71389954Y-80849141D01*
X71550858Y-81010045D01*
X71709451Y-81121092D01*
X71753076Y-81175668D01*
X71762267Y-81218771D01*
X71764439Y-81287871D01*
X71764500Y-81291767D01*
X71764500Y-81319357D01*
X71765003Y-81323335D01*
X71765918Y-81334967D01*
X71767290Y-81378624D01*
X71767291Y-81378627D01*
X71772880Y-81397867D01*
X71776824Y-81416911D01*
X71777445Y-81421820D01*
X71779336Y-81436792D01*
X71795414Y-81477403D01*
X71799197Y-81488452D01*
X71808996Y-81522180D01*
X71811382Y-81530390D01*
X71821040Y-81546722D01*
X71821580Y-81547634D01*
X71830136Y-81565100D01*
X71836665Y-81581589D01*
X71837514Y-81583732D01*
X71863181Y-81619060D01*
X71869593Y-81628821D01*
X71891828Y-81666417D01*
X71891833Y-81666424D01*
X71905990Y-81680580D01*
X71918627Y-81695375D01*
X71930406Y-81711587D01*
X71958074Y-81734476D01*
X71964057Y-81739425D01*
X71972698Y-81747288D01*
X72573228Y-82347819D01*
X72606713Y-82409142D01*
X72601729Y-82478834D01*
X72559857Y-82534767D01*
X72494393Y-82559184D01*
X72485547Y-82559500D01*
X72065452Y-82559500D01*
X71998413Y-82539815D01*
X71977771Y-82523181D01*
X70661590Y-81206999D01*
X70628105Y-81145676D01*
X70633089Y-81075984D01*
X70674961Y-81020051D01*
X70678149Y-81017742D01*
X70678152Y-81017740D01*
X70689139Y-81010047D01*
X70850047Y-80849139D01*
X70980568Y-80662734D01*
X71007618Y-80604724D01*
X71053790Y-80552285D01*
X71120983Y-80533133D01*
X71187865Y-80553348D01*
G37*
%TD.AperFunction*%
%TA.AperFunction,Conductor*%
G36*
X50867865Y-80553348D02*
G01*
X50912382Y-80604725D01*
X50939429Y-80662728D01*
X50939432Y-80662734D01*
X51069954Y-80849141D01*
X51230858Y-81010045D01*
X51307807Y-81063925D01*
X51351432Y-81118501D01*
X51358626Y-81188000D01*
X51327103Y-81250355D01*
X51266874Y-81285769D01*
X51236684Y-81289500D01*
X50363316Y-81289500D01*
X50296277Y-81269815D01*
X50250522Y-81217011D01*
X50240578Y-81147853D01*
X50269603Y-81084297D01*
X50292193Y-81063925D01*
X50338763Y-81031316D01*
X50369139Y-81010047D01*
X50530047Y-80849139D01*
X50660568Y-80662734D01*
X50687618Y-80604724D01*
X50733790Y-80552285D01*
X50800983Y-80533133D01*
X50867865Y-80553348D01*
G37*
%TD.AperFunction*%
%TA.AperFunction,Conductor*%
G36*
X61027865Y-65313348D02*
G01*
X61072382Y-65364725D01*
X61099429Y-65422728D01*
X61099432Y-65422734D01*
X61229954Y-65609141D01*
X61390858Y-65770045D01*
X61551623Y-65882613D01*
X61595248Y-65937189D01*
X61604500Y-65984188D01*
X61604500Y-66999546D01*
X61584815Y-67066585D01*
X61568181Y-67087227D01*
X52956208Y-75699199D01*
X52943951Y-75709020D01*
X52944134Y-75709241D01*
X52938122Y-75714214D01*
X52892098Y-75763223D01*
X52889391Y-75766016D01*
X52869889Y-75785517D01*
X52869875Y-75785534D01*
X52867407Y-75788715D01*
X52859843Y-75797570D01*
X52829937Y-75829418D01*
X52829936Y-75829420D01*
X52820284Y-75846976D01*
X52809610Y-75863226D01*
X52797329Y-75879061D01*
X52797324Y-75879068D01*
X52779975Y-75919158D01*
X52774838Y-75929644D01*
X52753803Y-75967906D01*
X52748822Y-75987307D01*
X52742521Y-76005710D01*
X52734562Y-76024102D01*
X52734561Y-76024105D01*
X52727728Y-76067243D01*
X52725360Y-76078674D01*
X52714501Y-76120971D01*
X52714500Y-76120982D01*
X52714500Y-76141016D01*
X52712973Y-76160415D01*
X52709840Y-76180194D01*
X52709840Y-76180195D01*
X52713950Y-76223674D01*
X52714500Y-76235343D01*
X52714500Y-78680950D01*
X52694815Y-78747989D01*
X52642011Y-78793744D01*
X52572853Y-78803688D01*
X52538099Y-78793334D01*
X52516498Y-78783262D01*
X52516488Y-78783258D01*
X52296697Y-78724366D01*
X52296693Y-78724365D01*
X52296692Y-78724365D01*
X52296691Y-78724364D01*
X52296686Y-78724364D01*
X52070002Y-78704532D01*
X52069998Y-78704532D01*
X51843313Y-78724364D01*
X51843302Y-78724366D01*
X51623511Y-78783258D01*
X51623502Y-78783261D01*
X51417267Y-78879431D01*
X51417265Y-78879432D01*
X51230858Y-79009954D01*
X51069954Y-79170858D01*
X50939432Y-79357265D01*
X50939431Y-79357267D01*
X50912382Y-79415275D01*
X50866209Y-79467714D01*
X50799016Y-79486866D01*
X50732135Y-79466650D01*
X50687618Y-79415275D01*
X50660568Y-79357267D01*
X50660567Y-79357265D01*
X50530045Y-79170858D01*
X50369141Y-79009954D01*
X50182734Y-78879432D01*
X50182732Y-78879431D01*
X49976497Y-78783261D01*
X49976488Y-78783258D01*
X49756697Y-78724366D01*
X49756693Y-78724365D01*
X49756692Y-78724365D01*
X49756691Y-78724364D01*
X49756686Y-78724364D01*
X49530002Y-78704532D01*
X49529998Y-78704532D01*
X49303313Y-78724364D01*
X49303302Y-78724366D01*
X49186593Y-78755638D01*
X49116743Y-78753975D01*
X49058881Y-78714812D01*
X49031377Y-78650583D01*
X49030500Y-78635863D01*
X49030500Y-78270452D01*
X49050185Y-78203413D01*
X49066819Y-78182771D01*
X53915224Y-73334366D01*
X58803788Y-68445801D01*
X58816042Y-68435986D01*
X58815859Y-68435764D01*
X58821868Y-68430791D01*
X58821877Y-68430786D01*
X58867949Y-68381722D01*
X58870566Y-68379023D01*
X58890120Y-68359471D01*
X58892576Y-68356303D01*
X58900156Y-68347427D01*
X58930062Y-68315582D01*
X58939715Y-68298020D01*
X58950389Y-68281770D01*
X58962673Y-68265936D01*
X58980019Y-68225850D01*
X58985157Y-68215362D01*
X59006196Y-68177093D01*
X59006197Y-68177092D01*
X59011177Y-68157691D01*
X59017478Y-68139288D01*
X59025438Y-68120896D01*
X59032272Y-68077741D01*
X59034635Y-68066331D01*
X59045500Y-68024019D01*
X59045500Y-68003983D01*
X59047027Y-67984582D01*
X59050160Y-67964804D01*
X59046050Y-67921324D01*
X59045500Y-67909655D01*
X59045500Y-66099048D01*
X59065185Y-66032009D01*
X59117989Y-65986254D01*
X59187147Y-65976310D01*
X59221905Y-65986667D01*
X59243504Y-65996739D01*
X59463308Y-66055635D01*
X59618722Y-66069232D01*
X59689998Y-66075468D01*
X59690000Y-66075468D01*
X59690002Y-66075468D01*
X59746673Y-66070509D01*
X59916692Y-66055635D01*
X60136496Y-65996739D01*
X60342734Y-65900568D01*
X60529139Y-65770047D01*
X60690047Y-65609139D01*
X60820568Y-65422734D01*
X60847618Y-65364724D01*
X60893790Y-65312285D01*
X60960983Y-65293133D01*
X61027865Y-65313348D01*
G37*
%TD.AperFunction*%
%TA.AperFunction,Conductor*%
G36*
X62790160Y-67733120D02*
G01*
X62847382Y-67773212D01*
X62873845Y-67837877D01*
X62874500Y-67850606D01*
X62874500Y-68904546D01*
X62854815Y-68971585D01*
X62838181Y-68992227D01*
X55496208Y-76334199D01*
X55483951Y-76344020D01*
X55484134Y-76344241D01*
X55478122Y-76349214D01*
X55432098Y-76398223D01*
X55429391Y-76401016D01*
X55409889Y-76420517D01*
X55409875Y-76420534D01*
X55407407Y-76423715D01*
X55399843Y-76432570D01*
X55369937Y-76464418D01*
X55369936Y-76464420D01*
X55360284Y-76481976D01*
X55349610Y-76498226D01*
X55337329Y-76514061D01*
X55337324Y-76514068D01*
X55319975Y-76554158D01*
X55314838Y-76564644D01*
X55293803Y-76602906D01*
X55288822Y-76622307D01*
X55282521Y-76640710D01*
X55274562Y-76659102D01*
X55274561Y-76659105D01*
X55267728Y-76702243D01*
X55265360Y-76713674D01*
X55254501Y-76755971D01*
X55254500Y-76755982D01*
X55254500Y-76776016D01*
X55252973Y-76795415D01*
X55249840Y-76815194D01*
X55249840Y-76815195D01*
X55253950Y-76858674D01*
X55254500Y-76870343D01*
X55254500Y-78680950D01*
X55234815Y-78747989D01*
X55182011Y-78793744D01*
X55112853Y-78803688D01*
X55078099Y-78793334D01*
X55056498Y-78783262D01*
X55056488Y-78783258D01*
X54836697Y-78724366D01*
X54836693Y-78724365D01*
X54836692Y-78724365D01*
X54836691Y-78724364D01*
X54836686Y-78724364D01*
X54610002Y-78704532D01*
X54609998Y-78704532D01*
X54383313Y-78724364D01*
X54383302Y-78724366D01*
X54163511Y-78783258D01*
X54163501Y-78783262D01*
X54141901Y-78793334D01*
X54072824Y-78803824D01*
X54009040Y-78775302D01*
X53970803Y-78716824D01*
X53965500Y-78680950D01*
X53965500Y-76510451D01*
X53985185Y-76443412D01*
X54001814Y-76422775D01*
X62613786Y-67810802D01*
X62626048Y-67800980D01*
X62625865Y-67800759D01*
X62631871Y-67795789D01*
X62631877Y-67795786D01*
X62660107Y-67765722D01*
X62720347Y-67730328D01*
X62790160Y-67733120D01*
G37*
%TD.AperFunction*%
%TA.AperFunction,Conductor*%
G36*
X57008079Y-67677024D02*
G01*
X57012071Y-67678655D01*
X57013007Y-67678959D01*
X57013016Y-67678963D01*
X57198173Y-67718319D01*
X57198174Y-67718319D01*
X57387463Y-67718319D01*
X57387465Y-67718319D01*
X57453747Y-67704230D01*
X57523411Y-67709546D01*
X57579145Y-67751682D01*
X57603251Y-67817262D01*
X57588075Y-67885463D01*
X57567207Y-67913201D01*
X48021208Y-77459199D01*
X48008951Y-77469020D01*
X48009134Y-77469241D01*
X48003122Y-77474214D01*
X47957098Y-77523223D01*
X47954391Y-77526016D01*
X47934889Y-77545517D01*
X47934875Y-77545534D01*
X47932407Y-77548715D01*
X47924843Y-77557570D01*
X47894937Y-77589418D01*
X47894936Y-77589420D01*
X47885284Y-77606976D01*
X47874610Y-77623226D01*
X47862329Y-77639061D01*
X47862324Y-77639068D01*
X47844975Y-77679158D01*
X47839838Y-77689644D01*
X47818803Y-77727906D01*
X47813822Y-77747307D01*
X47807521Y-77765710D01*
X47799562Y-77784102D01*
X47799561Y-77784105D01*
X47792728Y-77827243D01*
X47790360Y-77838674D01*
X47779501Y-77880971D01*
X47779500Y-77880982D01*
X47779500Y-77901016D01*
X47777973Y-77920413D01*
X47774840Y-77940196D01*
X47775023Y-77942127D01*
X47778950Y-77983674D01*
X47779500Y-77995343D01*
X47779500Y-78585500D01*
X47759815Y-78652539D01*
X47707011Y-78698294D01*
X47655500Y-78709500D01*
X46469500Y-78709500D01*
X46402461Y-78689815D01*
X46356706Y-78637011D01*
X46345500Y-78585500D01*
X46345500Y-78288452D01*
X46365185Y-78221413D01*
X46381819Y-78200771D01*
X51616574Y-72966016D01*
X56877066Y-67705523D01*
X56938387Y-67672040D01*
X57008079Y-67677024D01*
G37*
%TD.AperFunction*%
%TA.AperFunction,Conductor*%
G36*
X56406506Y-65841869D02*
G01*
X56434295Y-65856476D01*
X56497264Y-65900567D01*
X56497266Y-65900568D01*
X56633945Y-65964302D01*
X56686383Y-66010474D01*
X56705535Y-66077668D01*
X56685319Y-66144549D01*
X56673688Y-66159657D01*
X56591208Y-66251259D01*
X56571943Y-66268605D01*
X56541110Y-66291006D01*
X56531349Y-66297418D01*
X56493761Y-66319647D01*
X56479589Y-66333819D01*
X56464804Y-66346447D01*
X56453592Y-66354594D01*
X56448593Y-66358226D01*
X56420752Y-66391878D01*
X56412892Y-66400515D01*
X45336208Y-77477199D01*
X45323951Y-77487020D01*
X45324134Y-77487241D01*
X45318123Y-77492214D01*
X45289890Y-77522278D01*
X45229649Y-77557671D01*
X45159835Y-77554877D01*
X45102614Y-77514782D01*
X45076155Y-77450116D01*
X45075500Y-77437392D01*
X45075500Y-77121724D01*
X45095185Y-77054685D01*
X45111814Y-77034048D01*
X56275493Y-65870368D01*
X56336814Y-65836885D01*
X56406506Y-65841869D01*
G37*
%TD.AperFunction*%
%TA.AperFunction,Conductor*%
G36*
X41907703Y-65128804D02*
G01*
X41945477Y-65187582D01*
X41946275Y-65190425D01*
X41953257Y-65216486D01*
X41953261Y-65216497D01*
X42049431Y-65422732D01*
X42049432Y-65422734D01*
X42179954Y-65609141D01*
X42340858Y-65770045D01*
X42378899Y-65796681D01*
X42527266Y-65900568D01*
X42542975Y-65907893D01*
X42595414Y-65954064D01*
X42614567Y-66021257D01*
X42594352Y-66088138D01*
X42542979Y-66132656D01*
X42527514Y-66139867D01*
X42527512Y-66139868D01*
X42454526Y-66190973D01*
X42454526Y-66190974D01*
X43135599Y-66872046D01*
X43054852Y-66884835D01*
X42941955Y-66942359D01*
X42852359Y-67031955D01*
X42794835Y-67144852D01*
X42782046Y-67225598D01*
X42100974Y-66544526D01*
X42100973Y-66544526D01*
X42049868Y-66617512D01*
X42049866Y-66617516D01*
X41953734Y-66823673D01*
X41953731Y-66823680D01*
X41946275Y-66851508D01*
X41909910Y-66911168D01*
X41847063Y-66941697D01*
X41777687Y-66933402D01*
X41723809Y-66888917D01*
X41702535Y-66822365D01*
X41702500Y-66819414D01*
X41702500Y-65222517D01*
X41722185Y-65155478D01*
X41774989Y-65109723D01*
X41844147Y-65099779D01*
X41907703Y-65128804D01*
G37*
%TD.AperFunction*%
%TA.AperFunction,Conductor*%
G36*
X80341578Y-59319185D02*
G01*
X80362220Y-59335819D01*
X84467923Y-63441522D01*
X84501408Y-63502845D01*
X84496424Y-63572537D01*
X84454552Y-63628470D01*
X84441657Y-63636207D01*
X84441956Y-63636724D01*
X84437264Y-63639432D01*
X84250858Y-63769954D01*
X84089954Y-63930858D01*
X83959432Y-64117265D01*
X83959431Y-64117267D01*
X83932382Y-64175275D01*
X83886209Y-64227714D01*
X83819016Y-64246866D01*
X83752135Y-64226650D01*
X83707618Y-64175275D01*
X83680568Y-64117267D01*
X83680567Y-64117265D01*
X83550045Y-63930858D01*
X83389141Y-63769954D01*
X83202734Y-63639432D01*
X83202732Y-63639431D01*
X82996497Y-63543261D01*
X82996488Y-63543258D01*
X82776697Y-63484366D01*
X82776693Y-63484365D01*
X82776692Y-63484365D01*
X82776691Y-63484364D01*
X82776686Y-63484364D01*
X82550002Y-63464532D01*
X82549998Y-63464532D01*
X82323313Y-63484364D01*
X82323302Y-63484366D01*
X82103511Y-63543258D01*
X82103502Y-63543261D01*
X81897267Y-63639431D01*
X81897265Y-63639432D01*
X81710858Y-63769954D01*
X81549954Y-63930858D01*
X81419432Y-64117265D01*
X81419431Y-64117267D01*
X81392382Y-64175275D01*
X81346209Y-64227714D01*
X81279016Y-64246866D01*
X81212135Y-64226650D01*
X81167618Y-64175275D01*
X81140568Y-64117267D01*
X81140567Y-64117265D01*
X81010045Y-63930858D01*
X80849141Y-63769954D01*
X80662734Y-63639432D01*
X80662732Y-63639431D01*
X80456497Y-63543261D01*
X80456488Y-63543258D01*
X80236697Y-63484366D01*
X80236693Y-63484365D01*
X80236692Y-63484365D01*
X80236691Y-63484364D01*
X80236686Y-63484364D01*
X80010002Y-63464532D01*
X80009998Y-63464532D01*
X79783313Y-63484364D01*
X79783302Y-63484366D01*
X79563511Y-63543258D01*
X79563502Y-63543261D01*
X79357267Y-63639431D01*
X79357265Y-63639432D01*
X79170858Y-63769954D01*
X79009954Y-63930858D01*
X78879432Y-64117265D01*
X78879431Y-64117267D01*
X78852382Y-64175275D01*
X78806209Y-64227714D01*
X78739016Y-64246866D01*
X78672135Y-64226650D01*
X78627618Y-64175275D01*
X78600568Y-64117267D01*
X78600567Y-64117265D01*
X78470045Y-63930858D01*
X78309141Y-63769954D01*
X78122734Y-63639432D01*
X78122732Y-63639431D01*
X77916497Y-63543261D01*
X77916488Y-63543258D01*
X77696697Y-63484366D01*
X77696693Y-63484365D01*
X77696692Y-63484365D01*
X77696691Y-63484364D01*
X77696686Y-63484364D01*
X77470002Y-63464532D01*
X77469998Y-63464532D01*
X77243313Y-63484364D01*
X77243302Y-63484366D01*
X77023511Y-63543258D01*
X77023502Y-63543261D01*
X76817267Y-63639431D01*
X76817265Y-63639432D01*
X76630858Y-63769954D01*
X76469954Y-63930858D01*
X76339432Y-64117265D01*
X76339431Y-64117267D01*
X76312382Y-64175275D01*
X76266209Y-64227714D01*
X76199016Y-64246866D01*
X76132135Y-64226650D01*
X76087618Y-64175275D01*
X76060568Y-64117267D01*
X76060567Y-64117265D01*
X75930045Y-63930858D01*
X75769141Y-63769954D01*
X75582734Y-63639432D01*
X75582732Y-63639431D01*
X75376497Y-63543261D01*
X75376488Y-63543258D01*
X75156697Y-63484366D01*
X75156693Y-63484365D01*
X75156692Y-63484365D01*
X75156691Y-63484364D01*
X75156686Y-63484364D01*
X74930002Y-63464532D01*
X74929998Y-63464532D01*
X74703313Y-63484364D01*
X74703302Y-63484366D01*
X74483511Y-63543258D01*
X74483502Y-63543261D01*
X74277267Y-63639431D01*
X74277265Y-63639432D01*
X74090858Y-63769954D01*
X73929954Y-63930858D01*
X73799432Y-64117265D01*
X73799431Y-64117267D01*
X73772382Y-64175275D01*
X73726209Y-64227714D01*
X73659016Y-64246866D01*
X73592135Y-64226650D01*
X73547618Y-64175275D01*
X73520568Y-64117267D01*
X73520567Y-64117265D01*
X73390045Y-63930858D01*
X73229141Y-63769954D01*
X73042734Y-63639432D01*
X73042732Y-63639431D01*
X72836497Y-63543261D01*
X72836488Y-63543258D01*
X72616697Y-63484366D01*
X72616693Y-63484365D01*
X72616692Y-63484365D01*
X72616691Y-63484364D01*
X72616686Y-63484364D01*
X72390002Y-63464532D01*
X72389998Y-63464532D01*
X72163313Y-63484364D01*
X72163302Y-63484366D01*
X71943511Y-63543258D01*
X71943501Y-63543262D01*
X71921901Y-63553334D01*
X71852824Y-63563824D01*
X71789040Y-63535302D01*
X71750803Y-63476824D01*
X71745500Y-63440950D01*
X71745500Y-61884671D01*
X71765185Y-61817632D01*
X71796615Y-61784353D01*
X71838744Y-61753743D01*
X71912871Y-61699888D01*
X72039533Y-61559216D01*
X72134179Y-61395284D01*
X72192674Y-61215256D01*
X72212460Y-61027000D01*
X72192674Y-60838744D01*
X72134179Y-60658716D01*
X72039533Y-60494784D01*
X71912871Y-60354112D01*
X71912870Y-60354111D01*
X71759734Y-60242851D01*
X71759729Y-60242848D01*
X71586807Y-60165857D01*
X71586802Y-60165855D01*
X71441001Y-60134865D01*
X71401646Y-60126500D01*
X71212354Y-60126500D01*
X71179897Y-60133398D01*
X71027197Y-60165855D01*
X71027192Y-60165857D01*
X70854270Y-60242848D01*
X70854265Y-60242851D01*
X70701129Y-60354111D01*
X70574466Y-60494785D01*
X70479821Y-60658715D01*
X70479818Y-60658722D01*
X70421327Y-60838740D01*
X70421326Y-60838744D01*
X70401540Y-61027000D01*
X70421326Y-61215256D01*
X70421327Y-61215259D01*
X70479821Y-61395286D01*
X70482463Y-61401219D01*
X70480594Y-61402050D01*
X70494500Y-61453934D01*
X70494500Y-62322867D01*
X70474815Y-62389906D01*
X70422011Y-62435661D01*
X70352853Y-62445605D01*
X70291460Y-62418411D01*
X70275945Y-62405576D01*
X70267304Y-62397713D01*
X69080803Y-61211212D01*
X69070980Y-61198950D01*
X69070759Y-61199134D01*
X69065786Y-61193122D01*
X69016776Y-61147099D01*
X69013977Y-61144386D01*
X68994477Y-61124885D01*
X68994471Y-61124880D01*
X68991286Y-61122409D01*
X68982434Y-61114848D01*
X68950582Y-61084938D01*
X68950580Y-61084936D01*
X68950577Y-61084935D01*
X68933029Y-61075288D01*
X68916763Y-61064604D01*
X68900932Y-61052324D01*
X68860849Y-61034978D01*
X68850363Y-61029841D01*
X68812094Y-61008803D01*
X68812092Y-61008802D01*
X68792693Y-61003822D01*
X68774281Y-60997518D01*
X68755898Y-60989562D01*
X68755892Y-60989560D01*
X68712760Y-60982729D01*
X68701322Y-60980361D01*
X68659020Y-60969500D01*
X68659019Y-60969500D01*
X68638984Y-60969500D01*
X68619586Y-60967973D01*
X68612162Y-60966797D01*
X68599805Y-60964840D01*
X68599804Y-60964840D01*
X68556325Y-60968950D01*
X68544656Y-60969500D01*
X60407743Y-60969500D01*
X60392122Y-60967775D01*
X60392096Y-60968061D01*
X60384334Y-60967327D01*
X60384333Y-60967327D01*
X60332688Y-60968950D01*
X60317127Y-60969439D01*
X60313232Y-60969500D01*
X60285647Y-60969500D01*
X60281661Y-60970003D01*
X60270033Y-60970918D01*
X60226373Y-60972290D01*
X60207129Y-60977881D01*
X60188079Y-60981825D01*
X60168211Y-60984334D01*
X60168210Y-60984334D01*
X60127599Y-61000413D01*
X60116554Y-61004194D01*
X60074614Y-61016379D01*
X60074610Y-61016381D01*
X60057366Y-61026579D01*
X60039905Y-61035133D01*
X60021274Y-61042510D01*
X60021262Y-61042517D01*
X59985933Y-61068185D01*
X59976173Y-61074596D01*
X59938580Y-61096829D01*
X59924414Y-61110995D01*
X59909624Y-61123627D01*
X59893414Y-61135404D01*
X59893411Y-61135407D01*
X59865573Y-61169058D01*
X59857711Y-61177697D01*
X58036208Y-62999199D01*
X58023951Y-63009020D01*
X58024134Y-63009241D01*
X58018122Y-63014214D01*
X57972098Y-63063223D01*
X57969391Y-63066016D01*
X57949889Y-63085517D01*
X57949875Y-63085534D01*
X57947407Y-63088715D01*
X57939843Y-63097570D01*
X57909937Y-63129418D01*
X57909936Y-63129420D01*
X57900284Y-63146976D01*
X57889610Y-63163226D01*
X57877329Y-63179061D01*
X57877324Y-63179068D01*
X57859975Y-63219158D01*
X57854838Y-63229644D01*
X57833803Y-63267906D01*
X57828822Y-63287307D01*
X57822521Y-63305710D01*
X57814562Y-63324102D01*
X57814561Y-63324105D01*
X57807728Y-63367243D01*
X57805360Y-63378674D01*
X57794501Y-63420971D01*
X57794500Y-63420982D01*
X57794500Y-63440950D01*
X57774815Y-63507989D01*
X57722011Y-63553744D01*
X57652853Y-63563688D01*
X57618099Y-63553334D01*
X57596498Y-63543262D01*
X57596488Y-63543258D01*
X57376697Y-63484366D01*
X57376693Y-63484365D01*
X57376692Y-63484365D01*
X57376691Y-63484364D01*
X57376686Y-63484364D01*
X57150002Y-63464532D01*
X57149998Y-63464532D01*
X56923313Y-63484364D01*
X56923302Y-63484366D01*
X56703511Y-63543258D01*
X56703502Y-63543261D01*
X56497267Y-63639431D01*
X56497265Y-63639432D01*
X56310858Y-63769954D01*
X56149954Y-63930858D01*
X56019432Y-64117265D01*
X56019431Y-64117267D01*
X55992382Y-64175275D01*
X55946209Y-64227714D01*
X55879016Y-64246866D01*
X55812135Y-64226650D01*
X55767618Y-64175275D01*
X55740568Y-64117267D01*
X55740567Y-64117265D01*
X55610045Y-63930858D01*
X55449141Y-63769954D01*
X55262734Y-63639432D01*
X55262732Y-63639431D01*
X55056497Y-63543261D01*
X55056488Y-63543258D01*
X54836697Y-63484366D01*
X54836693Y-63484365D01*
X54836692Y-63484365D01*
X54836691Y-63484364D01*
X54836686Y-63484364D01*
X54610002Y-63464532D01*
X54609998Y-63464532D01*
X54383313Y-63484364D01*
X54383302Y-63484366D01*
X54163511Y-63543258D01*
X54163502Y-63543261D01*
X53957267Y-63639431D01*
X53957265Y-63639432D01*
X53770858Y-63769954D01*
X53609954Y-63930858D01*
X53479432Y-64117265D01*
X53479431Y-64117267D01*
X53452382Y-64175275D01*
X53406209Y-64227714D01*
X53339016Y-64246866D01*
X53272135Y-64226650D01*
X53227618Y-64175275D01*
X53200568Y-64117267D01*
X53200567Y-64117265D01*
X53070045Y-63930858D01*
X52909141Y-63769954D01*
X52722734Y-63639432D01*
X52722732Y-63639431D01*
X52516497Y-63543261D01*
X52516488Y-63543258D01*
X52296697Y-63484366D01*
X52296693Y-63484365D01*
X52296692Y-63484365D01*
X52296691Y-63484364D01*
X52296686Y-63484364D01*
X52070002Y-63464532D01*
X52069998Y-63464532D01*
X51843313Y-63484364D01*
X51843302Y-63484366D01*
X51623511Y-63543258D01*
X51623502Y-63543261D01*
X51417267Y-63639431D01*
X51417265Y-63639432D01*
X51230858Y-63769954D01*
X51069954Y-63930858D01*
X50939432Y-64117265D01*
X50939431Y-64117267D01*
X50912382Y-64175275D01*
X50866209Y-64227714D01*
X50799016Y-64246866D01*
X50732135Y-64226650D01*
X50687618Y-64175275D01*
X50660568Y-64117267D01*
X50660567Y-64117265D01*
X50530045Y-63930858D01*
X50369140Y-63769953D01*
X50208377Y-63657386D01*
X50164752Y-63602809D01*
X50155500Y-63555811D01*
X50155500Y-62643725D01*
X50175185Y-62576686D01*
X50191819Y-62556044D01*
X53412044Y-59335819D01*
X53473367Y-59302334D01*
X53499725Y-59299500D01*
X80274539Y-59299500D01*
X80341578Y-59319185D01*
G37*
%TD.AperFunction*%
%TA.AperFunction,Conductor*%
G36*
X68336587Y-62240185D02*
G01*
X68357229Y-62256819D01*
X69188181Y-63087771D01*
X69221666Y-63149094D01*
X69224500Y-63175452D01*
X69224500Y-63555811D01*
X69204815Y-63622850D01*
X69171623Y-63657386D01*
X69010859Y-63769953D01*
X68849954Y-63930858D01*
X68719432Y-64117265D01*
X68719431Y-64117267D01*
X68692382Y-64175275D01*
X68646209Y-64227714D01*
X68579016Y-64246866D01*
X68512135Y-64226650D01*
X68467618Y-64175275D01*
X68440568Y-64117267D01*
X68440567Y-64117265D01*
X68310045Y-63930858D01*
X68149141Y-63769954D01*
X67962734Y-63639432D01*
X67962732Y-63639431D01*
X67756497Y-63543261D01*
X67756488Y-63543258D01*
X67536697Y-63484366D01*
X67536693Y-63484365D01*
X67536692Y-63484365D01*
X67536691Y-63484364D01*
X67536686Y-63484364D01*
X67310002Y-63464532D01*
X67309998Y-63464532D01*
X67083313Y-63484364D01*
X67083302Y-63484366D01*
X66863511Y-63543258D01*
X66863502Y-63543261D01*
X66657267Y-63639431D01*
X66657265Y-63639432D01*
X66470858Y-63769954D01*
X66309954Y-63930858D01*
X66179432Y-64117265D01*
X66179431Y-64117267D01*
X66152382Y-64175275D01*
X66106209Y-64227714D01*
X66039016Y-64246866D01*
X65972135Y-64226650D01*
X65927618Y-64175275D01*
X65900568Y-64117267D01*
X65900567Y-64117265D01*
X65770045Y-63930858D01*
X65609141Y-63769954D01*
X65422734Y-63639432D01*
X65422732Y-63639431D01*
X65216497Y-63543261D01*
X65216488Y-63543258D01*
X64996697Y-63484366D01*
X64996693Y-63484365D01*
X64996692Y-63484365D01*
X64996691Y-63484364D01*
X64996686Y-63484364D01*
X64770002Y-63464532D01*
X64769998Y-63464532D01*
X64543313Y-63484364D01*
X64543302Y-63484366D01*
X64323511Y-63543258D01*
X64323501Y-63543262D01*
X64300481Y-63553996D01*
X64231403Y-63564485D01*
X64167620Y-63535964D01*
X64129383Y-63477486D01*
X64125058Y-63457152D01*
X64124998Y-63456677D01*
X64124081Y-63445029D01*
X64123953Y-63440950D01*
X64122710Y-63401373D01*
X64117119Y-63382130D01*
X64113173Y-63363078D01*
X64110664Y-63343208D01*
X64094579Y-63302583D01*
X64090806Y-63291562D01*
X64078618Y-63249610D01*
X64078617Y-63249609D01*
X64078617Y-63249607D01*
X64078616Y-63249606D01*
X64068423Y-63232371D01*
X64059861Y-63214894D01*
X64052487Y-63196269D01*
X64039989Y-63179068D01*
X64026811Y-63160930D01*
X64020405Y-63151177D01*
X63998170Y-63113580D01*
X63998168Y-63113578D01*
X63998165Y-63113574D01*
X63984006Y-63099415D01*
X63971368Y-63084619D01*
X63959594Y-63068413D01*
X63955027Y-63064635D01*
X63925940Y-63040572D01*
X63917299Y-63032709D01*
X63365803Y-62481212D01*
X63355980Y-62468950D01*
X63355759Y-62469134D01*
X63350785Y-62463122D01*
X63320723Y-62434891D01*
X63285329Y-62374650D01*
X63288123Y-62304836D01*
X63328217Y-62247615D01*
X63392882Y-62221155D01*
X63405608Y-62220500D01*
X68269548Y-62220500D01*
X68336587Y-62240185D01*
G37*
%TD.AperFunction*%
%TD*%
M02*
