%TF.GenerationSoftware,KiCad,Pcbnew,7.0.10*%
%TF.CreationDate,2024-01-06T19:25:06+00:00*%
%TF.ProjectId,v1a,7631612e-6b69-4636-9164-5f7063625858,rev?*%
%TF.SameCoordinates,Original*%
%TF.FileFunction,Legend,Top*%
%TF.FilePolarity,Positive*%
%FSLAX46Y46*%
G04 Gerber Fmt 4.6, Leading zero omitted, Abs format (unit mm)*
G04 Created by KiCad (PCBNEW 7.0.10) date 2024-01-06 19:25:06*
%MOMM*%
%LPD*%
G01*
G04 APERTURE LIST*
%ADD10C,0.150000*%
%ADD11C,0.400000*%
%ADD12C,0.300000*%
%ADD13C,0.200000*%
%ADD14C,0.120000*%
G04 APERTURE END LIST*
D10*
X43093095Y-61687152D02*
X43474047Y-61687152D01*
X43235952Y-62353819D02*
X43235952Y-61496676D01*
X43235952Y-61496676D02*
X43283571Y-61401438D01*
X43283571Y-61401438D02*
X43378809Y-61353819D01*
X43378809Y-61353819D02*
X43474047Y-61353819D01*
X43950238Y-62353819D02*
X43855000Y-62306200D01*
X43855000Y-62306200D02*
X43807381Y-62258580D01*
X43807381Y-62258580D02*
X43759762Y-62163342D01*
X43759762Y-62163342D02*
X43759762Y-61877628D01*
X43759762Y-61877628D02*
X43807381Y-61782390D01*
X43807381Y-61782390D02*
X43855000Y-61734771D01*
X43855000Y-61734771D02*
X43950238Y-61687152D01*
X43950238Y-61687152D02*
X44093095Y-61687152D01*
X44093095Y-61687152D02*
X44188333Y-61734771D01*
X44188333Y-61734771D02*
X44235952Y-61782390D01*
X44235952Y-61782390D02*
X44283571Y-61877628D01*
X44283571Y-61877628D02*
X44283571Y-62163342D01*
X44283571Y-62163342D02*
X44235952Y-62258580D01*
X44235952Y-62258580D02*
X44188333Y-62306200D01*
X44188333Y-62306200D02*
X44093095Y-62353819D01*
X44093095Y-62353819D02*
X43950238Y-62353819D01*
X44712143Y-62353819D02*
X44712143Y-61687152D01*
X44712143Y-61877628D02*
X44759762Y-61782390D01*
X44759762Y-61782390D02*
X44807381Y-61734771D01*
X44807381Y-61734771D02*
X44902619Y-61687152D01*
X44902619Y-61687152D02*
X44997857Y-61687152D01*
X46093096Y-62353819D02*
X46093096Y-61353819D01*
X46664524Y-62353819D02*
X46235953Y-61782390D01*
X46664524Y-61353819D02*
X46093096Y-61925247D01*
X47093096Y-62353819D02*
X47093096Y-61353819D01*
X47426429Y-61353819D02*
X47997857Y-61353819D01*
X47712143Y-62353819D02*
X47712143Y-61353819D01*
X48188334Y-61353819D02*
X48759762Y-61353819D01*
X48474048Y-62353819D02*
X48474048Y-61353819D01*
X49283572Y-61877628D02*
X49283572Y-62353819D01*
X48950239Y-61353819D02*
X49283572Y-61877628D01*
X49283572Y-61877628D02*
X49616905Y-61353819D01*
D11*
X43006856Y-60345200D02*
X43292570Y-60440438D01*
X43292570Y-60440438D02*
X43768761Y-60440438D01*
X43768761Y-60440438D02*
X43959237Y-60345200D01*
X43959237Y-60345200D02*
X44054475Y-60249961D01*
X44054475Y-60249961D02*
X44149713Y-60059485D01*
X44149713Y-60059485D02*
X44149713Y-59869009D01*
X44149713Y-59869009D02*
X44054475Y-59678533D01*
X44054475Y-59678533D02*
X43959237Y-59583295D01*
X43959237Y-59583295D02*
X43768761Y-59488057D01*
X43768761Y-59488057D02*
X43387808Y-59392819D01*
X43387808Y-59392819D02*
X43197332Y-59297580D01*
X43197332Y-59297580D02*
X43102094Y-59202342D01*
X43102094Y-59202342D02*
X43006856Y-59011866D01*
X43006856Y-59011866D02*
X43006856Y-58821390D01*
X43006856Y-58821390D02*
X43102094Y-58630914D01*
X43102094Y-58630914D02*
X43197332Y-58535676D01*
X43197332Y-58535676D02*
X43387808Y-58440438D01*
X43387808Y-58440438D02*
X43863999Y-58440438D01*
X43863999Y-58440438D02*
X44149713Y-58535676D01*
X46149713Y-60440438D02*
X45483046Y-59488057D01*
X45006856Y-60440438D02*
X45006856Y-58440438D01*
X45006856Y-58440438D02*
X45768761Y-58440438D01*
X45768761Y-58440438D02*
X45959237Y-58535676D01*
X45959237Y-58535676D02*
X46054475Y-58630914D01*
X46054475Y-58630914D02*
X46149713Y-58821390D01*
X46149713Y-58821390D02*
X46149713Y-59107104D01*
X46149713Y-59107104D02*
X46054475Y-59297580D01*
X46054475Y-59297580D02*
X45959237Y-59392819D01*
X45959237Y-59392819D02*
X45768761Y-59488057D01*
X45768761Y-59488057D02*
X45006856Y-59488057D01*
X46911618Y-59869009D02*
X47863999Y-59869009D01*
X46721142Y-60440438D02*
X47387808Y-58440438D01*
X47387808Y-58440438D02*
X48054475Y-60440438D01*
X48721142Y-60440438D02*
X48721142Y-58440438D01*
X48721142Y-58440438D02*
X49387809Y-59869009D01*
X49387809Y-59869009D02*
X50054475Y-58440438D01*
X50054475Y-58440438D02*
X50054475Y-60440438D01*
X52530666Y-59392819D02*
X53197333Y-59392819D01*
X53483047Y-60440438D02*
X52530666Y-60440438D01*
X52530666Y-60440438D02*
X52530666Y-58440438D01*
X52530666Y-58440438D02*
X53483047Y-58440438D01*
X54149714Y-60440438D02*
X55197333Y-59107104D01*
X54149714Y-59107104D02*
X55197333Y-60440438D01*
X55959238Y-59107104D02*
X55959238Y-61107104D01*
X55959238Y-59202342D02*
X56149714Y-59107104D01*
X56149714Y-59107104D02*
X56530667Y-59107104D01*
X56530667Y-59107104D02*
X56721143Y-59202342D01*
X56721143Y-59202342D02*
X56816381Y-59297580D01*
X56816381Y-59297580D02*
X56911619Y-59488057D01*
X56911619Y-59488057D02*
X56911619Y-60059485D01*
X56911619Y-60059485D02*
X56816381Y-60249961D01*
X56816381Y-60249961D02*
X56721143Y-60345200D01*
X56721143Y-60345200D02*
X56530667Y-60440438D01*
X56530667Y-60440438D02*
X56149714Y-60440438D01*
X56149714Y-60440438D02*
X55959238Y-60345200D01*
X58625905Y-60440438D02*
X58625905Y-59392819D01*
X58625905Y-59392819D02*
X58530667Y-59202342D01*
X58530667Y-59202342D02*
X58340191Y-59107104D01*
X58340191Y-59107104D02*
X57959238Y-59107104D01*
X57959238Y-59107104D02*
X57768762Y-59202342D01*
X58625905Y-60345200D02*
X58435429Y-60440438D01*
X58435429Y-60440438D02*
X57959238Y-60440438D01*
X57959238Y-60440438D02*
X57768762Y-60345200D01*
X57768762Y-60345200D02*
X57673524Y-60154723D01*
X57673524Y-60154723D02*
X57673524Y-59964247D01*
X57673524Y-59964247D02*
X57768762Y-59773771D01*
X57768762Y-59773771D02*
X57959238Y-59678533D01*
X57959238Y-59678533D02*
X58435429Y-59678533D01*
X58435429Y-59678533D02*
X58625905Y-59583295D01*
X59578286Y-59107104D02*
X59578286Y-60440438D01*
X59578286Y-59297580D02*
X59673524Y-59202342D01*
X59673524Y-59202342D02*
X59864000Y-59107104D01*
X59864000Y-59107104D02*
X60149715Y-59107104D01*
X60149715Y-59107104D02*
X60340191Y-59202342D01*
X60340191Y-59202342D02*
X60435429Y-59392819D01*
X60435429Y-59392819D02*
X60435429Y-60440438D01*
X61292572Y-60345200D02*
X61483048Y-60440438D01*
X61483048Y-60440438D02*
X61864000Y-60440438D01*
X61864000Y-60440438D02*
X62054477Y-60345200D01*
X62054477Y-60345200D02*
X62149715Y-60154723D01*
X62149715Y-60154723D02*
X62149715Y-60059485D01*
X62149715Y-60059485D02*
X62054477Y-59869009D01*
X62054477Y-59869009D02*
X61864000Y-59773771D01*
X61864000Y-59773771D02*
X61578286Y-59773771D01*
X61578286Y-59773771D02*
X61387810Y-59678533D01*
X61387810Y-59678533D02*
X61292572Y-59488057D01*
X61292572Y-59488057D02*
X61292572Y-59392819D01*
X61292572Y-59392819D02*
X61387810Y-59202342D01*
X61387810Y-59202342D02*
X61578286Y-59107104D01*
X61578286Y-59107104D02*
X61864000Y-59107104D01*
X61864000Y-59107104D02*
X62054477Y-59202342D01*
X63006858Y-60440438D02*
X63006858Y-59107104D01*
X63006858Y-58440438D02*
X62911620Y-58535676D01*
X62911620Y-58535676D02*
X63006858Y-58630914D01*
X63006858Y-58630914D02*
X63102096Y-58535676D01*
X63102096Y-58535676D02*
X63006858Y-58440438D01*
X63006858Y-58440438D02*
X63006858Y-58630914D01*
X64244953Y-60440438D02*
X64054477Y-60345200D01*
X64054477Y-60345200D02*
X63959239Y-60249961D01*
X63959239Y-60249961D02*
X63864001Y-60059485D01*
X63864001Y-60059485D02*
X63864001Y-59488057D01*
X63864001Y-59488057D02*
X63959239Y-59297580D01*
X63959239Y-59297580D02*
X64054477Y-59202342D01*
X64054477Y-59202342D02*
X64244953Y-59107104D01*
X64244953Y-59107104D02*
X64530668Y-59107104D01*
X64530668Y-59107104D02*
X64721144Y-59202342D01*
X64721144Y-59202342D02*
X64816382Y-59297580D01*
X64816382Y-59297580D02*
X64911620Y-59488057D01*
X64911620Y-59488057D02*
X64911620Y-60059485D01*
X64911620Y-60059485D02*
X64816382Y-60249961D01*
X64816382Y-60249961D02*
X64721144Y-60345200D01*
X64721144Y-60345200D02*
X64530668Y-60440438D01*
X64530668Y-60440438D02*
X64244953Y-60440438D01*
X65768763Y-59107104D02*
X65768763Y-60440438D01*
X65768763Y-59297580D02*
X65864001Y-59202342D01*
X65864001Y-59202342D02*
X66054477Y-59107104D01*
X66054477Y-59107104D02*
X66340192Y-59107104D01*
X66340192Y-59107104D02*
X66530668Y-59202342D01*
X66530668Y-59202342D02*
X66625906Y-59392819D01*
X66625906Y-59392819D02*
X66625906Y-60440438D01*
D10*
X67413333Y-60163152D02*
X67651428Y-60829819D01*
X67651428Y-60829819D02*
X67889523Y-60163152D01*
X68794285Y-60829819D02*
X68222857Y-60829819D01*
X68508571Y-60829819D02*
X68508571Y-59829819D01*
X68508571Y-59829819D02*
X68413333Y-59972676D01*
X68413333Y-59972676D02*
X68318095Y-60067914D01*
X68318095Y-60067914D02*
X68222857Y-60115533D01*
X69651428Y-60829819D02*
X69651428Y-60306009D01*
X69651428Y-60306009D02*
X69603809Y-60210771D01*
X69603809Y-60210771D02*
X69508571Y-60163152D01*
X69508571Y-60163152D02*
X69318095Y-60163152D01*
X69318095Y-60163152D02*
X69222857Y-60210771D01*
X69651428Y-60782200D02*
X69556190Y-60829819D01*
X69556190Y-60829819D02*
X69318095Y-60829819D01*
X69318095Y-60829819D02*
X69222857Y-60782200D01*
X69222857Y-60782200D02*
X69175238Y-60686961D01*
X69175238Y-60686961D02*
X69175238Y-60591723D01*
X69175238Y-60591723D02*
X69222857Y-60496485D01*
X69222857Y-60496485D02*
X69318095Y-60448866D01*
X69318095Y-60448866D02*
X69556190Y-60448866D01*
X69556190Y-60448866D02*
X69651428Y-60401247D01*
X86862209Y-59873952D02*
X87243161Y-59873952D01*
X87005066Y-59540619D02*
X87005066Y-60397761D01*
X87005066Y-60397761D02*
X87052685Y-60493000D01*
X87052685Y-60493000D02*
X87147923Y-60540619D01*
X87147923Y-60540619D02*
X87243161Y-60540619D01*
X87576495Y-60540619D02*
X87576495Y-59540619D01*
X88005066Y-60540619D02*
X88005066Y-60016809D01*
X88005066Y-60016809D02*
X87957447Y-59921571D01*
X87957447Y-59921571D02*
X87862209Y-59873952D01*
X87862209Y-59873952D02*
X87719352Y-59873952D01*
X87719352Y-59873952D02*
X87624114Y-59921571D01*
X87624114Y-59921571D02*
X87576495Y-59969190D01*
X88481257Y-60540619D02*
X88481257Y-59873952D01*
X88481257Y-59540619D02*
X88433638Y-59588238D01*
X88433638Y-59588238D02*
X88481257Y-59635857D01*
X88481257Y-59635857D02*
X88528876Y-59588238D01*
X88528876Y-59588238D02*
X88481257Y-59540619D01*
X88481257Y-59540619D02*
X88481257Y-59635857D01*
X88909828Y-60493000D02*
X89005066Y-60540619D01*
X89005066Y-60540619D02*
X89195542Y-60540619D01*
X89195542Y-60540619D02*
X89290780Y-60493000D01*
X89290780Y-60493000D02*
X89338399Y-60397761D01*
X89338399Y-60397761D02*
X89338399Y-60350142D01*
X89338399Y-60350142D02*
X89290780Y-60254904D01*
X89290780Y-60254904D02*
X89195542Y-60207285D01*
X89195542Y-60207285D02*
X89052685Y-60207285D01*
X89052685Y-60207285D02*
X88957447Y-60159666D01*
X88957447Y-60159666D02*
X88909828Y-60064428D01*
X88909828Y-60064428D02*
X88909828Y-60016809D01*
X88909828Y-60016809D02*
X88957447Y-59921571D01*
X88957447Y-59921571D02*
X89052685Y-59873952D01*
X89052685Y-59873952D02*
X89195542Y-59873952D01*
X89195542Y-59873952D02*
X89290780Y-59921571D01*
X90481257Y-60493000D02*
X90576495Y-60540619D01*
X90576495Y-60540619D02*
X90766971Y-60540619D01*
X90766971Y-60540619D02*
X90862209Y-60493000D01*
X90862209Y-60493000D02*
X90909828Y-60397761D01*
X90909828Y-60397761D02*
X90909828Y-60350142D01*
X90909828Y-60350142D02*
X90862209Y-60254904D01*
X90862209Y-60254904D02*
X90766971Y-60207285D01*
X90766971Y-60207285D02*
X90624114Y-60207285D01*
X90624114Y-60207285D02*
X90528876Y-60159666D01*
X90528876Y-60159666D02*
X90481257Y-60064428D01*
X90481257Y-60064428D02*
X90481257Y-60016809D01*
X90481257Y-60016809D02*
X90528876Y-59921571D01*
X90528876Y-59921571D02*
X90624114Y-59873952D01*
X90624114Y-59873952D02*
X90766971Y-59873952D01*
X90766971Y-59873952D02*
X90862209Y-59921571D01*
X91338400Y-60540619D02*
X91338400Y-59873952D01*
X91338400Y-59540619D02*
X91290781Y-59588238D01*
X91290781Y-59588238D02*
X91338400Y-59635857D01*
X91338400Y-59635857D02*
X91386019Y-59588238D01*
X91386019Y-59588238D02*
X91338400Y-59540619D01*
X91338400Y-59540619D02*
X91338400Y-59635857D01*
X92243161Y-60540619D02*
X92243161Y-59540619D01*
X92243161Y-60493000D02*
X92147923Y-60540619D01*
X92147923Y-60540619D02*
X91957447Y-60540619D01*
X91957447Y-60540619D02*
X91862209Y-60493000D01*
X91862209Y-60493000D02*
X91814590Y-60445380D01*
X91814590Y-60445380D02*
X91766971Y-60350142D01*
X91766971Y-60350142D02*
X91766971Y-60064428D01*
X91766971Y-60064428D02*
X91814590Y-59969190D01*
X91814590Y-59969190D02*
X91862209Y-59921571D01*
X91862209Y-59921571D02*
X91957447Y-59873952D01*
X91957447Y-59873952D02*
X92147923Y-59873952D01*
X92147923Y-59873952D02*
X92243161Y-59921571D01*
X93100304Y-60493000D02*
X93005066Y-60540619D01*
X93005066Y-60540619D02*
X92814590Y-60540619D01*
X92814590Y-60540619D02*
X92719352Y-60493000D01*
X92719352Y-60493000D02*
X92671733Y-60397761D01*
X92671733Y-60397761D02*
X92671733Y-60016809D01*
X92671733Y-60016809D02*
X92719352Y-59921571D01*
X92719352Y-59921571D02*
X92814590Y-59873952D01*
X92814590Y-59873952D02*
X93005066Y-59873952D01*
X93005066Y-59873952D02*
X93100304Y-59921571D01*
X93100304Y-59921571D02*
X93147923Y-60016809D01*
X93147923Y-60016809D02*
X93147923Y-60112047D01*
X93147923Y-60112047D02*
X92671733Y-60207285D01*
X94766971Y-59873952D02*
X94766971Y-60540619D01*
X94338400Y-59873952D02*
X94338400Y-60397761D01*
X94338400Y-60397761D02*
X94386019Y-60493000D01*
X94386019Y-60493000D02*
X94481257Y-60540619D01*
X94481257Y-60540619D02*
X94624114Y-60540619D01*
X94624114Y-60540619D02*
X94719352Y-60493000D01*
X94719352Y-60493000D02*
X94766971Y-60445380D01*
X95243162Y-59873952D02*
X95243162Y-60873952D01*
X95243162Y-59921571D02*
X95338400Y-59873952D01*
X95338400Y-59873952D02*
X95528876Y-59873952D01*
X95528876Y-59873952D02*
X95624114Y-59921571D01*
X95624114Y-59921571D02*
X95671733Y-59969190D01*
X95671733Y-59969190D02*
X95719352Y-60064428D01*
X95719352Y-60064428D02*
X95719352Y-60350142D01*
X95719352Y-60350142D02*
X95671733Y-60445380D01*
X95671733Y-60445380D02*
X95624114Y-60493000D01*
X95624114Y-60493000D02*
X95528876Y-60540619D01*
X95528876Y-60540619D02*
X95338400Y-60540619D01*
X95338400Y-60540619D02*
X95243162Y-60493000D01*
X91338400Y-62150619D02*
X91338400Y-61388714D01*
X91147924Y-61579190D02*
X91338400Y-61388714D01*
X91338400Y-61388714D02*
X91528876Y-61579190D01*
D12*
G36*
X47984372Y-83643414D02*
G01*
X44898656Y-83643414D01*
X44898656Y-82993414D01*
X45112942Y-82993414D01*
X45121865Y-83026715D01*
X45128778Y-83060496D01*
X45200207Y-83203353D01*
X45216229Y-83221421D01*
X45228305Y-83242337D01*
X45299734Y-83313766D01*
X45320648Y-83325840D01*
X45338718Y-83341864D01*
X45481576Y-83413292D01*
X45515351Y-83420203D01*
X45548657Y-83429128D01*
X45834371Y-83429128D01*
X45867674Y-83420204D01*
X45901453Y-83413292D01*
X46044310Y-83341864D01*
X46062379Y-83325840D01*
X46083294Y-83313766D01*
X46117932Y-83279128D01*
X46612943Y-83279128D01*
X46633039Y-83354128D01*
X46687943Y-83409032D01*
X46762943Y-83429128D01*
X47191514Y-83429128D01*
X47620086Y-83429128D01*
X47695086Y-83409032D01*
X47749990Y-83354128D01*
X47770086Y-83279128D01*
X47749990Y-83204128D01*
X47695086Y-83149224D01*
X47620086Y-83129128D01*
X47341514Y-83129128D01*
X47341514Y-81779128D01*
X47332675Y-81746142D01*
X47325976Y-81712643D01*
X47322701Y-81708916D01*
X47321418Y-81704128D01*
X47297271Y-81679981D01*
X47274719Y-81654320D01*
X47270020Y-81652730D01*
X47266514Y-81649224D01*
X47233531Y-81640386D01*
X47201168Y-81629438D01*
X47196302Y-81630411D01*
X47191514Y-81629128D01*
X47158531Y-81637965D01*
X47125030Y-81644666D01*
X47121304Y-81647940D01*
X47116514Y-81649224D01*
X47092360Y-81673377D01*
X47066707Y-81695923D01*
X46932087Y-81897851D01*
X46816946Y-82012992D01*
X46695861Y-82073536D01*
X46637766Y-82125052D01*
X46613212Y-82198713D01*
X46628779Y-82274782D01*
X46680295Y-82332877D01*
X46753956Y-82357431D01*
X46830025Y-82341864D01*
X46972882Y-82270435D01*
X46990950Y-82254412D01*
X47011866Y-82242337D01*
X47041514Y-82212689D01*
X47041514Y-83129128D01*
X46762943Y-83129128D01*
X46687943Y-83149224D01*
X46633039Y-83204128D01*
X46612943Y-83279128D01*
X46117932Y-83279128D01*
X46154723Y-83242337D01*
X46166797Y-83221422D01*
X46182821Y-83203353D01*
X46254249Y-83060495D01*
X46261160Y-83026719D01*
X46270085Y-82993414D01*
X46270085Y-81779128D01*
X46249989Y-81704128D01*
X46195085Y-81649224D01*
X46120085Y-81629128D01*
X46045085Y-81649224D01*
X45990181Y-81704128D01*
X45970085Y-81779128D01*
X45970085Y-82958004D01*
X45925378Y-83047417D01*
X45888373Y-83084422D01*
X45798961Y-83129128D01*
X45584067Y-83129128D01*
X45494653Y-83084421D01*
X45457649Y-83047417D01*
X45412942Y-82958003D01*
X45412942Y-81779128D01*
X45392846Y-81704128D01*
X45337942Y-81649224D01*
X45262942Y-81629128D01*
X45187942Y-81649224D01*
X45133038Y-81704128D01*
X45112942Y-81779128D01*
X45112942Y-82993414D01*
X44898656Y-82993414D01*
X44898656Y-81414842D01*
X47984372Y-81414842D01*
X47984372Y-83643414D01*
G37*
D13*
X93116666Y-75779219D02*
X92735714Y-75779219D01*
X92735714Y-75779219D02*
X92697618Y-76255409D01*
X92697618Y-76255409D02*
X92735714Y-76207790D01*
X92735714Y-76207790D02*
X92811904Y-76160171D01*
X92811904Y-76160171D02*
X93002380Y-76160171D01*
X93002380Y-76160171D02*
X93078571Y-76207790D01*
X93078571Y-76207790D02*
X93116666Y-76255409D01*
X93116666Y-76255409D02*
X93154761Y-76350647D01*
X93154761Y-76350647D02*
X93154761Y-76588742D01*
X93154761Y-76588742D02*
X93116666Y-76683980D01*
X93116666Y-76683980D02*
X93078571Y-76731600D01*
X93078571Y-76731600D02*
X93002380Y-76779219D01*
X93002380Y-76779219D02*
X92811904Y-76779219D01*
X92811904Y-76779219D02*
X92735714Y-76731600D01*
X92735714Y-76731600D02*
X92697618Y-76683980D01*
X93916666Y-76779219D02*
X93459523Y-76779219D01*
X93688095Y-76779219D02*
X93688095Y-75779219D01*
X93688095Y-75779219D02*
X93611904Y-75922076D01*
X93611904Y-75922076D02*
X93535714Y-76017314D01*
X93535714Y-76017314D02*
X93459523Y-76064933D01*
X94221428Y-75874457D02*
X94259524Y-75826838D01*
X94259524Y-75826838D02*
X94335714Y-75779219D01*
X94335714Y-75779219D02*
X94526190Y-75779219D01*
X94526190Y-75779219D02*
X94602381Y-75826838D01*
X94602381Y-75826838D02*
X94640476Y-75874457D01*
X94640476Y-75874457D02*
X94678571Y-75969695D01*
X94678571Y-75969695D02*
X94678571Y-76064933D01*
X94678571Y-76064933D02*
X94640476Y-76207790D01*
X94640476Y-76207790D02*
X94183333Y-76779219D01*
X94183333Y-76779219D02*
X94678571Y-76779219D01*
X95592857Y-75731600D02*
X94907143Y-77017314D01*
X96278571Y-76779219D02*
X95821428Y-76779219D01*
X96050000Y-76779219D02*
X96050000Y-75779219D01*
X96050000Y-75779219D02*
X95973809Y-75922076D01*
X95973809Y-75922076D02*
X95897619Y-76017314D01*
X95897619Y-76017314D02*
X95821428Y-76064933D01*
X96583333Y-75874457D02*
X96621429Y-75826838D01*
X96621429Y-75826838D02*
X96697619Y-75779219D01*
X96697619Y-75779219D02*
X96888095Y-75779219D01*
X96888095Y-75779219D02*
X96964286Y-75826838D01*
X96964286Y-75826838D02*
X97002381Y-75874457D01*
X97002381Y-75874457D02*
X97040476Y-75969695D01*
X97040476Y-75969695D02*
X97040476Y-76064933D01*
X97040476Y-76064933D02*
X97002381Y-76207790D01*
X97002381Y-76207790D02*
X96545238Y-76779219D01*
X96545238Y-76779219D02*
X97040476Y-76779219D01*
X97497619Y-76207790D02*
X97421429Y-76160171D01*
X97421429Y-76160171D02*
X97383334Y-76112552D01*
X97383334Y-76112552D02*
X97345238Y-76017314D01*
X97345238Y-76017314D02*
X97345238Y-75969695D01*
X97345238Y-75969695D02*
X97383334Y-75874457D01*
X97383334Y-75874457D02*
X97421429Y-75826838D01*
X97421429Y-75826838D02*
X97497619Y-75779219D01*
X97497619Y-75779219D02*
X97650000Y-75779219D01*
X97650000Y-75779219D02*
X97726191Y-75826838D01*
X97726191Y-75826838D02*
X97764286Y-75874457D01*
X97764286Y-75874457D02*
X97802381Y-75969695D01*
X97802381Y-75969695D02*
X97802381Y-76017314D01*
X97802381Y-76017314D02*
X97764286Y-76112552D01*
X97764286Y-76112552D02*
X97726191Y-76160171D01*
X97726191Y-76160171D02*
X97650000Y-76207790D01*
X97650000Y-76207790D02*
X97497619Y-76207790D01*
X97497619Y-76207790D02*
X97421429Y-76255409D01*
X97421429Y-76255409D02*
X97383334Y-76303028D01*
X97383334Y-76303028D02*
X97345238Y-76398266D01*
X97345238Y-76398266D02*
X97345238Y-76588742D01*
X97345238Y-76588742D02*
X97383334Y-76683980D01*
X97383334Y-76683980D02*
X97421429Y-76731600D01*
X97421429Y-76731600D02*
X97497619Y-76779219D01*
X97497619Y-76779219D02*
X97650000Y-76779219D01*
X97650000Y-76779219D02*
X97726191Y-76731600D01*
X97726191Y-76731600D02*
X97764286Y-76683980D01*
X97764286Y-76683980D02*
X97802381Y-76588742D01*
X97802381Y-76588742D02*
X97802381Y-76398266D01*
X97802381Y-76398266D02*
X97764286Y-76303028D01*
X97764286Y-76303028D02*
X97726191Y-76255409D01*
X97726191Y-76255409D02*
X97650000Y-76207790D01*
X93053113Y-65984219D02*
X92595970Y-65984219D01*
X92824542Y-65984219D02*
X92824542Y-64984219D01*
X92824542Y-64984219D02*
X92748351Y-65127076D01*
X92748351Y-65127076D02*
X92672161Y-65222314D01*
X92672161Y-65222314D02*
X92595970Y-65269933D01*
X93395971Y-65984219D02*
X93395971Y-64984219D01*
X93395971Y-64984219D02*
X93853114Y-65984219D01*
X93853114Y-65984219D02*
X93853114Y-64984219D01*
X94576923Y-65317552D02*
X94576923Y-65984219D01*
X94386447Y-64936600D02*
X94195970Y-65650885D01*
X94195970Y-65650885D02*
X94691209Y-65650885D01*
X95415018Y-65984219D02*
X94957875Y-65984219D01*
X95186447Y-65984219D02*
X95186447Y-64984219D01*
X95186447Y-64984219D02*
X95110256Y-65127076D01*
X95110256Y-65127076D02*
X95034066Y-65222314D01*
X95034066Y-65222314D02*
X94957875Y-65269933D01*
X96100733Y-65317552D02*
X96100733Y-65984219D01*
X95910257Y-64936600D02*
X95719780Y-65650885D01*
X95719780Y-65650885D02*
X96215019Y-65650885D01*
X96634066Y-65412790D02*
X96557876Y-65365171D01*
X96557876Y-65365171D02*
X96519781Y-65317552D01*
X96519781Y-65317552D02*
X96481685Y-65222314D01*
X96481685Y-65222314D02*
X96481685Y-65174695D01*
X96481685Y-65174695D02*
X96519781Y-65079457D01*
X96519781Y-65079457D02*
X96557876Y-65031838D01*
X96557876Y-65031838D02*
X96634066Y-64984219D01*
X96634066Y-64984219D02*
X96786447Y-64984219D01*
X96786447Y-64984219D02*
X96862638Y-65031838D01*
X96862638Y-65031838D02*
X96900733Y-65079457D01*
X96900733Y-65079457D02*
X96938828Y-65174695D01*
X96938828Y-65174695D02*
X96938828Y-65222314D01*
X96938828Y-65222314D02*
X96900733Y-65317552D01*
X96900733Y-65317552D02*
X96862638Y-65365171D01*
X96862638Y-65365171D02*
X96786447Y-65412790D01*
X96786447Y-65412790D02*
X96634066Y-65412790D01*
X96634066Y-65412790D02*
X96557876Y-65460409D01*
X96557876Y-65460409D02*
X96519781Y-65508028D01*
X96519781Y-65508028D02*
X96481685Y-65603266D01*
X96481685Y-65603266D02*
X96481685Y-65793742D01*
X96481685Y-65793742D02*
X96519781Y-65888980D01*
X96519781Y-65888980D02*
X96557876Y-65936600D01*
X96557876Y-65936600D02*
X96634066Y-65984219D01*
X96634066Y-65984219D02*
X96786447Y-65984219D01*
X96786447Y-65984219D02*
X96862638Y-65936600D01*
X96862638Y-65936600D02*
X96900733Y-65888980D01*
X96900733Y-65888980D02*
X96938828Y-65793742D01*
X96938828Y-65793742D02*
X96938828Y-65603266D01*
X96938828Y-65603266D02*
X96900733Y-65508028D01*
X96900733Y-65508028D02*
X96862638Y-65460409D01*
X96862638Y-65460409D02*
X96786447Y-65412790D01*
X93432571Y-79017600D02*
X93527809Y-79065219D01*
X93527809Y-79065219D02*
X93718285Y-79065219D01*
X93718285Y-79065219D02*
X93813523Y-79017600D01*
X93813523Y-79017600D02*
X93861142Y-78922361D01*
X93861142Y-78922361D02*
X93861142Y-78874742D01*
X93861142Y-78874742D02*
X93813523Y-78779504D01*
X93813523Y-78779504D02*
X93718285Y-78731885D01*
X93718285Y-78731885D02*
X93575428Y-78731885D01*
X93575428Y-78731885D02*
X93480190Y-78684266D01*
X93480190Y-78684266D02*
X93432571Y-78589028D01*
X93432571Y-78589028D02*
X93432571Y-78541409D01*
X93432571Y-78541409D02*
X93480190Y-78446171D01*
X93480190Y-78446171D02*
X93575428Y-78398552D01*
X93575428Y-78398552D02*
X93718285Y-78398552D01*
X93718285Y-78398552D02*
X93813523Y-78446171D01*
X94432571Y-79065219D02*
X94337333Y-79017600D01*
X94337333Y-79017600D02*
X94289714Y-78922361D01*
X94289714Y-78922361D02*
X94289714Y-78065219D01*
X94956381Y-79065219D02*
X94861143Y-79017600D01*
X94861143Y-79017600D02*
X94813524Y-78969980D01*
X94813524Y-78969980D02*
X94765905Y-78874742D01*
X94765905Y-78874742D02*
X94765905Y-78589028D01*
X94765905Y-78589028D02*
X94813524Y-78493790D01*
X94813524Y-78493790D02*
X94861143Y-78446171D01*
X94861143Y-78446171D02*
X94956381Y-78398552D01*
X94956381Y-78398552D02*
X95099238Y-78398552D01*
X95099238Y-78398552D02*
X95194476Y-78446171D01*
X95194476Y-78446171D02*
X95242095Y-78493790D01*
X95242095Y-78493790D02*
X95289714Y-78589028D01*
X95289714Y-78589028D02*
X95289714Y-78874742D01*
X95289714Y-78874742D02*
X95242095Y-78969980D01*
X95242095Y-78969980D02*
X95194476Y-79017600D01*
X95194476Y-79017600D02*
X95099238Y-79065219D01*
X95099238Y-79065219D02*
X94956381Y-79065219D01*
X95575429Y-78398552D02*
X95956381Y-78398552D01*
X95718286Y-78065219D02*
X95718286Y-78922361D01*
X95718286Y-78922361D02*
X95765905Y-79017600D01*
X95765905Y-79017600D02*
X95861143Y-79065219D01*
X95861143Y-79065219D02*
X95956381Y-79065219D01*
X97575429Y-79065219D02*
X97004001Y-79065219D01*
X97289715Y-79065219D02*
X97289715Y-78065219D01*
X97289715Y-78065219D02*
X97194477Y-78208076D01*
X97194477Y-78208076D02*
X97099239Y-78303314D01*
X97099239Y-78303314D02*
X97004001Y-78350933D01*
X94494475Y-67381219D02*
X94037332Y-67381219D01*
X94265904Y-67381219D02*
X94265904Y-66381219D01*
X94265904Y-66381219D02*
X94189713Y-66524076D01*
X94189713Y-66524076D02*
X94113523Y-66619314D01*
X94113523Y-66619314D02*
X94037332Y-66666933D01*
X94989714Y-66381219D02*
X95065904Y-66381219D01*
X95065904Y-66381219D02*
X95142095Y-66428838D01*
X95142095Y-66428838D02*
X95180190Y-66476457D01*
X95180190Y-66476457D02*
X95218285Y-66571695D01*
X95218285Y-66571695D02*
X95256380Y-66762171D01*
X95256380Y-66762171D02*
X95256380Y-67000266D01*
X95256380Y-67000266D02*
X95218285Y-67190742D01*
X95218285Y-67190742D02*
X95180190Y-67285980D01*
X95180190Y-67285980D02*
X95142095Y-67333600D01*
X95142095Y-67333600D02*
X95065904Y-67381219D01*
X95065904Y-67381219D02*
X94989714Y-67381219D01*
X94989714Y-67381219D02*
X94913523Y-67333600D01*
X94913523Y-67333600D02*
X94875428Y-67285980D01*
X94875428Y-67285980D02*
X94837333Y-67190742D01*
X94837333Y-67190742D02*
X94799237Y-67000266D01*
X94799237Y-67000266D02*
X94799237Y-66762171D01*
X94799237Y-66762171D02*
X94837333Y-66571695D01*
X94837333Y-66571695D02*
X94875428Y-66476457D01*
X94875428Y-66476457D02*
X94913523Y-66428838D01*
X94913523Y-66428838D02*
X94989714Y-66381219D01*
X95599238Y-67381219D02*
X95599238Y-66381219D01*
X96056381Y-67381219D02*
X95713523Y-66809790D01*
X96056381Y-66381219D02*
X95599238Y-66952647D01*
X96361142Y-67381219D02*
X96551619Y-67381219D01*
X96551619Y-67381219D02*
X96551619Y-67190742D01*
X96551619Y-67190742D02*
X96475428Y-67143123D01*
X96475428Y-67143123D02*
X96399238Y-67047885D01*
X96399238Y-67047885D02*
X96361142Y-66905028D01*
X96361142Y-66905028D02*
X96361142Y-66666933D01*
X96361142Y-66666933D02*
X96399238Y-66524076D01*
X96399238Y-66524076D02*
X96475428Y-66428838D01*
X96475428Y-66428838D02*
X96589714Y-66381219D01*
X96589714Y-66381219D02*
X96742095Y-66381219D01*
X96742095Y-66381219D02*
X96856381Y-66428838D01*
X96856381Y-66428838D02*
X96932571Y-66524076D01*
X96932571Y-66524076D02*
X96970666Y-66666933D01*
X96970666Y-66666933D02*
X96970666Y-66905028D01*
X96970666Y-66905028D02*
X96932571Y-67047885D01*
X96932571Y-67047885D02*
X96856381Y-67143123D01*
X96856381Y-67143123D02*
X96780190Y-67190742D01*
X96780190Y-67190742D02*
X96780190Y-67381219D01*
X96780190Y-67381219D02*
X96970666Y-67381219D01*
D14*
%TO.C,D1*%
X89914600Y-73660000D02*
X90564600Y-73660000D01*
X90564600Y-72540000D02*
X90564600Y-74780000D01*
X90564600Y-74780000D02*
X94804600Y-74780000D01*
X91164600Y-72540000D02*
X91164600Y-74780000D01*
X91284600Y-72540000D02*
X91284600Y-74780000D01*
X91404600Y-72540000D02*
X91404600Y-74780000D01*
X94804600Y-72540000D02*
X90564600Y-72540000D01*
X94804600Y-74780000D02*
X94804600Y-72540000D01*
X95454600Y-73660000D02*
X94804600Y-73660000D01*
%TO.C,C1*%
X42260000Y-66649000D02*
X42260000Y-65391000D01*
X44100000Y-66649000D02*
X44100000Y-65391000D01*
%TO.C,U1*%
X87115000Y-81340000D02*
X87115000Y-63440000D01*
X44965000Y-81339000D02*
X87115000Y-81340000D01*
X87055000Y-78850000D02*
X87055000Y-65930000D01*
X45025000Y-78849000D02*
X87055000Y-78850000D01*
X45025000Y-73389000D02*
X45025000Y-78849000D01*
X87055000Y-65930000D02*
X45025000Y-65929000D01*
X45025000Y-65929000D02*
X45025000Y-71389000D01*
X87115000Y-63440000D02*
X44965000Y-63439000D01*
X44965000Y-63439000D02*
X44965000Y-81339000D01*
X45025000Y-73389000D02*
G75*
G03*
X45025000Y-71389000I0J1000000D01*
G01*
X45643000Y-78231000D02*
G75*
G03*
X45543000Y-78231000I-50000J0D01*
G01*
X45543000Y-78231000D02*
G75*
G03*
X45643000Y-78231000I50000J0D01*
G01*
X45718000Y-78231000D02*
G75*
G03*
X45468000Y-78231000I-125000J0D01*
G01*
X45468000Y-78231000D02*
G75*
G03*
X45718000Y-78231000I125000J0D01*
G01*
X45793000Y-78231000D02*
G75*
G03*
X45393000Y-78231000I-200000J0D01*
G01*
X45393000Y-78231000D02*
G75*
G03*
X45793000Y-78231000I200000J0D01*
G01*
%TO.C,JP1*%
X88150000Y-75200000D02*
X92250000Y-75200000D01*
X88150000Y-77200000D02*
X88150000Y-75200000D01*
X88600000Y-77700000D02*
X89200000Y-77700000D01*
X88900000Y-77400000D02*
X88600000Y-77700000D01*
X88900000Y-77400000D02*
X89200000Y-77700000D01*
X92250000Y-75200000D02*
X92250000Y-77200000D01*
X92250000Y-77200000D02*
X88150000Y-77200000D01*
%TO.C,D2*%
X89914600Y-71120000D02*
X90564600Y-71120000D01*
X90564600Y-70000000D02*
X90564600Y-72240000D01*
X90564600Y-72240000D02*
X94804600Y-72240000D01*
X91164600Y-70000000D02*
X91164600Y-72240000D01*
X91284600Y-70000000D02*
X91284600Y-72240000D01*
X91404600Y-70000000D02*
X91404600Y-72240000D01*
X94804600Y-70000000D02*
X90564600Y-70000000D01*
X94804600Y-72240000D02*
X94804600Y-70000000D01*
X95454600Y-71120000D02*
X94804600Y-71120000D01*
%TO.C,JP2*%
X88150000Y-77740000D02*
X92250000Y-77740000D01*
X88150000Y-79740000D02*
X88150000Y-77740000D01*
X88600000Y-80240000D02*
X89200000Y-80240000D01*
X88900000Y-79940000D02*
X88600000Y-80240000D01*
X88900000Y-79940000D02*
X89200000Y-80240000D01*
X92250000Y-77740000D02*
X92250000Y-79740000D01*
X92250000Y-79740000D02*
X88150000Y-79740000D01*
%TO.C,R1*%
X95580000Y-68580000D02*
X94630000Y-68580000D01*
X94630000Y-69500000D02*
X94630000Y-67660000D01*
X94630000Y-67660000D02*
X90790000Y-67660000D01*
X90790000Y-69500000D02*
X94630000Y-69500000D01*
X90790000Y-67660000D02*
X90790000Y-69500000D01*
X89840000Y-68580000D02*
X90790000Y-68580000D01*
%TD*%
M02*
