%TF.GenerationSoftware,KiCad,Pcbnew,7.0.10*%
%TF.CreationDate,2024-01-06T19:25:06+00:00*%
%TF.ProjectId,v1a,7631612e-6b69-4636-9164-5f7063625858,rev?*%
%TF.SameCoordinates,Original*%
%TF.FileFunction,Copper,L2,Bot*%
%TF.FilePolarity,Positive*%
%FSLAX46Y46*%
G04 Gerber Fmt 4.6, Leading zero omitted, Abs format (unit mm)*
G04 Created by KiCad (PCBNEW 7.0.10) date 2024-01-06 19:25:06*
%MOMM*%
%LPD*%
G01*
G04 APERTURE LIST*
G04 Aperture macros list*
%AMRoundRect*
0 Rectangle with rounded corners*
0 $1 Rounding radius*
0 $2 $3 $4 $5 $6 $7 $8 $9 X,Y pos of 4 corners*
0 Add a 4 corners polygon primitive as box body*
4,1,4,$2,$3,$4,$5,$6,$7,$8,$9,$2,$3,0*
0 Add four circle primitives for the rounded corners*
1,1,$1+$1,$2,$3*
1,1,$1+$1,$4,$5*
1,1,$1+$1,$6,$7*
1,1,$1+$1,$8,$9*
0 Add four rect primitives between the rounded corners*
20,1,$1+$1,$2,$3,$4,$5,0*
20,1,$1+$1,$4,$5,$6,$7,0*
20,1,$1+$1,$6,$7,$8,$9,0*
20,1,$1+$1,$8,$9,$2,$3,0*%
G04 Aperture macros list end*
%TA.AperFunction,ComponentPad*%
%ADD10R,1.600000X1.600000*%
%TD*%
%TA.AperFunction,ComponentPad*%
%ADD11O,1.600000X1.600000*%
%TD*%
%TA.AperFunction,ComponentPad*%
%ADD12C,1.600000*%
%TD*%
%TA.AperFunction,SMDPad,CuDef*%
%ADD13RoundRect,0.508000X-0.508000X-2.464500X0.508000X-2.464500X0.508000X2.464500X-0.508000X2.464500X0*%
%TD*%
%TA.AperFunction,SMDPad,CuDef*%
%ADD14RoundRect,0.508000X-0.508000X-2.468000X0.508000X-2.468000X0.508000X2.468000X-0.508000X2.468000X0*%
%TD*%
%TA.AperFunction,SMDPad,CuDef*%
%ADD15RoundRect,0.539750X-0.539750X-2.436250X0.539750X-2.436250X0.539750X2.436250X-0.539750X2.436250X0*%
%TD*%
%TA.AperFunction,ComponentPad*%
%ADD16C,1.400000*%
%TD*%
%TA.AperFunction,ComponentPad*%
%ADD17O,1.400000X1.400000*%
%TD*%
%TA.AperFunction,ViaPad*%
%ADD18C,0.800000*%
%TD*%
%TA.AperFunction,Conductor*%
%ADD19C,0.250000*%
%TD*%
%TA.AperFunction,Conductor*%
%ADD20C,0.500000*%
%TD*%
G04 APERTURE END LIST*
D10*
%TO.P,D1,1,K*%
%TO.N,Net-(D1-K)*%
X88874600Y-73660000D03*
D11*
%TO.P,D1,2,A*%
%TO.N,~{SEL}*%
X96494600Y-73660000D03*
%TD*%
D12*
%TO.P,C1,1*%
%TO.N,GND*%
X43180000Y-67270000D03*
%TO.P,C1,2*%
%TO.N,+5V*%
X43180000Y-64770000D03*
%TD*%
D10*
%TO.P,U1,1,A18*%
%TO.N,B3*%
X46990000Y-80010000D03*
D11*
%TO.P,U1,2,A16*%
%TO.N,B1*%
X49530000Y-80010000D03*
%TO.P,U1,3,A14*%
%TO.N,A14*%
X52070000Y-80010000D03*
%TO.P,U1,4,A12*%
%TO.N,A12*%
X54610000Y-80010000D03*
%TO.P,U1,5,A7*%
%TO.N,A7*%
X57150000Y-80010000D03*
%TO.P,U1,6,A6*%
%TO.N,A6*%
X59690000Y-80010000D03*
%TO.P,U1,7,A5*%
%TO.N,A5*%
X62230000Y-80010000D03*
%TO.P,U1,8,A4*%
%TO.N,A4*%
X64770000Y-80010000D03*
%TO.P,U1,9,A3*%
%TO.N,A3*%
X67310000Y-80010000D03*
%TO.P,U1,10,A2*%
%TO.N,A2*%
X69850000Y-80010000D03*
%TO.P,U1,11,A1*%
%TO.N,A1*%
X72390000Y-80010000D03*
%TO.P,U1,12,A0*%
%TO.N,A0*%
X74930000Y-80010000D03*
%TO.P,U1,13,DQ0*%
%TO.N,D0*%
X77470000Y-80010000D03*
%TO.P,U1,14,DQ1*%
%TO.N,D1*%
X80010000Y-80010000D03*
%TO.P,U1,15,DQ2*%
%TO.N,D2*%
X82550000Y-80010000D03*
%TO.P,U1,16,VSS*%
%TO.N,GND*%
X85090000Y-80010000D03*
%TO.P,U1,17,DQ3*%
%TO.N,D3*%
X85090000Y-64770000D03*
%TO.P,U1,18,DQ4*%
%TO.N,D4*%
X82550000Y-64770000D03*
%TO.P,U1,19,DQ5*%
%TO.N,D5*%
X80010000Y-64770000D03*
%TO.P,U1,20,DQ6*%
%TO.N,D6*%
X77470000Y-64770000D03*
%TO.P,U1,21,DQ7*%
%TO.N,D7*%
X74930000Y-64770000D03*
%TO.P,U1,22,CE#*%
%TO.N,Net-(D1-K)*%
X72390000Y-64770000D03*
%TO.P,U1,23,A10*%
%TO.N,A10*%
X69850000Y-64770000D03*
%TO.P,U1,24,OE#*%
%TO.N,+5V*%
X67310000Y-64770000D03*
%TO.P,U1,25,A11*%
%TO.N,A11*%
X64770000Y-64770000D03*
%TO.P,U1,26,A9*%
%TO.N,A9*%
X62230000Y-64770000D03*
%TO.P,U1,27,A8*%
%TO.N,A8*%
X59690000Y-64770000D03*
%TO.P,U1,28,A13*%
%TO.N,A13*%
X57150000Y-64770000D03*
%TO.P,U1,29,WE#*%
%TO.N,R{slash}~{W}*%
X54610000Y-64770000D03*
%TO.P,U1,30,A17*%
%TO.N,/Enable 128*%
X52070000Y-64770000D03*
%TO.P,U1,31,A15*%
%TO.N,B0*%
X49530000Y-64770000D03*
%TO.P,U1,32,VCC*%
%TO.N,+5V*%
X46990000Y-64770000D03*
%TD*%
D10*
%TO.P,D2,1,K*%
%TO.N,Net-(D1-K)*%
X88874600Y-71120000D03*
D11*
%TO.P,D2,2,A*%
%TO.N,~{CART}*%
X96494600Y-71120000D03*
%TD*%
D13*
%TO.P,J1,2,Pin_2*%
%TO.N,+5V*%
X43180000Y-91440000D03*
%TO.P,J1,4,Pin_4*%
%TO.N,D7*%
X45720000Y-91440000D03*
%TO.P,J1,6,Pin_6*%
%TO.N,D6*%
X48260000Y-91440000D03*
%TO.P,J1,8,Pin_8*%
%TO.N,D5*%
X50800000Y-91440000D03*
%TO.P,J1,10,Pin_10*%
%TO.N,D4*%
X53340000Y-91440000D03*
D14*
%TO.P,J1,12,Pin_12*%
%TO.N,D3*%
X55880000Y-91443500D03*
D13*
%TO.P,J1,14,Pin_14*%
%TO.N,D2*%
X58420000Y-91440000D03*
%TO.P,J1,16,Pin_16*%
%TO.N,D1*%
X60960000Y-91440000D03*
%TO.P,J1,18,Pin_18*%
%TO.N,D0*%
X63500000Y-91440000D03*
%TO.P,J1,20,Pin_20*%
%TO.N,B7*%
X66040000Y-91440000D03*
D15*
%TO.P,J1,22,Pin_22*%
%TO.N,B6*%
X68516500Y-91443500D03*
D13*
%TO.P,J1,24,Pin_24*%
%TO.N,B5*%
X71120000Y-91440000D03*
%TO.P,J1,26,Pin_26*%
%TO.N,B4*%
X73660000Y-91440000D03*
%TO.P,J1,28,Pin_28*%
%TO.N,B3*%
X76200000Y-91440000D03*
%TO.P,J1,30,Pin_30*%
%TO.N,B2*%
X78740000Y-91440000D03*
%TO.P,J1,32,Pin_32*%
%TO.N,B1*%
X81280000Y-91440000D03*
D14*
%TO.P,J1,34,Pin_34*%
%TO.N,B0*%
X83820000Y-91443500D03*
D13*
%TO.P,J1,36,Pin_36*%
%TO.N,3M*%
X86360000Y-91440000D03*
%TO.P,J1,38,Pin_38*%
%TO.N,~{R}{slash}W*%
X88900000Y-91440000D03*
%TO.P,J1,40,Pin_40*%
%TO.N,R{slash}~{W}*%
X91440000Y-91440000D03*
D14*
%TO.P,J1,42,Pin_42*%
%TO.N,Net-(J1-Pin_42)*%
X93980000Y-91443500D03*
D13*
%TO.P,J1,44,Pin_44*%
%TO.N,GND*%
X96520000Y-91440000D03*
%TD*%
D16*
%TO.P,R1,1*%
%TO.N,GND*%
X96520000Y-68580000D03*
D17*
%TO.P,R1,2*%
%TO.N,Net-(D1-K)*%
X88900000Y-68580000D03*
%TD*%
D18*
%TO.N,GND*%
X52324000Y-78486000D03*
X80010000Y-85090000D03*
X50800000Y-62738000D03*
X89662000Y-85090000D03*
X53340000Y-62738000D03*
X96266000Y-82296000D03*
X71374000Y-81534000D03*
X77978000Y-66802000D03*
X72898000Y-76962000D03*
X71628000Y-87122000D03*
X56896000Y-87630000D03*
X51968400Y-87579200D03*
X95250000Y-77724000D03*
X66040000Y-63246000D03*
X74295000Y-73025000D03*
X56642000Y-84836000D03*
X64262000Y-85852000D03*
X46990000Y-75438000D03*
X54864000Y-78232000D03*
X73406000Y-63500000D03*
X50404773Y-85991038D03*
X82804000Y-71374000D03*
X58420000Y-69342000D03*
X70231000Y-85852000D03*
X92710000Y-82296000D03*
X55118000Y-62230000D03*
X61468000Y-69342000D03*
X80518000Y-66802000D03*
X59944000Y-77978000D03*
X69850000Y-67056000D03*
X88900000Y-81280000D03*
X57658000Y-77724000D03*
X75946000Y-66294000D03*
X59436000Y-87630000D03*
X67310000Y-87884000D03*
X57912000Y-83566000D03*
X71628000Y-75692000D03*
X92456000Y-67564000D03*
X61976000Y-87630000D03*
X67259200Y-84988400D03*
X60452000Y-86106000D03*
X64770000Y-59690000D03*
X52984400Y-86156800D03*
X75438000Y-78486000D03*
X83312000Y-82550000D03*
X50038000Y-67056000D03*
X62484000Y-84074000D03*
X56642000Y-82296000D03*
X67919600Y-83210400D03*
X82296000Y-87376000D03*
X75565000Y-74295000D03*
X77470000Y-85090000D03*
X49530000Y-82804000D03*
X88900000Y-66802000D03*
X87122000Y-83312000D03*
X80010000Y-87630000D03*
X55372000Y-83566000D03*
X56083200Y-66395600D03*
X50800000Y-81026000D03*
X66548000Y-81534000D03*
X68580000Y-63246000D03*
X49225200Y-87426800D03*
X66040000Y-66294000D03*
X54305200Y-87731600D03*
X45212000Y-85852000D03*
X75565000Y-83312000D03*
X45085000Y-62865000D03*
X61264800Y-82804000D03*
X68834000Y-86995000D03*
X73914000Y-86868000D03*
X65532000Y-83210400D03*
X55626000Y-69342000D03*
X83312000Y-66548000D03*
X46609000Y-83997800D03*
X77470000Y-76200000D03*
%TO.N,+5V*%
X93980000Y-69850000D03*
X71307000Y-61027000D03*
%TO.N,A14*%
X46990000Y-87376000D03*
%TO.N,A12*%
X51244500Y-85280500D03*
%TO.N,A11*%
X57292819Y-66817819D03*
%TO.N,B6*%
X79375000Y-81915000D03*
%TO.N,B3*%
X76200000Y-86614000D03*
X66040000Y-70485000D03*
%TO.N,B2*%
X85090000Y-77470000D03*
%TO.N,B1*%
X72390000Y-69850000D03*
X81280000Y-82550000D03*
%TO.N,B0*%
X86995000Y-66040000D03*
%TO.N,Net-(J1-Pin_42)*%
X92710000Y-78740000D03*
%TO.N,/Enable 128*%
X66040000Y-67945000D03*
%TD*%
D19*
%TO.N,GND*%
X95250000Y-77724000D02*
X95250000Y-86614000D01*
X95250000Y-77724000D02*
X95250000Y-70485000D01*
X96520000Y-69215000D02*
X96520000Y-68225051D01*
X47752000Y-60198000D02*
X45085000Y-62865000D01*
X50800000Y-62738000D02*
X50800000Y-66294000D01*
X96520000Y-87884000D02*
X96520000Y-91440000D01*
X50800000Y-66294000D02*
X50038000Y-67056000D01*
X95250000Y-70485000D02*
X96520000Y-69215000D01*
X88492949Y-60198000D02*
X47752000Y-60198000D01*
X95250000Y-86614000D02*
X96520000Y-87884000D01*
X52984400Y-86563200D02*
X51968400Y-87579200D01*
X96520000Y-68225051D02*
X88492949Y-60198000D01*
X52984400Y-86156800D02*
X52984400Y-86563200D01*
D20*
%TO.N,+5V*%
X43180000Y-64770000D02*
X44450000Y-66040000D01*
X49601630Y-61027000D02*
X46990000Y-63638630D01*
X93980000Y-67310000D02*
X87697000Y-61027000D01*
X43180000Y-85090000D02*
X43180000Y-91440000D01*
X93980000Y-69850000D02*
X93980000Y-67310000D01*
X46990000Y-63638630D02*
X46990000Y-64770000D01*
X43180000Y-64770000D02*
X46990000Y-64770000D01*
X44450000Y-83820000D02*
X43180000Y-85090000D01*
X87697000Y-61027000D02*
X71307000Y-61027000D01*
X71307000Y-61027000D02*
X49601630Y-61027000D01*
X44450000Y-66040000D02*
X44450000Y-83820000D01*
D19*
%TO.N,D7*%
X45720000Y-91440000D02*
X45720000Y-86995000D01*
X69215000Y-71755000D02*
X74930000Y-66040000D01*
X74930000Y-66040000D02*
X74930000Y-64770000D01*
X55562500Y-71755000D02*
X69215000Y-71755000D01*
X45720000Y-86995000D02*
X48260000Y-84455000D01*
X48260000Y-79057500D02*
X55562500Y-71755000D01*
X48260000Y-84455000D02*
X48260000Y-79057500D01*
%TO.N,A14*%
X46990000Y-86995000D02*
X52070000Y-81915000D01*
X52070000Y-81915000D02*
X52070000Y-80010000D01*
X46990000Y-87376000D02*
X46990000Y-86995000D01*
%TO.N,D6*%
X48260000Y-86918800D02*
X53340000Y-81838800D01*
X53340000Y-78105000D02*
X57150000Y-74295000D01*
X57150000Y-74295000D02*
X69215000Y-74295000D01*
X77470000Y-66040000D02*
X77470000Y-64770000D01*
X48260000Y-91440000D02*
X48260000Y-86918800D01*
X53340000Y-81838800D02*
X53340000Y-78105000D01*
X69215000Y-74295000D02*
X77470000Y-66040000D01*
%TO.N,D5*%
X58420000Y-75565000D02*
X55880000Y-78105000D01*
X80010000Y-64770000D02*
X80010000Y-66040000D01*
X55880000Y-78105000D02*
X55880000Y-81891273D01*
X55880000Y-81891273D02*
X50737000Y-87034273D01*
X80010000Y-66040000D02*
X70485000Y-75565000D01*
X70485000Y-75565000D02*
X58420000Y-75565000D01*
X50737000Y-91377000D02*
X50800000Y-91440000D01*
X50737000Y-87034273D02*
X50737000Y-91377000D01*
%TO.N,A12*%
X51244500Y-85280500D02*
X54610000Y-81915000D01*
X54610000Y-81915000D02*
X54610000Y-80010000D01*
%TO.N,D4*%
X59690000Y-76835000D02*
X71755000Y-76835000D01*
X55817000Y-84494273D02*
X58420000Y-81891273D01*
X53340000Y-91440000D02*
X53277000Y-91377000D01*
X55817000Y-84594200D02*
X55817000Y-84494273D01*
X58420000Y-78105000D02*
X59690000Y-76835000D01*
X53277000Y-87134200D02*
X55817000Y-84594200D01*
X82550000Y-66040000D02*
X82550000Y-64770000D01*
X71755000Y-76835000D02*
X82550000Y-66040000D01*
X58420000Y-81891273D02*
X58420000Y-78105000D01*
X53277000Y-91377000D02*
X53277000Y-87134200D01*
%TO.N,A11*%
X57292819Y-66817819D02*
X57816638Y-66294000D01*
X63246000Y-66294000D02*
X64770000Y-64770000D01*
X57816638Y-66294000D02*
X63246000Y-66294000D01*
%TO.N,D3*%
X62230000Y-78105000D02*
X60960000Y-79375000D01*
X60960000Y-79375000D02*
X60960000Y-81915000D01*
X73025000Y-78105000D02*
X62230000Y-78105000D01*
X85090000Y-66040000D02*
X73025000Y-78105000D01*
X60960000Y-81915000D02*
X55880000Y-86995000D01*
X85090000Y-64770000D02*
X85090000Y-66040000D01*
X55880000Y-86995000D02*
X55880000Y-91443500D01*
%TO.N,D2*%
X73660000Y-78740000D02*
X73660000Y-81915000D01*
X58420000Y-86971273D02*
X58420000Y-91440000D01*
X73216000Y-82359000D02*
X63032273Y-82359000D01*
X80010000Y-77470000D02*
X74930000Y-77470000D01*
X73660000Y-81915000D02*
X73216000Y-82359000D01*
X82550000Y-80010000D02*
X80010000Y-77470000D01*
X63032273Y-82359000D02*
X58420000Y-86971273D01*
X74930000Y-77470000D02*
X73660000Y-78740000D01*
%TO.N,D1*%
X63881000Y-84074000D02*
X60960000Y-86995000D01*
X60960000Y-86995000D02*
X60960000Y-91440000D01*
X76992005Y-78740000D02*
X76200000Y-79532005D01*
X76200000Y-79532005D02*
X76200000Y-81503995D01*
X79375000Y-78740000D02*
X76992005Y-78740000D01*
X76200000Y-81503995D02*
X73629995Y-84074000D01*
X73629995Y-84074000D02*
X63881000Y-84074000D01*
X80010000Y-79375000D02*
X79375000Y-78740000D01*
X80010000Y-80010000D02*
X80010000Y-79375000D01*
%TO.N,D0*%
X63500000Y-87884000D02*
X63500000Y-91440000D01*
X77470000Y-83183604D02*
X76129604Y-84524000D01*
X77470000Y-80010000D02*
X77470000Y-83183604D01*
X69146000Y-84524000D02*
X67818000Y-85852000D01*
X67818000Y-85852000D02*
X65532000Y-85852000D01*
X65532000Y-85852000D02*
X63500000Y-87884000D01*
X76129604Y-84524000D02*
X69146000Y-84524000D01*
%TO.N,B6*%
X68516500Y-89033000D02*
X72459500Y-85090000D01*
X76200000Y-85090000D02*
X79375000Y-81915000D01*
X72459500Y-85090000D02*
X76200000Y-85090000D01*
X68516500Y-91443500D02*
X68516500Y-89033000D01*
%TO.N,B3*%
X62870000Y-70485000D02*
X66040000Y-70485000D01*
X62870000Y-70485000D02*
X55465000Y-70485000D01*
X55465000Y-70485000D02*
X46990000Y-78960000D01*
X76200000Y-91440000D02*
X76200000Y-86614000D01*
X46990000Y-78960000D02*
X46990000Y-80010000D01*
%TO.N,B2*%
X83820000Y-78740000D02*
X83820000Y-80330991D01*
X85090000Y-77470000D02*
X83820000Y-78740000D01*
X83820000Y-80330991D02*
X82870991Y-81280000D01*
X78740000Y-83820000D02*
X78740000Y-91440000D01*
X82870991Y-81280000D02*
X81280000Y-81280000D01*
X81280000Y-81280000D02*
X78740000Y-83820000D01*
%TO.N,B1*%
X81280000Y-82550000D02*
X81280000Y-91440000D01*
X72390000Y-69850000D02*
X69215000Y-73025000D01*
X49530000Y-79248000D02*
X49530000Y-80010000D01*
X69215000Y-73025000D02*
X55753000Y-73025000D01*
X55753000Y-73025000D02*
X49530000Y-79248000D01*
%TO.N,B0*%
X87630000Y-66675000D02*
X87630000Y-81280000D01*
X87630000Y-81280000D02*
X83820000Y-85090000D01*
X83820000Y-85090000D02*
X83820000Y-91443500D01*
X86995000Y-66040000D02*
X87630000Y-66675000D01*
%TO.N,R{slash}~{W}*%
X91440000Y-91440000D02*
X91440000Y-67310000D01*
X86106000Y-61976000D02*
X57404000Y-61976000D01*
X91440000Y-67310000D02*
X86106000Y-61976000D01*
X57404000Y-61976000D02*
X54610000Y-64770000D01*
%TO.N,Net-(J1-Pin_42)*%
X93980000Y-91443500D02*
X93980000Y-80010000D01*
X93980000Y-80010000D02*
X92710000Y-78740000D01*
%TO.N,/Enable 128*%
X55245000Y-67945000D02*
X52070000Y-64770000D01*
X66040000Y-67945000D02*
X55245000Y-67945000D01*
%TD*%
%TA.AperFunction,Conductor*%
%TO.N,GND*%
G36*
X96208415Y-56942501D02*
G01*
X96218405Y-56942501D01*
X96261571Y-56942501D01*
X96270417Y-56942817D01*
X96503577Y-56959492D01*
X96521078Y-56962009D01*
X96745156Y-57010754D01*
X96762121Y-57015735D01*
X96976991Y-57095877D01*
X96993064Y-57103218D01*
X97194332Y-57213118D01*
X97194336Y-57213120D01*
X97209219Y-57222685D01*
X97392791Y-57360105D01*
X97406162Y-57371691D01*
X97568308Y-57533837D01*
X97579894Y-57547208D01*
X97717314Y-57730780D01*
X97726879Y-57745663D01*
X97836776Y-57946924D01*
X97844124Y-57963014D01*
X97850015Y-57978807D01*
X97924262Y-58177873D01*
X97929246Y-58194848D01*
X97977989Y-58418916D01*
X97980507Y-58436428D01*
X97997183Y-58669581D01*
X97997499Y-58678427D01*
X97997499Y-70762273D01*
X97977814Y-70829312D01*
X97925010Y-70875067D01*
X97855852Y-70885011D01*
X97792296Y-70855986D01*
X97754522Y-70797208D01*
X97753724Y-70794366D01*
X97721341Y-70673511D01*
X97721338Y-70673502D01*
X97651105Y-70522888D01*
X97625168Y-70467266D01*
X97505768Y-70296744D01*
X97494645Y-70280858D01*
X97333741Y-70119954D01*
X97147334Y-69989432D01*
X97147332Y-69989431D01*
X96982757Y-69912688D01*
X96930318Y-69866515D01*
X96911166Y-69799322D01*
X96931382Y-69732441D01*
X96984547Y-69687106D01*
X96990369Y-69684679D01*
X97057174Y-69658798D01*
X97057181Y-69658795D01*
X97173326Y-69586879D01*
X96520001Y-68933553D01*
X96520000Y-68933553D01*
X95866672Y-69586879D01*
X95866672Y-69586880D01*
X95982821Y-69658797D01*
X95982822Y-69658798D01*
X96021882Y-69673930D01*
X96077284Y-69716503D01*
X96100874Y-69782270D01*
X96085163Y-69850350D01*
X96035139Y-69899129D01*
X96029493Y-69901939D01*
X95841867Y-69989431D01*
X95841865Y-69989432D01*
X95655458Y-70119954D01*
X95494554Y-70280858D01*
X95364032Y-70467265D01*
X95364031Y-70467267D01*
X95267861Y-70673502D01*
X95267858Y-70673511D01*
X95208966Y-70893302D01*
X95208964Y-70893313D01*
X95189132Y-71119998D01*
X95189132Y-71120001D01*
X95208964Y-71346686D01*
X95208966Y-71346697D01*
X95267858Y-71566488D01*
X95267861Y-71566497D01*
X95364031Y-71772732D01*
X95364032Y-71772734D01*
X95494554Y-71959141D01*
X95655458Y-72120045D01*
X95655461Y-72120047D01*
X95841866Y-72250568D01*
X95899875Y-72277618D01*
X95952314Y-72323791D01*
X95971466Y-72390984D01*
X95951250Y-72457865D01*
X95899875Y-72502381D01*
X95899718Y-72502455D01*
X95841867Y-72529431D01*
X95841865Y-72529432D01*
X95655458Y-72659954D01*
X95494554Y-72820858D01*
X95364032Y-73007265D01*
X95364031Y-73007267D01*
X95267861Y-73213502D01*
X95267858Y-73213511D01*
X95208966Y-73433302D01*
X95208964Y-73433313D01*
X95189132Y-73659998D01*
X95189132Y-73660001D01*
X95208964Y-73886686D01*
X95208966Y-73886697D01*
X95267858Y-74106488D01*
X95267861Y-74106497D01*
X95364031Y-74312732D01*
X95364032Y-74312734D01*
X95494554Y-74499141D01*
X95655458Y-74660045D01*
X95655461Y-74660047D01*
X95841866Y-74790568D01*
X96048104Y-74886739D01*
X96267908Y-74945635D01*
X96429830Y-74959801D01*
X96494598Y-74965468D01*
X96494600Y-74965468D01*
X96494602Y-74965468D01*
X96551407Y-74960498D01*
X96721292Y-74945635D01*
X96941096Y-74886739D01*
X97147334Y-74790568D01*
X97333739Y-74660047D01*
X97494647Y-74499139D01*
X97625168Y-74312734D01*
X97721339Y-74106496D01*
X97753724Y-73985633D01*
X97790089Y-73925972D01*
X97852936Y-73895443D01*
X97922311Y-73903738D01*
X97976189Y-73948223D01*
X97997464Y-74014775D01*
X97997499Y-74017726D01*
X97997499Y-88221361D01*
X97977814Y-88288400D01*
X97925010Y-88334155D01*
X97855852Y-88344099D01*
X97792296Y-88315074D01*
X97777646Y-88300027D01*
X97744210Y-88259285D01*
X97590725Y-88133325D01*
X97590718Y-88133320D01*
X97415612Y-88039724D01*
X97225605Y-87982085D01*
X97225603Y-87982084D01*
X97077515Y-87967500D01*
X95962485Y-87967500D01*
X95814396Y-87982084D01*
X95814394Y-87982085D01*
X95624387Y-88039724D01*
X95449281Y-88133320D01*
X95449274Y-88133325D01*
X95329060Y-88231982D01*
X95264750Y-88259295D01*
X95195882Y-88247504D01*
X95171730Y-88231982D01*
X95051005Y-88132905D01*
X95050998Y-88132901D01*
X94875805Y-88039259D01*
X94693504Y-87983958D01*
X94635066Y-87945661D01*
X94606609Y-87881849D01*
X94605500Y-87865298D01*
X94605500Y-80092737D01*
X94607224Y-80077123D01*
X94606938Y-80077096D01*
X94607672Y-80069333D01*
X94605561Y-80002144D01*
X94605500Y-79998250D01*
X94605500Y-79970651D01*
X94605500Y-79970650D01*
X94604997Y-79966670D01*
X94604080Y-79955021D01*
X94602709Y-79911373D01*
X94597122Y-79892144D01*
X94593174Y-79873084D01*
X94590664Y-79853208D01*
X94574585Y-79812597D01*
X94570804Y-79801552D01*
X94558619Y-79759612D01*
X94548418Y-79742363D01*
X94539860Y-79724894D01*
X94532486Y-79706268D01*
X94532483Y-79706264D01*
X94532483Y-79706263D01*
X94506816Y-79670935D01*
X94500403Y-79661172D01*
X94480894Y-79628185D01*
X94478170Y-79623579D01*
X94478166Y-79623575D01*
X94478163Y-79623571D01*
X94464005Y-79609413D01*
X94451370Y-79594620D01*
X94439593Y-79578412D01*
X94405945Y-79550576D01*
X94397304Y-79542713D01*
X93648960Y-78794369D01*
X93615475Y-78733046D01*
X93613323Y-78719668D01*
X93595674Y-78551744D01*
X93537179Y-78371716D01*
X93442533Y-78207784D01*
X93315871Y-78067112D01*
X93315870Y-78067111D01*
X93162734Y-77955851D01*
X93162729Y-77955848D01*
X92989807Y-77878857D01*
X92989802Y-77878855D01*
X92844001Y-77847865D01*
X92804646Y-77839500D01*
X92615354Y-77839500D01*
X92582897Y-77846398D01*
X92430197Y-77878855D01*
X92430192Y-77878857D01*
X92257270Y-77955848D01*
X92251637Y-77959101D01*
X92250145Y-77956517D01*
X92196483Y-77975617D01*
X92128441Y-77959739D01*
X92079785Y-77909595D01*
X92065500Y-77851814D01*
X92065500Y-67392738D01*
X92067224Y-67377124D01*
X92066938Y-67377097D01*
X92067672Y-67369334D01*
X92067525Y-67364671D01*
X92065561Y-67302144D01*
X92065500Y-67298250D01*
X92065500Y-67270651D01*
X92065500Y-67270650D01*
X92064997Y-67266670D01*
X92064080Y-67255021D01*
X92062709Y-67211373D01*
X92057122Y-67192144D01*
X92053174Y-67173084D01*
X92051629Y-67160851D01*
X92050664Y-67153208D01*
X92034585Y-67112597D01*
X92030804Y-67101552D01*
X92018619Y-67059612D01*
X92008418Y-67042363D01*
X91999860Y-67024894D01*
X91992486Y-67006268D01*
X91992483Y-67006264D01*
X91992483Y-67006263D01*
X91966816Y-66970935D01*
X91960403Y-66961172D01*
X91938172Y-66923583D01*
X91938170Y-66923579D01*
X91938166Y-66923575D01*
X91938163Y-66923571D01*
X91924005Y-66909413D01*
X91911370Y-66894620D01*
X91899593Y-66878412D01*
X91865945Y-66850576D01*
X91857304Y-66842713D01*
X87003772Y-61989181D01*
X86970287Y-61927858D01*
X86975271Y-61858166D01*
X87017143Y-61802233D01*
X87082607Y-61777816D01*
X87091453Y-61777500D01*
X87334770Y-61777500D01*
X87401809Y-61797185D01*
X87422451Y-61813819D01*
X93193181Y-67584549D01*
X93226666Y-67645872D01*
X93229500Y-67672230D01*
X93229500Y-69315677D01*
X93212887Y-69377677D01*
X93152821Y-69481714D01*
X93095283Y-69658798D01*
X93094326Y-69661744D01*
X93074540Y-69850000D01*
X93094326Y-70038256D01*
X93094327Y-70038259D01*
X93152818Y-70218277D01*
X93152821Y-70218284D01*
X93247467Y-70382216D01*
X93374129Y-70522888D01*
X93527265Y-70634148D01*
X93527270Y-70634151D01*
X93700192Y-70711142D01*
X93700197Y-70711144D01*
X93885354Y-70750500D01*
X93885355Y-70750500D01*
X94074644Y-70750500D01*
X94074646Y-70750500D01*
X94259803Y-70711144D01*
X94432730Y-70634151D01*
X94585871Y-70522888D01*
X94712533Y-70382216D01*
X94807179Y-70218284D01*
X94865674Y-70038256D01*
X94885460Y-69850000D01*
X94865674Y-69661744D01*
X94807179Y-69481716D01*
X94780282Y-69435128D01*
X94747113Y-69377677D01*
X94730500Y-69315677D01*
X94730500Y-68580000D01*
X95314859Y-68580000D01*
X95335378Y-68801439D01*
X95396240Y-69015350D01*
X95495369Y-69214428D01*
X95511137Y-69235308D01*
X95511138Y-69235308D01*
X96137145Y-68609302D01*
X96166372Y-68609302D01*
X96195047Y-68722538D01*
X96258936Y-68820327D01*
X96351115Y-68892072D01*
X96461595Y-68930000D01*
X96549005Y-68930000D01*
X96635216Y-68915614D01*
X96737947Y-68860019D01*
X96817060Y-68774079D01*
X96863982Y-68667108D01*
X96871200Y-68580000D01*
X96873553Y-68580000D01*
X97528861Y-69235308D01*
X97544631Y-69214425D01*
X97544633Y-69214422D01*
X97643759Y-69015350D01*
X97704621Y-68801439D01*
X97725141Y-68580000D01*
X97725141Y-68579999D01*
X97704621Y-68358560D01*
X97643759Y-68144649D01*
X97544635Y-67945580D01*
X97544630Y-67945572D01*
X97528860Y-67924690D01*
X96873553Y-68579999D01*
X96873553Y-68580000D01*
X96871200Y-68580000D01*
X96873628Y-68550698D01*
X96844953Y-68437462D01*
X96781064Y-68339673D01*
X96688885Y-68267928D01*
X96578405Y-68230000D01*
X96490995Y-68230000D01*
X96404784Y-68244386D01*
X96302053Y-68299981D01*
X96222940Y-68385921D01*
X96176018Y-68492892D01*
X96166372Y-68609302D01*
X96137145Y-68609302D01*
X96166447Y-68580000D01*
X95511138Y-67924691D01*
X95511137Y-67924691D01*
X95495368Y-67945574D01*
X95396240Y-68144649D01*
X95335378Y-68358560D01*
X95314859Y-68579999D01*
X95314859Y-68580000D01*
X94730500Y-68580000D01*
X94730500Y-67573119D01*
X95866671Y-67573119D01*
X96520000Y-68226447D01*
X96520001Y-68226447D01*
X97173327Y-67573119D01*
X97057178Y-67501202D01*
X97057177Y-67501201D01*
X96849804Y-67420865D01*
X96631193Y-67380000D01*
X96408807Y-67380000D01*
X96190195Y-67420865D01*
X95982824Y-67501200D01*
X95982823Y-67501201D01*
X95866671Y-67573119D01*
X94730500Y-67573119D01*
X94730500Y-67373705D01*
X94731809Y-67355735D01*
X94732129Y-67353547D01*
X94735289Y-67331977D01*
X94734197Y-67319500D01*
X94730972Y-67282630D01*
X94730500Y-67271822D01*
X94730500Y-67266296D01*
X94730500Y-67266291D01*
X94726901Y-67235509D01*
X94726536Y-67231929D01*
X94719999Y-67157201D01*
X94718539Y-67150129D01*
X94718597Y-67150116D01*
X94716965Y-67142757D01*
X94716906Y-67142772D01*
X94715241Y-67135751D01*
X94715241Y-67135745D01*
X94689569Y-67065212D01*
X94688421Y-67061909D01*
X94664814Y-66990666D01*
X94664810Y-66990659D01*
X94661760Y-66984118D01*
X94661815Y-66984091D01*
X94658533Y-66977313D01*
X94658480Y-66977340D01*
X94655235Y-66970880D01*
X94614025Y-66908223D01*
X94612086Y-66905181D01*
X94599516Y-66884801D01*
X94572712Y-66841345D01*
X94572711Y-66841344D01*
X94572710Y-66841342D01*
X94568234Y-66835682D01*
X94568281Y-66835644D01*
X94563519Y-66829799D01*
X94563474Y-66829838D01*
X94558831Y-66824305D01*
X94504272Y-66772831D01*
X94501685Y-66770318D01*
X88272729Y-60541361D01*
X88260949Y-60527730D01*
X88246610Y-60508470D01*
X88208651Y-60476619D01*
X88200686Y-60469318D01*
X88196780Y-60465411D01*
X88172443Y-60446168D01*
X88169647Y-60443890D01*
X88112214Y-60395698D01*
X88106180Y-60391729D01*
X88106212Y-60391680D01*
X88099853Y-60387628D01*
X88099822Y-60387679D01*
X88093680Y-60383891D01*
X88093678Y-60383890D01*
X88093677Y-60383889D01*
X88025688Y-60352184D01*
X88022447Y-60350615D01*
X87958706Y-60318604D01*
X87955433Y-60316960D01*
X87955431Y-60316959D01*
X87955430Y-60316959D01*
X87948645Y-60314489D01*
X87948665Y-60314433D01*
X87941549Y-60311959D01*
X87941531Y-60312015D01*
X87934674Y-60309743D01*
X87861210Y-60294573D01*
X87857693Y-60293793D01*
X87784718Y-60276499D01*
X87777547Y-60275661D01*
X87777553Y-60275601D01*
X87770055Y-60274835D01*
X87770050Y-60274895D01*
X87762860Y-60274265D01*
X87687870Y-60276448D01*
X87684263Y-60276500D01*
X71846337Y-60276500D01*
X71779298Y-60256815D01*
X71773452Y-60252818D01*
X71759734Y-60242851D01*
X71759729Y-60242848D01*
X71586807Y-60165857D01*
X71586802Y-60165855D01*
X71441001Y-60134865D01*
X71401646Y-60126500D01*
X71212354Y-60126500D01*
X71179897Y-60133398D01*
X71027197Y-60165855D01*
X71027192Y-60165857D01*
X70854270Y-60242848D01*
X70854265Y-60242851D01*
X70840548Y-60252818D01*
X70774742Y-60276298D01*
X70767663Y-60276500D01*
X49665335Y-60276500D01*
X49647365Y-60275191D01*
X49623602Y-60271710D01*
X49578456Y-60275661D01*
X49574260Y-60276028D01*
X49563454Y-60276500D01*
X49557914Y-60276500D01*
X49527131Y-60280098D01*
X49523546Y-60280464D01*
X49448829Y-60287001D01*
X49441762Y-60288460D01*
X49441750Y-60288404D01*
X49434393Y-60290035D01*
X49434407Y-60290092D01*
X49427370Y-60291760D01*
X49356861Y-60317421D01*
X49353484Y-60318595D01*
X49314478Y-60331521D01*
X49282298Y-60342185D01*
X49275756Y-60345236D01*
X49275731Y-60345183D01*
X49268938Y-60348471D01*
X49268964Y-60348523D01*
X49262510Y-60351764D01*
X49199851Y-60392975D01*
X49196811Y-60394912D01*
X49132978Y-60434285D01*
X49127313Y-60438765D01*
X49127277Y-60438719D01*
X49121428Y-60443484D01*
X49121465Y-60443528D01*
X49115940Y-60448164D01*
X49115934Y-60448169D01*
X49115934Y-60448170D01*
X49092363Y-60473153D01*
X49064462Y-60502726D01*
X49061950Y-60505311D01*
X46504358Y-63062902D01*
X46490729Y-63074681D01*
X46471469Y-63089020D01*
X46439632Y-63126961D01*
X46432346Y-63134914D01*
X46428407Y-63138854D01*
X46409176Y-63163175D01*
X46406902Y-63165967D01*
X46358694Y-63223420D01*
X46354729Y-63229449D01*
X46354682Y-63229418D01*
X46350630Y-63235777D01*
X46350679Y-63235807D01*
X46346889Y-63241951D01*
X46315192Y-63309924D01*
X46313623Y-63313166D01*
X46279957Y-63380202D01*
X46277488Y-63386987D01*
X46277432Y-63386966D01*
X46274960Y-63394080D01*
X46275015Y-63394099D01*
X46272743Y-63400955D01*
X46257573Y-63474418D01*
X46256793Y-63477934D01*
X46239499Y-63550909D01*
X46238661Y-63558084D01*
X46238601Y-63558077D01*
X46237835Y-63565575D01*
X46237895Y-63565581D01*
X46237265Y-63572770D01*
X46239219Y-63639890D01*
X46221492Y-63707474D01*
X46186395Y-63745071D01*
X46150868Y-63769947D01*
X46150863Y-63769951D01*
X45989951Y-63930862D01*
X45964912Y-63966623D01*
X45910335Y-64010248D01*
X45863337Y-64019500D01*
X44306663Y-64019500D01*
X44239624Y-63999815D01*
X44205088Y-63966623D01*
X44180045Y-63930858D01*
X44019141Y-63769954D01*
X43832734Y-63639432D01*
X43832732Y-63639431D01*
X43626497Y-63543261D01*
X43626488Y-63543258D01*
X43406697Y-63484366D01*
X43406693Y-63484365D01*
X43406692Y-63484365D01*
X43406691Y-63484364D01*
X43406686Y-63484364D01*
X43180002Y-63464532D01*
X43179998Y-63464532D01*
X42953313Y-63484364D01*
X42953302Y-63484366D01*
X42733511Y-63543258D01*
X42733502Y-63543261D01*
X42527267Y-63639431D01*
X42527265Y-63639432D01*
X42340858Y-63769954D01*
X42179954Y-63930858D01*
X42049432Y-64117265D01*
X42049431Y-64117267D01*
X41953261Y-64323502D01*
X41953258Y-64323511D01*
X41946275Y-64349575D01*
X41909910Y-64409236D01*
X41847063Y-64439765D01*
X41777688Y-64431470D01*
X41723810Y-64386985D01*
X41702535Y-64320433D01*
X41702500Y-64317482D01*
X41702500Y-58678427D01*
X41702816Y-58669581D01*
X41704491Y-58646156D01*
X41719491Y-58436419D01*
X41722009Y-58418916D01*
X41770754Y-58194839D01*
X41775736Y-58177873D01*
X41855876Y-57963007D01*
X41863217Y-57946934D01*
X41973121Y-57745660D01*
X41982683Y-57730783D01*
X42120107Y-57547206D01*
X42131686Y-57533842D01*
X42293842Y-57371686D01*
X42307206Y-57360107D01*
X42490783Y-57222683D01*
X42505663Y-57213120D01*
X42706934Y-57103217D01*
X42723007Y-57095876D01*
X42937881Y-57015733D01*
X42954839Y-57010754D01*
X43178922Y-56962007D01*
X43196419Y-56959491D01*
X43429582Y-56942816D01*
X43438428Y-56942500D01*
X43481595Y-56942500D01*
X96208403Y-56942500D01*
X96208415Y-56942501D01*
G37*
%TD.AperFunction*%
%TA.AperFunction,Conductor*%
G36*
X42794835Y-67395148D02*
G01*
X42852359Y-67508045D01*
X42941955Y-67597641D01*
X43054852Y-67655165D01*
X43135597Y-67667953D01*
X42454526Y-68349025D01*
X42527513Y-68400132D01*
X42527521Y-68400136D01*
X42733668Y-68496264D01*
X42733682Y-68496269D01*
X42953389Y-68555139D01*
X42953400Y-68555141D01*
X43179998Y-68574966D01*
X43180002Y-68574966D01*
X43406599Y-68555141D01*
X43406606Y-68555140D01*
X43543406Y-68518484D01*
X43613256Y-68520147D01*
X43671118Y-68559309D01*
X43698623Y-68623537D01*
X43699500Y-68638259D01*
X43699500Y-83457769D01*
X43679815Y-83524808D01*
X43663181Y-83545450D01*
X42694358Y-84514272D01*
X42680729Y-84526051D01*
X42661469Y-84540390D01*
X42629632Y-84578331D01*
X42622346Y-84586284D01*
X42618407Y-84590224D01*
X42599176Y-84614545D01*
X42596902Y-84617337D01*
X42548694Y-84674790D01*
X42544729Y-84680819D01*
X42544682Y-84680788D01*
X42540630Y-84687147D01*
X42540679Y-84687177D01*
X42536889Y-84693321D01*
X42505192Y-84761294D01*
X42503623Y-84764536D01*
X42469957Y-84831572D01*
X42467488Y-84838357D01*
X42467432Y-84838336D01*
X42464960Y-84845450D01*
X42465015Y-84845469D01*
X42462743Y-84852325D01*
X42447573Y-84925788D01*
X42446793Y-84929304D01*
X42429499Y-85002279D01*
X42428661Y-85009454D01*
X42428601Y-85009447D01*
X42427835Y-85016945D01*
X42427895Y-85016951D01*
X42427265Y-85024140D01*
X42429448Y-85099128D01*
X42429500Y-85102735D01*
X42429500Y-87903216D01*
X42409815Y-87970255D01*
X42357011Y-88016010D01*
X42341497Y-88021876D01*
X42284193Y-88039259D01*
X42109001Y-88132901D01*
X42108994Y-88132905D01*
X41955431Y-88258931D01*
X41922353Y-88299238D01*
X41864607Y-88338572D01*
X41794763Y-88340443D01*
X41734994Y-88304255D01*
X41704279Y-88241499D01*
X41702500Y-88220573D01*
X41702500Y-67720585D01*
X41722185Y-67653546D01*
X41774989Y-67607791D01*
X41844147Y-67597847D01*
X41907703Y-67626872D01*
X41945477Y-67685650D01*
X41946275Y-67688492D01*
X41953730Y-67716317D01*
X41953735Y-67716331D01*
X42049863Y-67922478D01*
X42100974Y-67995472D01*
X42782046Y-67314400D01*
X42794835Y-67395148D01*
G37*
%TD.AperFunction*%
%TA.AperFunction,Conductor*%
G36*
X73727865Y-65313348D02*
G01*
X73772381Y-65364724D01*
X73773495Y-65367112D01*
X73799429Y-65422728D01*
X73799432Y-65422734D01*
X73929954Y-65609141D01*
X74090858Y-65770045D01*
X74101848Y-65777740D01*
X74145475Y-65832316D01*
X74152670Y-65901814D01*
X74121150Y-65964169D01*
X74118409Y-65966998D01*
X68992228Y-71093181D01*
X68930905Y-71126666D01*
X68904547Y-71129500D01*
X66922480Y-71129500D01*
X66855441Y-71109815D01*
X66809686Y-71057011D01*
X66799742Y-70987853D01*
X66815093Y-70943500D01*
X66844071Y-70893308D01*
X66867179Y-70853284D01*
X66925674Y-70673256D01*
X66945460Y-70485000D01*
X66925674Y-70296744D01*
X66867179Y-70116716D01*
X66772533Y-69952784D01*
X66645871Y-69812112D01*
X66645870Y-69812111D01*
X66492734Y-69700851D01*
X66492729Y-69700848D01*
X66319807Y-69623857D01*
X66319802Y-69623855D01*
X66160865Y-69590073D01*
X66134646Y-69584500D01*
X65945354Y-69584500D01*
X65919135Y-69590073D01*
X65760197Y-69623855D01*
X65760192Y-69623857D01*
X65587270Y-69700848D01*
X65587265Y-69700851D01*
X65434130Y-69812110D01*
X65434126Y-69812114D01*
X65428400Y-69818474D01*
X65368913Y-69855121D01*
X65336252Y-69859500D01*
X55547743Y-69859500D01*
X55532122Y-69857775D01*
X55532096Y-69858061D01*
X55524334Y-69857327D01*
X55524333Y-69857327D01*
X55462109Y-69859282D01*
X55457127Y-69859439D01*
X55453232Y-69859500D01*
X55425647Y-69859500D01*
X55421661Y-69860003D01*
X55410033Y-69860918D01*
X55366373Y-69862290D01*
X55347129Y-69867881D01*
X55328079Y-69871825D01*
X55308211Y-69874334D01*
X55308210Y-69874334D01*
X55267599Y-69890413D01*
X55256554Y-69894194D01*
X55214614Y-69906379D01*
X55214610Y-69906381D01*
X55197366Y-69916579D01*
X55179905Y-69925133D01*
X55161274Y-69932510D01*
X55161262Y-69932517D01*
X55125933Y-69958185D01*
X55116173Y-69964596D01*
X55078580Y-69986829D01*
X55064414Y-70000995D01*
X55049624Y-70013627D01*
X55033414Y-70025404D01*
X55033411Y-70025407D01*
X55005573Y-70059058D01*
X54997711Y-70067697D01*
X46606208Y-78459199D01*
X46593951Y-78469020D01*
X46594134Y-78469241D01*
X46588122Y-78474214D01*
X46542098Y-78523223D01*
X46539391Y-78526016D01*
X46519889Y-78545517D01*
X46519875Y-78545534D01*
X46517407Y-78548715D01*
X46509843Y-78557570D01*
X46479937Y-78589418D01*
X46479936Y-78589420D01*
X46470284Y-78606976D01*
X46459610Y-78623226D01*
X46447329Y-78639061D01*
X46443354Y-78645782D01*
X46441118Y-78644459D01*
X46404482Y-78688469D01*
X46337845Y-78709476D01*
X46335394Y-78709500D01*
X46142130Y-78709500D01*
X46142123Y-78709501D01*
X46082516Y-78715908D01*
X45947671Y-78766202D01*
X45947664Y-78766206D01*
X45832455Y-78852452D01*
X45832452Y-78852455D01*
X45746206Y-78967664D01*
X45746202Y-78967671D01*
X45695908Y-79102517D01*
X45689501Y-79162116D01*
X45689500Y-79162135D01*
X45689500Y-80857870D01*
X45689501Y-80857876D01*
X45695908Y-80917483D01*
X45746202Y-81052328D01*
X45746206Y-81052335D01*
X45832452Y-81167544D01*
X45832455Y-81167547D01*
X45947664Y-81253793D01*
X45947671Y-81253797D01*
X46082517Y-81304091D01*
X46082516Y-81304091D01*
X46089444Y-81304835D01*
X46142127Y-81310500D01*
X47510500Y-81310499D01*
X47577539Y-81330184D01*
X47623294Y-81382987D01*
X47634500Y-81434499D01*
X47634500Y-84144546D01*
X47614815Y-84211585D01*
X47598181Y-84232227D01*
X45336208Y-86494199D01*
X45323951Y-86504020D01*
X45324134Y-86504241D01*
X45318122Y-86509214D01*
X45272098Y-86558223D01*
X45269391Y-86561016D01*
X45249889Y-86580517D01*
X45249875Y-86580534D01*
X45247407Y-86583715D01*
X45239843Y-86592570D01*
X45209937Y-86624418D01*
X45209936Y-86624420D01*
X45200284Y-86641976D01*
X45189610Y-86658226D01*
X45177329Y-86674061D01*
X45177324Y-86674068D01*
X45159975Y-86714158D01*
X45154838Y-86724644D01*
X45133803Y-86762906D01*
X45128822Y-86782307D01*
X45122521Y-86800710D01*
X45114562Y-86819102D01*
X45114561Y-86819105D01*
X45107728Y-86862243D01*
X45105360Y-86873674D01*
X45094501Y-86915971D01*
X45094500Y-86915982D01*
X45094500Y-86936016D01*
X45092973Y-86955415D01*
X45089840Y-86975194D01*
X45089840Y-86975195D01*
X45093950Y-87018674D01*
X45094500Y-87030343D01*
X45094500Y-87865298D01*
X45074815Y-87932337D01*
X45022011Y-87978092D01*
X45006496Y-87983958D01*
X44824194Y-88039259D01*
X44649001Y-88132901D01*
X44648995Y-88132905D01*
X44528664Y-88231658D01*
X44464354Y-88258970D01*
X44395487Y-88247179D01*
X44371336Y-88231658D01*
X44251004Y-88132905D01*
X44250998Y-88132901D01*
X44075806Y-88039259D01*
X44018503Y-88021876D01*
X43960065Y-87983578D01*
X43931609Y-87919765D01*
X43930500Y-87903216D01*
X43930500Y-85452228D01*
X43950185Y-85385189D01*
X43966814Y-85364551D01*
X44935638Y-84395727D01*
X44949267Y-84383950D01*
X44968530Y-84369610D01*
X45000366Y-84331669D01*
X45007683Y-84323684D01*
X45008993Y-84322372D01*
X45011590Y-84319777D01*
X45030811Y-84295467D01*
X45033094Y-84292664D01*
X45034464Y-84291032D01*
X45081302Y-84235214D01*
X45081303Y-84235211D01*
X45085272Y-84229179D01*
X45085323Y-84229212D01*
X45089369Y-84222860D01*
X45089317Y-84222828D01*
X45093105Y-84216683D01*
X45093111Y-84216677D01*
X45124829Y-84148655D01*
X45126369Y-84145476D01*
X45160040Y-84078433D01*
X45160043Y-84078417D01*
X45162510Y-84071644D01*
X45162568Y-84071665D01*
X45165043Y-84064546D01*
X45164985Y-84064527D01*
X45167255Y-84057677D01*
X45167256Y-84057673D01*
X45182431Y-83984171D01*
X45183186Y-83980767D01*
X45200500Y-83907721D01*
X45200500Y-83907719D01*
X45200501Y-83907715D01*
X45201339Y-83900548D01*
X45201397Y-83900554D01*
X45202164Y-83893056D01*
X45202104Y-83893051D01*
X45202733Y-83885860D01*
X45200552Y-83810889D01*
X45200500Y-83807283D01*
X45200500Y-66103705D01*
X45201809Y-66085735D01*
X45202710Y-66079582D01*
X45205289Y-66061977D01*
X45205018Y-66058884D01*
X45200972Y-66012635D01*
X45200500Y-66001826D01*
X45200500Y-65996296D01*
X45200500Y-65996291D01*
X45196894Y-65965443D01*
X45196534Y-65961916D01*
X45195847Y-65954064D01*
X45191277Y-65901820D01*
X45189999Y-65887209D01*
X45188538Y-65880135D01*
X45188598Y-65880122D01*
X45186965Y-65872757D01*
X45186906Y-65872772D01*
X45185241Y-65865751D01*
X45185241Y-65865745D01*
X45159569Y-65795211D01*
X45158422Y-65791913D01*
X45134814Y-65720665D01*
X45134809Y-65720658D01*
X45131761Y-65714118D01*
X45131815Y-65714092D01*
X45128532Y-65707310D01*
X45128479Y-65707338D01*
X45124870Y-65700152D01*
X45124751Y-65699499D01*
X45124681Y-65699354D01*
X45122766Y-65694092D01*
X45123706Y-65693749D01*
X45112373Y-65631409D01*
X45139025Y-65566822D01*
X45196365Y-65526898D01*
X45235680Y-65520500D01*
X45863337Y-65520500D01*
X45930376Y-65540185D01*
X45964912Y-65573377D01*
X45989954Y-65609141D01*
X46150858Y-65770045D01*
X46181996Y-65791848D01*
X46337266Y-65900568D01*
X46543504Y-65996739D01*
X46763308Y-66055635D01*
X46920780Y-66069412D01*
X46989998Y-66075468D01*
X46990000Y-66075468D01*
X46990002Y-66075468D01*
X47046673Y-66070509D01*
X47216692Y-66055635D01*
X47436496Y-65996739D01*
X47642734Y-65900568D01*
X47829139Y-65770047D01*
X47990047Y-65609139D01*
X48120568Y-65422734D01*
X48147618Y-65364724D01*
X48193790Y-65312285D01*
X48260983Y-65293133D01*
X48327865Y-65313348D01*
X48372381Y-65364724D01*
X48373495Y-65367112D01*
X48399429Y-65422728D01*
X48399432Y-65422734D01*
X48529954Y-65609141D01*
X48690858Y-65770045D01*
X48721996Y-65791848D01*
X48877266Y-65900568D01*
X49083504Y-65996739D01*
X49303308Y-66055635D01*
X49460780Y-66069412D01*
X49529998Y-66075468D01*
X49530000Y-66075468D01*
X49530002Y-66075468D01*
X49586673Y-66070509D01*
X49756692Y-66055635D01*
X49976496Y-65996739D01*
X50182734Y-65900568D01*
X50369139Y-65770047D01*
X50530047Y-65609139D01*
X50660568Y-65422734D01*
X50687618Y-65364724D01*
X50733790Y-65312285D01*
X50800983Y-65293133D01*
X50867865Y-65313348D01*
X50912381Y-65364724D01*
X50913495Y-65367112D01*
X50939429Y-65422728D01*
X50939432Y-65422734D01*
X51069954Y-65609141D01*
X51230858Y-65770045D01*
X51261996Y-65791848D01*
X51417266Y-65900568D01*
X51623504Y-65996739D01*
X51843308Y-66055635D01*
X52000780Y-66069412D01*
X52069998Y-66075468D01*
X52070000Y-66075468D01*
X52070002Y-66075468D01*
X52126673Y-66070509D01*
X52296692Y-66055635D01*
X52365048Y-66037319D01*
X52434897Y-66038982D01*
X52484822Y-66069413D01*
X54744197Y-68328788D01*
X54754022Y-68341051D01*
X54754243Y-68340869D01*
X54759211Y-68346874D01*
X54759213Y-68346876D01*
X54759214Y-68346877D01*
X54771551Y-68358462D01*
X54808222Y-68392899D01*
X54811021Y-68395612D01*
X54830522Y-68415114D01*
X54830526Y-68415117D01*
X54830529Y-68415120D01*
X54833702Y-68417581D01*
X54842574Y-68425159D01*
X54874418Y-68455062D01*
X54891976Y-68464714D01*
X54908233Y-68475393D01*
X54924064Y-68487673D01*
X54953803Y-68500542D01*
X54964152Y-68505021D01*
X54974641Y-68510160D01*
X54989783Y-68518484D01*
X55012908Y-68531197D01*
X55025523Y-68534435D01*
X55032305Y-68536177D01*
X55050719Y-68542481D01*
X55069104Y-68550438D01*
X55112261Y-68557273D01*
X55123656Y-68559632D01*
X55165981Y-68570500D01*
X55186016Y-68570500D01*
X55205413Y-68572026D01*
X55225196Y-68575160D01*
X55268675Y-68571050D01*
X55280344Y-68570500D01*
X65336252Y-68570500D01*
X65403291Y-68590185D01*
X65428400Y-68611526D01*
X65434126Y-68617885D01*
X65434130Y-68617889D01*
X65587265Y-68729148D01*
X65587270Y-68729151D01*
X65760192Y-68806142D01*
X65760197Y-68806144D01*
X65945354Y-68845500D01*
X65945355Y-68845500D01*
X66134644Y-68845500D01*
X66134646Y-68845500D01*
X66319803Y-68806144D01*
X66492730Y-68729151D01*
X66645871Y-68617888D01*
X66772533Y-68477216D01*
X66867179Y-68313284D01*
X66925674Y-68133256D01*
X66945460Y-67945000D01*
X66925674Y-67756744D01*
X66867179Y-67576716D01*
X66772533Y-67412784D01*
X66645871Y-67272112D01*
X66645870Y-67272111D01*
X66492734Y-67160851D01*
X66492729Y-67160848D01*
X66319807Y-67083857D01*
X66319802Y-67083855D01*
X66174001Y-67052865D01*
X66134646Y-67044500D01*
X65945354Y-67044500D01*
X65912897Y-67051398D01*
X65760197Y-67083855D01*
X65760192Y-67083857D01*
X65587270Y-67160848D01*
X65587265Y-67160851D01*
X65434130Y-67272110D01*
X65434126Y-67272114D01*
X65428400Y-67278474D01*
X65368913Y-67315121D01*
X65336252Y-67319500D01*
X58247326Y-67319500D01*
X58180287Y-67299815D01*
X58134532Y-67247011D01*
X58124588Y-67177853D01*
X58129395Y-67157182D01*
X58153220Y-67083856D01*
X58178493Y-67006075D01*
X58178493Y-67006074D01*
X58178783Y-67005182D01*
X58218221Y-66947506D01*
X58282579Y-66920308D01*
X58296714Y-66919500D01*
X63163257Y-66919500D01*
X63178877Y-66921224D01*
X63178904Y-66920939D01*
X63186660Y-66921671D01*
X63186667Y-66921673D01*
X63253873Y-66919561D01*
X63257768Y-66919500D01*
X63285346Y-66919500D01*
X63285350Y-66919500D01*
X63289324Y-66918997D01*
X63300963Y-66918080D01*
X63344627Y-66916709D01*
X63363869Y-66911117D01*
X63382912Y-66907174D01*
X63402792Y-66904664D01*
X63443401Y-66888585D01*
X63454444Y-66884803D01*
X63496390Y-66872618D01*
X63513629Y-66862422D01*
X63531103Y-66853862D01*
X63549727Y-66846488D01*
X63549727Y-66846487D01*
X63549732Y-66846486D01*
X63585083Y-66820800D01*
X63594814Y-66814408D01*
X63632420Y-66792170D01*
X63646589Y-66777999D01*
X63661379Y-66765368D01*
X63677587Y-66753594D01*
X63705438Y-66719926D01*
X63713279Y-66711309D01*
X64355179Y-66069410D01*
X64416500Y-66035927D01*
X64474947Y-66037317D01*
X64543308Y-66055635D01*
X64700780Y-66069412D01*
X64769998Y-66075468D01*
X64770000Y-66075468D01*
X64770002Y-66075468D01*
X64826673Y-66070509D01*
X64996692Y-66055635D01*
X65216496Y-65996739D01*
X65422734Y-65900568D01*
X65609139Y-65770047D01*
X65770047Y-65609139D01*
X65900568Y-65422734D01*
X65927618Y-65364724D01*
X65973790Y-65312285D01*
X66040983Y-65293133D01*
X66107865Y-65313348D01*
X66152381Y-65364724D01*
X66153495Y-65367112D01*
X66179429Y-65422728D01*
X66179432Y-65422734D01*
X66309954Y-65609141D01*
X66470858Y-65770045D01*
X66501996Y-65791848D01*
X66657266Y-65900568D01*
X66863504Y-65996739D01*
X67083308Y-66055635D01*
X67240780Y-66069412D01*
X67309998Y-66075468D01*
X67310000Y-66075468D01*
X67310002Y-66075468D01*
X67366673Y-66070509D01*
X67536692Y-66055635D01*
X67756496Y-65996739D01*
X67962734Y-65900568D01*
X68149139Y-65770047D01*
X68310047Y-65609139D01*
X68440568Y-65422734D01*
X68467618Y-65364724D01*
X68513790Y-65312285D01*
X68580983Y-65293133D01*
X68647865Y-65313348D01*
X68692381Y-65364724D01*
X68693495Y-65367112D01*
X68719429Y-65422728D01*
X68719432Y-65422734D01*
X68849954Y-65609141D01*
X69010858Y-65770045D01*
X69041996Y-65791848D01*
X69197266Y-65900568D01*
X69403504Y-65996739D01*
X69623308Y-66055635D01*
X69780780Y-66069412D01*
X69849998Y-66075468D01*
X69850000Y-66075468D01*
X69850002Y-66075468D01*
X69906673Y-66070509D01*
X70076692Y-66055635D01*
X70296496Y-65996739D01*
X70502734Y-65900568D01*
X70689139Y-65770047D01*
X70850047Y-65609139D01*
X70980568Y-65422734D01*
X71007618Y-65364724D01*
X71053790Y-65312285D01*
X71120983Y-65293133D01*
X71187865Y-65313348D01*
X71232381Y-65364724D01*
X71233495Y-65367112D01*
X71259429Y-65422728D01*
X71259432Y-65422734D01*
X71389954Y-65609141D01*
X71550858Y-65770045D01*
X71581996Y-65791848D01*
X71737266Y-65900568D01*
X71943504Y-65996739D01*
X72163308Y-66055635D01*
X72320780Y-66069412D01*
X72389998Y-66075468D01*
X72390000Y-66075468D01*
X72390002Y-66075468D01*
X72446673Y-66070509D01*
X72616692Y-66055635D01*
X72836496Y-65996739D01*
X73042734Y-65900568D01*
X73229139Y-65770047D01*
X73390047Y-65609139D01*
X73520568Y-65422734D01*
X73547618Y-65364724D01*
X73593790Y-65312285D01*
X73660983Y-65293133D01*
X73727865Y-65313348D01*
G37*
%TD.AperFunction*%
%TA.AperFunction,Conductor*%
G36*
X50433073Y-85732830D02*
G01*
X50489006Y-85774702D01*
X50497125Y-85787011D01*
X50511963Y-85812711D01*
X50511965Y-85812714D01*
X50627576Y-85941112D01*
X50638629Y-85953388D01*
X50691839Y-85992047D01*
X50734504Y-86047377D01*
X50740483Y-86116991D01*
X50707877Y-86178785D01*
X50706634Y-86180046D01*
X50353208Y-86533472D01*
X50340951Y-86543293D01*
X50341134Y-86543514D01*
X50335122Y-86548487D01*
X50289098Y-86597496D01*
X50286391Y-86600289D01*
X50266889Y-86619790D01*
X50266875Y-86619807D01*
X50264407Y-86622988D01*
X50256843Y-86631843D01*
X50226937Y-86663691D01*
X50226936Y-86663693D01*
X50217284Y-86681249D01*
X50206610Y-86697499D01*
X50194329Y-86713334D01*
X50194324Y-86713341D01*
X50176975Y-86753431D01*
X50171838Y-86763917D01*
X50150803Y-86802179D01*
X50145822Y-86821580D01*
X50139521Y-86839983D01*
X50131562Y-86858375D01*
X50131561Y-86858378D01*
X50124728Y-86901516D01*
X50122360Y-86912947D01*
X50111501Y-86955244D01*
X50111500Y-86955255D01*
X50111500Y-86975289D01*
X50109973Y-86994688D01*
X50107093Y-87012874D01*
X50106840Y-87014469D01*
X50108341Y-87030343D01*
X50110950Y-87057947D01*
X50111500Y-87069616D01*
X50111500Y-87884409D01*
X50091815Y-87951448D01*
X50039011Y-87997203D01*
X50023496Y-88003069D01*
X49904194Y-88039259D01*
X49729001Y-88132901D01*
X49728995Y-88132905D01*
X49608664Y-88231658D01*
X49544354Y-88258970D01*
X49475487Y-88247179D01*
X49451336Y-88231658D01*
X49331004Y-88132905D01*
X49330998Y-88132901D01*
X49155805Y-88039259D01*
X48973504Y-87983958D01*
X48915066Y-87945661D01*
X48886609Y-87881849D01*
X48885500Y-87865298D01*
X48885500Y-87229252D01*
X48905185Y-87162213D01*
X48921819Y-87141571D01*
X49600728Y-86462662D01*
X50302060Y-85761329D01*
X50363381Y-85727846D01*
X50433073Y-85732830D01*
G37*
%TD.AperFunction*%
%TA.AperFunction,Conductor*%
G36*
X57750954Y-81244691D02*
G01*
X57789195Y-81303167D01*
X57794500Y-81339048D01*
X57794500Y-81580819D01*
X57774815Y-81647858D01*
X57758181Y-81668500D01*
X55433208Y-83993472D01*
X55420951Y-84003293D01*
X55421134Y-84003514D01*
X55415122Y-84008487D01*
X55369098Y-84057496D01*
X55366391Y-84060289D01*
X55346889Y-84079790D01*
X55346875Y-84079807D01*
X55344407Y-84082988D01*
X55336843Y-84091843D01*
X55306937Y-84123691D01*
X55306936Y-84123693D01*
X55297284Y-84141249D01*
X55286610Y-84157499D01*
X55274329Y-84173334D01*
X55274324Y-84173341D01*
X55256975Y-84213431D01*
X55251838Y-84223917D01*
X55230802Y-84262182D01*
X55230801Y-84262184D01*
X55227620Y-84274572D01*
X55195199Y-84331408D01*
X52893208Y-86633399D01*
X52880951Y-86643220D01*
X52881134Y-86643441D01*
X52875122Y-86648414D01*
X52829098Y-86697423D01*
X52826391Y-86700216D01*
X52806889Y-86719717D01*
X52806875Y-86719734D01*
X52804407Y-86722915D01*
X52796843Y-86731770D01*
X52766937Y-86763618D01*
X52766936Y-86763620D01*
X52757284Y-86781176D01*
X52746610Y-86797426D01*
X52734329Y-86813261D01*
X52734324Y-86813268D01*
X52716975Y-86853358D01*
X52711838Y-86863844D01*
X52690803Y-86902106D01*
X52685822Y-86921507D01*
X52679521Y-86939910D01*
X52671562Y-86958302D01*
X52671561Y-86958305D01*
X52664728Y-87001443D01*
X52662360Y-87012874D01*
X52651501Y-87055171D01*
X52651500Y-87055182D01*
X52651500Y-87075216D01*
X52649973Y-87094615D01*
X52646840Y-87114394D01*
X52646840Y-87114395D01*
X52650950Y-87157874D01*
X52651500Y-87169543D01*
X52651500Y-87884409D01*
X52631815Y-87951448D01*
X52579011Y-87997203D01*
X52563496Y-88003069D01*
X52444194Y-88039259D01*
X52269001Y-88132901D01*
X52268995Y-88132905D01*
X52148664Y-88231658D01*
X52084354Y-88258970D01*
X52015487Y-88247179D01*
X51991336Y-88231658D01*
X51871004Y-88132905D01*
X51870998Y-88132901D01*
X51695808Y-88039260D01*
X51505699Y-87981591D01*
X51474344Y-87978503D01*
X51409557Y-87952341D01*
X51369199Y-87895306D01*
X51362500Y-87855100D01*
X51362500Y-87344725D01*
X51382185Y-87277686D01*
X51398819Y-87257044D01*
X53829576Y-84826287D01*
X56263788Y-82392074D01*
X56276042Y-82382259D01*
X56275859Y-82382037D01*
X56281868Y-82377064D01*
X56281877Y-82377059D01*
X56327949Y-82327995D01*
X56330566Y-82325296D01*
X56350120Y-82305744D01*
X56352576Y-82302576D01*
X56360156Y-82293700D01*
X56390062Y-82261855D01*
X56399713Y-82244297D01*
X56410396Y-82228034D01*
X56422673Y-82212209D01*
X56440021Y-82172117D01*
X56445157Y-82161635D01*
X56466197Y-82123365D01*
X56471180Y-82103953D01*
X56477481Y-82085553D01*
X56485437Y-82067169D01*
X56492270Y-82024021D01*
X56494633Y-82012611D01*
X56505500Y-81970292D01*
X56505500Y-81950256D01*
X56507027Y-81930855D01*
X56510160Y-81911077D01*
X56506050Y-81867597D01*
X56505500Y-81855928D01*
X56505500Y-81339048D01*
X56525185Y-81272009D01*
X56577989Y-81226254D01*
X56647147Y-81216310D01*
X56681905Y-81226667D01*
X56703504Y-81236739D01*
X56703509Y-81236740D01*
X56703511Y-81236741D01*
X56723556Y-81242112D01*
X56923308Y-81295635D01*
X57085230Y-81309801D01*
X57149998Y-81315468D01*
X57150000Y-81315468D01*
X57150002Y-81315468D01*
X57206807Y-81310498D01*
X57376692Y-81295635D01*
X57596496Y-81236739D01*
X57618093Y-81226667D01*
X57687169Y-81216173D01*
X57750954Y-81244691D01*
G37*
%TD.AperFunction*%
%TA.AperFunction,Conductor*%
G36*
X60290954Y-81244691D02*
G01*
X60329195Y-81303167D01*
X60334500Y-81339048D01*
X60334500Y-81604546D01*
X60314815Y-81671585D01*
X60298181Y-81692227D01*
X55496208Y-86494199D01*
X55483951Y-86504020D01*
X55484134Y-86504241D01*
X55478122Y-86509214D01*
X55432098Y-86558223D01*
X55429391Y-86561016D01*
X55409889Y-86580517D01*
X55409875Y-86580534D01*
X55407407Y-86583715D01*
X55399843Y-86592570D01*
X55369937Y-86624418D01*
X55369936Y-86624420D01*
X55360284Y-86641976D01*
X55349610Y-86658226D01*
X55337329Y-86674061D01*
X55337324Y-86674068D01*
X55319975Y-86714158D01*
X55314838Y-86724644D01*
X55293803Y-86762906D01*
X55288822Y-86782307D01*
X55282521Y-86800710D01*
X55274562Y-86819102D01*
X55274561Y-86819105D01*
X55267728Y-86862243D01*
X55265360Y-86873674D01*
X55254501Y-86915971D01*
X55254500Y-86915982D01*
X55254500Y-86936016D01*
X55252973Y-86955415D01*
X55249840Y-86975194D01*
X55249840Y-86975195D01*
X55253950Y-87018674D01*
X55254500Y-87030343D01*
X55254500Y-87865298D01*
X55234815Y-87932337D01*
X55182011Y-87978092D01*
X55166496Y-87983958D01*
X54984194Y-88039259D01*
X54809001Y-88132901D01*
X54808995Y-88132905D01*
X54688664Y-88231658D01*
X54624354Y-88258970D01*
X54555487Y-88247179D01*
X54531336Y-88231658D01*
X54411004Y-88132905D01*
X54410998Y-88132901D01*
X54235808Y-88039260D01*
X54045699Y-87981591D01*
X54014344Y-87978503D01*
X53949557Y-87952341D01*
X53909199Y-87895306D01*
X53902500Y-87855100D01*
X53902500Y-87444652D01*
X53922185Y-87377613D01*
X53938819Y-87356971D01*
X55050075Y-86245715D01*
X56200788Y-85095001D01*
X56213042Y-85085186D01*
X56212859Y-85084964D01*
X56218868Y-85079991D01*
X56218877Y-85079986D01*
X56264949Y-85030922D01*
X56267566Y-85028223D01*
X56287120Y-85008671D01*
X56289576Y-85005503D01*
X56297156Y-84996627D01*
X56327062Y-84964782D01*
X56336713Y-84947224D01*
X56347396Y-84930961D01*
X56359673Y-84915136D01*
X56377021Y-84875044D01*
X56382151Y-84864571D01*
X56403197Y-84826292D01*
X56406378Y-84813903D01*
X56438799Y-84757062D01*
X58803788Y-82392074D01*
X58816042Y-82382259D01*
X58815859Y-82382037D01*
X58821868Y-82377064D01*
X58821877Y-82377059D01*
X58867949Y-82327995D01*
X58870566Y-82325296D01*
X58890120Y-82305744D01*
X58892576Y-82302576D01*
X58900156Y-82293700D01*
X58930062Y-82261855D01*
X58939715Y-82244293D01*
X58950389Y-82228043D01*
X58962673Y-82212209D01*
X58980019Y-82172123D01*
X58985157Y-82161635D01*
X58993153Y-82147092D01*
X59006197Y-82123365D01*
X59011178Y-82103962D01*
X59017478Y-82085561D01*
X59025438Y-82067169D01*
X59032272Y-82024014D01*
X59034637Y-82012600D01*
X59045500Y-81970292D01*
X59045500Y-81950256D01*
X59047027Y-81930855D01*
X59050160Y-81911077D01*
X59046050Y-81867597D01*
X59045500Y-81855928D01*
X59045500Y-81339048D01*
X59065185Y-81272009D01*
X59117989Y-81226254D01*
X59187147Y-81216310D01*
X59221905Y-81226667D01*
X59243504Y-81236739D01*
X59243509Y-81236740D01*
X59243511Y-81236741D01*
X59263556Y-81242112D01*
X59463308Y-81295635D01*
X59625230Y-81309801D01*
X59689998Y-81315468D01*
X59690000Y-81315468D01*
X59690002Y-81315468D01*
X59746807Y-81310498D01*
X59916692Y-81295635D01*
X60136496Y-81236739D01*
X60158093Y-81226667D01*
X60227169Y-81216173D01*
X60290954Y-81244691D01*
G37*
%TD.AperFunction*%
%TA.AperFunction,Conductor*%
G36*
X71187865Y-80553348D02*
G01*
X71232382Y-80604725D01*
X71259429Y-80662728D01*
X71259432Y-80662734D01*
X71389954Y-80849141D01*
X71550858Y-81010045D01*
X71550861Y-81010047D01*
X71737266Y-81140568D01*
X71943504Y-81236739D01*
X71943509Y-81236740D01*
X71943511Y-81236741D01*
X71963556Y-81242112D01*
X72163308Y-81295635D01*
X72325230Y-81309801D01*
X72389998Y-81315468D01*
X72390000Y-81315468D01*
X72390002Y-81315468D01*
X72446807Y-81310498D01*
X72616692Y-81295635D01*
X72836496Y-81236739D01*
X72858093Y-81226667D01*
X72927169Y-81216173D01*
X72990954Y-81244691D01*
X73029195Y-81303167D01*
X73034500Y-81339048D01*
X73034500Y-81604547D01*
X73014815Y-81671586D01*
X72998181Y-81692228D01*
X72993228Y-81697181D01*
X72931905Y-81730666D01*
X72905547Y-81733500D01*
X63115016Y-81733500D01*
X63099395Y-81731775D01*
X63099369Y-81732061D01*
X63091607Y-81731327D01*
X63091606Y-81731327D01*
X63029382Y-81733282D01*
X63024400Y-81733439D01*
X63020505Y-81733500D01*
X62992920Y-81733500D01*
X62988934Y-81734003D01*
X62977306Y-81734918D01*
X62933646Y-81736290D01*
X62914402Y-81741881D01*
X62895352Y-81745825D01*
X62875484Y-81748334D01*
X62875483Y-81748334D01*
X62834872Y-81764413D01*
X62823827Y-81768194D01*
X62781887Y-81780379D01*
X62781883Y-81780381D01*
X62764639Y-81790579D01*
X62747178Y-81799133D01*
X62728547Y-81806510D01*
X62728535Y-81806517D01*
X62693206Y-81832185D01*
X62683446Y-81838596D01*
X62645853Y-81860829D01*
X62631687Y-81874995D01*
X62616897Y-81887627D01*
X62600687Y-81899404D01*
X62600684Y-81899407D01*
X62572846Y-81933058D01*
X62564984Y-81941697D01*
X58036208Y-86470472D01*
X58023951Y-86480293D01*
X58024134Y-86480514D01*
X58018122Y-86485487D01*
X57972098Y-86534496D01*
X57969391Y-86537289D01*
X57949889Y-86556790D01*
X57949875Y-86556807D01*
X57947407Y-86559988D01*
X57939843Y-86568843D01*
X57909937Y-86600691D01*
X57909936Y-86600693D01*
X57900284Y-86618249D01*
X57889610Y-86634499D01*
X57877329Y-86650334D01*
X57877324Y-86650341D01*
X57859975Y-86690431D01*
X57854838Y-86700917D01*
X57833803Y-86739179D01*
X57828822Y-86758580D01*
X57822521Y-86776983D01*
X57814562Y-86795375D01*
X57814561Y-86795378D01*
X57807728Y-86838516D01*
X57805360Y-86849947D01*
X57794501Y-86892244D01*
X57794500Y-86892255D01*
X57794500Y-86912289D01*
X57792973Y-86931688D01*
X57789840Y-86951467D01*
X57789840Y-86951468D01*
X57793950Y-86994947D01*
X57794500Y-87006616D01*
X57794500Y-87865298D01*
X57774815Y-87932337D01*
X57722011Y-87978092D01*
X57706496Y-87983958D01*
X57524194Y-88039259D01*
X57349001Y-88132901D01*
X57348995Y-88132905D01*
X57228664Y-88231658D01*
X57164354Y-88258970D01*
X57095487Y-88247179D01*
X57071336Y-88231658D01*
X56951004Y-88132905D01*
X56950998Y-88132901D01*
X56775805Y-88039259D01*
X56593504Y-87983958D01*
X56535066Y-87945661D01*
X56506609Y-87881849D01*
X56505500Y-87865298D01*
X56505500Y-87305452D01*
X56525185Y-87238413D01*
X56541819Y-87217771D01*
X58939946Y-84819644D01*
X61343788Y-82415801D01*
X61356042Y-82405986D01*
X61355859Y-82405764D01*
X61361868Y-82400791D01*
X61361877Y-82400786D01*
X61407949Y-82351722D01*
X61410566Y-82349023D01*
X61430120Y-82329471D01*
X61432576Y-82326303D01*
X61440156Y-82317427D01*
X61470062Y-82285582D01*
X61479715Y-82268020D01*
X61490389Y-82251770D01*
X61502673Y-82235936D01*
X61520019Y-82195850D01*
X61525157Y-82185362D01*
X61527159Y-82181722D01*
X61546197Y-82147092D01*
X61551177Y-82127691D01*
X61557478Y-82109288D01*
X61565438Y-82090896D01*
X61572272Y-82047741D01*
X61574635Y-82036331D01*
X61585500Y-81994019D01*
X61585500Y-81973983D01*
X61587027Y-81954582D01*
X61590160Y-81934804D01*
X61586050Y-81891324D01*
X61585500Y-81879655D01*
X61585500Y-81339048D01*
X61605185Y-81272009D01*
X61657989Y-81226254D01*
X61727147Y-81216310D01*
X61761905Y-81226667D01*
X61783504Y-81236739D01*
X61783509Y-81236740D01*
X61783511Y-81236741D01*
X61803556Y-81242112D01*
X62003308Y-81295635D01*
X62165230Y-81309801D01*
X62229998Y-81315468D01*
X62230000Y-81315468D01*
X62230002Y-81315468D01*
X62286807Y-81310498D01*
X62456692Y-81295635D01*
X62676496Y-81236739D01*
X62882734Y-81140568D01*
X63069139Y-81010047D01*
X63230047Y-80849139D01*
X63360568Y-80662734D01*
X63387618Y-80604724D01*
X63433790Y-80552285D01*
X63500983Y-80533133D01*
X63567865Y-80553348D01*
X63612382Y-80604725D01*
X63639429Y-80662728D01*
X63639432Y-80662734D01*
X63769954Y-80849141D01*
X63930858Y-81010045D01*
X63930861Y-81010047D01*
X64117266Y-81140568D01*
X64323504Y-81236739D01*
X64323509Y-81236740D01*
X64323511Y-81236741D01*
X64343556Y-81242112D01*
X64543308Y-81295635D01*
X64705230Y-81309801D01*
X64769998Y-81315468D01*
X64770000Y-81315468D01*
X64770002Y-81315468D01*
X64826807Y-81310498D01*
X64996692Y-81295635D01*
X65216496Y-81236739D01*
X65422734Y-81140568D01*
X65609139Y-81010047D01*
X65770047Y-80849139D01*
X65900568Y-80662734D01*
X65927618Y-80604724D01*
X65973790Y-80552285D01*
X66040983Y-80533133D01*
X66107865Y-80553348D01*
X66152382Y-80604725D01*
X66179429Y-80662728D01*
X66179432Y-80662734D01*
X66309954Y-80849141D01*
X66470858Y-81010045D01*
X66470861Y-81010047D01*
X66657266Y-81140568D01*
X66863504Y-81236739D01*
X66863509Y-81236740D01*
X66863511Y-81236741D01*
X66883556Y-81242112D01*
X67083308Y-81295635D01*
X67245230Y-81309801D01*
X67309998Y-81315468D01*
X67310000Y-81315468D01*
X67310002Y-81315468D01*
X67366807Y-81310498D01*
X67536692Y-81295635D01*
X67756496Y-81236739D01*
X67962734Y-81140568D01*
X68149139Y-81010047D01*
X68310047Y-80849139D01*
X68440568Y-80662734D01*
X68467618Y-80604724D01*
X68513790Y-80552285D01*
X68580983Y-80533133D01*
X68647865Y-80553348D01*
X68692382Y-80604725D01*
X68719429Y-80662728D01*
X68719432Y-80662734D01*
X68849954Y-80849141D01*
X69010858Y-81010045D01*
X69010861Y-81010047D01*
X69197266Y-81140568D01*
X69403504Y-81236739D01*
X69403509Y-81236740D01*
X69403511Y-81236741D01*
X69423556Y-81242112D01*
X69623308Y-81295635D01*
X69785230Y-81309801D01*
X69849998Y-81315468D01*
X69850000Y-81315468D01*
X69850002Y-81315468D01*
X69906807Y-81310498D01*
X70076692Y-81295635D01*
X70296496Y-81236739D01*
X70502734Y-81140568D01*
X70689139Y-81010047D01*
X70850047Y-80849139D01*
X70980568Y-80662734D01*
X71007618Y-80604724D01*
X71053790Y-80552285D01*
X71120983Y-80533133D01*
X71187865Y-80553348D01*
G37*
%TD.AperFunction*%
%TA.AperFunction,Conductor*%
G36*
X74461905Y-81226667D02*
G01*
X74483504Y-81236739D01*
X74483509Y-81236740D01*
X74483511Y-81236741D01*
X74503556Y-81242112D01*
X74703308Y-81295635D01*
X74865230Y-81309801D01*
X74929998Y-81315468D01*
X74930000Y-81315468D01*
X74930002Y-81315468D01*
X74986807Y-81310498D01*
X75156692Y-81295635D01*
X75211124Y-81281050D01*
X75280972Y-81282713D01*
X75338835Y-81321875D01*
X75366339Y-81386104D01*
X75354753Y-81455006D01*
X75330897Y-81488506D01*
X73407223Y-83412181D01*
X73345900Y-83445666D01*
X73319542Y-83448500D01*
X63963743Y-83448500D01*
X63948122Y-83446775D01*
X63948096Y-83447061D01*
X63940334Y-83446327D01*
X63940333Y-83446327D01*
X63878109Y-83448282D01*
X63873127Y-83448439D01*
X63869232Y-83448500D01*
X63841647Y-83448500D01*
X63837661Y-83449003D01*
X63826033Y-83449918D01*
X63782373Y-83451290D01*
X63763129Y-83456881D01*
X63744079Y-83460825D01*
X63724211Y-83463334D01*
X63724210Y-83463334D01*
X63683599Y-83479413D01*
X63672554Y-83483194D01*
X63630614Y-83495379D01*
X63630610Y-83495381D01*
X63613366Y-83505579D01*
X63595905Y-83514133D01*
X63577274Y-83521510D01*
X63577262Y-83521517D01*
X63541933Y-83547185D01*
X63532173Y-83553596D01*
X63494580Y-83575829D01*
X63480414Y-83589995D01*
X63465624Y-83602627D01*
X63449414Y-83614404D01*
X63449411Y-83614407D01*
X63421573Y-83648058D01*
X63413711Y-83656697D01*
X60576208Y-86494199D01*
X60563951Y-86504020D01*
X60564134Y-86504241D01*
X60558122Y-86509214D01*
X60512098Y-86558223D01*
X60509391Y-86561016D01*
X60489889Y-86580517D01*
X60489875Y-86580534D01*
X60487407Y-86583715D01*
X60479843Y-86592570D01*
X60449937Y-86624418D01*
X60449936Y-86624420D01*
X60440284Y-86641976D01*
X60429610Y-86658226D01*
X60417329Y-86674061D01*
X60417324Y-86674068D01*
X60399975Y-86714158D01*
X60394838Y-86724644D01*
X60373803Y-86762906D01*
X60368822Y-86782307D01*
X60362521Y-86800710D01*
X60354562Y-86819102D01*
X60354561Y-86819105D01*
X60347728Y-86862243D01*
X60345360Y-86873674D01*
X60334501Y-86915971D01*
X60334500Y-86915982D01*
X60334500Y-86936016D01*
X60332973Y-86955415D01*
X60329840Y-86975194D01*
X60329840Y-86975195D01*
X60333950Y-87018674D01*
X60334500Y-87030343D01*
X60334500Y-87865298D01*
X60314815Y-87932337D01*
X60262011Y-87978092D01*
X60246496Y-87983958D01*
X60064194Y-88039259D01*
X59889001Y-88132901D01*
X59888995Y-88132905D01*
X59768664Y-88231658D01*
X59704354Y-88258970D01*
X59635487Y-88247179D01*
X59611336Y-88231658D01*
X59491004Y-88132905D01*
X59490998Y-88132901D01*
X59315805Y-88039259D01*
X59133504Y-87983958D01*
X59075066Y-87945661D01*
X59046609Y-87881849D01*
X59045500Y-87865298D01*
X59045500Y-87281725D01*
X59065185Y-87214686D01*
X59081819Y-87194044D01*
X63255045Y-83020819D01*
X63316368Y-82987334D01*
X63342726Y-82984500D01*
X73133257Y-82984500D01*
X73148877Y-82986224D01*
X73148904Y-82985939D01*
X73156660Y-82986671D01*
X73156667Y-82986673D01*
X73223873Y-82984561D01*
X73227768Y-82984500D01*
X73255346Y-82984500D01*
X73255350Y-82984500D01*
X73259324Y-82983997D01*
X73270963Y-82983080D01*
X73314627Y-82981709D01*
X73333869Y-82976117D01*
X73352912Y-82972174D01*
X73372792Y-82969664D01*
X73413401Y-82953585D01*
X73424444Y-82949803D01*
X73466390Y-82937618D01*
X73483629Y-82927422D01*
X73501103Y-82918862D01*
X73519727Y-82911488D01*
X73519727Y-82911487D01*
X73519732Y-82911486D01*
X73555083Y-82885800D01*
X73564814Y-82879408D01*
X73602420Y-82857170D01*
X73616589Y-82842999D01*
X73631379Y-82830368D01*
X73647587Y-82818594D01*
X73675438Y-82784926D01*
X73683279Y-82776309D01*
X74043785Y-82415803D01*
X74056041Y-82405987D01*
X74055858Y-82405765D01*
X74061870Y-82400790D01*
X74061877Y-82400786D01*
X74107949Y-82351722D01*
X74110566Y-82349023D01*
X74130120Y-82329471D01*
X74132576Y-82326303D01*
X74140156Y-82317427D01*
X74170062Y-82285582D01*
X74179715Y-82268020D01*
X74190389Y-82251770D01*
X74202673Y-82235936D01*
X74220019Y-82195850D01*
X74225157Y-82185362D01*
X74227159Y-82181722D01*
X74246197Y-82147092D01*
X74251177Y-82127691D01*
X74257478Y-82109288D01*
X74265438Y-82090896D01*
X74272272Y-82047741D01*
X74274635Y-82036331D01*
X74285500Y-81994019D01*
X74285500Y-81973983D01*
X74287027Y-81954582D01*
X74290160Y-81934804D01*
X74286050Y-81891324D01*
X74285500Y-81879655D01*
X74285500Y-81339048D01*
X74305185Y-81272009D01*
X74357989Y-81226254D01*
X74427147Y-81216310D01*
X74461905Y-81226667D01*
G37*
%TD.AperFunction*%
%TA.AperFunction,Conductor*%
G36*
X67853587Y-84719185D02*
G01*
X67899342Y-84771989D01*
X67909286Y-84841147D01*
X67880261Y-84904703D01*
X67874234Y-84911175D01*
X67715215Y-85070194D01*
X67595228Y-85190181D01*
X67533905Y-85223666D01*
X67507547Y-85226500D01*
X65614743Y-85226500D01*
X65599122Y-85224775D01*
X65599096Y-85225061D01*
X65591334Y-85224327D01*
X65591333Y-85224327D01*
X65529109Y-85226282D01*
X65524127Y-85226439D01*
X65520232Y-85226500D01*
X65492647Y-85226500D01*
X65488661Y-85227003D01*
X65477033Y-85227918D01*
X65433373Y-85229290D01*
X65414129Y-85234881D01*
X65395079Y-85238825D01*
X65375211Y-85241334D01*
X65375210Y-85241334D01*
X65334599Y-85257413D01*
X65323554Y-85261194D01*
X65281614Y-85273379D01*
X65281610Y-85273381D01*
X65264366Y-85283579D01*
X65246905Y-85292133D01*
X65228274Y-85299510D01*
X65228262Y-85299517D01*
X65192933Y-85325185D01*
X65183173Y-85331596D01*
X65145580Y-85353829D01*
X65131414Y-85367995D01*
X65116624Y-85380627D01*
X65100414Y-85392404D01*
X65100411Y-85392407D01*
X65072573Y-85426058D01*
X65064711Y-85434697D01*
X63116208Y-87383199D01*
X63103951Y-87393020D01*
X63104134Y-87393241D01*
X63098122Y-87398214D01*
X63052098Y-87447223D01*
X63049391Y-87450016D01*
X63029889Y-87469517D01*
X63029875Y-87469534D01*
X63027407Y-87472715D01*
X63019843Y-87481570D01*
X62989937Y-87513418D01*
X62989936Y-87513420D01*
X62980284Y-87530976D01*
X62969610Y-87547226D01*
X62957329Y-87563061D01*
X62957324Y-87563068D01*
X62939975Y-87603158D01*
X62934838Y-87613644D01*
X62913803Y-87651906D01*
X62908822Y-87671307D01*
X62902521Y-87689710D01*
X62894562Y-87708102D01*
X62894561Y-87708105D01*
X62887728Y-87751243D01*
X62885360Y-87762674D01*
X62874501Y-87804971D01*
X62874500Y-87804982D01*
X62874500Y-87825016D01*
X62872973Y-87844415D01*
X62869839Y-87864194D01*
X62869637Y-87870651D01*
X62847855Y-87937039D01*
X62793640Y-87981112D01*
X62781699Y-87985413D01*
X62731925Y-88000513D01*
X62604189Y-88039261D01*
X62429001Y-88132901D01*
X62428995Y-88132905D01*
X62308664Y-88231658D01*
X62244354Y-88258970D01*
X62175487Y-88247179D01*
X62151336Y-88231658D01*
X62031004Y-88132905D01*
X62030998Y-88132901D01*
X61855805Y-88039259D01*
X61673504Y-87983958D01*
X61615066Y-87945661D01*
X61586609Y-87881849D01*
X61585500Y-87865298D01*
X61585500Y-87305452D01*
X61605185Y-87238413D01*
X61621819Y-87217771D01*
X64103772Y-84735819D01*
X64165095Y-84702334D01*
X64191453Y-84699500D01*
X67786548Y-84699500D01*
X67853587Y-84719185D01*
G37*
%TD.AperFunction*%
%TA.AperFunction,Conductor*%
G36*
X71283087Y-85169185D02*
G01*
X71328842Y-85221989D01*
X71338786Y-85291147D01*
X71309761Y-85354703D01*
X71303729Y-85361181D01*
X68734226Y-87930681D01*
X68672903Y-87964166D01*
X68646545Y-87967000D01*
X67925653Y-87967000D01*
X67772826Y-87982051D01*
X67576733Y-88041535D01*
X67396027Y-88138125D01*
X67335358Y-88187913D01*
X67271047Y-88215225D01*
X67202180Y-88203432D01*
X67178031Y-88187912D01*
X67111004Y-88132905D01*
X67111002Y-88132903D01*
X66935808Y-88039260D01*
X66808075Y-88000513D01*
X66745701Y-87981592D01*
X66745699Y-87981591D01*
X66745701Y-87981591D01*
X66639415Y-87971123D01*
X66597547Y-87967000D01*
X66597543Y-87967000D01*
X65482457Y-87967000D01*
X65334300Y-87981591D01*
X65144191Y-88039260D01*
X64969001Y-88132901D01*
X64968995Y-88132905D01*
X64848664Y-88231658D01*
X64784354Y-88258970D01*
X64715487Y-88247179D01*
X64691336Y-88231658D01*
X64571004Y-88132905D01*
X64570998Y-88132901D01*
X64434770Y-88060086D01*
X64384926Y-88011124D01*
X64369465Y-87942987D01*
X64393296Y-87877307D01*
X64405542Y-87863047D01*
X64654946Y-87613644D01*
X65754772Y-86513819D01*
X65816095Y-86480334D01*
X65842453Y-86477500D01*
X67735257Y-86477500D01*
X67750877Y-86479224D01*
X67750904Y-86478939D01*
X67758660Y-86479671D01*
X67758667Y-86479673D01*
X67825873Y-86477561D01*
X67829768Y-86477500D01*
X67857346Y-86477500D01*
X67857350Y-86477500D01*
X67861324Y-86476997D01*
X67872963Y-86476080D01*
X67916627Y-86474709D01*
X67935869Y-86469117D01*
X67954912Y-86465174D01*
X67974792Y-86462664D01*
X68015401Y-86446585D01*
X68026444Y-86442803D01*
X68068390Y-86430618D01*
X68085629Y-86420422D01*
X68103103Y-86411862D01*
X68121727Y-86404488D01*
X68121727Y-86404487D01*
X68121732Y-86404486D01*
X68157083Y-86378800D01*
X68166814Y-86372408D01*
X68204420Y-86350170D01*
X68218589Y-86335999D01*
X68233379Y-86323368D01*
X68249587Y-86311594D01*
X68277438Y-86277926D01*
X68285279Y-86269309D01*
X69368771Y-85185819D01*
X69430094Y-85152334D01*
X69456452Y-85149500D01*
X71216048Y-85149500D01*
X71283087Y-85169185D01*
G37*
%TD.AperFunction*%
%TA.AperFunction,Conductor*%
G36*
X75590064Y-85735185D02*
G01*
X75635819Y-85787989D01*
X75645763Y-85857147D01*
X75616738Y-85920703D01*
X75595909Y-85939819D01*
X75594128Y-85941112D01*
X75467466Y-86081785D01*
X75372821Y-86245715D01*
X75372818Y-86245722D01*
X75316054Y-86420426D01*
X75314326Y-86425744D01*
X75294540Y-86614000D01*
X75314326Y-86802256D01*
X75314327Y-86802259D01*
X75372818Y-86982277D01*
X75372821Y-86982284D01*
X75467467Y-87146216D01*
X75481871Y-87162213D01*
X75542650Y-87229715D01*
X75572880Y-87292706D01*
X75574500Y-87312687D01*
X75574500Y-87865298D01*
X75554815Y-87932337D01*
X75502011Y-87978092D01*
X75486496Y-87983958D01*
X75304194Y-88039259D01*
X75129001Y-88132901D01*
X75128995Y-88132905D01*
X75008664Y-88231658D01*
X74944354Y-88258970D01*
X74875487Y-88247179D01*
X74851336Y-88231658D01*
X74731004Y-88132905D01*
X74730998Y-88132901D01*
X74555808Y-88039260D01*
X74428075Y-88000513D01*
X74365701Y-87981592D01*
X74365699Y-87981591D01*
X74365701Y-87981591D01*
X74259415Y-87971123D01*
X74217547Y-87967000D01*
X74217543Y-87967000D01*
X73102457Y-87967000D01*
X72954300Y-87981591D01*
X72764191Y-88039260D01*
X72589001Y-88132901D01*
X72588995Y-88132905D01*
X72468664Y-88231658D01*
X72404354Y-88258970D01*
X72335487Y-88247179D01*
X72311336Y-88231658D01*
X72191004Y-88132905D01*
X72190998Y-88132901D01*
X72015808Y-88039260D01*
X71888075Y-88000513D01*
X71825701Y-87981592D01*
X71825699Y-87981591D01*
X71825701Y-87981591D01*
X71710595Y-87970255D01*
X71677547Y-87967000D01*
X71677544Y-87967000D01*
X70766450Y-87967000D01*
X70699411Y-87947315D01*
X70653656Y-87894511D01*
X70643712Y-87825353D01*
X70672737Y-87761797D01*
X70678752Y-87755336D01*
X72682272Y-85751819D01*
X72743595Y-85718334D01*
X72769953Y-85715500D01*
X75523025Y-85715500D01*
X75590064Y-85735185D01*
G37*
%TD.AperFunction*%
%TA.AperFunction,Conductor*%
G36*
X78033834Y-84243269D02*
G01*
X78089767Y-84285141D01*
X78114184Y-84350605D01*
X78114500Y-84359451D01*
X78114500Y-87865298D01*
X78094815Y-87932337D01*
X78042011Y-87978092D01*
X78026496Y-87983958D01*
X77844194Y-88039259D01*
X77669001Y-88132901D01*
X77668995Y-88132905D01*
X77548664Y-88231658D01*
X77484354Y-88258970D01*
X77415487Y-88247179D01*
X77391336Y-88231658D01*
X77271004Y-88132905D01*
X77270998Y-88132901D01*
X77095805Y-88039259D01*
X76913504Y-87983958D01*
X76855066Y-87945661D01*
X76826609Y-87881849D01*
X76825500Y-87865298D01*
X76825500Y-87312687D01*
X76845185Y-87245648D01*
X76857350Y-87229715D01*
X76889468Y-87194044D01*
X76932533Y-87146216D01*
X77027179Y-86982284D01*
X77085674Y-86802256D01*
X77105460Y-86614000D01*
X77085674Y-86425744D01*
X77027179Y-86245716D01*
X76932533Y-86081784D01*
X76805871Y-85941112D01*
X76805870Y-85941111D01*
X76652734Y-85829851D01*
X76652729Y-85829848D01*
X76601234Y-85806921D01*
X76547997Y-85761671D01*
X76527676Y-85694821D01*
X76546722Y-85627598D01*
X76581154Y-85594109D01*
X76580256Y-85592951D01*
X76586412Y-85588174D01*
X76586420Y-85588170D01*
X76600589Y-85573999D01*
X76615379Y-85561368D01*
X76631587Y-85549594D01*
X76659438Y-85515926D01*
X76667279Y-85507309D01*
X77902820Y-84271768D01*
X77964142Y-84238285D01*
X78033834Y-84243269D01*
G37*
%TD.AperFunction*%
%TA.AperFunction,Conductor*%
G36*
X80498387Y-83048714D02*
G01*
X80547204Y-83081924D01*
X80622650Y-83165715D01*
X80652880Y-83228706D01*
X80654500Y-83248687D01*
X80654500Y-87865298D01*
X80634815Y-87932337D01*
X80582011Y-87978092D01*
X80566496Y-87983958D01*
X80384194Y-88039259D01*
X80209001Y-88132901D01*
X80208995Y-88132905D01*
X80088664Y-88231658D01*
X80024354Y-88258970D01*
X79955487Y-88247179D01*
X79931336Y-88231658D01*
X79811004Y-88132905D01*
X79810998Y-88132901D01*
X79635805Y-88039259D01*
X79453504Y-87983958D01*
X79395066Y-87945661D01*
X79366609Y-87881849D01*
X79365500Y-87865298D01*
X79365500Y-84130451D01*
X79385185Y-84063412D01*
X79401814Y-84042774D01*
X80367375Y-83077213D01*
X80428696Y-83043730D01*
X80498387Y-83048714D01*
G37*
%TD.AperFunction*%
%TA.AperFunction,Conductor*%
G36*
X86043997Y-65778114D02*
G01*
X86091810Y-65829062D01*
X86104488Y-65897772D01*
X86104468Y-65897967D01*
X86090206Y-66033668D01*
X86089540Y-66040000D01*
X86109326Y-66228256D01*
X86109327Y-66228259D01*
X86167818Y-66408277D01*
X86167821Y-66408284D01*
X86262467Y-66572216D01*
X86347912Y-66667112D01*
X86389129Y-66712888D01*
X86542265Y-66824148D01*
X86542270Y-66824151D01*
X86715192Y-66901142D01*
X86715193Y-66901142D01*
X86715197Y-66901144D01*
X86900354Y-66940500D01*
X86900357Y-66940500D01*
X86906280Y-66941759D01*
X86967762Y-66974951D01*
X87001539Y-67036114D01*
X87004500Y-67063049D01*
X87004500Y-80969546D01*
X86984815Y-81036585D01*
X86968181Y-81057227D01*
X83436208Y-84589199D01*
X83423951Y-84599020D01*
X83424134Y-84599241D01*
X83418122Y-84604214D01*
X83372098Y-84653223D01*
X83369391Y-84656016D01*
X83349889Y-84675517D01*
X83349875Y-84675534D01*
X83347407Y-84678715D01*
X83339843Y-84687570D01*
X83309937Y-84719418D01*
X83309936Y-84719420D01*
X83300284Y-84736976D01*
X83289610Y-84753226D01*
X83277329Y-84769061D01*
X83277324Y-84769068D01*
X83259975Y-84809158D01*
X83254838Y-84819644D01*
X83233803Y-84857906D01*
X83228822Y-84877307D01*
X83222521Y-84895710D01*
X83214562Y-84914102D01*
X83214561Y-84914105D01*
X83207728Y-84957243D01*
X83205360Y-84968674D01*
X83194501Y-85010971D01*
X83194500Y-85010982D01*
X83194500Y-85031016D01*
X83192973Y-85050413D01*
X83189840Y-85070196D01*
X83191236Y-85084964D01*
X83193950Y-85113674D01*
X83194500Y-85125343D01*
X83194500Y-87865298D01*
X83174815Y-87932337D01*
X83122011Y-87978092D01*
X83106496Y-87983958D01*
X82924194Y-88039259D01*
X82749001Y-88132901D01*
X82748995Y-88132905D01*
X82628664Y-88231658D01*
X82564354Y-88258970D01*
X82495487Y-88247179D01*
X82471336Y-88231658D01*
X82351004Y-88132905D01*
X82350998Y-88132901D01*
X82175805Y-88039259D01*
X81993504Y-87983958D01*
X81935066Y-87945661D01*
X81906609Y-87881849D01*
X81905500Y-87865298D01*
X81905500Y-83248687D01*
X81925185Y-83181648D01*
X81937350Y-83165715D01*
X81955891Y-83145122D01*
X82012533Y-83082216D01*
X82107179Y-82918284D01*
X82165674Y-82738256D01*
X82185460Y-82550000D01*
X82165674Y-82361744D01*
X82107179Y-82181716D01*
X82058977Y-82098227D01*
X82055093Y-82091500D01*
X82038620Y-82023599D01*
X82061473Y-81957573D01*
X82116394Y-81914382D01*
X82162480Y-81905500D01*
X82788248Y-81905500D01*
X82803868Y-81907224D01*
X82803895Y-81906939D01*
X82811651Y-81907671D01*
X82811658Y-81907673D01*
X82878864Y-81905561D01*
X82882759Y-81905500D01*
X82910337Y-81905500D01*
X82910341Y-81905500D01*
X82914315Y-81904997D01*
X82925954Y-81904080D01*
X82969618Y-81902709D01*
X82988860Y-81897117D01*
X83007903Y-81893174D01*
X83027783Y-81890664D01*
X83068392Y-81874585D01*
X83079435Y-81870803D01*
X83121381Y-81858618D01*
X83138620Y-81848422D01*
X83156094Y-81839862D01*
X83174718Y-81832488D01*
X83174718Y-81832487D01*
X83174723Y-81832486D01*
X83210074Y-81806800D01*
X83219805Y-81800408D01*
X83257411Y-81778170D01*
X83271580Y-81763999D01*
X83286370Y-81751368D01*
X83302578Y-81739594D01*
X83330429Y-81705926D01*
X83338270Y-81697309D01*
X84050871Y-80984709D01*
X84112193Y-80951225D01*
X84181885Y-80956209D01*
X84226232Y-80984710D01*
X84251179Y-81009657D01*
X84437517Y-81140134D01*
X84643673Y-81236265D01*
X84643682Y-81236269D01*
X84839999Y-81288872D01*
X84840000Y-81288871D01*
X84840000Y-80325686D01*
X84851955Y-80337641D01*
X84964852Y-80395165D01*
X85058519Y-80410000D01*
X85121481Y-80410000D01*
X85215148Y-80395165D01*
X85328045Y-80337641D01*
X85340000Y-80325686D01*
X85340000Y-81288872D01*
X85536317Y-81236269D01*
X85536326Y-81236265D01*
X85742482Y-81140134D01*
X85928820Y-81009657D01*
X86089657Y-80848820D01*
X86220134Y-80662482D01*
X86316265Y-80456326D01*
X86316269Y-80456317D01*
X86368872Y-80260000D01*
X85405686Y-80260000D01*
X85417641Y-80248045D01*
X85475165Y-80135148D01*
X85494986Y-80010000D01*
X85475165Y-79884852D01*
X85417641Y-79771955D01*
X85405686Y-79760000D01*
X86368872Y-79760000D01*
X86368872Y-79759999D01*
X86316269Y-79563682D01*
X86316265Y-79563673D01*
X86220134Y-79357517D01*
X86089657Y-79171179D01*
X85928820Y-79010342D01*
X85742482Y-78879865D01*
X85536328Y-78783734D01*
X85340000Y-78731127D01*
X85340000Y-79694314D01*
X85328045Y-79682359D01*
X85215148Y-79624835D01*
X85121481Y-79610000D01*
X85058519Y-79610000D01*
X84964852Y-79624835D01*
X84851955Y-79682359D01*
X84840000Y-79694314D01*
X84840000Y-78706688D01*
X84839373Y-78705830D01*
X84835221Y-78636084D01*
X84868379Y-78576210D01*
X85037774Y-78406816D01*
X85099096Y-78373334D01*
X85125453Y-78370500D01*
X85184644Y-78370500D01*
X85184646Y-78370500D01*
X85369803Y-78331144D01*
X85542730Y-78254151D01*
X85695871Y-78142888D01*
X85822533Y-78002216D01*
X85917179Y-77838284D01*
X85975674Y-77658256D01*
X85995460Y-77470000D01*
X85975674Y-77281744D01*
X85917179Y-77101716D01*
X85822533Y-76937784D01*
X85695871Y-76797112D01*
X85695870Y-76797111D01*
X85542734Y-76685851D01*
X85542729Y-76685848D01*
X85369807Y-76608857D01*
X85369802Y-76608855D01*
X85224001Y-76577865D01*
X85184646Y-76569500D01*
X84995354Y-76569500D01*
X84962897Y-76576398D01*
X84810197Y-76608855D01*
X84810192Y-76608857D01*
X84637270Y-76685848D01*
X84637265Y-76685851D01*
X84484129Y-76797111D01*
X84357466Y-76937785D01*
X84262821Y-77101715D01*
X84262818Y-77101722D01*
X84204327Y-77281740D01*
X84204326Y-77281744D01*
X84192060Y-77398453D01*
X84186679Y-77449649D01*
X84160094Y-77514263D01*
X84151039Y-77524368D01*
X83436208Y-78239199D01*
X83423951Y-78249020D01*
X83424134Y-78249241D01*
X83418122Y-78254214D01*
X83372098Y-78303223D01*
X83369391Y-78306016D01*
X83349889Y-78325517D01*
X83349875Y-78325534D01*
X83347407Y-78328715D01*
X83339843Y-78337570D01*
X83309937Y-78369418D01*
X83309936Y-78369420D01*
X83300284Y-78386976D01*
X83289610Y-78403226D01*
X83277329Y-78419061D01*
X83277324Y-78419068D01*
X83259975Y-78459158D01*
X83254838Y-78469644D01*
X83233803Y-78507906D01*
X83228822Y-78527307D01*
X83222521Y-78545710D01*
X83214562Y-78564102D01*
X83214561Y-78564105D01*
X83207728Y-78607243D01*
X83205360Y-78618674D01*
X83194501Y-78660971D01*
X83194500Y-78660982D01*
X83194500Y-78680950D01*
X83174815Y-78747989D01*
X83122011Y-78793744D01*
X83052853Y-78803688D01*
X83018099Y-78793334D01*
X82996498Y-78783262D01*
X82996488Y-78783258D01*
X82776697Y-78724366D01*
X82776693Y-78724365D01*
X82776692Y-78724365D01*
X82776691Y-78724364D01*
X82776686Y-78724364D01*
X82550002Y-78704532D01*
X82549999Y-78704532D01*
X82323313Y-78724364D01*
X82323296Y-78724367D01*
X82254949Y-78742680D01*
X82185099Y-78741016D01*
X82135177Y-78710586D01*
X80510803Y-77086212D01*
X80500980Y-77073950D01*
X80500759Y-77074134D01*
X80495786Y-77068122D01*
X80446776Y-77022099D01*
X80443977Y-77019386D01*
X80424477Y-76999885D01*
X80424471Y-76999880D01*
X80421286Y-76997409D01*
X80412434Y-76989848D01*
X80380582Y-76959938D01*
X80380580Y-76959936D01*
X80380577Y-76959935D01*
X80363029Y-76950288D01*
X80346763Y-76939604D01*
X80330932Y-76927324D01*
X80290849Y-76909978D01*
X80280363Y-76904841D01*
X80242094Y-76883803D01*
X80242092Y-76883802D01*
X80222693Y-76878822D01*
X80204281Y-76872518D01*
X80185898Y-76864562D01*
X80185892Y-76864560D01*
X80142760Y-76857729D01*
X80131322Y-76855361D01*
X80089020Y-76844500D01*
X80089019Y-76844500D01*
X80068984Y-76844500D01*
X80049586Y-76842973D01*
X80042162Y-76841797D01*
X80029805Y-76839840D01*
X80029804Y-76839840D01*
X79986325Y-76843950D01*
X79974656Y-76844500D01*
X75469452Y-76844500D01*
X75402413Y-76824815D01*
X75356658Y-76772011D01*
X75346714Y-76702853D01*
X75375739Y-76639297D01*
X75381771Y-76632819D01*
X77701858Y-74312732D01*
X85473786Y-66540802D01*
X85486048Y-66530980D01*
X85485865Y-66530759D01*
X85491868Y-66525791D01*
X85491877Y-66525786D01*
X85537934Y-66476739D01*
X85540600Y-66473989D01*
X85560120Y-66454470D01*
X85562570Y-66451310D01*
X85570154Y-66442429D01*
X85600062Y-66410582D01*
X85609714Y-66393023D01*
X85620389Y-66376772D01*
X85632674Y-66360936D01*
X85650030Y-66320825D01*
X85655161Y-66310354D01*
X85676194Y-66272098D01*
X85676195Y-66272095D01*
X85676197Y-66272092D01*
X85681180Y-66252680D01*
X85687477Y-66234291D01*
X85695438Y-66215895D01*
X85702270Y-66172748D01*
X85704639Y-66161316D01*
X85715499Y-66119022D01*
X85715500Y-66119017D01*
X85715500Y-66098983D01*
X85717027Y-66079582D01*
X85720160Y-66059804D01*
X85716050Y-66016324D01*
X85715500Y-66004655D01*
X85715500Y-65984188D01*
X85735185Y-65917149D01*
X85768377Y-65882613D01*
X85895547Y-65793568D01*
X85910024Y-65783430D01*
X85976230Y-65761104D01*
X86043997Y-65778114D01*
G37*
%TD.AperFunction*%
%TA.AperFunction,Conductor*%
G36*
X85862587Y-62621185D02*
G01*
X85883229Y-62637819D01*
X90778181Y-67532771D01*
X90811666Y-67594094D01*
X90814500Y-67620452D01*
X90814500Y-87865298D01*
X90794815Y-87932337D01*
X90742011Y-87978092D01*
X90726496Y-87983958D01*
X90544194Y-88039259D01*
X90369001Y-88132901D01*
X90368995Y-88132905D01*
X90248664Y-88231658D01*
X90184354Y-88258970D01*
X90115487Y-88247179D01*
X90091336Y-88231658D01*
X89971004Y-88132905D01*
X89970998Y-88132901D01*
X89795808Y-88039260D01*
X89668075Y-88000513D01*
X89605701Y-87981592D01*
X89605699Y-87981591D01*
X89605701Y-87981591D01*
X89499415Y-87971123D01*
X89457547Y-87967000D01*
X89457543Y-87967000D01*
X88342457Y-87967000D01*
X88194300Y-87981591D01*
X88004191Y-88039260D01*
X87829001Y-88132901D01*
X87828995Y-88132905D01*
X87708664Y-88231658D01*
X87644354Y-88258970D01*
X87575487Y-88247179D01*
X87551336Y-88231658D01*
X87431004Y-88132905D01*
X87430998Y-88132901D01*
X87255808Y-88039260D01*
X87128075Y-88000513D01*
X87065701Y-87981592D01*
X87065699Y-87981591D01*
X87065701Y-87981591D01*
X86959415Y-87971123D01*
X86917547Y-87967000D01*
X86917543Y-87967000D01*
X85802457Y-87967000D01*
X85654300Y-87981591D01*
X85464191Y-88039260D01*
X85289001Y-88132901D01*
X85288995Y-88132905D01*
X85168664Y-88231658D01*
X85104354Y-88258970D01*
X85035487Y-88247179D01*
X85011336Y-88231658D01*
X84891004Y-88132905D01*
X84890998Y-88132901D01*
X84715805Y-88039259D01*
X84533504Y-87983958D01*
X84475066Y-87945661D01*
X84446609Y-87881849D01*
X84445500Y-87865298D01*
X84445500Y-85400451D01*
X84465185Y-85333412D01*
X84481814Y-85312775D01*
X88013786Y-81780802D01*
X88026048Y-81770980D01*
X88025865Y-81770759D01*
X88031868Y-81765791D01*
X88031877Y-81765786D01*
X88077934Y-81716739D01*
X88080582Y-81714006D01*
X88100120Y-81694470D01*
X88102570Y-81691310D01*
X88110154Y-81682429D01*
X88140062Y-81650582D01*
X88149714Y-81633023D01*
X88160389Y-81616772D01*
X88172674Y-81600936D01*
X88190030Y-81560825D01*
X88195161Y-81550354D01*
X88216194Y-81512098D01*
X88216194Y-81512097D01*
X88216197Y-81512092D01*
X88221180Y-81492680D01*
X88227477Y-81474291D01*
X88235438Y-81455895D01*
X88242270Y-81412748D01*
X88244639Y-81401316D01*
X88255499Y-81359022D01*
X88255500Y-81359017D01*
X88255500Y-81338983D01*
X88257027Y-81319582D01*
X88260160Y-81299804D01*
X88256050Y-81256324D01*
X88255500Y-81244655D01*
X88255500Y-75084499D01*
X88275185Y-75017460D01*
X88327989Y-74971705D01*
X88379500Y-74960499D01*
X89722471Y-74960499D01*
X89722472Y-74960499D01*
X89782083Y-74954091D01*
X89916931Y-74903796D01*
X90032146Y-74817546D01*
X90118396Y-74702331D01*
X90168691Y-74567483D01*
X90175100Y-74507873D01*
X90175099Y-72812128D01*
X90168691Y-72752517D01*
X90134167Y-72659954D01*
X90118397Y-72617671D01*
X90118393Y-72617664D01*
X90032147Y-72502455D01*
X90032146Y-72502454D01*
X90014530Y-72489267D01*
X89972658Y-72433334D01*
X89967674Y-72363642D01*
X90001158Y-72302319D01*
X90014530Y-72290733D01*
X90032146Y-72277546D01*
X90118396Y-72162331D01*
X90168691Y-72027483D01*
X90175100Y-71967873D01*
X90175099Y-70272128D01*
X90168691Y-70212517D01*
X90134167Y-70119954D01*
X90118397Y-70077671D01*
X90118393Y-70077664D01*
X90032147Y-69962455D01*
X90032144Y-69962452D01*
X89916935Y-69876206D01*
X89916928Y-69876202D01*
X89782082Y-69825908D01*
X89782083Y-69825908D01*
X89722483Y-69819501D01*
X89722481Y-69819500D01*
X89722473Y-69819500D01*
X89722465Y-69819500D01*
X89614399Y-69819500D01*
X89547360Y-69799815D01*
X89501605Y-69747011D01*
X89491661Y-69677853D01*
X89520686Y-69614297D01*
X89549122Y-69590073D01*
X89626560Y-69542125D01*
X89626559Y-69542125D01*
X89626562Y-69542124D01*
X89790981Y-69392236D01*
X89925058Y-69214689D01*
X90024229Y-69015528D01*
X90085115Y-68801536D01*
X90105643Y-68580000D01*
X90105194Y-68575159D01*
X90085115Y-68358464D01*
X90085114Y-68358462D01*
X90080160Y-68341051D01*
X90024229Y-68144472D01*
X90018646Y-68133259D01*
X89925061Y-67945316D01*
X89925056Y-67945308D01*
X89790979Y-67767761D01*
X89626562Y-67617876D01*
X89626560Y-67617874D01*
X89437404Y-67500754D01*
X89437398Y-67500752D01*
X89229940Y-67420382D01*
X89011243Y-67379500D01*
X88788757Y-67379500D01*
X88570060Y-67420382D01*
X88570057Y-67420382D01*
X88570057Y-67420383D01*
X88424293Y-67476852D01*
X88354670Y-67482714D01*
X88292930Y-67450003D01*
X88258675Y-67389107D01*
X88255500Y-67361225D01*
X88255500Y-66757742D01*
X88257224Y-66742122D01*
X88256939Y-66742095D01*
X88257673Y-66734333D01*
X88255561Y-66667112D01*
X88255500Y-66663218D01*
X88255500Y-66635656D01*
X88255500Y-66635650D01*
X88254996Y-66631668D01*
X88254081Y-66620029D01*
X88254002Y-66617512D01*
X88252710Y-66576373D01*
X88247119Y-66557130D01*
X88243173Y-66538078D01*
X88240664Y-66518208D01*
X88224579Y-66477583D01*
X88220806Y-66466562D01*
X88208618Y-66424610D01*
X88208617Y-66424609D01*
X88208617Y-66424607D01*
X88208616Y-66424606D01*
X88198423Y-66407371D01*
X88189861Y-66389894D01*
X88182487Y-66371269D01*
X88156816Y-66335937D01*
X88150405Y-66326177D01*
X88128170Y-66288580D01*
X88128168Y-66288578D01*
X88128165Y-66288574D01*
X88114006Y-66274415D01*
X88101368Y-66259619D01*
X88089594Y-66243413D01*
X88078544Y-66234272D01*
X88055946Y-66215577D01*
X88047304Y-66207714D01*
X87933959Y-66094368D01*
X87900475Y-66033045D01*
X87898322Y-66019665D01*
X87880674Y-65851744D01*
X87822179Y-65671716D01*
X87727533Y-65507784D01*
X87600871Y-65367112D01*
X87597586Y-65364725D01*
X87447734Y-65255851D01*
X87447729Y-65255848D01*
X87274807Y-65178857D01*
X87274802Y-65178855D01*
X87129001Y-65147865D01*
X87089646Y-65139500D01*
X86900354Y-65139500D01*
X86867897Y-65146398D01*
X86715197Y-65178855D01*
X86715192Y-65178857D01*
X86542270Y-65255848D01*
X86542267Y-65255850D01*
X86532413Y-65263010D01*
X86466606Y-65286488D01*
X86398553Y-65270661D01*
X86349859Y-65220554D01*
X86335985Y-65152076D01*
X86339753Y-65130603D01*
X86375635Y-64996692D01*
X86395468Y-64770000D01*
X86375635Y-64543308D01*
X86316739Y-64323504D01*
X86220568Y-64117266D01*
X86090047Y-63930861D01*
X86090045Y-63930858D01*
X85929141Y-63769954D01*
X85742734Y-63639432D01*
X85742732Y-63639431D01*
X85536497Y-63543261D01*
X85536488Y-63543258D01*
X85316697Y-63484366D01*
X85316693Y-63484365D01*
X85316692Y-63484365D01*
X85316691Y-63484364D01*
X85316686Y-63484364D01*
X85090002Y-63464532D01*
X85089998Y-63464532D01*
X84863313Y-63484364D01*
X84863302Y-63484366D01*
X84643511Y-63543258D01*
X84643502Y-63543261D01*
X84437267Y-63639431D01*
X84437265Y-63639432D01*
X84250858Y-63769954D01*
X84089954Y-63930858D01*
X83959432Y-64117265D01*
X83959431Y-64117267D01*
X83932382Y-64175275D01*
X83886209Y-64227714D01*
X83819016Y-64246866D01*
X83752135Y-64226650D01*
X83707618Y-64175275D01*
X83680568Y-64117267D01*
X83680567Y-64117265D01*
X83550045Y-63930858D01*
X83389141Y-63769954D01*
X83202734Y-63639432D01*
X83202732Y-63639431D01*
X82996497Y-63543261D01*
X82996488Y-63543258D01*
X82776697Y-63484366D01*
X82776693Y-63484365D01*
X82776692Y-63484365D01*
X82776691Y-63484364D01*
X82776686Y-63484364D01*
X82550002Y-63464532D01*
X82549998Y-63464532D01*
X82323313Y-63484364D01*
X82323302Y-63484366D01*
X82103511Y-63543258D01*
X82103502Y-63543261D01*
X81897267Y-63639431D01*
X81897265Y-63639432D01*
X81710858Y-63769954D01*
X81549954Y-63930858D01*
X81419432Y-64117265D01*
X81419431Y-64117267D01*
X81392382Y-64175275D01*
X81346209Y-64227714D01*
X81279016Y-64246866D01*
X81212135Y-64226650D01*
X81167618Y-64175275D01*
X81140568Y-64117267D01*
X81140567Y-64117265D01*
X81010045Y-63930858D01*
X80849141Y-63769954D01*
X80662734Y-63639432D01*
X80662732Y-63639431D01*
X80456497Y-63543261D01*
X80456488Y-63543258D01*
X80236697Y-63484366D01*
X80236693Y-63484365D01*
X80236692Y-63484365D01*
X80236691Y-63484364D01*
X80236686Y-63484364D01*
X80010002Y-63464532D01*
X80009998Y-63464532D01*
X79783313Y-63484364D01*
X79783302Y-63484366D01*
X79563511Y-63543258D01*
X79563502Y-63543261D01*
X79357267Y-63639431D01*
X79357265Y-63639432D01*
X79170858Y-63769954D01*
X79009954Y-63930858D01*
X78879432Y-64117265D01*
X78879431Y-64117267D01*
X78852382Y-64175275D01*
X78806209Y-64227714D01*
X78739016Y-64246866D01*
X78672135Y-64226650D01*
X78627618Y-64175275D01*
X78600568Y-64117267D01*
X78600567Y-64117265D01*
X78470045Y-63930858D01*
X78309141Y-63769954D01*
X78122734Y-63639432D01*
X78122732Y-63639431D01*
X77916497Y-63543261D01*
X77916488Y-63543258D01*
X77696697Y-63484366D01*
X77696693Y-63484365D01*
X77696692Y-63484365D01*
X77696691Y-63484364D01*
X77696686Y-63484364D01*
X77470002Y-63464532D01*
X77469998Y-63464532D01*
X77243313Y-63484364D01*
X77243302Y-63484366D01*
X77023511Y-63543258D01*
X77023502Y-63543261D01*
X76817267Y-63639431D01*
X76817265Y-63639432D01*
X76630858Y-63769954D01*
X76469954Y-63930858D01*
X76339432Y-64117265D01*
X76339431Y-64117267D01*
X76312382Y-64175275D01*
X76266209Y-64227714D01*
X76199016Y-64246866D01*
X76132135Y-64226650D01*
X76087618Y-64175275D01*
X76060568Y-64117267D01*
X76060567Y-64117265D01*
X75930045Y-63930858D01*
X75769141Y-63769954D01*
X75582734Y-63639432D01*
X75582732Y-63639431D01*
X75376497Y-63543261D01*
X75376488Y-63543258D01*
X75156697Y-63484366D01*
X75156693Y-63484365D01*
X75156692Y-63484365D01*
X75156691Y-63484364D01*
X75156686Y-63484364D01*
X74930002Y-63464532D01*
X74929998Y-63464532D01*
X74703313Y-63484364D01*
X74703302Y-63484366D01*
X74483511Y-63543258D01*
X74483502Y-63543261D01*
X74277267Y-63639431D01*
X74277265Y-63639432D01*
X74090858Y-63769954D01*
X73929954Y-63930858D01*
X73799432Y-64117265D01*
X73799431Y-64117267D01*
X73772382Y-64175275D01*
X73726209Y-64227714D01*
X73659016Y-64246866D01*
X73592135Y-64226650D01*
X73547618Y-64175275D01*
X73520568Y-64117267D01*
X73520567Y-64117265D01*
X73390045Y-63930858D01*
X73229141Y-63769954D01*
X73042734Y-63639432D01*
X73042732Y-63639431D01*
X72836497Y-63543261D01*
X72836488Y-63543258D01*
X72616697Y-63484366D01*
X72616693Y-63484365D01*
X72616692Y-63484365D01*
X72616691Y-63484364D01*
X72616686Y-63484364D01*
X72390002Y-63464532D01*
X72389998Y-63464532D01*
X72163313Y-63484364D01*
X72163302Y-63484366D01*
X71943511Y-63543258D01*
X71943502Y-63543261D01*
X71737267Y-63639431D01*
X71737265Y-63639432D01*
X71550858Y-63769954D01*
X71389954Y-63930858D01*
X71259432Y-64117265D01*
X71259431Y-64117267D01*
X71232382Y-64175275D01*
X71186209Y-64227714D01*
X71119016Y-64246866D01*
X71052135Y-64226650D01*
X71007618Y-64175275D01*
X70980568Y-64117267D01*
X70980567Y-64117265D01*
X70850045Y-63930858D01*
X70689141Y-63769954D01*
X70502734Y-63639432D01*
X70502732Y-63639431D01*
X70296497Y-63543261D01*
X70296488Y-63543258D01*
X70076697Y-63484366D01*
X70076693Y-63484365D01*
X70076692Y-63484365D01*
X70076691Y-63484364D01*
X70076686Y-63484364D01*
X69850002Y-63464532D01*
X69849998Y-63464532D01*
X69623313Y-63484364D01*
X69623302Y-63484366D01*
X69403511Y-63543258D01*
X69403502Y-63543261D01*
X69197267Y-63639431D01*
X69197265Y-63639432D01*
X69010858Y-63769954D01*
X68849954Y-63930858D01*
X68719432Y-64117265D01*
X68719431Y-64117267D01*
X68692382Y-64175275D01*
X68646209Y-64227714D01*
X68579016Y-64246866D01*
X68512135Y-64226650D01*
X68467618Y-64175275D01*
X68440568Y-64117267D01*
X68440567Y-64117265D01*
X68310045Y-63930858D01*
X68149141Y-63769954D01*
X67962734Y-63639432D01*
X67962732Y-63639431D01*
X67756497Y-63543261D01*
X67756488Y-63543258D01*
X67536697Y-63484366D01*
X67536693Y-63484365D01*
X67536692Y-63484365D01*
X67536691Y-63484364D01*
X67536686Y-63484364D01*
X67310002Y-63464532D01*
X67309998Y-63464532D01*
X67083313Y-63484364D01*
X67083302Y-63484366D01*
X66863511Y-63543258D01*
X66863502Y-63543261D01*
X66657267Y-63639431D01*
X66657265Y-63639432D01*
X66470858Y-63769954D01*
X66309954Y-63930858D01*
X66179432Y-64117265D01*
X66179431Y-64117267D01*
X66152382Y-64175275D01*
X66106209Y-64227714D01*
X66039016Y-64246866D01*
X65972135Y-64226650D01*
X65927618Y-64175275D01*
X65900568Y-64117267D01*
X65900567Y-64117265D01*
X65770045Y-63930858D01*
X65609141Y-63769954D01*
X65422734Y-63639432D01*
X65422732Y-63639431D01*
X65216497Y-63543261D01*
X65216488Y-63543258D01*
X64996697Y-63484366D01*
X64996693Y-63484365D01*
X64996692Y-63484365D01*
X64996691Y-63484364D01*
X64996686Y-63484364D01*
X64770002Y-63464532D01*
X64769998Y-63464532D01*
X64543313Y-63484364D01*
X64543302Y-63484366D01*
X64323511Y-63543258D01*
X64323502Y-63543261D01*
X64117267Y-63639431D01*
X64117265Y-63639432D01*
X63930858Y-63769954D01*
X63769954Y-63930858D01*
X63639432Y-64117265D01*
X63639431Y-64117267D01*
X63612382Y-64175275D01*
X63566209Y-64227714D01*
X63499016Y-64246866D01*
X63432135Y-64226650D01*
X63387618Y-64175275D01*
X63360568Y-64117267D01*
X63360567Y-64117265D01*
X63230045Y-63930858D01*
X63069141Y-63769954D01*
X62882734Y-63639432D01*
X62882732Y-63639431D01*
X62676497Y-63543261D01*
X62676488Y-63543258D01*
X62456697Y-63484366D01*
X62456693Y-63484365D01*
X62456692Y-63484365D01*
X62456691Y-63484364D01*
X62456686Y-63484364D01*
X62230002Y-63464532D01*
X62229998Y-63464532D01*
X62003313Y-63484364D01*
X62003302Y-63484366D01*
X61783511Y-63543258D01*
X61783502Y-63543261D01*
X61577267Y-63639431D01*
X61577265Y-63639432D01*
X61390858Y-63769954D01*
X61229954Y-63930858D01*
X61099432Y-64117265D01*
X61099431Y-64117267D01*
X61072382Y-64175275D01*
X61026209Y-64227714D01*
X60959016Y-64246866D01*
X60892135Y-64226650D01*
X60847618Y-64175275D01*
X60820568Y-64117267D01*
X60820567Y-64117265D01*
X60690045Y-63930858D01*
X60529141Y-63769954D01*
X60342734Y-63639432D01*
X60342732Y-63639431D01*
X60136497Y-63543261D01*
X60136488Y-63543258D01*
X59916697Y-63484366D01*
X59916693Y-63484365D01*
X59916692Y-63484365D01*
X59916691Y-63484364D01*
X59916686Y-63484364D01*
X59690002Y-63464532D01*
X59689998Y-63464532D01*
X59463313Y-63484364D01*
X59463302Y-63484366D01*
X59243511Y-63543258D01*
X59243502Y-63543261D01*
X59037267Y-63639431D01*
X59037265Y-63639432D01*
X58850858Y-63769954D01*
X58689954Y-63930858D01*
X58559432Y-64117265D01*
X58559431Y-64117267D01*
X58532382Y-64175275D01*
X58486209Y-64227714D01*
X58419016Y-64246866D01*
X58352135Y-64226650D01*
X58307618Y-64175275D01*
X58280568Y-64117267D01*
X58280567Y-64117265D01*
X58150045Y-63930858D01*
X57989141Y-63769954D01*
X57802734Y-63639432D01*
X57802732Y-63639431D01*
X57596497Y-63543261D01*
X57596488Y-63543258D01*
X57376697Y-63484366D01*
X57376693Y-63484365D01*
X57376692Y-63484365D01*
X57376691Y-63484364D01*
X57376686Y-63484364D01*
X57150002Y-63464532D01*
X57149996Y-63464532D01*
X57105894Y-63468390D01*
X57037394Y-63454623D01*
X56987212Y-63406007D01*
X56971279Y-63337978D01*
X56994655Y-63272135D01*
X57007399Y-63257189D01*
X57626771Y-62637819D01*
X57688094Y-62604334D01*
X57714452Y-62601500D01*
X85795548Y-62601500D01*
X85862587Y-62621185D01*
G37*
%TD.AperFunction*%
%TA.AperFunction,Conductor*%
G36*
X92250373Y-79523087D02*
G01*
X92251637Y-79520899D01*
X92257270Y-79524151D01*
X92430192Y-79601142D01*
X92430197Y-79601144D01*
X92615354Y-79640500D01*
X92674548Y-79640500D01*
X92741587Y-79660185D01*
X92762229Y-79676819D01*
X93318181Y-80232771D01*
X93351666Y-80294094D01*
X93354500Y-80320452D01*
X93354500Y-87865298D01*
X93334815Y-87932337D01*
X93282011Y-87978092D01*
X93266496Y-87983958D01*
X93084194Y-88039259D01*
X92909001Y-88132901D01*
X92908995Y-88132905D01*
X92788664Y-88231658D01*
X92724354Y-88258970D01*
X92655487Y-88247179D01*
X92631336Y-88231658D01*
X92511004Y-88132905D01*
X92510998Y-88132901D01*
X92335805Y-88039259D01*
X92153504Y-87983958D01*
X92095066Y-87945661D01*
X92066609Y-87881849D01*
X92065500Y-87865298D01*
X92065500Y-79628185D01*
X92085185Y-79561146D01*
X92137989Y-79515391D01*
X92207147Y-79505447D01*
X92250373Y-79523087D01*
G37*
%TD.AperFunction*%
%TA.AperFunction,Conductor*%
G36*
X50867865Y-80553348D02*
G01*
X50912382Y-80604725D01*
X50939429Y-80662728D01*
X50939432Y-80662734D01*
X51069954Y-80849141D01*
X51230858Y-81010045D01*
X51391623Y-81122613D01*
X51435248Y-81177189D01*
X51444500Y-81224188D01*
X51444500Y-81604547D01*
X51424815Y-81671586D01*
X51408181Y-81692228D01*
X49097181Y-84003228D01*
X49035858Y-84036713D01*
X48966166Y-84031729D01*
X48910233Y-83989857D01*
X48885816Y-83924393D01*
X48885500Y-83915547D01*
X48885500Y-81339048D01*
X48905185Y-81272009D01*
X48957989Y-81226254D01*
X49027147Y-81216310D01*
X49061905Y-81226667D01*
X49083504Y-81236739D01*
X49083509Y-81236740D01*
X49083511Y-81236741D01*
X49103556Y-81242112D01*
X49303308Y-81295635D01*
X49465230Y-81309801D01*
X49529998Y-81315468D01*
X49530000Y-81315468D01*
X49530002Y-81315468D01*
X49586807Y-81310498D01*
X49756692Y-81295635D01*
X49976496Y-81236739D01*
X50182734Y-81140568D01*
X50369139Y-81010047D01*
X50530047Y-80849139D01*
X50660568Y-80662734D01*
X50687618Y-80604724D01*
X50733790Y-80552285D01*
X50800983Y-80533133D01*
X50867865Y-80553348D01*
G37*
%TD.AperFunction*%
%TA.AperFunction,Conductor*%
G36*
X76760161Y-81927114D02*
G01*
X76817382Y-81967206D01*
X76843845Y-82031871D01*
X76844500Y-82044600D01*
X76844500Y-82873151D01*
X76824815Y-82940190D01*
X76808181Y-82960832D01*
X75906832Y-83862181D01*
X75845509Y-83895666D01*
X75819151Y-83898500D01*
X74989447Y-83898500D01*
X74922408Y-83878815D01*
X74876653Y-83826011D01*
X74866709Y-83756853D01*
X74895734Y-83693297D01*
X74901766Y-83686819D01*
X75731415Y-82857170D01*
X76583788Y-82004796D01*
X76596042Y-81994981D01*
X76595859Y-81994759D01*
X76601868Y-81989786D01*
X76601877Y-81989781D01*
X76630109Y-81959715D01*
X76690347Y-81924322D01*
X76760161Y-81927114D01*
G37*
%TD.AperFunction*%
%TA.AperFunction,Conductor*%
G36*
X56674906Y-73670185D02*
G01*
X56720661Y-73722989D01*
X56730605Y-73792147D01*
X56703407Y-73853544D01*
X56690570Y-73869060D01*
X56682711Y-73877697D01*
X52956208Y-77604199D01*
X52943951Y-77614020D01*
X52944134Y-77614241D01*
X52938122Y-77619214D01*
X52892098Y-77668223D01*
X52889391Y-77671016D01*
X52869889Y-77690517D01*
X52869875Y-77690534D01*
X52867407Y-77693715D01*
X52859843Y-77702570D01*
X52829937Y-77734418D01*
X52829936Y-77734420D01*
X52820284Y-77751976D01*
X52809610Y-77768226D01*
X52797329Y-77784061D01*
X52797324Y-77784068D01*
X52779975Y-77824158D01*
X52774838Y-77834644D01*
X52753803Y-77872906D01*
X52748822Y-77892307D01*
X52742521Y-77910710D01*
X52734562Y-77929102D01*
X52734561Y-77929105D01*
X52727728Y-77972243D01*
X52725360Y-77983674D01*
X52714501Y-78025971D01*
X52714500Y-78025982D01*
X52714500Y-78046016D01*
X52712973Y-78065415D01*
X52709840Y-78085194D01*
X52709840Y-78085195D01*
X52713950Y-78128674D01*
X52714500Y-78140343D01*
X52714500Y-78680950D01*
X52694815Y-78747989D01*
X52642011Y-78793744D01*
X52572853Y-78803688D01*
X52538099Y-78793334D01*
X52516498Y-78783262D01*
X52516488Y-78783258D01*
X52296697Y-78724366D01*
X52296693Y-78724365D01*
X52296692Y-78724365D01*
X52296691Y-78724364D01*
X52296686Y-78724364D01*
X52070002Y-78704532D01*
X52069998Y-78704532D01*
X51843313Y-78724364D01*
X51843302Y-78724366D01*
X51623511Y-78783258D01*
X51623502Y-78783261D01*
X51417267Y-78879431D01*
X51417265Y-78879432D01*
X51230858Y-79009954D01*
X51069954Y-79170858D01*
X50939432Y-79357265D01*
X50939431Y-79357267D01*
X50912382Y-79415275D01*
X50866209Y-79467714D01*
X50799016Y-79486866D01*
X50732135Y-79466650D01*
X50687618Y-79415275D01*
X50666499Y-79369986D01*
X50660568Y-79357266D01*
X50573945Y-79233554D01*
X50551618Y-79167347D01*
X50568629Y-79099580D01*
X50587835Y-79074754D01*
X55975772Y-73686819D01*
X56037095Y-73653334D01*
X56063453Y-73650500D01*
X56607867Y-73650500D01*
X56674906Y-73670185D01*
G37*
%TD.AperFunction*%
%TA.AperFunction,Conductor*%
G36*
X76516911Y-78115185D02*
G01*
X76562666Y-78167989D01*
X76572610Y-78237147D01*
X76545410Y-78298547D01*
X76532573Y-78314062D01*
X76524716Y-78322696D01*
X75882896Y-78964516D01*
X75821573Y-78998001D01*
X75751881Y-78993017D01*
X75724093Y-78978411D01*
X75606403Y-78896005D01*
X75582734Y-78879432D01*
X75571512Y-78874199D01*
X75376497Y-78783261D01*
X75376488Y-78783258D01*
X75156697Y-78724366D01*
X75156693Y-78724365D01*
X75156692Y-78724365D01*
X75156691Y-78724364D01*
X75156686Y-78724364D01*
X74930002Y-78704532D01*
X74929996Y-78704532D01*
X74885895Y-78708390D01*
X74817395Y-78694623D01*
X74767213Y-78646007D01*
X74751280Y-78577978D01*
X74774656Y-78512135D01*
X74787403Y-78497186D01*
X75152772Y-78131819D01*
X75214095Y-78098334D01*
X75240453Y-78095500D01*
X76449872Y-78095500D01*
X76516911Y-78115185D01*
G37*
%TD.AperFunction*%
%TA.AperFunction,Conductor*%
G36*
X61754906Y-77480185D02*
G01*
X61800661Y-77532989D01*
X61810605Y-77602147D01*
X61783405Y-77663547D01*
X61770568Y-77679062D01*
X61762711Y-77687696D01*
X60576208Y-78874199D01*
X60563951Y-78884020D01*
X60564134Y-78884241D01*
X60558121Y-78889215D01*
X60551745Y-78896005D01*
X60491503Y-78931397D01*
X60421689Y-78928601D01*
X60390233Y-78912691D01*
X60342737Y-78879433D01*
X60342733Y-78879431D01*
X60180593Y-78803824D01*
X60136496Y-78783261D01*
X60136492Y-78783260D01*
X60136488Y-78783258D01*
X59916697Y-78724366D01*
X59916693Y-78724365D01*
X59916692Y-78724365D01*
X59916691Y-78724364D01*
X59916686Y-78724364D01*
X59690002Y-78704532D01*
X59689998Y-78704532D01*
X59463313Y-78724364D01*
X59463302Y-78724366D01*
X59243511Y-78783258D01*
X59243501Y-78783262D01*
X59221901Y-78793334D01*
X59152824Y-78803824D01*
X59089040Y-78775302D01*
X59050803Y-78716824D01*
X59045500Y-78680950D01*
X59045500Y-78415452D01*
X59065185Y-78348413D01*
X59081819Y-78327771D01*
X59912772Y-77496819D01*
X59974095Y-77463334D01*
X60000453Y-77460500D01*
X61687867Y-77460500D01*
X61754906Y-77480185D01*
G37*
%TD.AperFunction*%
%TA.AperFunction,Conductor*%
G36*
X57944906Y-74940185D02*
G01*
X57990661Y-74992989D01*
X58000605Y-75062147D01*
X57973405Y-75123547D01*
X57960568Y-75139062D01*
X57952711Y-75147696D01*
X55496208Y-77604199D01*
X55483951Y-77614020D01*
X55484134Y-77614241D01*
X55478122Y-77619214D01*
X55432098Y-77668223D01*
X55429391Y-77671016D01*
X55409889Y-77690517D01*
X55409875Y-77690534D01*
X55407407Y-77693715D01*
X55399843Y-77702570D01*
X55369937Y-77734418D01*
X55369936Y-77734420D01*
X55360284Y-77751976D01*
X55349610Y-77768226D01*
X55337329Y-77784061D01*
X55337324Y-77784068D01*
X55319975Y-77824158D01*
X55314838Y-77834644D01*
X55293803Y-77872906D01*
X55288822Y-77892307D01*
X55282521Y-77910710D01*
X55274562Y-77929102D01*
X55274561Y-77929105D01*
X55267728Y-77972243D01*
X55265360Y-77983674D01*
X55254501Y-78025971D01*
X55254500Y-78025982D01*
X55254500Y-78046016D01*
X55252973Y-78065415D01*
X55249840Y-78085194D01*
X55249840Y-78085195D01*
X55253950Y-78128674D01*
X55254500Y-78140343D01*
X55254500Y-78680950D01*
X55234815Y-78747989D01*
X55182011Y-78793744D01*
X55112853Y-78803688D01*
X55078099Y-78793334D01*
X55056498Y-78783262D01*
X55056488Y-78783258D01*
X54836697Y-78724366D01*
X54836693Y-78724365D01*
X54836692Y-78724365D01*
X54836691Y-78724364D01*
X54836686Y-78724364D01*
X54610002Y-78704532D01*
X54609998Y-78704532D01*
X54383313Y-78724364D01*
X54383302Y-78724366D01*
X54163511Y-78783258D01*
X54163501Y-78783262D01*
X54141901Y-78793334D01*
X54072824Y-78803824D01*
X54009040Y-78775302D01*
X53970803Y-78716824D01*
X53965500Y-78680950D01*
X53965500Y-78415452D01*
X53985185Y-78348413D01*
X54001819Y-78327771D01*
X57372771Y-74956819D01*
X57434094Y-74923334D01*
X57460452Y-74920500D01*
X57877867Y-74920500D01*
X57944906Y-74940185D01*
G37*
%TD.AperFunction*%
%TA.AperFunction,Conductor*%
G36*
X59214906Y-76210185D02*
G01*
X59260661Y-76262989D01*
X59270605Y-76332147D01*
X59243405Y-76393547D01*
X59230568Y-76409062D01*
X59222711Y-76417696D01*
X58036208Y-77604199D01*
X58023951Y-77614020D01*
X58024134Y-77614241D01*
X58018122Y-77619214D01*
X57972098Y-77668223D01*
X57969391Y-77671016D01*
X57949889Y-77690517D01*
X57949875Y-77690534D01*
X57947407Y-77693715D01*
X57939843Y-77702570D01*
X57909937Y-77734418D01*
X57909936Y-77734420D01*
X57900284Y-77751976D01*
X57889610Y-77768226D01*
X57877329Y-77784061D01*
X57877324Y-77784068D01*
X57859975Y-77824158D01*
X57854838Y-77834644D01*
X57833803Y-77872906D01*
X57828822Y-77892307D01*
X57822521Y-77910710D01*
X57814562Y-77929102D01*
X57814561Y-77929105D01*
X57807728Y-77972243D01*
X57805360Y-77983674D01*
X57794501Y-78025971D01*
X57794500Y-78025982D01*
X57794500Y-78046016D01*
X57792973Y-78065415D01*
X57789840Y-78085194D01*
X57789840Y-78085195D01*
X57793950Y-78128674D01*
X57794500Y-78140343D01*
X57794500Y-78680950D01*
X57774815Y-78747989D01*
X57722011Y-78793744D01*
X57652853Y-78803688D01*
X57618099Y-78793334D01*
X57596498Y-78783262D01*
X57596488Y-78783258D01*
X57376697Y-78724366D01*
X57376693Y-78724365D01*
X57376692Y-78724365D01*
X57376691Y-78724364D01*
X57376686Y-78724364D01*
X57150002Y-78704532D01*
X57149998Y-78704532D01*
X56923313Y-78724364D01*
X56923302Y-78724366D01*
X56703511Y-78783258D01*
X56703501Y-78783262D01*
X56681901Y-78793334D01*
X56612824Y-78803824D01*
X56549040Y-78775302D01*
X56510803Y-78716824D01*
X56505500Y-78680950D01*
X56505500Y-78415452D01*
X56525185Y-78348413D01*
X56541819Y-78327771D01*
X58642772Y-76226819D01*
X58704095Y-76193334D01*
X58730453Y-76190500D01*
X59147867Y-76190500D01*
X59214906Y-76210185D01*
G37*
%TD.AperFunction*%
%TA.AperFunction,Conductor*%
G36*
X83887865Y-65313348D02*
G01*
X83932381Y-65364724D01*
X83933495Y-65367112D01*
X83959429Y-65422728D01*
X83959432Y-65422734D01*
X84089954Y-65609141D01*
X84250858Y-65770045D01*
X84261853Y-65777744D01*
X84305477Y-65832322D01*
X84312669Y-65901820D01*
X84281146Y-65964174D01*
X84278409Y-65966999D01*
X72802228Y-77443181D01*
X72740905Y-77476666D01*
X72714547Y-77479500D01*
X72297133Y-77479500D01*
X72230094Y-77459815D01*
X72184339Y-77407011D01*
X72174395Y-77337853D01*
X72201586Y-77276464D01*
X72206453Y-77270579D01*
X72214432Y-77260934D01*
X72222279Y-77252310D01*
X82933788Y-66540801D01*
X82946042Y-66530986D01*
X82945859Y-66530764D01*
X82951868Y-66525791D01*
X82951877Y-66525786D01*
X82997949Y-66476722D01*
X83000566Y-66474023D01*
X83020120Y-66454471D01*
X83022576Y-66451303D01*
X83030156Y-66442427D01*
X83060062Y-66410582D01*
X83069713Y-66393024D01*
X83080396Y-66376761D01*
X83092673Y-66360936D01*
X83110021Y-66320844D01*
X83115157Y-66310362D01*
X83136197Y-66272092D01*
X83141180Y-66252680D01*
X83147481Y-66234280D01*
X83155437Y-66215896D01*
X83162270Y-66172748D01*
X83164633Y-66161338D01*
X83175500Y-66119019D01*
X83175500Y-66098983D01*
X83177027Y-66079582D01*
X83180160Y-66059804D01*
X83176050Y-66016324D01*
X83175500Y-66004655D01*
X83175500Y-65984188D01*
X83195185Y-65917149D01*
X83228377Y-65882613D01*
X83304856Y-65829062D01*
X83389139Y-65770047D01*
X83550047Y-65609139D01*
X83680568Y-65422734D01*
X83707618Y-65364724D01*
X83753790Y-65312285D01*
X83820983Y-65293133D01*
X83887865Y-65313348D01*
G37*
%TD.AperFunction*%
%TA.AperFunction,Conductor*%
G36*
X81347865Y-65313348D02*
G01*
X81392381Y-65364724D01*
X81393495Y-65367112D01*
X81419429Y-65422728D01*
X81419432Y-65422734D01*
X81549954Y-65609141D01*
X81710858Y-65770045D01*
X81721848Y-65777740D01*
X81765475Y-65832316D01*
X81772670Y-65901814D01*
X81741150Y-65964169D01*
X81738409Y-65966998D01*
X71532228Y-76173181D01*
X71470905Y-76206666D01*
X71444547Y-76209500D01*
X71027133Y-76209500D01*
X70960094Y-76189815D01*
X70914339Y-76137011D01*
X70904395Y-76067853D01*
X70931583Y-76006467D01*
X70936569Y-76000437D01*
X70944431Y-75990934D01*
X70952279Y-75982309D01*
X80393788Y-66540801D01*
X80406042Y-66530986D01*
X80405859Y-66530764D01*
X80411868Y-66525791D01*
X80411877Y-66525786D01*
X80457949Y-66476722D01*
X80460566Y-66474023D01*
X80480120Y-66454471D01*
X80482576Y-66451303D01*
X80490156Y-66442427D01*
X80520062Y-66410582D01*
X80529713Y-66393024D01*
X80540396Y-66376761D01*
X80552673Y-66360936D01*
X80570021Y-66320844D01*
X80575157Y-66310362D01*
X80596197Y-66272092D01*
X80601180Y-66252680D01*
X80607481Y-66234280D01*
X80615437Y-66215896D01*
X80622270Y-66172748D01*
X80624633Y-66161338D01*
X80635500Y-66119019D01*
X80635500Y-66098983D01*
X80637027Y-66079582D01*
X80640160Y-66059804D01*
X80636050Y-66016324D01*
X80635500Y-66004655D01*
X80635500Y-65984188D01*
X80655185Y-65917149D01*
X80688377Y-65882613D01*
X80764856Y-65829062D01*
X80849139Y-65770047D01*
X81010047Y-65609139D01*
X81140568Y-65422734D01*
X81167618Y-65364724D01*
X81213790Y-65312285D01*
X81280983Y-65293133D01*
X81347865Y-65313348D01*
G37*
%TD.AperFunction*%
%TA.AperFunction,Conductor*%
G36*
X78807865Y-65313348D02*
G01*
X78852381Y-65364724D01*
X78853495Y-65367112D01*
X78879429Y-65422728D01*
X78879432Y-65422734D01*
X79009954Y-65609141D01*
X79170858Y-65770045D01*
X79181848Y-65777740D01*
X79225475Y-65832316D01*
X79232670Y-65901814D01*
X79201150Y-65964169D01*
X79198409Y-65966998D01*
X70262228Y-74903181D01*
X70200905Y-74936666D01*
X70174547Y-74939500D01*
X69757133Y-74939500D01*
X69690094Y-74919815D01*
X69644339Y-74867011D01*
X69634395Y-74797853D01*
X69661583Y-74736467D01*
X69666569Y-74730437D01*
X69674431Y-74720934D01*
X69682279Y-74712309D01*
X77853788Y-66540801D01*
X77866042Y-66530986D01*
X77865859Y-66530764D01*
X77871868Y-66525791D01*
X77871877Y-66525786D01*
X77917949Y-66476722D01*
X77920566Y-66474023D01*
X77940120Y-66454471D01*
X77942576Y-66451303D01*
X77950156Y-66442427D01*
X77980062Y-66410582D01*
X77989715Y-66393020D01*
X78000389Y-66376770D01*
X78012673Y-66360936D01*
X78030019Y-66320850D01*
X78035157Y-66310362D01*
X78035162Y-66310354D01*
X78056197Y-66272092D01*
X78061178Y-66252689D01*
X78067478Y-66234288D01*
X78075438Y-66215896D01*
X78082272Y-66172741D01*
X78084637Y-66161327D01*
X78095500Y-66119019D01*
X78095500Y-66098983D01*
X78097027Y-66079582D01*
X78100160Y-66059804D01*
X78096050Y-66016324D01*
X78095500Y-66004655D01*
X78095500Y-65984188D01*
X78115185Y-65917149D01*
X78148377Y-65882613D01*
X78224856Y-65829062D01*
X78309139Y-65770047D01*
X78470047Y-65609139D01*
X78600568Y-65422734D01*
X78627618Y-65364724D01*
X78673790Y-65312285D01*
X78740983Y-65293133D01*
X78807865Y-65313348D01*
G37*
%TD.AperFunction*%
%TA.AperFunction,Conductor*%
G36*
X76267865Y-65313348D02*
G01*
X76312381Y-65364724D01*
X76313495Y-65367112D01*
X76339429Y-65422728D01*
X76339432Y-65422734D01*
X76469954Y-65609141D01*
X76630858Y-65770045D01*
X76641853Y-65777744D01*
X76685477Y-65832322D01*
X76692669Y-65901820D01*
X76661146Y-65964174D01*
X76658409Y-65966999D01*
X73302625Y-69322783D01*
X73241302Y-69356268D01*
X73171610Y-69351284D01*
X73122794Y-69318074D01*
X72995872Y-69177113D01*
X72928916Y-69128466D01*
X72886250Y-69073135D01*
X72880272Y-69003522D01*
X72912878Y-68941727D01*
X72914047Y-68940541D01*
X75313786Y-66540802D01*
X75326048Y-66530980D01*
X75325865Y-66530759D01*
X75331868Y-66525791D01*
X75331877Y-66525786D01*
X75377934Y-66476739D01*
X75380600Y-66473989D01*
X75400120Y-66454470D01*
X75402570Y-66451310D01*
X75410154Y-66442429D01*
X75440062Y-66410582D01*
X75449714Y-66393023D01*
X75460389Y-66376772D01*
X75472674Y-66360936D01*
X75490030Y-66320825D01*
X75495161Y-66310354D01*
X75516194Y-66272098D01*
X75516195Y-66272095D01*
X75516197Y-66272092D01*
X75521180Y-66252680D01*
X75527477Y-66234291D01*
X75535438Y-66215895D01*
X75542270Y-66172748D01*
X75544639Y-66161316D01*
X75555499Y-66119022D01*
X75555500Y-66119017D01*
X75555500Y-66098983D01*
X75557027Y-66079582D01*
X75560160Y-66059804D01*
X75556050Y-66016324D01*
X75555500Y-66004655D01*
X75555500Y-65984188D01*
X75575185Y-65917149D01*
X75608377Y-65882613D01*
X75684856Y-65829062D01*
X75769139Y-65770047D01*
X75930047Y-65609139D01*
X76060568Y-65422734D01*
X76087618Y-65364724D01*
X76133790Y-65312285D01*
X76200983Y-65293133D01*
X76267865Y-65313348D01*
G37*
%TD.AperFunction*%
%TA.AperFunction,Conductor*%
G36*
X55947865Y-65313348D02*
G01*
X55992381Y-65364724D01*
X55993495Y-65367112D01*
X56019429Y-65422728D01*
X56019432Y-65422734D01*
X56149954Y-65609141D01*
X56310858Y-65770045D01*
X56341996Y-65791848D01*
X56497266Y-65900568D01*
X56633945Y-65964302D01*
X56686383Y-66010474D01*
X56705535Y-66077668D01*
X56685319Y-66144549D01*
X56673689Y-66159656D01*
X56560285Y-66285604D01*
X56465640Y-66449534D01*
X56465637Y-66449541D01*
X56408343Y-66625876D01*
X56407145Y-66629563D01*
X56387359Y-66817819D01*
X56407145Y-67006075D01*
X56407146Y-67006078D01*
X56456243Y-67157182D01*
X56458238Y-67227023D01*
X56422158Y-67286856D01*
X56359457Y-67317684D01*
X56338312Y-67319500D01*
X55555452Y-67319500D01*
X55488413Y-67299815D01*
X55467771Y-67283181D01*
X54467409Y-66282818D01*
X54433924Y-66221495D01*
X54438908Y-66151803D01*
X54480780Y-66095870D01*
X54546244Y-66071453D01*
X54565890Y-66071608D01*
X54610000Y-66075468D01*
X54610000Y-66075467D01*
X54610001Y-66075468D01*
X54610002Y-66075468D01*
X54666673Y-66070509D01*
X54836692Y-66055635D01*
X55056496Y-65996739D01*
X55262734Y-65900568D01*
X55449139Y-65770047D01*
X55610047Y-65609139D01*
X55740568Y-65422734D01*
X55767618Y-65364724D01*
X55813790Y-65312285D01*
X55880983Y-65293133D01*
X55947865Y-65313348D01*
G37*
%TD.AperFunction*%
%TA.AperFunction,Conductor*%
G36*
X41907703Y-65128804D02*
G01*
X41945477Y-65187582D01*
X41946275Y-65190425D01*
X41953257Y-65216486D01*
X41953261Y-65216497D01*
X42049431Y-65422732D01*
X42049432Y-65422734D01*
X42179954Y-65609141D01*
X42340858Y-65770045D01*
X42371996Y-65791848D01*
X42527266Y-65900568D01*
X42542975Y-65907893D01*
X42595414Y-65954064D01*
X42614567Y-66021257D01*
X42594352Y-66088138D01*
X42542979Y-66132656D01*
X42527514Y-66139867D01*
X42527512Y-66139868D01*
X42454526Y-66190973D01*
X42454526Y-66190974D01*
X43135599Y-66872046D01*
X43054852Y-66884835D01*
X42941955Y-66942359D01*
X42852359Y-67031955D01*
X42794835Y-67144852D01*
X42782046Y-67225598D01*
X42100974Y-66544526D01*
X42100973Y-66544526D01*
X42049868Y-66617512D01*
X42049866Y-66617516D01*
X41953734Y-66823673D01*
X41953731Y-66823680D01*
X41946275Y-66851508D01*
X41909910Y-66911168D01*
X41847063Y-66941697D01*
X41777687Y-66933402D01*
X41723809Y-66888917D01*
X41702535Y-66822365D01*
X41702500Y-66819414D01*
X41702500Y-65222517D01*
X41722185Y-65155478D01*
X41774989Y-65109723D01*
X41844147Y-65099779D01*
X41907703Y-65128804D01*
G37*
%TD.AperFunction*%
%TA.AperFunction,Conductor*%
G36*
X56485587Y-61797185D02*
G01*
X56531342Y-61849989D01*
X56541286Y-61919147D01*
X56512261Y-61982703D01*
X56506229Y-61989181D01*
X55024821Y-63470586D01*
X54963498Y-63504071D01*
X54905048Y-63502680D01*
X54836697Y-63484366D01*
X54836693Y-63484365D01*
X54836692Y-63484365D01*
X54722997Y-63474418D01*
X54610001Y-63464532D01*
X54609998Y-63464532D01*
X54383313Y-63484364D01*
X54383302Y-63484366D01*
X54163511Y-63543258D01*
X54163502Y-63543261D01*
X53957267Y-63639431D01*
X53957265Y-63639432D01*
X53770858Y-63769954D01*
X53609954Y-63930858D01*
X53479432Y-64117265D01*
X53479431Y-64117267D01*
X53452382Y-64175275D01*
X53406209Y-64227714D01*
X53339016Y-64246866D01*
X53272135Y-64226650D01*
X53227618Y-64175275D01*
X53200568Y-64117267D01*
X53200567Y-64117265D01*
X53070045Y-63930858D01*
X52909141Y-63769954D01*
X52722734Y-63639432D01*
X52722732Y-63639431D01*
X52516497Y-63543261D01*
X52516488Y-63543258D01*
X52296697Y-63484366D01*
X52296693Y-63484365D01*
X52296692Y-63484365D01*
X52296691Y-63484364D01*
X52296686Y-63484364D01*
X52070002Y-63464532D01*
X52069998Y-63464532D01*
X51843313Y-63484364D01*
X51843302Y-63484366D01*
X51623511Y-63543258D01*
X51623502Y-63543261D01*
X51417267Y-63639431D01*
X51417265Y-63639432D01*
X51230858Y-63769954D01*
X51069954Y-63930858D01*
X50939432Y-64117265D01*
X50939431Y-64117267D01*
X50912382Y-64175275D01*
X50866209Y-64227714D01*
X50799016Y-64246866D01*
X50732135Y-64226650D01*
X50687618Y-64175275D01*
X50660568Y-64117267D01*
X50660567Y-64117265D01*
X50530045Y-63930858D01*
X50369141Y-63769954D01*
X50182734Y-63639432D01*
X50182732Y-63639431D01*
X49976497Y-63543261D01*
X49976488Y-63543258D01*
X49756697Y-63484366D01*
X49756693Y-63484365D01*
X49756692Y-63484365D01*
X49756691Y-63484364D01*
X49756686Y-63484364D01*
X49530002Y-63464532D01*
X49529998Y-63464532D01*
X49303313Y-63484364D01*
X49303302Y-63484366D01*
X49083511Y-63543258D01*
X49083502Y-63543261D01*
X48877267Y-63639431D01*
X48877265Y-63639432D01*
X48690858Y-63769954D01*
X48529954Y-63930858D01*
X48399432Y-64117265D01*
X48399431Y-64117267D01*
X48372382Y-64175275D01*
X48326209Y-64227714D01*
X48259016Y-64246866D01*
X48192135Y-64226650D01*
X48147618Y-64175275D01*
X48120568Y-64117267D01*
X48120567Y-64117265D01*
X47990045Y-63930858D01*
X47962272Y-63903085D01*
X47928787Y-63841762D01*
X47933771Y-63772070D01*
X47962270Y-63727725D01*
X49876178Y-61813819D01*
X49937501Y-61780334D01*
X49963859Y-61777500D01*
X56418548Y-61777500D01*
X56485587Y-61797185D01*
G37*
%TD.AperFunction*%
%TD*%
M02*
