M48
; DRILL file {KiCad 7.0.9} date qui 14 dez 2023 15:38:40
; FORMAT={-:-/ absolute / inch / decimal}
; #@! TF.CreationDate,2023-12-14T15:38:40+00:00
; #@! TF.GenerationSoftware,Kicad,Pcbnew,7.0.9
; #@! TF.FileFunction,Plated,1,2,PTH
FMAT,2
INCH
; #@! TA.AperFunction,Plated,PTH,ViaDrill
T1C0.0157
; #@! TA.AperFunction,Plated,PTH,ComponentDrill
T2C0.0236
; #@! TA.AperFunction,Plated,PTH,ComponentDrill
T3C0.0276
; #@! TA.AperFunction,Plated,PTH,ComponentDrill
T4C0.0295
; #@! TA.AperFunction,Plated,PTH,ComponentDrill
T5C0.0315
; #@! TA.AperFunction,Plated,PTH,ComponentDrill
T6C0.0354
; #@! TA.AperFunction,Plated,PTH,ComponentDrill
T7C0.0390
; #@! TA.AperFunction,Plated,PTH,ComponentDrill
T8C0.0394
; #@! TA.AperFunction,Plated,PTH,ComponentDrill
T9C0.0472
; #@! TA.AperFunction,Plated,PTH,ComponentDrill
T10C0.0512
%
G90
G05
T1
X1.068Y-4.602
X1.284Y-5.924
X1.369Y-3.872
X1.3886Y-4.403
X1.4Y-4.5
X1.419Y-4.35
X1.426Y-3.755
X1.428Y-5.8386
X1.4465Y-5.2465
X1.45Y-4.45
X1.522Y-4.407
X1.527Y-4.307
X1.5285Y-4.206
X1.538Y-4.0
X1.54Y-5.0
X1.54Y-5.175
X1.6315Y-3.32
X1.6886Y-3.3
X1.725Y-3.75
X1.725Y-3.85
X1.725Y-3.955
X1.725Y-4.07
X1.725Y-4.15
X1.73Y-4.27
X1.74Y-6.14
X1.752Y-3.219
X1.76Y-3.04
X1.79Y-5.6
X1.791Y-6.111
X1.792Y-3.575
X1.8Y-3.3
X1.8Y-3.41
X1.85Y-3.0
X1.852Y-3.0571
X1.854Y-6.094
X1.862Y-3.291
X1.867Y-3.442
X1.88Y-3.67
X1.893Y-2.802
X1.9Y-3.38
X1.92Y-3.61
X1.952Y-2.942
X1.97Y-4.88
X1.977Y-2.817
X1.98Y-5.57
X1.984Y-4.42
X1.987Y-4.283
X1.9916Y-4.1211
X1.992Y-3.204
X1.993Y-4.191
X1.996Y-5.712
X1.998Y-3.968
X2.0Y-4.58
X2.01Y-4.04
X2.0173Y-4.8173
X2.018Y-3.746
X2.02Y-6.08
X2.022Y-3.652
X2.0685Y-4.4228
X2.0774Y-5.14
X2.0791Y-4.8334
X2.094Y-2.83
X2.13Y-3.3946
X2.14Y-5.45
X2.1402Y-4.5898
X2.15Y-4.8515
X2.15Y-4.91
X2.16Y-5.09
X2.162Y-4.1992
X2.18Y-3.86
X2.18Y-3.9
X2.18Y-5.98
X2.1802Y-4.1098
X2.19Y-4.49
X2.192Y-4.334
X2.2Y-4.5535
X2.2Y-4.6
X2.2002Y-4.0398
X2.2009Y-5.1729
X2.206Y-3.47
X2.215Y-3.18
X2.22Y-3.56
X2.25Y-4.6
X2.2504Y-6.0754
X2.2561Y-4.4668
X2.258Y-4.892
X2.258Y-5.409
X2.26Y-2.956
X2.26Y-3.79
X2.26Y-5.599
X2.274Y-4.758
X2.275Y-3.635
X2.278Y-3.9711
X2.278Y-5.986
X2.28Y-5.262
X2.28Y-5.854
X2.2915Y-4.113
X2.2915Y-4.34
X2.3005Y-4.5835
X2.32Y-3.755
X2.3215Y-3.6715
X2.331Y-4.9149
X2.3352Y-3.2589
X2.35Y-4.4885
X2.35Y-4.555
X2.352Y-3.432
X2.363Y-3.495
X2.365Y-4.8815
X2.3669Y-3.0485
X2.3928Y-4.5582
X2.414Y-3.182
X2.431Y-3.505
X2.434Y-3.628
X2.4433Y-4.5215
X2.45Y-5.75
X2.4773Y-5.1427
X2.4807Y-3.6988
X2.4859Y-5.0736
X2.486Y-5.682
X2.495Y-3.26
X2.5Y-5.3
X2.5Y-5.4
X2.5Y-5.6
X2.504Y-5.921
X2.5094Y-5.1655
X2.51Y-4.09
X2.54Y-4.02
X2.55Y-3.0125
X2.55Y-4.1429
X2.55Y-4.5481
X2.5798Y-5.6702
X2.594Y-5.246
X2.6Y-4.54
X2.6Y-4.7784
X2.6Y-5.16
X2.6Y-5.5
X2.6085Y-4.2
X2.615Y-4.905
X2.62Y-6.005
X2.625Y-3.2589
X2.6298Y-4.1302
X2.65Y-4.05
X2.65Y-4.25
X2.7Y-3.94
X2.705Y-5.085
X2.7393Y-3.6899
X2.7548Y-4.0123
X2.7623Y-3.3377
X2.769Y-3.194
X2.78Y-5.14
X2.7877Y-3.2452
X2.797Y-3.428
X2.797Y-3.92
X2.8Y-4.25
X2.8Y-4.6285
X2.818Y-5.177
X2.824Y-5.714
X2.828Y-3.2452
X2.8347Y-3.674
X2.838Y-3.9345
X2.85Y-5.1
X2.8649Y-4.5415
X2.8668Y-3.4278
X2.8885Y-3.2255
X2.895Y-5.215
X2.8994Y-4.8006
X2.9Y-5.1
X2.944Y-5.754
X2.952Y-5.592
X2.953Y-3.3434
X2.956Y-3.195
X3.0Y-4.64
X3.0149Y-3.7349
X3.02Y-4.54
X3.025Y-3.475
X3.029Y-3.616
X3.0396Y-3.0531
X3.0459Y-3.1935
X3.0486Y-3.3341
X3.05Y-4.98
X3.06Y-4.73
X3.064Y-4.6805
X3.0646Y-4.775
X3.0834Y-5.0116
X3.0903Y-3.7403
X3.095Y-5.595
X3.114Y-3.848
X3.1216Y-4.7907
X3.122Y-5.946
X3.1367Y-4.44
X3.137Y-3.056
X3.1393Y-4.715
X3.1394Y-4.6453
X3.145Y-3.575
X3.145Y-3.6385
X3.15Y-4.5682
X3.16Y-5.336
X3.1652Y-5.1648
X3.1715Y-3.18
X3.183Y-4.899
X3.1885Y-3.3242
X3.2Y-6.0062
X3.2114Y-4.8176
X3.2285Y-3.76
X3.2335Y-3.0531
X3.24Y-3.1785
X3.25Y-5.65
X3.3Y-5.3
X3.3Y-5.35
X3.3Y-5.85
X3.3077Y-5.7173
X3.3269Y-3.4331
X3.3661Y-3.3502
X3.372Y-3.1608
X3.39Y-3.75
X3.41Y-4.45
X3.415Y-4.299
X3.4198Y-4.9602
X3.44Y-3.5085
X3.45Y-3.0354
X3.48Y-4.59
X3.485Y-3.343
X3.489Y-5.317
X3.491Y-5.404
X3.5Y-4.25
X3.5Y-5.65
X3.52Y-3.48
X3.5215Y-3.0015
X3.542Y-5.515
X3.55Y-3.8557
X3.56Y-5.998
X3.57Y-5.756
X3.573Y-4.967
X3.58Y-3.64
X3.586Y-4.011
X3.595Y-5.29
X3.6Y-3.45
X3.6Y-5.38
X3.605Y-3.801
X3.606Y-3.0235
X3.63Y-3.5485
X3.65Y-3.155
X3.6885Y-4.9962
X3.69Y-3.018
X3.73Y-4.98
X3.736Y-4.302
X3.76Y-5.46
X3.7715Y-5.52
X3.7715Y-5.75
X3.78Y-6.1
X3.8016Y-3.683
X3.805Y-5.35
X3.805Y-6.03
X3.81Y-4.99
X3.8102Y-3.3856
X3.8152Y-5.2748
X3.854Y-3.343
X3.855Y-3.121
X3.882Y-2.892
X3.885Y-5.1781
X3.9Y-3.3494
X3.926Y-3.049
X3.9444Y-5.6527
X3.9547Y-3.5153
X3.9652Y-5.1252
X3.972Y-5.038
X3.976Y-2.958
X3.9855Y-4.5472
X4.01Y-5.13
X4.044Y-5.046
X4.05Y-4.2
X4.05Y-4.27
X4.058Y-5.268
X4.06Y-4.34
X4.094Y-4.6
X4.095Y-4.036
X4.1Y-3.844
X4.1Y-5.6
X4.109Y-3.943
X4.12Y-5.8842
X4.138Y-5.018
X4.15Y-4.15
X4.1702Y-3.8702
X4.19Y-3.935
X4.19Y-4.5
X4.198Y-3.74
X4.2Y-4.67
X4.202Y-3.344
X4.22Y-3.9713
X4.22Y-4.15
X4.27Y-3.03
X4.28Y-2.826
X4.2827Y-2.8839
X4.289Y-5.7935
X4.297Y-5.123
X4.2997Y-3.096
X4.3Y-5.4
X4.3Y-5.5
X4.3Y-5.6
X4.3Y-6.0244
X4.3Y-6.0638
X4.306Y-4.558
X4.3085Y-4.12
X4.31Y-3.8677
X4.31Y-4.66
X4.3193Y-4.3991
X4.322Y-2.886
X4.323Y-4.082
X4.325Y-5.2035
X4.34Y-3.1463
X4.3418Y-5.2976
X4.3498Y-3.8502
X4.3732Y-5.0638
X4.386Y-4.562
X4.4Y-4.74
X4.4037Y-3.8233
X4.404Y-3.4541
X4.4185Y-4.902
X4.46Y-5.051
X4.47Y-5.402
X4.47Y-5.5
X4.47Y-5.63
X4.472Y-5.2058
X4.486Y-4.708
X4.5Y-3.95
X4.503Y-4.081
X4.514Y-4.2752
X4.526Y-3.54
X4.53Y-5.95
X4.5398Y-4.0
X4.5538Y-5.8442
X4.555Y-5.63
X4.58Y-4.26
X4.58Y-4.9
X4.5812Y-5.7215
X4.6Y-5.4
X4.6015Y-5.672
X4.6016Y-5.2727
X4.6125Y-4.1425
X4.621Y-3.997
X4.638Y-2.7874
X4.655Y-3.462
X4.66Y-4.21
X4.6712Y-3.7772
X4.675Y-3.8163
X4.684Y-3.0018
X4.684Y-5.022
X4.686Y-2.7874
X4.7078Y-4.6038
X4.7341Y-5.2772
X4.7498Y-4.1098
X4.755Y-3.6392
X4.758Y-2.8051
X4.7714Y-3.99
X4.7741Y-4.7118
X4.7822Y-4.4522
X4.79Y-2.99
X4.79Y-5.63
X4.7923Y-4.3285
X4.8003Y-4.6794
X4.806Y-2.808
X4.8076Y-4.7676
X4.81Y-4.2503
X4.81Y-5.71
X4.81Y-5.83
X4.85Y-5.56
X4.854Y-3.824
X4.8614Y-4.25
X4.866Y-3.465
X4.8799Y-4.3285
X4.9Y-2.98
X4.93Y-4.7065
X4.9398Y-4.95
X4.95Y-3.056
X4.9548Y-3.6498
X4.961Y-3.468
X4.9751Y-3.2751
X4.9793Y-3.3197
X5.0Y-2.98
X5.0Y-5.9
X5.009Y-4.009
X5.0123Y-3.2577
X5.026Y-5.269
X5.0282Y-4.7194
X5.05Y-3.2279
X5.0563Y-4.25
X5.0642Y-5.644
X5.082Y-5.566
X5.1Y-2.98
X5.1Y-4.35
X5.1052Y-4.7732
X5.1075Y-3.465
X5.11Y-3.275
X5.11Y-5.63
X5.11Y-5.83
X5.1128Y-5.7245
X5.1285Y-4.686
X5.138Y-4.748
X5.14Y-5.94
X5.149Y-5.43
X5.15Y-4.15
X5.15Y-4.3
X5.15Y-4.4
X5.15Y-4.55
X5.158Y-5.173
X5.159Y-5.068
X5.17Y-4.63
X5.1821Y-5.3224
X5.185Y-4.1936
X5.2Y-2.98
X5.22Y-3.46
X5.24Y-3.5329
X5.265Y-3.2102
X5.265Y-3.46
X5.3Y-2.98
X5.3004Y-4.8415
X5.33Y-3.525
X5.33Y-5.35
X5.335Y-5.85
X5.3352Y-5.45
X5.3352Y-5.54
X5.34Y-5.152
X5.3452Y-3.75
X5.3501Y-5.6941
X5.3575Y-5.0166
X5.3715Y-3.445
X5.4Y-2.98
X5.4Y-4.635
X5.4023Y-3.95
X5.41Y-5.9365
X5.4437Y-3.8144
X5.4437Y-3.973
X5.46Y-3.45
X5.5Y-2.98
X5.5008Y-4.1
X5.5008Y-4.5
X5.52Y-3.43
X5.5427Y-3.8479
X5.56Y-3.385
X5.59Y-3.7472
X5.591Y-3.8283
X5.6Y-2.98
X5.607Y-3.707
X5.618Y-3.529
X5.635Y-3.37
X5.65Y-3.7
X5.65Y-4.7795
X5.68Y-3.3
X5.7Y-2.98
X5.7Y-3.55
X5.7Y-3.65
X5.7254Y-4.46
X5.74Y-4.54
X5.74Y-4.84
X5.76Y-3.355
X5.76Y-3.44
X5.76Y-3.56
X5.7749Y-3.9169
X5.7929Y-3.2102
X5.8Y-2.98
X5.83Y-5.16
X5.84Y-5.64
X5.84Y-5.74
X5.84Y-5.85
X5.8498Y-4.8998
X5.85Y-3.295
X5.852Y-5.256
X5.86Y-3.66
X5.86Y-3.74
X5.88Y-5.43
X5.9Y-2.98
X5.9Y-4.4
X5.91Y-5.1
X5.92Y-3.5
X5.95Y-3.3
X5.97Y-5.29
X6.0Y-3.2
X6.0Y-3.4484
X6.034Y-3.826
X6.0922Y-3.6678
X6.1Y-4.5959
X6.1151Y-5.2182
X6.119Y-5.332
X6.12Y-3.64
X6.12Y-6.15
X6.1222Y-4.0
X6.13Y-4.7795
X6.136Y-4.72
X6.14Y-2.97
X6.14Y-3.825
X6.1498Y-3.2098
X6.15Y-5.0278
X6.15Y-5.2
X6.1571Y-4.9891
X6.16Y-5.91
X6.17Y-3.6
X6.2Y-3.0
X6.2Y-4.95
X6.2012Y-4.9084
X6.22Y-3.6
X6.225Y-4.7
X6.225Y-4.7795
X6.24Y-5.067
X6.24Y-5.85
X6.25Y-3.05
X6.25Y-3.24
X6.25Y-5.55
X6.2535Y-4.7465
X6.2538Y-5.113
X6.2562Y-5.36
X6.275Y-3.9077
X6.29Y-6.15
X6.3Y-4.0057
X6.34Y-5.67
X6.35Y-5.8
X6.37Y-3.3
X6.3944Y-5.039
X6.4Y-5.95
X6.44Y-3.67
X6.45Y-3.405
X6.4505Y-3.82
X6.46Y-3.744
X6.4698Y-3.5802
X6.475Y-5.0
X6.508Y-6.126
X6.5085Y-4.9756
X6.55Y-3.22
X6.56Y-3.78
X6.56Y-4.975
X6.56Y-5.26
X6.57Y-5.91
X6.59Y-5.75
X6.604Y-4.721
X6.6092Y-4.975
X6.62Y-4.6
X6.634Y-4.68
X6.64Y-5.82
X6.65Y-4.49
X6.69Y-5.362
X6.69Y-6.15
X6.695Y-4.986
X6.702Y-4.337
X6.723Y-4.449
X6.736Y-4.278
X6.7392Y-4.388
X6.7392Y-4.642
X6.743Y-4.022
X6.766Y-6.103
X6.7885Y-4.1
X6.7885Y-4.2
X6.794Y-2.875
X6.81Y-5.69
X6.87Y-5.9
X6.88Y-4.7994
X6.92Y-3.8
X6.93Y-5.55
X6.937Y-4.7069
X6.94Y-4.7994
X6.94Y-5.056
X6.94Y-5.33
X6.94Y-5.8
X6.9563Y-4.6281
X6.957Y-5.155
X6.975Y-3.018
X6.98Y-4.679
X6.991Y-5.472
X7.0Y-6.1405
X7.0762Y-5.15
X7.088Y-4.9248
X7.102Y-4.824
X7.119Y-4.167
X7.142Y-4.503
X7.16Y-4.6
X7.1638Y-4.666
X7.172Y-4.356
X7.18Y-4.9248
X7.1815Y-4.429
X7.215Y-4.161
X7.22Y-5.4
X7.22Y-5.49
X7.23Y-5.32
X7.238Y-3.974
X7.25Y-5.55
X7.25Y-5.61
X7.25Y-5.8
X7.26Y-5.69
X7.282Y-4.126
X7.31Y-5.29
X7.31Y-5.38
X7.31Y-5.49
X7.316Y-5.088
X7.32Y-5.18
X7.35Y-5.7
X7.35Y-5.86
X7.3785Y-5.25
X7.3785Y-5.54
X7.3792Y-5.35
X7.3792Y-5.45
X7.4Y-3.8
X7.46Y-3.82
X7.51Y-3.8
X7.53Y-3.7559
X7.5407Y-3.8632
X7.6Y-3.85
X7.64Y-4.15
X7.652Y-4.664
X7.68Y-3.84
X7.68Y-4.88
X7.6938Y-4.6534
X7.6965Y-4.84
X7.7Y-3.96
X7.7223Y-4.8827
X7.742Y-4.59
X7.75Y-4.04
X7.75Y-4.2
X7.75Y-4.38
X7.76Y-4.27
X7.7775Y-4.8425
X7.779Y-4.765
X7.84Y-5.76
X7.845Y-4.845
X7.88Y-5.35
X7.88Y-5.65
X7.89Y-5.24
X7.92Y-3.8415
X7.939Y-4.6574
X7.95Y-4.746
X7.95Y-5.05
X7.95Y-5.44
X7.95Y-5.54
X7.96Y-5.1285
X7.96Y-5.74
X7.9702Y-5.3298
X7.98Y-5.63
X7.9804Y-4.0108
X8.0Y-3.85
X8.0058Y-4.7605
X8.05Y-3.85
X8.096Y-4.777
X8.151Y-4.162
X8.157Y-5.874
X8.163Y-5.681
X8.165Y-4.8142
X8.1669Y-4.936
X8.168Y-5.81
X8.19Y-3.98
X8.191Y-5.011
X8.193Y-5.306
X8.196Y-5.196
X8.198Y-5.503
X8.2Y-5.101
X8.201Y-5.405
X8.2516Y-4.1534
X8.332Y-5.715
X8.35Y-6.0
X8.375Y-5.773
X8.3885Y-4.959
X8.44Y-4.9515
X8.44Y-3.84
X8.463Y-5.488
X8.502Y-5.402
X8.511Y-5.065
X8.56Y-4.86
X8.59Y-5.49
X8.6Y-5.05
X8.63Y-3.83
X8.6382Y-4.0598
X8.643Y-4.551
X8.65Y-5.0
X8.678Y-4.682
X8.73Y-5.1285
X8.733Y-5.037
X8.739Y-5.848
X8.7442Y-4.8808
X8.774Y-4.034
X8.774Y-5.204
X8.78Y-4.9166
X8.7921Y-4.8479
X8.86Y-4.83
X8.89Y-3.69
X8.94Y-5.31
X8.95Y-5.45
X8.96Y-4.62
X8.98Y-5.94
X8.99Y-4.84
X9.0Y-5.65
X9.04Y-5.15
X9.06Y-5.49
X9.08Y-5.43
X9.0996Y-4.9
X9.1236Y-4.5829
X9.135Y-4.545
X9.142Y-4.061
X9.158Y-4.653
X9.207Y-4.8931
X9.21Y-3.58
X9.22Y-4.836
X9.23Y-5.24
X9.244Y-5.538
X9.2492Y-4.6008
X9.25Y-4.135
X9.25Y-4.3
X9.25Y-5.38
X9.26Y-3.084
X9.29Y-3.49
X9.32Y-4.7908
X9.3285Y-5.3855
X9.34Y-5.18
X9.38Y-5.42
X9.42Y-4.6
X9.49Y-4.6
X9.5104Y-5.1
X9.5195Y-5.0334
X9.524Y-5.549
X9.527Y-5.652
X9.528Y-4.8848
X9.5463Y-4.85
X9.55Y-4.75
X9.6Y-4.7
X9.65Y-4.14
X9.65Y-4.84
X9.66Y-4.24
X9.66Y-4.33
X9.68Y-4.44
X9.73Y-5.34
X9.73Y-5.44
X9.73Y-5.55
X9.742Y-4.849
X9.75Y-4.95
X9.82Y-4.7715
X9.9012Y-4.7712
X10.05Y-4.8
T2
X1.2694Y-5.2
X1.3284Y-5.2
T3
X1.15Y-5.35
X1.15Y-5.45
X1.15Y-5.55
X1.45Y-5.35
X1.45Y-5.45
X1.45Y-5.55
X1.53Y-4.6135
X1.53Y-4.9135
X2.275Y-3.46
X2.275Y-3.56
X2.575Y-3.46
X2.575Y-3.56
X2.9496Y-3.5573
X3.2496Y-3.5573
X4.05Y-3.4
X4.05Y-3.7
X4.15Y-3.4
X4.15Y-3.7
X4.25Y-3.4
X4.25Y-3.7
X4.35Y-3.4
X4.35Y-3.7
X4.45Y-3.4
X4.45Y-3.7
X4.55Y-3.4
X4.55Y-3.7
X4.759Y-3.399
X4.759Y-3.699
X6.845Y-3.2
X7.145Y-3.2
X7.72Y-3.35
X7.72Y-3.65
X7.81Y-3.35
X7.81Y-3.65
X7.9Y-3.35
X7.9Y-3.65
X7.99Y-3.35
X7.99Y-3.65
X8.08Y-3.35
X8.08Y-3.65
X8.2Y-3.3752
X8.2Y-3.45
X8.2Y-3.53
X8.2Y-3.6048
X8.29Y-3.3752
X8.29Y-3.45
X8.29Y-3.53
X8.29Y-3.6048
X8.38Y-3.3752
X8.38Y-3.45
X8.38Y-3.53
X8.38Y-3.6048
X8.47Y-3.375
X8.47Y-3.4498
X8.47Y-3.53
X8.47Y-3.6048
X8.56Y-3.3752
X8.56Y-3.45
X8.7Y-3.3752
X8.7Y-3.45
X8.79Y-3.3752
X8.79Y-3.45
X8.79Y-3.53
X8.79Y-3.6048
X8.88Y-3.3752
X8.88Y-3.45
X8.88Y-3.53
X8.88Y-3.6048
X8.97Y-3.3752
X8.97Y-3.45
X8.97Y-3.53
X8.97Y-3.6048
X9.06Y-3.376
X9.06Y-3.4508
X9.06Y-3.53
X9.06Y-3.6048
X9.15Y-3.35
X9.15Y-3.65
X9.35Y-3.35
X9.35Y-3.65
X9.45Y-3.35
X9.45Y-3.65
T4
X2.9496Y-3.4673
X3.2496Y-3.4673
X4.654Y-3.399
X4.654Y-3.699
X4.86Y-3.399
X4.86Y-3.699
X9.25Y-3.35
X9.25Y-3.65
T5
X1.27Y-4.6935
X1.27Y-4.8857
X1.3Y-3.65
X1.3Y-3.75
X1.3Y-3.85
X1.3Y-3.95
X1.3Y-4.05
X1.3Y-4.15
X1.3Y-4.25
X1.3Y-4.35
X1.43Y-4.6508
X1.43Y-4.7492
X1.43Y-4.84
X1.43Y-4.9384
X1.45Y-2.95
X1.45Y-3.0484
X1.5016Y-3.525
X1.6Y-3.525
X1.6Y-3.65
X1.6Y-3.75
X1.6Y-3.85
X1.6Y-3.95
X1.6Y-4.05
X1.6Y-4.15
X1.6Y-4.25
X1.6Y-4.35
X1.6Y-5.35
X1.6Y-5.45
X1.6Y-5.55
X1.6Y-5.65
X1.6Y-5.75
X1.6Y-5.85
X1.6Y-5.95
X1.8Y-3.65
X1.8Y-3.75
X1.8Y-3.85
X1.8Y-3.95
X1.8Y-4.05
X1.8Y-4.15
X1.8Y-4.25
X1.8Y-4.35
X1.8016Y-5.175
X1.9Y-4.7
X1.9Y-4.7984
X1.9Y-5.175
X1.9Y-5.35
X1.9Y-5.45
X1.9Y-5.55
X1.9Y-5.65
X1.9Y-5.75
X1.9Y-5.85
X1.9Y-5.95
X2.0008Y-3.525
X2.0502Y-4.6898
X2.0502Y-4.9898
X2.0992Y-3.525
X2.1Y-3.65
X2.1Y-3.75
X2.1Y-3.85
X2.1Y-3.95
X2.1Y-4.05
X2.1Y-4.15
X2.1Y-4.25
X2.1Y-4.35
X2.1004Y-5.2996
X2.1004Y-5.3996
X2.1004Y-5.4996
X2.1004Y-5.5996
X2.1004Y-5.6996
X2.1004Y-5.7996
X2.1004Y-5.8996
X2.1004Y-5.9996
X2.1502Y-4.6898
X2.1502Y-4.9898
X2.2502Y-4.6898
X2.2502Y-4.9898
X2.3016Y-5.175
X2.35Y-3.85
X2.35Y-3.95
X2.35Y-4.05
X2.35Y-4.15
X2.35Y-4.25
X2.35Y-4.35
X2.3502Y-4.6898
X2.3502Y-4.9898
X2.4Y-5.175
X2.4004Y-5.2996
X2.4004Y-5.3996
X2.4004Y-5.4996
X2.4004Y-5.5996
X2.4004Y-5.6996
X2.4004Y-5.7996
X2.4004Y-5.8996
X2.4004Y-5.9996
X2.45Y-3.75
X2.45Y-3.85
X2.45Y-3.95
X2.45Y-4.05
X2.45Y-4.15
X2.45Y-4.25
X2.45Y-4.35
X2.45Y-4.45
X2.4502Y-4.6898
X2.4502Y-4.9898
X2.55Y-3.75
X2.55Y-3.85
X2.55Y-4.35
X2.55Y-4.45
X2.5502Y-4.6898
X2.5502Y-4.9898
X2.65Y-3.75
X2.65Y-3.85
X2.65Y-4.35
X2.65Y-4.45
X2.65Y-5.45
X2.65Y-5.55
X2.65Y-5.65
X2.65Y-5.75
X2.65Y-5.85
X2.6502Y-4.6898
X2.6502Y-4.9898
X2.75Y-3.75
X2.75Y-3.85
X2.75Y-4.35
X2.75Y-4.45
X2.75Y-5.35
X2.75Y-5.45
X2.75Y-5.55
X2.75Y-5.65
X2.75Y-5.75
X2.75Y-5.85
X2.75Y-5.95
X2.7502Y-4.6898
X2.7502Y-4.9898
X2.7516Y-3.55
X2.85Y-3.55
X2.85Y-3.75
X2.85Y-3.85
X2.85Y-4.35
X2.85Y-4.45
X2.85Y-5.35
X2.85Y-5.45
X2.85Y-5.85
X2.85Y-5.95
X2.8502Y-4.6898
X2.8502Y-4.9898
X2.95Y-3.75
X2.95Y-3.85
X2.95Y-3.95
X2.95Y-4.05
X2.95Y-4.15
X2.95Y-4.25
X2.95Y-4.35
X2.95Y-4.45
X2.95Y-5.35
X2.95Y-5.45
X2.95Y-5.85
X2.95Y-5.95
X2.9502Y-4.6898
X2.9502Y-4.9898
X2.9508Y-5.175
X3.0492Y-5.175
X3.05Y-3.85
X3.05Y-3.95
X3.05Y-4.05
X3.05Y-4.15
X3.05Y-4.25
X3.05Y-4.35
X3.05Y-5.35
X3.05Y-5.45
X3.05Y-5.55
X3.05Y-5.65
X3.05Y-5.75
X3.05Y-5.85
X3.05Y-5.95
X3.15Y-5.45
X3.15Y-5.55
X3.15Y-5.65
X3.15Y-5.75
X3.15Y-5.85
X3.3Y-3.7
X3.3Y-3.8
X3.3Y-3.9
X3.3Y-4.0
X3.3Y-4.1
X3.3Y-4.2
X3.3Y-4.3
X3.3Y-4.4
X3.3Y-4.5
X3.3Y-4.6
X3.3Y-4.7
X3.3Y-4.8
X3.3Y-4.9
X3.3Y-5.0
X3.4004Y-5.2996
X3.4004Y-5.3996
X3.4004Y-5.4996
X3.4004Y-5.5996
X3.4004Y-5.6996
X3.4004Y-5.7996
X3.4004Y-5.8996
X3.4004Y-5.9996
X3.6016Y-5.18
X3.7Y-5.18
X3.7004Y-5.2996
X3.7004Y-5.3996
X3.7004Y-5.4996
X3.7004Y-5.5996
X3.7004Y-5.6996
X3.7004Y-5.7996
X3.7004Y-5.8996
X3.7004Y-5.9996
X3.8016Y-3.55
X3.9Y-3.55
X3.9Y-3.7
X3.9Y-3.8
X3.9Y-3.9
X3.9Y-4.0
X3.9Y-4.1
X3.9Y-4.2
X3.9Y-4.3
X3.9Y-4.4
X3.9Y-4.5
X3.9Y-4.6
X3.9Y-4.7
X3.9Y-4.8
X3.9Y-4.9
X3.9Y-5.0
X3.9004Y-5.3
X3.9004Y-5.4
X3.9004Y-5.5
X3.9004Y-5.6
X3.9004Y-5.7
X3.9004Y-5.8
X3.9004Y-5.9
X3.9004Y-6.0
X4.1016Y-5.18
X4.15Y-2.95
X4.15Y-3.0484
X4.15Y-4.45
X4.15Y-4.55
X4.15Y-4.65
X4.15Y-4.75
X4.15Y-4.85
X4.2Y-5.18
X4.2004Y-5.3
X4.2004Y-5.4
X4.2004Y-5.5
X4.2004Y-5.6
X4.2004Y-5.7
X4.2004Y-5.8
X4.2004Y-5.9
X4.2004Y-6.0
X4.25Y-4.35
X4.25Y-4.45
X4.25Y-4.55
X4.25Y-4.65
X4.25Y-4.75
X4.25Y-4.85
X4.25Y-4.95
X4.35Y-4.35
X4.35Y-4.45
X4.35Y-4.85
X4.35Y-4.95
X4.4Y-5.35
X4.4Y-5.45
X4.4Y-5.55
X4.4Y-5.65
X4.4Y-5.75
X4.4Y-5.85
X4.4Y-5.95
X4.45Y-4.35
X4.45Y-4.45
X4.45Y-4.85
X4.45Y-4.95
X4.46Y-4.16
X4.55Y-4.35
X4.55Y-4.45
X4.55Y-4.55
X4.55Y-4.65
X4.55Y-4.75
X4.55Y-4.85
X4.55Y-4.95
X4.5584Y-4.16
X4.6016Y-5.19
X4.65Y-4.45
X4.65Y-4.55
X4.65Y-4.65
X4.65Y-4.75
X4.65Y-4.85
X4.7Y-5.19
X4.7Y-5.35
X4.7Y-5.45
X4.7Y-5.55
X4.7Y-5.65
X4.7Y-5.75
X4.7Y-5.85
X4.7Y-5.95
X4.95Y-3.95
X4.95Y-4.05
X4.95Y-4.15
X4.95Y-4.25
X4.95Y-4.35
X4.95Y-4.45
X4.95Y-4.55
X4.95Y-4.65
X4.95Y-5.05
X4.95Y-5.15
X4.95Y-5.25
X4.95Y-5.35
X4.95Y-5.45
X4.95Y-5.55
X4.95Y-5.65
X4.95Y-5.75
X4.95Y-5.85
X4.95Y-5.95
X5.1516Y-3.82
X5.1516Y-4.8998
X5.25Y-3.82
X5.25Y-3.95
X5.25Y-4.05
X5.25Y-4.15
X5.25Y-4.25
X5.25Y-4.35
X5.25Y-4.45
X5.25Y-4.55
X5.25Y-4.65
X5.25Y-4.8998
X5.25Y-5.05
X5.25Y-5.15
X5.25Y-5.25
X5.25Y-5.35
X5.25Y-5.45
X5.25Y-5.55
X5.25Y-5.65
X5.25Y-5.75
X5.25Y-5.85
X5.25Y-5.95
X5.55Y-3.95
X5.55Y-4.05
X5.55Y-4.15
X5.55Y-4.25
X5.55Y-4.35
X5.55Y-4.45
X5.55Y-4.55
X5.55Y-4.65
X5.6Y-5.05
X5.6Y-5.15
X5.6Y-5.25
X5.6Y-5.35
X5.6Y-5.45
X5.6Y-5.55
X5.6Y-5.65
X5.6Y-5.75
X5.6Y-5.85
X5.75Y-3.82
X5.75Y-5.05
X5.75Y-5.15
X5.75Y-5.25
X5.75Y-5.35
X5.75Y-5.45
X5.75Y-5.55
X5.75Y-5.65
X5.75Y-5.75
X5.75Y-5.85
X5.75Y-5.95
X5.8484Y-3.82
X5.85Y-3.95
X5.85Y-4.05
X5.85Y-4.15
X5.85Y-4.25
X5.85Y-4.35
X5.85Y-4.45
X5.85Y-4.55
X5.85Y-4.65
X5.9516Y-4.8998
X6.05Y-3.95
X6.05Y-4.05
X6.05Y-4.15
X6.05Y-4.25
X6.05Y-4.35
X6.05Y-4.45
X6.05Y-4.55
X6.05Y-4.65
X6.05Y-4.8998
X6.05Y-5.05
X6.05Y-5.15
X6.05Y-5.25
X6.05Y-5.35
X6.05Y-5.45
X6.05Y-5.55
X6.05Y-5.65
X6.05Y-5.75
X6.05Y-5.85
X6.05Y-5.95
X6.2516Y-3.825
X6.35Y-3.825
X6.35Y-3.95
X6.35Y-4.05
X6.35Y-4.15
X6.35Y-4.25
X6.35Y-4.35
X6.35Y-4.45
X6.35Y-4.55
X6.35Y-4.65
X6.35Y-5.15
X6.35Y-5.25
X6.35Y-5.35
X6.35Y-5.45
X6.35Y-5.55
X6.45Y-5.05
X6.45Y-5.15
X6.45Y-5.25
X6.45Y-5.35
X6.45Y-5.45
X6.45Y-5.55
X6.45Y-5.65
X6.5Y-3.35
X6.5Y-3.4484
X6.55Y-3.95
X6.55Y-4.05
X6.55Y-4.15
X6.55Y-4.25
X6.55Y-4.35
X6.55Y-4.45
X6.55Y-4.55
X6.55Y-4.65
X6.55Y-5.05
X6.55Y-5.15
X6.55Y-5.55
X6.55Y-5.65
X6.65Y-4.87
X6.65Y-5.05
X6.65Y-5.15
X6.65Y-5.55
X6.65Y-5.65
X6.6502Y-3.3496
X6.6502Y-3.6496
X6.7484Y-4.87
X6.75Y-5.05
X6.75Y-5.15
X6.75Y-5.25
X6.75Y-5.35
X6.75Y-5.45
X6.75Y-5.55
X6.75Y-5.65
X6.7502Y-3.3496
X6.7502Y-3.6496
X6.7516Y-3.825
X6.85Y-3.825
X6.85Y-3.95
X6.85Y-4.05
X6.85Y-4.15
X6.85Y-4.25
X6.85Y-4.35
X6.85Y-4.45
X6.85Y-4.55
X6.85Y-4.65
X6.85Y-5.15
X6.85Y-5.25
X6.85Y-5.35
X6.85Y-5.45
X6.85Y-5.55
X6.8502Y-3.3496
X6.8502Y-3.6496
X6.9502Y-3.3496
X6.9502Y-3.6496
X7.05Y-3.95
X7.05Y-4.05
X7.05Y-4.15
X7.05Y-4.25
X7.05Y-4.35
X7.05Y-4.45
X7.05Y-4.55
X7.05Y-4.65
X7.0502Y-3.3496
X7.0502Y-3.6496
X7.15Y-5.05
X7.15Y-5.15
X7.15Y-5.25
X7.15Y-5.35
X7.15Y-5.45
X7.15Y-5.55
X7.15Y-5.65
X7.15Y-5.75
X7.15Y-5.85
X7.15Y-5.95
X7.1502Y-3.3496
X7.1502Y-3.6496
X7.2502Y-3.3496
X7.2502Y-3.6496
X7.2516Y-3.83
X7.35Y-3.83
X7.35Y-3.95
X7.35Y-4.05
X7.35Y-4.15
X7.35Y-4.25
X7.35Y-4.35
X7.35Y-4.45
X7.35Y-4.55
X7.35Y-4.65
X7.3502Y-3.3496
X7.3502Y-3.6496
X7.3516Y-4.9
X7.45Y-4.9
X7.45Y-5.05
X7.45Y-5.15
X7.45Y-5.25
X7.45Y-5.35
X7.45Y-5.45
X7.45Y-5.55
X7.45Y-5.65
X7.45Y-5.75
X7.45Y-5.85
X7.45Y-5.95
X7.4502Y-3.3496
X7.4502Y-3.6496
X7.5502Y-3.3496
X7.5502Y-3.6496
X7.5504Y-3.9504
X7.5504Y-4.0504
X7.5504Y-4.1504
X7.5504Y-4.2504
X7.5504Y-4.3504
X7.5504Y-4.4504
X7.5504Y-4.5504
X7.5504Y-4.6504
X7.6Y-5.05
X7.6Y-5.15
X7.6Y-5.25
X7.6Y-5.35
X7.6Y-5.45
X7.6Y-5.55
X7.6Y-5.65
X7.6Y-5.75
X7.6Y-5.85
X7.75Y-5.05
X7.75Y-5.15
X7.75Y-5.25
X7.75Y-5.35
X7.75Y-5.45
X7.75Y-5.55
X7.75Y-5.65
X7.75Y-5.75
X7.75Y-5.85
X7.75Y-5.95
X7.7516Y-3.83
X7.85Y-3.83
X7.8504Y-3.9504
X7.8504Y-4.0504
X7.8504Y-4.1504
X7.8504Y-4.2504
X7.8504Y-4.3504
X7.8504Y-4.4504
X7.8504Y-4.5504
X7.8504Y-4.6504
X7.9516Y-4.9
X8.05Y-3.95
X8.05Y-4.05
X8.05Y-4.15
X8.05Y-4.25
X8.05Y-4.35
X8.05Y-4.45
X8.05Y-4.55
X8.05Y-4.65
X8.05Y-4.9
X8.05Y-5.05
X8.05Y-5.15
X8.05Y-5.25
X8.05Y-5.35
X8.05Y-5.45
X8.05Y-5.55
X8.05Y-5.65
X8.05Y-5.75
X8.05Y-5.85
X8.05Y-5.95
X8.2496Y-4.95
X8.2496Y-5.05
X8.2496Y-5.15
X8.2496Y-5.25
X8.2496Y-5.35
X8.2496Y-5.45
X8.2496Y-5.55
X8.2496Y-5.65
X8.2496Y-5.75
X8.2496Y-5.85
X8.2496Y-5.95
X8.2496Y-6.05
X8.2516Y-3.83
X8.3Y-5.3
X8.3Y-5.4
X8.3Y-5.5
X8.3Y-5.6
X8.35Y-3.83
X8.35Y-3.95
X8.35Y-4.05
X8.35Y-4.15
X8.35Y-4.25
X8.35Y-4.35
X8.35Y-4.45
X8.35Y-4.55
X8.35Y-4.65
X8.4Y-5.2
X8.4Y-5.3
X8.4Y-5.4
X8.4Y-5.5
X8.4Y-5.6
X8.4Y-5.7
X8.5Y-5.2
X8.5Y-5.3
X8.5Y-5.6
X8.5Y-5.7
X8.55Y-3.9496
X8.55Y-4.0496
X8.55Y-4.1496
X8.55Y-4.2496
X8.55Y-4.3496
X8.55Y-4.4496
X8.55Y-4.5496
X8.55Y-4.6496
X8.57Y-3.53
X8.57Y-3.6284
X8.6Y-5.2
X8.6Y-5.3
X8.6Y-5.6
X8.6Y-5.7
X8.69Y-3.53
X8.69Y-3.6284
X8.7Y-5.2
X8.7Y-5.3
X8.7Y-5.4
X8.7Y-5.5
X8.7Y-5.6
X8.7Y-5.7
X8.7416Y-3.83
X8.8Y-5.3
X8.8Y-5.4
X8.8Y-5.5
X8.8Y-5.6
X8.84Y-3.83
X8.8496Y-4.95
X8.8496Y-5.05
X8.8496Y-5.15
X8.8496Y-5.25
X8.8496Y-5.35
X8.8496Y-5.45
X8.8496Y-5.55
X8.8496Y-5.65
X8.8496Y-5.75
X8.8496Y-5.85
X8.8496Y-5.95
X8.8496Y-6.05
X8.85Y-3.9496
X8.85Y-4.0496
X8.85Y-4.1496
X8.85Y-4.2496
X8.85Y-4.3496
X8.85Y-4.4496
X8.85Y-4.5496
X8.85Y-4.6496
X8.975Y-4.95
X8.975Y-5.0484
X9.0504Y-3.95
X9.0504Y-4.05
X9.0504Y-4.15
X9.0504Y-4.25
X9.0504Y-4.35
X9.0504Y-4.45
X9.0504Y-4.55
X9.0504Y-4.65
X9.15Y-5.05
X9.15Y-5.15
X9.15Y-5.25
X9.15Y-5.35
X9.15Y-5.45
X9.15Y-5.55
X9.15Y-5.65
X9.15Y-5.75
X9.2516Y-3.83
X9.35Y-3.83
X9.3504Y-3.95
X9.3504Y-4.05
X9.3504Y-4.15
X9.3504Y-4.25
X9.3504Y-4.35
X9.3504Y-4.45
X9.3504Y-4.55
X9.3504Y-4.65
X9.352Y-4.935
X9.45Y-5.05
X9.45Y-5.15
X9.45Y-5.25
X9.45Y-5.35
X9.45Y-5.45
X9.45Y-5.55
X9.45Y-5.65
X9.45Y-5.75
X9.4504Y-4.935
X9.55Y-3.95
X9.55Y-4.05
X9.55Y-4.15
X9.55Y-4.25
X9.55Y-4.35
X9.55Y-4.45
X9.55Y-4.55
X9.55Y-4.65
X9.6Y-3.6
X9.65Y-5.05
X9.65Y-5.15
X9.65Y-5.25
X9.65Y-5.35
X9.65Y-5.45
X9.65Y-5.55
X9.65Y-5.65
X9.65Y-5.75
X9.6984Y-3.6
X9.7516Y-3.83
X9.85Y-3.83
X9.85Y-3.95
X9.85Y-4.05
X9.85Y-4.15
X9.85Y-4.25
X9.85Y-4.35
X9.85Y-4.45
X9.85Y-4.55
X9.85Y-4.65
X9.8504Y-4.935
X9.9488Y-4.935
X9.95Y-5.05
X9.95Y-5.15
X9.95Y-5.25
X9.95Y-5.35
X9.95Y-5.45
X9.95Y-5.55
X9.95Y-5.65
X9.95Y-5.75
T6
X9.8Y-3.35
X9.9Y-3.35
X10.0201Y-3.2499
X10.0201Y-3.3484
X10.0201Y-3.4468
X10.15Y-3.2499
X10.15Y-3.3484
X10.15Y-3.4468
T7
X1.1113Y-3.2644
X1.1113Y-3.4416
T8
X1.7Y-2.9
X1.7Y-3.1
X1.8Y-2.9
X1.8Y-3.1
X1.9Y-2.9
X1.9Y-3.1
X2.0Y-2.9
X2.0Y-3.1
X2.1Y-2.9
X2.1Y-3.1
X2.2Y-2.9
X2.2Y-3.1
X2.3Y-2.9
X2.3Y-3.1
X2.4Y-2.9
X2.4Y-3.1
X2.5Y-2.9
X2.5Y-3.1
X2.6Y-2.9
X2.6Y-3.1
X2.7Y-2.9
X2.7Y-3.1
X2.8Y-2.9
X2.8Y-3.1
X2.9Y-2.9
X2.9Y-3.1
X3.0Y-2.9
X3.0Y-3.1
X3.1Y-2.9
X3.1Y-3.1
X3.2Y-2.9
X3.2Y-3.1
X3.3Y-2.9
X3.3Y-3.1
X3.4Y-2.9
X3.4Y-3.1
X3.5Y-2.9
X3.5Y-3.1
X3.6Y-2.9
X3.6Y-3.1
X3.7Y-2.9
X3.7Y-3.1
X3.8Y-2.9
X3.8Y-3.1
X4.4Y-2.9
X4.4Y-3.1
X4.5Y-2.9
X4.5Y-3.1
X4.6Y-2.9
X4.6Y-3.1
X4.7Y-2.9
X4.7Y-3.1
X4.8Y-2.9
X4.8Y-3.1
X4.9Y-2.9
X4.9Y-3.1
X5.0Y-2.9
X5.0Y-3.1
X5.1Y-2.9
X5.1Y-3.1
X5.2Y-2.9
X5.2Y-3.1
X5.3Y-2.9
X5.3Y-3.1
X5.4Y-2.9
X5.4Y-3.1
X5.4Y-4.05
X5.4Y-4.15
X5.4Y-4.25
X5.4Y-4.35
X5.4Y-4.45
X5.4Y-5.15
X5.4Y-5.25
X5.4Y-5.35
X5.4Y-5.45
X5.4Y-5.55
X5.4Y-5.65
X5.4Y-5.75
X5.4Y-5.85
X5.5Y-2.9
X5.5Y-3.1
X5.6Y-2.9
X5.6Y-3.1
X5.7Y-2.9
X5.7Y-3.1
X5.8Y-2.9
X5.8Y-3.1
X5.9Y-2.9
X5.9Y-3.1
X6.0Y-2.9
X6.0Y-3.1
X6.1Y-2.9
X6.1Y-3.1
X6.2Y-2.9
X6.2Y-3.1
X6.3Y-2.9
X6.3Y-3.1
X6.4Y-2.9
X6.4Y-3.1
X6.5Y-2.9
X6.5Y-3.1
T9
X7.4Y-3.1866
X7.475Y-2.9866
X7.55Y-3.1866
X7.625Y-2.9866
X7.7Y-3.1866
X7.775Y-2.9866
X7.85Y-3.1866
X7.925Y-2.9866
X8.0Y-3.1866
X8.075Y-2.9866
X8.15Y-3.1866
X8.225Y-2.9866
X8.3Y-3.1866
X8.375Y-2.9866
X8.45Y-3.1866
X8.525Y-2.9866
X8.6Y-3.1866
X8.675Y-2.9866
X8.75Y-3.1866
X8.825Y-2.9866
X8.9Y-3.1866
T10
X1.2093Y-3.2148
X1.2093Y-3.4908
T8
G00X9.415Y-2.9925
M15
G01X9.415Y-3.0713
M16
G05
G00X9.6394Y-2.9138
M15
G01X9.5606Y-2.9138
M16
G05
G00X9.6394Y-3.15
M15
G01X9.5606Y-3.15
M16
G05
T0
M30
