%TF.GenerationSoftware,KiCad,Pcbnew,7.0.9*%
%TF.CreationDate,2023-12-14T15:38:49+00:00*%
%TF.ProjectId,v1a,7631612e-6b69-4636-9164-5f7063625858,rev?*%
%TF.SameCoordinates,Original*%
%TF.FileFunction,Soldermask,Top*%
%TF.FilePolarity,Negative*%
%FSLAX46Y46*%
G04 Gerber Fmt 4.6, Leading zero omitted, Abs format (unit mm)*
G04 Created by KiCad (PCBNEW 7.0.9) date 2023-12-14 15:38:49*
%MOMM*%
%LPD*%
G01*
G04 APERTURE LIST*
G04 Aperture macros list*
%AMRoundRect*
0 Rectangle with rounded corners*
0 $1 Rounding radius*
0 $2 $3 $4 $5 $6 $7 $8 $9 X,Y pos of 4 corners*
0 Add a 4 corners polygon primitive as box body*
4,1,4,$2,$3,$4,$5,$6,$7,$8,$9,$2,$3,0*
0 Add four circle primitives for the rounded corners*
1,1,$1+$1,$2,$3*
1,1,$1+$1,$4,$5*
1,1,$1+$1,$6,$7*
1,1,$1+$1,$8,$9*
0 Add four rect primitives between the rounded corners*
20,1,$1+$1,$2,$3,$4,$5,0*
20,1,$1+$1,$4,$5,$6,$7,0*
20,1,$1+$1,$6,$7,$8,$9,0*
20,1,$1+$1,$8,$9,$2,$3,0*%
G04 Aperture macros list end*
%ADD10C,1.400000*%
%ADD11O,1.400000X1.400000*%
%ADD12R,2.400000X1.600000*%
%ADD13O,2.400000X1.600000*%
%ADD14C,3.200000*%
%ADD15C,1.600000*%
%ADD16R,1.422400X1.422400*%
%ADD17C,1.422400*%
%ADD18O,3.100000X4.100000*%
%ADD19C,1.998980*%
%ADD20R,1.400000X1.400000*%
%ADD21R,1.700000X1.700000*%
%ADD22O,1.700000X1.700000*%
%ADD23C,1.500000*%
%ADD24C,1.700000*%
%ADD25R,3.500000X3.500000*%
%ADD26RoundRect,0.750000X-1.000000X0.750000X-1.000000X-0.750000X1.000000X-0.750000X1.000000X0.750000X0*%
%ADD27RoundRect,0.875000X-0.875000X0.875000X-0.875000X-0.875000X0.875000X-0.875000X0.875000X0.875000X0*%
%ADD28R,1.600000X1.600000*%
%ADD29O,1.600000X1.600000*%
%ADD30R,1.500000X1.500000*%
%ADD31O,1.500000X1.500000*%
%ADD32R,1.800000X1.800000*%
%ADD33C,1.800000*%
%ADD34R,1.600000X2.400000*%
%ADD35O,1.600000X2.400000*%
%ADD36C,2.100000*%
%ADD37C,1.750000*%
%ADD38R,1.200000X1.200000*%
%ADD39C,1.200000*%
G04 APERTURE END LIST*
D10*
%TO.C,R3*%
X65405000Y-87884000D03*
D11*
X57785000Y-87884000D03*
%TD*%
D10*
%TO.C,R26*%
X215138000Y-85725000D03*
D11*
X215138000Y-87625000D03*
%TD*%
D12*
%TO.C,U9*%
X181610000Y-128270000D03*
D13*
X181610000Y-130810000D03*
X181610000Y-133350000D03*
X181610000Y-135890000D03*
X181610000Y-138430000D03*
X181610000Y-140970000D03*
X181610000Y-143510000D03*
X181610000Y-146050000D03*
X181610000Y-148590000D03*
X181610000Y-151130000D03*
X189230000Y-151130000D03*
X189230000Y-148590000D03*
X189230000Y-146050000D03*
X189230000Y-143510000D03*
X189230000Y-140970000D03*
X189230000Y-138430000D03*
X189230000Y-135890000D03*
X189230000Y-133350000D03*
X189230000Y-130810000D03*
X189230000Y-128270000D03*
%TD*%
D10*
%TO.C,R8*%
X102870000Y-93980000D03*
D11*
X102870000Y-86360000D03*
%TD*%
D10*
%TO.C,R22*%
X215138000Y-89662000D03*
D11*
X215138000Y-91562000D03*
%TD*%
D14*
%TO.C,H2*%
X29000000Y-153000000D03*
%TD*%
D12*
%TO.C,U28*%
X83820000Y-93980000D03*
D13*
X83820000Y-96520000D03*
X83820000Y-99060000D03*
X83820000Y-101600000D03*
X83820000Y-104140000D03*
X83820000Y-106680000D03*
X83820000Y-109220000D03*
X83820000Y-111760000D03*
X83820000Y-114300000D03*
X83820000Y-116840000D03*
X83820000Y-119380000D03*
X83820000Y-121920000D03*
X83820000Y-124460000D03*
X83820000Y-127000000D03*
X99060000Y-127000000D03*
X99060000Y-124460000D03*
X99060000Y-121920000D03*
X99060000Y-119380000D03*
X99060000Y-116840000D03*
X99060000Y-114300000D03*
X99060000Y-111760000D03*
X99060000Y-109220000D03*
X99060000Y-106680000D03*
X99060000Y-104140000D03*
X99060000Y-101600000D03*
X99060000Y-99060000D03*
X99060000Y-96520000D03*
X99060000Y-93980000D03*
%TD*%
D15*
%TO.C,Cd5*%
X74950000Y-131445000D03*
X77450000Y-131445000D03*
%TD*%
D14*
%TO.C,H4*%
X255000000Y-153000000D03*
%TD*%
D10*
%TO.C,R28*%
X230124000Y-89662000D03*
D11*
X230124000Y-91562000D03*
%TD*%
D12*
%TO.C,U31*%
X146050000Y-128270000D03*
D13*
X146050000Y-130810000D03*
X146050000Y-133350000D03*
X146050000Y-135890000D03*
X146050000Y-138430000D03*
X146050000Y-140970000D03*
X146050000Y-143510000D03*
X146050000Y-146050000D03*
X146050000Y-148590000D03*
X146050000Y-151130000D03*
X153670000Y-151130000D03*
X153670000Y-148590000D03*
X153670000Y-146050000D03*
X153670000Y-143510000D03*
X153670000Y-140970000D03*
X153670000Y-138430000D03*
X153670000Y-135890000D03*
X153670000Y-133350000D03*
X153670000Y-130810000D03*
X153670000Y-128270000D03*
%TD*%
D10*
%TO.C,R15*%
X198374000Y-92710000D03*
D11*
X198374000Y-85090000D03*
%TD*%
D12*
%TO.C,U30*%
X125730000Y-100330000D03*
D13*
X125730000Y-102870000D03*
X125730000Y-105410000D03*
X125730000Y-107950000D03*
X125730000Y-110490000D03*
X125730000Y-113030000D03*
X125730000Y-115570000D03*
X125730000Y-118110000D03*
X133350000Y-118110000D03*
X133350000Y-115570000D03*
X133350000Y-113030000D03*
X133350000Y-110490000D03*
X133350000Y-107950000D03*
X133350000Y-105410000D03*
X133350000Y-102870000D03*
X133350000Y-100330000D03*
%TD*%
D10*
%TO.C,R39*%
X173863000Y-81280000D03*
D11*
X181483000Y-81280000D03*
%TD*%
D15*
%TO.C,C2*%
X36322000Y-118130000D03*
X36322000Y-120630000D03*
%TD*%
%TO.C,Cd31*%
X153670000Y-124454985D03*
X151170000Y-124454985D03*
%TD*%
%TO.C,C4*%
X217678000Y-92162000D03*
X217678000Y-89662000D03*
%TD*%
D10*
%TO.C,R16*%
X200660000Y-92710000D03*
D11*
X200660000Y-85090000D03*
%TD*%
D10*
%TO.C,R37*%
X120878600Y-86334600D03*
D11*
X120878600Y-93954600D03*
%TD*%
D16*
%TO.C,U5*%
X74930000Y-138430000D03*
D17*
X72390000Y-135890000D03*
X72390000Y-138430000D03*
X69850000Y-135890000D03*
X67310000Y-138430000D03*
X69850000Y-138430000D03*
X67310000Y-140970000D03*
X69850000Y-140970000D03*
X67310000Y-143510000D03*
X69850000Y-143510000D03*
X67310000Y-146050000D03*
X69850000Y-146050000D03*
X67310000Y-148590000D03*
X69850000Y-151130000D03*
X69850000Y-148590000D03*
X72390000Y-151130000D03*
X72390000Y-148590000D03*
X74930000Y-151130000D03*
X74930000Y-148590000D03*
X77470000Y-151130000D03*
X80010000Y-148590000D03*
X77470000Y-148590000D03*
X80010000Y-146050000D03*
X77470000Y-146050000D03*
X80010000Y-143510000D03*
X77470000Y-143510000D03*
X80010000Y-140970000D03*
X77470000Y-140970000D03*
X80010000Y-138430000D03*
X77470000Y-135890000D03*
X77470000Y-138430000D03*
X74930000Y-135890000D03*
%TD*%
D10*
%TO.C,R21*%
X212852000Y-89662000D03*
D11*
X212852000Y-91562000D03*
%TD*%
D15*
%TO.C,Cd28*%
X99060000Y-90170000D03*
X96560000Y-90170000D03*
%TD*%
%TO.C,Cd9*%
X189230000Y-124460000D03*
X186730000Y-124460000D03*
%TD*%
D10*
%TO.C,R7*%
X38862000Y-117184000D03*
D11*
X38862000Y-124804000D03*
%TD*%
D12*
%TO.C,U2*%
X40640000Y-135890000D03*
D13*
X40640000Y-138430000D03*
X40640000Y-140970000D03*
X40640000Y-143510000D03*
X40640000Y-146050000D03*
X40640000Y-148590000D03*
X40640000Y-151130000D03*
X48260000Y-151130000D03*
X48260000Y-148590000D03*
X48260000Y-146050000D03*
X48260000Y-143510000D03*
X48260000Y-140970000D03*
X48260000Y-138430000D03*
X48260000Y-135890000D03*
%TD*%
D18*
%TO.C,J4*%
X233509820Y-73860660D03*
X180510180Y-73860660D03*
D19*
X187960000Y-80939640D03*
X189865000Y-75859640D03*
X191770000Y-80939640D03*
X193675000Y-75859640D03*
X195580000Y-80939640D03*
X197485000Y-75859640D03*
X199390000Y-80939640D03*
X201295000Y-75859640D03*
X203200000Y-80939640D03*
X205105000Y-75859640D03*
X207010000Y-80939640D03*
X208915000Y-75859640D03*
X210820000Y-80939640D03*
X212725000Y-75859640D03*
X214630000Y-80939640D03*
X216535000Y-75859640D03*
X218440000Y-80939640D03*
X220345000Y-75859640D03*
X222250000Y-80939640D03*
X224155000Y-75859640D03*
X226060000Y-80939640D03*
%TD*%
D10*
%TO.C,R33*%
X227838000Y-85730000D03*
D11*
X227838000Y-87630000D03*
%TD*%
D10*
%TO.C,R32*%
X230124000Y-85751000D03*
D11*
X230124000Y-87651000D03*
%TD*%
D10*
%TO.C,R1*%
X65405000Y-90424000D03*
D11*
X57785000Y-90424000D03*
%TD*%
D10*
%TO.C,R14*%
X196088000Y-92710000D03*
D11*
X196088000Y-85090000D03*
%TD*%
D12*
%TO.C,U16*%
X232410000Y-128270000D03*
D13*
X232410000Y-130810000D03*
X232410000Y-133350000D03*
X232410000Y-135890000D03*
X232410000Y-138430000D03*
X232410000Y-140970000D03*
X232410000Y-143510000D03*
X232410000Y-146050000D03*
X240030000Y-146050000D03*
X240030000Y-143510000D03*
X240030000Y-140970000D03*
X240030000Y-138430000D03*
X240030000Y-135890000D03*
X240030000Y-133350000D03*
X240030000Y-130810000D03*
X240030000Y-128270000D03*
%TD*%
D10*
%TO.C,R41*%
X240030000Y-92710000D03*
D11*
X240030000Y-85090000D03*
%TD*%
D15*
%TO.C,Cd11*%
X53320000Y-89535000D03*
X50820000Y-89535000D03*
%TD*%
D10*
%TO.C,R25*%
X212852000Y-85730000D03*
D11*
X212852000Y-87630000D03*
%TD*%
D20*
%TO.C,SW2*%
X254510000Y-87548300D03*
D10*
X254510000Y-85048300D03*
X254510000Y-82548300D03*
X257810000Y-87548300D03*
X257810000Y-85048300D03*
X257810000Y-82548300D03*
%TD*%
D21*
%TO.C,J2*%
X137160000Y-130810000D03*
D22*
X137160000Y-133350000D03*
X137160000Y-135890000D03*
X137160000Y-138430000D03*
X137160000Y-140970000D03*
X137160000Y-143510000D03*
X137160000Y-146050000D03*
X137160000Y-148590000D03*
%TD*%
D16*
%TO.C,U8*%
X168910000Y-130810000D03*
D17*
X166370000Y-128270000D03*
X166370000Y-130810000D03*
X163830000Y-128270000D03*
X161290000Y-130810000D03*
X163830000Y-130810000D03*
X161290000Y-133350000D03*
X163830000Y-133350000D03*
X161290000Y-135890000D03*
X163830000Y-135890000D03*
X161290000Y-138430000D03*
X163830000Y-138430000D03*
X161290000Y-140970000D03*
X163830000Y-143510000D03*
X163830000Y-140970000D03*
X166370000Y-143510000D03*
X166370000Y-140970000D03*
X168910000Y-143510000D03*
X168910000Y-140970000D03*
X171450000Y-143510000D03*
X173990000Y-140970000D03*
X171450000Y-140970000D03*
X173990000Y-138430000D03*
X171450000Y-138430000D03*
X173990000Y-135890000D03*
X171450000Y-135890000D03*
X173990000Y-133350000D03*
X171450000Y-133350000D03*
X173990000Y-130810000D03*
X171450000Y-128270000D03*
X171450000Y-130810000D03*
X168910000Y-128270000D03*
%TD*%
D10*
%TO.C,R12*%
X113030000Y-93980000D03*
D11*
X113030000Y-86360000D03*
%TD*%
D15*
%TO.C,Cd8*%
X168910000Y-123698000D03*
X171410000Y-123698000D03*
%TD*%
D23*
%TO.C,Y1*%
X32258000Y-119216000D03*
X32258000Y-124096000D03*
%TD*%
D21*
%TO.C,J6*%
X111760000Y-78740000D03*
D22*
X111760000Y-73660000D03*
X114300000Y-78740000D03*
X114300000Y-73660000D03*
X116840000Y-78740000D03*
X116840000Y-73660000D03*
X119380000Y-78740000D03*
X119380000Y-73660000D03*
X121920000Y-78740000D03*
X121920000Y-73660000D03*
X124460000Y-78740000D03*
X124460000Y-73660000D03*
X127000000Y-78740000D03*
X127000000Y-73660000D03*
X129540000Y-78740000D03*
X129540000Y-73660000D03*
X132080000Y-78740000D03*
X132080000Y-73660000D03*
X134620000Y-78740000D03*
X134620000Y-73660000D03*
X137160000Y-78740000D03*
X137160000Y-73660000D03*
X139700000Y-78740000D03*
X139700000Y-73660000D03*
X142240000Y-78740000D03*
X142240000Y-73660000D03*
X144780000Y-78740000D03*
X144780000Y-73660000D03*
X147320000Y-78740000D03*
X147320000Y-73660000D03*
X149860000Y-78740000D03*
X149860000Y-73660000D03*
X152400000Y-78740000D03*
X152400000Y-73660000D03*
X154940000Y-78740000D03*
X154940000Y-73660000D03*
X157480000Y-78740000D03*
X157480000Y-73660000D03*
X160020000Y-78740000D03*
X160020000Y-73660000D03*
D24*
X162560000Y-78740000D03*
X162560000Y-73660000D03*
X165100000Y-78740000D03*
X165100000Y-73660000D03*
%TD*%
D14*
%TO.C,H3*%
X255000000Y-74000000D03*
%TD*%
D25*
%TO.C,J3*%
X243840000Y-80010000D03*
D26*
X243840000Y-74010000D03*
D27*
X239140000Y-77010000D03*
%TD*%
D16*
%TO.C,U29*%
X113030000Y-113030000D03*
D17*
X110490000Y-110490000D03*
X110490000Y-113030000D03*
X107950000Y-110490000D03*
X105410000Y-113030000D03*
X107950000Y-113030000D03*
X105410000Y-115570000D03*
X107950000Y-115570000D03*
X105410000Y-118110000D03*
X107950000Y-118110000D03*
X105410000Y-120650000D03*
X107950000Y-120650000D03*
X105410000Y-123190000D03*
X107950000Y-125730000D03*
X107950000Y-123190000D03*
X110490000Y-125730000D03*
X110490000Y-123190000D03*
X113030000Y-125730000D03*
X113030000Y-123190000D03*
X115570000Y-125730000D03*
X118110000Y-123190000D03*
X115570000Y-123190000D03*
X118110000Y-120650000D03*
X115570000Y-120650000D03*
X118110000Y-118110000D03*
X115570000Y-118110000D03*
X118110000Y-115570000D03*
X115570000Y-115570000D03*
X118110000Y-113030000D03*
X115570000Y-110490000D03*
X115570000Y-113030000D03*
X113030000Y-110490000D03*
%TD*%
D12*
%TO.C,U32*%
X125730000Y-128270000D03*
D13*
X125730000Y-130810000D03*
X125730000Y-133350000D03*
X125730000Y-135890000D03*
X125730000Y-138430000D03*
X125730000Y-140970000D03*
X125730000Y-143510000D03*
X125730000Y-146050000D03*
X125730000Y-148590000D03*
X125730000Y-151130000D03*
X133350000Y-151130000D03*
X133350000Y-148590000D03*
X133350000Y-146050000D03*
X133350000Y-143510000D03*
X133350000Y-140970000D03*
X133350000Y-138430000D03*
X133350000Y-135890000D03*
X133350000Y-133350000D03*
X133350000Y-130810000D03*
X133350000Y-128270000D03*
%TD*%
D15*
%TO.C,Cd14*%
X173990000Y-97155000D03*
X171490000Y-97155000D03*
%TD*%
%TO.C,C3*%
X36322000Y-125436000D03*
X36322000Y-122936000D03*
%TD*%
D28*
%TO.C,RN2*%
X142240000Y-128270000D03*
D29*
X142240000Y-130810000D03*
X142240000Y-133350000D03*
X142240000Y-135890000D03*
X142240000Y-138430000D03*
X142240000Y-140970000D03*
X142240000Y-143510000D03*
X142240000Y-146050000D03*
X142240000Y-148590000D03*
%TD*%
D30*
%TO.C,D1*%
X74920000Y-88070000D03*
D31*
X82540000Y-88070000D03*
%TD*%
D15*
%TO.C,Cd22*%
X212090000Y-97282000D03*
X209590000Y-97282000D03*
%TD*%
D12*
%TO.C,U19*%
X179070000Y-100330000D03*
D13*
X179070000Y-102870000D03*
X179070000Y-105410000D03*
X179070000Y-107950000D03*
X179070000Y-110490000D03*
X179070000Y-113030000D03*
X179070000Y-115570000D03*
X179070000Y-118110000D03*
X186690000Y-118110000D03*
X186690000Y-115570000D03*
X186690000Y-113030000D03*
X186690000Y-110490000D03*
X186690000Y-107950000D03*
X186690000Y-105410000D03*
X186690000Y-102870000D03*
X186690000Y-100330000D03*
%TD*%
D15*
%TO.C,Cd15*%
X165100000Y-85090000D03*
X165100000Y-87590000D03*
%TD*%
D12*
%TO.C,U11*%
X33020000Y-92710000D03*
D13*
X33020000Y-95250000D03*
X33020000Y-97790000D03*
X33020000Y-100330000D03*
X33020000Y-102870000D03*
X33020000Y-105410000D03*
X33020000Y-107950000D03*
X33020000Y-110490000D03*
X40640000Y-110490000D03*
X40640000Y-107950000D03*
X40640000Y-105410000D03*
X40640000Y-102870000D03*
X40640000Y-100330000D03*
X40640000Y-97790000D03*
X40640000Y-95250000D03*
X40640000Y-92710000D03*
%TD*%
D32*
%TO.C,D3*%
X248920000Y-85090000D03*
D33*
X251460000Y-85090000D03*
%TD*%
D10*
%TO.C,R6*%
X29210000Y-135890000D03*
D11*
X36830000Y-135890000D03*
%TD*%
D28*
%TO.C,C6*%
X246340000Y-91440000D03*
D15*
X243840000Y-91440000D03*
%TD*%
D34*
%TO.C,U6*%
X52075000Y-126741015D03*
D35*
X54615000Y-126741015D03*
X57155000Y-126741015D03*
X59695000Y-126741015D03*
X62235000Y-126741015D03*
X64775000Y-126741015D03*
X67315000Y-126741015D03*
X69855000Y-126741015D03*
X72395000Y-126741015D03*
X74935000Y-126741015D03*
X74935000Y-119121015D03*
X72395000Y-119121015D03*
X69855000Y-119121015D03*
X67315000Y-119121015D03*
X64775000Y-119121015D03*
X62235000Y-119121015D03*
X59695000Y-119121015D03*
X57155000Y-119121015D03*
X54615000Y-119121015D03*
X52075000Y-119121015D03*
%TD*%
D28*
%TO.C,C8*%
X105410000Y-74930000D03*
D15*
X105410000Y-77430000D03*
%TD*%
D12*
%TO.C,U17*%
X245110000Y-128270000D03*
D13*
X245110000Y-130810000D03*
X245110000Y-133350000D03*
X245110000Y-135890000D03*
X245110000Y-138430000D03*
X245110000Y-140970000D03*
X245110000Y-143510000D03*
X245110000Y-146050000D03*
X252730000Y-146050000D03*
X252730000Y-143510000D03*
X252730000Y-140970000D03*
X252730000Y-138430000D03*
X252730000Y-135890000D03*
X252730000Y-133350000D03*
X252730000Y-130810000D03*
X252730000Y-128270000D03*
%TD*%
D12*
%TO.C,U7*%
X99070000Y-134620000D03*
D13*
X99070000Y-137160000D03*
X99070000Y-139700000D03*
X99070000Y-142240000D03*
X99070000Y-144780000D03*
X99070000Y-147320000D03*
X99070000Y-149860000D03*
X99070000Y-152400000D03*
X106690000Y-152400000D03*
X106690000Y-149860000D03*
X106690000Y-147320000D03*
X106690000Y-144780000D03*
X106690000Y-142240000D03*
X106690000Y-139700000D03*
X106690000Y-137160000D03*
X106690000Y-134620000D03*
%TD*%
D15*
%TO.C,Cd4*%
X93980000Y-131572000D03*
X91480000Y-131572000D03*
%TD*%
D10*
%TO.C,R29*%
X227838000Y-89662600D03*
D11*
X227838000Y-91562600D03*
%TD*%
D15*
%TO.C,Cd2*%
X48260000Y-131445000D03*
X45760000Y-131445000D03*
%TD*%
D10*
%TO.C,R9*%
X105410000Y-93980000D03*
D11*
X105410000Y-86360000D03*
%TD*%
D30*
%TO.C,D2*%
X234950000Y-85090000D03*
D31*
X234950000Y-92710000D03*
%TD*%
D15*
%TO.C,Cd32*%
X133350000Y-124454985D03*
X130850000Y-124454985D03*
%TD*%
%TO.C,Cd17*%
X252700000Y-125349000D03*
X250200000Y-125349000D03*
%TD*%
D10*
%TO.C,R2*%
X74920000Y-90356000D03*
D11*
X82540000Y-90356000D03*
%TD*%
D28*
%TO.C,U20*%
X209540000Y-125730000D03*
D29*
X209540000Y-128270000D03*
X209540000Y-130810000D03*
X209540000Y-133350000D03*
X209540000Y-135890000D03*
X209540000Y-138430000D03*
X209540000Y-140970000D03*
X209540000Y-143510000D03*
X209540000Y-146050000D03*
X209540000Y-148590000D03*
X209540000Y-151130000D03*
X209540000Y-153670000D03*
X224780000Y-153670000D03*
X224780000Y-151130000D03*
X224780000Y-148590000D03*
X224780000Y-146050000D03*
X224780000Y-143510000D03*
X224780000Y-140970000D03*
X224780000Y-138430000D03*
X224780000Y-135890000D03*
X224780000Y-133350000D03*
X224780000Y-130810000D03*
X224780000Y-128270000D03*
X224780000Y-125730000D03*
%TD*%
D15*
%TO.C,Cd19*%
X186690000Y-97282000D03*
X184190000Y-97282000D03*
%TD*%
D12*
%TO.C,U4*%
X86370000Y-134610000D03*
D13*
X86370000Y-137150000D03*
X86370000Y-139690000D03*
X86370000Y-142230000D03*
X86370000Y-144770000D03*
X86370000Y-147310000D03*
X86370000Y-149850000D03*
X86370000Y-152390000D03*
X93990000Y-152390000D03*
X93990000Y-149850000D03*
X93990000Y-147310000D03*
X93990000Y-144770000D03*
X93990000Y-142230000D03*
X93990000Y-139690000D03*
X93990000Y-137150000D03*
X93990000Y-134610000D03*
%TD*%
D21*
%TO.C,J1*%
X137160000Y-102870000D03*
D22*
X137160000Y-105410000D03*
X137160000Y-107950000D03*
X137160000Y-110490000D03*
X137160000Y-113030000D03*
%TD*%
D15*
%TO.C,Cd27*%
X148550000Y-97028000D03*
X146050000Y-97028000D03*
%TD*%
%TO.C,Cd26*%
X119380000Y-131826000D03*
X116880000Y-131826000D03*
%TD*%
D12*
%TO.C,U12*%
X196850000Y-128270000D03*
D13*
X196850000Y-130810000D03*
X196850000Y-133350000D03*
X196850000Y-135890000D03*
X196850000Y-138430000D03*
X196850000Y-140970000D03*
X196850000Y-143510000D03*
X196850000Y-146050000D03*
X196850000Y-148590000D03*
X196850000Y-151130000D03*
X204470000Y-151130000D03*
X204470000Y-148590000D03*
X204470000Y-146050000D03*
X204470000Y-143510000D03*
X204470000Y-140970000D03*
X204470000Y-138430000D03*
X204470000Y-135890000D03*
X204470000Y-133350000D03*
X204470000Y-130810000D03*
X204470000Y-128270000D03*
%TD*%
D12*
%TO.C,U27*%
X140970000Y-100330000D03*
D13*
X140970000Y-102870000D03*
X140970000Y-105410000D03*
X140970000Y-107950000D03*
X140970000Y-110490000D03*
X140970000Y-113030000D03*
X140970000Y-115570000D03*
X140970000Y-118110000D03*
X148590000Y-118110000D03*
X148590000Y-115570000D03*
X148590000Y-113030000D03*
X148590000Y-110490000D03*
X148590000Y-107950000D03*
X148590000Y-105410000D03*
X148590000Y-102870000D03*
X148590000Y-100330000D03*
%TD*%
D28*
%TO.C,C7*%
X36830000Y-74930000D03*
D15*
X36830000Y-77430000D03*
%TD*%
D10*
%TO.C,R19*%
X208280000Y-89662000D03*
D11*
X208280000Y-91562000D03*
%TD*%
D15*
%TO.C,Cd25*%
X250190000Y-97282000D03*
X247690000Y-97282000D03*
%TD*%
%TO.C,C5*%
X220726000Y-92162000D03*
X220726000Y-89662000D03*
%TD*%
D10*
%TO.C,R38*%
X237490000Y-92710000D03*
D11*
X237490000Y-85090000D03*
%TD*%
D15*
%TO.C,Cd16*%
X240040000Y-125349000D03*
X237540000Y-125349000D03*
%TD*%
D10*
%TO.C,R27*%
X217424000Y-85730000D03*
D11*
X217424000Y-87630000D03*
%TD*%
D36*
%TO.C,SW1*%
X30716100Y-88665800D03*
X30716100Y-81655800D03*
D37*
X28226100Y-87415800D03*
X28226100Y-82915800D03*
%TD*%
D15*
%TO.C,Cd30*%
X133350000Y-97028000D03*
X130850000Y-97028000D03*
%TD*%
D12*
%TO.C,U26*%
X111760000Y-135890000D03*
D13*
X111760000Y-138430000D03*
X111760000Y-140970000D03*
X111760000Y-143510000D03*
X111760000Y-146050000D03*
X111760000Y-148590000D03*
X111760000Y-151130000D03*
X119380000Y-151130000D03*
X119380000Y-148590000D03*
X119380000Y-146050000D03*
X119380000Y-143510000D03*
X119380000Y-140970000D03*
X119380000Y-138430000D03*
X119380000Y-135890000D03*
%TD*%
D30*
%TO.C,D4*%
X118211600Y-93954600D03*
D31*
X118211600Y-86334600D03*
%TD*%
D10*
%TO.C,R11*%
X110490000Y-93980000D03*
D11*
X110490000Y-86360000D03*
%TD*%
D15*
%TO.C,Cd18*%
X199390000Y-97282000D03*
X196890000Y-97282000D03*
%TD*%
D12*
%TO.C,U3*%
X53350000Y-134610000D03*
D13*
X53350000Y-137150000D03*
X53350000Y-139690000D03*
X53350000Y-142230000D03*
X53350000Y-144770000D03*
X53350000Y-147310000D03*
X53350000Y-149850000D03*
X53350000Y-152390000D03*
X60970000Y-152390000D03*
X60970000Y-149850000D03*
X60970000Y-147310000D03*
X60970000Y-144770000D03*
X60970000Y-142230000D03*
X60970000Y-139690000D03*
X60970000Y-137150000D03*
X60970000Y-134610000D03*
%TD*%
D12*
%TO.C,U14*%
X166370000Y-100330000D03*
D13*
X166370000Y-102870000D03*
X166370000Y-105410000D03*
X166370000Y-107950000D03*
X166370000Y-110490000D03*
X166370000Y-113030000D03*
X166370000Y-115570000D03*
X166370000Y-118110000D03*
X173990000Y-118110000D03*
X173990000Y-115570000D03*
X173990000Y-113030000D03*
X173990000Y-110490000D03*
X173990000Y-107950000D03*
X173990000Y-105410000D03*
X173990000Y-102870000D03*
X173990000Y-100330000D03*
%TD*%
D14*
%TO.C,H1*%
X29000000Y-74000000D03*
%TD*%
D38*
%TO.C,C1*%
X33742600Y-132080000D03*
D39*
X32242600Y-132080000D03*
%TD*%
D15*
%TO.C,Cd12*%
X204470000Y-124460000D03*
X201970000Y-124460000D03*
%TD*%
D30*
%TO.C,D5*%
X123444000Y-93954600D03*
D31*
X123444000Y-86334600D03*
%TD*%
D15*
%TO.C,Cd7*%
X106680000Y-131572000D03*
X104180000Y-131572000D03*
%TD*%
%TO.C,Cd24*%
X237490000Y-97282000D03*
X234990000Y-97282000D03*
%TD*%
%TO.C,Cd13*%
X161290000Y-97155000D03*
X158790000Y-97155000D03*
%TD*%
%TO.C,Cd6*%
X48260000Y-119380000D03*
X48260000Y-121880000D03*
%TD*%
D10*
%TO.C,R20*%
X210566000Y-89662000D03*
D11*
X210566000Y-91562000D03*
%TD*%
D10*
%TO.C,R18*%
X205232000Y-92710000D03*
D11*
X205232000Y-85090000D03*
%TD*%
D15*
%TO.C,Cd3*%
X60960000Y-131445000D03*
X58460000Y-131445000D03*
%TD*%
D12*
%TO.C,U13*%
X153670000Y-100330000D03*
D13*
X153670000Y-102870000D03*
X153670000Y-105410000D03*
X153670000Y-107950000D03*
X153670000Y-110490000D03*
X153670000Y-113030000D03*
X153670000Y-115570000D03*
X153670000Y-118110000D03*
X161290000Y-118110000D03*
X161290000Y-115570000D03*
X161290000Y-113030000D03*
X161290000Y-110490000D03*
X161290000Y-107950000D03*
X161290000Y-105410000D03*
X161290000Y-102870000D03*
X161290000Y-100330000D03*
%TD*%
D12*
%TO.C,U23*%
X217170000Y-100320000D03*
D13*
X217170000Y-102860000D03*
X217170000Y-105400000D03*
X217170000Y-107940000D03*
X217170000Y-110480000D03*
X217170000Y-113020000D03*
X217170000Y-115560000D03*
X217170000Y-118100000D03*
X224790000Y-118100000D03*
X224790000Y-115560000D03*
X224790000Y-113020000D03*
X224790000Y-110480000D03*
X224790000Y-107940000D03*
X224790000Y-105400000D03*
X224790000Y-102860000D03*
X224790000Y-100320000D03*
%TD*%
D15*
%TO.C,Cd23*%
X224536000Y-97282000D03*
X222036000Y-97282000D03*
%TD*%
%TO.C,Cd1*%
X72390000Y-90170000D03*
X69890000Y-90170000D03*
%TD*%
D10*
%TO.C,R34*%
X225552000Y-85730000D03*
D11*
X225552000Y-87630000D03*
%TD*%
D15*
%TO.C,Cd29*%
X113284000Y-105664000D03*
X115784000Y-105664000D03*
%TD*%
D16*
%TO.C,U21*%
X218440000Y-134620000D03*
D17*
X215900000Y-132080000D03*
X215900000Y-134620000D03*
X213360000Y-132080000D03*
X210820000Y-134620000D03*
X213360000Y-134620000D03*
X210820000Y-137160000D03*
X213360000Y-137160000D03*
X210820000Y-139700000D03*
X213360000Y-139700000D03*
X210820000Y-142240000D03*
X213360000Y-144780000D03*
X213360000Y-142240000D03*
X215900000Y-144780000D03*
X215900000Y-142240000D03*
X218440000Y-144780000D03*
X218440000Y-142240000D03*
X220980000Y-144780000D03*
X223520000Y-142240000D03*
X220980000Y-142240000D03*
X223520000Y-139700000D03*
X220980000Y-139700000D03*
X223520000Y-137160000D03*
X220980000Y-137160000D03*
X223520000Y-134620000D03*
X220980000Y-132080000D03*
X220980000Y-134620000D03*
X218440000Y-132080000D03*
%TD*%
D12*
%TO.C,U18*%
X191780000Y-100340000D03*
D13*
X191780000Y-102880000D03*
X191780000Y-105420000D03*
X191780000Y-107960000D03*
X191780000Y-110500000D03*
X191780000Y-113040000D03*
X191780000Y-115580000D03*
X191780000Y-118120000D03*
X199400000Y-118120000D03*
X199400000Y-115580000D03*
X199400000Y-113040000D03*
X199400000Y-110500000D03*
X199400000Y-107960000D03*
X199400000Y-105420000D03*
X199400000Y-102880000D03*
X199400000Y-100340000D03*
%TD*%
D12*
%TO.C,U25*%
X242570000Y-100330000D03*
D13*
X242570000Y-102870000D03*
X242570000Y-105410000D03*
X242570000Y-107950000D03*
X242570000Y-110490000D03*
X242570000Y-113030000D03*
X242570000Y-115570000D03*
X242570000Y-118110000D03*
X250190000Y-118110000D03*
X250190000Y-115570000D03*
X250190000Y-113030000D03*
X250190000Y-110490000D03*
X250190000Y-107950000D03*
X250190000Y-105410000D03*
X250190000Y-102870000D03*
X250190000Y-100330000D03*
%TD*%
D10*
%TO.C,R24*%
X210566000Y-85730000D03*
D11*
X210566000Y-87630000D03*
%TD*%
D10*
%TO.C,R30*%
X225552000Y-89662600D03*
D11*
X225552000Y-91562600D03*
%TD*%
D10*
%TO.C,R40*%
X232410000Y-85090000D03*
D11*
X232410000Y-92710000D03*
%TD*%
D21*
%TO.C,J5*%
X43180000Y-78740000D03*
D22*
X43180000Y-73660000D03*
X45720000Y-78740000D03*
X45720000Y-73660000D03*
X48260000Y-78740000D03*
X48260000Y-73660000D03*
X50800000Y-78740000D03*
X50800000Y-73660000D03*
X53340000Y-78740000D03*
X53340000Y-73660000D03*
X55880000Y-78740000D03*
X55880000Y-73660000D03*
X58420000Y-78740000D03*
X58420000Y-73660000D03*
X60960000Y-78740000D03*
X60960000Y-73660000D03*
X63500000Y-78740000D03*
X63500000Y-73660000D03*
X66040000Y-78740000D03*
X66040000Y-73660000D03*
X68580000Y-78740000D03*
X68580000Y-73660000D03*
X71120000Y-78740000D03*
X71120000Y-73660000D03*
X73660000Y-78740000D03*
X73660000Y-73660000D03*
X76200000Y-78740000D03*
X76200000Y-73660000D03*
X78740000Y-78740000D03*
X78740000Y-73660000D03*
X81280000Y-78740000D03*
X81280000Y-73660000D03*
X83820000Y-78740000D03*
X83820000Y-73660000D03*
X86360000Y-78740000D03*
X86360000Y-73660000D03*
X88900000Y-78740000D03*
X88900000Y-73660000D03*
X91440000Y-78740000D03*
X91440000Y-73660000D03*
D24*
X93980000Y-78740000D03*
X93980000Y-73660000D03*
X96520000Y-78740000D03*
X96520000Y-73660000D03*
%TD*%
D10*
%TO.C,R10*%
X107950000Y-93980000D03*
D11*
X107950000Y-86360000D03*
%TD*%
D10*
%TO.C,R31*%
X223266000Y-89662600D03*
D11*
X223266000Y-91562600D03*
%TD*%
D10*
%TO.C,R17*%
X202946000Y-92710000D03*
D11*
X202946000Y-85090000D03*
%TD*%
D10*
%TO.C,R35*%
X223266000Y-85730000D03*
D11*
X223266000Y-87630000D03*
%TD*%
D12*
%TO.C,U22*%
X204470000Y-100330000D03*
D13*
X204470000Y-102870000D03*
X204470000Y-105410000D03*
X204470000Y-107950000D03*
X204470000Y-110490000D03*
X204470000Y-113030000D03*
X204470000Y-115570000D03*
X204470000Y-118110000D03*
X212090000Y-118110000D03*
X212090000Y-115570000D03*
X212090000Y-113030000D03*
X212090000Y-110490000D03*
X212090000Y-107950000D03*
X212090000Y-105410000D03*
X212090000Y-102870000D03*
X212090000Y-100330000D03*
%TD*%
D28*
%TO.C,RN1*%
X193040000Y-128270000D03*
D29*
X193040000Y-130810000D03*
X193040000Y-133350000D03*
X193040000Y-135890000D03*
X193040000Y-138430000D03*
X193040000Y-140970000D03*
X193040000Y-143510000D03*
X193040000Y-146050000D03*
X193040000Y-148590000D03*
%TD*%
D12*
%TO.C,U10*%
X45720000Y-92710000D03*
D13*
X45720000Y-95250000D03*
X45720000Y-97790000D03*
X45720000Y-100330000D03*
X45720000Y-102870000D03*
X45720000Y-105410000D03*
X45720000Y-107950000D03*
X45720000Y-110490000D03*
X53340000Y-110490000D03*
X53340000Y-107950000D03*
X53340000Y-105410000D03*
X53340000Y-102870000D03*
X53340000Y-100330000D03*
X53340000Y-97790000D03*
X53340000Y-95250000D03*
X53340000Y-92710000D03*
%TD*%
D10*
%TO.C,R36*%
X220980000Y-85730000D03*
D11*
X220980000Y-87630000D03*
%TD*%
D15*
%TO.C,Cd20*%
X227965000Y-125730000D03*
X227965000Y-128230000D03*
%TD*%
D10*
%TO.C,R5*%
X36830000Y-138430000D03*
D11*
X29210000Y-138430000D03*
%TD*%
D10*
%TO.C,R4*%
X29210000Y-140970000D03*
D11*
X36830000Y-140970000D03*
%TD*%
D10*
%TO.C,R23*%
X208280000Y-85730000D03*
D11*
X208280000Y-87630000D03*
%TD*%
D16*
%TO.C,U1*%
X69850000Y-97790000D03*
D17*
X67310000Y-95250000D03*
X67310000Y-97790000D03*
X64770000Y-95250000D03*
X64770000Y-97790000D03*
X62230000Y-95250000D03*
X59690000Y-97790000D03*
X62230000Y-97790000D03*
X59690000Y-100330000D03*
X62230000Y-100330000D03*
X59690000Y-102870000D03*
X62230000Y-102870000D03*
X59690000Y-105410000D03*
X62230000Y-105410000D03*
X59690000Y-107950000D03*
X62230000Y-107950000D03*
X59690000Y-110490000D03*
X62230000Y-113030000D03*
X62230000Y-110490000D03*
X64770000Y-113030000D03*
X64770000Y-110490000D03*
X67310000Y-113030000D03*
X67310000Y-110490000D03*
X69850000Y-113030000D03*
X69850000Y-110490000D03*
X72390000Y-113030000D03*
X72390000Y-110490000D03*
X74930000Y-113030000D03*
X77470000Y-110490000D03*
X74930000Y-110490000D03*
X77470000Y-107950000D03*
X74930000Y-107950000D03*
X77470000Y-105410000D03*
X74930000Y-105410000D03*
X77470000Y-102870000D03*
X74930000Y-102870000D03*
X77470000Y-100330000D03*
X74930000Y-100330000D03*
X77470000Y-97790000D03*
X74930000Y-95250000D03*
X74930000Y-97790000D03*
X72390000Y-95250000D03*
X72390000Y-97790000D03*
X69850000Y-95250000D03*
%TD*%
D12*
%TO.C,U24*%
X229880000Y-100330000D03*
D13*
X229880000Y-102870000D03*
X229880000Y-105410000D03*
X229880000Y-107950000D03*
X229880000Y-110490000D03*
X229880000Y-113030000D03*
X229880000Y-115570000D03*
X229880000Y-118110000D03*
X237500000Y-118110000D03*
X237500000Y-115570000D03*
X237500000Y-113030000D03*
X237500000Y-110490000D03*
X237500000Y-107950000D03*
X237500000Y-105410000D03*
X237500000Y-102870000D03*
X237500000Y-100330000D03*
%TD*%
D10*
%TO.C,R13*%
X115570000Y-93980000D03*
D11*
X115570000Y-86360000D03*
%TD*%
D34*
%TO.C,U15*%
X168915000Y-92700000D03*
D35*
X171455000Y-92700000D03*
X173995000Y-92700000D03*
X176535000Y-92700000D03*
X179075000Y-92700000D03*
X181615000Y-92700000D03*
X184155000Y-92700000D03*
X186695000Y-92700000D03*
X189235000Y-92700000D03*
X191775000Y-92700000D03*
X191775000Y-85080000D03*
X189235000Y-85080000D03*
X186695000Y-85080000D03*
X184155000Y-85080000D03*
X181615000Y-85080000D03*
X179075000Y-85080000D03*
X176535000Y-85080000D03*
X173995000Y-85080000D03*
X171455000Y-85080000D03*
X168915000Y-85080000D03*
%TD*%
D15*
%TO.C,Cd10*%
X40640000Y-89535000D03*
X38140000Y-89535000D03*
%TD*%
M02*
