%TF.GenerationSoftware,KiCad,Pcbnew,7.0.10*%
%TF.CreationDate,2024-01-06T19:24:23+00:00*%
%TF.ProjectId,v1a,7631612e-6b69-4636-9164-5f7063625858,rev?*%
%TF.SameCoordinates,Original*%
%TF.FileFunction,Copper,L2,Bot*%
%TF.FilePolarity,Positive*%
%FSLAX46Y46*%
G04 Gerber Fmt 4.6, Leading zero omitted, Abs format (unit mm)*
G04 Created by KiCad (PCBNEW 7.0.10) date 2024-01-06 19:24:23*
%MOMM*%
%LPD*%
G01*
G04 APERTURE LIST*
G04 Aperture macros list*
%AMRoundRect*
0 Rectangle with rounded corners*
0 $1 Rounding radius*
0 $2 $3 $4 $5 $6 $7 $8 $9 X,Y pos of 4 corners*
0 Add a 4 corners polygon primitive as box body*
4,1,4,$2,$3,$4,$5,$6,$7,$8,$9,$2,$3,0*
0 Add four circle primitives for the rounded corners*
1,1,$1+$1,$2,$3*
1,1,$1+$1,$4,$5*
1,1,$1+$1,$6,$7*
1,1,$1+$1,$8,$9*
0 Add four rect primitives between the rounded corners*
20,1,$1+$1,$2,$3,$4,$5,0*
20,1,$1+$1,$4,$5,$6,$7,0*
20,1,$1+$1,$6,$7,$8,$9,0*
20,1,$1+$1,$8,$9,$2,$3,0*%
G04 Aperture macros list end*
%TA.AperFunction,ComponentPad*%
%ADD10R,1.600000X1.600000*%
%TD*%
%TA.AperFunction,ComponentPad*%
%ADD11O,1.600000X1.600000*%
%TD*%
%TA.AperFunction,ComponentPad*%
%ADD12C,1.600000*%
%TD*%
%TA.AperFunction,ComponentPad*%
%ADD13R,1.422400X1.422400*%
%TD*%
%TA.AperFunction,ComponentPad*%
%ADD14C,1.422400*%
%TD*%
%TA.AperFunction,ComponentPad*%
%ADD15C,1.400000*%
%TD*%
%TA.AperFunction,ComponentPad*%
%ADD16O,1.400000X1.400000*%
%TD*%
%TA.AperFunction,ComponentPad*%
%ADD17R,1.800000X1.800000*%
%TD*%
%TA.AperFunction,ComponentPad*%
%ADD18C,1.800000*%
%TD*%
%TA.AperFunction,SMDPad,CuDef*%
%ADD19RoundRect,0.508000X-0.508000X-2.464500X0.508000X-2.464500X0.508000X2.464500X-0.508000X2.464500X0*%
%TD*%
%TA.AperFunction,SMDPad,CuDef*%
%ADD20RoundRect,0.508000X-0.508000X-2.468000X0.508000X-2.468000X0.508000X2.468000X-0.508000X2.468000X0*%
%TD*%
%TA.AperFunction,SMDPad,CuDef*%
%ADD21RoundRect,0.539750X-0.539750X-2.436250X0.539750X-2.436250X0.539750X2.436250X-0.539750X2.436250X0*%
%TD*%
%TA.AperFunction,ComponentPad*%
%ADD22R,1.700000X1.700000*%
%TD*%
%TA.AperFunction,ComponentPad*%
%ADD23C,1.700000*%
%TD*%
%TA.AperFunction,ComponentPad*%
%ADD24C,3.500000*%
%TD*%
%TA.AperFunction,ViaPad*%
%ADD25C,0.800000*%
%TD*%
%TA.AperFunction,Conductor*%
%ADD26C,0.500000*%
%TD*%
%TA.AperFunction,Conductor*%
%ADD27C,0.250000*%
%TD*%
G04 APERTURE END LIST*
D10*
%TO.P,U2,1,VDD*%
%TO.N,+5V*%
X91440000Y-72390000D03*
D11*
%TO.P,U2,2,GP0*%
%TO.N,Net-(D1-K)*%
X88900000Y-72390000D03*
%TO.P,U2,3,GP1*%
%TO.N,Net-(U1-XIN)*%
X86360000Y-72390000D03*
%TO.P,U2,4,~{RST}*%
%TO.N,unconnected-(U2-~{RST}-Pad4)*%
X83820000Y-72390000D03*
%TO.P,U2,5,URx*%
%TO.N,Net-(U1-SOUT)*%
X81280000Y-72390000D03*
%TO.P,U2,6,UTx*%
%TO.N,Net-(U1-SIN)*%
X78740000Y-72390000D03*
%TO.P,U2,7,GP2*%
%TO.N,Net-(D2-K)*%
X76200000Y-72390000D03*
%TO.P,U2,8,GP3*%
%TO.N,unconnected-(U2-GP3-Pad8)*%
X76200000Y-80010000D03*
%TO.P,U2,9,SDA*%
%TO.N,unconnected-(U2-SDA-Pad9)*%
X78740000Y-80010000D03*
%TO.P,U2,10,SCL*%
%TO.N,unconnected-(U2-SCL-Pad10)*%
X81280000Y-80010000D03*
%TO.P,U2,11,VUSB*%
%TO.N,Net-(U2-VUSB)*%
X83820000Y-80010000D03*
%TO.P,U2,12,D-*%
%TO.N,Net-(J2-D-)*%
X86360000Y-80010000D03*
%TO.P,U2,13,D+*%
%TO.N,Net-(J2-D+)*%
X88900000Y-80010000D03*
%TO.P,U2,14,VSS*%
%TO.N,GND*%
X91440000Y-80010000D03*
%TD*%
D12*
%TO.P,C1,1*%
%TO.N,GND*%
X94615000Y-74890000D03*
%TO.P,C1,2*%
%TO.N,+5V*%
X94615000Y-72390000D03*
%TD*%
%TO.P,C3,1*%
%TO.N,+5V*%
X70485000Y-66314000D03*
%TO.P,C3,2*%
%TO.N,GND*%
X70485000Y-68814000D03*
%TD*%
D13*
%TO.P,U1,1*%
%TO.N,N/C*%
X58420000Y-68580000D03*
D14*
%TO.P,U1,2,D0*%
%TO.N,D0*%
X55880000Y-66040000D03*
%TO.P,U1,3,D1*%
%TO.N,D1*%
X55880000Y-68580000D03*
%TO.P,U1,4,D2*%
%TO.N,D2*%
X53340000Y-66040000D03*
%TO.P,U1,5,D3*%
%TO.N,D3*%
X53340000Y-68580000D03*
%TO.P,U1,6,D4*%
%TO.N,D4*%
X50800000Y-66040000D03*
%TO.P,U1,7,D5*%
%TO.N,D5*%
X48260000Y-68580000D03*
%TO.P,U1,8,D6*%
%TO.N,D6*%
X50800000Y-68580000D03*
%TO.P,U1,9,D7*%
%TO.N,D7*%
X48260000Y-71120000D03*
%TO.P,U1,10,RCLK*%
%TO.N,Net-(U1-RCLK)*%
X50800000Y-71120000D03*
%TO.P,U1,11,SIN*%
%TO.N,Net-(U1-SIN)*%
X48260000Y-73660000D03*
%TO.P,U1,12*%
%TO.N,N/C*%
X50800000Y-73660000D03*
%TO.P,U1,13,SOUT*%
%TO.N,Net-(U1-SOUT)*%
X48260000Y-76200000D03*
%TO.P,U1,14,CS0*%
%TO.N,B6*%
X50800000Y-76200000D03*
%TO.P,U1,15,CS1*%
%TO.N,+5V*%
X48260000Y-78740000D03*
%TO.P,U1,16,~{CS2}*%
%TO.N,~{CART}*%
X50800000Y-78740000D03*
%TO.P,U1,17,~{BAUDOUT}*%
%TO.N,Net-(U1-RCLK)*%
X48260000Y-81280000D03*
%TO.P,U1,18,XIN*%
%TO.N,Net-(U1-XIN)*%
X50800000Y-83820000D03*
%TO.P,U1,19,XOUT*%
%TO.N,unconnected-(U1-XOUT-Pad19)*%
X50800000Y-81280000D03*
%TO.P,U1,20,~{WR}*%
%TO.N,R{slash}~{W}*%
X53340000Y-83820000D03*
%TO.P,U1,21,WR*%
%TO.N,GND*%
X53340000Y-81280000D03*
%TO.P,U1,22,GND*%
X55880000Y-83820000D03*
%TO.P,U1,23*%
%TO.N,N/C*%
X55880000Y-81280000D03*
%TO.P,U1,24,~{RD}*%
%TO.N,+5V*%
X58420000Y-83820000D03*
%TO.P,U1,25,RD*%
%TO.N,R{slash}~{W}*%
X58420000Y-81280000D03*
%TO.P,U1,26,DDIS*%
%TO.N,unconnected-(U1-DDIS-Pad26)*%
X60960000Y-83820000D03*
%TO.P,U1,27,~{TXRDY}*%
%TO.N,unconnected-(U1-~{TXRDY}-Pad27)*%
X60960000Y-81280000D03*
%TO.P,U1,28,~{ADS}*%
%TO.N,GND*%
X63500000Y-83820000D03*
%TO.P,U1,29,A2*%
%TO.N,A2*%
X66040000Y-81280000D03*
%TO.P,U1,30,A1*%
%TO.N,A1*%
X63500000Y-81280000D03*
%TO.P,U1,31,A0*%
%TO.N,A0*%
X66040000Y-78740000D03*
%TO.P,U1,32,~{RXRDY}*%
%TO.N,unconnected-(U1-~{RXRDY}-Pad32)*%
X63500000Y-78740000D03*
%TO.P,U1,33,INTR*%
%TO.N,unconnected-(U1-INTR-Pad33)*%
X66040000Y-76200000D03*
%TO.P,U1,34*%
%TO.N,N/C*%
X63500000Y-76200000D03*
%TO.P,U1,35,~{OUT2}*%
%TO.N,unconnected-(U1-~{OUT2}-Pad35)*%
X66040000Y-73660000D03*
%TO.P,U1,36,~{RTS}*%
%TO.N,unconnected-(U1-~{RTS}-Pad36)*%
X63500000Y-73660000D03*
%TO.P,U1,37,~{DTR}*%
%TO.N,unconnected-(U1-~{DTR}-Pad37)*%
X66040000Y-71120000D03*
%TO.P,U1,38,~{OUT1}*%
%TO.N,/~{OUT1}*%
X63500000Y-71120000D03*
%TO.P,U1,39,MR*%
%TO.N,GND*%
X66040000Y-68580000D03*
%TO.P,U1,40,~{CTS}*%
%TO.N,unconnected-(U1-~{CTS}-Pad40)*%
X63500000Y-66040000D03*
%TO.P,U1,41,~{DSR}*%
%TO.N,unconnected-(U1-~{DSR}-Pad41)*%
X63500000Y-68580000D03*
%TO.P,U1,42,~{DCD}*%
%TO.N,unconnected-(U1-~{DCD}-Pad42)*%
X60960000Y-66040000D03*
%TO.P,U1,43,~{RI}*%
%TO.N,unconnected-(U1-~{RI}-Pad43)*%
X60960000Y-68580000D03*
%TO.P,U1,44,VCC*%
%TO.N,+5V*%
X58420000Y-66040000D03*
%TD*%
D12*
%TO.P,C2,1*%
%TO.N,Net-(U2-VUSB)*%
X83820000Y-82804000D03*
%TO.P,C2,2*%
%TO.N,GND*%
X86320000Y-82804000D03*
%TD*%
D15*
%TO.P,R1,1*%
%TO.N,Net-(D1-A)*%
X78232000Y-64008000D03*
D16*
%TO.P,R1,2*%
%TO.N,+5V*%
X70612000Y-64008000D03*
%TD*%
D17*
%TO.P,D1,1,K*%
%TO.N,Net-(D1-K)*%
X71755000Y-61214000D03*
D18*
%TO.P,D1,2,A*%
%TO.N,Net-(D1-A)*%
X71755000Y-58674000D03*
%TD*%
D19*
%TO.P,J1,2,Pin_2*%
%TO.N,+5V*%
X43180000Y-91440000D03*
%TO.P,J1,4,Pin_4*%
%TO.N,D7*%
X45720000Y-91440000D03*
%TO.P,J1,6,Pin_6*%
%TO.N,D6*%
X48260000Y-91440000D03*
%TO.P,J1,8,Pin_8*%
%TO.N,D5*%
X50800000Y-91440000D03*
%TO.P,J1,10,Pin_10*%
%TO.N,D4*%
X53340000Y-91440000D03*
D20*
%TO.P,J1,12,Pin_12*%
%TO.N,D3*%
X55880000Y-91443500D03*
D19*
%TO.P,J1,14,Pin_14*%
%TO.N,D2*%
X58420000Y-91440000D03*
%TO.P,J1,16,Pin_16*%
%TO.N,D1*%
X60960000Y-91440000D03*
%TO.P,J1,18,Pin_18*%
%TO.N,D0*%
X63500000Y-91440000D03*
%TO.P,J1,20,Pin_20*%
%TO.N,B7*%
X66040000Y-91440000D03*
D21*
%TO.P,J1,22,Pin_22*%
%TO.N,B6*%
X68516500Y-91443500D03*
D19*
%TO.P,J1,24,Pin_24*%
%TO.N,B5*%
X71120000Y-91440000D03*
%TO.P,J1,26,Pin_26*%
%TO.N,B4*%
X73660000Y-91440000D03*
%TO.P,J1,28,Pin_28*%
%TO.N,B3*%
X76200000Y-91440000D03*
%TO.P,J1,30,Pin_30*%
%TO.N,B2*%
X78740000Y-91440000D03*
%TO.P,J1,32,Pin_32*%
%TO.N,B1*%
X81280000Y-91440000D03*
D20*
%TO.P,J1,34,Pin_34*%
%TO.N,B0*%
X83820000Y-91443500D03*
D19*
%TO.P,J1,36,Pin_36*%
%TO.N,3M*%
X86360000Y-91440000D03*
%TO.P,J1,38,Pin_38*%
%TO.N,~{R}{slash}W*%
X88900000Y-91440000D03*
%TO.P,J1,40,Pin_40*%
%TO.N,R{slash}~{W}*%
X91440000Y-91440000D03*
D20*
%TO.P,J1,42,Pin_42*%
%TO.N,B6*%
X93980000Y-91443500D03*
D19*
%TO.P,J1,44,Pin_44*%
%TO.N,GND*%
X96520000Y-91440000D03*
%TD*%
D17*
%TO.P,D2,1,K*%
%TO.N,Net-(D2-K)*%
X76835000Y-61214000D03*
D18*
%TO.P,D2,2,A*%
%TO.N,Net-(D1-A)*%
X76835000Y-58674000D03*
%TD*%
D17*
%TO.P,D3,1,K*%
%TO.N,/~{OUT1}*%
X66675000Y-61214000D03*
D18*
%TO.P,D3,2,A*%
%TO.N,Net-(D1-A)*%
X66675000Y-58674000D03*
%TD*%
D22*
%TO.P,J2,1,VBUS*%
%TO.N,unconnected-(J2-VBUS-Pad1)*%
X86360000Y-66940000D03*
D23*
%TO.P,J2,2,D-*%
%TO.N,Net-(J2-D-)*%
X88860000Y-66940000D03*
%TO.P,J2,3,D+*%
%TO.N,Net-(J2-D+)*%
X88860000Y-64940000D03*
%TO.P,J2,4,GND*%
%TO.N,GND*%
X86360000Y-64940000D03*
D24*
%TO.P,J2,5,Shield*%
X81590000Y-62230000D03*
X93630000Y-62230000D03*
%TD*%
D25*
%TO.N,GND*%
X49530000Y-87122000D03*
X77470000Y-87376000D03*
X61976000Y-79502000D03*
X85090000Y-71120000D03*
X80010000Y-87630000D03*
X52324000Y-64516000D03*
X46990000Y-87122000D03*
X58420000Y-76708000D03*
X69850000Y-86360000D03*
X55880000Y-71120000D03*
X58420000Y-71120000D03*
X57150000Y-87122000D03*
X53340000Y-75692000D03*
X45720000Y-83820000D03*
X87630000Y-76835000D03*
X82550000Y-73660000D03*
X92456000Y-87376000D03*
X53340000Y-79248000D03*
X48260000Y-65532000D03*
X52070000Y-87122000D03*
X54864000Y-64516000D03*
X58420000Y-79248000D03*
X62230000Y-82550000D03*
X55880000Y-76708000D03*
X74930000Y-71120000D03*
X55880000Y-79248000D03*
X61468000Y-71120000D03*
X82550000Y-87630000D03*
X77470000Y-69215000D03*
X59436000Y-87122000D03*
X61976000Y-87122000D03*
X46736000Y-70104000D03*
X55880000Y-73660000D03*
X53340000Y-72136000D03*
X70485000Y-70993000D03*
X46482000Y-78740000D03*
X58420000Y-73660000D03*
X61468000Y-76200000D03*
X60706000Y-78232000D03*
X61468000Y-73660000D03*
X87884000Y-86868000D03*
X77216000Y-62992000D03*
X80010000Y-71120000D03*
X74295000Y-57785000D03*
X82550000Y-71120000D03*
X47244000Y-74930000D03*
X73660000Y-63500000D03*
X74676000Y-60960000D03*
X70485000Y-76835000D03*
X85090000Y-87630000D03*
X54610000Y-87122000D03*
X72390000Y-87376000D03*
X70485000Y-73660000D03*
%TO.N,B6*%
X67945000Y-73660000D03*
%TO.N,R{slash}~{W}*%
X83566000Y-86106000D03*
%TO.N,/~{OUT1}*%
X62484000Y-64516000D03*
%TD*%
D26*
%TO.N,GND*%
X96520000Y-85085000D02*
X91445000Y-80010000D01*
X64770000Y-82550000D02*
X64770000Y-69850000D01*
X91445000Y-78060000D02*
X94615000Y-74890000D01*
X89575000Y-74890000D02*
X94615000Y-74890000D01*
X91445000Y-80010000D02*
X88651000Y-82804000D01*
X90856500Y-82804000D02*
X96520000Y-88467500D01*
X96520000Y-88467500D02*
X96520000Y-91440000D01*
X88651000Y-82804000D02*
X86320000Y-82804000D01*
X70485000Y-76835000D02*
X70485000Y-85725000D01*
X96520000Y-91440000D02*
X96520000Y-85085000D01*
X90805000Y-85090000D02*
X81534000Y-85090000D01*
X92456000Y-87376000D02*
X92456000Y-86741000D01*
X87630000Y-76835000D02*
X89575000Y-74890000D01*
X66080000Y-68540000D02*
X66040000Y-68580000D01*
X70485000Y-70993000D02*
X70485000Y-68540000D01*
X91445000Y-80010000D02*
X91445000Y-78060000D01*
X70485000Y-85725000D02*
X69850000Y-86360000D01*
X70485000Y-73660000D02*
X70485000Y-76835000D01*
X70485000Y-76835000D02*
X87630000Y-76835000D01*
X64770000Y-69850000D02*
X66040000Y-68580000D01*
X86320000Y-82804000D02*
X90856500Y-82804000D01*
X81534000Y-85090000D02*
X80010000Y-86614000D01*
X70485000Y-70993000D02*
X70485000Y-73660000D01*
X92456000Y-86741000D02*
X90805000Y-85090000D01*
X63500000Y-83820000D02*
X64770000Y-82550000D01*
X80010000Y-86614000D02*
X80010000Y-87630000D01*
X70485000Y-68540000D02*
X66080000Y-68540000D01*
%TO.N,+5V*%
X60960000Y-63500000D02*
X67945000Y-63500000D01*
D27*
X70485000Y-64135000D02*
X70612000Y-64008000D01*
D26*
X43180000Y-83820000D02*
X48260000Y-78740000D01*
X48260000Y-63500000D02*
X55880000Y-63500000D01*
X45720000Y-66040000D02*
X48260000Y-63500000D01*
X74930000Y-75565000D02*
X73660000Y-74295000D01*
X67945000Y-63500000D02*
X70485000Y-66040000D01*
X94615000Y-72390000D02*
X91445000Y-72390000D01*
X43180000Y-91440000D02*
X43180000Y-83820000D01*
X48260000Y-78740000D02*
X45720000Y-76200000D01*
X45720000Y-76200000D02*
X45720000Y-66040000D01*
X88285000Y-73640000D02*
X86360000Y-75565000D01*
X58420000Y-66040000D02*
X60960000Y-63500000D01*
X73660000Y-74295000D02*
X73660000Y-67945000D01*
X59581200Y-82658800D02*
X59581200Y-67201200D01*
X58420000Y-83820000D02*
X59581200Y-82658800D01*
X59581200Y-67201200D02*
X58420000Y-66040000D01*
X55880000Y-63500000D02*
X58420000Y-66040000D01*
X90195000Y-73640000D02*
X88285000Y-73640000D01*
X91445000Y-72390000D02*
X90195000Y-73640000D01*
X73660000Y-67945000D02*
X71755000Y-66040000D01*
X71755000Y-66040000D02*
X70485000Y-66040000D01*
X86360000Y-75565000D02*
X74930000Y-75565000D01*
D27*
X70485000Y-66314000D02*
X70485000Y-64135000D01*
%TO.N,D7*%
X48260000Y-71120000D02*
X49313800Y-72173800D01*
X45720000Y-86995000D02*
X45720000Y-91440000D01*
X49313800Y-83401200D02*
X45720000Y-86995000D01*
X49313800Y-72173800D02*
X49313800Y-83401200D01*
%TO.N,D6*%
X49763800Y-85491200D02*
X49763800Y-69616200D01*
X49763800Y-69616200D02*
X50800000Y-68580000D01*
X48260000Y-91440000D02*
X48260000Y-86995000D01*
X48260000Y-86995000D02*
X49763800Y-85491200D01*
%TO.N,D5*%
X50800000Y-86995000D02*
X50800000Y-91440000D01*
X51435000Y-67310000D02*
X51836200Y-67711200D01*
X51836200Y-67711200D02*
X51836200Y-85958800D01*
X49530000Y-67310000D02*
X51435000Y-67310000D01*
X48260000Y-68580000D02*
X49530000Y-67310000D01*
X51836200Y-85958800D02*
X50800000Y-86995000D01*
%TO.N,D4*%
X51435000Y-66040000D02*
X50800000Y-66040000D01*
X53340000Y-91440000D02*
X53340000Y-86995000D01*
X52286200Y-85941200D02*
X52286200Y-66891200D01*
X52286200Y-66891200D02*
X51435000Y-66040000D01*
X53340000Y-86995000D02*
X52286200Y-85941200D01*
%TO.N,D3*%
X54376200Y-69616200D02*
X54376200Y-85491200D01*
X53340000Y-68580000D02*
X54376200Y-69616200D01*
X55880000Y-86995000D02*
X55880000Y-91443500D01*
X54376200Y-85491200D02*
X55880000Y-86995000D01*
%TO.N,D2*%
X58420000Y-86994302D02*
X56281898Y-84856200D01*
X54843800Y-67543800D02*
X53340000Y-66040000D01*
X55450791Y-84856200D02*
X54843800Y-84249209D01*
X54843800Y-84249209D02*
X54843800Y-67543800D01*
X58420000Y-91440000D02*
X58420000Y-86994302D01*
X56281898Y-84856200D02*
X55450791Y-84856200D01*
%TO.N,D1*%
X55880000Y-68580000D02*
X56916200Y-69616200D01*
X60960000Y-86995000D02*
X60960000Y-91440000D01*
X60029404Y-86064404D02*
X60960000Y-86995000D01*
X56916200Y-84636405D02*
X58344199Y-86064404D01*
X56916200Y-69616200D02*
X56916200Y-84636405D01*
X58344199Y-86064404D02*
X60029404Y-86064404D01*
%TO.N,D0*%
X62119404Y-85614404D02*
X58530595Y-85614404D01*
X58530595Y-85614404D02*
X57366200Y-84450009D01*
X57366200Y-84450009D02*
X57366200Y-67526200D01*
X63500000Y-91440000D02*
X63500000Y-86995000D01*
X63500000Y-86995000D02*
X62119404Y-85614404D01*
X57366200Y-67526200D02*
X55880000Y-66040000D01*
%TO.N,B6*%
X93980000Y-91443500D02*
X93980000Y-86995000D01*
X73025000Y-84455000D02*
X68516500Y-88963500D01*
X91440000Y-84455000D02*
X73025000Y-84455000D01*
X68516500Y-88963500D02*
X68516500Y-91443500D01*
X67945000Y-73660000D02*
X68516500Y-74231500D01*
X93980000Y-86995000D02*
X91440000Y-84455000D01*
X68516500Y-74231500D02*
X68516500Y-91443500D01*
%TO.N,R{slash}~{W}*%
X90170000Y-85725000D02*
X91440000Y-86995000D01*
X91440000Y-86995000D02*
X91440000Y-91440000D01*
X83947000Y-85725000D02*
X90170000Y-85725000D01*
X83566000Y-86106000D02*
X83947000Y-85725000D01*
%TO.N,Net-(D1-K)*%
X87630000Y-69850000D02*
X88905000Y-71125000D01*
X73152000Y-59944000D02*
X77978000Y-59944000D01*
X71882000Y-61214000D02*
X73152000Y-59944000D01*
X77978000Y-59944000D02*
X78994000Y-60960000D01*
X78994000Y-60960000D02*
X78994000Y-63119000D01*
X85725000Y-69850000D02*
X87630000Y-69850000D01*
X88905000Y-71125000D02*
X88905000Y-72390000D01*
X78994000Y-63119000D02*
X85725000Y-69850000D01*
%TO.N,/~{OUT1}*%
X63500000Y-71120000D02*
X62230000Y-69850000D01*
X62230000Y-69850000D02*
X62230000Y-64770000D01*
X62230000Y-64770000D02*
X62484000Y-64516000D01*
%TO.N,Net-(D2-K)*%
X76205000Y-72390000D02*
X75946000Y-72131000D01*
X75946000Y-61976000D02*
X76708000Y-61214000D01*
X75946000Y-72131000D02*
X75946000Y-61976000D01*
%TD*%
%TA.AperFunction,Conductor*%
%TO.N,GND*%
G36*
X96208415Y-56942501D02*
G01*
X96218405Y-56942501D01*
X96261571Y-56942501D01*
X96270417Y-56942817D01*
X96503577Y-56959492D01*
X96521078Y-56962009D01*
X96745156Y-57010754D01*
X96762121Y-57015735D01*
X96976991Y-57095877D01*
X96993064Y-57103218D01*
X97194332Y-57213118D01*
X97194336Y-57213120D01*
X97209219Y-57222685D01*
X97392791Y-57360105D01*
X97406162Y-57371691D01*
X97568308Y-57533837D01*
X97579894Y-57547208D01*
X97717314Y-57730780D01*
X97726879Y-57745663D01*
X97836776Y-57946924D01*
X97844124Y-57963014D01*
X97884194Y-58070445D01*
X97924262Y-58177873D01*
X97929246Y-58194848D01*
X97977989Y-58418916D01*
X97980507Y-58436428D01*
X97997183Y-58669581D01*
X97997499Y-58678427D01*
X97997499Y-88221361D01*
X97977814Y-88288400D01*
X97925010Y-88334155D01*
X97855852Y-88344099D01*
X97792296Y-88315074D01*
X97777646Y-88300027D01*
X97744210Y-88259285D01*
X97590725Y-88133325D01*
X97590718Y-88133320D01*
X97415612Y-88039724D01*
X97225605Y-87982085D01*
X97225603Y-87982084D01*
X97077515Y-87967500D01*
X95962485Y-87967500D01*
X95814396Y-87982084D01*
X95814394Y-87982085D01*
X95624387Y-88039724D01*
X95449281Y-88133320D01*
X95449274Y-88133325D01*
X95329060Y-88231982D01*
X95264750Y-88259295D01*
X95195882Y-88247504D01*
X95171730Y-88231982D01*
X95051005Y-88132905D01*
X95050998Y-88132901D01*
X94875805Y-88039259D01*
X94693504Y-87983958D01*
X94635066Y-87945661D01*
X94606609Y-87881849D01*
X94605500Y-87865298D01*
X94605500Y-87077737D01*
X94607224Y-87062123D01*
X94606938Y-87062096D01*
X94607672Y-87054333D01*
X94605561Y-86987143D01*
X94605500Y-86983249D01*
X94605500Y-86955651D01*
X94605500Y-86955650D01*
X94604997Y-86951670D01*
X94604080Y-86940021D01*
X94603954Y-86936016D01*
X94602709Y-86896372D01*
X94597120Y-86877137D01*
X94593174Y-86858084D01*
X94593086Y-86857386D01*
X94590664Y-86838208D01*
X94574578Y-86797581D01*
X94570803Y-86786554D01*
X94558617Y-86744610D01*
X94548421Y-86727369D01*
X94539860Y-86709893D01*
X94538308Y-86705975D01*
X94532486Y-86691268D01*
X94506809Y-86655926D01*
X94500412Y-86646190D01*
X94478170Y-86608579D01*
X94478167Y-86608576D01*
X94478165Y-86608573D01*
X94464005Y-86594413D01*
X94451370Y-86579620D01*
X94439593Y-86563412D01*
X94405945Y-86535576D01*
X94397304Y-86527713D01*
X91940803Y-84071212D01*
X91930980Y-84058950D01*
X91930759Y-84059134D01*
X91925786Y-84053122D01*
X91876776Y-84007099D01*
X91873977Y-84004386D01*
X91854477Y-83984885D01*
X91854471Y-83984880D01*
X91851286Y-83982409D01*
X91842434Y-83974848D01*
X91810582Y-83944938D01*
X91810580Y-83944936D01*
X91810577Y-83944935D01*
X91793029Y-83935288D01*
X91776763Y-83924604D01*
X91760932Y-83912324D01*
X91720849Y-83894978D01*
X91710363Y-83889841D01*
X91672094Y-83868803D01*
X91672092Y-83868802D01*
X91652693Y-83863822D01*
X91634281Y-83857518D01*
X91615898Y-83849562D01*
X91615892Y-83849560D01*
X91572760Y-83842729D01*
X91561322Y-83840361D01*
X91519020Y-83829500D01*
X91519019Y-83829500D01*
X91498984Y-83829500D01*
X91479586Y-83827973D01*
X91472162Y-83826797D01*
X91459805Y-83824840D01*
X91459804Y-83824840D01*
X91416325Y-83828950D01*
X91404656Y-83829500D01*
X87427146Y-83829500D01*
X87360107Y-83809815D01*
X87314352Y-83757011D01*
X87304408Y-83687853D01*
X87325571Y-83634376D01*
X87450133Y-83456482D01*
X87546265Y-83250326D01*
X87546269Y-83250317D01*
X87605139Y-83030610D01*
X87605141Y-83030599D01*
X87624966Y-82804002D01*
X87624966Y-82803997D01*
X87605141Y-82577400D01*
X87605139Y-82577389D01*
X87546269Y-82357682D01*
X87546264Y-82357668D01*
X87450136Y-82151521D01*
X87450132Y-82151513D01*
X87399025Y-82078526D01*
X86717953Y-82759597D01*
X86705165Y-82678852D01*
X86647641Y-82565955D01*
X86558045Y-82476359D01*
X86445148Y-82418835D01*
X86364401Y-82406046D01*
X87045472Y-81724974D01*
X86972478Y-81673863D01*
X86766331Y-81577735D01*
X86766319Y-81577731D01*
X86597112Y-81532392D01*
X86537452Y-81496027D01*
X86506923Y-81433180D01*
X86515218Y-81363804D01*
X86559703Y-81309926D01*
X86597109Y-81292843D01*
X86806496Y-81236739D01*
X87012734Y-81140568D01*
X87199139Y-81010047D01*
X87360047Y-80849139D01*
X87490568Y-80662734D01*
X87517618Y-80604724D01*
X87563790Y-80552285D01*
X87630983Y-80533133D01*
X87697865Y-80553348D01*
X87742382Y-80604725D01*
X87769429Y-80662728D01*
X87769432Y-80662734D01*
X87899954Y-80849141D01*
X88060858Y-81010045D01*
X88060861Y-81010047D01*
X88247266Y-81140568D01*
X88453504Y-81236739D01*
X88673308Y-81295635D01*
X88835230Y-81309801D01*
X88899998Y-81315468D01*
X88900000Y-81315468D01*
X88900002Y-81315468D01*
X88963345Y-81309926D01*
X89126692Y-81295635D01*
X89346496Y-81236739D01*
X89552734Y-81140568D01*
X89739139Y-81010047D01*
X89900047Y-80849139D01*
X90030568Y-80662734D01*
X90057895Y-80604129D01*
X90104064Y-80551695D01*
X90171257Y-80532542D01*
X90238139Y-80552757D01*
X90282657Y-80604133D01*
X90309865Y-80662482D01*
X90440342Y-80848820D01*
X90601179Y-81009657D01*
X90787517Y-81140134D01*
X90993673Y-81236265D01*
X90993682Y-81236269D01*
X91189999Y-81288872D01*
X91190000Y-81288871D01*
X91190000Y-80325686D01*
X91201955Y-80337641D01*
X91314852Y-80395165D01*
X91408519Y-80410000D01*
X91471481Y-80410000D01*
X91565148Y-80395165D01*
X91678045Y-80337641D01*
X91690000Y-80325686D01*
X91690000Y-81288872D01*
X91886317Y-81236269D01*
X91886326Y-81236265D01*
X92092482Y-81140134D01*
X92278820Y-81009657D01*
X92439657Y-80848820D01*
X92570134Y-80662482D01*
X92666265Y-80456326D01*
X92666269Y-80456317D01*
X92718872Y-80260000D01*
X91755686Y-80260000D01*
X91767641Y-80248045D01*
X91825165Y-80135148D01*
X91844986Y-80010000D01*
X91825165Y-79884852D01*
X91767641Y-79771955D01*
X91755686Y-79760000D01*
X92718872Y-79760000D01*
X92718872Y-79759999D01*
X92666269Y-79563682D01*
X92666265Y-79563673D01*
X92570134Y-79357517D01*
X92439657Y-79171179D01*
X92278820Y-79010342D01*
X92092482Y-78879865D01*
X91886328Y-78783734D01*
X91690000Y-78731127D01*
X91690000Y-79694314D01*
X91678045Y-79682359D01*
X91565148Y-79624835D01*
X91471481Y-79610000D01*
X91408519Y-79610000D01*
X91314852Y-79624835D01*
X91201955Y-79682359D01*
X91190000Y-79694314D01*
X91190000Y-78731127D01*
X90993671Y-78783734D01*
X90787517Y-78879865D01*
X90601179Y-79010342D01*
X90440342Y-79171179D01*
X90309867Y-79357515D01*
X90282657Y-79415867D01*
X90236484Y-79468306D01*
X90169290Y-79487457D01*
X90102409Y-79467241D01*
X90057893Y-79415865D01*
X90030570Y-79357271D01*
X90030567Y-79357265D01*
X90024197Y-79348168D01*
X89900047Y-79170861D01*
X89900045Y-79170858D01*
X89739141Y-79009954D01*
X89552734Y-78879432D01*
X89552732Y-78879431D01*
X89346497Y-78783261D01*
X89346488Y-78783258D01*
X89126697Y-78724366D01*
X89126693Y-78724365D01*
X89126692Y-78724365D01*
X89126691Y-78724364D01*
X89126686Y-78724364D01*
X88900002Y-78704532D01*
X88899998Y-78704532D01*
X88673313Y-78724364D01*
X88673302Y-78724366D01*
X88453511Y-78783258D01*
X88453502Y-78783261D01*
X88247267Y-78879431D01*
X88247265Y-78879432D01*
X88060858Y-79009954D01*
X87899954Y-79170858D01*
X87769432Y-79357265D01*
X87769431Y-79357267D01*
X87742382Y-79415275D01*
X87696209Y-79467714D01*
X87629016Y-79486866D01*
X87562135Y-79466650D01*
X87517618Y-79415275D01*
X87490568Y-79357267D01*
X87490567Y-79357265D01*
X87484197Y-79348168D01*
X87360047Y-79170861D01*
X87360045Y-79170858D01*
X87199141Y-79009954D01*
X87012734Y-78879432D01*
X87012732Y-78879431D01*
X86806497Y-78783261D01*
X86806488Y-78783258D01*
X86586697Y-78724366D01*
X86586693Y-78724365D01*
X86586692Y-78724365D01*
X86586691Y-78724364D01*
X86586686Y-78724364D01*
X86360002Y-78704532D01*
X86359998Y-78704532D01*
X86133313Y-78724364D01*
X86133302Y-78724366D01*
X85913511Y-78783258D01*
X85913502Y-78783261D01*
X85707267Y-78879431D01*
X85707265Y-78879432D01*
X85520858Y-79009954D01*
X85359954Y-79170858D01*
X85229432Y-79357265D01*
X85229431Y-79357267D01*
X85202382Y-79415275D01*
X85156209Y-79467714D01*
X85089016Y-79486866D01*
X85022135Y-79466650D01*
X84977618Y-79415275D01*
X84950568Y-79357267D01*
X84950567Y-79357265D01*
X84944197Y-79348168D01*
X84820047Y-79170861D01*
X84820045Y-79170858D01*
X84659141Y-79009954D01*
X84472734Y-78879432D01*
X84472732Y-78879431D01*
X84266497Y-78783261D01*
X84266488Y-78783258D01*
X84046697Y-78724366D01*
X84046693Y-78724365D01*
X84046692Y-78724365D01*
X84046691Y-78724364D01*
X84046686Y-78724364D01*
X83820002Y-78704532D01*
X83819998Y-78704532D01*
X83593313Y-78724364D01*
X83593302Y-78724366D01*
X83373511Y-78783258D01*
X83373502Y-78783261D01*
X83167267Y-78879431D01*
X83167265Y-78879432D01*
X82980858Y-79009954D01*
X82819954Y-79170858D01*
X82689432Y-79357265D01*
X82689431Y-79357267D01*
X82662382Y-79415275D01*
X82616209Y-79467714D01*
X82549016Y-79486866D01*
X82482135Y-79466650D01*
X82437618Y-79415275D01*
X82410568Y-79357267D01*
X82410567Y-79357265D01*
X82404197Y-79348168D01*
X82280047Y-79170861D01*
X82280045Y-79170858D01*
X82119141Y-79009954D01*
X81932734Y-78879432D01*
X81932732Y-78879431D01*
X81726497Y-78783261D01*
X81726488Y-78783258D01*
X81506697Y-78724366D01*
X81506693Y-78724365D01*
X81506692Y-78724365D01*
X81506691Y-78724364D01*
X81506686Y-78724364D01*
X81280002Y-78704532D01*
X81279998Y-78704532D01*
X81053313Y-78724364D01*
X81053302Y-78724366D01*
X80833511Y-78783258D01*
X80833502Y-78783261D01*
X80627267Y-78879431D01*
X80627265Y-78879432D01*
X80440858Y-79009954D01*
X80279954Y-79170858D01*
X80149432Y-79357265D01*
X80149431Y-79357267D01*
X80122382Y-79415275D01*
X80076209Y-79467714D01*
X80009016Y-79486866D01*
X79942135Y-79466650D01*
X79897618Y-79415275D01*
X79870568Y-79357267D01*
X79870567Y-79357265D01*
X79864197Y-79348168D01*
X79740047Y-79170861D01*
X79740045Y-79170858D01*
X79579141Y-79009954D01*
X79392734Y-78879432D01*
X79392732Y-78879431D01*
X79186497Y-78783261D01*
X79186488Y-78783258D01*
X78966697Y-78724366D01*
X78966693Y-78724365D01*
X78966692Y-78724365D01*
X78966691Y-78724364D01*
X78966686Y-78724364D01*
X78740002Y-78704532D01*
X78739998Y-78704532D01*
X78513313Y-78724364D01*
X78513302Y-78724366D01*
X78293511Y-78783258D01*
X78293502Y-78783261D01*
X78087267Y-78879431D01*
X78087265Y-78879432D01*
X77900858Y-79009954D01*
X77739954Y-79170858D01*
X77609432Y-79357265D01*
X77609431Y-79357267D01*
X77582382Y-79415275D01*
X77536209Y-79467714D01*
X77469016Y-79486866D01*
X77402135Y-79466650D01*
X77357618Y-79415275D01*
X77330568Y-79357267D01*
X77330567Y-79357265D01*
X77324197Y-79348168D01*
X77200047Y-79170861D01*
X77200045Y-79170858D01*
X77039141Y-79009954D01*
X76852734Y-78879432D01*
X76852732Y-78879431D01*
X76646497Y-78783261D01*
X76646488Y-78783258D01*
X76426697Y-78724366D01*
X76426693Y-78724365D01*
X76426692Y-78724365D01*
X76426691Y-78724364D01*
X76426686Y-78724364D01*
X76200002Y-78704532D01*
X76199998Y-78704532D01*
X75973313Y-78724364D01*
X75973302Y-78724366D01*
X75753511Y-78783258D01*
X75753502Y-78783261D01*
X75547267Y-78879431D01*
X75547265Y-78879432D01*
X75360858Y-79009954D01*
X75199954Y-79170858D01*
X75069432Y-79357265D01*
X75069431Y-79357267D01*
X74973261Y-79563502D01*
X74973258Y-79563511D01*
X74914366Y-79783302D01*
X74914364Y-79783313D01*
X74894532Y-80009998D01*
X74894532Y-80010001D01*
X74914364Y-80236686D01*
X74914366Y-80236697D01*
X74973258Y-80456488D01*
X74973261Y-80456497D01*
X75069431Y-80662732D01*
X75069432Y-80662734D01*
X75199954Y-80849141D01*
X75360858Y-81010045D01*
X75360861Y-81010047D01*
X75547266Y-81140568D01*
X75753504Y-81236739D01*
X75973308Y-81295635D01*
X76135230Y-81309801D01*
X76199998Y-81315468D01*
X76200000Y-81315468D01*
X76200002Y-81315468D01*
X76263345Y-81309926D01*
X76426692Y-81295635D01*
X76646496Y-81236739D01*
X76852734Y-81140568D01*
X77039139Y-81010047D01*
X77200047Y-80849139D01*
X77330568Y-80662734D01*
X77357618Y-80604724D01*
X77403790Y-80552285D01*
X77470983Y-80533133D01*
X77537865Y-80553348D01*
X77582382Y-80604725D01*
X77609429Y-80662728D01*
X77609432Y-80662734D01*
X77739954Y-80849141D01*
X77900858Y-81010045D01*
X77900861Y-81010047D01*
X78087266Y-81140568D01*
X78293504Y-81236739D01*
X78513308Y-81295635D01*
X78675230Y-81309801D01*
X78739998Y-81315468D01*
X78740000Y-81315468D01*
X78740002Y-81315468D01*
X78803345Y-81309926D01*
X78966692Y-81295635D01*
X79186496Y-81236739D01*
X79392734Y-81140568D01*
X79579139Y-81010047D01*
X79740047Y-80849139D01*
X79870568Y-80662734D01*
X79897618Y-80604724D01*
X79943790Y-80552285D01*
X80010983Y-80533133D01*
X80077865Y-80553348D01*
X80122382Y-80604725D01*
X80149429Y-80662728D01*
X80149432Y-80662734D01*
X80279954Y-80849141D01*
X80440858Y-81010045D01*
X80440861Y-81010047D01*
X80627266Y-81140568D01*
X80833504Y-81236739D01*
X81053308Y-81295635D01*
X81215230Y-81309801D01*
X81279998Y-81315468D01*
X81280000Y-81315468D01*
X81280002Y-81315468D01*
X81343345Y-81309926D01*
X81506692Y-81295635D01*
X81726496Y-81236739D01*
X81932734Y-81140568D01*
X82119139Y-81010047D01*
X82280047Y-80849139D01*
X82410568Y-80662734D01*
X82437618Y-80604724D01*
X82483790Y-80552285D01*
X82550983Y-80533133D01*
X82617865Y-80553348D01*
X82662382Y-80604725D01*
X82689429Y-80662728D01*
X82689432Y-80662734D01*
X82819954Y-80849141D01*
X82980858Y-81010045D01*
X82980861Y-81010047D01*
X83167266Y-81140568D01*
X83373504Y-81236739D01*
X83373509Y-81236740D01*
X83373511Y-81236741D01*
X83561921Y-81287225D01*
X83621582Y-81323590D01*
X83652111Y-81386437D01*
X83643816Y-81455812D01*
X83599331Y-81509690D01*
X83561921Y-81526775D01*
X83373511Y-81577258D01*
X83373502Y-81577261D01*
X83167267Y-81673431D01*
X83167265Y-81673432D01*
X82980858Y-81803954D01*
X82819954Y-81964858D01*
X82689432Y-82151265D01*
X82689431Y-82151267D01*
X82593261Y-82357502D01*
X82593258Y-82357511D01*
X82534366Y-82577302D01*
X82534364Y-82577313D01*
X82514532Y-82803998D01*
X82514532Y-82804001D01*
X82534364Y-83030686D01*
X82534366Y-83030697D01*
X82593258Y-83250488D01*
X82593261Y-83250497D01*
X82689431Y-83456732D01*
X82689432Y-83456734D01*
X82813817Y-83634377D01*
X82836145Y-83700584D01*
X82819133Y-83768351D01*
X82768185Y-83816163D01*
X82712242Y-83829500D01*
X73107743Y-83829500D01*
X73092122Y-83827775D01*
X73092096Y-83828061D01*
X73084334Y-83827327D01*
X73084333Y-83827327D01*
X73032688Y-83828950D01*
X73017127Y-83829439D01*
X73013232Y-83829500D01*
X72985647Y-83829500D01*
X72981661Y-83830003D01*
X72970033Y-83830918D01*
X72926373Y-83832290D01*
X72907129Y-83837881D01*
X72888079Y-83841825D01*
X72868211Y-83844334D01*
X72868210Y-83844334D01*
X72827599Y-83860413D01*
X72816554Y-83864194D01*
X72774614Y-83876379D01*
X72774610Y-83876381D01*
X72757366Y-83886579D01*
X72739905Y-83895133D01*
X72721274Y-83902510D01*
X72721262Y-83902517D01*
X72685933Y-83928185D01*
X72676173Y-83934596D01*
X72638580Y-83956829D01*
X72624414Y-83970995D01*
X72609624Y-83983627D01*
X72593414Y-83995404D01*
X72593411Y-83995407D01*
X72565573Y-84029058D01*
X72557711Y-84037697D01*
X69353681Y-87241728D01*
X69292358Y-87275213D01*
X69222666Y-87270229D01*
X69166733Y-87228357D01*
X69142316Y-87162893D01*
X69142000Y-87154047D01*
X69142000Y-74314238D01*
X69143724Y-74298624D01*
X69143438Y-74298597D01*
X69144172Y-74290834D01*
X69142061Y-74223644D01*
X69142000Y-74219750D01*
X69142000Y-74192151D01*
X69142000Y-74192150D01*
X69141497Y-74188170D01*
X69140580Y-74176521D01*
X69140196Y-74164290D01*
X69139209Y-74132873D01*
X69133622Y-74113644D01*
X69129674Y-74094584D01*
X69127163Y-74074704D01*
X69111088Y-74034104D01*
X69107304Y-74023052D01*
X69095118Y-73981109D01*
X69095116Y-73981106D01*
X69084923Y-73963871D01*
X69076361Y-73946394D01*
X69068987Y-73927769D01*
X69043316Y-73892437D01*
X69036905Y-73882677D01*
X69014670Y-73845080D01*
X69014668Y-73845078D01*
X69014665Y-73845074D01*
X69000506Y-73830915D01*
X68987868Y-73816119D01*
X68984130Y-73810974D01*
X68976094Y-73799913D01*
X68942446Y-73772077D01*
X68933805Y-73764214D01*
X68883960Y-73714369D01*
X68850475Y-73653046D01*
X68848323Y-73639668D01*
X68830674Y-73471744D01*
X68772179Y-73291716D01*
X68677533Y-73127784D01*
X68550871Y-72987112D01*
X68547586Y-72984725D01*
X68397734Y-72875851D01*
X68397729Y-72875848D01*
X68224807Y-72798857D01*
X68224802Y-72798855D01*
X68079001Y-72767865D01*
X68039646Y-72759500D01*
X67850354Y-72759500D01*
X67817897Y-72766398D01*
X67665197Y-72798855D01*
X67665192Y-72798857D01*
X67492270Y-72875848D01*
X67492265Y-72875851D01*
X67339129Y-72987111D01*
X67339128Y-72987112D01*
X67279696Y-73053118D01*
X67220210Y-73089766D01*
X67150353Y-73088435D01*
X67092304Y-73049548D01*
X67085972Y-73041269D01*
X67075927Y-73026924D01*
X66971761Y-72878159D01*
X66821841Y-72728239D01*
X66821839Y-72728238D01*
X66821836Y-72728235D01*
X66648168Y-72606631D01*
X66648164Y-72606629D01*
X66456009Y-72517026D01*
X66456005Y-72517025D01*
X66456001Y-72517023D01*
X66428949Y-72509775D01*
X66369288Y-72473410D01*
X66338759Y-72410563D01*
X66347054Y-72341188D01*
X66391539Y-72287310D01*
X66428949Y-72270225D01*
X66450702Y-72264396D01*
X66456009Y-72262974D01*
X66648164Y-72173371D01*
X66821841Y-72051761D01*
X66971761Y-71901841D01*
X67093371Y-71728164D01*
X67182974Y-71536009D01*
X67237849Y-71331213D01*
X67256328Y-71120000D01*
X67255934Y-71115502D01*
X67250142Y-71049293D01*
X67237849Y-70908787D01*
X67182974Y-70703991D01*
X67093371Y-70511836D01*
X67093369Y-70511833D01*
X67093368Y-70511831D01*
X66971764Y-70338163D01*
X66971759Y-70338157D01*
X66821842Y-70188240D01*
X66821836Y-70188235D01*
X66648168Y-70066631D01*
X66648164Y-70066629D01*
X66618587Y-70052837D01*
X66456009Y-69977026D01*
X66456005Y-69977024D01*
X66455998Y-69977022D01*
X66427982Y-69969515D01*
X66368323Y-69933149D01*
X66337795Y-69870302D01*
X66346091Y-69800926D01*
X66390577Y-69747049D01*
X66427989Y-69729965D01*
X66455830Y-69722505D01*
X66455838Y-69722502D01*
X66647913Y-69632937D01*
X66647917Y-69632935D01*
X66701713Y-69595266D01*
X66084401Y-68977953D01*
X66165148Y-68965165D01*
X66278045Y-68907641D01*
X66367641Y-68818045D01*
X66425165Y-68705148D01*
X66437953Y-68624400D01*
X67055266Y-69241713D01*
X67092935Y-69187917D01*
X67092937Y-69187913D01*
X67182502Y-68995838D01*
X67182506Y-68995829D01*
X67237354Y-68791131D01*
X67237356Y-68791120D01*
X67255827Y-68580001D01*
X67255827Y-68579998D01*
X67237356Y-68368879D01*
X67237354Y-68368868D01*
X67182506Y-68164170D01*
X67182502Y-68164161D01*
X67092934Y-67972083D01*
X67055266Y-67918286D01*
X67055265Y-67918285D01*
X66437953Y-68535598D01*
X66425165Y-68454852D01*
X66367641Y-68341955D01*
X66278045Y-68252359D01*
X66165148Y-68194835D01*
X66084401Y-68182046D01*
X66701713Y-67564734D01*
X66701712Y-67564733D01*
X66647914Y-67527063D01*
X66647912Y-67527062D01*
X66455838Y-67437497D01*
X66455829Y-67437493D01*
X66251131Y-67382645D01*
X66251120Y-67382643D01*
X66040002Y-67364173D01*
X66039998Y-67364173D01*
X65828879Y-67382643D01*
X65828868Y-67382645D01*
X65624170Y-67437493D01*
X65624161Y-67437497D01*
X65432088Y-67527062D01*
X65378286Y-67564733D01*
X65995599Y-68182046D01*
X65914852Y-68194835D01*
X65801955Y-68252359D01*
X65712359Y-68341955D01*
X65654835Y-68454852D01*
X65642046Y-68535599D01*
X65024733Y-67918286D01*
X64987062Y-67972088D01*
X64897497Y-68164161D01*
X64897493Y-68164170D01*
X64890033Y-68192014D01*
X64853668Y-68251675D01*
X64790821Y-68282204D01*
X64721445Y-68273909D01*
X64667568Y-68229424D01*
X64650483Y-68192014D01*
X64642976Y-68163998D01*
X64642975Y-68163997D01*
X64642974Y-68163991D01*
X64553371Y-67971836D01*
X64553369Y-67971833D01*
X64553368Y-67971831D01*
X64431764Y-67798163D01*
X64431759Y-67798157D01*
X64281842Y-67648240D01*
X64281836Y-67648235D01*
X64108168Y-67526631D01*
X64108164Y-67526629D01*
X64046906Y-67498064D01*
X63916009Y-67437026D01*
X63916005Y-67437025D01*
X63916001Y-67437023D01*
X63888949Y-67429775D01*
X63829288Y-67393410D01*
X63798759Y-67330563D01*
X63807054Y-67261188D01*
X63851539Y-67207310D01*
X63888949Y-67190225D01*
X63906930Y-67185406D01*
X63916009Y-67182974D01*
X64108164Y-67093371D01*
X64281841Y-66971761D01*
X64431761Y-66821841D01*
X64553371Y-66648164D01*
X64642974Y-66456009D01*
X64697849Y-66251213D01*
X64716328Y-66040000D01*
X64697849Y-65828787D01*
X64648154Y-65643323D01*
X64642976Y-65623998D01*
X64642975Y-65623996D01*
X64642974Y-65623991D01*
X64553371Y-65431836D01*
X64553369Y-65431833D01*
X64553368Y-65431831D01*
X64431764Y-65258163D01*
X64431759Y-65258157D01*
X64281842Y-65108240D01*
X64281836Y-65108235D01*
X64108168Y-64986631D01*
X64108164Y-64986629D01*
X64072769Y-64970124D01*
X63916009Y-64897026D01*
X63916005Y-64897025D01*
X63916001Y-64897023D01*
X63711218Y-64842152D01*
X63711208Y-64842150D01*
X63500001Y-64823672D01*
X63494838Y-64823672D01*
X63427799Y-64803987D01*
X63382044Y-64751183D01*
X63371517Y-64686714D01*
X63389460Y-64516000D01*
X63375950Y-64387459D01*
X63388520Y-64318731D01*
X63436252Y-64267708D01*
X63499271Y-64250500D01*
X67582770Y-64250500D01*
X67649809Y-64270185D01*
X67670450Y-64286818D01*
X68441358Y-65057726D01*
X69206132Y-65822499D01*
X69239617Y-65883822D01*
X69238226Y-65942273D01*
X69199366Y-66087302D01*
X69199364Y-66087313D01*
X69179532Y-66313998D01*
X69179532Y-66314001D01*
X69199364Y-66540686D01*
X69199366Y-66540697D01*
X69258258Y-66760488D01*
X69258261Y-66760497D01*
X69354431Y-66966732D01*
X69354432Y-66966734D01*
X69484954Y-67153141D01*
X69645858Y-67314045D01*
X69684293Y-67340957D01*
X69832266Y-67444568D01*
X69847975Y-67451893D01*
X69900414Y-67498064D01*
X69919567Y-67565257D01*
X69899352Y-67632138D01*
X69847979Y-67676656D01*
X69832514Y-67683867D01*
X69832512Y-67683868D01*
X69759526Y-67734973D01*
X69759526Y-67734974D01*
X70440599Y-68416046D01*
X70359852Y-68428835D01*
X70246955Y-68486359D01*
X70157359Y-68575955D01*
X70099835Y-68688852D01*
X70087046Y-68769598D01*
X69405974Y-68088526D01*
X69405973Y-68088526D01*
X69354868Y-68161512D01*
X69354866Y-68161516D01*
X69258734Y-68367673D01*
X69258730Y-68367682D01*
X69199860Y-68587389D01*
X69199858Y-68587400D01*
X69180034Y-68813997D01*
X69180034Y-68814002D01*
X69199858Y-69040599D01*
X69199860Y-69040610D01*
X69258730Y-69260317D01*
X69258735Y-69260331D01*
X69354863Y-69466478D01*
X69405974Y-69539472D01*
X70087046Y-68858400D01*
X70099835Y-68939148D01*
X70157359Y-69052045D01*
X70246955Y-69141641D01*
X70359852Y-69199165D01*
X70440599Y-69211953D01*
X69759526Y-69893025D01*
X69832513Y-69944132D01*
X69832521Y-69944136D01*
X70038668Y-70040264D01*
X70038682Y-70040269D01*
X70258389Y-70099139D01*
X70258400Y-70099141D01*
X70484998Y-70118966D01*
X70485002Y-70118966D01*
X70711599Y-70099141D01*
X70711610Y-70099139D01*
X70931317Y-70040269D01*
X70931331Y-70040264D01*
X71137478Y-69944136D01*
X71210471Y-69893024D01*
X70529400Y-69211953D01*
X70610148Y-69199165D01*
X70723045Y-69141641D01*
X70812641Y-69052045D01*
X70870165Y-68939148D01*
X70882953Y-68858400D01*
X71564024Y-69539471D01*
X71615136Y-69466478D01*
X71711264Y-69260331D01*
X71711269Y-69260317D01*
X71770139Y-69040610D01*
X71770141Y-69040599D01*
X71789966Y-68814002D01*
X71789966Y-68813997D01*
X71770141Y-68587400D01*
X71770139Y-68587389D01*
X71711269Y-68367682D01*
X71711264Y-68367668D01*
X71615136Y-68161521D01*
X71615132Y-68161513D01*
X71564025Y-68088526D01*
X70882953Y-68769598D01*
X70870165Y-68688852D01*
X70812641Y-68575955D01*
X70723045Y-68486359D01*
X70610148Y-68428835D01*
X70529401Y-68416046D01*
X71210472Y-67734974D01*
X71137480Y-67683864D01*
X71122024Y-67676657D01*
X71069585Y-67630484D01*
X71050433Y-67563290D01*
X71070649Y-67496409D01*
X71122023Y-67451893D01*
X71137734Y-67444568D01*
X71324139Y-67314047D01*
X71485047Y-67153139D01*
X71532784Y-67084962D01*
X71587357Y-67041340D01*
X71656855Y-67034145D01*
X71719210Y-67065666D01*
X71722038Y-67068406D01*
X72873181Y-68219549D01*
X72906666Y-68280872D01*
X72909500Y-68307230D01*
X72909500Y-74231294D01*
X72908191Y-74249263D01*
X72904710Y-74273025D01*
X72909028Y-74322368D01*
X72909500Y-74333176D01*
X72909500Y-74338711D01*
X72913098Y-74369495D01*
X72913464Y-74373083D01*
X72920000Y-74447791D01*
X72921461Y-74454867D01*
X72921403Y-74454878D01*
X72923034Y-74462237D01*
X72923092Y-74462224D01*
X72924757Y-74469249D01*
X72924758Y-74469254D01*
X72924759Y-74469255D01*
X72943644Y-74521144D01*
X72950400Y-74539705D01*
X72951582Y-74543107D01*
X72975182Y-74614326D01*
X72978236Y-74620874D01*
X72978182Y-74620898D01*
X72981470Y-74627688D01*
X72981521Y-74627663D01*
X72984761Y-74634114D01*
X73025979Y-74696784D01*
X73027889Y-74699782D01*
X73058972Y-74750174D01*
X73067289Y-74763658D01*
X73071766Y-74769319D01*
X73071719Y-74769356D01*
X73076482Y-74775202D01*
X73076528Y-74775164D01*
X73081173Y-74780699D01*
X73135708Y-74832150D01*
X73138296Y-74834664D01*
X74354267Y-76050634D01*
X74366048Y-76064266D01*
X74380390Y-76083530D01*
X74418343Y-76115376D01*
X74426319Y-76122686D01*
X74430219Y-76126587D01*
X74454544Y-76145821D01*
X74457340Y-76148099D01*
X74485062Y-76171360D01*
X74514786Y-76196302D01*
X74514794Y-76196306D01*
X74520824Y-76200273D01*
X74520790Y-76200323D01*
X74527137Y-76204366D01*
X74527169Y-76204316D01*
X74533321Y-76208110D01*
X74601294Y-76239806D01*
X74604510Y-76241362D01*
X74671567Y-76275040D01*
X74671576Y-76275042D01*
X74678355Y-76277510D01*
X74678334Y-76277567D01*
X74685451Y-76280040D01*
X74685470Y-76279984D01*
X74692324Y-76282255D01*
X74692325Y-76282255D01*
X74692327Y-76282256D01*
X74765848Y-76297436D01*
X74769209Y-76298181D01*
X74842279Y-76315500D01*
X74842285Y-76315500D01*
X74849452Y-76316338D01*
X74849445Y-76316397D01*
X74856946Y-76317163D01*
X74856952Y-76317104D01*
X74864141Y-76317733D01*
X74864143Y-76317732D01*
X74864144Y-76317733D01*
X74939111Y-76315552D01*
X74942717Y-76315500D01*
X86296295Y-76315500D01*
X86314265Y-76316809D01*
X86338023Y-76320289D01*
X86387369Y-76315971D01*
X86398176Y-76315500D01*
X86403704Y-76315500D01*
X86403709Y-76315500D01*
X86434556Y-76311893D01*
X86438030Y-76311539D01*
X86512797Y-76304999D01*
X86512805Y-76304996D01*
X86519866Y-76303539D01*
X86519878Y-76303598D01*
X86527243Y-76301965D01*
X86527229Y-76301906D01*
X86534249Y-76300241D01*
X86534255Y-76300241D01*
X86604779Y-76274572D01*
X86608117Y-76273412D01*
X86679334Y-76249814D01*
X86679342Y-76249808D01*
X86685882Y-76246760D01*
X86685908Y-76246816D01*
X86692690Y-76243532D01*
X86692663Y-76243478D01*
X86699113Y-76240238D01*
X86699117Y-76240237D01*
X86761837Y-76198984D01*
X86764732Y-76197140D01*
X86828656Y-76157712D01*
X86828662Y-76157705D01*
X86834325Y-76153229D01*
X86834362Y-76153277D01*
X86840204Y-76148518D01*
X86840164Y-76148471D01*
X86845686Y-76143835D01*
X86845696Y-76143830D01*
X86897185Y-76089253D01*
X86899632Y-76086734D01*
X88559548Y-74426819D01*
X88620871Y-74393334D01*
X88647229Y-74390500D01*
X90131295Y-74390500D01*
X90149265Y-74391809D01*
X90173023Y-74395289D01*
X90222369Y-74390971D01*
X90233176Y-74390500D01*
X90238704Y-74390500D01*
X90238709Y-74390500D01*
X90269556Y-74386893D01*
X90273030Y-74386539D01*
X90347797Y-74379999D01*
X90347805Y-74379996D01*
X90354866Y-74378539D01*
X90354878Y-74378598D01*
X90362243Y-74376965D01*
X90362229Y-74376906D01*
X90369249Y-74375241D01*
X90369255Y-74375241D01*
X90439779Y-74349572D01*
X90443117Y-74348412D01*
X90514334Y-74324814D01*
X90514342Y-74324808D01*
X90520882Y-74321760D01*
X90520908Y-74321816D01*
X90527690Y-74318532D01*
X90527663Y-74318478D01*
X90534113Y-74315238D01*
X90534117Y-74315237D01*
X90596837Y-74273984D01*
X90599732Y-74272140D01*
X90663656Y-74232712D01*
X90663662Y-74232705D01*
X90669325Y-74228229D01*
X90669363Y-74228277D01*
X90675200Y-74223522D01*
X90675161Y-74223475D01*
X90680691Y-74218833D01*
X90680696Y-74218830D01*
X90732184Y-74164254D01*
X90734631Y-74161735D01*
X91169549Y-73726818D01*
X91230872Y-73693333D01*
X91257230Y-73690499D01*
X92287871Y-73690499D01*
X92287872Y-73690499D01*
X92347483Y-73684091D01*
X92482331Y-73633796D01*
X92597546Y-73547546D01*
X92683796Y-73432331D01*
X92734091Y-73297483D01*
X92739062Y-73251242D01*
X92765799Y-73186694D01*
X92823191Y-73146846D01*
X92862351Y-73140500D01*
X93488337Y-73140500D01*
X93555376Y-73160185D01*
X93589912Y-73193377D01*
X93614954Y-73229141D01*
X93775858Y-73390045D01*
X93775861Y-73390047D01*
X93962266Y-73520568D01*
X93977975Y-73527893D01*
X94030414Y-73574064D01*
X94049567Y-73641257D01*
X94029352Y-73708138D01*
X93977979Y-73752656D01*
X93962514Y-73759867D01*
X93962512Y-73759868D01*
X93889526Y-73810973D01*
X93889526Y-73810974D01*
X94570599Y-74492046D01*
X94489852Y-74504835D01*
X94376955Y-74562359D01*
X94287359Y-74651955D01*
X94229835Y-74764852D01*
X94217046Y-74845598D01*
X93535974Y-74164526D01*
X93535973Y-74164526D01*
X93484868Y-74237512D01*
X93484866Y-74237516D01*
X93388734Y-74443673D01*
X93388730Y-74443682D01*
X93329860Y-74663389D01*
X93329858Y-74663400D01*
X93310034Y-74889997D01*
X93310034Y-74890002D01*
X93329858Y-75116599D01*
X93329860Y-75116610D01*
X93388730Y-75336317D01*
X93388735Y-75336331D01*
X93484863Y-75542478D01*
X93535974Y-75615472D01*
X94217046Y-74934400D01*
X94229835Y-75015148D01*
X94287359Y-75128045D01*
X94376955Y-75217641D01*
X94489852Y-75275165D01*
X94570599Y-75287953D01*
X93889526Y-75969025D01*
X93962513Y-76020132D01*
X93962521Y-76020136D01*
X94168668Y-76116264D01*
X94168682Y-76116269D01*
X94388389Y-76175139D01*
X94388400Y-76175141D01*
X94614998Y-76194966D01*
X94615002Y-76194966D01*
X94841599Y-76175141D01*
X94841610Y-76175139D01*
X95061317Y-76116269D01*
X95061331Y-76116264D01*
X95267478Y-76020136D01*
X95340471Y-75969024D01*
X94659400Y-75287953D01*
X94740148Y-75275165D01*
X94853045Y-75217641D01*
X94942641Y-75128045D01*
X95000165Y-75015148D01*
X95012953Y-74934400D01*
X95694024Y-75615471D01*
X95745136Y-75542478D01*
X95841264Y-75336331D01*
X95841269Y-75336317D01*
X95900139Y-75116610D01*
X95900141Y-75116599D01*
X95919966Y-74890002D01*
X95919966Y-74889997D01*
X95900141Y-74663400D01*
X95900139Y-74663389D01*
X95841269Y-74443682D01*
X95841264Y-74443668D01*
X95745136Y-74237521D01*
X95745132Y-74237513D01*
X95694025Y-74164526D01*
X95012953Y-74845598D01*
X95000165Y-74764852D01*
X94942641Y-74651955D01*
X94853045Y-74562359D01*
X94740148Y-74504835D01*
X94659401Y-74492046D01*
X95340472Y-73810974D01*
X95267480Y-73759864D01*
X95252024Y-73752657D01*
X95199585Y-73706484D01*
X95180433Y-73639290D01*
X95200649Y-73572409D01*
X95252023Y-73527893D01*
X95267734Y-73520568D01*
X95454139Y-73390047D01*
X95615047Y-73229139D01*
X95745568Y-73042734D01*
X95841739Y-72836496D01*
X95900635Y-72616692D01*
X95920468Y-72390000D01*
X95916197Y-72341188D01*
X95909355Y-72262975D01*
X95900635Y-72163308D01*
X95841739Y-71943504D01*
X95745568Y-71737266D01*
X95615047Y-71550861D01*
X95615045Y-71550858D01*
X95454141Y-71389954D01*
X95267734Y-71259432D01*
X95267732Y-71259431D01*
X95061497Y-71163261D01*
X95061488Y-71163258D01*
X94841697Y-71104366D01*
X94841693Y-71104365D01*
X94841692Y-71104365D01*
X94841691Y-71104364D01*
X94841686Y-71104364D01*
X94615002Y-71084532D01*
X94614998Y-71084532D01*
X94388313Y-71104364D01*
X94388302Y-71104366D01*
X94168511Y-71163258D01*
X94168502Y-71163261D01*
X93962267Y-71259431D01*
X93962265Y-71259432D01*
X93775858Y-71389954D01*
X93614954Y-71550858D01*
X93589912Y-71586623D01*
X93535335Y-71630248D01*
X93488337Y-71639500D01*
X92862351Y-71639500D01*
X92795312Y-71619815D01*
X92749557Y-71567011D01*
X92739061Y-71528752D01*
X92734091Y-71482516D01*
X92683797Y-71347671D01*
X92683793Y-71347664D01*
X92597547Y-71232455D01*
X92597544Y-71232452D01*
X92482335Y-71146206D01*
X92482328Y-71146202D01*
X92347482Y-71095908D01*
X92347483Y-71095908D01*
X92287883Y-71089501D01*
X92287881Y-71089500D01*
X92287873Y-71089500D01*
X92287864Y-71089500D01*
X90592129Y-71089500D01*
X90592123Y-71089501D01*
X90532516Y-71095908D01*
X90397671Y-71146202D01*
X90397664Y-71146206D01*
X90282455Y-71232452D01*
X90282452Y-71232455D01*
X90196206Y-71347664D01*
X90196202Y-71347671D01*
X90145908Y-71482516D01*
X90142137Y-71517596D01*
X90115398Y-71582146D01*
X90058006Y-71621994D01*
X89988180Y-71624487D01*
X89928092Y-71588834D01*
X89917273Y-71575462D01*
X89900045Y-71550858D01*
X89739141Y-71389954D01*
X89585499Y-71282374D01*
X89541874Y-71227798D01*
X89532683Y-71184692D01*
X89531378Y-71143165D01*
X89530561Y-71117143D01*
X89530500Y-71113250D01*
X89530500Y-71085651D01*
X89530500Y-71085650D01*
X89529997Y-71081670D01*
X89529080Y-71070021D01*
X89527709Y-71026373D01*
X89522121Y-71007139D01*
X89518174Y-70988081D01*
X89515664Y-70968208D01*
X89515663Y-70968205D01*
X89499583Y-70927592D01*
X89495799Y-70916539D01*
X89483618Y-70874615D01*
X89483617Y-70874610D01*
X89473420Y-70857368D01*
X89464863Y-70839902D01*
X89457486Y-70821268D01*
X89431809Y-70785926D01*
X89425412Y-70776190D01*
X89403170Y-70738579D01*
X89403167Y-70738576D01*
X89403165Y-70738573D01*
X89389005Y-70724413D01*
X89376370Y-70709620D01*
X89364593Y-70693412D01*
X89330945Y-70665576D01*
X89322304Y-70657713D01*
X88130803Y-69466212D01*
X88120980Y-69453950D01*
X88120759Y-69454134D01*
X88115786Y-69448122D01*
X88066776Y-69402099D01*
X88063977Y-69399386D01*
X88044477Y-69379885D01*
X88044471Y-69379880D01*
X88041286Y-69377409D01*
X88032434Y-69369848D01*
X88000582Y-69339938D01*
X88000580Y-69339936D01*
X88000577Y-69339935D01*
X87983029Y-69330288D01*
X87966763Y-69319604D01*
X87950932Y-69307324D01*
X87910849Y-69289978D01*
X87900363Y-69284841D01*
X87862094Y-69263803D01*
X87862092Y-69263802D01*
X87842693Y-69258822D01*
X87824281Y-69252518D01*
X87805898Y-69244562D01*
X87805892Y-69244560D01*
X87762760Y-69237729D01*
X87751322Y-69235361D01*
X87709020Y-69224500D01*
X87709019Y-69224500D01*
X87688984Y-69224500D01*
X87669586Y-69222973D01*
X87662162Y-69221797D01*
X87649805Y-69219840D01*
X87649804Y-69219840D01*
X87606325Y-69223950D01*
X87594656Y-69224500D01*
X86035453Y-69224500D01*
X85968414Y-69204815D01*
X85947772Y-69188181D01*
X85233294Y-68473703D01*
X85199809Y-68412380D01*
X85204793Y-68342688D01*
X85246665Y-68286755D01*
X85312129Y-68262338D01*
X85364308Y-68269840D01*
X85402517Y-68284091D01*
X85402516Y-68284091D01*
X85409444Y-68284835D01*
X85462127Y-68290500D01*
X87257872Y-68290499D01*
X87317483Y-68284091D01*
X87452331Y-68233796D01*
X87567546Y-68147546D01*
X87653796Y-68032331D01*
X87691944Y-67930051D01*
X87733815Y-67874117D01*
X87799279Y-67849700D01*
X87867552Y-67864551D01*
X87895807Y-67885703D01*
X87988599Y-67978495D01*
X88085384Y-68046265D01*
X88182165Y-68114032D01*
X88182167Y-68114033D01*
X88182170Y-68114035D01*
X88396337Y-68213903D01*
X88624592Y-68275063D01*
X88801034Y-68290500D01*
X88859999Y-68295659D01*
X88860000Y-68295659D01*
X88860001Y-68295659D01*
X88918966Y-68290500D01*
X89095408Y-68275063D01*
X89323663Y-68213903D01*
X89537830Y-68114035D01*
X89731401Y-67978495D01*
X89898495Y-67811401D01*
X90034035Y-67617830D01*
X90133903Y-67403663D01*
X90195063Y-67175408D01*
X90215659Y-66940000D01*
X90195063Y-66704592D01*
X90133903Y-66476337D01*
X90034035Y-66262171D01*
X90026363Y-66251213D01*
X89898494Y-66068597D01*
X89857577Y-66027680D01*
X89824092Y-65966357D01*
X89829076Y-65896665D01*
X89857576Y-65852319D01*
X89898495Y-65811401D01*
X90034035Y-65617830D01*
X90133903Y-65403663D01*
X90195063Y-65175408D01*
X90215659Y-64940000D01*
X90195063Y-64704592D01*
X90135457Y-64482136D01*
X90133905Y-64476344D01*
X90133904Y-64476343D01*
X90133903Y-64476337D01*
X90034035Y-64262171D01*
X90027848Y-64253334D01*
X89898494Y-64068597D01*
X89731402Y-63901506D01*
X89731395Y-63901501D01*
X89537834Y-63765967D01*
X89537830Y-63765965D01*
X89485624Y-63741621D01*
X89323663Y-63666097D01*
X89323659Y-63666096D01*
X89323655Y-63666094D01*
X89095413Y-63604938D01*
X89095403Y-63604936D01*
X88860001Y-63584341D01*
X88859999Y-63584341D01*
X88624596Y-63604936D01*
X88624586Y-63604938D01*
X88396344Y-63666094D01*
X88396335Y-63666098D01*
X88182171Y-63765964D01*
X88182169Y-63765965D01*
X87988597Y-63901505D01*
X87821508Y-64068594D01*
X87711269Y-64226032D01*
X87656692Y-64269656D01*
X87587193Y-64276849D01*
X87524839Y-64245327D01*
X87508119Y-64226031D01*
X87474926Y-64178626D01*
X87474925Y-64178625D01*
X86813779Y-64839771D01*
X86813533Y-64836484D01*
X86762872Y-64707402D01*
X86676414Y-64598987D01*
X86561841Y-64520873D01*
X86457698Y-64488749D01*
X87121373Y-63825073D01*
X87121373Y-63825072D01*
X87037583Y-63766402D01*
X87037579Y-63766400D01*
X86823492Y-63666570D01*
X86823483Y-63666566D01*
X86595326Y-63605432D01*
X86595315Y-63605430D01*
X86360002Y-63584843D01*
X86359998Y-63584843D01*
X86124684Y-63605430D01*
X86124673Y-63605432D01*
X85896516Y-63666566D01*
X85896507Y-63666570D01*
X85682419Y-63766401D01*
X85598625Y-63825072D01*
X86262980Y-64489427D01*
X86222881Y-64495471D01*
X86097946Y-64555637D01*
X85996295Y-64649955D01*
X85926961Y-64770045D01*
X85910149Y-64843702D01*
X85245072Y-64178625D01*
X85186401Y-64262419D01*
X85086570Y-64476507D01*
X85086566Y-64476516D01*
X85025432Y-64704673D01*
X85025430Y-64704684D01*
X85004843Y-64939998D01*
X85004843Y-64940001D01*
X85025430Y-65175315D01*
X85025432Y-65175326D01*
X85086566Y-65403483D01*
X85086570Y-65403492D01*
X85175442Y-65594080D01*
X85185934Y-65663158D01*
X85157414Y-65726942D01*
X85153009Y-65731710D01*
X85066206Y-65847664D01*
X85066202Y-65847671D01*
X85015908Y-65982517D01*
X85009501Y-66042116D01*
X85009500Y-66042135D01*
X85009500Y-67837870D01*
X85009501Y-67837876D01*
X85015909Y-67897484D01*
X85030159Y-67935692D01*
X85035143Y-68005384D01*
X85001657Y-68066706D01*
X84940334Y-68100191D01*
X84870642Y-68095205D01*
X84826296Y-68066705D01*
X81453142Y-64693551D01*
X81419657Y-64632228D01*
X81424641Y-64562536D01*
X81466513Y-64506603D01*
X81531977Y-64482186D01*
X81548935Y-64482136D01*
X81589993Y-64484827D01*
X81884312Y-64465537D01*
X81884324Y-64465535D01*
X82173584Y-64407998D01*
X82173599Y-64407994D01*
X82452888Y-64313187D01*
X82717406Y-64182741D01*
X82717419Y-64182734D01*
X82962648Y-64018877D01*
X82996039Y-63989593D01*
X82220319Y-63213872D01*
X82378218Y-63094634D01*
X82523673Y-62935077D01*
X82571456Y-62857903D01*
X83349593Y-63636039D01*
X83378877Y-63602648D01*
X83542734Y-63357419D01*
X83542741Y-63357406D01*
X83673187Y-63092888D01*
X83767994Y-62813599D01*
X83767998Y-62813584D01*
X83825535Y-62524324D01*
X83825537Y-62524312D01*
X83844827Y-62230000D01*
X91375172Y-62230000D01*
X91394462Y-62524312D01*
X91394464Y-62524324D01*
X91452001Y-62813584D01*
X91452005Y-62813599D01*
X91546812Y-63092888D01*
X91677258Y-63357406D01*
X91677265Y-63357419D01*
X91841123Y-63602649D01*
X91870405Y-63636040D01*
X92648542Y-62857902D01*
X92696327Y-62935077D01*
X92841782Y-63094634D01*
X92999679Y-63213872D01*
X92223958Y-63989593D01*
X92257350Y-64018876D01*
X92502580Y-64182734D01*
X92502593Y-64182741D01*
X92767111Y-64313187D01*
X93046400Y-64407994D01*
X93046415Y-64407998D01*
X93335675Y-64465535D01*
X93335687Y-64465537D01*
X93630000Y-64484827D01*
X93924312Y-64465537D01*
X93924324Y-64465535D01*
X94213584Y-64407998D01*
X94213599Y-64407994D01*
X94492888Y-64313187D01*
X94757406Y-64182741D01*
X94757419Y-64182734D01*
X95002648Y-64018877D01*
X95036039Y-63989593D01*
X94260319Y-63213872D01*
X94418218Y-63094634D01*
X94563673Y-62935077D01*
X94611456Y-62857903D01*
X95389593Y-63636039D01*
X95418877Y-63602648D01*
X95582734Y-63357419D01*
X95582741Y-63357406D01*
X95713187Y-63092888D01*
X95807994Y-62813599D01*
X95807998Y-62813584D01*
X95865535Y-62524324D01*
X95865537Y-62524312D01*
X95884827Y-62230000D01*
X95865537Y-61935687D01*
X95865535Y-61935675D01*
X95807998Y-61646415D01*
X95807994Y-61646400D01*
X95713187Y-61367111D01*
X95582741Y-61102593D01*
X95582734Y-61102580D01*
X95418876Y-60857350D01*
X95389593Y-60823958D01*
X94611456Y-61602095D01*
X94563673Y-61524923D01*
X94418218Y-61365366D01*
X94260319Y-61246126D01*
X95036040Y-60470405D01*
X95002649Y-60441123D01*
X94757419Y-60277265D01*
X94757406Y-60277258D01*
X94492888Y-60146812D01*
X94213599Y-60052005D01*
X94213584Y-60052001D01*
X93924324Y-59994464D01*
X93924312Y-59994462D01*
X93630000Y-59975172D01*
X93335687Y-59994462D01*
X93335675Y-59994464D01*
X93046415Y-60052001D01*
X93046400Y-60052005D01*
X92767111Y-60146812D01*
X92502593Y-60277258D01*
X92502580Y-60277265D01*
X92257346Y-60441126D01*
X92257339Y-60441131D01*
X92223959Y-60470403D01*
X92223959Y-60470405D01*
X92999680Y-61246126D01*
X92841782Y-61365366D01*
X92696327Y-61524923D01*
X92648543Y-61602096D01*
X91870405Y-60823959D01*
X91870403Y-60823959D01*
X91841131Y-60857339D01*
X91841126Y-60857346D01*
X91677265Y-61102580D01*
X91677258Y-61102593D01*
X91546812Y-61367111D01*
X91452005Y-61646400D01*
X91452001Y-61646415D01*
X91394464Y-61935675D01*
X91394462Y-61935687D01*
X91375172Y-62230000D01*
X83844827Y-62230000D01*
X83825537Y-61935687D01*
X83825535Y-61935675D01*
X83767998Y-61646415D01*
X83767994Y-61646400D01*
X83673187Y-61367111D01*
X83542741Y-61102593D01*
X83542734Y-61102580D01*
X83378876Y-60857350D01*
X83349593Y-60823958D01*
X82571456Y-61602095D01*
X82523673Y-61524923D01*
X82378218Y-61365366D01*
X82220319Y-61246126D01*
X82996040Y-60470405D01*
X82962649Y-60441123D01*
X82717419Y-60277265D01*
X82717406Y-60277258D01*
X82452888Y-60146812D01*
X82173599Y-60052005D01*
X82173584Y-60052001D01*
X81884324Y-59994464D01*
X81884312Y-59994462D01*
X81590000Y-59975172D01*
X81295687Y-59994462D01*
X81295675Y-59994464D01*
X81006415Y-60052001D01*
X81006400Y-60052005D01*
X80727111Y-60146812D01*
X80462593Y-60277258D01*
X80462580Y-60277265D01*
X80217346Y-60441126D01*
X80217339Y-60441131D01*
X80183959Y-60470403D01*
X80183959Y-60470405D01*
X80959680Y-61246126D01*
X80801782Y-61365366D01*
X80656327Y-61524923D01*
X80608543Y-61602096D01*
X79830405Y-60823959D01*
X79830404Y-60823959D01*
X79814353Y-60842263D01*
X79755352Y-60879688D01*
X79685483Y-60879274D01*
X79626930Y-60841151D01*
X79605831Y-60806154D01*
X79588588Y-60762604D01*
X79584804Y-60751552D01*
X79572618Y-60709609D01*
X79572616Y-60709606D01*
X79562423Y-60692371D01*
X79553861Y-60674894D01*
X79546487Y-60656269D01*
X79520816Y-60620937D01*
X79514405Y-60611177D01*
X79492170Y-60573580D01*
X79492168Y-60573578D01*
X79492165Y-60573574D01*
X79478006Y-60559415D01*
X79465368Y-60544619D01*
X79453594Y-60528413D01*
X79419940Y-60500572D01*
X79411299Y-60492709D01*
X78478803Y-59560212D01*
X78468980Y-59547950D01*
X78468759Y-59548134D01*
X78463786Y-59542122D01*
X78414776Y-59496099D01*
X78411977Y-59493386D01*
X78392477Y-59473885D01*
X78392471Y-59473880D01*
X78389286Y-59471409D01*
X78380434Y-59463848D01*
X78348582Y-59433938D01*
X78348580Y-59433936D01*
X78348577Y-59433935D01*
X78331029Y-59424288D01*
X78314763Y-59413604D01*
X78298932Y-59401324D01*
X78258849Y-59383978D01*
X78248363Y-59378841D01*
X78210093Y-59357803D01*
X78205489Y-59355980D01*
X78150405Y-59312997D01*
X78127304Y-59247057D01*
X78137585Y-59190878D01*
X78164156Y-59130303D01*
X78221133Y-58905308D01*
X78221135Y-58905297D01*
X78240300Y-58674006D01*
X78240300Y-58673993D01*
X78221135Y-58442702D01*
X78221133Y-58442691D01*
X78164157Y-58217699D01*
X78070924Y-58005151D01*
X77943983Y-57810852D01*
X77943980Y-57810849D01*
X77943979Y-57810847D01*
X77786784Y-57640087D01*
X77786779Y-57640083D01*
X77786777Y-57640081D01*
X77603634Y-57497535D01*
X77603628Y-57497531D01*
X77399504Y-57387064D01*
X77399495Y-57387061D01*
X77179984Y-57311702D01*
X77008282Y-57283050D01*
X76951049Y-57273500D01*
X76718951Y-57273500D01*
X76673164Y-57281140D01*
X76490015Y-57311702D01*
X76270504Y-57387061D01*
X76270495Y-57387064D01*
X76066371Y-57497531D01*
X76066365Y-57497535D01*
X75883222Y-57640081D01*
X75883219Y-57640084D01*
X75726016Y-57810852D01*
X75599075Y-58005151D01*
X75505842Y-58217699D01*
X75448866Y-58442691D01*
X75448864Y-58442702D01*
X75429700Y-58673993D01*
X75429700Y-58674006D01*
X75448864Y-58905297D01*
X75448866Y-58905308D01*
X75505842Y-59130297D01*
X75505843Y-59130300D01*
X75511437Y-59143054D01*
X75512155Y-59144689D01*
X75521058Y-59213989D01*
X75491081Y-59277102D01*
X75431742Y-59313989D01*
X75398599Y-59318500D01*
X73234737Y-59318500D01*
X73219120Y-59316776D01*
X73219093Y-59317062D01*
X73211330Y-59316327D01*
X73196007Y-59316809D01*
X73128383Y-59299238D01*
X73080993Y-59247896D01*
X73068884Y-59179084D01*
X73078561Y-59143057D01*
X73084157Y-59130300D01*
X73141134Y-58905305D01*
X73141135Y-58905297D01*
X73160300Y-58674006D01*
X73160300Y-58673993D01*
X73141135Y-58442702D01*
X73141133Y-58442691D01*
X73084157Y-58217699D01*
X72990924Y-58005151D01*
X72863983Y-57810852D01*
X72863980Y-57810849D01*
X72863979Y-57810847D01*
X72706784Y-57640087D01*
X72706779Y-57640083D01*
X72706777Y-57640081D01*
X72523634Y-57497535D01*
X72523628Y-57497531D01*
X72319504Y-57387064D01*
X72319495Y-57387061D01*
X72099984Y-57311702D01*
X71928282Y-57283050D01*
X71871049Y-57273500D01*
X71638951Y-57273500D01*
X71593164Y-57281140D01*
X71410015Y-57311702D01*
X71190504Y-57387061D01*
X71190495Y-57387064D01*
X70986371Y-57497531D01*
X70986365Y-57497535D01*
X70803222Y-57640081D01*
X70803219Y-57640084D01*
X70646016Y-57810852D01*
X70519075Y-58005151D01*
X70425842Y-58217699D01*
X70368866Y-58442691D01*
X70368864Y-58442702D01*
X70349700Y-58673993D01*
X70349700Y-58674006D01*
X70368864Y-58905297D01*
X70368866Y-58905308D01*
X70425842Y-59130300D01*
X70519075Y-59342848D01*
X70646016Y-59537147D01*
X70646019Y-59537151D01*
X70646021Y-59537153D01*
X70740803Y-59640114D01*
X70771724Y-59702767D01*
X70763864Y-59772193D01*
X70719716Y-59826348D01*
X70692906Y-59840277D01*
X70612669Y-59870203D01*
X70612664Y-59870206D01*
X70497455Y-59956452D01*
X70497452Y-59956455D01*
X70411206Y-60071664D01*
X70411202Y-60071671D01*
X70360908Y-60206517D01*
X70354501Y-60266116D01*
X70354501Y-60266123D01*
X70354500Y-60266135D01*
X70354500Y-62161870D01*
X70354501Y-62161876D01*
X70360908Y-62221483D01*
X70411202Y-62356328D01*
X70411206Y-62356335D01*
X70497452Y-62471544D01*
X70497455Y-62471547D01*
X70612664Y-62557793D01*
X70612671Y-62557797D01*
X70638198Y-62567318D01*
X70694132Y-62609189D01*
X70718549Y-62674653D01*
X70703698Y-62742926D01*
X70654293Y-62792332D01*
X70594865Y-62807500D01*
X70500757Y-62807500D01*
X70282060Y-62848382D01*
X70150864Y-62899207D01*
X70074601Y-62928752D01*
X70074595Y-62928754D01*
X69885439Y-63045874D01*
X69885437Y-63045876D01*
X69721020Y-63195761D01*
X69586943Y-63373308D01*
X69586938Y-63373316D01*
X69487775Y-63572461D01*
X69487770Y-63572474D01*
X69454936Y-63687875D01*
X69417657Y-63746968D01*
X69354347Y-63776525D01*
X69285107Y-63767163D01*
X69247989Y-63741621D01*
X68520729Y-63014361D01*
X68508949Y-63000730D01*
X68494610Y-62981470D01*
X68456651Y-62949619D01*
X68448686Y-62942318D01*
X68444780Y-62938411D01*
X68420443Y-62919168D01*
X68417647Y-62916890D01*
X68360214Y-62868698D01*
X68354180Y-62864729D01*
X68354212Y-62864680D01*
X68347853Y-62860628D01*
X68347822Y-62860679D01*
X68341680Y-62856891D01*
X68341678Y-62856890D01*
X68341677Y-62856889D01*
X68273688Y-62825184D01*
X68270447Y-62823615D01*
X68238358Y-62807500D01*
X68203433Y-62789960D01*
X68203431Y-62789959D01*
X68203430Y-62789959D01*
X68196645Y-62787489D01*
X68196665Y-62787433D01*
X68189549Y-62784959D01*
X68189531Y-62785015D01*
X68182674Y-62782743D01*
X68109210Y-62767573D01*
X68105693Y-62766793D01*
X68032718Y-62749499D01*
X68025547Y-62748661D01*
X68025553Y-62748601D01*
X68018055Y-62747835D01*
X68018050Y-62747895D01*
X68010860Y-62747265D01*
X67937472Y-62749401D01*
X67869888Y-62731674D01*
X67822617Y-62680223D01*
X67810667Y-62611383D01*
X67837831Y-62547010D01*
X67859549Y-62526190D01*
X67932546Y-62471546D01*
X68018796Y-62356331D01*
X68069091Y-62221483D01*
X68075500Y-62161873D01*
X68075499Y-60266128D01*
X68069091Y-60206517D01*
X68046822Y-60146812D01*
X68018797Y-60071671D01*
X68018793Y-60071664D01*
X67932547Y-59956455D01*
X67932544Y-59956452D01*
X67817335Y-59870206D01*
X67817328Y-59870202D01*
X67737094Y-59840277D01*
X67681160Y-59798406D01*
X67656743Y-59732941D01*
X67671595Y-59664668D01*
X67689190Y-59640121D01*
X67783979Y-59537153D01*
X67910924Y-59342849D01*
X68004157Y-59130300D01*
X68061134Y-58905305D01*
X68061135Y-58905297D01*
X68080300Y-58674006D01*
X68080300Y-58673993D01*
X68061135Y-58442702D01*
X68061133Y-58442691D01*
X68004157Y-58217699D01*
X67910924Y-58005151D01*
X67783983Y-57810852D01*
X67783980Y-57810849D01*
X67783979Y-57810847D01*
X67626784Y-57640087D01*
X67626779Y-57640083D01*
X67626777Y-57640081D01*
X67443634Y-57497535D01*
X67443628Y-57497531D01*
X67239504Y-57387064D01*
X67239495Y-57387061D01*
X67019984Y-57311702D01*
X66848282Y-57283050D01*
X66791049Y-57273500D01*
X66558951Y-57273500D01*
X66513164Y-57281140D01*
X66330015Y-57311702D01*
X66110504Y-57387061D01*
X66110495Y-57387064D01*
X65906371Y-57497531D01*
X65906365Y-57497535D01*
X65723222Y-57640081D01*
X65723219Y-57640084D01*
X65566016Y-57810852D01*
X65439075Y-58005151D01*
X65345842Y-58217699D01*
X65288866Y-58442691D01*
X65288864Y-58442702D01*
X65269700Y-58673993D01*
X65269700Y-58674006D01*
X65288864Y-58905297D01*
X65288866Y-58905308D01*
X65345842Y-59130300D01*
X65439075Y-59342848D01*
X65566016Y-59537147D01*
X65566019Y-59537151D01*
X65566021Y-59537153D01*
X65660803Y-59640114D01*
X65691724Y-59702767D01*
X65683864Y-59772193D01*
X65639716Y-59826348D01*
X65612906Y-59840277D01*
X65532669Y-59870203D01*
X65532664Y-59870206D01*
X65417455Y-59956452D01*
X65417452Y-59956455D01*
X65331206Y-60071664D01*
X65331202Y-60071671D01*
X65280908Y-60206517D01*
X65274501Y-60266116D01*
X65274501Y-60266123D01*
X65274500Y-60266135D01*
X65274500Y-62161870D01*
X65274501Y-62161876D01*
X65280908Y-62221483D01*
X65331202Y-62356328D01*
X65331206Y-62356335D01*
X65400358Y-62448709D01*
X65417454Y-62471546D01*
X65490507Y-62526234D01*
X65532378Y-62582167D01*
X65537362Y-62651859D01*
X65503877Y-62713182D01*
X65442553Y-62746666D01*
X65416196Y-62749500D01*
X61023705Y-62749500D01*
X61005735Y-62748191D01*
X60981972Y-62744710D01*
X60935642Y-62748764D01*
X60932632Y-62749028D01*
X60921826Y-62749500D01*
X60916284Y-62749500D01*
X60885484Y-62753100D01*
X60881899Y-62753466D01*
X60807200Y-62760001D01*
X60800133Y-62761461D01*
X60800121Y-62761404D01*
X60792754Y-62763038D01*
X60792768Y-62763094D01*
X60785745Y-62764758D01*
X60715270Y-62790407D01*
X60711870Y-62791589D01*
X60640666Y-62815185D01*
X60634119Y-62818238D01*
X60634094Y-62818186D01*
X60627314Y-62821468D01*
X60627340Y-62821520D01*
X60620882Y-62824763D01*
X60558235Y-62865966D01*
X60555199Y-62867900D01*
X60491346Y-62907287D01*
X60485677Y-62911770D01*
X60485641Y-62911724D01*
X60479798Y-62916484D01*
X60479835Y-62916528D01*
X60474310Y-62921164D01*
X60474304Y-62921169D01*
X60474304Y-62921170D01*
X60450733Y-62946153D01*
X60422832Y-62975726D01*
X60420320Y-62978311D01*
X58603379Y-64795251D01*
X58542056Y-64828736D01*
X58504892Y-64831098D01*
X58420004Y-64823672D01*
X58419996Y-64823672D01*
X58335106Y-64831098D01*
X58266606Y-64817331D01*
X58236619Y-64795251D01*
X56455729Y-63014361D01*
X56443949Y-63000730D01*
X56429610Y-62981470D01*
X56391651Y-62949619D01*
X56383686Y-62942318D01*
X56379780Y-62938411D01*
X56355443Y-62919168D01*
X56352647Y-62916890D01*
X56295214Y-62868698D01*
X56289180Y-62864729D01*
X56289212Y-62864680D01*
X56282853Y-62860628D01*
X56282822Y-62860679D01*
X56276680Y-62856891D01*
X56276678Y-62856890D01*
X56276677Y-62856889D01*
X56208688Y-62825184D01*
X56205447Y-62823615D01*
X56173358Y-62807500D01*
X56138433Y-62789960D01*
X56138431Y-62789959D01*
X56138430Y-62789959D01*
X56131645Y-62787489D01*
X56131665Y-62787433D01*
X56124549Y-62784959D01*
X56124531Y-62785015D01*
X56117674Y-62782743D01*
X56044210Y-62767573D01*
X56040693Y-62766793D01*
X55967718Y-62749499D01*
X55960547Y-62748661D01*
X55960553Y-62748601D01*
X55953055Y-62747835D01*
X55953050Y-62747895D01*
X55945860Y-62747265D01*
X55870870Y-62749448D01*
X55867263Y-62749500D01*
X48323705Y-62749500D01*
X48305735Y-62748191D01*
X48281972Y-62744710D01*
X48235642Y-62748764D01*
X48232632Y-62749028D01*
X48221826Y-62749500D01*
X48216284Y-62749500D01*
X48185484Y-62753100D01*
X48181899Y-62753466D01*
X48107200Y-62760001D01*
X48100133Y-62761461D01*
X48100121Y-62761404D01*
X48092754Y-62763038D01*
X48092768Y-62763094D01*
X48085745Y-62764758D01*
X48015270Y-62790407D01*
X48011870Y-62791589D01*
X47940666Y-62815185D01*
X47934119Y-62818238D01*
X47934094Y-62818186D01*
X47927314Y-62821468D01*
X47927340Y-62821520D01*
X47920882Y-62824763D01*
X47858235Y-62865966D01*
X47855199Y-62867900D01*
X47791346Y-62907287D01*
X47785677Y-62911770D01*
X47785641Y-62911724D01*
X47779798Y-62916484D01*
X47779835Y-62916528D01*
X47774310Y-62921164D01*
X47774304Y-62921169D01*
X47774304Y-62921170D01*
X47750733Y-62946153D01*
X47722832Y-62975726D01*
X47720320Y-62978311D01*
X45234358Y-65464272D01*
X45220729Y-65476051D01*
X45201469Y-65490390D01*
X45169632Y-65528331D01*
X45162346Y-65536284D01*
X45158407Y-65540224D01*
X45139176Y-65564545D01*
X45136902Y-65567337D01*
X45088694Y-65624790D01*
X45084729Y-65630819D01*
X45084682Y-65630788D01*
X45080630Y-65637147D01*
X45080679Y-65637177D01*
X45076889Y-65643321D01*
X45045192Y-65711294D01*
X45043623Y-65714536D01*
X45009957Y-65781572D01*
X45007488Y-65788357D01*
X45007432Y-65788336D01*
X45004960Y-65795450D01*
X45005015Y-65795469D01*
X45002743Y-65802325D01*
X44987573Y-65875788D01*
X44986793Y-65879304D01*
X44969499Y-65952279D01*
X44968661Y-65959454D01*
X44968601Y-65959447D01*
X44967835Y-65966945D01*
X44967895Y-65966951D01*
X44967265Y-65974140D01*
X44969448Y-66049128D01*
X44969500Y-66052735D01*
X44969500Y-76136294D01*
X44968191Y-76154263D01*
X44964710Y-76178025D01*
X44969028Y-76227368D01*
X44969500Y-76238176D01*
X44969500Y-76243711D01*
X44973098Y-76274495D01*
X44973464Y-76278083D01*
X44980000Y-76352791D01*
X44981461Y-76359867D01*
X44981403Y-76359878D01*
X44983034Y-76367237D01*
X44983092Y-76367224D01*
X44984757Y-76374249D01*
X44984758Y-76374254D01*
X44984759Y-76374255D01*
X44998208Y-76411208D01*
X45010400Y-76444705D01*
X45011582Y-76448107D01*
X45035182Y-76519326D01*
X45038236Y-76525874D01*
X45038182Y-76525898D01*
X45041470Y-76532688D01*
X45041521Y-76532663D01*
X45044761Y-76539114D01*
X45085979Y-76601784D01*
X45087889Y-76604782D01*
X45118972Y-76655174D01*
X45127289Y-76668658D01*
X45131766Y-76674319D01*
X45131719Y-76674356D01*
X45136482Y-76680202D01*
X45136528Y-76680164D01*
X45141173Y-76685699D01*
X45195708Y-76737150D01*
X45198296Y-76739664D01*
X47015251Y-78556619D01*
X47048736Y-78617942D01*
X47051098Y-78655106D01*
X47043672Y-78739996D01*
X47043672Y-78740003D01*
X47051098Y-78824893D01*
X47037331Y-78893393D01*
X47015251Y-78923380D01*
X42694358Y-83244272D01*
X42680729Y-83256051D01*
X42661469Y-83270390D01*
X42629632Y-83308331D01*
X42622346Y-83316284D01*
X42618407Y-83320224D01*
X42599176Y-83344545D01*
X42596902Y-83347337D01*
X42548694Y-83404790D01*
X42544729Y-83410819D01*
X42544682Y-83410788D01*
X42540630Y-83417147D01*
X42540679Y-83417177D01*
X42536889Y-83423321D01*
X42505192Y-83491294D01*
X42503623Y-83494536D01*
X42469957Y-83561572D01*
X42467488Y-83568357D01*
X42467432Y-83568336D01*
X42464960Y-83575450D01*
X42465015Y-83575469D01*
X42462743Y-83582325D01*
X42447573Y-83655788D01*
X42446793Y-83659304D01*
X42429499Y-83732279D01*
X42428661Y-83739454D01*
X42428601Y-83739447D01*
X42427835Y-83746945D01*
X42427895Y-83746951D01*
X42427265Y-83754140D01*
X42429448Y-83829128D01*
X42429500Y-83832735D01*
X42429500Y-87903216D01*
X42409815Y-87970255D01*
X42357011Y-88016010D01*
X42341497Y-88021876D01*
X42284193Y-88039259D01*
X42109001Y-88132901D01*
X42108994Y-88132905D01*
X41955431Y-88258931D01*
X41922353Y-88299238D01*
X41864607Y-88338572D01*
X41794763Y-88340443D01*
X41734994Y-88304255D01*
X41704279Y-88241499D01*
X41702500Y-88220573D01*
X41702500Y-58678427D01*
X41702816Y-58669581D01*
X41704491Y-58646156D01*
X41719491Y-58436419D01*
X41722009Y-58418916D01*
X41770754Y-58194839D01*
X41775736Y-58177873D01*
X41855876Y-57963007D01*
X41863217Y-57946934D01*
X41973121Y-57745660D01*
X41982683Y-57730783D01*
X42120107Y-57547206D01*
X42131686Y-57533842D01*
X42293842Y-57371686D01*
X42307206Y-57360107D01*
X42490783Y-57222683D01*
X42505663Y-57213120D01*
X42706934Y-57103217D01*
X42723007Y-57095876D01*
X42937881Y-57015733D01*
X42954839Y-57010754D01*
X43178922Y-56962007D01*
X43196419Y-56959491D01*
X43429582Y-56942816D01*
X43438428Y-56942500D01*
X43481595Y-56942500D01*
X96208403Y-56942500D01*
X96208415Y-56942501D01*
G37*
%TD.AperFunction*%
%TA.AperFunction,Conductor*%
G36*
X46965551Y-81198329D02*
G01*
X47021484Y-81240201D01*
X47045745Y-81303703D01*
X47062150Y-81491208D01*
X47062152Y-81491218D01*
X47117023Y-81696001D01*
X47117025Y-81696005D01*
X47117026Y-81696009D01*
X47206629Y-81888164D01*
X47206631Y-81888168D01*
X47328235Y-82061836D01*
X47328240Y-82061842D01*
X47478157Y-82211759D01*
X47478163Y-82211764D01*
X47651831Y-82333368D01*
X47651833Y-82333369D01*
X47651836Y-82333371D01*
X47843991Y-82422974D01*
X48048787Y-82477849D01*
X48217757Y-82492632D01*
X48259999Y-82496328D01*
X48260000Y-82496328D01*
X48260001Y-82496328D01*
X48295202Y-82493248D01*
X48471213Y-82477849D01*
X48532209Y-82461505D01*
X48602055Y-82463168D01*
X48659918Y-82502330D01*
X48687423Y-82566558D01*
X48688300Y-82581280D01*
X48688300Y-83090746D01*
X48668615Y-83157785D01*
X48651981Y-83178427D01*
X45336208Y-86494199D01*
X45323951Y-86504020D01*
X45324134Y-86504241D01*
X45318122Y-86509214D01*
X45272098Y-86558223D01*
X45269391Y-86561016D01*
X45249889Y-86580517D01*
X45249875Y-86580534D01*
X45247407Y-86583715D01*
X45239843Y-86592570D01*
X45209937Y-86624418D01*
X45209936Y-86624420D01*
X45200284Y-86641976D01*
X45189610Y-86658226D01*
X45177329Y-86674061D01*
X45177324Y-86674068D01*
X45159975Y-86714158D01*
X45154838Y-86724644D01*
X45133803Y-86762906D01*
X45128822Y-86782307D01*
X45122521Y-86800710D01*
X45114562Y-86819102D01*
X45114561Y-86819105D01*
X45107728Y-86862243D01*
X45105360Y-86873674D01*
X45094501Y-86915971D01*
X45094500Y-86915982D01*
X45094500Y-86936016D01*
X45092973Y-86955415D01*
X45091116Y-86967142D01*
X45089840Y-86975196D01*
X45092799Y-87006500D01*
X45093950Y-87018674D01*
X45094500Y-87030343D01*
X45094500Y-87865298D01*
X45074815Y-87932337D01*
X45022011Y-87978092D01*
X45006496Y-87983958D01*
X44824194Y-88039259D01*
X44649001Y-88132901D01*
X44648995Y-88132905D01*
X44528664Y-88231658D01*
X44464354Y-88258970D01*
X44395487Y-88247179D01*
X44371336Y-88231658D01*
X44251004Y-88132905D01*
X44250998Y-88132901D01*
X44075806Y-88039259D01*
X44018503Y-88021876D01*
X43960065Y-87983578D01*
X43931609Y-87919765D01*
X43930500Y-87903216D01*
X43930500Y-84182229D01*
X43950185Y-84115190D01*
X43966814Y-84094553D01*
X46834538Y-81226828D01*
X46895859Y-81193345D01*
X46965551Y-81198329D01*
G37*
%TD.AperFunction*%
%TA.AperFunction,Conductor*%
G36*
X49057634Y-84644470D02*
G01*
X49113567Y-84686342D01*
X49137984Y-84751806D01*
X49138300Y-84760652D01*
X49138300Y-85180746D01*
X49118615Y-85247785D01*
X49101981Y-85268427D01*
X47876208Y-86494199D01*
X47863951Y-86504020D01*
X47864134Y-86504241D01*
X47858122Y-86509214D01*
X47812098Y-86558223D01*
X47809391Y-86561016D01*
X47789889Y-86580517D01*
X47789875Y-86580534D01*
X47787407Y-86583715D01*
X47779843Y-86592570D01*
X47749937Y-86624418D01*
X47749936Y-86624420D01*
X47740284Y-86641976D01*
X47729610Y-86658226D01*
X47717329Y-86674061D01*
X47717324Y-86674068D01*
X47699975Y-86714158D01*
X47694838Y-86724644D01*
X47673803Y-86762906D01*
X47668822Y-86782307D01*
X47662521Y-86800710D01*
X47654562Y-86819102D01*
X47654561Y-86819105D01*
X47647728Y-86862243D01*
X47645360Y-86873674D01*
X47634501Y-86915971D01*
X47634500Y-86915982D01*
X47634500Y-86936016D01*
X47632973Y-86955415D01*
X47631116Y-86967142D01*
X47629840Y-86975196D01*
X47632799Y-87006500D01*
X47633950Y-87018674D01*
X47634500Y-87030343D01*
X47634500Y-87865298D01*
X47614815Y-87932337D01*
X47562011Y-87978092D01*
X47546496Y-87983958D01*
X47364194Y-88039259D01*
X47189001Y-88132901D01*
X47188995Y-88132905D01*
X47068664Y-88231658D01*
X47004354Y-88258970D01*
X46935487Y-88247179D01*
X46911336Y-88231658D01*
X46791004Y-88132905D01*
X46790998Y-88132901D01*
X46615805Y-88039259D01*
X46433504Y-87983958D01*
X46375066Y-87945661D01*
X46346609Y-87881849D01*
X46345500Y-87865298D01*
X46345500Y-87305452D01*
X46365185Y-87238413D01*
X46381819Y-87217771D01*
X48926619Y-84672971D01*
X48987942Y-84639486D01*
X49057634Y-84644470D01*
G37*
%TD.AperFunction*%
%TA.AperFunction,Conductor*%
G36*
X50545394Y-85006221D02*
G01*
X50588787Y-85017849D01*
X50757757Y-85032632D01*
X50799999Y-85036328D01*
X50800000Y-85036328D01*
X50800001Y-85036328D01*
X50835202Y-85033248D01*
X51011213Y-85017849D01*
X51054605Y-85006222D01*
X51124455Y-85007884D01*
X51182318Y-85047045D01*
X51209823Y-85111274D01*
X51210700Y-85125996D01*
X51210700Y-85648346D01*
X51191015Y-85715385D01*
X51174381Y-85736027D01*
X50416208Y-86494199D01*
X50403951Y-86504020D01*
X50404134Y-86504241D01*
X50398122Y-86509214D01*
X50352098Y-86558223D01*
X50349391Y-86561016D01*
X50329889Y-86580517D01*
X50329875Y-86580534D01*
X50327407Y-86583715D01*
X50319843Y-86592570D01*
X50289937Y-86624418D01*
X50289936Y-86624420D01*
X50280284Y-86641976D01*
X50269610Y-86658226D01*
X50257329Y-86674061D01*
X50257324Y-86674068D01*
X50239975Y-86714158D01*
X50234838Y-86724644D01*
X50213803Y-86762906D01*
X50208822Y-86782307D01*
X50202521Y-86800710D01*
X50194562Y-86819102D01*
X50194561Y-86819105D01*
X50187728Y-86862243D01*
X50185360Y-86873674D01*
X50174501Y-86915971D01*
X50174500Y-86915982D01*
X50174500Y-86936016D01*
X50172973Y-86955415D01*
X50171116Y-86967142D01*
X50169840Y-86975196D01*
X50172799Y-87006500D01*
X50173950Y-87018674D01*
X50174500Y-87030343D01*
X50174500Y-87865298D01*
X50154815Y-87932337D01*
X50102011Y-87978092D01*
X50086496Y-87983958D01*
X49904194Y-88039259D01*
X49729001Y-88132901D01*
X49728995Y-88132905D01*
X49608664Y-88231658D01*
X49544354Y-88258970D01*
X49475487Y-88247179D01*
X49451336Y-88231658D01*
X49331004Y-88132905D01*
X49330998Y-88132901D01*
X49155805Y-88039259D01*
X48973504Y-87983958D01*
X48915066Y-87945661D01*
X48886609Y-87881849D01*
X48885500Y-87865298D01*
X48885500Y-87305452D01*
X48905185Y-87238413D01*
X48921819Y-87217771D01*
X49531019Y-86608571D01*
X50147588Y-85992001D01*
X50159842Y-85982186D01*
X50159659Y-85981964D01*
X50165668Y-85976991D01*
X50165677Y-85976986D01*
X50211749Y-85927922D01*
X50214366Y-85925223D01*
X50233920Y-85905671D01*
X50236376Y-85902503D01*
X50243956Y-85893627D01*
X50273862Y-85861782D01*
X50283513Y-85844224D01*
X50294196Y-85827961D01*
X50306473Y-85812136D01*
X50323821Y-85772044D01*
X50328951Y-85761571D01*
X50349997Y-85723292D01*
X50354980Y-85703880D01*
X50361281Y-85685480D01*
X50369237Y-85667096D01*
X50376070Y-85623948D01*
X50378433Y-85612538D01*
X50389300Y-85570219D01*
X50389300Y-85550183D01*
X50390827Y-85530782D01*
X50390864Y-85530550D01*
X50393960Y-85511004D01*
X50389850Y-85467524D01*
X50389300Y-85455855D01*
X50389300Y-85125996D01*
X50408985Y-85058957D01*
X50461789Y-85013202D01*
X50530947Y-85003258D01*
X50545394Y-85006221D01*
G37*
%TD.AperFunction*%
%TA.AperFunction,Conductor*%
G36*
X52113334Y-86668770D02*
G01*
X52157681Y-86697271D01*
X52678181Y-87217771D01*
X52711666Y-87279094D01*
X52714500Y-87305452D01*
X52714500Y-87865298D01*
X52694815Y-87932337D01*
X52642011Y-87978092D01*
X52626496Y-87983958D01*
X52444194Y-88039259D01*
X52269001Y-88132901D01*
X52268995Y-88132905D01*
X52148664Y-88231658D01*
X52084354Y-88258970D01*
X52015487Y-88247179D01*
X51991336Y-88231658D01*
X51871004Y-88132905D01*
X51870998Y-88132901D01*
X51695805Y-88039259D01*
X51513504Y-87983958D01*
X51455066Y-87945661D01*
X51426609Y-87881849D01*
X51425500Y-87865298D01*
X51425500Y-87305452D01*
X51445185Y-87238413D01*
X51461819Y-87217771D01*
X51982319Y-86697271D01*
X52043642Y-86663786D01*
X52113334Y-86668770D01*
G37*
%TD.AperFunction*%
%TA.AperFunction,Conductor*%
G36*
X53067775Y-85001501D02*
G01*
X53128787Y-85017849D01*
X53297757Y-85032632D01*
X53339999Y-85036328D01*
X53340000Y-85036328D01*
X53340001Y-85036328D01*
X53375202Y-85033248D01*
X53551213Y-85017849D01*
X53594605Y-85006222D01*
X53664455Y-85007884D01*
X53722318Y-85047045D01*
X53749823Y-85111274D01*
X53750700Y-85125996D01*
X53750700Y-85408455D01*
X53748975Y-85424072D01*
X53749261Y-85424099D01*
X53748526Y-85431865D01*
X53750639Y-85499072D01*
X53750700Y-85502967D01*
X53750700Y-85530557D01*
X53751203Y-85534535D01*
X53752118Y-85546167D01*
X53753490Y-85589824D01*
X53753491Y-85589827D01*
X53759080Y-85609067D01*
X53763024Y-85628111D01*
X53765536Y-85647992D01*
X53781614Y-85688603D01*
X53785397Y-85699652D01*
X53797581Y-85741588D01*
X53807780Y-85758834D01*
X53816338Y-85776303D01*
X53823714Y-85794932D01*
X53849381Y-85830260D01*
X53855793Y-85840021D01*
X53878028Y-85877617D01*
X53878033Y-85877624D01*
X53892190Y-85891780D01*
X53904828Y-85906576D01*
X53916605Y-85922786D01*
X53916606Y-85922787D01*
X53950257Y-85950625D01*
X53958898Y-85958488D01*
X55218181Y-87217771D01*
X55251666Y-87279094D01*
X55254500Y-87305452D01*
X55254500Y-87865298D01*
X55234815Y-87932337D01*
X55182011Y-87978092D01*
X55166496Y-87983958D01*
X54984194Y-88039259D01*
X54809001Y-88132901D01*
X54808995Y-88132905D01*
X54688664Y-88231658D01*
X54624354Y-88258970D01*
X54555487Y-88247179D01*
X54531336Y-88231658D01*
X54411004Y-88132905D01*
X54410998Y-88132901D01*
X54235805Y-88039259D01*
X54053504Y-87983958D01*
X53995066Y-87945661D01*
X53966609Y-87881849D01*
X53965500Y-87865298D01*
X53965500Y-87077737D01*
X53967224Y-87062123D01*
X53966938Y-87062096D01*
X53967672Y-87054333D01*
X53965561Y-86987144D01*
X53965500Y-86983250D01*
X53965500Y-86955651D01*
X53965500Y-86955650D01*
X53964997Y-86951670D01*
X53964080Y-86940021D01*
X53964058Y-86939323D01*
X53962709Y-86896373D01*
X53958068Y-86880401D01*
X53957122Y-86877144D01*
X53953174Y-86858084D01*
X53950664Y-86838210D01*
X53950664Y-86838208D01*
X53934584Y-86797594D01*
X53930804Y-86786552D01*
X53918619Y-86744612D01*
X53918615Y-86744606D01*
X53915224Y-86738872D01*
X53908418Y-86727363D01*
X53899860Y-86709894D01*
X53892486Y-86691268D01*
X53892483Y-86691264D01*
X53892483Y-86691263D01*
X53866816Y-86655935D01*
X53860403Y-86646172D01*
X53838172Y-86608583D01*
X53838170Y-86608579D01*
X53838164Y-86608573D01*
X53838163Y-86608571D01*
X53824005Y-86594413D01*
X53811370Y-86579620D01*
X53799593Y-86563412D01*
X53765945Y-86535576D01*
X53757304Y-86527713D01*
X52948019Y-85718428D01*
X52914534Y-85657105D01*
X52911700Y-85630747D01*
X52911700Y-85121280D01*
X52931385Y-85054241D01*
X52984189Y-85008486D01*
X53053347Y-84998542D01*
X53067775Y-85001501D01*
G37*
%TD.AperFunction*%
%TA.AperFunction,Conductor*%
G36*
X56038485Y-85501385D02*
G01*
X56059127Y-85518019D01*
X57758181Y-87217073D01*
X57791666Y-87278396D01*
X57794500Y-87304754D01*
X57794500Y-87865298D01*
X57774815Y-87932337D01*
X57722011Y-87978092D01*
X57706496Y-87983958D01*
X57524194Y-88039259D01*
X57349001Y-88132901D01*
X57348995Y-88132905D01*
X57228664Y-88231658D01*
X57164354Y-88258970D01*
X57095487Y-88247179D01*
X57071336Y-88231658D01*
X56951004Y-88132905D01*
X56950998Y-88132901D01*
X56775805Y-88039259D01*
X56593504Y-87983958D01*
X56535066Y-87945661D01*
X56506609Y-87881849D01*
X56505500Y-87865298D01*
X56505500Y-87077737D01*
X56507224Y-87062123D01*
X56506938Y-87062096D01*
X56507672Y-87054333D01*
X56505561Y-86987143D01*
X56505500Y-86983249D01*
X56505500Y-86955651D01*
X56505500Y-86955650D01*
X56504997Y-86951670D01*
X56504080Y-86940021D01*
X56503954Y-86936016D01*
X56502709Y-86896372D01*
X56497120Y-86877137D01*
X56493174Y-86858084D01*
X56493086Y-86857386D01*
X56490664Y-86838208D01*
X56474578Y-86797581D01*
X56470803Y-86786554D01*
X56458617Y-86744610D01*
X56448421Y-86727369D01*
X56439860Y-86709893D01*
X56438308Y-86705975D01*
X56432486Y-86691268D01*
X56406809Y-86655926D01*
X56400412Y-86646190D01*
X56378170Y-86608579D01*
X56378167Y-86608576D01*
X56378165Y-86608573D01*
X56364005Y-86594413D01*
X56351370Y-86579620D01*
X56339593Y-86563412D01*
X56305945Y-86535576D01*
X56297304Y-86527713D01*
X55462972Y-85693381D01*
X55429487Y-85632058D01*
X55434471Y-85562366D01*
X55476343Y-85506433D01*
X55541807Y-85482016D01*
X55550653Y-85481700D01*
X55971446Y-85481700D01*
X56038485Y-85501385D01*
G37*
%TD.AperFunction*%
%TA.AperFunction,Conductor*%
G36*
X59785991Y-86709589D02*
G01*
X59806633Y-86726223D01*
X60298181Y-87217771D01*
X60331666Y-87279094D01*
X60334500Y-87305452D01*
X60334500Y-87865298D01*
X60314815Y-87932337D01*
X60262011Y-87978092D01*
X60246496Y-87983958D01*
X60064194Y-88039259D01*
X59889001Y-88132901D01*
X59888995Y-88132905D01*
X59768664Y-88231658D01*
X59704354Y-88258970D01*
X59635487Y-88247179D01*
X59611336Y-88231658D01*
X59491004Y-88132905D01*
X59490998Y-88132901D01*
X59315805Y-88039259D01*
X59133504Y-87983958D01*
X59075066Y-87945661D01*
X59046609Y-87881849D01*
X59045500Y-87865298D01*
X59045500Y-87077044D01*
X59047224Y-87061424D01*
X59046939Y-87061398D01*
X59047671Y-87053642D01*
X59047673Y-87053635D01*
X59045561Y-86986428D01*
X59045500Y-86982533D01*
X59045500Y-86954956D01*
X59045500Y-86954952D01*
X59044996Y-86950967D01*
X59044080Y-86939323D01*
X59043976Y-86936016D01*
X59042709Y-86895675D01*
X59037122Y-86876446D01*
X59033174Y-86857386D01*
X59030752Y-86838207D01*
X59030664Y-86837510D01*
X59030663Y-86837508D01*
X59029686Y-86829770D01*
X59033036Y-86829346D01*
X59034939Y-86774840D01*
X59074741Y-86717415D01*
X59139270Y-86690625D01*
X59152625Y-86689904D01*
X59718952Y-86689904D01*
X59785991Y-86709589D01*
G37*
%TD.AperFunction*%
%TA.AperFunction,Conductor*%
G36*
X61875991Y-86259589D02*
G01*
X61896633Y-86276223D01*
X62838181Y-87217771D01*
X62871666Y-87279094D01*
X62874500Y-87305452D01*
X62874500Y-87865298D01*
X62854815Y-87932337D01*
X62802011Y-87978092D01*
X62786496Y-87983958D01*
X62604194Y-88039259D01*
X62429001Y-88132901D01*
X62428995Y-88132905D01*
X62308664Y-88231658D01*
X62244354Y-88258970D01*
X62175487Y-88247179D01*
X62151336Y-88231658D01*
X62031004Y-88132905D01*
X62030998Y-88132901D01*
X61855805Y-88039259D01*
X61673504Y-87983958D01*
X61615066Y-87945661D01*
X61586609Y-87881849D01*
X61585500Y-87865298D01*
X61585500Y-87077737D01*
X61587224Y-87062123D01*
X61586938Y-87062096D01*
X61587672Y-87054333D01*
X61585561Y-86987143D01*
X61585500Y-86983249D01*
X61585500Y-86955651D01*
X61585500Y-86955650D01*
X61584997Y-86951670D01*
X61584080Y-86940021D01*
X61583954Y-86936016D01*
X61582709Y-86896372D01*
X61577120Y-86877137D01*
X61573174Y-86858084D01*
X61573086Y-86857386D01*
X61570664Y-86838208D01*
X61554578Y-86797581D01*
X61550803Y-86786554D01*
X61538617Y-86744610D01*
X61528421Y-86727369D01*
X61519860Y-86709893D01*
X61518308Y-86705975D01*
X61512486Y-86691268D01*
X61486809Y-86655926D01*
X61480412Y-86646190D01*
X61458170Y-86608579D01*
X61458167Y-86608576D01*
X61458165Y-86608573D01*
X61444005Y-86594413D01*
X61431370Y-86579620D01*
X61419593Y-86563412D01*
X61385945Y-86535576D01*
X61377304Y-86527713D01*
X61301176Y-86451585D01*
X61267691Y-86390262D01*
X61272675Y-86320570D01*
X61314547Y-86264637D01*
X61380011Y-86240220D01*
X61388857Y-86239904D01*
X61808952Y-86239904D01*
X61875991Y-86259589D01*
G37*
%TD.AperFunction*%
%TA.AperFunction,Conductor*%
G36*
X67272400Y-74259433D02*
G01*
X67279694Y-74266879D01*
X67310011Y-74300549D01*
X67339129Y-74332888D01*
X67492265Y-74444148D01*
X67492270Y-74444151D01*
X67665192Y-74521142D01*
X67665193Y-74521142D01*
X67665197Y-74521144D01*
X67792781Y-74548262D01*
X67854262Y-74581454D01*
X67888039Y-74642617D01*
X67891000Y-74669552D01*
X67891000Y-87858025D01*
X67871315Y-87925064D01*
X67818511Y-87970819D01*
X67779160Y-87981427D01*
X67772829Y-87982050D01*
X67576733Y-88041535D01*
X67396027Y-88138125D01*
X67335358Y-88187913D01*
X67271047Y-88215225D01*
X67202180Y-88203432D01*
X67178031Y-88187912D01*
X67111004Y-88132905D01*
X67111002Y-88132903D01*
X66935808Y-88039260D01*
X66790498Y-87995181D01*
X66745701Y-87981592D01*
X66745699Y-87981591D01*
X66745701Y-87981591D01*
X66639415Y-87971123D01*
X66597547Y-87967000D01*
X66597543Y-87967000D01*
X65482457Y-87967000D01*
X65334300Y-87981591D01*
X65144191Y-88039260D01*
X64969001Y-88132901D01*
X64968995Y-88132905D01*
X64848664Y-88231658D01*
X64784354Y-88258970D01*
X64715487Y-88247179D01*
X64691336Y-88231658D01*
X64571004Y-88132905D01*
X64570998Y-88132901D01*
X64395805Y-88039259D01*
X64213504Y-87983958D01*
X64155066Y-87945661D01*
X64126609Y-87881849D01*
X64125500Y-87865298D01*
X64125500Y-87077742D01*
X64127224Y-87062122D01*
X64126939Y-87062095D01*
X64127673Y-87054333D01*
X64125561Y-86987112D01*
X64125500Y-86983218D01*
X64125500Y-86955656D01*
X64125500Y-86955650D01*
X64124996Y-86951668D01*
X64124081Y-86940029D01*
X64123955Y-86936016D01*
X64122710Y-86896373D01*
X64117119Y-86877130D01*
X64113173Y-86858078D01*
X64110664Y-86838208D01*
X64094579Y-86797583D01*
X64090803Y-86786552D01*
X64078618Y-86744610D01*
X64078617Y-86744608D01*
X64078617Y-86744607D01*
X64078616Y-86744606D01*
X64068423Y-86727371D01*
X64059861Y-86709894D01*
X64052487Y-86691269D01*
X64039989Y-86674068D01*
X64026811Y-86655930D01*
X64020405Y-86646177D01*
X64004971Y-86620080D01*
X63998172Y-86608583D01*
X63998165Y-86608574D01*
X63984006Y-86594415D01*
X63971368Y-86579619D01*
X63959594Y-86563413D01*
X63955027Y-86559635D01*
X63925940Y-86535572D01*
X63917299Y-86527709D01*
X62620207Y-85230616D01*
X62610384Y-85218354D01*
X62610163Y-85218538D01*
X62605190Y-85212526D01*
X62556180Y-85166503D01*
X62553381Y-85163790D01*
X62533881Y-85144289D01*
X62533875Y-85144284D01*
X62530690Y-85141813D01*
X62521838Y-85134252D01*
X62489986Y-85104342D01*
X62489984Y-85104340D01*
X62489981Y-85104339D01*
X62472433Y-85094692D01*
X62456167Y-85084008D01*
X62440336Y-85071728D01*
X62400253Y-85054382D01*
X62389767Y-85049245D01*
X62351498Y-85028207D01*
X62351496Y-85028206D01*
X62332097Y-85023226D01*
X62313685Y-85016922D01*
X62295302Y-85008966D01*
X62295296Y-85008964D01*
X62252164Y-85002133D01*
X62240726Y-84999765D01*
X62198424Y-84988904D01*
X62198423Y-84988904D01*
X62178388Y-84988904D01*
X62158990Y-84987377D01*
X62145074Y-84985173D01*
X62139209Y-84984244D01*
X62139208Y-84984244D01*
X62095729Y-84988354D01*
X62084060Y-84988904D01*
X61796444Y-84988904D01*
X61729405Y-84969219D01*
X61683650Y-84916415D01*
X61673706Y-84847257D01*
X61702731Y-84783701D01*
X61725320Y-84763329D01*
X61729143Y-84760652D01*
X61741841Y-84751761D01*
X61891761Y-84601841D01*
X62013371Y-84428164D01*
X62102974Y-84236009D01*
X62103023Y-84235829D01*
X62110483Y-84207986D01*
X62146847Y-84148325D01*
X62209694Y-84117795D01*
X62279069Y-84126089D01*
X62332948Y-84170574D01*
X62350033Y-84207985D01*
X62357493Y-84235829D01*
X62357497Y-84235838D01*
X62447062Y-84427912D01*
X62447063Y-84427914D01*
X62484733Y-84481712D01*
X62484734Y-84481713D01*
X63102046Y-83864400D01*
X63114835Y-83945148D01*
X63172359Y-84058045D01*
X63261955Y-84147641D01*
X63374852Y-84205165D01*
X63455599Y-84217953D01*
X62838285Y-84835265D01*
X62892087Y-84872937D01*
X63084161Y-84962502D01*
X63084170Y-84962506D01*
X63288868Y-85017354D01*
X63288879Y-85017356D01*
X63499998Y-85035827D01*
X63500002Y-85035827D01*
X63711120Y-85017356D01*
X63711131Y-85017354D01*
X63915829Y-84962506D01*
X63915838Y-84962502D01*
X64107913Y-84872937D01*
X64107917Y-84872935D01*
X64161713Y-84835266D01*
X63544401Y-84217953D01*
X63625148Y-84205165D01*
X63738045Y-84147641D01*
X63827641Y-84058045D01*
X63885165Y-83945148D01*
X63897953Y-83864400D01*
X64515266Y-84481713D01*
X64552935Y-84427917D01*
X64552937Y-84427913D01*
X64642502Y-84235838D01*
X64642506Y-84235829D01*
X64697354Y-84031131D01*
X64697356Y-84031120D01*
X64715827Y-83820001D01*
X64715827Y-83819998D01*
X64697356Y-83608879D01*
X64697354Y-83608868D01*
X64642506Y-83404170D01*
X64642502Y-83404161D01*
X64552934Y-83212083D01*
X64515266Y-83158286D01*
X64515265Y-83158285D01*
X63897953Y-83775598D01*
X63885165Y-83694852D01*
X63827641Y-83581955D01*
X63738045Y-83492359D01*
X63625148Y-83434835D01*
X63544401Y-83422046D01*
X64161713Y-82804734D01*
X64161712Y-82804733D01*
X64107914Y-82767063D01*
X64107912Y-82767062D01*
X63915838Y-82677497D01*
X63915829Y-82677493D01*
X63887985Y-82670033D01*
X63828325Y-82633669D01*
X63797795Y-82570822D01*
X63806089Y-82501446D01*
X63850574Y-82447568D01*
X63887986Y-82430483D01*
X63915999Y-82422977D01*
X63916000Y-82422976D01*
X63916009Y-82422974D01*
X64108164Y-82333371D01*
X64281841Y-82211761D01*
X64431761Y-82061841D01*
X64553371Y-81888164D01*
X64642974Y-81696009D01*
X64648908Y-81673863D01*
X64650225Y-81668949D01*
X64686590Y-81609288D01*
X64749437Y-81578759D01*
X64818812Y-81587054D01*
X64872690Y-81631539D01*
X64889775Y-81668949D01*
X64897023Y-81696001D01*
X64897025Y-81696005D01*
X64897026Y-81696009D01*
X64986629Y-81888164D01*
X64986631Y-81888168D01*
X65108235Y-82061836D01*
X65108240Y-82061842D01*
X65258157Y-82211759D01*
X65258163Y-82211764D01*
X65431831Y-82333368D01*
X65431833Y-82333369D01*
X65431836Y-82333371D01*
X65623991Y-82422974D01*
X65828787Y-82477849D01*
X65997757Y-82492632D01*
X66039999Y-82496328D01*
X66040000Y-82496328D01*
X66040001Y-82496328D01*
X66075202Y-82493248D01*
X66251213Y-82477849D01*
X66456009Y-82422974D01*
X66648164Y-82333371D01*
X66821841Y-82211761D01*
X66971761Y-82061841D01*
X67093371Y-81888164D01*
X67182974Y-81696009D01*
X67237849Y-81491213D01*
X67256328Y-81280000D01*
X67237849Y-81068787D01*
X67182974Y-80863991D01*
X67093371Y-80671836D01*
X67093369Y-80671833D01*
X67093368Y-80671831D01*
X66971764Y-80498163D01*
X66971759Y-80498157D01*
X66821842Y-80348240D01*
X66821836Y-80348235D01*
X66648168Y-80226631D01*
X66648164Y-80226629D01*
X66456009Y-80137026D01*
X66456005Y-80137025D01*
X66456001Y-80137023D01*
X66428949Y-80129775D01*
X66369288Y-80093410D01*
X66338759Y-80030563D01*
X66347054Y-79961188D01*
X66391539Y-79907310D01*
X66428949Y-79890225D01*
X66450702Y-79884396D01*
X66456009Y-79882974D01*
X66648164Y-79793371D01*
X66821841Y-79671761D01*
X66971761Y-79521841D01*
X67093371Y-79348164D01*
X67182974Y-79156009D01*
X67237849Y-78951213D01*
X67256328Y-78740000D01*
X67237849Y-78528787D01*
X67182974Y-78323991D01*
X67093371Y-78131836D01*
X67093369Y-78131833D01*
X67093368Y-78131831D01*
X66971764Y-77958163D01*
X66971759Y-77958157D01*
X66821842Y-77808240D01*
X66821836Y-77808235D01*
X66648168Y-77686631D01*
X66648164Y-77686629D01*
X66456009Y-77597026D01*
X66456005Y-77597025D01*
X66456001Y-77597023D01*
X66428949Y-77589775D01*
X66369288Y-77553410D01*
X66338759Y-77490563D01*
X66347054Y-77421188D01*
X66391539Y-77367310D01*
X66428949Y-77350225D01*
X66450702Y-77344396D01*
X66456009Y-77342974D01*
X66648164Y-77253371D01*
X66821841Y-77131761D01*
X66971761Y-76981841D01*
X67093371Y-76808164D01*
X67182974Y-76616009D01*
X67237849Y-76411213D01*
X67256328Y-76200000D01*
X67256242Y-76199022D01*
X67246138Y-76083529D01*
X67237849Y-75988787D01*
X67182974Y-75783991D01*
X67093371Y-75591836D01*
X67093369Y-75591833D01*
X67093368Y-75591831D01*
X66971764Y-75418163D01*
X66971759Y-75418157D01*
X66821842Y-75268240D01*
X66821836Y-75268235D01*
X66648168Y-75146631D01*
X66648164Y-75146629D01*
X66608310Y-75128045D01*
X66456009Y-75057026D01*
X66456005Y-75057025D01*
X66456001Y-75057023D01*
X66428949Y-75049775D01*
X66369288Y-75013410D01*
X66338759Y-74950563D01*
X66347054Y-74881188D01*
X66391539Y-74827310D01*
X66428949Y-74810225D01*
X66450702Y-74804396D01*
X66456009Y-74802974D01*
X66648164Y-74713371D01*
X66821841Y-74591761D01*
X66971761Y-74441841D01*
X67085974Y-74278727D01*
X67140547Y-74235105D01*
X67210046Y-74227911D01*
X67272400Y-74259433D01*
G37*
%TD.AperFunction*%
%TA.AperFunction,Conductor*%
G36*
X83139014Y-85100185D02*
G01*
X83184769Y-85152989D01*
X83194713Y-85222147D01*
X83165688Y-85285703D01*
X83122413Y-85317778D01*
X83117876Y-85319797D01*
X83113267Y-85321850D01*
X83113265Y-85321851D01*
X82960129Y-85433111D01*
X82833466Y-85573785D01*
X82738821Y-85737715D01*
X82738818Y-85737722D01*
X82680327Y-85917740D01*
X82680326Y-85917744D01*
X82660540Y-86106000D01*
X82680326Y-86294256D01*
X82680327Y-86294259D01*
X82738818Y-86474277D01*
X82738821Y-86474284D01*
X82833467Y-86638216D01*
X82929261Y-86744606D01*
X82960129Y-86778888D01*
X83113265Y-86890148D01*
X83113270Y-86890151D01*
X83286192Y-86967142D01*
X83286197Y-86967144D01*
X83471354Y-87006500D01*
X83471355Y-87006500D01*
X83660644Y-87006500D01*
X83660646Y-87006500D01*
X83845803Y-86967144D01*
X84018730Y-86890151D01*
X84171871Y-86778888D01*
X84298533Y-86638216D01*
X84393179Y-86474284D01*
X84393182Y-86474275D01*
X84405559Y-86436183D01*
X84444996Y-86378507D01*
X84509354Y-86351308D01*
X84523490Y-86350500D01*
X89859548Y-86350500D01*
X89926587Y-86370185D01*
X89947229Y-86386819D01*
X90778181Y-87217771D01*
X90811666Y-87279094D01*
X90814500Y-87305452D01*
X90814500Y-87865298D01*
X90794815Y-87932337D01*
X90742011Y-87978092D01*
X90726496Y-87983958D01*
X90544194Y-88039259D01*
X90369001Y-88132901D01*
X90368995Y-88132905D01*
X90248664Y-88231658D01*
X90184354Y-88258970D01*
X90115487Y-88247179D01*
X90091336Y-88231658D01*
X89971004Y-88132905D01*
X89970998Y-88132901D01*
X89795808Y-88039260D01*
X89650498Y-87995181D01*
X89605701Y-87981592D01*
X89605699Y-87981591D01*
X89605701Y-87981591D01*
X89499415Y-87971123D01*
X89457547Y-87967000D01*
X89457543Y-87967000D01*
X88342457Y-87967000D01*
X88194300Y-87981591D01*
X88004191Y-88039260D01*
X87829001Y-88132901D01*
X87828995Y-88132905D01*
X87708664Y-88231658D01*
X87644354Y-88258970D01*
X87575487Y-88247179D01*
X87551336Y-88231658D01*
X87431004Y-88132905D01*
X87430998Y-88132901D01*
X87255808Y-88039260D01*
X87110498Y-87995181D01*
X87065701Y-87981592D01*
X87065699Y-87981591D01*
X87065701Y-87981591D01*
X86959415Y-87971123D01*
X86917547Y-87967000D01*
X86917543Y-87967000D01*
X85802457Y-87967000D01*
X85654300Y-87981591D01*
X85464191Y-88039260D01*
X85289001Y-88132901D01*
X85288995Y-88132905D01*
X85168664Y-88231658D01*
X85104354Y-88258970D01*
X85035487Y-88247179D01*
X85011336Y-88231658D01*
X84891004Y-88132905D01*
X84890998Y-88132901D01*
X84715808Y-88039260D01*
X84570498Y-87995181D01*
X84525701Y-87981592D01*
X84525699Y-87981591D01*
X84525701Y-87981591D01*
X84419415Y-87971123D01*
X84377547Y-87967000D01*
X84377543Y-87967000D01*
X83262457Y-87967000D01*
X83114300Y-87981591D01*
X82924191Y-88039260D01*
X82749001Y-88132901D01*
X82748995Y-88132905D01*
X82628664Y-88231658D01*
X82564354Y-88258970D01*
X82495487Y-88247179D01*
X82471336Y-88231658D01*
X82351004Y-88132905D01*
X82350998Y-88132901D01*
X82175808Y-88039260D01*
X82030498Y-87995181D01*
X81985701Y-87981592D01*
X81985699Y-87981591D01*
X81985701Y-87981591D01*
X81879415Y-87971123D01*
X81837547Y-87967000D01*
X81837543Y-87967000D01*
X80722457Y-87967000D01*
X80574300Y-87981591D01*
X80384191Y-88039260D01*
X80209001Y-88132901D01*
X80208995Y-88132905D01*
X80088664Y-88231658D01*
X80024354Y-88258970D01*
X79955487Y-88247179D01*
X79931336Y-88231658D01*
X79811004Y-88132905D01*
X79810998Y-88132901D01*
X79635808Y-88039260D01*
X79490498Y-87995181D01*
X79445701Y-87981592D01*
X79445699Y-87981591D01*
X79445701Y-87981591D01*
X79339415Y-87971123D01*
X79297547Y-87967000D01*
X79297543Y-87967000D01*
X78182457Y-87967000D01*
X78034300Y-87981591D01*
X77844191Y-88039260D01*
X77669001Y-88132901D01*
X77668995Y-88132905D01*
X77548664Y-88231658D01*
X77484354Y-88258970D01*
X77415487Y-88247179D01*
X77391336Y-88231658D01*
X77271004Y-88132905D01*
X77270998Y-88132901D01*
X77095808Y-88039260D01*
X76950498Y-87995181D01*
X76905701Y-87981592D01*
X76905699Y-87981591D01*
X76905701Y-87981591D01*
X76799415Y-87971123D01*
X76757547Y-87967000D01*
X76757543Y-87967000D01*
X75642457Y-87967000D01*
X75494300Y-87981591D01*
X75304191Y-88039260D01*
X75129001Y-88132901D01*
X75128995Y-88132905D01*
X75008664Y-88231658D01*
X74944354Y-88258970D01*
X74875487Y-88247179D01*
X74851336Y-88231658D01*
X74731004Y-88132905D01*
X74730998Y-88132901D01*
X74555808Y-88039260D01*
X74410498Y-87995181D01*
X74365701Y-87981592D01*
X74365699Y-87981591D01*
X74365701Y-87981591D01*
X74259415Y-87971123D01*
X74217547Y-87967000D01*
X74217543Y-87967000D01*
X73102457Y-87967000D01*
X72954300Y-87981591D01*
X72764191Y-88039260D01*
X72589001Y-88132901D01*
X72588995Y-88132905D01*
X72468664Y-88231658D01*
X72404354Y-88258970D01*
X72335487Y-88247179D01*
X72311336Y-88231658D01*
X72191004Y-88132905D01*
X72190998Y-88132901D01*
X72015808Y-88039260D01*
X71870498Y-87995181D01*
X71825701Y-87981592D01*
X71825699Y-87981591D01*
X71825701Y-87981591D01*
X71710595Y-87970255D01*
X71677547Y-87967000D01*
X71677544Y-87967000D01*
X70696950Y-87967000D01*
X70629911Y-87947315D01*
X70584156Y-87894511D01*
X70574212Y-87825353D01*
X70603237Y-87761797D01*
X70609253Y-87755335D01*
X73247772Y-85116819D01*
X73309095Y-85083334D01*
X73335453Y-85080500D01*
X83071975Y-85080500D01*
X83139014Y-85100185D01*
G37*
%TD.AperFunction*%
%TA.AperFunction,Conductor*%
G36*
X91196587Y-85100185D02*
G01*
X91217229Y-85116819D01*
X93318181Y-87217771D01*
X93351666Y-87279094D01*
X93354500Y-87305452D01*
X93354500Y-87865298D01*
X93334815Y-87932337D01*
X93282011Y-87978092D01*
X93266496Y-87983958D01*
X93084194Y-88039259D01*
X92909001Y-88132901D01*
X92908995Y-88132905D01*
X92788664Y-88231658D01*
X92724354Y-88258970D01*
X92655487Y-88247179D01*
X92631336Y-88231658D01*
X92511004Y-88132905D01*
X92510998Y-88132901D01*
X92335805Y-88039259D01*
X92153504Y-87983958D01*
X92095066Y-87945661D01*
X92066609Y-87881849D01*
X92065500Y-87865298D01*
X92065500Y-87077737D01*
X92067224Y-87062123D01*
X92066938Y-87062096D01*
X92067672Y-87054333D01*
X92065561Y-86987144D01*
X92065500Y-86983250D01*
X92065500Y-86955651D01*
X92065500Y-86955650D01*
X92064997Y-86951670D01*
X92064080Y-86940021D01*
X92064058Y-86939323D01*
X92062709Y-86896373D01*
X92058068Y-86880401D01*
X92057122Y-86877144D01*
X92053174Y-86858084D01*
X92050664Y-86838210D01*
X92050664Y-86838208D01*
X92034584Y-86797594D01*
X92030804Y-86786552D01*
X92018619Y-86744612D01*
X92018615Y-86744606D01*
X92015224Y-86738872D01*
X92008418Y-86727363D01*
X91999860Y-86709894D01*
X91992486Y-86691268D01*
X91992483Y-86691264D01*
X91992483Y-86691263D01*
X91966816Y-86655935D01*
X91960403Y-86646172D01*
X91938172Y-86608583D01*
X91938170Y-86608579D01*
X91938164Y-86608573D01*
X91938163Y-86608571D01*
X91924005Y-86594413D01*
X91911370Y-86579620D01*
X91899593Y-86563412D01*
X91865945Y-86535576D01*
X91857304Y-86527713D01*
X90670803Y-85341212D01*
X90660980Y-85328950D01*
X90660759Y-85329134D01*
X90655785Y-85323122D01*
X90625723Y-85294891D01*
X90590329Y-85234650D01*
X90593123Y-85164836D01*
X90633217Y-85107615D01*
X90697882Y-85081155D01*
X90710608Y-85080500D01*
X91129548Y-85080500D01*
X91196587Y-85100185D01*
G37*
%TD.AperFunction*%
%TA.AperFunction,Conductor*%
G36*
X62278812Y-81587054D02*
G01*
X62332690Y-81631539D01*
X62349775Y-81668949D01*
X62357023Y-81696001D01*
X62357025Y-81696005D01*
X62357026Y-81696009D01*
X62446629Y-81888164D01*
X62446631Y-81888168D01*
X62568235Y-82061836D01*
X62568240Y-82061842D01*
X62718157Y-82211759D01*
X62718163Y-82211764D01*
X62891831Y-82333368D01*
X62891833Y-82333369D01*
X62891836Y-82333371D01*
X63083991Y-82422974D01*
X63083997Y-82422975D01*
X63083998Y-82422976D01*
X63112014Y-82430483D01*
X63171675Y-82466848D01*
X63202204Y-82529695D01*
X63193909Y-82599070D01*
X63149424Y-82652948D01*
X63112014Y-82670033D01*
X63084170Y-82677493D01*
X63084161Y-82677497D01*
X62892088Y-82767062D01*
X62838286Y-82804733D01*
X63455599Y-83422046D01*
X63374852Y-83434835D01*
X63261955Y-83492359D01*
X63172359Y-83581955D01*
X63114835Y-83694852D01*
X63102046Y-83775599D01*
X62484733Y-83158286D01*
X62447062Y-83212088D01*
X62357497Y-83404161D01*
X62357493Y-83404170D01*
X62350033Y-83432014D01*
X62313668Y-83491675D01*
X62250821Y-83522204D01*
X62181445Y-83513909D01*
X62127568Y-83469424D01*
X62110483Y-83432014D01*
X62102976Y-83403998D01*
X62102975Y-83403997D01*
X62102974Y-83403991D01*
X62013371Y-83211836D01*
X62013369Y-83211833D01*
X62013368Y-83211831D01*
X61891764Y-83038163D01*
X61891759Y-83038157D01*
X61741842Y-82888240D01*
X61741836Y-82888235D01*
X61568168Y-82766631D01*
X61568164Y-82766629D01*
X61525042Y-82746521D01*
X61376009Y-82677026D01*
X61376005Y-82677025D01*
X61376001Y-82677023D01*
X61348949Y-82669775D01*
X61289288Y-82633410D01*
X61258759Y-82570563D01*
X61267054Y-82501188D01*
X61311539Y-82447310D01*
X61348949Y-82430225D01*
X61370702Y-82424396D01*
X61376009Y-82422974D01*
X61568164Y-82333371D01*
X61741841Y-82211761D01*
X61891761Y-82061841D01*
X62013371Y-81888164D01*
X62102974Y-81696009D01*
X62108908Y-81673863D01*
X62110225Y-81668949D01*
X62146590Y-81609288D01*
X62209437Y-81578759D01*
X62278812Y-81587054D01*
G37*
%TD.AperFunction*%
%TA.AperFunction,Conductor*%
G36*
X85157865Y-80553348D02*
G01*
X85202382Y-80604725D01*
X85229429Y-80662728D01*
X85229432Y-80662734D01*
X85359954Y-80849141D01*
X85520858Y-81010045D01*
X85520861Y-81010047D01*
X85707266Y-81140568D01*
X85913504Y-81236739D01*
X86082887Y-81282124D01*
X86142546Y-81318489D01*
X86173076Y-81381335D01*
X86164782Y-81450711D01*
X86120297Y-81504589D01*
X86082887Y-81521674D01*
X85873680Y-81577731D01*
X85873673Y-81577734D01*
X85667516Y-81673866D01*
X85667512Y-81673868D01*
X85594526Y-81724973D01*
X85594526Y-81724974D01*
X86275599Y-82406046D01*
X86194852Y-82418835D01*
X86081955Y-82476359D01*
X85992359Y-82565955D01*
X85934835Y-82678852D01*
X85922046Y-82759598D01*
X85240974Y-82078526D01*
X85240973Y-82078526D01*
X85189868Y-82151512D01*
X85189867Y-82151514D01*
X85182656Y-82166979D01*
X85136482Y-82219417D01*
X85069288Y-82238567D01*
X85002407Y-82218350D01*
X84957893Y-82166976D01*
X84950568Y-82151266D01*
X84820047Y-81964861D01*
X84820045Y-81964858D01*
X84659141Y-81803954D01*
X84472734Y-81673432D01*
X84472732Y-81673431D01*
X84266497Y-81577261D01*
X84266488Y-81577258D01*
X84112302Y-81535945D01*
X84078077Y-81526774D01*
X84018417Y-81490410D01*
X83987888Y-81427563D01*
X83996183Y-81358188D01*
X84040668Y-81304310D01*
X84078076Y-81287225D01*
X84266496Y-81236739D01*
X84472734Y-81140568D01*
X84659139Y-81010047D01*
X84820047Y-80849139D01*
X84950568Y-80662734D01*
X84977618Y-80604724D01*
X85023790Y-80552285D01*
X85090983Y-80533133D01*
X85157865Y-80553348D01*
G37*
%TD.AperFunction*%
%TA.AperFunction,Conductor*%
G36*
X61559385Y-69717445D02*
G01*
X61597625Y-69775922D01*
X61602868Y-69807903D01*
X61604439Y-69857870D01*
X61604500Y-69861767D01*
X61604500Y-69889357D01*
X61605003Y-69893335D01*
X61605918Y-69904967D01*
X61607290Y-69948624D01*
X61607291Y-69948627D01*
X61612880Y-69967867D01*
X61616824Y-69986911D01*
X61619336Y-70006792D01*
X61635414Y-70047403D01*
X61639197Y-70058452D01*
X61651381Y-70100388D01*
X61661580Y-70117634D01*
X61670138Y-70135103D01*
X61677514Y-70153732D01*
X61703181Y-70189060D01*
X61709593Y-70198821D01*
X61731828Y-70236417D01*
X61731833Y-70236424D01*
X61745990Y-70250580D01*
X61758628Y-70265376D01*
X61770405Y-70281586D01*
X61770406Y-70281587D01*
X61804057Y-70309425D01*
X61812698Y-70317288D01*
X62273092Y-70777683D01*
X62306577Y-70839006D01*
X62305188Y-70897449D01*
X62302153Y-70908777D01*
X62302150Y-70908792D01*
X62283672Y-71119999D01*
X62283672Y-71120000D01*
X62302150Y-71331208D01*
X62302152Y-71331218D01*
X62357023Y-71536001D01*
X62357025Y-71536005D01*
X62357026Y-71536009D01*
X62446629Y-71728164D01*
X62446631Y-71728168D01*
X62568235Y-71901836D01*
X62568240Y-71901842D01*
X62718157Y-72051759D01*
X62718163Y-72051764D01*
X62891831Y-72173368D01*
X62891833Y-72173369D01*
X62891836Y-72173371D01*
X63083991Y-72262974D01*
X63098717Y-72266919D01*
X63111051Y-72270225D01*
X63170711Y-72306591D01*
X63201240Y-72369438D01*
X63192945Y-72438813D01*
X63148459Y-72492691D01*
X63111051Y-72509775D01*
X63083996Y-72517024D01*
X63083989Y-72517027D01*
X62891835Y-72606629D01*
X62891831Y-72606631D01*
X62718163Y-72728235D01*
X62718157Y-72728240D01*
X62568240Y-72878157D01*
X62568235Y-72878163D01*
X62446631Y-73051831D01*
X62446629Y-73051835D01*
X62357027Y-73243989D01*
X62357023Y-73243998D01*
X62302152Y-73448781D01*
X62302150Y-73448791D01*
X62283672Y-73659999D01*
X62283672Y-73660000D01*
X62302150Y-73871208D01*
X62302152Y-73871218D01*
X62357023Y-74076001D01*
X62357025Y-74076005D01*
X62357026Y-74076009D01*
X62429436Y-74231294D01*
X62446629Y-74268164D01*
X62446631Y-74268168D01*
X62568235Y-74441836D01*
X62568240Y-74441842D01*
X62718157Y-74591759D01*
X62718163Y-74591764D01*
X62891831Y-74713368D01*
X62891833Y-74713369D01*
X62891836Y-74713371D01*
X63083991Y-74802974D01*
X63098717Y-74806919D01*
X63111051Y-74810225D01*
X63170711Y-74846591D01*
X63201240Y-74909438D01*
X63192945Y-74978813D01*
X63148459Y-75032691D01*
X63111051Y-75049775D01*
X63083996Y-75057024D01*
X63083989Y-75057027D01*
X62891835Y-75146629D01*
X62891831Y-75146631D01*
X62718163Y-75268235D01*
X62718157Y-75268240D01*
X62568240Y-75418157D01*
X62568235Y-75418163D01*
X62446631Y-75591831D01*
X62446629Y-75591835D01*
X62357027Y-75783989D01*
X62357023Y-75783998D01*
X62302152Y-75988781D01*
X62302150Y-75988791D01*
X62283672Y-76199999D01*
X62283672Y-76200000D01*
X62302150Y-76411208D01*
X62302152Y-76411218D01*
X62357023Y-76616001D01*
X62357025Y-76616005D01*
X62357026Y-76616009D01*
X62389523Y-76685699D01*
X62446629Y-76808164D01*
X62446631Y-76808168D01*
X62568235Y-76981836D01*
X62568240Y-76981842D01*
X62718157Y-77131759D01*
X62718163Y-77131764D01*
X62891831Y-77253368D01*
X62891833Y-77253369D01*
X62891836Y-77253371D01*
X63083991Y-77342974D01*
X63098717Y-77346919D01*
X63111051Y-77350225D01*
X63170711Y-77386591D01*
X63201240Y-77449438D01*
X63192945Y-77518813D01*
X63148459Y-77572691D01*
X63111051Y-77589775D01*
X63083996Y-77597024D01*
X63083989Y-77597027D01*
X62891835Y-77686629D01*
X62891831Y-77686631D01*
X62718163Y-77808235D01*
X62718157Y-77808240D01*
X62568240Y-77958157D01*
X62568235Y-77958163D01*
X62446631Y-78131831D01*
X62446629Y-78131835D01*
X62357027Y-78323989D01*
X62357023Y-78323998D01*
X62302152Y-78528781D01*
X62302150Y-78528791D01*
X62283672Y-78739999D01*
X62283672Y-78740000D01*
X62302150Y-78951208D01*
X62302152Y-78951218D01*
X62357023Y-79156001D01*
X62357025Y-79156005D01*
X62357026Y-79156009D01*
X62363952Y-79170861D01*
X62446629Y-79348164D01*
X62446631Y-79348168D01*
X62568235Y-79521836D01*
X62568240Y-79521842D01*
X62718157Y-79671759D01*
X62718163Y-79671764D01*
X62891831Y-79793368D01*
X62891833Y-79793369D01*
X62891836Y-79793371D01*
X63083991Y-79882974D01*
X63091000Y-79884852D01*
X63111051Y-79890225D01*
X63170711Y-79926591D01*
X63201240Y-79989438D01*
X63192945Y-80058813D01*
X63148459Y-80112691D01*
X63111051Y-80129775D01*
X63083996Y-80137024D01*
X63083989Y-80137027D01*
X62891835Y-80226629D01*
X62891831Y-80226631D01*
X62718163Y-80348235D01*
X62718157Y-80348240D01*
X62568240Y-80498157D01*
X62568235Y-80498163D01*
X62446631Y-80671831D01*
X62446629Y-80671835D01*
X62357027Y-80863989D01*
X62357024Y-80863996D01*
X62349775Y-80891051D01*
X62313409Y-80950711D01*
X62250562Y-80981240D01*
X62181187Y-80972945D01*
X62127309Y-80928459D01*
X62110225Y-80891051D01*
X62102975Y-80863996D01*
X62102974Y-80863991D01*
X62013371Y-80671836D01*
X62013369Y-80671833D01*
X62013368Y-80671831D01*
X61891764Y-80498163D01*
X61891759Y-80498157D01*
X61741842Y-80348240D01*
X61741836Y-80348235D01*
X61568168Y-80226631D01*
X61568164Y-80226629D01*
X61376009Y-80137026D01*
X61376005Y-80137025D01*
X61376001Y-80137023D01*
X61171218Y-80082152D01*
X61171208Y-80082150D01*
X60960001Y-80063672D01*
X60959999Y-80063672D01*
X60748791Y-80082150D01*
X60748781Y-80082152D01*
X60543998Y-80137023D01*
X60543984Y-80137028D01*
X60508104Y-80153760D01*
X60439027Y-80164252D01*
X60375243Y-80135732D01*
X60337004Y-80077255D01*
X60331700Y-80041378D01*
X60331700Y-69818622D01*
X60351385Y-69751583D01*
X60404189Y-69705828D01*
X60473347Y-69695884D01*
X60508104Y-69706240D01*
X60543984Y-69722971D01*
X60543986Y-69722971D01*
X60543991Y-69722974D01*
X60748787Y-69777849D01*
X60907091Y-69791699D01*
X60959999Y-69796328D01*
X60960000Y-69796328D01*
X60960001Y-69796328D01*
X60995202Y-69793248D01*
X61171213Y-69777849D01*
X61376009Y-69722974D01*
X61426525Y-69699417D01*
X61495601Y-69688926D01*
X61559385Y-69717445D01*
G37*
%TD.AperFunction*%
%TA.AperFunction,Conductor*%
G36*
X64818812Y-79047054D02*
G01*
X64872690Y-79091539D01*
X64889775Y-79128949D01*
X64897023Y-79156001D01*
X64897025Y-79156005D01*
X64897026Y-79156009D01*
X64903952Y-79170861D01*
X64986629Y-79348164D01*
X64986631Y-79348168D01*
X65108235Y-79521836D01*
X65108240Y-79521842D01*
X65258157Y-79671759D01*
X65258163Y-79671764D01*
X65431831Y-79793368D01*
X65431833Y-79793369D01*
X65431836Y-79793371D01*
X65623991Y-79882974D01*
X65631000Y-79884852D01*
X65651051Y-79890225D01*
X65710711Y-79926591D01*
X65741240Y-79989438D01*
X65732945Y-80058813D01*
X65688459Y-80112691D01*
X65651051Y-80129775D01*
X65623996Y-80137024D01*
X65623989Y-80137027D01*
X65431835Y-80226629D01*
X65431831Y-80226631D01*
X65258163Y-80348235D01*
X65258157Y-80348240D01*
X65108240Y-80498157D01*
X65108235Y-80498163D01*
X64986631Y-80671831D01*
X64986629Y-80671835D01*
X64897027Y-80863989D01*
X64897024Y-80863996D01*
X64889775Y-80891051D01*
X64853409Y-80950711D01*
X64790562Y-80981240D01*
X64721187Y-80972945D01*
X64667309Y-80928459D01*
X64650225Y-80891051D01*
X64642975Y-80863996D01*
X64642974Y-80863991D01*
X64553371Y-80671836D01*
X64553369Y-80671833D01*
X64553368Y-80671831D01*
X64431764Y-80498163D01*
X64431759Y-80498157D01*
X64281842Y-80348240D01*
X64281836Y-80348235D01*
X64108168Y-80226631D01*
X64108164Y-80226629D01*
X63916009Y-80137026D01*
X63916005Y-80137025D01*
X63916001Y-80137023D01*
X63888949Y-80129775D01*
X63829288Y-80093410D01*
X63798759Y-80030563D01*
X63807054Y-79961188D01*
X63851539Y-79907310D01*
X63888949Y-79890225D01*
X63910702Y-79884396D01*
X63916009Y-79882974D01*
X64108164Y-79793371D01*
X64281841Y-79671761D01*
X64431761Y-79521841D01*
X64553371Y-79348164D01*
X64642974Y-79156009D01*
X64650225Y-79128949D01*
X64686590Y-79069288D01*
X64749437Y-79038759D01*
X64818812Y-79047054D01*
G37*
%TD.AperFunction*%
%TA.AperFunction,Conductor*%
G36*
X53067775Y-69761501D02*
G01*
X53128787Y-69777849D01*
X53287091Y-69791699D01*
X53339999Y-69796328D01*
X53340000Y-69796328D01*
X53340001Y-69796328D01*
X53356993Y-69794841D01*
X53551213Y-69777849D01*
X53551221Y-69777847D01*
X53556344Y-69776474D01*
X53562535Y-69774815D01*
X53632385Y-69776474D01*
X53682314Y-69806905D01*
X53714380Y-69838970D01*
X53747866Y-69900293D01*
X53750700Y-69926653D01*
X53750700Y-79974519D01*
X53731015Y-80041558D01*
X53678211Y-80087313D01*
X53609053Y-80097257D01*
X53594608Y-80094294D01*
X53551134Y-80082646D01*
X53551120Y-80082643D01*
X53340002Y-80064173D01*
X53339998Y-80064173D01*
X53128879Y-80082643D01*
X53128865Y-80082646D01*
X53067792Y-80099010D01*
X52997942Y-80097347D01*
X52940080Y-80058184D01*
X52912577Y-79993955D01*
X52911700Y-79979235D01*
X52911700Y-69881280D01*
X52931385Y-69814241D01*
X52984189Y-69768486D01*
X53053347Y-69758542D01*
X53067775Y-69761501D01*
G37*
%TD.AperFunction*%
%TA.AperFunction,Conductor*%
G36*
X58773739Y-69811384D02*
G01*
X58819494Y-69864188D01*
X58830700Y-69915699D01*
X58830700Y-79974003D01*
X58811015Y-80041042D01*
X58758211Y-80086797D01*
X58689053Y-80096741D01*
X58674608Y-80093778D01*
X58631221Y-80082153D01*
X58631217Y-80082152D01*
X58631213Y-80082151D01*
X58631211Y-80082150D01*
X58631208Y-80082150D01*
X58420001Y-80063672D01*
X58419999Y-80063672D01*
X58208791Y-80082150D01*
X58208781Y-80082152D01*
X58147793Y-80098494D01*
X58077943Y-80096831D01*
X58020081Y-80057668D01*
X57992577Y-79993439D01*
X57991700Y-79978719D01*
X57991700Y-69915699D01*
X58011385Y-69848660D01*
X58064189Y-69802905D01*
X58115700Y-69791699D01*
X58706700Y-69791699D01*
X58773739Y-69811384D01*
G37*
%TD.AperFunction*%
%TA.AperFunction,Conductor*%
G36*
X55625394Y-69766221D02*
G01*
X55668787Y-69777849D01*
X55827091Y-69791699D01*
X55879999Y-69796328D01*
X55880000Y-69796328D01*
X55880001Y-69796328D01*
X55896993Y-69794841D01*
X56091213Y-69777849D01*
X56091221Y-69777847D01*
X56096344Y-69776474D01*
X56102535Y-69774815D01*
X56172385Y-69776474D01*
X56222314Y-69806905D01*
X56254380Y-69838970D01*
X56287866Y-69900293D01*
X56290700Y-69926653D01*
X56290700Y-79974003D01*
X56271015Y-80041042D01*
X56218211Y-80086797D01*
X56149053Y-80096741D01*
X56134608Y-80093778D01*
X56091221Y-80082153D01*
X56091217Y-80082152D01*
X56091213Y-80082151D01*
X56091211Y-80082150D01*
X56091208Y-80082150D01*
X55880001Y-80063672D01*
X55879999Y-80063672D01*
X55668791Y-80082150D01*
X55668778Y-80082153D01*
X55625392Y-80093778D01*
X55555543Y-80092115D01*
X55497680Y-80052952D01*
X55470177Y-79988723D01*
X55469300Y-79974003D01*
X55469300Y-69885996D01*
X55488985Y-69818957D01*
X55541789Y-69773202D01*
X55610947Y-69763258D01*
X55625394Y-69766221D01*
G37*
%TD.AperFunction*%
%TA.AperFunction,Conductor*%
G36*
X64818812Y-76507054D02*
G01*
X64872690Y-76551539D01*
X64889775Y-76588949D01*
X64897023Y-76616001D01*
X64897025Y-76616005D01*
X64897026Y-76616009D01*
X64929523Y-76685699D01*
X64986629Y-76808164D01*
X64986631Y-76808168D01*
X65108235Y-76981836D01*
X65108240Y-76981842D01*
X65258157Y-77131759D01*
X65258163Y-77131764D01*
X65431831Y-77253368D01*
X65431833Y-77253369D01*
X65431836Y-77253371D01*
X65623991Y-77342974D01*
X65638717Y-77346919D01*
X65651051Y-77350225D01*
X65710711Y-77386591D01*
X65741240Y-77449438D01*
X65732945Y-77518813D01*
X65688459Y-77572691D01*
X65651051Y-77589775D01*
X65623996Y-77597024D01*
X65623989Y-77597027D01*
X65431835Y-77686629D01*
X65431831Y-77686631D01*
X65258163Y-77808235D01*
X65258157Y-77808240D01*
X65108240Y-77958157D01*
X65108235Y-77958163D01*
X64986631Y-78131831D01*
X64986629Y-78131835D01*
X64897027Y-78323989D01*
X64897024Y-78323996D01*
X64889775Y-78351051D01*
X64853409Y-78410711D01*
X64790562Y-78441240D01*
X64721187Y-78432945D01*
X64667309Y-78388459D01*
X64650225Y-78351051D01*
X64642975Y-78323996D01*
X64642974Y-78323991D01*
X64553371Y-78131836D01*
X64553369Y-78131833D01*
X64553368Y-78131831D01*
X64431764Y-77958163D01*
X64431759Y-77958157D01*
X64281842Y-77808240D01*
X64281836Y-77808235D01*
X64108168Y-77686631D01*
X64108164Y-77686629D01*
X63916009Y-77597026D01*
X63916005Y-77597025D01*
X63916001Y-77597023D01*
X63888949Y-77589775D01*
X63829288Y-77553410D01*
X63798759Y-77490563D01*
X63807054Y-77421188D01*
X63851539Y-77367310D01*
X63888949Y-77350225D01*
X63910702Y-77344396D01*
X63916009Y-77342974D01*
X64108164Y-77253371D01*
X64281841Y-77131761D01*
X64431761Y-76981841D01*
X64553371Y-76808164D01*
X64642974Y-76616009D01*
X64650225Y-76588949D01*
X64686590Y-76529288D01*
X64749437Y-76498759D01*
X64818812Y-76507054D01*
G37*
%TD.AperFunction*%
%TA.AperFunction,Conductor*%
G36*
X55584809Y-64270185D02*
G01*
X55605451Y-64286819D01*
X55933168Y-64614536D01*
X55966653Y-64675859D01*
X55961669Y-64745551D01*
X55919797Y-64801484D01*
X55856295Y-64825745D01*
X55668791Y-64842150D01*
X55668781Y-64842152D01*
X55463998Y-64897023D01*
X55463989Y-64897027D01*
X55271835Y-64986629D01*
X55271831Y-64986631D01*
X55098163Y-65108235D01*
X55098157Y-65108240D01*
X54948240Y-65258157D01*
X54948235Y-65258163D01*
X54826631Y-65431831D01*
X54826629Y-65431835D01*
X54737027Y-65623989D01*
X54737024Y-65623996D01*
X54729775Y-65651051D01*
X54693409Y-65710711D01*
X54630562Y-65741240D01*
X54561187Y-65732945D01*
X54507309Y-65688459D01*
X54490225Y-65651051D01*
X54485832Y-65634658D01*
X54482974Y-65623991D01*
X54393371Y-65431836D01*
X54393369Y-65431833D01*
X54393368Y-65431831D01*
X54271764Y-65258163D01*
X54271759Y-65258157D01*
X54121842Y-65108240D01*
X54121836Y-65108235D01*
X53948168Y-64986631D01*
X53948164Y-64986629D01*
X53912769Y-64970124D01*
X53756009Y-64897026D01*
X53756005Y-64897025D01*
X53756001Y-64897023D01*
X53551218Y-64842152D01*
X53551208Y-64842150D01*
X53340001Y-64823672D01*
X53339999Y-64823672D01*
X53128791Y-64842150D01*
X53128781Y-64842152D01*
X52923998Y-64897023D01*
X52923989Y-64897027D01*
X52731835Y-64986629D01*
X52731831Y-64986631D01*
X52558163Y-65108235D01*
X52558157Y-65108240D01*
X52408240Y-65258157D01*
X52408235Y-65258163D01*
X52286631Y-65431831D01*
X52286629Y-65431835D01*
X52197027Y-65623989D01*
X52197022Y-65624001D01*
X52190600Y-65647969D01*
X52154234Y-65707628D01*
X52091387Y-65738156D01*
X52022011Y-65729860D01*
X51983166Y-65703575D01*
X51980902Y-65701311D01*
X51948792Y-65645706D01*
X51942974Y-65623991D01*
X51853371Y-65431836D01*
X51853369Y-65431833D01*
X51853368Y-65431831D01*
X51731764Y-65258163D01*
X51731759Y-65258157D01*
X51581842Y-65108240D01*
X51581836Y-65108235D01*
X51408168Y-64986631D01*
X51408164Y-64986629D01*
X51372769Y-64970124D01*
X51216009Y-64897026D01*
X51216005Y-64897025D01*
X51216001Y-64897023D01*
X51011218Y-64842152D01*
X51011208Y-64842150D01*
X50800001Y-64823672D01*
X50799999Y-64823672D01*
X50588791Y-64842150D01*
X50588781Y-64842152D01*
X50383998Y-64897023D01*
X50383989Y-64897027D01*
X50191835Y-64986629D01*
X50191831Y-64986631D01*
X50018163Y-65108235D01*
X50018157Y-65108240D01*
X49868240Y-65258157D01*
X49868235Y-65258163D01*
X49746631Y-65431831D01*
X49746629Y-65431835D01*
X49657027Y-65623989D01*
X49657023Y-65623998D01*
X49602152Y-65828781D01*
X49602150Y-65828791D01*
X49583672Y-66039999D01*
X49583672Y-66040000D01*
X49602150Y-66251208D01*
X49602152Y-66251218D01*
X49657023Y-66456001D01*
X49657028Y-66456015D01*
X49680582Y-66506526D01*
X49691074Y-66575603D01*
X49662554Y-66639387D01*
X49604077Y-66677626D01*
X49572096Y-66682869D01*
X49526186Y-66684312D01*
X49522142Y-66684439D01*
X49518250Y-66684500D01*
X49490650Y-66684500D01*
X49486962Y-66684965D01*
X49486649Y-66685005D01*
X49475031Y-66685918D01*
X49431373Y-66687290D01*
X49431372Y-66687290D01*
X49412129Y-66692881D01*
X49393079Y-66696825D01*
X49373211Y-66699334D01*
X49373210Y-66699335D01*
X49332600Y-66715413D01*
X49321553Y-66719195D01*
X49279610Y-66731381D01*
X49279609Y-66731382D01*
X49262367Y-66741579D01*
X49244899Y-66750137D01*
X49226269Y-66757513D01*
X49226266Y-66757515D01*
X49190939Y-66783181D01*
X49181180Y-66789592D01*
X49143579Y-66811830D01*
X49129408Y-66826000D01*
X49114623Y-66838628D01*
X49098412Y-66850407D01*
X49070571Y-66884059D01*
X49062711Y-66892696D01*
X48602315Y-67353092D01*
X48540992Y-67386577D01*
X48482543Y-67385187D01*
X48473057Y-67382645D01*
X48471214Y-67382151D01*
X48471208Y-67382150D01*
X48260001Y-67363672D01*
X48259999Y-67363672D01*
X48048791Y-67382150D01*
X48048781Y-67382152D01*
X47843998Y-67437023D01*
X47843989Y-67437027D01*
X47651835Y-67526629D01*
X47651831Y-67526631D01*
X47478163Y-67648235D01*
X47478157Y-67648240D01*
X47328240Y-67798157D01*
X47328235Y-67798163D01*
X47206631Y-67971831D01*
X47206629Y-67971835D01*
X47117027Y-68163989D01*
X47117023Y-68163998D01*
X47062152Y-68368781D01*
X47062150Y-68368791D01*
X47043672Y-68579999D01*
X47043672Y-68580000D01*
X47062150Y-68791208D01*
X47062152Y-68791218D01*
X47117023Y-68996001D01*
X47117025Y-68996005D01*
X47117026Y-68996009D01*
X47137819Y-69040599D01*
X47206629Y-69188164D01*
X47206631Y-69188168D01*
X47328235Y-69361836D01*
X47328240Y-69361842D01*
X47478157Y-69511759D01*
X47478163Y-69511764D01*
X47651831Y-69633368D01*
X47651833Y-69633369D01*
X47651836Y-69633371D01*
X47843991Y-69722974D01*
X47858717Y-69726919D01*
X47871051Y-69730225D01*
X47930711Y-69766591D01*
X47961240Y-69829438D01*
X47952945Y-69898813D01*
X47908459Y-69952691D01*
X47871051Y-69969775D01*
X47843996Y-69977024D01*
X47843989Y-69977027D01*
X47651835Y-70066629D01*
X47651831Y-70066631D01*
X47478163Y-70188235D01*
X47478157Y-70188240D01*
X47328240Y-70338157D01*
X47328235Y-70338163D01*
X47206631Y-70511831D01*
X47206629Y-70511835D01*
X47117027Y-70703989D01*
X47117023Y-70703998D01*
X47062152Y-70908781D01*
X47062150Y-70908791D01*
X47043672Y-71119999D01*
X47043672Y-71120000D01*
X47062150Y-71331208D01*
X47062152Y-71331218D01*
X47117023Y-71536001D01*
X47117025Y-71536005D01*
X47117026Y-71536009D01*
X47206629Y-71728164D01*
X47206631Y-71728168D01*
X47328235Y-71901836D01*
X47328240Y-71901842D01*
X47478157Y-72051759D01*
X47478163Y-72051764D01*
X47651831Y-72173368D01*
X47651833Y-72173369D01*
X47651836Y-72173371D01*
X47843991Y-72262974D01*
X47858717Y-72266919D01*
X47871051Y-72270225D01*
X47930711Y-72306591D01*
X47961240Y-72369438D01*
X47952945Y-72438813D01*
X47908459Y-72492691D01*
X47871051Y-72509775D01*
X47843996Y-72517024D01*
X47843989Y-72517027D01*
X47651835Y-72606629D01*
X47651831Y-72606631D01*
X47478163Y-72728235D01*
X47478157Y-72728240D01*
X47328240Y-72878157D01*
X47328235Y-72878163D01*
X47206631Y-73051831D01*
X47206629Y-73051835D01*
X47117027Y-73243989D01*
X47117023Y-73243998D01*
X47062152Y-73448781D01*
X47062150Y-73448791D01*
X47043672Y-73659999D01*
X47043672Y-73660000D01*
X47062150Y-73871208D01*
X47062152Y-73871218D01*
X47117023Y-74076001D01*
X47117025Y-74076005D01*
X47117026Y-74076009D01*
X47189436Y-74231294D01*
X47206629Y-74268164D01*
X47206631Y-74268168D01*
X47328235Y-74441836D01*
X47328240Y-74441842D01*
X47478157Y-74591759D01*
X47478163Y-74591764D01*
X47651831Y-74713368D01*
X47651833Y-74713369D01*
X47651836Y-74713371D01*
X47843991Y-74802974D01*
X47858717Y-74806919D01*
X47871051Y-74810225D01*
X47930711Y-74846591D01*
X47961240Y-74909438D01*
X47952945Y-74978813D01*
X47908459Y-75032691D01*
X47871051Y-75049775D01*
X47843996Y-75057024D01*
X47843989Y-75057027D01*
X47651835Y-75146629D01*
X47651831Y-75146631D01*
X47478163Y-75268235D01*
X47478157Y-75268240D01*
X47328240Y-75418157D01*
X47328235Y-75418163D01*
X47206631Y-75591831D01*
X47206629Y-75591835D01*
X47117027Y-75783989D01*
X47117023Y-75783998D01*
X47062152Y-75988781D01*
X47062150Y-75988791D01*
X47045745Y-76176295D01*
X47020292Y-76241364D01*
X46963701Y-76282342D01*
X46893939Y-76286220D01*
X46834536Y-76253168D01*
X46506819Y-75925451D01*
X46473334Y-75864128D01*
X46470500Y-75837770D01*
X46470500Y-66402229D01*
X46490185Y-66335190D01*
X46506819Y-66314548D01*
X48534548Y-64286819D01*
X48595871Y-64253334D01*
X48622229Y-64250500D01*
X55517770Y-64250500D01*
X55584809Y-64270185D01*
G37*
%TD.AperFunction*%
%TA.AperFunction,Conductor*%
G36*
X64818812Y-73967054D02*
G01*
X64872690Y-74011539D01*
X64889775Y-74048949D01*
X64897023Y-74076001D01*
X64897025Y-74076005D01*
X64897026Y-74076009D01*
X64969436Y-74231294D01*
X64986629Y-74268164D01*
X64986631Y-74268168D01*
X65108235Y-74441836D01*
X65108240Y-74441842D01*
X65258157Y-74591759D01*
X65258163Y-74591764D01*
X65431831Y-74713368D01*
X65431833Y-74713369D01*
X65431836Y-74713371D01*
X65623991Y-74802974D01*
X65638717Y-74806919D01*
X65651051Y-74810225D01*
X65710711Y-74846591D01*
X65741240Y-74909438D01*
X65732945Y-74978813D01*
X65688459Y-75032691D01*
X65651051Y-75049775D01*
X65623996Y-75057024D01*
X65623989Y-75057027D01*
X65431835Y-75146629D01*
X65431831Y-75146631D01*
X65258163Y-75268235D01*
X65258157Y-75268240D01*
X65108240Y-75418157D01*
X65108235Y-75418163D01*
X64986631Y-75591831D01*
X64986629Y-75591835D01*
X64897027Y-75783989D01*
X64897024Y-75783996D01*
X64889775Y-75811051D01*
X64853409Y-75870711D01*
X64790562Y-75901240D01*
X64721187Y-75892945D01*
X64667309Y-75848459D01*
X64650225Y-75811051D01*
X64642975Y-75783996D01*
X64642974Y-75783991D01*
X64553371Y-75591836D01*
X64553369Y-75591833D01*
X64553368Y-75591831D01*
X64431764Y-75418163D01*
X64431759Y-75418157D01*
X64281842Y-75268240D01*
X64281836Y-75268235D01*
X64108168Y-75146631D01*
X64108164Y-75146629D01*
X64068310Y-75128045D01*
X63916009Y-75057026D01*
X63916005Y-75057025D01*
X63916001Y-75057023D01*
X63888949Y-75049775D01*
X63829288Y-75013410D01*
X63798759Y-74950563D01*
X63807054Y-74881188D01*
X63851539Y-74827310D01*
X63888949Y-74810225D01*
X63910702Y-74804396D01*
X63916009Y-74802974D01*
X64108164Y-74713371D01*
X64281841Y-74591761D01*
X64431761Y-74441841D01*
X64553371Y-74268164D01*
X64642974Y-74076009D01*
X64650225Y-74048949D01*
X64686590Y-73989288D01*
X64749437Y-73958759D01*
X64818812Y-73967054D01*
G37*
%TD.AperFunction*%
%TA.AperFunction,Conductor*%
G36*
X75377539Y-60589185D02*
G01*
X75423294Y-60641989D01*
X75434500Y-60693500D01*
X75434500Y-61572421D01*
X75414815Y-61639460D01*
X75408483Y-61648417D01*
X75403326Y-61655064D01*
X75403324Y-61655068D01*
X75385975Y-61695158D01*
X75380838Y-61705644D01*
X75359803Y-61743906D01*
X75354822Y-61763307D01*
X75348521Y-61781710D01*
X75340562Y-61800102D01*
X75340561Y-61800105D01*
X75333728Y-61843243D01*
X75331360Y-61854674D01*
X75320501Y-61896971D01*
X75320500Y-61896982D01*
X75320500Y-61917016D01*
X75318973Y-61936415D01*
X75315840Y-61956194D01*
X75315840Y-61956195D01*
X75319950Y-61999674D01*
X75320500Y-62011343D01*
X75320500Y-71378951D01*
X75300815Y-71445990D01*
X75284181Y-71466632D01*
X75199954Y-71550858D01*
X75069432Y-71737265D01*
X75069431Y-71737267D01*
X74973261Y-71943502D01*
X74973258Y-71943511D01*
X74914366Y-72163302D01*
X74914364Y-72163313D01*
X74894532Y-72389998D01*
X74894532Y-72390001D01*
X74914364Y-72616686D01*
X74914366Y-72616697D01*
X74973258Y-72836488D01*
X74973261Y-72836497D01*
X75069431Y-73042732D01*
X75069432Y-73042734D01*
X75199954Y-73229141D01*
X75360858Y-73390045D01*
X75360861Y-73390047D01*
X75547266Y-73520568D01*
X75753504Y-73616739D01*
X75973308Y-73675635D01*
X76135230Y-73689801D01*
X76199998Y-73695468D01*
X76200000Y-73695468D01*
X76200002Y-73695468D01*
X76256807Y-73690498D01*
X76426692Y-73675635D01*
X76646496Y-73616739D01*
X76852734Y-73520568D01*
X77039139Y-73390047D01*
X77200047Y-73229139D01*
X77330568Y-73042734D01*
X77357618Y-72984724D01*
X77403790Y-72932285D01*
X77470983Y-72913133D01*
X77537865Y-72933348D01*
X77582381Y-72984724D01*
X77583495Y-72987112D01*
X77609429Y-73042728D01*
X77609432Y-73042734D01*
X77739954Y-73229141D01*
X77900858Y-73390045D01*
X77900861Y-73390047D01*
X78087266Y-73520568D01*
X78293504Y-73616739D01*
X78513308Y-73675635D01*
X78675230Y-73689801D01*
X78739998Y-73695468D01*
X78740000Y-73695468D01*
X78740002Y-73695468D01*
X78796807Y-73690498D01*
X78966692Y-73675635D01*
X79186496Y-73616739D01*
X79392734Y-73520568D01*
X79579139Y-73390047D01*
X79740047Y-73229139D01*
X79870568Y-73042734D01*
X79897618Y-72984724D01*
X79943790Y-72932285D01*
X80010983Y-72913133D01*
X80077865Y-72933348D01*
X80122381Y-72984724D01*
X80123495Y-72987112D01*
X80149429Y-73042728D01*
X80149432Y-73042734D01*
X80279954Y-73229141D01*
X80440858Y-73390045D01*
X80440861Y-73390047D01*
X80627266Y-73520568D01*
X80833504Y-73616739D01*
X81053308Y-73675635D01*
X81215230Y-73689801D01*
X81279998Y-73695468D01*
X81280000Y-73695468D01*
X81280002Y-73695468D01*
X81336807Y-73690498D01*
X81506692Y-73675635D01*
X81726496Y-73616739D01*
X81932734Y-73520568D01*
X82119139Y-73390047D01*
X82280047Y-73229139D01*
X82410568Y-73042734D01*
X82437618Y-72984724D01*
X82483790Y-72932285D01*
X82550983Y-72913133D01*
X82617865Y-72933348D01*
X82662381Y-72984724D01*
X82663495Y-72987112D01*
X82689429Y-73042728D01*
X82689432Y-73042734D01*
X82819954Y-73229141D01*
X82980858Y-73390045D01*
X82980861Y-73390047D01*
X83167266Y-73520568D01*
X83373504Y-73616739D01*
X83593308Y-73675635D01*
X83755230Y-73689801D01*
X83819998Y-73695468D01*
X83820000Y-73695468D01*
X83820002Y-73695468D01*
X83876807Y-73690498D01*
X84046692Y-73675635D01*
X84266496Y-73616739D01*
X84472734Y-73520568D01*
X84659139Y-73390047D01*
X84820047Y-73229139D01*
X84950568Y-73042734D01*
X84977618Y-72984724D01*
X85023790Y-72932285D01*
X85090983Y-72913133D01*
X85157865Y-72933348D01*
X85202381Y-72984724D01*
X85203495Y-72987112D01*
X85229429Y-73042728D01*
X85229432Y-73042734D01*
X85359954Y-73229141D01*
X85520858Y-73390045D01*
X85520861Y-73390047D01*
X85707266Y-73520568D01*
X85913504Y-73616739D01*
X86133308Y-73675635D01*
X86295230Y-73689801D01*
X86359998Y-73695468D01*
X86360000Y-73695468D01*
X86360002Y-73695468D01*
X86416807Y-73690498D01*
X86586692Y-73675635D01*
X86806496Y-73616739D01*
X86994337Y-73529146D01*
X87063411Y-73518655D01*
X87127195Y-73547174D01*
X87165435Y-73605651D01*
X87165990Y-73675518D01*
X87134420Y-73729210D01*
X86085451Y-74778181D01*
X86024128Y-74811666D01*
X85997770Y-74814500D01*
X75292230Y-74814500D01*
X75225191Y-74794815D01*
X75204549Y-74778181D01*
X74446819Y-74020451D01*
X74413334Y-73959128D01*
X74410500Y-73932770D01*
X74410500Y-68008705D01*
X74411809Y-67990735D01*
X74414578Y-67971831D01*
X74415289Y-67966977D01*
X74410972Y-67917630D01*
X74410500Y-67906822D01*
X74410500Y-67901296D01*
X74410500Y-67901291D01*
X74406901Y-67870509D01*
X74406536Y-67866929D01*
X74399999Y-67792201D01*
X74398539Y-67785129D01*
X74398597Y-67785116D01*
X74396965Y-67777757D01*
X74396906Y-67777772D01*
X74395241Y-67770751D01*
X74395241Y-67770745D01*
X74369569Y-67700212D01*
X74368421Y-67696909D01*
X74344814Y-67625666D01*
X74344810Y-67625659D01*
X74341760Y-67619118D01*
X74341815Y-67619091D01*
X74338533Y-67612313D01*
X74338480Y-67612340D01*
X74335235Y-67605880D01*
X74294025Y-67543223D01*
X74292086Y-67540181D01*
X74283727Y-67526629D01*
X74252712Y-67476345D01*
X74252711Y-67476344D01*
X74252710Y-67476342D01*
X74248234Y-67470682D01*
X74248281Y-67470644D01*
X74243519Y-67464799D01*
X74243474Y-67464838D01*
X74238831Y-67459305D01*
X74184272Y-67407831D01*
X74181685Y-67405318D01*
X72330729Y-65554361D01*
X72318949Y-65540730D01*
X72304610Y-65521470D01*
X72266651Y-65489619D01*
X72258686Y-65482318D01*
X72254780Y-65478411D01*
X72230443Y-65459168D01*
X72227647Y-65456890D01*
X72170214Y-65408698D01*
X72164180Y-65404729D01*
X72164212Y-65404680D01*
X72157853Y-65400628D01*
X72157822Y-65400679D01*
X72151680Y-65396891D01*
X72151678Y-65396890D01*
X72151677Y-65396889D01*
X72083688Y-65365184D01*
X72080447Y-65363615D01*
X72049530Y-65348088D01*
X72013433Y-65329960D01*
X72013431Y-65329959D01*
X72013430Y-65329959D01*
X72006645Y-65327489D01*
X72006665Y-65327433D01*
X71999549Y-65324959D01*
X71999531Y-65325015D01*
X71992674Y-65322743D01*
X71919210Y-65307573D01*
X71915693Y-65306793D01*
X71842718Y-65289499D01*
X71835547Y-65288661D01*
X71835553Y-65288601D01*
X71828055Y-65287835D01*
X71828050Y-65287895D01*
X71820860Y-65287265D01*
X71745870Y-65289448D01*
X71742263Y-65289500D01*
X71328313Y-65289500D01*
X71261274Y-65269815D01*
X71257190Y-65267075D01*
X71224458Y-65244156D01*
X71180833Y-65189579D01*
X71173639Y-65120081D01*
X71205162Y-65057726D01*
X71230304Y-65037154D01*
X71338560Y-64970125D01*
X71338559Y-64970125D01*
X71338562Y-64970124D01*
X71502981Y-64820236D01*
X71637058Y-64642689D01*
X71736229Y-64443528D01*
X71797115Y-64229536D01*
X71817643Y-64008000D01*
X71800692Y-63825072D01*
X71797115Y-63786464D01*
X71797114Y-63786462D01*
X71791406Y-63766402D01*
X71736229Y-63572472D01*
X71640424Y-63380070D01*
X71637061Y-63373316D01*
X71637056Y-63373308D01*
X71502979Y-63195761D01*
X71338562Y-63045876D01*
X71338560Y-63045874D01*
X71149404Y-62928754D01*
X71149398Y-62928751D01*
X71015122Y-62876733D01*
X70956765Y-62854125D01*
X70901365Y-62811553D01*
X70877774Y-62745786D01*
X70893485Y-62677706D01*
X70943509Y-62628927D01*
X71001556Y-62614499D01*
X72702872Y-62614499D01*
X72762483Y-62608091D01*
X72897331Y-62557796D01*
X73012546Y-62471546D01*
X73098796Y-62356331D01*
X73149091Y-62221483D01*
X73155500Y-62161873D01*
X73155499Y-60876452D01*
X73175184Y-60809414D01*
X73191818Y-60788772D01*
X73374772Y-60605819D01*
X73436095Y-60572334D01*
X73462453Y-60569500D01*
X75310500Y-60569500D01*
X75377539Y-60589185D01*
G37*
%TD.AperFunction*%
%TA.AperFunction,Conductor*%
G36*
X64818812Y-71427054D02*
G01*
X64872690Y-71471539D01*
X64889775Y-71508949D01*
X64897023Y-71536001D01*
X64897025Y-71536005D01*
X64897026Y-71536009D01*
X64986629Y-71728164D01*
X64986631Y-71728168D01*
X65108235Y-71901836D01*
X65108240Y-71901842D01*
X65258157Y-72051759D01*
X65258163Y-72051764D01*
X65431831Y-72173368D01*
X65431833Y-72173369D01*
X65431836Y-72173371D01*
X65623991Y-72262974D01*
X65638717Y-72266919D01*
X65651051Y-72270225D01*
X65710711Y-72306591D01*
X65741240Y-72369438D01*
X65732945Y-72438813D01*
X65688459Y-72492691D01*
X65651051Y-72509775D01*
X65623996Y-72517024D01*
X65623989Y-72517027D01*
X65431835Y-72606629D01*
X65431831Y-72606631D01*
X65258163Y-72728235D01*
X65258157Y-72728240D01*
X65108240Y-72878157D01*
X65108235Y-72878163D01*
X64986631Y-73051831D01*
X64986629Y-73051835D01*
X64897027Y-73243989D01*
X64897024Y-73243996D01*
X64889775Y-73271051D01*
X64853409Y-73330711D01*
X64790562Y-73361240D01*
X64721187Y-73352945D01*
X64667309Y-73308459D01*
X64650225Y-73271051D01*
X64642975Y-73243996D01*
X64642974Y-73243991D01*
X64553371Y-73051836D01*
X64553369Y-73051833D01*
X64553368Y-73051831D01*
X64431764Y-72878163D01*
X64431759Y-72878157D01*
X64281842Y-72728240D01*
X64281836Y-72728235D01*
X64108168Y-72606631D01*
X64108164Y-72606629D01*
X63916009Y-72517026D01*
X63916005Y-72517025D01*
X63916001Y-72517023D01*
X63888949Y-72509775D01*
X63829288Y-72473410D01*
X63798759Y-72410563D01*
X63807054Y-72341188D01*
X63851539Y-72287310D01*
X63888949Y-72270225D01*
X63910702Y-72264396D01*
X63916009Y-72262974D01*
X64108164Y-72173371D01*
X64281841Y-72051761D01*
X64431761Y-71901841D01*
X64553371Y-71728164D01*
X64642974Y-71536009D01*
X64650225Y-71508949D01*
X64686590Y-71449288D01*
X64749437Y-71418759D01*
X64818812Y-71427054D01*
G37*
%TD.AperFunction*%
%TA.AperFunction,Conductor*%
G36*
X78332182Y-62387794D02*
G01*
X78365666Y-62449117D01*
X78368500Y-62475475D01*
X78368500Y-62683500D01*
X78348815Y-62750539D01*
X78296011Y-62796294D01*
X78244500Y-62807500D01*
X78120757Y-62807500D01*
X77903237Y-62848161D01*
X77902756Y-62848113D01*
X77902063Y-62848381D01*
X77902060Y-62848382D01*
X77750009Y-62907287D01*
X77694601Y-62928752D01*
X77694595Y-62928754D01*
X77505439Y-63045874D01*
X77505437Y-63045876D01*
X77341020Y-63195761D01*
X77206943Y-63373308D01*
X77206938Y-63373316D01*
X77107775Y-63572461D01*
X77107769Y-63572476D01*
X77046885Y-63786462D01*
X77046884Y-63786464D01*
X77026357Y-64007999D01*
X77026357Y-64008000D01*
X77046884Y-64229535D01*
X77046885Y-64229537D01*
X77107769Y-64443523D01*
X77107775Y-64443538D01*
X77206938Y-64642683D01*
X77206943Y-64642691D01*
X77341020Y-64820238D01*
X77505437Y-64970123D01*
X77505439Y-64970125D01*
X77694595Y-65087245D01*
X77694596Y-65087245D01*
X77694599Y-65087247D01*
X77902060Y-65167618D01*
X78120757Y-65208500D01*
X78120759Y-65208500D01*
X78343241Y-65208500D01*
X78343243Y-65208500D01*
X78561940Y-65167618D01*
X78769401Y-65087247D01*
X78958562Y-64970124D01*
X79122981Y-64820236D01*
X79257058Y-64642689D01*
X79305243Y-64545920D01*
X79352744Y-64494686D01*
X79420407Y-64477264D01*
X79486747Y-64499189D01*
X79503922Y-64513512D01*
X82372559Y-67382150D01*
X85224197Y-70233788D01*
X85234022Y-70246051D01*
X85234243Y-70245869D01*
X85239211Y-70251874D01*
X85239213Y-70251876D01*
X85239214Y-70251877D01*
X85288222Y-70297899D01*
X85291021Y-70300612D01*
X85310522Y-70320114D01*
X85310526Y-70320117D01*
X85310529Y-70320120D01*
X85313702Y-70322581D01*
X85322574Y-70330159D01*
X85354418Y-70360062D01*
X85371976Y-70369714D01*
X85388235Y-70380395D01*
X85404064Y-70392673D01*
X85444155Y-70410021D01*
X85454626Y-70415151D01*
X85477180Y-70427550D01*
X85492902Y-70436194D01*
X85492904Y-70436195D01*
X85492908Y-70436197D01*
X85512316Y-70441180D01*
X85530719Y-70447481D01*
X85549101Y-70455436D01*
X85549102Y-70455436D01*
X85549104Y-70455437D01*
X85592250Y-70462270D01*
X85603672Y-70464636D01*
X85645981Y-70475500D01*
X85666016Y-70475500D01*
X85685415Y-70477027D01*
X85705196Y-70480160D01*
X85745939Y-70476308D01*
X85748672Y-70476050D01*
X85760342Y-70475500D01*
X87319548Y-70475500D01*
X87386587Y-70495185D01*
X87407229Y-70511819D01*
X88088409Y-71193000D01*
X88121894Y-71254323D01*
X88116910Y-71324015D01*
X88075038Y-71379948D01*
X88071859Y-71382251D01*
X88060864Y-71389950D01*
X88060863Y-71389951D01*
X87899951Y-71550862D01*
X87769432Y-71737265D01*
X87769431Y-71737267D01*
X87742382Y-71795275D01*
X87696209Y-71847714D01*
X87629016Y-71866866D01*
X87562135Y-71846650D01*
X87517618Y-71795275D01*
X87490568Y-71737267D01*
X87490567Y-71737265D01*
X87484197Y-71728168D01*
X87360047Y-71550861D01*
X87360045Y-71550858D01*
X87199141Y-71389954D01*
X87012734Y-71259432D01*
X87012732Y-71259431D01*
X86806497Y-71163261D01*
X86806488Y-71163258D01*
X86586697Y-71104366D01*
X86586693Y-71104365D01*
X86586692Y-71104365D01*
X86586691Y-71104364D01*
X86586686Y-71104364D01*
X86360002Y-71084532D01*
X86359998Y-71084532D01*
X86133313Y-71104364D01*
X86133302Y-71104366D01*
X85913511Y-71163258D01*
X85913502Y-71163261D01*
X85707267Y-71259431D01*
X85707265Y-71259432D01*
X85520858Y-71389954D01*
X85359954Y-71550858D01*
X85229432Y-71737265D01*
X85229431Y-71737267D01*
X85202382Y-71795275D01*
X85156209Y-71847714D01*
X85089016Y-71866866D01*
X85022135Y-71846650D01*
X84977618Y-71795275D01*
X84950568Y-71737267D01*
X84950567Y-71737265D01*
X84944197Y-71728168D01*
X84820047Y-71550861D01*
X84820045Y-71550858D01*
X84659141Y-71389954D01*
X84472734Y-71259432D01*
X84472732Y-71259431D01*
X84266497Y-71163261D01*
X84266488Y-71163258D01*
X84046697Y-71104366D01*
X84046693Y-71104365D01*
X84046692Y-71104365D01*
X84046691Y-71104364D01*
X84046686Y-71104364D01*
X83820002Y-71084532D01*
X83819998Y-71084532D01*
X83593313Y-71104364D01*
X83593302Y-71104366D01*
X83373511Y-71163258D01*
X83373502Y-71163261D01*
X83167267Y-71259431D01*
X83167265Y-71259432D01*
X82980858Y-71389954D01*
X82819954Y-71550858D01*
X82689432Y-71737265D01*
X82689431Y-71737267D01*
X82662382Y-71795275D01*
X82616209Y-71847714D01*
X82549016Y-71866866D01*
X82482135Y-71846650D01*
X82437618Y-71795275D01*
X82410568Y-71737267D01*
X82410567Y-71737265D01*
X82404197Y-71728168D01*
X82280047Y-71550861D01*
X82280045Y-71550858D01*
X82119141Y-71389954D01*
X81932734Y-71259432D01*
X81932732Y-71259431D01*
X81726497Y-71163261D01*
X81726488Y-71163258D01*
X81506697Y-71104366D01*
X81506693Y-71104365D01*
X81506692Y-71104365D01*
X81506691Y-71104364D01*
X81506686Y-71104364D01*
X81280002Y-71084532D01*
X81279998Y-71084532D01*
X81053313Y-71104364D01*
X81053302Y-71104366D01*
X80833511Y-71163258D01*
X80833502Y-71163261D01*
X80627267Y-71259431D01*
X80627265Y-71259432D01*
X80440858Y-71389954D01*
X80279954Y-71550858D01*
X80149432Y-71737265D01*
X80149431Y-71737267D01*
X80122382Y-71795275D01*
X80076209Y-71847714D01*
X80009016Y-71866866D01*
X79942135Y-71846650D01*
X79897618Y-71795275D01*
X79870568Y-71737267D01*
X79870567Y-71737265D01*
X79864197Y-71728168D01*
X79740047Y-71550861D01*
X79740045Y-71550858D01*
X79579141Y-71389954D01*
X79392734Y-71259432D01*
X79392732Y-71259431D01*
X79186497Y-71163261D01*
X79186488Y-71163258D01*
X78966697Y-71104366D01*
X78966693Y-71104365D01*
X78966692Y-71104365D01*
X78966691Y-71104364D01*
X78966686Y-71104364D01*
X78740002Y-71084532D01*
X78739998Y-71084532D01*
X78513313Y-71104364D01*
X78513302Y-71104366D01*
X78293511Y-71163258D01*
X78293502Y-71163261D01*
X78087267Y-71259431D01*
X78087265Y-71259432D01*
X77900858Y-71389954D01*
X77739954Y-71550858D01*
X77609432Y-71737265D01*
X77609431Y-71737267D01*
X77582382Y-71795275D01*
X77536209Y-71847714D01*
X77469016Y-71866866D01*
X77402135Y-71846650D01*
X77357618Y-71795275D01*
X77330568Y-71737267D01*
X77330567Y-71737265D01*
X77324197Y-71728168D01*
X77200047Y-71550861D01*
X77200045Y-71550858D01*
X77039141Y-71389954D01*
X76852734Y-71259432D01*
X76852732Y-71259431D01*
X76643095Y-71161675D01*
X76590656Y-71115502D01*
X76571500Y-71049293D01*
X76571500Y-62738499D01*
X76591185Y-62671460D01*
X76643989Y-62625705D01*
X76695500Y-62614499D01*
X77782871Y-62614499D01*
X77782872Y-62614499D01*
X77842483Y-62608091D01*
X77977331Y-62557796D01*
X78092546Y-62471546D01*
X78145235Y-62401162D01*
X78201167Y-62359293D01*
X78270859Y-62354309D01*
X78332182Y-62387794D01*
G37*
%TD.AperFunction*%
%TA.AperFunction,Conductor*%
G36*
X65654835Y-68705148D02*
G01*
X65712359Y-68818045D01*
X65801955Y-68907641D01*
X65914852Y-68965165D01*
X65995599Y-68977953D01*
X65378285Y-69595265D01*
X65432087Y-69632937D01*
X65624161Y-69722502D01*
X65624166Y-69722505D01*
X65652011Y-69729965D01*
X65711673Y-69766328D01*
X65742204Y-69829175D01*
X65733911Y-69898550D01*
X65689427Y-69952429D01*
X65652018Y-69969515D01*
X65623999Y-69977023D01*
X65623989Y-69977027D01*
X65431835Y-70066629D01*
X65431831Y-70066631D01*
X65258163Y-70188235D01*
X65258157Y-70188240D01*
X65108240Y-70338157D01*
X65108235Y-70338163D01*
X64986631Y-70511831D01*
X64986629Y-70511835D01*
X64897027Y-70703989D01*
X64897024Y-70703996D01*
X64889775Y-70731051D01*
X64853409Y-70790711D01*
X64790562Y-70821240D01*
X64721187Y-70812945D01*
X64667309Y-70768459D01*
X64650225Y-70731051D01*
X64642975Y-70703996D01*
X64642974Y-70703991D01*
X64553371Y-70511836D01*
X64553369Y-70511833D01*
X64553368Y-70511831D01*
X64431764Y-70338163D01*
X64431759Y-70338157D01*
X64281842Y-70188240D01*
X64281836Y-70188235D01*
X64108168Y-70066631D01*
X64108164Y-70066629D01*
X64078587Y-70052837D01*
X63916009Y-69977026D01*
X63916005Y-69977025D01*
X63916001Y-69977023D01*
X63888949Y-69969775D01*
X63829288Y-69933410D01*
X63798759Y-69870563D01*
X63807054Y-69801188D01*
X63851539Y-69747310D01*
X63888949Y-69730225D01*
X63910702Y-69724396D01*
X63916009Y-69722974D01*
X64108164Y-69633371D01*
X64281841Y-69511761D01*
X64431761Y-69361841D01*
X64553371Y-69188164D01*
X64642974Y-68996009D01*
X64643023Y-68995829D01*
X64650483Y-68967986D01*
X64686847Y-68908325D01*
X64749694Y-68877795D01*
X64819069Y-68886089D01*
X64872948Y-68930574D01*
X64890033Y-68967985D01*
X64897493Y-68995829D01*
X64897497Y-68995838D01*
X64987062Y-69187912D01*
X64987063Y-69187914D01*
X65024733Y-69241712D01*
X65024734Y-69241713D01*
X65642046Y-68624400D01*
X65654835Y-68705148D01*
G37*
%TD.AperFunction*%
%TD*%
M02*
