%TF.GenerationSoftware,KiCad,Pcbnew,7.0.10*%
%TF.CreationDate,2024-01-06T19:24:24+00:00*%
%TF.ProjectId,v1a,7631612e-6b69-4636-9164-5f7063625858,rev?*%
%TF.SameCoordinates,Original*%
%TF.FileFunction,Legend,Bot*%
%TF.FilePolarity,Positive*%
%FSLAX46Y46*%
G04 Gerber Fmt 4.6, Leading zero omitted, Abs format (unit mm)*
G04 Created by KiCad (PCBNEW 7.0.10) date 2024-01-06 19:24:24*
%MOMM*%
%LPD*%
G01*
G04 APERTURE LIST*
%ADD10C,0.150000*%
G04 APERTURE END LIST*
D10*
X51447506Y-86499819D02*
X51447506Y-87214104D01*
X51447506Y-87214104D02*
X51495125Y-87356961D01*
X51495125Y-87356961D02*
X51590363Y-87452200D01*
X51590363Y-87452200D02*
X51733220Y-87499819D01*
X51733220Y-87499819D02*
X51828458Y-87499819D01*
X50495125Y-87499819D02*
X50971315Y-87499819D01*
X50971315Y-87499819D02*
X50971315Y-86499819D01*
X49590363Y-87404580D02*
X49637982Y-87452200D01*
X49637982Y-87452200D02*
X49780839Y-87499819D01*
X49780839Y-87499819D02*
X49876077Y-87499819D01*
X49876077Y-87499819D02*
X50018934Y-87452200D01*
X50018934Y-87452200D02*
X50114172Y-87356961D01*
X50114172Y-87356961D02*
X50161791Y-87261723D01*
X50161791Y-87261723D02*
X50209410Y-87071247D01*
X50209410Y-87071247D02*
X50209410Y-86928390D01*
X50209410Y-86928390D02*
X50161791Y-86737914D01*
X50161791Y-86737914D02*
X50114172Y-86642676D01*
X50114172Y-86642676D02*
X50018934Y-86547438D01*
X50018934Y-86547438D02*
X49876077Y-86499819D01*
X49876077Y-86499819D02*
X49780839Y-86499819D01*
X49780839Y-86499819D02*
X49637982Y-86547438D01*
X49637982Y-86547438D02*
X49590363Y-86595057D01*
X48876077Y-86499819D02*
X48876077Y-87214104D01*
X48876077Y-87214104D02*
X48923696Y-87356961D01*
X48923696Y-87356961D02*
X49018934Y-87452200D01*
X49018934Y-87452200D02*
X49161791Y-87499819D01*
X49161791Y-87499819D02*
X49257029Y-87499819D01*
X47923696Y-87499819D02*
X48399886Y-87499819D01*
X48399886Y-87499819D02*
X48399886Y-86499819D01*
X47018934Y-87404580D02*
X47066553Y-87452200D01*
X47066553Y-87452200D02*
X47209410Y-87499819D01*
X47209410Y-87499819D02*
X47304648Y-87499819D01*
X47304648Y-87499819D02*
X47447505Y-87452200D01*
X47447505Y-87452200D02*
X47542743Y-87356961D01*
X47542743Y-87356961D02*
X47590362Y-87261723D01*
X47590362Y-87261723D02*
X47637981Y-87071247D01*
X47637981Y-87071247D02*
X47637981Y-86928390D01*
X47637981Y-86928390D02*
X47590362Y-86737914D01*
X47590362Y-86737914D02*
X47542743Y-86642676D01*
X47542743Y-86642676D02*
X47447505Y-86547438D01*
X47447505Y-86547438D02*
X47304648Y-86499819D01*
X47304648Y-86499819D02*
X47209410Y-86499819D01*
X47209410Y-86499819D02*
X47066553Y-86547438D01*
X47066553Y-86547438D02*
X47018934Y-86595057D01*
X46304648Y-86499819D02*
X46304648Y-87214104D01*
X46304648Y-87214104D02*
X46352267Y-87356961D01*
X46352267Y-87356961D02*
X46447505Y-87452200D01*
X46447505Y-87452200D02*
X46590362Y-87499819D01*
X46590362Y-87499819D02*
X46685600Y-87499819D01*
X45352267Y-87499819D02*
X45828457Y-87499819D01*
X45828457Y-87499819D02*
X45828457Y-86499819D01*
X44447505Y-87404580D02*
X44495124Y-87452200D01*
X44495124Y-87452200D02*
X44637981Y-87499819D01*
X44637981Y-87499819D02*
X44733219Y-87499819D01*
X44733219Y-87499819D02*
X44876076Y-87452200D01*
X44876076Y-87452200D02*
X44971314Y-87356961D01*
X44971314Y-87356961D02*
X45018933Y-87261723D01*
X45018933Y-87261723D02*
X45066552Y-87071247D01*
X45066552Y-87071247D02*
X45066552Y-86928390D01*
X45066552Y-86928390D02*
X45018933Y-86737914D01*
X45018933Y-86737914D02*
X44971314Y-86642676D01*
X44971314Y-86642676D02*
X44876076Y-86547438D01*
X44876076Y-86547438D02*
X44733219Y-86499819D01*
X44733219Y-86499819D02*
X44637981Y-86499819D01*
X44637981Y-86499819D02*
X44495124Y-86547438D01*
X44495124Y-86547438D02*
X44447505Y-86595057D01*
X43733219Y-86499819D02*
X43733219Y-87214104D01*
X43733219Y-87214104D02*
X43780838Y-87356961D01*
X43780838Y-87356961D02*
X43876076Y-87452200D01*
X43876076Y-87452200D02*
X44018933Y-87499819D01*
X44018933Y-87499819D02*
X44114171Y-87499819D01*
X42780838Y-87499819D02*
X43257028Y-87499819D01*
X43257028Y-87499819D02*
X43257028Y-86499819D01*
X41876076Y-87404580D02*
X41923695Y-87452200D01*
X41923695Y-87452200D02*
X42066552Y-87499819D01*
X42066552Y-87499819D02*
X42161790Y-87499819D01*
X42161790Y-87499819D02*
X42304647Y-87452200D01*
X42304647Y-87452200D02*
X42399885Y-87356961D01*
X42399885Y-87356961D02*
X42447504Y-87261723D01*
X42447504Y-87261723D02*
X42495123Y-87071247D01*
X42495123Y-87071247D02*
X42495123Y-86928390D01*
X42495123Y-86928390D02*
X42447504Y-86737914D01*
X42447504Y-86737914D02*
X42399885Y-86642676D01*
X42399885Y-86642676D02*
X42304647Y-86547438D01*
X42304647Y-86547438D02*
X42161790Y-86499819D01*
X42161790Y-86499819D02*
X42066552Y-86499819D01*
X42066552Y-86499819D02*
X41923695Y-86547438D01*
X41923695Y-86547438D02*
X41876076Y-86595057D01*
X60088114Y-58625819D02*
X60088114Y-57625819D01*
X60088114Y-57625819D02*
X59850019Y-57625819D01*
X59850019Y-57625819D02*
X59707162Y-57673438D01*
X59707162Y-57673438D02*
X59611924Y-57768676D01*
X59611924Y-57768676D02*
X59564305Y-57863914D01*
X59564305Y-57863914D02*
X59516686Y-58054390D01*
X59516686Y-58054390D02*
X59516686Y-58197247D01*
X59516686Y-58197247D02*
X59564305Y-58387723D01*
X59564305Y-58387723D02*
X59611924Y-58482961D01*
X59611924Y-58482961D02*
X59707162Y-58578200D01*
X59707162Y-58578200D02*
X59850019Y-58625819D01*
X59850019Y-58625819D02*
X60088114Y-58625819D01*
X58707162Y-58578200D02*
X58802400Y-58625819D01*
X58802400Y-58625819D02*
X58992876Y-58625819D01*
X58992876Y-58625819D02*
X59088114Y-58578200D01*
X59088114Y-58578200D02*
X59135733Y-58482961D01*
X59135733Y-58482961D02*
X59135733Y-58102009D01*
X59135733Y-58102009D02*
X59088114Y-58006771D01*
X59088114Y-58006771D02*
X58992876Y-57959152D01*
X58992876Y-57959152D02*
X58802400Y-57959152D01*
X58802400Y-57959152D02*
X58707162Y-58006771D01*
X58707162Y-58006771D02*
X58659543Y-58102009D01*
X58659543Y-58102009D02*
X58659543Y-58197247D01*
X58659543Y-58197247D02*
X59135733Y-58292485D01*
X58278590Y-58578200D02*
X58183352Y-58625819D01*
X58183352Y-58625819D02*
X57992876Y-58625819D01*
X57992876Y-58625819D02*
X57897638Y-58578200D01*
X57897638Y-58578200D02*
X57850019Y-58482961D01*
X57850019Y-58482961D02*
X57850019Y-58435342D01*
X57850019Y-58435342D02*
X57897638Y-58340104D01*
X57897638Y-58340104D02*
X57992876Y-58292485D01*
X57992876Y-58292485D02*
X58135733Y-58292485D01*
X58135733Y-58292485D02*
X58230971Y-58244866D01*
X58230971Y-58244866D02*
X58278590Y-58149628D01*
X58278590Y-58149628D02*
X58278590Y-58102009D01*
X58278590Y-58102009D02*
X58230971Y-58006771D01*
X58230971Y-58006771D02*
X58135733Y-57959152D01*
X58135733Y-57959152D02*
X57992876Y-57959152D01*
X57992876Y-57959152D02*
X57897638Y-58006771D01*
X57421447Y-58625819D02*
X57421447Y-57959152D01*
X57421447Y-57625819D02*
X57469066Y-57673438D01*
X57469066Y-57673438D02*
X57421447Y-57721057D01*
X57421447Y-57721057D02*
X57373828Y-57673438D01*
X57373828Y-57673438D02*
X57421447Y-57625819D01*
X57421447Y-57625819D02*
X57421447Y-57721057D01*
X56516686Y-57959152D02*
X56516686Y-58768676D01*
X56516686Y-58768676D02*
X56564305Y-58863914D01*
X56564305Y-58863914D02*
X56611924Y-58911533D01*
X56611924Y-58911533D02*
X56707162Y-58959152D01*
X56707162Y-58959152D02*
X56850019Y-58959152D01*
X56850019Y-58959152D02*
X56945257Y-58911533D01*
X56516686Y-58578200D02*
X56611924Y-58625819D01*
X56611924Y-58625819D02*
X56802400Y-58625819D01*
X56802400Y-58625819D02*
X56897638Y-58578200D01*
X56897638Y-58578200D02*
X56945257Y-58530580D01*
X56945257Y-58530580D02*
X56992876Y-58435342D01*
X56992876Y-58435342D02*
X56992876Y-58149628D01*
X56992876Y-58149628D02*
X56945257Y-58054390D01*
X56945257Y-58054390D02*
X56897638Y-58006771D01*
X56897638Y-58006771D02*
X56802400Y-57959152D01*
X56802400Y-57959152D02*
X56611924Y-57959152D01*
X56611924Y-57959152D02*
X56516686Y-58006771D01*
X56040495Y-57959152D02*
X56040495Y-58625819D01*
X56040495Y-58054390D02*
X55992876Y-58006771D01*
X55992876Y-58006771D02*
X55897638Y-57959152D01*
X55897638Y-57959152D02*
X55754781Y-57959152D01*
X55754781Y-57959152D02*
X55659543Y-58006771D01*
X55659543Y-58006771D02*
X55611924Y-58102009D01*
X55611924Y-58102009D02*
X55611924Y-58625819D01*
X54754781Y-58578200D02*
X54850019Y-58625819D01*
X54850019Y-58625819D02*
X55040495Y-58625819D01*
X55040495Y-58625819D02*
X55135733Y-58578200D01*
X55135733Y-58578200D02*
X55183352Y-58482961D01*
X55183352Y-58482961D02*
X55183352Y-58102009D01*
X55183352Y-58102009D02*
X55135733Y-58006771D01*
X55135733Y-58006771D02*
X55040495Y-57959152D01*
X55040495Y-57959152D02*
X54850019Y-57959152D01*
X54850019Y-57959152D02*
X54754781Y-58006771D01*
X54754781Y-58006771D02*
X54707162Y-58102009D01*
X54707162Y-58102009D02*
X54707162Y-58197247D01*
X54707162Y-58197247D02*
X55183352Y-58292485D01*
X53850019Y-58625819D02*
X53850019Y-57625819D01*
X53850019Y-58578200D02*
X53945257Y-58625819D01*
X53945257Y-58625819D02*
X54135733Y-58625819D01*
X54135733Y-58625819D02*
X54230971Y-58578200D01*
X54230971Y-58578200D02*
X54278590Y-58530580D01*
X54278590Y-58530580D02*
X54326209Y-58435342D01*
X54326209Y-58435342D02*
X54326209Y-58149628D01*
X54326209Y-58149628D02*
X54278590Y-58054390D01*
X54278590Y-58054390D02*
X54230971Y-58006771D01*
X54230971Y-58006771D02*
X54135733Y-57959152D01*
X54135733Y-57959152D02*
X53945257Y-57959152D01*
X53945257Y-57959152D02*
X53850019Y-58006771D01*
X52326209Y-57625819D02*
X52326209Y-58340104D01*
X52326209Y-58340104D02*
X52373828Y-58482961D01*
X52373828Y-58482961D02*
X52469066Y-58578200D01*
X52469066Y-58578200D02*
X52611923Y-58625819D01*
X52611923Y-58625819D02*
X52707161Y-58625819D01*
X51421447Y-58625819D02*
X51421447Y-58102009D01*
X51421447Y-58102009D02*
X51469066Y-58006771D01*
X51469066Y-58006771D02*
X51564304Y-57959152D01*
X51564304Y-57959152D02*
X51754780Y-57959152D01*
X51754780Y-57959152D02*
X51850018Y-58006771D01*
X51421447Y-58578200D02*
X51516685Y-58625819D01*
X51516685Y-58625819D02*
X51754780Y-58625819D01*
X51754780Y-58625819D02*
X51850018Y-58578200D01*
X51850018Y-58578200D02*
X51897637Y-58482961D01*
X51897637Y-58482961D02*
X51897637Y-58387723D01*
X51897637Y-58387723D02*
X51850018Y-58292485D01*
X51850018Y-58292485D02*
X51754780Y-58244866D01*
X51754780Y-58244866D02*
X51516685Y-58244866D01*
X51516685Y-58244866D02*
X51421447Y-58197247D01*
X50945256Y-57959152D02*
X50945256Y-58625819D01*
X50945256Y-58054390D02*
X50897637Y-58006771D01*
X50897637Y-58006771D02*
X50802399Y-57959152D01*
X50802399Y-57959152D02*
X50659542Y-57959152D01*
X50659542Y-57959152D02*
X50564304Y-58006771D01*
X50564304Y-58006771D02*
X50516685Y-58102009D01*
X50516685Y-58102009D02*
X50516685Y-58625819D01*
X49611923Y-57959152D02*
X49611923Y-58625819D01*
X50040494Y-57959152D02*
X50040494Y-58482961D01*
X50040494Y-58482961D02*
X49992875Y-58578200D01*
X49992875Y-58578200D02*
X49897637Y-58625819D01*
X49897637Y-58625819D02*
X49754780Y-58625819D01*
X49754780Y-58625819D02*
X49659542Y-58578200D01*
X49659542Y-58578200D02*
X49611923Y-58530580D01*
X48707161Y-58625819D02*
X48707161Y-58102009D01*
X48707161Y-58102009D02*
X48754780Y-58006771D01*
X48754780Y-58006771D02*
X48850018Y-57959152D01*
X48850018Y-57959152D02*
X49040494Y-57959152D01*
X49040494Y-57959152D02*
X49135732Y-58006771D01*
X48707161Y-58578200D02*
X48802399Y-58625819D01*
X48802399Y-58625819D02*
X49040494Y-58625819D01*
X49040494Y-58625819D02*
X49135732Y-58578200D01*
X49135732Y-58578200D02*
X49183351Y-58482961D01*
X49183351Y-58482961D02*
X49183351Y-58387723D01*
X49183351Y-58387723D02*
X49135732Y-58292485D01*
X49135732Y-58292485D02*
X49040494Y-58244866D01*
X49040494Y-58244866D02*
X48802399Y-58244866D01*
X48802399Y-58244866D02*
X48707161Y-58197247D01*
X48230970Y-58625819D02*
X48230970Y-57959152D01*
X48230970Y-58149628D02*
X48183351Y-58054390D01*
X48183351Y-58054390D02*
X48135732Y-58006771D01*
X48135732Y-58006771D02*
X48040494Y-57959152D01*
X48040494Y-57959152D02*
X47945256Y-57959152D01*
X47707160Y-57959152D02*
X47469065Y-58625819D01*
X47230970Y-57959152D02*
X47469065Y-58625819D01*
X47469065Y-58625819D02*
X47564303Y-58863914D01*
X47564303Y-58863914D02*
X47611922Y-58911533D01*
X47611922Y-58911533D02*
X47707160Y-58959152D01*
X46135731Y-57721057D02*
X46088112Y-57673438D01*
X46088112Y-57673438D02*
X45992874Y-57625819D01*
X45992874Y-57625819D02*
X45754779Y-57625819D01*
X45754779Y-57625819D02*
X45659541Y-57673438D01*
X45659541Y-57673438D02*
X45611922Y-57721057D01*
X45611922Y-57721057D02*
X45564303Y-57816295D01*
X45564303Y-57816295D02*
X45564303Y-57911533D01*
X45564303Y-57911533D02*
X45611922Y-58054390D01*
X45611922Y-58054390D02*
X46183350Y-58625819D01*
X46183350Y-58625819D02*
X45564303Y-58625819D01*
X44945255Y-57625819D02*
X44850017Y-57625819D01*
X44850017Y-57625819D02*
X44754779Y-57673438D01*
X44754779Y-57673438D02*
X44707160Y-57721057D01*
X44707160Y-57721057D02*
X44659541Y-57816295D01*
X44659541Y-57816295D02*
X44611922Y-58006771D01*
X44611922Y-58006771D02*
X44611922Y-58244866D01*
X44611922Y-58244866D02*
X44659541Y-58435342D01*
X44659541Y-58435342D02*
X44707160Y-58530580D01*
X44707160Y-58530580D02*
X44754779Y-58578200D01*
X44754779Y-58578200D02*
X44850017Y-58625819D01*
X44850017Y-58625819D02*
X44945255Y-58625819D01*
X44945255Y-58625819D02*
X45040493Y-58578200D01*
X45040493Y-58578200D02*
X45088112Y-58530580D01*
X45088112Y-58530580D02*
X45135731Y-58435342D01*
X45135731Y-58435342D02*
X45183350Y-58244866D01*
X45183350Y-58244866D02*
X45183350Y-58006771D01*
X45183350Y-58006771D02*
X45135731Y-57816295D01*
X45135731Y-57816295D02*
X45088112Y-57721057D01*
X45088112Y-57721057D02*
X45040493Y-57673438D01*
X45040493Y-57673438D02*
X44945255Y-57625819D01*
X44230969Y-57721057D02*
X44183350Y-57673438D01*
X44183350Y-57673438D02*
X44088112Y-57625819D01*
X44088112Y-57625819D02*
X43850017Y-57625819D01*
X43850017Y-57625819D02*
X43754779Y-57673438D01*
X43754779Y-57673438D02*
X43707160Y-57721057D01*
X43707160Y-57721057D02*
X43659541Y-57816295D01*
X43659541Y-57816295D02*
X43659541Y-57911533D01*
X43659541Y-57911533D02*
X43707160Y-58054390D01*
X43707160Y-58054390D02*
X44278588Y-58625819D01*
X44278588Y-58625819D02*
X43659541Y-58625819D01*
X42802398Y-57959152D02*
X42802398Y-58625819D01*
X43040493Y-57578200D02*
X43278588Y-58292485D01*
X43278588Y-58292485D02*
X42659541Y-58292485D01*
X48278589Y-60235819D02*
X48278589Y-59235819D01*
X48278589Y-59616771D02*
X48183351Y-59569152D01*
X48183351Y-59569152D02*
X47992875Y-59569152D01*
X47992875Y-59569152D02*
X47897637Y-59616771D01*
X47897637Y-59616771D02*
X47850018Y-59664390D01*
X47850018Y-59664390D02*
X47802399Y-59759628D01*
X47802399Y-59759628D02*
X47802399Y-60045342D01*
X47802399Y-60045342D02*
X47850018Y-60140580D01*
X47850018Y-60140580D02*
X47897637Y-60188200D01*
X47897637Y-60188200D02*
X47992875Y-60235819D01*
X47992875Y-60235819D02*
X48183351Y-60235819D01*
X48183351Y-60235819D02*
X48278589Y-60188200D01*
X47469065Y-59569152D02*
X47230970Y-60235819D01*
X46992875Y-59569152D02*
X47230970Y-60235819D01*
X47230970Y-60235819D02*
X47326208Y-60473914D01*
X47326208Y-60473914D02*
X47373827Y-60521533D01*
X47373827Y-60521533D02*
X47469065Y-60569152D01*
X45897636Y-60188200D02*
X45802398Y-60235819D01*
X45802398Y-60235819D02*
X45611922Y-60235819D01*
X45611922Y-60235819D02*
X45516684Y-60188200D01*
X45516684Y-60188200D02*
X45469065Y-60092961D01*
X45469065Y-60092961D02*
X45469065Y-60045342D01*
X45469065Y-60045342D02*
X45516684Y-59950104D01*
X45516684Y-59950104D02*
X45611922Y-59902485D01*
X45611922Y-59902485D02*
X45754779Y-59902485D01*
X45754779Y-59902485D02*
X45850017Y-59854866D01*
X45850017Y-59854866D02*
X45897636Y-59759628D01*
X45897636Y-59759628D02*
X45897636Y-59712009D01*
X45897636Y-59712009D02*
X45850017Y-59616771D01*
X45850017Y-59616771D02*
X45754779Y-59569152D01*
X45754779Y-59569152D02*
X45611922Y-59569152D01*
X45611922Y-59569152D02*
X45516684Y-59616771D01*
X45040493Y-60235819D02*
X45040493Y-59569152D01*
X45040493Y-59664390D02*
X44992874Y-59616771D01*
X44992874Y-59616771D02*
X44897636Y-59569152D01*
X44897636Y-59569152D02*
X44754779Y-59569152D01*
X44754779Y-59569152D02*
X44659541Y-59616771D01*
X44659541Y-59616771D02*
X44611922Y-59712009D01*
X44611922Y-59712009D02*
X44611922Y-60235819D01*
X44611922Y-59712009D02*
X44564303Y-59616771D01*
X44564303Y-59616771D02*
X44469065Y-59569152D01*
X44469065Y-59569152D02*
X44326208Y-59569152D01*
X44326208Y-59569152D02*
X44230969Y-59616771D01*
X44230969Y-59616771D02*
X44183350Y-59712009D01*
X44183350Y-59712009D02*
X44183350Y-60235819D01*
X43278589Y-60235819D02*
X43278589Y-59712009D01*
X43278589Y-59712009D02*
X43326208Y-59616771D01*
X43326208Y-59616771D02*
X43421446Y-59569152D01*
X43421446Y-59569152D02*
X43611922Y-59569152D01*
X43611922Y-59569152D02*
X43707160Y-59616771D01*
X43278589Y-60188200D02*
X43373827Y-60235819D01*
X43373827Y-60235819D02*
X43611922Y-60235819D01*
X43611922Y-60235819D02*
X43707160Y-60188200D01*
X43707160Y-60188200D02*
X43754779Y-60092961D01*
X43754779Y-60092961D02*
X43754779Y-59997723D01*
X43754779Y-59997723D02*
X43707160Y-59902485D01*
X43707160Y-59902485D02*
X43611922Y-59854866D01*
X43611922Y-59854866D02*
X43373827Y-59854866D01*
X43373827Y-59854866D02*
X43278589Y-59807247D01*
X42659541Y-60235819D02*
X42754779Y-60188200D01*
X42754779Y-60188200D02*
X42802398Y-60092961D01*
X42802398Y-60092961D02*
X42802398Y-59235819D01*
X58040493Y-61798200D02*
X57945255Y-61845819D01*
X57945255Y-61845819D02*
X57754779Y-61845819D01*
X57754779Y-61845819D02*
X57659541Y-61798200D01*
X57659541Y-61798200D02*
X57611922Y-61702961D01*
X57611922Y-61702961D02*
X57611922Y-61655342D01*
X57611922Y-61655342D02*
X57659541Y-61560104D01*
X57659541Y-61560104D02*
X57754779Y-61512485D01*
X57754779Y-61512485D02*
X57897636Y-61512485D01*
X57897636Y-61512485D02*
X57992874Y-61464866D01*
X57992874Y-61464866D02*
X58040493Y-61369628D01*
X58040493Y-61369628D02*
X58040493Y-61322009D01*
X58040493Y-61322009D02*
X57992874Y-61226771D01*
X57992874Y-61226771D02*
X57897636Y-61179152D01*
X57897636Y-61179152D02*
X57754779Y-61179152D01*
X57754779Y-61179152D02*
X57659541Y-61226771D01*
X57183350Y-61845819D02*
X57183350Y-61179152D01*
X57183350Y-61274390D02*
X57135731Y-61226771D01*
X57135731Y-61226771D02*
X57040493Y-61179152D01*
X57040493Y-61179152D02*
X56897636Y-61179152D01*
X56897636Y-61179152D02*
X56802398Y-61226771D01*
X56802398Y-61226771D02*
X56754779Y-61322009D01*
X56754779Y-61322009D02*
X56754779Y-61845819D01*
X56754779Y-61322009D02*
X56707160Y-61226771D01*
X56707160Y-61226771D02*
X56611922Y-61179152D01*
X56611922Y-61179152D02*
X56469065Y-61179152D01*
X56469065Y-61179152D02*
X56373826Y-61226771D01*
X56373826Y-61226771D02*
X56326207Y-61322009D01*
X56326207Y-61322009D02*
X56326207Y-61845819D01*
X55421446Y-61845819D02*
X55421446Y-61322009D01*
X55421446Y-61322009D02*
X55469065Y-61226771D01*
X55469065Y-61226771D02*
X55564303Y-61179152D01*
X55564303Y-61179152D02*
X55754779Y-61179152D01*
X55754779Y-61179152D02*
X55850017Y-61226771D01*
X55421446Y-61798200D02*
X55516684Y-61845819D01*
X55516684Y-61845819D02*
X55754779Y-61845819D01*
X55754779Y-61845819D02*
X55850017Y-61798200D01*
X55850017Y-61798200D02*
X55897636Y-61702961D01*
X55897636Y-61702961D02*
X55897636Y-61607723D01*
X55897636Y-61607723D02*
X55850017Y-61512485D01*
X55850017Y-61512485D02*
X55754779Y-61464866D01*
X55754779Y-61464866D02*
X55516684Y-61464866D01*
X55516684Y-61464866D02*
X55421446Y-61417247D01*
X54802398Y-61845819D02*
X54897636Y-61798200D01*
X54897636Y-61798200D02*
X54945255Y-61702961D01*
X54945255Y-61702961D02*
X54945255Y-60845819D01*
X53992874Y-61845819D02*
X53992874Y-60845819D01*
X53992874Y-61798200D02*
X54088112Y-61845819D01*
X54088112Y-61845819D02*
X54278588Y-61845819D01*
X54278588Y-61845819D02*
X54373826Y-61798200D01*
X54373826Y-61798200D02*
X54421445Y-61750580D01*
X54421445Y-61750580D02*
X54469064Y-61655342D01*
X54469064Y-61655342D02*
X54469064Y-61369628D01*
X54469064Y-61369628D02*
X54421445Y-61274390D01*
X54421445Y-61274390D02*
X54373826Y-61226771D01*
X54373826Y-61226771D02*
X54278588Y-61179152D01*
X54278588Y-61179152D02*
X54088112Y-61179152D01*
X54088112Y-61179152D02*
X53992874Y-61226771D01*
X53516683Y-61845819D02*
X53516683Y-61179152D01*
X53516683Y-61369628D02*
X53469064Y-61274390D01*
X53469064Y-61274390D02*
X53421445Y-61226771D01*
X53421445Y-61226771D02*
X53326207Y-61179152D01*
X53326207Y-61179152D02*
X53230969Y-61179152D01*
X52469064Y-61845819D02*
X52469064Y-61322009D01*
X52469064Y-61322009D02*
X52516683Y-61226771D01*
X52516683Y-61226771D02*
X52611921Y-61179152D01*
X52611921Y-61179152D02*
X52802397Y-61179152D01*
X52802397Y-61179152D02*
X52897635Y-61226771D01*
X52469064Y-61798200D02*
X52564302Y-61845819D01*
X52564302Y-61845819D02*
X52802397Y-61845819D01*
X52802397Y-61845819D02*
X52897635Y-61798200D01*
X52897635Y-61798200D02*
X52945254Y-61702961D01*
X52945254Y-61702961D02*
X52945254Y-61607723D01*
X52945254Y-61607723D02*
X52897635Y-61512485D01*
X52897635Y-61512485D02*
X52802397Y-61464866D01*
X52802397Y-61464866D02*
X52564302Y-61464866D01*
X52564302Y-61464866D02*
X52469064Y-61417247D01*
X51564302Y-61179152D02*
X51564302Y-61988676D01*
X51564302Y-61988676D02*
X51611921Y-62083914D01*
X51611921Y-62083914D02*
X51659540Y-62131533D01*
X51659540Y-62131533D02*
X51754778Y-62179152D01*
X51754778Y-62179152D02*
X51897635Y-62179152D01*
X51897635Y-62179152D02*
X51992873Y-62131533D01*
X51564302Y-61798200D02*
X51659540Y-61845819D01*
X51659540Y-61845819D02*
X51850016Y-61845819D01*
X51850016Y-61845819D02*
X51945254Y-61798200D01*
X51945254Y-61798200D02*
X51992873Y-61750580D01*
X51992873Y-61750580D02*
X52040492Y-61655342D01*
X52040492Y-61655342D02*
X52040492Y-61369628D01*
X52040492Y-61369628D02*
X51992873Y-61274390D01*
X51992873Y-61274390D02*
X51945254Y-61226771D01*
X51945254Y-61226771D02*
X51850016Y-61179152D01*
X51850016Y-61179152D02*
X51659540Y-61179152D01*
X51659540Y-61179152D02*
X51564302Y-61226771D01*
X50945254Y-61845819D02*
X51040492Y-61798200D01*
X51040492Y-61798200D02*
X51088111Y-61750580D01*
X51088111Y-61750580D02*
X51135730Y-61655342D01*
X51135730Y-61655342D02*
X51135730Y-61369628D01*
X51135730Y-61369628D02*
X51088111Y-61274390D01*
X51088111Y-61274390D02*
X51040492Y-61226771D01*
X51040492Y-61226771D02*
X50945254Y-61179152D01*
X50945254Y-61179152D02*
X50802397Y-61179152D01*
X50802397Y-61179152D02*
X50707159Y-61226771D01*
X50707159Y-61226771D02*
X50659540Y-61274390D01*
X50659540Y-61274390D02*
X50611921Y-61369628D01*
X50611921Y-61369628D02*
X50611921Y-61655342D01*
X50611921Y-61655342D02*
X50659540Y-61750580D01*
X50659540Y-61750580D02*
X50707159Y-61798200D01*
X50707159Y-61798200D02*
X50802397Y-61845819D01*
X50802397Y-61845819D02*
X50945254Y-61845819D01*
X50183349Y-61179152D02*
X50183349Y-61845819D01*
X50183349Y-61274390D02*
X50135730Y-61226771D01*
X50135730Y-61226771D02*
X50040492Y-61179152D01*
X50040492Y-61179152D02*
X49897635Y-61179152D01*
X49897635Y-61179152D02*
X49802397Y-61226771D01*
X49802397Y-61226771D02*
X49754778Y-61322009D01*
X49754778Y-61322009D02*
X49754778Y-61845819D01*
X49278587Y-61750580D02*
X49230968Y-61798200D01*
X49230968Y-61798200D02*
X49278587Y-61845819D01*
X49278587Y-61845819D02*
X49326206Y-61798200D01*
X49326206Y-61798200D02*
X49278587Y-61750580D01*
X49278587Y-61750580D02*
X49278587Y-61845819D01*
X48373826Y-61179152D02*
X48373826Y-61988676D01*
X48373826Y-61988676D02*
X48421445Y-62083914D01*
X48421445Y-62083914D02*
X48469064Y-62131533D01*
X48469064Y-62131533D02*
X48564302Y-62179152D01*
X48564302Y-62179152D02*
X48707159Y-62179152D01*
X48707159Y-62179152D02*
X48802397Y-62131533D01*
X48373826Y-61798200D02*
X48469064Y-61845819D01*
X48469064Y-61845819D02*
X48659540Y-61845819D01*
X48659540Y-61845819D02*
X48754778Y-61798200D01*
X48754778Y-61798200D02*
X48802397Y-61750580D01*
X48802397Y-61750580D02*
X48850016Y-61655342D01*
X48850016Y-61655342D02*
X48850016Y-61369628D01*
X48850016Y-61369628D02*
X48802397Y-61274390D01*
X48802397Y-61274390D02*
X48754778Y-61226771D01*
X48754778Y-61226771D02*
X48659540Y-61179152D01*
X48659540Y-61179152D02*
X48469064Y-61179152D01*
X48469064Y-61179152D02*
X48373826Y-61226771D01*
X47897635Y-61845819D02*
X47897635Y-61179152D01*
X47897635Y-60845819D02*
X47945254Y-60893438D01*
X47945254Y-60893438D02*
X47897635Y-60941057D01*
X47897635Y-60941057D02*
X47850016Y-60893438D01*
X47850016Y-60893438D02*
X47897635Y-60845819D01*
X47897635Y-60845819D02*
X47897635Y-60941057D01*
X47564302Y-61179152D02*
X47183350Y-61179152D01*
X47421445Y-60845819D02*
X47421445Y-61702961D01*
X47421445Y-61702961D02*
X47373826Y-61798200D01*
X47373826Y-61798200D02*
X47278588Y-61845819D01*
X47278588Y-61845819D02*
X47183350Y-61845819D01*
X46850016Y-61845819D02*
X46850016Y-60845819D01*
X46421445Y-61845819D02*
X46421445Y-61322009D01*
X46421445Y-61322009D02*
X46469064Y-61226771D01*
X46469064Y-61226771D02*
X46564302Y-61179152D01*
X46564302Y-61179152D02*
X46707159Y-61179152D01*
X46707159Y-61179152D02*
X46802397Y-61226771D01*
X46802397Y-61226771D02*
X46850016Y-61274390D01*
X45516683Y-61179152D02*
X45516683Y-61845819D01*
X45945254Y-61179152D02*
X45945254Y-61702961D01*
X45945254Y-61702961D02*
X45897635Y-61798200D01*
X45897635Y-61798200D02*
X45802397Y-61845819D01*
X45802397Y-61845819D02*
X45659540Y-61845819D01*
X45659540Y-61845819D02*
X45564302Y-61798200D01*
X45564302Y-61798200D02*
X45516683Y-61750580D01*
X45040492Y-61845819D02*
X45040492Y-60845819D01*
X45040492Y-61226771D02*
X44945254Y-61179152D01*
X44945254Y-61179152D02*
X44754778Y-61179152D01*
X44754778Y-61179152D02*
X44659540Y-61226771D01*
X44659540Y-61226771D02*
X44611921Y-61274390D01*
X44611921Y-61274390D02*
X44564302Y-61369628D01*
X44564302Y-61369628D02*
X44564302Y-61655342D01*
X44564302Y-61655342D02*
X44611921Y-61750580D01*
X44611921Y-61750580D02*
X44659540Y-61798200D01*
X44659540Y-61798200D02*
X44754778Y-61845819D01*
X44754778Y-61845819D02*
X44945254Y-61845819D01*
X44945254Y-61845819D02*
X45040492Y-61798200D01*
X44135730Y-61750580D02*
X44088111Y-61798200D01*
X44088111Y-61798200D02*
X44135730Y-61845819D01*
X44135730Y-61845819D02*
X44183349Y-61798200D01*
X44183349Y-61798200D02*
X44135730Y-61750580D01*
X44135730Y-61750580D02*
X44135730Y-61845819D01*
X43659540Y-61845819D02*
X43659540Y-61179152D01*
X43659540Y-60845819D02*
X43707159Y-60893438D01*
X43707159Y-60893438D02*
X43659540Y-60941057D01*
X43659540Y-60941057D02*
X43611921Y-60893438D01*
X43611921Y-60893438D02*
X43659540Y-60845819D01*
X43659540Y-60845819D02*
X43659540Y-60941057D01*
X43040493Y-61845819D02*
X43135731Y-61798200D01*
X43135731Y-61798200D02*
X43183350Y-61750580D01*
X43183350Y-61750580D02*
X43230969Y-61655342D01*
X43230969Y-61655342D02*
X43230969Y-61369628D01*
X43230969Y-61369628D02*
X43183350Y-61274390D01*
X43183350Y-61274390D02*
X43135731Y-61226771D01*
X43135731Y-61226771D02*
X43040493Y-61179152D01*
X43040493Y-61179152D02*
X42897636Y-61179152D01*
X42897636Y-61179152D02*
X42802398Y-61226771D01*
X42802398Y-61226771D02*
X42754779Y-61274390D01*
X42754779Y-61274390D02*
X42707160Y-61369628D01*
X42707160Y-61369628D02*
X42707160Y-61655342D01*
X42707160Y-61655342D02*
X42754779Y-61750580D01*
X42754779Y-61750580D02*
X42802398Y-61798200D01*
X42802398Y-61798200D02*
X42897636Y-61845819D01*
X42897636Y-61845819D02*
X43040493Y-61845819D01*
M02*
