%TF.GenerationSoftware,KiCad,Pcbnew,7.0.10*%
%TF.CreationDate,2024-01-06T19:24:24+00:00*%
%TF.ProjectId,v1a,7631612e-6b69-4636-9164-5f7063625858,rev?*%
%TF.SameCoordinates,Original*%
%TF.FileFunction,Soldermask,Top*%
%TF.FilePolarity,Negative*%
%FSLAX46Y46*%
G04 Gerber Fmt 4.6, Leading zero omitted, Abs format (unit mm)*
G04 Created by KiCad (PCBNEW 7.0.10) date 2024-01-06 19:24:24*
%MOMM*%
%LPD*%
G01*
G04 APERTURE LIST*
G04 Aperture macros list*
%AMRoundRect*
0 Rectangle with rounded corners*
0 $1 Rounding radius*
0 $2 $3 $4 $5 $6 $7 $8 $9 X,Y pos of 4 corners*
0 Add a 4 corners polygon primitive as box body*
4,1,4,$2,$3,$4,$5,$6,$7,$8,$9,$2,$3,0*
0 Add four circle primitives for the rounded corners*
1,1,$1+$1,$2,$3*
1,1,$1+$1,$4,$5*
1,1,$1+$1,$6,$7*
1,1,$1+$1,$8,$9*
0 Add four rect primitives between the rounded corners*
20,1,$1+$1,$2,$3,$4,$5,0*
20,1,$1+$1,$4,$5,$6,$7,0*
20,1,$1+$1,$6,$7,$8,$9,0*
20,1,$1+$1,$8,$9,$2,$3,0*%
G04 Aperture macros list end*
%ADD10C,0.150000*%
%ADD11R,1.600000X1.600000*%
%ADD12O,1.600000X1.600000*%
%ADD13C,1.600000*%
%ADD14R,1.422400X1.422400*%
%ADD15C,1.422400*%
%ADD16C,1.400000*%
%ADD17O,1.400000X1.400000*%
%ADD18R,1.800000X1.800000*%
%ADD19C,1.800000*%
%ADD20RoundRect,0.508000X-0.508000X-2.464500X0.508000X-2.464500X0.508000X2.464500X-0.508000X2.464500X0*%
%ADD21RoundRect,0.508000X-0.508000X-2.468000X0.508000X-2.468000X0.508000X2.468000X-0.508000X2.468000X0*%
%ADD22R,1.700000X1.700000*%
%ADD23C,1.700000*%
%ADD24C,3.500000*%
G04 APERTURE END LIST*
D10*
X40640000Y-88900000D02*
X99060000Y-88900000D01*
X99060000Y-95250000D01*
X40640000Y-95250000D01*
X40640000Y-88900000D01*
G36*
X40640000Y-88900000D02*
G01*
X99060000Y-88900000D01*
X99060000Y-95250000D01*
X40640000Y-95250000D01*
X40640000Y-88900000D01*
G37*
D11*
%TO.C,U2*%
X91440000Y-72390000D03*
D12*
X88900000Y-72390000D03*
X86360000Y-72390000D03*
X83820000Y-72390000D03*
X81280000Y-72390000D03*
X78740000Y-72390000D03*
X76200000Y-72390000D03*
X76200000Y-80010000D03*
X78740000Y-80010000D03*
X81280000Y-80010000D03*
X83820000Y-80010000D03*
X86360000Y-80010000D03*
X88900000Y-80010000D03*
X91440000Y-80010000D03*
%TD*%
D13*
%TO.C,C1*%
X94615000Y-74890000D03*
X94615000Y-72390000D03*
%TD*%
%TO.C,C3*%
X70485000Y-66314000D03*
X70485000Y-68814000D03*
%TD*%
D14*
%TO.C,U1*%
X58420000Y-68580000D03*
D15*
X55880000Y-66040000D03*
X55880000Y-68580000D03*
X53340000Y-66040000D03*
X53340000Y-68580000D03*
X50800000Y-66040000D03*
X48260000Y-68580000D03*
X50800000Y-68580000D03*
X48260000Y-71120000D03*
X50800000Y-71120000D03*
X48260000Y-73660000D03*
X50800000Y-73660000D03*
X48260000Y-76200000D03*
X50800000Y-76200000D03*
X48260000Y-78740000D03*
X50800000Y-78740000D03*
X48260000Y-81280000D03*
X50800000Y-83820000D03*
X50800000Y-81280000D03*
X53340000Y-83820000D03*
X53340000Y-81280000D03*
X55880000Y-83820000D03*
X55880000Y-81280000D03*
X58420000Y-83820000D03*
X58420000Y-81280000D03*
X60960000Y-83820000D03*
X60960000Y-81280000D03*
X63500000Y-83820000D03*
X66040000Y-81280000D03*
X63500000Y-81280000D03*
X66040000Y-78740000D03*
X63500000Y-78740000D03*
X66040000Y-76200000D03*
X63500000Y-76200000D03*
X66040000Y-73660000D03*
X63500000Y-73660000D03*
X66040000Y-71120000D03*
X63500000Y-71120000D03*
X66040000Y-68580000D03*
X63500000Y-66040000D03*
X63500000Y-68580000D03*
X60960000Y-66040000D03*
X60960000Y-68580000D03*
X58420000Y-66040000D03*
%TD*%
D13*
%TO.C,C2*%
X83820000Y-82804000D03*
X86320000Y-82804000D03*
%TD*%
D16*
%TO.C,R1*%
X78232000Y-64008000D03*
D17*
X70612000Y-64008000D03*
%TD*%
D18*
%TO.C,D1*%
X71755000Y-61214000D03*
D19*
X71755000Y-58674000D03*
%TD*%
D20*
%TO.C,J1*%
X43180000Y-91440000D03*
X45720000Y-91440000D03*
X48260000Y-91440000D03*
X50800000Y-91440000D03*
X53340000Y-91440000D03*
X55880000Y-91440000D03*
D21*
X58420000Y-91443500D03*
X60960000Y-91443500D03*
D20*
X63500000Y-91440000D03*
X66040000Y-91440000D03*
X68580000Y-91440000D03*
X71120000Y-91440000D03*
X73660000Y-91440000D03*
X76200000Y-91440000D03*
D21*
X78740000Y-91443500D03*
D20*
X81280000Y-91440000D03*
X83820000Y-91440000D03*
D21*
X86360000Y-91443500D03*
D20*
X88900000Y-91440000D03*
X91440000Y-91440000D03*
X93980000Y-91440000D03*
X96520000Y-91440000D03*
%TD*%
D18*
%TO.C,D2*%
X76835000Y-61214000D03*
D19*
X76835000Y-58674000D03*
%TD*%
D18*
%TO.C,D3*%
X66675000Y-61214000D03*
D19*
X66675000Y-58674000D03*
%TD*%
D22*
%TO.C,J2*%
X86360000Y-66940000D03*
D23*
X88860000Y-66940000D03*
X88860000Y-64940000D03*
X86360000Y-64940000D03*
D24*
X81590000Y-62230000D03*
X93630000Y-62230000D03*
%TD*%
M02*
