%TF.GenerationSoftware,KiCad,Pcbnew,7.0.8*%
%TF.CreationDate,2023-10-18T18:18:43+01:00*%
%TF.ProjectId,Beep12-Kicad,42656570-3132-42d4-9b69-6361642e6b69,rev?*%
%TF.SameCoordinates,Original*%
%TF.FileFunction,Soldermask,Top*%
%TF.FilePolarity,Negative*%
%FSLAX46Y46*%
G04 Gerber Fmt 4.6, Leading zero omitted, Abs format (unit mm)*
G04 Created by KiCad (PCBNEW 7.0.8) date 2023-10-18 18:18:43*
%MOMM*%
%LPD*%
G01*
G04 APERTURE LIST*
G04 Aperture macros list*
%AMRoundRect*
0 Rectangle with rounded corners*
0 $1 Rounding radius*
0 $2 $3 $4 $5 $6 $7 $8 $9 X,Y pos of 4 corners*
0 Add a 4 corners polygon primitive as box body*
4,1,4,$2,$3,$4,$5,$6,$7,$8,$9,$2,$3,0*
0 Add four circle primitives for the rounded corners*
1,1,$1+$1,$2,$3*
1,1,$1+$1,$4,$5*
1,1,$1+$1,$6,$7*
1,1,$1+$1,$8,$9*
0 Add four rect primitives between the rounded corners*
20,1,$1+$1,$2,$3,$4,$5,0*
20,1,$1+$1,$4,$5,$6,$7,0*
20,1,$1+$1,$6,$7,$8,$9,0*
20,1,$1+$1,$8,$9,$2,$3,0*%
G04 Aperture macros list end*
%ADD10C,1.500000*%
%ADD11C,1.400000*%
%ADD12O,1.400000X1.400000*%
%ADD13C,1.600000*%
%ADD14C,2.000000*%
%ADD15R,1.100000X1.800000*%
%ADD16RoundRect,0.275000X-0.275000X-0.625000X0.275000X-0.625000X0.275000X0.625000X-0.275000X0.625000X0*%
%ADD17R,2.400000X1.600000*%
%ADD18O,2.400000X1.600000*%
%ADD19C,3.200000*%
%ADD20R,1.700000X1.700000*%
%ADD21O,1.700000X1.700000*%
%ADD22R,1.422400X1.422400*%
%ADD23C,1.422400*%
%ADD24C,1.800000*%
%ADD25R,1.800000X1.800000*%
%ADD26R,1.600000X2.400000*%
%ADD27O,1.600000X2.400000*%
%ADD28R,3.500000X3.500000*%
%ADD29RoundRect,0.750000X-1.000000X0.750000X-1.000000X-0.750000X1.000000X-0.750000X1.000000X0.750000X0*%
%ADD30RoundRect,0.875000X-0.875000X0.875000X-0.875000X-0.875000X0.875000X-0.875000X0.875000X0.875000X0*%
%ADD31O,3.100000X4.100000*%
%ADD32C,1.998980*%
%ADD33R,1.400000X1.400000*%
%ADD34R,1.600000X1.600000*%
%ADD35O,1.600000X1.600000*%
%ADD36O,1.800000X1.800000*%
G04 APERTURE END LIST*
D10*
%TO.C,Y1*%
X32083500Y-113970300D03*
X32083500Y-117770300D03*
%TD*%
D11*
%TO.C,R47*%
X171450000Y-77348000D03*
D12*
X171450000Y-79248000D03*
%TD*%
D11*
%TO.C,R46*%
X171450000Y-74676000D03*
D12*
X171450000Y-72776000D03*
%TD*%
D13*
%TO.C,C32*%
X168910000Y-72176000D03*
X168910000Y-74676000D03*
%TD*%
%TO.C,C31*%
X168910000Y-79716000D03*
X168910000Y-77216000D03*
%TD*%
%TO.C,C1*%
X34584000Y-109982000D03*
X37084000Y-109982000D03*
%TD*%
D14*
%TO.C,SW2*%
X35762000Y-127544000D03*
X29262000Y-127544000D03*
X35762000Y-132044000D03*
X29262000Y-132044000D03*
%TD*%
D12*
%TO.C,R45*%
X37338000Y-104648000D03*
D11*
X29718000Y-104648000D03*
%TD*%
D15*
%TO.C,Q1*%
X121920000Y-104670000D03*
D16*
X123190000Y-102600000D03*
X124460000Y-104670000D03*
%TD*%
D17*
%TO.C,U1*%
X54386000Y-106096300D03*
D18*
X54386000Y-108636300D03*
X54386000Y-111176300D03*
X54386000Y-113716300D03*
X54386000Y-116256300D03*
X54386000Y-118796300D03*
X54386000Y-121336300D03*
X54386000Y-123876300D03*
X62006000Y-123876300D03*
X62006000Y-121336300D03*
X62006000Y-118796300D03*
X62006000Y-116256300D03*
X62006000Y-113716300D03*
X62006000Y-111176300D03*
X62006000Y-108636300D03*
X62006000Y-106096300D03*
%TD*%
D17*
%TO.C,U24*%
X41686000Y-131042800D03*
D18*
X41686000Y-133582800D03*
X41686000Y-136122800D03*
X41686000Y-138662800D03*
X41686000Y-141202800D03*
X41686000Y-143742800D03*
X41686000Y-146282800D03*
X41686000Y-148822800D03*
X49306000Y-148822800D03*
X49306000Y-146282800D03*
X49306000Y-143742800D03*
X49306000Y-141202800D03*
X49306000Y-138662800D03*
X49306000Y-136122800D03*
X49306000Y-133582800D03*
X49306000Y-131042800D03*
%TD*%
D11*
%TO.C,R37*%
X174112000Y-86360000D03*
D12*
X172212000Y-86360000D03*
%TD*%
D13*
%TO.C,C13*%
X49814000Y-128121800D03*
X47314000Y-128121800D03*
%TD*%
D12*
%TO.C,R5*%
X244256000Y-148822800D03*
D11*
X246156000Y-148822800D03*
%TD*%
%TO.C,R34*%
X178557000Y-88646000D03*
D12*
X176657000Y-88646000D03*
%TD*%
%TO.C,R17*%
X250596000Y-131042800D03*
D11*
X248696000Y-131042800D03*
%TD*%
D13*
%TO.C,C14*%
X62006000Y-128121800D03*
X59506000Y-128121800D03*
%TD*%
D17*
%TO.C,U20*%
X241086000Y-105632800D03*
D18*
X241086000Y-108172800D03*
X241086000Y-110712800D03*
X241086000Y-113252800D03*
X241086000Y-115792800D03*
X241086000Y-118332800D03*
X241086000Y-120872800D03*
X241086000Y-123412800D03*
X248706000Y-123412800D03*
X248706000Y-120872800D03*
X248706000Y-118332800D03*
X248706000Y-115792800D03*
X248706000Y-113252800D03*
X248706000Y-110712800D03*
X248706000Y-108172800D03*
X248706000Y-105632800D03*
%TD*%
D19*
%TO.C,H3*%
X255000000Y-74000000D03*
%TD*%
D13*
%TO.C,C10*%
X97566000Y-91672800D03*
X97566000Y-94172800D03*
%TD*%
D12*
%TO.C,R16*%
X250601000Y-141202800D03*
D11*
X248701000Y-141202800D03*
%TD*%
%TO.C,R23*%
X123982000Y-116056800D03*
D12*
X116362000Y-116056800D03*
%TD*%
D11*
%TO.C,R20*%
X123982000Y-108436800D03*
D12*
X116362000Y-108436800D03*
%TD*%
D11*
%TO.C,R32*%
X178557000Y-84074000D03*
D12*
X176657000Y-84074000D03*
%TD*%
D13*
%TO.C,C11*%
X200436000Y-122025800D03*
X197936000Y-122025800D03*
%TD*%
D20*
%TO.C,J5*%
X89946000Y-85344000D03*
D21*
X87406000Y-85344000D03*
X84866000Y-85344000D03*
X82326000Y-85344000D03*
X79786000Y-85344000D03*
X77246000Y-85344000D03*
X74706000Y-85344000D03*
X72166000Y-85344000D03*
X69626000Y-85344000D03*
X67086000Y-85344000D03*
X64546000Y-85344000D03*
X62006000Y-85344000D03*
X59466000Y-85344000D03*
X56926000Y-85344000D03*
X54386000Y-85344000D03*
X51846000Y-85344000D03*
X49306000Y-85344000D03*
X46766000Y-85344000D03*
X44226000Y-85344000D03*
X41686000Y-85344000D03*
X39146000Y-85344000D03*
X36606000Y-85344000D03*
%TD*%
D13*
%TO.C,C7*%
X62006000Y-103102800D03*
X59506000Y-103102800D03*
%TD*%
D12*
%TO.C,R19*%
X244251000Y-131042800D03*
D11*
X246151000Y-131042800D03*
%TD*%
D12*
%TO.C,R7*%
X248701000Y-138662800D03*
D11*
X250601000Y-138662800D03*
%TD*%
D22*
%TO.C,U6*%
X115976400Y-134213600D03*
D23*
X113436400Y-131673600D03*
X113436400Y-134213600D03*
X110896400Y-131673600D03*
X110896400Y-134213600D03*
X108356400Y-131673600D03*
X105816400Y-134213600D03*
X108356400Y-134213600D03*
X105816400Y-136753600D03*
X108356400Y-136753600D03*
X105816400Y-139293600D03*
X108356400Y-139293600D03*
X105816400Y-141833600D03*
X108356400Y-141833600D03*
X105816400Y-144373600D03*
X108356400Y-144373600D03*
X105816400Y-146913600D03*
X108356400Y-149453600D03*
X108356400Y-146913600D03*
X110896400Y-149453600D03*
X110896400Y-146913600D03*
X113436400Y-149453600D03*
X113436400Y-146913600D03*
X115976400Y-149453600D03*
X115976400Y-146913600D03*
X118516400Y-149453600D03*
X118516400Y-146913600D03*
X121056400Y-149453600D03*
X123596400Y-146913600D03*
X121056400Y-146913600D03*
X123596400Y-144373600D03*
X121056400Y-144373600D03*
X123596400Y-141833600D03*
X121056400Y-141833600D03*
X123596400Y-139293600D03*
X121056400Y-139293600D03*
X123596400Y-136753600D03*
X121056400Y-136753600D03*
X123596400Y-134213600D03*
X121056400Y-131673600D03*
X121056400Y-134213600D03*
X118516400Y-131673600D03*
X118516400Y-134213600D03*
X115976400Y-131673600D03*
%TD*%
D11*
%TO.C,R44*%
X251714000Y-81280000D03*
D12*
X251714000Y-88900000D03*
%TD*%
%TO.C,R14*%
X244256000Y-143742800D03*
D11*
X246156000Y-143742800D03*
%TD*%
D13*
%TO.C,C22*%
X200436000Y-94720800D03*
X197936000Y-94720800D03*
%TD*%
D11*
%TO.C,R33*%
X178557000Y-86360000D03*
D12*
X176657000Y-86360000D03*
%TD*%
D17*
%TO.C,U14*%
X192816000Y-97768800D03*
D18*
X192816000Y-100308800D03*
X192816000Y-102848800D03*
X192816000Y-105388800D03*
X192816000Y-107928800D03*
X192816000Y-110468800D03*
X192816000Y-113008800D03*
X192816000Y-115548800D03*
X200436000Y-115548800D03*
X200436000Y-113008800D03*
X200436000Y-110468800D03*
X200436000Y-107928800D03*
X200436000Y-105388800D03*
X200436000Y-102848800D03*
X200436000Y-100308800D03*
X200436000Y-97768800D03*
%TD*%
D13*
%TO.C,C19*%
X49306000Y-103356800D03*
X46806000Y-103356800D03*
%TD*%
%TO.C,C20*%
X110875600Y-103102800D03*
X108375600Y-103102800D03*
%TD*%
D11*
%TO.C,R39*%
X174112000Y-90932000D03*
D12*
X172212000Y-90932000D03*
%TD*%
D13*
%TO.C,C29*%
X214406000Y-128756800D03*
X211906000Y-128756800D03*
%TD*%
%TO.C,C3*%
X34877500Y-122860300D03*
X37377500Y-122860300D03*
%TD*%
D11*
%TO.C,R28*%
X229646000Y-85322800D03*
D12*
X222026000Y-85322800D03*
%TD*%
D13*
%TO.C,C12*%
X166146000Y-107039800D03*
X163646000Y-107039800D03*
%TD*%
D17*
%TO.C,U17*%
X220004000Y-94212800D03*
D18*
X220004000Y-96752800D03*
X220004000Y-99292800D03*
X220004000Y-101832800D03*
X220004000Y-104372800D03*
X220004000Y-106912800D03*
X220004000Y-109452800D03*
X220004000Y-111992800D03*
X220004000Y-114532800D03*
X220004000Y-117072800D03*
X220004000Y-119612800D03*
X220004000Y-122152800D03*
X235244000Y-122152800D03*
X235244000Y-119612800D03*
X235244000Y-117072800D03*
X235244000Y-114532800D03*
X235244000Y-111992800D03*
X235244000Y-109452800D03*
X235244000Y-106912800D03*
X235244000Y-104372800D03*
X235244000Y-101832800D03*
X235244000Y-99292800D03*
X235244000Y-96752800D03*
X235244000Y-94212800D03*
%TD*%
D17*
%TO.C,U12*%
X92486000Y-131042800D03*
D18*
X92486000Y-133582800D03*
X92486000Y-136122800D03*
X92486000Y-138662800D03*
X92486000Y-141202800D03*
X92486000Y-143742800D03*
X92486000Y-146282800D03*
X92486000Y-148822800D03*
X100106000Y-148822800D03*
X100106000Y-146282800D03*
X100106000Y-143742800D03*
X100106000Y-141202800D03*
X100106000Y-138662800D03*
X100106000Y-136122800D03*
X100106000Y-133582800D03*
X100106000Y-131042800D03*
%TD*%
D12*
%TO.C,R10*%
X244256000Y-146282800D03*
D11*
X246156000Y-146282800D03*
%TD*%
D24*
%TO.C,D2*%
X248153000Y-86360000D03*
D25*
X245613000Y-86360000D03*
%TD*%
D11*
%TO.C,R35*%
X178557000Y-90932000D03*
D12*
X176657000Y-90932000D03*
%TD*%
D11*
%TO.C,R25*%
X123982000Y-121136800D03*
D12*
X116362000Y-121136800D03*
%TD*%
%TO.C,R6*%
X248701000Y-146282800D03*
D11*
X250601000Y-146282800D03*
%TD*%
D13*
%TO.C,C27*%
X248706000Y-102584800D03*
X246206000Y-102584800D03*
%TD*%
D11*
%TO.C,R38*%
X174112000Y-88646000D03*
D12*
X172212000Y-88646000D03*
%TD*%
D13*
%TO.C,C21*%
X144556000Y-112119800D03*
X142056000Y-112119800D03*
%TD*%
D11*
%TO.C,R29*%
X116362000Y-123549800D03*
D12*
X123982000Y-123549800D03*
%TD*%
D13*
%TO.C,C17*%
X74706000Y-128198000D03*
X72206000Y-128198000D03*
%TD*%
D12*
%TO.C,R13*%
X248701000Y-133582800D03*
D11*
X250601000Y-133582800D03*
%TD*%
D12*
%TO.C,R8*%
X244256000Y-138662800D03*
D11*
X246156000Y-138662800D03*
%TD*%
D13*
%TO.C,C18*%
X116865400Y-126720600D03*
X119365400Y-126720600D03*
%TD*%
D17*
%TO.C,U15*%
X206786000Y-131677800D03*
D18*
X206786000Y-134217800D03*
X206786000Y-136757800D03*
X206786000Y-139297800D03*
X206786000Y-141837800D03*
X206786000Y-144377800D03*
X206786000Y-146917800D03*
X206786000Y-149457800D03*
X214406000Y-149457800D03*
X214406000Y-146917800D03*
X214406000Y-144377800D03*
X214406000Y-141837800D03*
X214406000Y-139297800D03*
X214406000Y-136757800D03*
X214406000Y-134217800D03*
X214406000Y-131677800D03*
%TD*%
D26*
%TO.C,U5*%
X68072000Y-99314000D03*
D27*
X70612000Y-99314000D03*
X73152000Y-99314000D03*
X75692000Y-99314000D03*
X78232000Y-99314000D03*
X80772000Y-99314000D03*
X83312000Y-99314000D03*
X85852000Y-99314000D03*
X88392000Y-99314000D03*
X90932000Y-99314000D03*
X90932000Y-91694000D03*
X88392000Y-91694000D03*
X85852000Y-91694000D03*
X83312000Y-91694000D03*
X80772000Y-91694000D03*
X78232000Y-91694000D03*
X75692000Y-91694000D03*
X73152000Y-91694000D03*
X70612000Y-91694000D03*
X68072000Y-91694000D03*
%TD*%
D26*
%TO.C,U25*%
X134396000Y-99292800D03*
D27*
X136936000Y-99292800D03*
X139476000Y-99292800D03*
X142016000Y-99292800D03*
X144556000Y-99292800D03*
X147096000Y-99292800D03*
X149636000Y-99292800D03*
X152176000Y-99292800D03*
X154716000Y-99292800D03*
X157256000Y-99292800D03*
X157256000Y-91672800D03*
X154716000Y-91672800D03*
X152176000Y-91672800D03*
X149636000Y-91672800D03*
X147096000Y-91672800D03*
X144556000Y-91672800D03*
X142016000Y-91672800D03*
X139476000Y-91672800D03*
X136936000Y-91672800D03*
X134396000Y-91672800D03*
%TD*%
D22*
%TO.C,U23*%
X179354000Y-111992800D03*
D23*
X181894000Y-114532800D03*
X181894000Y-111992800D03*
X184434000Y-114532800D03*
X186974000Y-111992800D03*
X184434000Y-111992800D03*
X186974000Y-109452800D03*
X184434000Y-109452800D03*
X186974000Y-106912800D03*
X184434000Y-106912800D03*
X186974000Y-104372800D03*
X184434000Y-104372800D03*
X186974000Y-101832800D03*
X184434000Y-99292800D03*
X184434000Y-101832800D03*
X181894000Y-99292800D03*
X181894000Y-101832800D03*
X179354000Y-99292800D03*
X179354000Y-101832800D03*
X176814000Y-99292800D03*
X174274000Y-101832800D03*
X176814000Y-101832800D03*
X174274000Y-104372800D03*
X176814000Y-104372800D03*
X174274000Y-106912800D03*
X176814000Y-106912800D03*
X174274000Y-109452800D03*
X176814000Y-109452800D03*
X174274000Y-111992800D03*
X176814000Y-114532800D03*
X176814000Y-111992800D03*
X179354000Y-114532800D03*
%TD*%
D17*
%TO.C,U2*%
X41686000Y-107620300D03*
D18*
X41686000Y-110160300D03*
X41686000Y-112700300D03*
X41686000Y-115240300D03*
X41686000Y-117780300D03*
X41686000Y-120320300D03*
X41686000Y-122860300D03*
X49306000Y-122860300D03*
X49306000Y-120320300D03*
X49306000Y-117780300D03*
X49306000Y-115240300D03*
X49306000Y-112700300D03*
X49306000Y-110160300D03*
X49306000Y-107620300D03*
%TD*%
D11*
%TO.C,R2*%
X28019500Y-119812300D03*
D12*
X28019500Y-112192300D03*
%TD*%
D13*
%TO.C,C8*%
X77754000Y-102340800D03*
X80254000Y-102340800D03*
%TD*%
D11*
%TO.C,R36*%
X174112000Y-84074000D03*
D12*
X172212000Y-84074000D03*
%TD*%
D17*
%TO.C,U13*%
X192816000Y-125962800D03*
D18*
X192816000Y-128502800D03*
X192816000Y-131042800D03*
X192816000Y-133582800D03*
X192816000Y-136122800D03*
X192816000Y-138662800D03*
X192816000Y-141202800D03*
X192816000Y-143742800D03*
X192816000Y-146282800D03*
X192816000Y-148822800D03*
X200436000Y-148822800D03*
X200436000Y-146282800D03*
X200436000Y-143742800D03*
X200436000Y-141202800D03*
X200436000Y-138662800D03*
X200436000Y-136122800D03*
X200436000Y-133582800D03*
X200436000Y-131042800D03*
X200436000Y-128502800D03*
X200436000Y-125962800D03*
%TD*%
D11*
%TO.C,R42*%
X169667000Y-88646000D03*
D12*
X167767000Y-88646000D03*
%TD*%
D11*
%TO.C,R21*%
X123982000Y-110976800D03*
D12*
X116362000Y-110976800D03*
%TD*%
D13*
%TO.C,C6*%
X130302000Y-91694000D03*
X130302000Y-94194000D03*
%TD*%
D11*
%TO.C,R22*%
X123982000Y-113516800D03*
D12*
X116362000Y-113516800D03*
%TD*%
%TO.C,R4*%
X248701000Y-148822800D03*
D11*
X250601000Y-148822800D03*
%TD*%
D12*
%TO.C,R18*%
X244256000Y-141202800D03*
D11*
X246156000Y-141202800D03*
%TD*%
D13*
%TO.C,C9*%
X241076000Y-128502800D03*
X238576000Y-128502800D03*
%TD*%
D26*
%TO.C,U26*%
X101376000Y-99292800D03*
D27*
X103916000Y-99292800D03*
X106456000Y-99292800D03*
X108996000Y-99292800D03*
X111536000Y-99292800D03*
X114076000Y-99292800D03*
X116616000Y-99292800D03*
X119156000Y-99292800D03*
X121696000Y-99292800D03*
X124236000Y-99292800D03*
X124236000Y-91672800D03*
X121696000Y-91672800D03*
X119156000Y-91672800D03*
X116616000Y-91672800D03*
X114076000Y-91672800D03*
X111536000Y-91672800D03*
X108996000Y-91672800D03*
X106456000Y-91672800D03*
X103916000Y-91672800D03*
X101376000Y-91672800D03*
%TD*%
D17*
%TO.C,U19*%
X233456000Y-131677800D03*
D18*
X233456000Y-134217800D03*
X233456000Y-136757800D03*
X233456000Y-139297800D03*
X233456000Y-141837800D03*
X233456000Y-144377800D03*
X233456000Y-146917800D03*
X233456000Y-149457800D03*
X241076000Y-149457800D03*
X241076000Y-146917800D03*
X241076000Y-144377800D03*
X241076000Y-141837800D03*
X241076000Y-139297800D03*
X241076000Y-136757800D03*
X241076000Y-134217800D03*
X241076000Y-131677800D03*
%TD*%
D20*
%TO.C,J9*%
X158531000Y-85322800D03*
D21*
X155991000Y-85322800D03*
X153451000Y-85322800D03*
X150911000Y-85322800D03*
X148371000Y-85322800D03*
X145831000Y-85322800D03*
X143291000Y-85322800D03*
X140751000Y-85322800D03*
X138211000Y-85322800D03*
X135671000Y-85322800D03*
X133131000Y-85322800D03*
X130591000Y-85322800D03*
X128051000Y-85322800D03*
X125511000Y-85322800D03*
X122971000Y-85322800D03*
X120431000Y-85322800D03*
X117891000Y-85322800D03*
X115351000Y-85322800D03*
X112811000Y-85322800D03*
X110271000Y-85322800D03*
X107731000Y-85322800D03*
X105191000Y-85322800D03*
%TD*%
D17*
%TO.C,U21*%
X129316000Y-115802800D03*
D18*
X129316000Y-118342800D03*
X129316000Y-120882800D03*
X129316000Y-123422800D03*
X129316000Y-125962800D03*
X129316000Y-128502800D03*
X129316000Y-131042800D03*
X129316000Y-133582800D03*
X129316000Y-136122800D03*
X129316000Y-138662800D03*
X129316000Y-141202800D03*
X129316000Y-143742800D03*
X129316000Y-146282800D03*
X129316000Y-148822800D03*
X144556000Y-148822800D03*
X144556000Y-146282800D03*
X144556000Y-143742800D03*
X144556000Y-141202800D03*
X144556000Y-138662800D03*
X144556000Y-136122800D03*
X144556000Y-133582800D03*
X144556000Y-131042800D03*
X144556000Y-128502800D03*
X144556000Y-125962800D03*
X144556000Y-123422800D03*
X144556000Y-120882800D03*
X144556000Y-118342800D03*
X144556000Y-115802800D03*
%TD*%
D11*
%TO.C,R27*%
X209042000Y-88900000D03*
D12*
X216662000Y-88900000D03*
%TD*%
D28*
%TO.C,J1*%
X244348000Y-79914000D03*
D29*
X244348000Y-73914000D03*
D30*
X239648000Y-76914000D03*
%TD*%
D20*
%TO.C,J6*%
X37876000Y-138662800D03*
D21*
X37876000Y-141202800D03*
X37876000Y-143742800D03*
X37876000Y-146282800D03*
X37876000Y-148822800D03*
%TD*%
D31*
%TO.C,J2*%
X233920820Y-74433820D03*
X180921180Y-74433820D03*
D32*
X188371000Y-81512800D03*
X190276000Y-76432800D03*
X192181000Y-81512800D03*
X194086000Y-76432800D03*
X195991000Y-81512800D03*
X197896000Y-76432800D03*
X199801000Y-81512800D03*
X201706000Y-76432800D03*
X203611000Y-81512800D03*
X205516000Y-76432800D03*
X207421000Y-81512800D03*
X209326000Y-76432800D03*
X211231000Y-81512800D03*
X213136000Y-76432800D03*
X215041000Y-81512800D03*
X216946000Y-76432800D03*
X218851000Y-81512800D03*
X220756000Y-76432800D03*
X222661000Y-81512800D03*
X224566000Y-76432800D03*
X226471000Y-81512800D03*
%TD*%
D17*
%TO.C,U3*%
X90200000Y-106100000D03*
D18*
X90200000Y-108640000D03*
X90200000Y-111180000D03*
X90200000Y-113720000D03*
X90200000Y-116260000D03*
X90200000Y-118800000D03*
X90200000Y-121340000D03*
X90200000Y-123880000D03*
X97820000Y-123880000D03*
X97820000Y-121340000D03*
X97820000Y-118800000D03*
X97820000Y-116260000D03*
X97820000Y-113720000D03*
X97820000Y-111180000D03*
X97820000Y-108640000D03*
X97820000Y-106100000D03*
%TD*%
D12*
%TO.C,R9*%
X248701000Y-136122800D03*
D11*
X250601000Y-136122800D03*
%TD*%
D33*
%TO.C,SW1*%
X254269000Y-87497500D03*
D11*
X254269000Y-84997500D03*
X254269000Y-82497500D03*
X257569000Y-87497500D03*
X257569000Y-84997500D03*
X257569000Y-82497500D03*
%TD*%
D17*
%TO.C,U16*%
X206786000Y-98657800D03*
D18*
X206786000Y-101197800D03*
X206786000Y-103737800D03*
X206786000Y-106277800D03*
X206786000Y-108817800D03*
X206786000Y-111357800D03*
X206786000Y-113897800D03*
X206786000Y-116437800D03*
X206786000Y-118977800D03*
X206786000Y-121517800D03*
X214406000Y-121517800D03*
X214406000Y-118977800D03*
X214406000Y-116437800D03*
X214406000Y-113897800D03*
X214406000Y-111357800D03*
X214406000Y-108817800D03*
X214406000Y-106277800D03*
X214406000Y-103737800D03*
X214406000Y-101197800D03*
X214406000Y-98657800D03*
%TD*%
D13*
%TO.C,C26*%
X214406000Y-94720800D03*
X211906000Y-94720800D03*
%TD*%
D34*
%TO.C,C30*%
X244094000Y-97028000D03*
D13*
X246594000Y-97028000D03*
%TD*%
D17*
%TO.C,U10*%
X172496000Y-125962800D03*
D18*
X172496000Y-128502800D03*
X172496000Y-131042800D03*
X172496000Y-133582800D03*
X172496000Y-136122800D03*
X172496000Y-138662800D03*
X172496000Y-141202800D03*
X172496000Y-143742800D03*
X172496000Y-146282800D03*
X172496000Y-148822800D03*
X180116000Y-148822800D03*
X180116000Y-146282800D03*
X180116000Y-143742800D03*
X180116000Y-141202800D03*
X180116000Y-138662800D03*
X180116000Y-136122800D03*
X180116000Y-133582800D03*
X180116000Y-131042800D03*
X180116000Y-128502800D03*
X180116000Y-125962800D03*
%TD*%
D13*
%TO.C,C2*%
X29797500Y-122860300D03*
X32297500Y-122860300D03*
%TD*%
%TO.C,C25*%
X97820000Y-103102800D03*
X95320000Y-103102800D03*
%TD*%
D11*
%TO.C,R41*%
X169672000Y-86360000D03*
D12*
X167772000Y-86360000D03*
%TD*%
D17*
%TO.C,U8*%
X67056000Y-131064000D03*
D18*
X67056000Y-133604000D03*
X67056000Y-136144000D03*
X67056000Y-138684000D03*
X67056000Y-141224000D03*
X67056000Y-143764000D03*
X67056000Y-146304000D03*
X67056000Y-148844000D03*
X74676000Y-148844000D03*
X74676000Y-146304000D03*
X74676000Y-143764000D03*
X74676000Y-141224000D03*
X74676000Y-138684000D03*
X74676000Y-136144000D03*
X74676000Y-133604000D03*
X74676000Y-131064000D03*
%TD*%
D12*
%TO.C,R12*%
X248701000Y-143742800D03*
D11*
X250601000Y-143742800D03*
%TD*%
%TO.C,R30*%
X116210000Y-102870000D03*
D12*
X118110000Y-102870000D03*
%TD*%
D11*
%TO.C,R43*%
X169672000Y-90932000D03*
D12*
X167772000Y-90932000D03*
%TD*%
D17*
%TO.C,U18*%
X220248000Y-131677800D03*
D18*
X220248000Y-134217800D03*
X220248000Y-136757800D03*
X220248000Y-139297800D03*
X220248000Y-141837800D03*
X220248000Y-144377800D03*
X220248000Y-146917800D03*
X220248000Y-149457800D03*
X227868000Y-149457800D03*
X227868000Y-146917800D03*
X227868000Y-144377800D03*
X227868000Y-141837800D03*
X227868000Y-139297800D03*
X227868000Y-136757800D03*
X227868000Y-134217800D03*
X227868000Y-131677800D03*
%TD*%
D13*
%TO.C,C4*%
X238252000Y-94234000D03*
X238252000Y-96734000D03*
%TD*%
D12*
%TO.C,R15*%
X244251000Y-133582800D03*
D11*
X246151000Y-133582800D03*
%TD*%
D17*
%TO.C,U7*%
X54356000Y-132334000D03*
D18*
X54356000Y-134874000D03*
X54356000Y-137414000D03*
X54356000Y-139954000D03*
X54356000Y-142494000D03*
X54356000Y-145034000D03*
X54356000Y-147574000D03*
X61976000Y-147574000D03*
X61976000Y-145034000D03*
X61976000Y-142494000D03*
X61976000Y-139954000D03*
X61976000Y-137414000D03*
X61976000Y-134874000D03*
X61976000Y-132334000D03*
%TD*%
D19*
%TO.C,H2*%
X29000000Y-153000000D03*
%TD*%
D11*
%TO.C,R24*%
X123982000Y-118596800D03*
D12*
X116362000Y-118596800D03*
%TD*%
%TO.C,R11*%
X244256000Y-136122800D03*
D11*
X246156000Y-136122800D03*
%TD*%
D17*
%TO.C,U11*%
X79786000Y-131042800D03*
D18*
X79786000Y-133582800D03*
X79786000Y-136122800D03*
X79786000Y-138662800D03*
X79786000Y-141202800D03*
X79786000Y-143742800D03*
X79786000Y-146282800D03*
X79786000Y-148822800D03*
X87406000Y-148822800D03*
X87406000Y-146282800D03*
X87406000Y-143742800D03*
X87406000Y-141202800D03*
X87406000Y-138662800D03*
X87406000Y-136122800D03*
X87406000Y-133582800D03*
X87406000Y-131042800D03*
%TD*%
D19*
%TO.C,H1*%
X29000000Y-74000000D03*
%TD*%
D13*
%TO.C,C24*%
X169702000Y-116564800D03*
X169702000Y-114064800D03*
%TD*%
D11*
%TO.C,R26*%
X239806000Y-85322800D03*
D12*
X232186000Y-85322800D03*
%TD*%
D22*
%TO.C,U4*%
X77681500Y-109398300D03*
D23*
X75141500Y-106858300D03*
X75141500Y-109398300D03*
X72601500Y-106858300D03*
X70061500Y-109398300D03*
X72601500Y-109398300D03*
X70061500Y-111938300D03*
X72601500Y-111938300D03*
X70061500Y-114478300D03*
X72601500Y-114478300D03*
X70061500Y-117018300D03*
X72601500Y-117018300D03*
X70061500Y-119558300D03*
X72601500Y-122098300D03*
X72601500Y-119558300D03*
X75141500Y-122098300D03*
X75141500Y-119558300D03*
X77681500Y-122098300D03*
X77681500Y-119558300D03*
X80221500Y-122098300D03*
X82761500Y-119558300D03*
X80221500Y-119558300D03*
X82761500Y-117018300D03*
X80221500Y-117018300D03*
X82761500Y-114478300D03*
X80221500Y-114478300D03*
X82761500Y-111938300D03*
X80221500Y-111938300D03*
X82761500Y-109398300D03*
X80221500Y-106858300D03*
X80221500Y-109398300D03*
X77681500Y-106858300D03*
%TD*%
D11*
%TO.C,R40*%
X169672000Y-84074000D03*
D12*
X167772000Y-84074000D03*
%TD*%
D17*
%TO.C,U22*%
X150906000Y-110722800D03*
D18*
X150906000Y-113262800D03*
X150906000Y-115802800D03*
X150906000Y-118342800D03*
X150906000Y-120882800D03*
X150906000Y-123422800D03*
X150906000Y-125962800D03*
X150906000Y-128502800D03*
X150906000Y-131042800D03*
X150906000Y-133582800D03*
X150906000Y-136122800D03*
X150906000Y-138662800D03*
X150906000Y-141202800D03*
X150906000Y-143742800D03*
X150906000Y-146282800D03*
X150906000Y-148822800D03*
X166146000Y-148822800D03*
X166146000Y-146282800D03*
X166146000Y-143742800D03*
X166146000Y-141202800D03*
X166146000Y-138662800D03*
X166146000Y-136122800D03*
X166146000Y-133582800D03*
X166146000Y-131042800D03*
X166146000Y-128502800D03*
X166146000Y-125962800D03*
X166146000Y-123422800D03*
X166146000Y-120882800D03*
X166146000Y-118342800D03*
X166146000Y-115802800D03*
X166146000Y-113262800D03*
X166146000Y-110722800D03*
%TD*%
D17*
%TO.C,U9*%
X103230200Y-106150800D03*
D18*
X103230200Y-108690800D03*
X103230200Y-111230800D03*
X103230200Y-113770800D03*
X103230200Y-116310800D03*
X103230200Y-118850800D03*
X103230200Y-121390800D03*
X103230200Y-123930800D03*
X110850200Y-123930800D03*
X110850200Y-121390800D03*
X110850200Y-118850800D03*
X110850200Y-116310800D03*
X110850200Y-113770800D03*
X110850200Y-111230800D03*
X110850200Y-108690800D03*
X110850200Y-106150800D03*
%TD*%
D13*
%TO.C,C5*%
X64262000Y-91440000D03*
X64262000Y-93940000D03*
%TD*%
%TO.C,C28*%
X227868000Y-128502800D03*
X225368000Y-128502800D03*
%TD*%
D20*
%TO.C,J7*%
X134366000Y-102870000D03*
D21*
X136906000Y-102870000D03*
X139446000Y-102870000D03*
X141986000Y-102870000D03*
X144526000Y-102870000D03*
X147066000Y-102870000D03*
X149606000Y-102870000D03*
X152146000Y-102870000D03*
X154686000Y-102870000D03*
%TD*%
D34*
%TO.C,RN2*%
X186466000Y-125962800D03*
D35*
X186466000Y-128502800D03*
X186466000Y-131042800D03*
X186466000Y-133582800D03*
X186466000Y-136122800D03*
X186466000Y-138662800D03*
X186466000Y-141202800D03*
X186466000Y-143742800D03*
X186466000Y-146282800D03*
%TD*%
D20*
%TO.C,J8*%
X158531000Y-82782800D03*
D21*
X158531000Y-80242800D03*
X155991000Y-82782800D03*
X155991000Y-80242800D03*
X153451000Y-82782800D03*
X153451000Y-80242800D03*
X150911000Y-82782800D03*
X150911000Y-80242800D03*
X148371000Y-82782800D03*
X148371000Y-80242800D03*
X145831000Y-82782800D03*
X145831000Y-80242800D03*
X143291000Y-82782800D03*
X143291000Y-80242800D03*
X140751000Y-82782800D03*
X140751000Y-80242800D03*
X138211000Y-82782800D03*
X138211000Y-80242800D03*
X135671000Y-82782800D03*
X135671000Y-80242800D03*
X133131000Y-82782800D03*
X133131000Y-80242800D03*
X130591000Y-82782800D03*
X130591000Y-80242800D03*
X128051000Y-82782800D03*
X128051000Y-80242800D03*
X125511000Y-82782800D03*
X125511000Y-80242800D03*
X122971000Y-82782800D03*
X122971000Y-80242800D03*
X120431000Y-82782800D03*
X120431000Y-80242800D03*
X117891000Y-82782800D03*
X117891000Y-80242800D03*
X115351000Y-82782800D03*
X115351000Y-80242800D03*
X112811000Y-82782800D03*
X112811000Y-80242800D03*
X110271000Y-82782800D03*
X110271000Y-80242800D03*
X107731000Y-82782800D03*
X107731000Y-80242800D03*
X105191000Y-82782800D03*
X105191000Y-80242800D03*
%TD*%
D12*
%TO.C,R1*%
X29616000Y-107420800D03*
D11*
X37236000Y-107420800D03*
%TD*%
D13*
%TO.C,C23*%
X180116000Y-122025800D03*
X177616000Y-122025800D03*
%TD*%
D19*
%TO.C,H4*%
X255000000Y-153000000D03*
%TD*%
D11*
%TO.C,R3*%
X36147500Y-120320300D03*
D12*
X36147500Y-112700300D03*
%TD*%
D13*
%TO.C,C15*%
X100106000Y-128121800D03*
X97606000Y-128121800D03*
%TD*%
D20*
%TO.C,J4*%
X89946000Y-82804000D03*
D21*
X89946000Y-80264000D03*
X87406000Y-82804000D03*
X87406000Y-80264000D03*
X84866000Y-82804000D03*
X84866000Y-80264000D03*
X82326000Y-82804000D03*
X82326000Y-80264000D03*
X79786000Y-82804000D03*
X79786000Y-80264000D03*
X77246000Y-82804000D03*
X77246000Y-80264000D03*
X74706000Y-82804000D03*
X74706000Y-80264000D03*
X72166000Y-82804000D03*
X72166000Y-80264000D03*
X69626000Y-82804000D03*
X69626000Y-80264000D03*
X67086000Y-82804000D03*
X67086000Y-80264000D03*
X64546000Y-82804000D03*
X64546000Y-80264000D03*
X62006000Y-82804000D03*
X62006000Y-80264000D03*
X59466000Y-82804000D03*
X59466000Y-80264000D03*
X56926000Y-82804000D03*
X56926000Y-80264000D03*
X54386000Y-82804000D03*
X54386000Y-80264000D03*
X51846000Y-82804000D03*
X51846000Y-80264000D03*
X49306000Y-82804000D03*
X49306000Y-80264000D03*
X46766000Y-82804000D03*
X46766000Y-80264000D03*
X44226000Y-82804000D03*
X44226000Y-80264000D03*
X41686000Y-82804000D03*
X41686000Y-80264000D03*
X39146000Y-82804000D03*
X39146000Y-80264000D03*
X36606000Y-82804000D03*
X36606000Y-80264000D03*
%TD*%
D13*
%TO.C,C16*%
X87406000Y-128121800D03*
X84906000Y-128121800D03*
%TD*%
D11*
%TO.C,R31*%
X116162000Y-105410000D03*
D12*
X118062000Y-105410000D03*
%TD*%
D25*
%TO.C,D1*%
X229646000Y-88497800D03*
D36*
X232186000Y-88497800D03*
%TD*%
M02*
