%TF.GenerationSoftware,KiCad,Pcbnew,7.0.8*%
%TF.CreationDate,2023-10-18T18:18:43+01:00*%
%TF.ProjectId,Beep12-Kicad,42656570-3132-42d4-9b69-6361642e6b69,rev?*%
%TF.SameCoordinates,Original*%
%TF.FileFunction,Legend,Bot*%
%TF.FilePolarity,Positive*%
%FSLAX46Y46*%
G04 Gerber Fmt 4.6, Leading zero omitted, Abs format (unit mm)*
G04 Created by KiCad (PCBNEW 7.0.8) date 2023-10-18 18:18:43*
%MOMM*%
%LPD*%
G01*
G04 APERTURE LIST*
%ADD10C,0.150000*%
G04 APERTURE END LIST*
D10*
X250837506Y-154825819D02*
X250837506Y-155540104D01*
X250837506Y-155540104D02*
X250885125Y-155682961D01*
X250885125Y-155682961D02*
X250980363Y-155778200D01*
X250980363Y-155778200D02*
X251123220Y-155825819D01*
X251123220Y-155825819D02*
X251218458Y-155825819D01*
X249885125Y-155825819D02*
X250361315Y-155825819D01*
X250361315Y-155825819D02*
X250361315Y-154825819D01*
X248980363Y-155730580D02*
X249027982Y-155778200D01*
X249027982Y-155778200D02*
X249170839Y-155825819D01*
X249170839Y-155825819D02*
X249266077Y-155825819D01*
X249266077Y-155825819D02*
X249408934Y-155778200D01*
X249408934Y-155778200D02*
X249504172Y-155682961D01*
X249504172Y-155682961D02*
X249551791Y-155587723D01*
X249551791Y-155587723D02*
X249599410Y-155397247D01*
X249599410Y-155397247D02*
X249599410Y-155254390D01*
X249599410Y-155254390D02*
X249551791Y-155063914D01*
X249551791Y-155063914D02*
X249504172Y-154968676D01*
X249504172Y-154968676D02*
X249408934Y-154873438D01*
X249408934Y-154873438D02*
X249266077Y-154825819D01*
X249266077Y-154825819D02*
X249170839Y-154825819D01*
X249170839Y-154825819D02*
X249027982Y-154873438D01*
X249027982Y-154873438D02*
X248980363Y-154921057D01*
X248266077Y-154825819D02*
X248266077Y-155540104D01*
X248266077Y-155540104D02*
X248313696Y-155682961D01*
X248313696Y-155682961D02*
X248408934Y-155778200D01*
X248408934Y-155778200D02*
X248551791Y-155825819D01*
X248551791Y-155825819D02*
X248647029Y-155825819D01*
X247313696Y-155825819D02*
X247789886Y-155825819D01*
X247789886Y-155825819D02*
X247789886Y-154825819D01*
X246408934Y-155730580D02*
X246456553Y-155778200D01*
X246456553Y-155778200D02*
X246599410Y-155825819D01*
X246599410Y-155825819D02*
X246694648Y-155825819D01*
X246694648Y-155825819D02*
X246837505Y-155778200D01*
X246837505Y-155778200D02*
X246932743Y-155682961D01*
X246932743Y-155682961D02*
X246980362Y-155587723D01*
X246980362Y-155587723D02*
X247027981Y-155397247D01*
X247027981Y-155397247D02*
X247027981Y-155254390D01*
X247027981Y-155254390D02*
X246980362Y-155063914D01*
X246980362Y-155063914D02*
X246932743Y-154968676D01*
X246932743Y-154968676D02*
X246837505Y-154873438D01*
X246837505Y-154873438D02*
X246694648Y-154825819D01*
X246694648Y-154825819D02*
X246599410Y-154825819D01*
X246599410Y-154825819D02*
X246456553Y-154873438D01*
X246456553Y-154873438D02*
X246408934Y-154921057D01*
X245694648Y-154825819D02*
X245694648Y-155540104D01*
X245694648Y-155540104D02*
X245742267Y-155682961D01*
X245742267Y-155682961D02*
X245837505Y-155778200D01*
X245837505Y-155778200D02*
X245980362Y-155825819D01*
X245980362Y-155825819D02*
X246075600Y-155825819D01*
X244742267Y-155825819D02*
X245218457Y-155825819D01*
X245218457Y-155825819D02*
X245218457Y-154825819D01*
X243837505Y-155730580D02*
X243885124Y-155778200D01*
X243885124Y-155778200D02*
X244027981Y-155825819D01*
X244027981Y-155825819D02*
X244123219Y-155825819D01*
X244123219Y-155825819D02*
X244266076Y-155778200D01*
X244266076Y-155778200D02*
X244361314Y-155682961D01*
X244361314Y-155682961D02*
X244408933Y-155587723D01*
X244408933Y-155587723D02*
X244456552Y-155397247D01*
X244456552Y-155397247D02*
X244456552Y-155254390D01*
X244456552Y-155254390D02*
X244408933Y-155063914D01*
X244408933Y-155063914D02*
X244361314Y-154968676D01*
X244361314Y-154968676D02*
X244266076Y-154873438D01*
X244266076Y-154873438D02*
X244123219Y-154825819D01*
X244123219Y-154825819D02*
X244027981Y-154825819D01*
X244027981Y-154825819D02*
X243885124Y-154873438D01*
X243885124Y-154873438D02*
X243837505Y-154921057D01*
X243123219Y-154825819D02*
X243123219Y-155540104D01*
X243123219Y-155540104D02*
X243170838Y-155682961D01*
X243170838Y-155682961D02*
X243266076Y-155778200D01*
X243266076Y-155778200D02*
X243408933Y-155825819D01*
X243408933Y-155825819D02*
X243504171Y-155825819D01*
X242170838Y-155825819D02*
X242647028Y-155825819D01*
X242647028Y-155825819D02*
X242647028Y-154825819D01*
X241266076Y-155730580D02*
X241313695Y-155778200D01*
X241313695Y-155778200D02*
X241456552Y-155825819D01*
X241456552Y-155825819D02*
X241551790Y-155825819D01*
X241551790Y-155825819D02*
X241694647Y-155778200D01*
X241694647Y-155778200D02*
X241789885Y-155682961D01*
X241789885Y-155682961D02*
X241837504Y-155587723D01*
X241837504Y-155587723D02*
X241885123Y-155397247D01*
X241885123Y-155397247D02*
X241885123Y-155254390D01*
X241885123Y-155254390D02*
X241837504Y-155063914D01*
X241837504Y-155063914D02*
X241789885Y-154968676D01*
X241789885Y-154968676D02*
X241694647Y-154873438D01*
X241694647Y-154873438D02*
X241551790Y-154825819D01*
X241551790Y-154825819D02*
X241456552Y-154825819D01*
X241456552Y-154825819D02*
X241313695Y-154873438D01*
X241313695Y-154873438D02*
X241266076Y-154921057D01*
X90932000Y-129413000D02*
X92582000Y-129413000D01*
X93182000Y-129413000D02*
X94832000Y-129413000D01*
X95432000Y-129413000D02*
X97082000Y-129413000D01*
X97682000Y-129413000D02*
X99332000Y-129413000D01*
X99932000Y-129413000D02*
X101582000Y-129413000D01*
X101600000Y-129413000D02*
X101600000Y-131063000D01*
X101600000Y-131663000D02*
X101600000Y-133313000D01*
X101600000Y-133913000D02*
X101600000Y-135563000D01*
X101600000Y-136163000D02*
X101600000Y-137813000D01*
X101600000Y-138413000D02*
X101600000Y-140063000D01*
X101600000Y-140663000D02*
X101600000Y-142313000D01*
X101600000Y-142913000D02*
X101600000Y-144563000D01*
X101600000Y-145163000D02*
X101600000Y-146813000D01*
X101600000Y-147413000D02*
X101600000Y-149063000D01*
X101600000Y-149663000D02*
X101600000Y-150114000D01*
X101600000Y-150114000D02*
X99950000Y-150114000D01*
X99350000Y-150114000D02*
X97700000Y-150114000D01*
X97100000Y-150114000D02*
X95450000Y-150114000D01*
X94850000Y-150114000D02*
X93200000Y-150114000D01*
X92600000Y-150114000D02*
X90950000Y-150114000D01*
X90932000Y-150114000D02*
X90932000Y-148464000D01*
X90932000Y-147864000D02*
X90932000Y-146214000D01*
X90932000Y-145614000D02*
X90932000Y-143964000D01*
X90932000Y-143364000D02*
X90932000Y-141714000D01*
X90932000Y-141114000D02*
X90932000Y-139464000D01*
X90932000Y-138864000D02*
X90932000Y-137214000D01*
X90932000Y-136614000D02*
X90932000Y-134964000D01*
X90932000Y-134364000D02*
X90932000Y-132714000D01*
X90932000Y-132114000D02*
X90932000Y-130464000D01*
X90932000Y-129864000D02*
X90932000Y-129413000D01*
X78232000Y-129413000D02*
X79882000Y-129413000D01*
X80482000Y-129413000D02*
X82132000Y-129413000D01*
X82732000Y-129413000D02*
X84382000Y-129413000D01*
X84982000Y-129413000D02*
X86632000Y-129413000D01*
X87232000Y-129413000D02*
X88882000Y-129413000D01*
X88900000Y-129413000D02*
X88900000Y-131063000D01*
X88900000Y-131663000D02*
X88900000Y-133313000D01*
X88900000Y-133913000D02*
X88900000Y-135563000D01*
X88900000Y-136163000D02*
X88900000Y-137813000D01*
X88900000Y-138413000D02*
X88900000Y-140063000D01*
X88900000Y-140663000D02*
X88900000Y-142313000D01*
X88900000Y-142913000D02*
X88900000Y-144563000D01*
X88900000Y-145163000D02*
X88900000Y-146813000D01*
X88900000Y-147413000D02*
X88900000Y-149063000D01*
X88900000Y-149663000D02*
X88900000Y-150114000D01*
X88900000Y-150114000D02*
X87250000Y-150114000D01*
X86650000Y-150114000D02*
X85000000Y-150114000D01*
X84400000Y-150114000D02*
X82750000Y-150114000D01*
X82150000Y-150114000D02*
X80500000Y-150114000D01*
X79900000Y-150114000D02*
X78250000Y-150114000D01*
X78232000Y-150114000D02*
X78232000Y-148464000D01*
X78232000Y-147864000D02*
X78232000Y-146214000D01*
X78232000Y-145614000D02*
X78232000Y-143964000D01*
X78232000Y-143364000D02*
X78232000Y-141714000D01*
X78232000Y-141114000D02*
X78232000Y-139464000D01*
X78232000Y-138864000D02*
X78232000Y-137214000D01*
X78232000Y-136614000D02*
X78232000Y-134964000D01*
X78232000Y-134364000D02*
X78232000Y-132714000D01*
X78232000Y-132114000D02*
X78232000Y-130464000D01*
X78232000Y-129864000D02*
X78232000Y-129413000D01*
X65532000Y-129413000D02*
X67182000Y-129413000D01*
X67782000Y-129413000D02*
X69432000Y-129413000D01*
X70032000Y-129413000D02*
X71682000Y-129413000D01*
X72282000Y-129413000D02*
X73932000Y-129413000D01*
X74532000Y-129413000D02*
X76182000Y-129413000D01*
X76200000Y-129413000D02*
X76200000Y-131063000D01*
X76200000Y-131663000D02*
X76200000Y-133313000D01*
X76200000Y-133913000D02*
X76200000Y-135563000D01*
X76200000Y-136163000D02*
X76200000Y-137813000D01*
X76200000Y-138413000D02*
X76200000Y-140063000D01*
X76200000Y-140663000D02*
X76200000Y-142313000D01*
X76200000Y-142913000D02*
X76200000Y-144563000D01*
X76200000Y-145163000D02*
X76200000Y-146813000D01*
X76200000Y-147413000D02*
X76200000Y-149063000D01*
X76200000Y-149663000D02*
X76200000Y-150114000D01*
X76200000Y-150114000D02*
X74550000Y-150114000D01*
X73950000Y-150114000D02*
X72300000Y-150114000D01*
X71700000Y-150114000D02*
X70050000Y-150114000D01*
X69450000Y-150114000D02*
X67800000Y-150114000D01*
X67200000Y-150114000D02*
X65550000Y-150114000D01*
X65532000Y-150114000D02*
X65532000Y-148464000D01*
X65532000Y-147864000D02*
X65532000Y-146214000D01*
X65532000Y-145614000D02*
X65532000Y-143964000D01*
X65532000Y-143364000D02*
X65532000Y-141714000D01*
X65532000Y-141114000D02*
X65532000Y-139464000D01*
X65532000Y-138864000D02*
X65532000Y-137214000D01*
X65532000Y-136614000D02*
X65532000Y-134964000D01*
X65532000Y-134364000D02*
X65532000Y-132714000D01*
X65532000Y-132114000D02*
X65532000Y-130464000D01*
X65532000Y-129864000D02*
X65532000Y-129413000D01*
X52832000Y-129413000D02*
X54482000Y-129413000D01*
X55082000Y-129413000D02*
X56732000Y-129413000D01*
X57332000Y-129413000D02*
X58982000Y-129413000D01*
X59582000Y-129413000D02*
X61232000Y-129413000D01*
X61832000Y-129413000D02*
X63482000Y-129413000D01*
X63500000Y-129413000D02*
X63500000Y-131063000D01*
X63500000Y-131663000D02*
X63500000Y-133313000D01*
X63500000Y-133913000D02*
X63500000Y-135563000D01*
X63500000Y-136163000D02*
X63500000Y-137813000D01*
X63500000Y-138413000D02*
X63500000Y-140063000D01*
X63500000Y-140663000D02*
X63500000Y-142313000D01*
X63500000Y-142913000D02*
X63500000Y-144563000D01*
X63500000Y-145163000D02*
X63500000Y-146813000D01*
X63500000Y-147413000D02*
X63500000Y-149063000D01*
X63500000Y-149663000D02*
X63500000Y-150114000D01*
X63500000Y-150114000D02*
X61850000Y-150114000D01*
X61250000Y-150114000D02*
X59600000Y-150114000D01*
X59000000Y-150114000D02*
X57350000Y-150114000D01*
X56750000Y-150114000D02*
X55100000Y-150114000D01*
X54500000Y-150114000D02*
X52850000Y-150114000D01*
X52832000Y-150114000D02*
X52832000Y-148464000D01*
X52832000Y-147864000D02*
X52832000Y-146214000D01*
X52832000Y-145614000D02*
X52832000Y-143964000D01*
X52832000Y-143364000D02*
X52832000Y-141714000D01*
X52832000Y-141114000D02*
X52832000Y-139464000D01*
X52832000Y-138864000D02*
X52832000Y-137214000D01*
X52832000Y-136614000D02*
X52832000Y-134964000D01*
X52832000Y-134364000D02*
X52832000Y-132714000D01*
X52832000Y-132114000D02*
X52832000Y-130464000D01*
X52832000Y-129864000D02*
X52832000Y-129413000D01*
X40132000Y-129413000D02*
X41782000Y-129413000D01*
X42382000Y-129413000D02*
X44032000Y-129413000D01*
X44632000Y-129413000D02*
X46282000Y-129413000D01*
X46882000Y-129413000D02*
X48532000Y-129413000D01*
X49132000Y-129413000D02*
X50782000Y-129413000D01*
X50800000Y-129413000D02*
X50800000Y-131063000D01*
X50800000Y-131663000D02*
X50800000Y-133313000D01*
X50800000Y-133913000D02*
X50800000Y-135563000D01*
X50800000Y-136163000D02*
X50800000Y-137813000D01*
X50800000Y-138413000D02*
X50800000Y-140063000D01*
X50800000Y-140663000D02*
X50800000Y-142313000D01*
X50800000Y-142913000D02*
X50800000Y-144563000D01*
X50800000Y-145163000D02*
X50800000Y-146813000D01*
X50800000Y-147413000D02*
X50800000Y-149063000D01*
X50800000Y-149663000D02*
X50800000Y-150114000D01*
X50800000Y-150114000D02*
X49150000Y-150114000D01*
X48550000Y-150114000D02*
X46900000Y-150114000D01*
X46300000Y-150114000D02*
X44650000Y-150114000D01*
X44050000Y-150114000D02*
X42400000Y-150114000D01*
X41800000Y-150114000D02*
X40150000Y-150114000D01*
X40132000Y-150114000D02*
X40132000Y-148464000D01*
X40132000Y-147864000D02*
X40132000Y-146214000D01*
X40132000Y-145614000D02*
X40132000Y-143964000D01*
X40132000Y-143364000D02*
X40132000Y-141714000D01*
X40132000Y-141114000D02*
X40132000Y-139464000D01*
X40132000Y-138864000D02*
X40132000Y-137214000D01*
X40132000Y-136614000D02*
X40132000Y-134964000D01*
X40132000Y-134364000D02*
X40132000Y-132714000D01*
X40132000Y-132114000D02*
X40132000Y-130464000D01*
X40132000Y-129864000D02*
X40132000Y-129413000D01*
X40132000Y-104965500D02*
X41782000Y-104965500D01*
X42382000Y-104965500D02*
X44032000Y-104965500D01*
X44632000Y-104965500D02*
X46282000Y-104965500D01*
X46882000Y-104965500D02*
X48532000Y-104965500D01*
X49132000Y-104965500D02*
X50782000Y-104965500D01*
X50800000Y-104965500D02*
X50800000Y-106615500D01*
X50800000Y-107215500D02*
X50800000Y-108865500D01*
X50800000Y-109465500D02*
X50800000Y-111115500D01*
X50800000Y-111715500D02*
X50800000Y-113365500D01*
X50800000Y-113965500D02*
X50800000Y-115615500D01*
X50800000Y-116215500D02*
X50800000Y-117865500D01*
X50800000Y-118465500D02*
X50800000Y-120115500D01*
X50800000Y-120715500D02*
X50800000Y-122365500D01*
X50800000Y-122965500D02*
X50800000Y-124615500D01*
X50800000Y-125215500D02*
X50800000Y-125666500D01*
X50800000Y-125666500D02*
X49150000Y-125666500D01*
X48550000Y-125666500D02*
X46900000Y-125666500D01*
X46300000Y-125666500D02*
X44650000Y-125666500D01*
X44050000Y-125666500D02*
X42400000Y-125666500D01*
X41800000Y-125666500D02*
X40150000Y-125666500D01*
X40132000Y-125666500D02*
X40132000Y-124016500D01*
X40132000Y-123416500D02*
X40132000Y-121766500D01*
X40132000Y-121166500D02*
X40132000Y-119516500D01*
X40132000Y-118916500D02*
X40132000Y-117266500D01*
X40132000Y-116666500D02*
X40132000Y-115016500D01*
X40132000Y-114416500D02*
X40132000Y-112766500D01*
X40132000Y-112166500D02*
X40132000Y-110516500D01*
X40132000Y-109916500D02*
X40132000Y-108266500D01*
X40132000Y-107666500D02*
X40132000Y-106016500D01*
X40132000Y-105416500D02*
X40132000Y-104965500D01*
X52832000Y-104648000D02*
X54482000Y-104648000D01*
X55082000Y-104648000D02*
X56732000Y-104648000D01*
X57332000Y-104648000D02*
X58982000Y-104648000D01*
X59582000Y-104648000D02*
X61232000Y-104648000D01*
X61832000Y-104648000D02*
X63482000Y-104648000D01*
X63500000Y-104648000D02*
X63500000Y-106298000D01*
X63500000Y-106898000D02*
X63500000Y-108548000D01*
X63500000Y-109148000D02*
X63500000Y-110798000D01*
X63500000Y-111398000D02*
X63500000Y-113048000D01*
X63500000Y-113648000D02*
X63500000Y-115298000D01*
X63500000Y-115898000D02*
X63500000Y-117548000D01*
X63500000Y-118148000D02*
X63500000Y-119798000D01*
X63500000Y-120398000D02*
X63500000Y-122048000D01*
X63500000Y-122648000D02*
X63500000Y-124298000D01*
X63500000Y-124898000D02*
X63500000Y-125349000D01*
X63500000Y-125349000D02*
X61850000Y-125349000D01*
X61250000Y-125349000D02*
X59600000Y-125349000D01*
X59000000Y-125349000D02*
X57350000Y-125349000D01*
X56750000Y-125349000D02*
X55100000Y-125349000D01*
X54500000Y-125349000D02*
X52850000Y-125349000D01*
X52832000Y-125349000D02*
X52832000Y-123699000D01*
X52832000Y-123099000D02*
X52832000Y-121449000D01*
X52832000Y-120849000D02*
X52832000Y-119199000D01*
X52832000Y-118599000D02*
X52832000Y-116949000D01*
X52832000Y-116349000D02*
X52832000Y-114699000D01*
X52832000Y-114099000D02*
X52832000Y-112449000D01*
X52832000Y-111849000D02*
X52832000Y-110199000D01*
X52832000Y-109599000D02*
X52832000Y-107949000D01*
X52832000Y-107349000D02*
X52832000Y-105699000D01*
X52832000Y-105099000D02*
X52832000Y-104648000D01*
X66802000Y-103632000D02*
X68452000Y-103632000D01*
X69052000Y-103632000D02*
X70702000Y-103632000D01*
X71302000Y-103632000D02*
X72952000Y-103632000D01*
X73552000Y-103632000D02*
X75202000Y-103632000D01*
X75802000Y-103632000D02*
X77452000Y-103632000D01*
X78052000Y-103632000D02*
X79702000Y-103632000D01*
X80302000Y-103632000D02*
X81952000Y-103632000D01*
X82552000Y-103632000D02*
X84202000Y-103632000D01*
X84802000Y-103632000D02*
X85852000Y-103632000D01*
X85852000Y-103632000D02*
X85852000Y-105282000D01*
X85852000Y-105882000D02*
X85852000Y-107532000D01*
X85852000Y-108132000D02*
X85852000Y-109782000D01*
X85852000Y-110382000D02*
X85852000Y-112032000D01*
X85852000Y-112632000D02*
X85852000Y-114282000D01*
X85852000Y-114882000D02*
X85852000Y-116532000D01*
X85852000Y-117132000D02*
X85852000Y-118782000D01*
X85852000Y-119382000D02*
X85852000Y-121032000D01*
X85852000Y-121632000D02*
X85852000Y-123282000D01*
X85852000Y-123882000D02*
X85852000Y-125222000D01*
X85852000Y-125222000D02*
X84202000Y-125222000D01*
X83602000Y-125222000D02*
X81952000Y-125222000D01*
X81352000Y-125222000D02*
X79702000Y-125222000D01*
X79102000Y-125222000D02*
X77452000Y-125222000D01*
X76852000Y-125222000D02*
X75202000Y-125222000D01*
X74602000Y-125222000D02*
X72952000Y-125222000D01*
X72352000Y-125222000D02*
X70702000Y-125222000D01*
X70102000Y-125222000D02*
X68452000Y-125222000D01*
X67852000Y-125222000D02*
X66802000Y-125222000D01*
X66802000Y-125222000D02*
X66802000Y-123572000D01*
X66802000Y-122972000D02*
X66802000Y-121322000D01*
X66802000Y-120722000D02*
X66802000Y-119072000D01*
X66802000Y-118472000D02*
X66802000Y-116822000D01*
X66802000Y-116222000D02*
X66802000Y-114572000D01*
X66802000Y-113972000D02*
X66802000Y-112322000D01*
X66802000Y-111722000D02*
X66802000Y-110072000D01*
X66802000Y-109472000D02*
X66802000Y-107822000D01*
X66802000Y-107222000D02*
X66802000Y-105572000D01*
X66802000Y-104972000D02*
X66802000Y-103632000D01*
X88900000Y-104394000D02*
X90550000Y-104394000D01*
X91150000Y-104394000D02*
X92800000Y-104394000D01*
X93400000Y-104394000D02*
X95050000Y-104394000D01*
X95650000Y-104394000D02*
X97300000Y-104394000D01*
X97900000Y-104394000D02*
X99314000Y-104394000D01*
X99314000Y-104394000D02*
X99314000Y-106044000D01*
X99314000Y-106644000D02*
X99314000Y-108294000D01*
X99314000Y-108894000D02*
X99314000Y-110544000D01*
X99314000Y-111144000D02*
X99314000Y-112794000D01*
X99314000Y-113394000D02*
X99314000Y-115044000D01*
X99314000Y-115644000D02*
X99314000Y-117294000D01*
X99314000Y-117894000D02*
X99314000Y-119544000D01*
X99314000Y-120144000D02*
X99314000Y-121794000D01*
X99314000Y-122394000D02*
X99314000Y-124044000D01*
X99314000Y-124644000D02*
X99314000Y-125222000D01*
X99314000Y-125222000D02*
X97664000Y-125222000D01*
X97064000Y-125222000D02*
X95414000Y-125222000D01*
X94814000Y-125222000D02*
X93164000Y-125222000D01*
X92564000Y-125222000D02*
X90914000Y-125222000D01*
X90314000Y-125222000D02*
X88900000Y-125222000D01*
X88900000Y-125222000D02*
X88900000Y-123572000D01*
X88900000Y-122972000D02*
X88900000Y-121322000D01*
X88900000Y-120722000D02*
X88900000Y-119072000D01*
X88900000Y-118472000D02*
X88900000Y-116822000D01*
X88900000Y-116222000D02*
X88900000Y-114572000D01*
X88900000Y-113972000D02*
X88900000Y-112322000D01*
X88900000Y-111722000D02*
X88900000Y-110072000D01*
X88900000Y-109472000D02*
X88900000Y-107822000D01*
X88900000Y-107222000D02*
X88900000Y-105572000D01*
X88900000Y-104972000D02*
X88900000Y-104394000D01*
X101854000Y-104648000D02*
X103504000Y-104648000D01*
X104104000Y-104648000D02*
X105754000Y-104648000D01*
X106354000Y-104648000D02*
X108004000Y-104648000D01*
X108604000Y-104648000D02*
X110254000Y-104648000D01*
X110854000Y-104648000D02*
X112268000Y-104648000D01*
X112268000Y-104648000D02*
X112268000Y-106298000D01*
X112268000Y-106898000D02*
X112268000Y-108548000D01*
X112268000Y-109148000D02*
X112268000Y-110798000D01*
X112268000Y-111398000D02*
X112268000Y-113048000D01*
X112268000Y-113648000D02*
X112268000Y-115298000D01*
X112268000Y-115898000D02*
X112268000Y-117548000D01*
X112268000Y-118148000D02*
X112268000Y-119798000D01*
X112268000Y-120398000D02*
X112268000Y-122048000D01*
X112268000Y-122648000D02*
X112268000Y-124298000D01*
X112268000Y-124898000D02*
X112268000Y-125476000D01*
X112268000Y-125476000D02*
X110618000Y-125476000D01*
X110018000Y-125476000D02*
X108368000Y-125476000D01*
X107768000Y-125476000D02*
X106118000Y-125476000D01*
X105518000Y-125476000D02*
X103868000Y-125476000D01*
X103268000Y-125476000D02*
X101854000Y-125476000D01*
X101854000Y-125476000D02*
X101854000Y-123826000D01*
X101854000Y-123226000D02*
X101854000Y-121576000D01*
X101854000Y-120976000D02*
X101854000Y-119326000D01*
X101854000Y-118726000D02*
X101854000Y-117076000D01*
X101854000Y-116476000D02*
X101854000Y-114826000D01*
X101854000Y-114226000D02*
X101854000Y-112576000D01*
X101854000Y-111976000D02*
X101854000Y-110326000D01*
X101854000Y-109726000D02*
X101854000Y-108076000D01*
X101854000Y-107476000D02*
X101854000Y-105826000D01*
X101854000Y-105226000D02*
X101854000Y-104648000D01*
X102616000Y-128524000D02*
X104266000Y-128524000D01*
X104866000Y-128524000D02*
X106516000Y-128524000D01*
X107116000Y-128524000D02*
X108766000Y-128524000D01*
X109366000Y-128524000D02*
X111016000Y-128524000D01*
X111616000Y-128524000D02*
X113266000Y-128524000D01*
X113866000Y-128524000D02*
X115516000Y-128524000D01*
X116116000Y-128524000D02*
X117766000Y-128524000D01*
X118366000Y-128524000D02*
X120016000Y-128524000D01*
X120616000Y-128524000D02*
X122266000Y-128524000D01*
X122866000Y-128524000D02*
X124516000Y-128524000D01*
X125116000Y-128524000D02*
X126746000Y-128524000D01*
X126746000Y-128524000D02*
X126746000Y-130174000D01*
X126746000Y-130774000D02*
X126746000Y-132424000D01*
X126746000Y-133024000D02*
X126746000Y-134674000D01*
X126746000Y-135274000D02*
X126746000Y-136924000D01*
X126746000Y-137524000D02*
X126746000Y-139174000D01*
X126746000Y-139774000D02*
X126746000Y-141424000D01*
X126746000Y-142024000D02*
X126746000Y-143674000D01*
X126746000Y-144274000D02*
X126746000Y-145924000D01*
X126746000Y-146524000D02*
X126746000Y-148174000D01*
X126746000Y-148774000D02*
X126746000Y-150424000D01*
X126746000Y-151024000D02*
X126746000Y-152654000D01*
X126746000Y-152654000D02*
X125096000Y-152654000D01*
X124496000Y-152654000D02*
X122846000Y-152654000D01*
X122246000Y-152654000D02*
X120596000Y-152654000D01*
X119996000Y-152654000D02*
X118346000Y-152654000D01*
X117746000Y-152654000D02*
X116096000Y-152654000D01*
X115496000Y-152654000D02*
X113846000Y-152654000D01*
X113246000Y-152654000D02*
X111596000Y-152654000D01*
X110996000Y-152654000D02*
X109346000Y-152654000D01*
X108746000Y-152654000D02*
X107096000Y-152654000D01*
X106496000Y-152654000D02*
X104846000Y-152654000D01*
X104246000Y-152654000D02*
X102616000Y-152654000D01*
X102616000Y-152654000D02*
X102616000Y-151004000D01*
X102616000Y-150404000D02*
X102616000Y-148754000D01*
X102616000Y-148154000D02*
X102616000Y-146504000D01*
X102616000Y-145904000D02*
X102616000Y-144254000D01*
X102616000Y-143654000D02*
X102616000Y-142004000D01*
X102616000Y-141404000D02*
X102616000Y-139754000D01*
X102616000Y-139154000D02*
X102616000Y-137504000D01*
X102616000Y-136904000D02*
X102616000Y-135254000D01*
X102616000Y-134654000D02*
X102616000Y-133004000D01*
X102616000Y-132404000D02*
X102616000Y-130754000D01*
X102616000Y-130154000D02*
X102616000Y-128524000D01*
X103632000Y-78486000D02*
X105282000Y-78486000D01*
X105882000Y-78486000D02*
X107532000Y-78486000D01*
X108132000Y-78486000D02*
X109782000Y-78486000D01*
X110382000Y-78486000D02*
X112032000Y-78486000D01*
X112632000Y-78486000D02*
X114282000Y-78486000D01*
X114882000Y-78486000D02*
X116532000Y-78486000D01*
X117132000Y-78486000D02*
X118782000Y-78486000D01*
X119382000Y-78486000D02*
X121032000Y-78486000D01*
X121632000Y-78486000D02*
X123282000Y-78486000D01*
X123882000Y-78486000D02*
X125532000Y-78486000D01*
X126132000Y-78486000D02*
X127782000Y-78486000D01*
X128382000Y-78486000D02*
X130032000Y-78486000D01*
X130632000Y-78486000D02*
X132282000Y-78486000D01*
X132882000Y-78486000D02*
X134532000Y-78486000D01*
X135132000Y-78486000D02*
X136782000Y-78486000D01*
X137382000Y-78486000D02*
X139032000Y-78486000D01*
X139632000Y-78486000D02*
X141282000Y-78486000D01*
X141882000Y-78486000D02*
X143532000Y-78486000D01*
X144132000Y-78486000D02*
X145782000Y-78486000D01*
X146382000Y-78486000D02*
X148032000Y-78486000D01*
X148632000Y-78486000D02*
X150282000Y-78486000D01*
X150882000Y-78486000D02*
X152532000Y-78486000D01*
X153132000Y-78486000D02*
X154782000Y-78486000D01*
X155382000Y-78486000D02*
X157032000Y-78486000D01*
X157632000Y-78486000D02*
X159282000Y-78486000D01*
X159882000Y-78486000D02*
X160528000Y-78486000D01*
X160528000Y-78486000D02*
X160528000Y-80136000D01*
X160528000Y-80736000D02*
X160528000Y-82386000D01*
X160528000Y-82986000D02*
X160528000Y-84636000D01*
X160528000Y-85236000D02*
X160528000Y-86886000D01*
X160528000Y-87122000D02*
X158878000Y-87122000D01*
X158278000Y-87122000D02*
X156628000Y-87122000D01*
X156028000Y-87122000D02*
X154378000Y-87122000D01*
X153778000Y-87122000D02*
X152128000Y-87122000D01*
X151528000Y-87122000D02*
X149878000Y-87122000D01*
X149278000Y-87122000D02*
X147628000Y-87122000D01*
X147028000Y-87122000D02*
X145378000Y-87122000D01*
X144778000Y-87122000D02*
X143128000Y-87122000D01*
X142528000Y-87122000D02*
X140878000Y-87122000D01*
X140278000Y-87122000D02*
X138628000Y-87122000D01*
X138028000Y-87122000D02*
X136378000Y-87122000D01*
X135778000Y-87122000D02*
X134128000Y-87122000D01*
X133528000Y-87122000D02*
X131878000Y-87122000D01*
X131278000Y-87122000D02*
X129628000Y-87122000D01*
X129028000Y-87122000D02*
X127378000Y-87122000D01*
X126778000Y-87122000D02*
X125128000Y-87122000D01*
X124528000Y-87122000D02*
X122878000Y-87122000D01*
X122278000Y-87122000D02*
X120628000Y-87122000D01*
X120028000Y-87122000D02*
X118378000Y-87122000D01*
X117778000Y-87122000D02*
X116128000Y-87122000D01*
X115528000Y-87122000D02*
X113878000Y-87122000D01*
X113278000Y-87122000D02*
X111628000Y-87122000D01*
X111028000Y-87122000D02*
X109378000Y-87122000D01*
X108778000Y-87122000D02*
X107128000Y-87122000D01*
X106528000Y-87122000D02*
X104878000Y-87122000D01*
X104278000Y-87122000D02*
X103632000Y-87122000D01*
X103632000Y-87122000D02*
X103632000Y-85472000D01*
X103632000Y-84872000D02*
X103632000Y-83222000D01*
X103632000Y-82622000D02*
X103632000Y-80972000D01*
X103632000Y-80372000D02*
X103632000Y-78722000D01*
X34798000Y-78486000D02*
X36448000Y-78486000D01*
X37048000Y-78486000D02*
X38698000Y-78486000D01*
X39298000Y-78486000D02*
X40948000Y-78486000D01*
X41548000Y-78486000D02*
X43198000Y-78486000D01*
X43798000Y-78486000D02*
X45448000Y-78486000D01*
X46048000Y-78486000D02*
X47698000Y-78486000D01*
X48298000Y-78486000D02*
X49948000Y-78486000D01*
X50548000Y-78486000D02*
X52198000Y-78486000D01*
X52798000Y-78486000D02*
X54448000Y-78486000D01*
X55048000Y-78486000D02*
X56698000Y-78486000D01*
X57298000Y-78486000D02*
X58948000Y-78486000D01*
X59548000Y-78486000D02*
X61198000Y-78486000D01*
X61798000Y-78486000D02*
X63448000Y-78486000D01*
X64048000Y-78486000D02*
X65698000Y-78486000D01*
X66298000Y-78486000D02*
X67948000Y-78486000D01*
X68548000Y-78486000D02*
X70198000Y-78486000D01*
X70798000Y-78486000D02*
X72448000Y-78486000D01*
X73048000Y-78486000D02*
X74698000Y-78486000D01*
X75298000Y-78486000D02*
X76948000Y-78486000D01*
X77548000Y-78486000D02*
X79198000Y-78486000D01*
X79798000Y-78486000D02*
X81448000Y-78486000D01*
X82048000Y-78486000D02*
X83698000Y-78486000D01*
X84298000Y-78486000D02*
X85948000Y-78486000D01*
X86548000Y-78486000D02*
X88198000Y-78486000D01*
X88798000Y-78486000D02*
X90448000Y-78486000D01*
X91048000Y-78486000D02*
X91694000Y-78486000D01*
X91694000Y-78486000D02*
X91694000Y-80136000D01*
X91694000Y-80736000D02*
X91694000Y-82386000D01*
X91694000Y-82986000D02*
X91694000Y-84636000D01*
X91694000Y-85236000D02*
X91694000Y-86886000D01*
X91694000Y-87122000D02*
X90044000Y-87122000D01*
X89444000Y-87122000D02*
X87794000Y-87122000D01*
X87194000Y-87122000D02*
X85544000Y-87122000D01*
X84944000Y-87122000D02*
X83294000Y-87122000D01*
X82694000Y-87122000D02*
X81044000Y-87122000D01*
X80444000Y-87122000D02*
X78794000Y-87122000D01*
X78194000Y-87122000D02*
X76544000Y-87122000D01*
X75944000Y-87122000D02*
X74294000Y-87122000D01*
X73694000Y-87122000D02*
X72044000Y-87122000D01*
X71444000Y-87122000D02*
X69794000Y-87122000D01*
X69194000Y-87122000D02*
X67544000Y-87122000D01*
X66944000Y-87122000D02*
X65294000Y-87122000D01*
X64694000Y-87122000D02*
X63044000Y-87122000D01*
X62444000Y-87122000D02*
X60794000Y-87122000D01*
X60194000Y-87122000D02*
X58544000Y-87122000D01*
X57944000Y-87122000D02*
X56294000Y-87122000D01*
X55694000Y-87122000D02*
X54044000Y-87122000D01*
X53444000Y-87122000D02*
X51794000Y-87122000D01*
X51194000Y-87122000D02*
X49544000Y-87122000D01*
X48944000Y-87122000D02*
X47294000Y-87122000D01*
X46694000Y-87122000D02*
X45044000Y-87122000D01*
X44444000Y-87122000D02*
X42794000Y-87122000D01*
X42194000Y-87122000D02*
X40544000Y-87122000D01*
X39944000Y-87122000D02*
X38294000Y-87122000D01*
X37694000Y-87122000D02*
X36044000Y-87122000D01*
X35444000Y-87122000D02*
X34798000Y-87122000D01*
X34798000Y-87122000D02*
X34798000Y-85472000D01*
X34798000Y-84872000D02*
X34798000Y-83222000D01*
X34798000Y-82622000D02*
X34798000Y-80972000D01*
X34798000Y-80372000D02*
X34798000Y-78722000D01*
X65532000Y-90170000D02*
X67182000Y-90170000D01*
X67782000Y-90170000D02*
X69432000Y-90170000D01*
X70032000Y-90170000D02*
X71682000Y-90170000D01*
X72282000Y-90170000D02*
X73932000Y-90170000D01*
X74532000Y-90170000D02*
X76182000Y-90170000D01*
X76782000Y-90170000D02*
X78432000Y-90170000D01*
X79032000Y-90170000D02*
X80682000Y-90170000D01*
X81282000Y-90170000D02*
X82932000Y-90170000D01*
X83532000Y-90170000D02*
X85182000Y-90170000D01*
X85782000Y-90170000D02*
X87432000Y-90170000D01*
X88032000Y-90170000D02*
X89682000Y-90170000D01*
X90282000Y-90170000D02*
X91932000Y-90170000D01*
X92532000Y-90170000D02*
X93218000Y-90170000D01*
X93218000Y-90170000D02*
X93218000Y-91820000D01*
X93218000Y-92420000D02*
X93218000Y-94070000D01*
X93218000Y-94670000D02*
X93218000Y-96320000D01*
X93218000Y-96920000D02*
X93218000Y-98570000D01*
X93218000Y-99170000D02*
X93218000Y-100584000D01*
X93218000Y-100584000D02*
X91568000Y-100584000D01*
X90968000Y-100584000D02*
X89318000Y-100584000D01*
X88718000Y-100584000D02*
X87068000Y-100584000D01*
X86468000Y-100584000D02*
X84818000Y-100584000D01*
X84218000Y-100584000D02*
X82568000Y-100584000D01*
X81968000Y-100584000D02*
X80318000Y-100584000D01*
X79718000Y-100584000D02*
X78068000Y-100584000D01*
X77468000Y-100584000D02*
X75818000Y-100584000D01*
X75218000Y-100584000D02*
X73568000Y-100584000D01*
X72968000Y-100584000D02*
X71318000Y-100584000D01*
X70718000Y-100584000D02*
X69068000Y-100584000D01*
X68468000Y-100584000D02*
X66818000Y-100584000D01*
X66218000Y-100584000D02*
X65532000Y-100584000D01*
X65532000Y-100584000D02*
X65532000Y-98934000D01*
X65532000Y-98334000D02*
X65532000Y-96684000D01*
X65532000Y-96084000D02*
X65532000Y-94434000D01*
X65532000Y-93834000D02*
X65532000Y-92184000D01*
X65532000Y-91584000D02*
X65532000Y-90170000D01*
X98806000Y-90297000D02*
X100456000Y-90297000D01*
X101056000Y-90297000D02*
X102706000Y-90297000D01*
X103306000Y-90297000D02*
X104956000Y-90297000D01*
X105556000Y-90297000D02*
X107206000Y-90297000D01*
X107806000Y-90297000D02*
X109456000Y-90297000D01*
X110056000Y-90297000D02*
X111706000Y-90297000D01*
X112306000Y-90297000D02*
X113956000Y-90297000D01*
X114556000Y-90297000D02*
X116206000Y-90297000D01*
X116806000Y-90297000D02*
X118456000Y-90297000D01*
X119056000Y-90297000D02*
X120706000Y-90297000D01*
X121306000Y-90297000D02*
X122956000Y-90297000D01*
X123556000Y-90297000D02*
X125206000Y-90297000D01*
X125806000Y-90297000D02*
X126492000Y-90297000D01*
X126492000Y-90297000D02*
X126492000Y-91947000D01*
X126492000Y-92547000D02*
X126492000Y-94197000D01*
X126492000Y-94797000D02*
X126492000Y-96447000D01*
X126492000Y-97047000D02*
X126492000Y-98697000D01*
X126492000Y-99297000D02*
X126492000Y-100711000D01*
X126492000Y-100711000D02*
X124842000Y-100711000D01*
X124242000Y-100711000D02*
X122592000Y-100711000D01*
X121992000Y-100711000D02*
X120342000Y-100711000D01*
X119742000Y-100711000D02*
X118092000Y-100711000D01*
X117492000Y-100711000D02*
X115842000Y-100711000D01*
X115242000Y-100711000D02*
X113592000Y-100711000D01*
X112992000Y-100711000D02*
X111342000Y-100711000D01*
X110742000Y-100711000D02*
X109092000Y-100711000D01*
X108492000Y-100711000D02*
X106842000Y-100711000D01*
X106242000Y-100711000D02*
X104592000Y-100711000D01*
X103992000Y-100711000D02*
X102342000Y-100711000D01*
X101742000Y-100711000D02*
X100092000Y-100711000D01*
X99492000Y-100711000D02*
X98806000Y-100711000D01*
X98806000Y-100711000D02*
X98806000Y-99061000D01*
X98806000Y-98461000D02*
X98806000Y-96811000D01*
X98806000Y-96211000D02*
X98806000Y-94561000D01*
X98806000Y-93961000D02*
X98806000Y-92311000D01*
X98806000Y-91711000D02*
X98806000Y-90297000D01*
X132080000Y-90170000D02*
X133730000Y-90170000D01*
X134330000Y-90170000D02*
X135980000Y-90170000D01*
X136580000Y-90170000D02*
X138230000Y-90170000D01*
X138830000Y-90170000D02*
X140480000Y-90170000D01*
X141080000Y-90170000D02*
X142730000Y-90170000D01*
X143330000Y-90170000D02*
X144980000Y-90170000D01*
X145580000Y-90170000D02*
X147230000Y-90170000D01*
X147830000Y-90170000D02*
X149480000Y-90170000D01*
X150080000Y-90170000D02*
X151730000Y-90170000D01*
X152330000Y-90170000D02*
X153980000Y-90170000D01*
X154580000Y-90170000D02*
X156230000Y-90170000D01*
X156830000Y-90170000D02*
X158480000Y-90170000D01*
X159080000Y-90170000D02*
X159766000Y-90170000D01*
X159766000Y-90170000D02*
X159766000Y-91820000D01*
X159766000Y-92420000D02*
X159766000Y-94070000D01*
X159766000Y-94670000D02*
X159766000Y-96320000D01*
X159766000Y-96920000D02*
X159766000Y-98570000D01*
X159766000Y-99170000D02*
X159766000Y-100584000D01*
X159766000Y-100584000D02*
X158116000Y-100584000D01*
X157516000Y-100584000D02*
X155866000Y-100584000D01*
X155266000Y-100584000D02*
X153616000Y-100584000D01*
X153016000Y-100584000D02*
X151366000Y-100584000D01*
X150766000Y-100584000D02*
X149116000Y-100584000D01*
X148516000Y-100584000D02*
X146866000Y-100584000D01*
X146266000Y-100584000D02*
X144616000Y-100584000D01*
X144016000Y-100584000D02*
X142366000Y-100584000D01*
X141766000Y-100584000D02*
X140116000Y-100584000D01*
X139516000Y-100584000D02*
X137866000Y-100584000D01*
X137266000Y-100584000D02*
X135616000Y-100584000D01*
X135016000Y-100584000D02*
X133366000Y-100584000D01*
X132766000Y-100584000D02*
X132080000Y-100584000D01*
X132080000Y-100584000D02*
X132080000Y-98934000D01*
X132080000Y-98334000D02*
X132080000Y-96684000D01*
X132080000Y-96084000D02*
X132080000Y-94434000D01*
X132080000Y-93834000D02*
X132080000Y-92184000D01*
X132080000Y-91584000D02*
X132080000Y-90170000D01*
X171196000Y-96266000D02*
X172846000Y-96266000D01*
X173446000Y-96266000D02*
X175096000Y-96266000D01*
X175696000Y-96266000D02*
X177346000Y-96266000D01*
X177946000Y-96266000D02*
X179596000Y-96266000D01*
X180196000Y-96266000D02*
X181846000Y-96266000D01*
X182446000Y-96266000D02*
X184096000Y-96266000D01*
X184696000Y-96266000D02*
X186346000Y-96266000D01*
X186946000Y-96266000D02*
X188596000Y-96266000D01*
X189196000Y-96266000D02*
X189992000Y-96266000D01*
X189992000Y-96266000D02*
X189992000Y-97916000D01*
X189992000Y-98516000D02*
X189992000Y-100166000D01*
X189992000Y-100766000D02*
X189992000Y-102416000D01*
X189992000Y-103016000D02*
X189992000Y-104666000D01*
X189992000Y-105266000D02*
X189992000Y-106916000D01*
X189992000Y-107516000D02*
X189992000Y-109166000D01*
X189992000Y-109766000D02*
X189992000Y-111416000D01*
X189992000Y-112016000D02*
X189992000Y-113666000D01*
X189992000Y-114266000D02*
X189992000Y-115916000D01*
X189992000Y-116516000D02*
X189992000Y-117602000D01*
X189992000Y-117602000D02*
X188342000Y-117602000D01*
X187742000Y-117602000D02*
X186092000Y-117602000D01*
X185492000Y-117602000D02*
X183842000Y-117602000D01*
X183242000Y-117602000D02*
X181592000Y-117602000D01*
X180992000Y-117602000D02*
X179342000Y-117602000D01*
X178742000Y-117602000D02*
X177092000Y-117602000D01*
X176492000Y-117602000D02*
X174842000Y-117602000D01*
X174242000Y-117602000D02*
X172592000Y-117602000D01*
X171992000Y-117602000D02*
X171196000Y-117602000D01*
X171196000Y-117602000D02*
X171196000Y-115952000D01*
X171196000Y-115352000D02*
X171196000Y-113702000D01*
X171196000Y-113102000D02*
X171196000Y-111452000D01*
X171196000Y-110852000D02*
X171196000Y-109202000D01*
X171196000Y-108602000D02*
X171196000Y-106952000D01*
X171196000Y-106352000D02*
X171196000Y-104702000D01*
X171196000Y-104102000D02*
X171196000Y-102452000D01*
X171196000Y-101852000D02*
X171196000Y-100202000D01*
X171196000Y-99602000D02*
X171196000Y-97952000D01*
X171196000Y-97352000D02*
X171196000Y-96266000D01*
X191389000Y-96266000D02*
X193039000Y-96266000D01*
X193639000Y-96266000D02*
X195289000Y-96266000D01*
X195889000Y-96266000D02*
X197539000Y-96266000D01*
X198139000Y-96266000D02*
X199789000Y-96266000D01*
X200389000Y-96266000D02*
X202039000Y-96266000D01*
X202057000Y-96266000D02*
X202057000Y-97916000D01*
X202057000Y-98516000D02*
X202057000Y-100166000D01*
X202057000Y-100766000D02*
X202057000Y-102416000D01*
X202057000Y-103016000D02*
X202057000Y-104666000D01*
X202057000Y-105266000D02*
X202057000Y-106916000D01*
X202057000Y-107516000D02*
X202057000Y-109166000D01*
X202057000Y-109766000D02*
X202057000Y-111416000D01*
X202057000Y-112016000D02*
X202057000Y-113666000D01*
X202057000Y-114266000D02*
X202057000Y-115916000D01*
X202057000Y-116516000D02*
X202057000Y-117094000D01*
X202057000Y-117094000D02*
X200407000Y-117094000D01*
X199807000Y-117094000D02*
X198157000Y-117094000D01*
X197557000Y-117094000D02*
X195907000Y-117094000D01*
X195307000Y-117094000D02*
X193657000Y-117094000D01*
X193057000Y-117094000D02*
X191407000Y-117094000D01*
X191389000Y-117094000D02*
X191389000Y-115444000D01*
X191389000Y-114844000D02*
X191389000Y-113194000D01*
X191389000Y-112594000D02*
X191389000Y-110944000D01*
X191389000Y-110344000D02*
X191389000Y-108694000D01*
X191389000Y-108094000D02*
X191389000Y-106444000D01*
X191389000Y-105844000D02*
X191389000Y-104194000D01*
X191389000Y-103594000D02*
X191389000Y-101944000D01*
X191389000Y-101344000D02*
X191389000Y-99694000D01*
X191389000Y-99094000D02*
X191389000Y-97444000D01*
X191389000Y-96844000D02*
X191389000Y-96266000D01*
X205232000Y-96266000D02*
X206882000Y-96266000D01*
X207482000Y-96266000D02*
X209132000Y-96266000D01*
X209732000Y-96266000D02*
X211382000Y-96266000D01*
X211982000Y-96266000D02*
X213632000Y-96266000D01*
X214232000Y-96266000D02*
X215882000Y-96266000D01*
X216154000Y-96266000D02*
X216154000Y-97916000D01*
X216154000Y-98516000D02*
X216154000Y-100166000D01*
X216154000Y-100766000D02*
X216154000Y-102416000D01*
X216154000Y-103016000D02*
X216154000Y-104666000D01*
X216154000Y-105266000D02*
X216154000Y-106916000D01*
X216154000Y-107516000D02*
X216154000Y-109166000D01*
X216154000Y-109766000D02*
X216154000Y-111416000D01*
X216154000Y-112016000D02*
X216154000Y-113666000D01*
X216154000Y-114266000D02*
X216154000Y-115916000D01*
X216154000Y-116516000D02*
X216154000Y-118166000D01*
X216154000Y-118766000D02*
X216154000Y-120416000D01*
X216154000Y-121016000D02*
X216154000Y-122666000D01*
X216154000Y-123266000D02*
X216154000Y-123952000D01*
X216154000Y-123952000D02*
X214504000Y-123952000D01*
X213904000Y-123952000D02*
X212254000Y-123952000D01*
X211654000Y-123952000D02*
X210004000Y-123952000D01*
X209404000Y-123952000D02*
X207754000Y-123952000D01*
X207154000Y-123952000D02*
X205504000Y-123952000D01*
X205232000Y-123952000D02*
X205232000Y-122302000D01*
X205232000Y-121702000D02*
X205232000Y-120052000D01*
X205232000Y-119452000D02*
X205232000Y-117802000D01*
X205232000Y-117202000D02*
X205232000Y-115552000D01*
X205232000Y-114952000D02*
X205232000Y-113302000D01*
X205232000Y-112702000D02*
X205232000Y-111052000D01*
X205232000Y-110452000D02*
X205232000Y-108802000D01*
X205232000Y-108202000D02*
X205232000Y-106552000D01*
X205232000Y-105952000D02*
X205232000Y-104302000D01*
X205232000Y-103702000D02*
X205232000Y-102052000D01*
X205232000Y-101452000D02*
X205232000Y-99802000D01*
X205232000Y-99202000D02*
X205232000Y-97552000D01*
X205232000Y-96952000D02*
X205232000Y-96266000D01*
X218440000Y-91440000D02*
X220090000Y-91440000D01*
X220690000Y-91440000D02*
X222340000Y-91440000D01*
X222940000Y-91440000D02*
X224590000Y-91440000D01*
X225190000Y-91440000D02*
X226840000Y-91440000D01*
X227440000Y-91440000D02*
X229090000Y-91440000D01*
X229690000Y-91440000D02*
X231340000Y-91440000D01*
X231940000Y-91440000D02*
X233590000Y-91440000D01*
X234190000Y-91440000D02*
X235840000Y-91440000D01*
X236440000Y-91440000D02*
X236728000Y-91440000D01*
X236728000Y-91440000D02*
X236728000Y-93090000D01*
X236728000Y-93690000D02*
X236728000Y-95340000D01*
X236728000Y-95940000D02*
X236728000Y-97590000D01*
X236728000Y-98190000D02*
X236728000Y-99840000D01*
X236728000Y-100440000D02*
X236728000Y-102090000D01*
X236728000Y-102690000D02*
X236728000Y-104340000D01*
X236728000Y-104940000D02*
X236728000Y-106590000D01*
X236728000Y-107190000D02*
X236728000Y-108840000D01*
X236728000Y-109440000D02*
X236728000Y-111090000D01*
X236728000Y-111690000D02*
X236728000Y-113340000D01*
X236728000Y-113940000D02*
X236728000Y-115590000D01*
X236728000Y-116190000D02*
X236728000Y-117840000D01*
X236728000Y-118440000D02*
X236728000Y-120090000D01*
X236728000Y-120690000D02*
X236728000Y-122340000D01*
X236728000Y-122940000D02*
X236728000Y-124590000D01*
X236728000Y-124777500D02*
X235078000Y-124777500D01*
X234478000Y-124777500D02*
X232828000Y-124777500D01*
X232228000Y-124777500D02*
X230578000Y-124777500D01*
X229978000Y-124777500D02*
X228328000Y-124777500D01*
X227728000Y-124777500D02*
X226078000Y-124777500D01*
X225478000Y-124777500D02*
X223828000Y-124777500D01*
X223228000Y-124777500D02*
X221578000Y-124777500D01*
X220978000Y-124777500D02*
X219328000Y-124777500D01*
X218728000Y-124777500D02*
X218440000Y-124777500D01*
X218440000Y-124777500D02*
X218440000Y-123127500D01*
X218440000Y-122527500D02*
X218440000Y-120877500D01*
X218440000Y-120277500D02*
X218440000Y-118627500D01*
X218440000Y-118027500D02*
X218440000Y-116377500D01*
X218440000Y-115777500D02*
X218440000Y-114127500D01*
X218440000Y-113527500D02*
X218440000Y-111877500D01*
X218440000Y-111277500D02*
X218440000Y-109627500D01*
X218440000Y-109027500D02*
X218440000Y-107377500D01*
X218440000Y-106777500D02*
X218440000Y-105127500D01*
X218440000Y-104527500D02*
X218440000Y-102877500D01*
X218440000Y-102277500D02*
X218440000Y-100627500D01*
X218440000Y-100027500D02*
X218440000Y-98377500D01*
X218440000Y-97777500D02*
X218440000Y-96127500D01*
X218440000Y-95527500D02*
X218440000Y-93877500D01*
X218440000Y-93277500D02*
X218440000Y-91627500D01*
X239522000Y-104140000D02*
X241172000Y-104140000D01*
X241772000Y-104140000D02*
X243422000Y-104140000D01*
X244022000Y-104140000D02*
X245672000Y-104140000D01*
X246272000Y-104140000D02*
X247922000Y-104140000D01*
X248522000Y-104140000D02*
X250172000Y-104140000D01*
X250190000Y-104140000D02*
X250190000Y-105790000D01*
X250190000Y-106390000D02*
X250190000Y-108040000D01*
X250190000Y-108640000D02*
X250190000Y-110290000D01*
X250190000Y-110890000D02*
X250190000Y-112540000D01*
X250190000Y-113140000D02*
X250190000Y-114790000D01*
X250190000Y-115390000D02*
X250190000Y-117040000D01*
X250190000Y-117640000D02*
X250190000Y-119290000D01*
X250190000Y-119890000D02*
X250190000Y-121540000D01*
X250190000Y-122140000D02*
X250190000Y-123790000D01*
X250190000Y-124390000D02*
X250190000Y-125095000D01*
X250190000Y-125095000D02*
X248540000Y-125095000D01*
X247940000Y-125095000D02*
X246290000Y-125095000D01*
X245690000Y-125095000D02*
X244040000Y-125095000D01*
X243440000Y-125095000D02*
X241790000Y-125095000D01*
X241190000Y-125095000D02*
X239540000Y-125095000D01*
X239522000Y-125095000D02*
X239522000Y-123445000D01*
X239522000Y-122845000D02*
X239522000Y-121195000D01*
X239522000Y-120595000D02*
X239522000Y-118945000D01*
X239522000Y-118345000D02*
X239522000Y-116695000D01*
X239522000Y-116095000D02*
X239522000Y-114445000D01*
X239522000Y-113845000D02*
X239522000Y-112195000D01*
X239522000Y-111595000D02*
X239522000Y-109945000D01*
X239522000Y-109345000D02*
X239522000Y-107695000D01*
X239522000Y-107095000D02*
X239522000Y-105445000D01*
X239522000Y-104845000D02*
X239522000Y-104140000D01*
X231902000Y-129984500D02*
X233552000Y-129984500D01*
X234152000Y-129984500D02*
X235802000Y-129984500D01*
X236402000Y-129984500D02*
X238052000Y-129984500D01*
X238652000Y-129984500D02*
X240302000Y-129984500D01*
X240902000Y-129984500D02*
X242552000Y-129984500D01*
X242570000Y-129984500D02*
X242570000Y-131634500D01*
X242570000Y-132234500D02*
X242570000Y-133884500D01*
X242570000Y-134484500D02*
X242570000Y-136134500D01*
X242570000Y-136734500D02*
X242570000Y-138384500D01*
X242570000Y-138984500D02*
X242570000Y-140634500D01*
X242570000Y-141234500D02*
X242570000Y-142884500D01*
X242570000Y-143484500D02*
X242570000Y-145134500D01*
X242570000Y-145734500D02*
X242570000Y-147384500D01*
X242570000Y-147984500D02*
X242570000Y-149634500D01*
X242570000Y-150234500D02*
X242570000Y-150939500D01*
X242570000Y-150939500D02*
X240920000Y-150939500D01*
X240320000Y-150939500D02*
X238670000Y-150939500D01*
X238070000Y-150939500D02*
X236420000Y-150939500D01*
X235820000Y-150939500D02*
X234170000Y-150939500D01*
X233570000Y-150939500D02*
X231920000Y-150939500D01*
X231902000Y-150939500D02*
X231902000Y-149289500D01*
X231902000Y-148689500D02*
X231902000Y-147039500D01*
X231902000Y-146439500D02*
X231902000Y-144789500D01*
X231902000Y-144189500D02*
X231902000Y-142539500D01*
X231902000Y-141939500D02*
X231902000Y-140289500D01*
X231902000Y-139689500D02*
X231902000Y-138039500D01*
X231902000Y-137439500D02*
X231902000Y-135789500D01*
X231902000Y-135189500D02*
X231902000Y-133539500D01*
X231902000Y-132939500D02*
X231902000Y-131289500D01*
X231902000Y-130689500D02*
X231902000Y-129984500D01*
X218694000Y-130048000D02*
X220344000Y-130048000D01*
X220944000Y-130048000D02*
X222594000Y-130048000D01*
X223194000Y-130048000D02*
X224844000Y-130048000D01*
X225444000Y-130048000D02*
X227094000Y-130048000D01*
X227694000Y-130048000D02*
X229344000Y-130048000D01*
X229362000Y-130048000D02*
X229362000Y-131698000D01*
X229362000Y-132298000D02*
X229362000Y-133948000D01*
X229362000Y-134548000D02*
X229362000Y-136198000D01*
X229362000Y-136798000D02*
X229362000Y-138448000D01*
X229362000Y-139048000D02*
X229362000Y-140698000D01*
X229362000Y-141298000D02*
X229362000Y-142948000D01*
X229362000Y-143548000D02*
X229362000Y-145198000D01*
X229362000Y-145798000D02*
X229362000Y-147448000D01*
X229362000Y-148048000D02*
X229362000Y-149698000D01*
X229362000Y-150298000D02*
X229362000Y-151003000D01*
X229362000Y-151003000D02*
X227712000Y-151003000D01*
X227112000Y-151003000D02*
X225462000Y-151003000D01*
X224862000Y-151003000D02*
X223212000Y-151003000D01*
X222612000Y-151003000D02*
X220962000Y-151003000D01*
X220362000Y-151003000D02*
X218712000Y-151003000D01*
X218694000Y-151003000D02*
X218694000Y-149353000D01*
X218694000Y-148753000D02*
X218694000Y-147103000D01*
X218694000Y-146503000D02*
X218694000Y-144853000D01*
X218694000Y-144253000D02*
X218694000Y-142603000D01*
X218694000Y-142003000D02*
X218694000Y-140353000D01*
X218694000Y-139753000D02*
X218694000Y-138103000D01*
X218694000Y-137503000D02*
X218694000Y-135853000D01*
X218694000Y-135253000D02*
X218694000Y-133603000D01*
X218694000Y-133003000D02*
X218694000Y-131353000D01*
X218694000Y-130753000D02*
X218694000Y-130048000D01*
X205232000Y-130048000D02*
X206882000Y-130048000D01*
X207482000Y-130048000D02*
X209132000Y-130048000D01*
X209732000Y-130048000D02*
X211382000Y-130048000D01*
X211982000Y-130048000D02*
X213632000Y-130048000D01*
X214232000Y-130048000D02*
X215882000Y-130048000D01*
X215900000Y-130048000D02*
X215900000Y-131698000D01*
X215900000Y-132298000D02*
X215900000Y-133948000D01*
X215900000Y-134548000D02*
X215900000Y-136198000D01*
X215900000Y-136798000D02*
X215900000Y-138448000D01*
X215900000Y-139048000D02*
X215900000Y-140698000D01*
X215900000Y-141298000D02*
X215900000Y-142948000D01*
X215900000Y-143548000D02*
X215900000Y-145198000D01*
X215900000Y-145798000D02*
X215900000Y-147448000D01*
X215900000Y-148048000D02*
X215900000Y-149698000D01*
X215900000Y-150298000D02*
X215900000Y-151003000D01*
X215900000Y-151003000D02*
X214250000Y-151003000D01*
X213650000Y-151003000D02*
X212000000Y-151003000D01*
X211400000Y-151003000D02*
X209750000Y-151003000D01*
X209150000Y-151003000D02*
X207500000Y-151003000D01*
X206900000Y-151003000D02*
X205250000Y-151003000D01*
X205232000Y-151003000D02*
X205232000Y-149353000D01*
X205232000Y-148753000D02*
X205232000Y-147103000D01*
X205232000Y-146503000D02*
X205232000Y-144853000D01*
X205232000Y-144253000D02*
X205232000Y-142603000D01*
X205232000Y-142003000D02*
X205232000Y-140353000D01*
X205232000Y-139753000D02*
X205232000Y-138103000D01*
X205232000Y-137503000D02*
X205232000Y-135853000D01*
X205232000Y-135253000D02*
X205232000Y-133603000D01*
X205232000Y-133003000D02*
X205232000Y-131353000D01*
X205232000Y-130753000D02*
X205232000Y-130048000D01*
X191516000Y-123571000D02*
X193166000Y-123571000D01*
X193766000Y-123571000D02*
X195416000Y-123571000D01*
X196016000Y-123571000D02*
X197666000Y-123571000D01*
X198266000Y-123571000D02*
X199916000Y-123571000D01*
X200516000Y-123571000D02*
X201930000Y-123571000D01*
X201930000Y-123571000D02*
X201930000Y-125221000D01*
X201930000Y-125821000D02*
X201930000Y-127471000D01*
X201930000Y-128071000D02*
X201930000Y-129721000D01*
X201930000Y-130321000D02*
X201930000Y-131971000D01*
X201930000Y-132571000D02*
X201930000Y-134221000D01*
X201930000Y-134821000D02*
X201930000Y-136471000D01*
X201930000Y-137071000D02*
X201930000Y-138721000D01*
X201930000Y-139321000D02*
X201930000Y-140971000D01*
X201930000Y-141571000D02*
X201930000Y-143221000D01*
X201930000Y-143821000D02*
X201930000Y-145471000D01*
X201930000Y-146071000D02*
X201930000Y-147721000D01*
X201930000Y-148321000D02*
X201930000Y-149971000D01*
X201930000Y-150571000D02*
X201930000Y-151257000D01*
X201930000Y-151257000D02*
X200280000Y-151257000D01*
X199680000Y-151257000D02*
X198030000Y-151257000D01*
X197430000Y-151257000D02*
X195780000Y-151257000D01*
X195180000Y-151257000D02*
X193530000Y-151257000D01*
X192930000Y-151257000D02*
X191516000Y-151257000D01*
X191516000Y-151257000D02*
X191516000Y-149607000D01*
X191516000Y-149007000D02*
X191516000Y-147357000D01*
X191516000Y-146757000D02*
X191516000Y-145107000D01*
X191516000Y-144507000D02*
X191516000Y-142857000D01*
X191516000Y-142257000D02*
X191516000Y-140607000D01*
X191516000Y-140007000D02*
X191516000Y-138357000D01*
X191516000Y-137757000D02*
X191516000Y-136107000D01*
X191516000Y-135507000D02*
X191516000Y-133857000D01*
X191516000Y-133257000D02*
X191516000Y-131607000D01*
X191516000Y-131007000D02*
X191516000Y-129357000D01*
X191516000Y-128757000D02*
X191516000Y-127107000D01*
X191516000Y-126507000D02*
X191516000Y-124857000D01*
X191516000Y-124257000D02*
X191516000Y-123571000D01*
X171196000Y-123444000D02*
X172846000Y-123444000D01*
X173446000Y-123444000D02*
X175096000Y-123444000D01*
X175696000Y-123444000D02*
X177346000Y-123444000D01*
X177946000Y-123444000D02*
X179596000Y-123444000D01*
X180196000Y-123444000D02*
X181610000Y-123444000D01*
X181610000Y-123444000D02*
X181610000Y-125094000D01*
X181610000Y-125694000D02*
X181610000Y-127344000D01*
X181610000Y-127944000D02*
X181610000Y-129594000D01*
X181610000Y-130194000D02*
X181610000Y-131844000D01*
X181610000Y-132444000D02*
X181610000Y-134094000D01*
X181610000Y-134694000D02*
X181610000Y-136344000D01*
X181610000Y-136944000D02*
X181610000Y-138594000D01*
X181610000Y-139194000D02*
X181610000Y-140844000D01*
X181610000Y-141444000D02*
X181610000Y-143094000D01*
X181610000Y-143694000D02*
X181610000Y-145344000D01*
X181610000Y-145944000D02*
X181610000Y-147594000D01*
X181610000Y-148194000D02*
X181610000Y-149844000D01*
X181610000Y-150444000D02*
X181610000Y-151130000D01*
X181610000Y-151130000D02*
X179960000Y-151130000D01*
X179360000Y-151130000D02*
X177710000Y-151130000D01*
X177110000Y-151130000D02*
X175460000Y-151130000D01*
X174860000Y-151130000D02*
X173210000Y-151130000D01*
X172610000Y-151130000D02*
X171196000Y-151130000D01*
X171196000Y-151130000D02*
X171196000Y-149480000D01*
X171196000Y-148880000D02*
X171196000Y-147230000D01*
X171196000Y-146630000D02*
X171196000Y-144980000D01*
X171196000Y-144380000D02*
X171196000Y-142730000D01*
X171196000Y-142130000D02*
X171196000Y-140480000D01*
X171196000Y-139880000D02*
X171196000Y-138230000D01*
X171196000Y-137630000D02*
X171196000Y-135980000D01*
X171196000Y-135380000D02*
X171196000Y-133730000D01*
X171196000Y-133130000D02*
X171196000Y-131480000D01*
X171196000Y-130880000D02*
X171196000Y-129230000D01*
X171196000Y-128630000D02*
X171196000Y-126980000D01*
X171196000Y-126380000D02*
X171196000Y-124730000D01*
X171196000Y-124130000D02*
X171196000Y-123444000D01*
X149352000Y-108712000D02*
X151002000Y-108712000D01*
X151602000Y-108712000D02*
X153252000Y-108712000D01*
X153852000Y-108712000D02*
X155502000Y-108712000D01*
X156102000Y-108712000D02*
X157752000Y-108712000D01*
X158352000Y-108712000D02*
X160002000Y-108712000D01*
X160602000Y-108712000D02*
X162252000Y-108712000D01*
X162852000Y-108712000D02*
X164502000Y-108712000D01*
X165102000Y-108712000D02*
X166752000Y-108712000D01*
X167352000Y-108712000D02*
X167386000Y-108712000D01*
X167386000Y-108712000D02*
X167386000Y-110362000D01*
X167386000Y-110962000D02*
X167386000Y-112612000D01*
X167386000Y-113212000D02*
X167386000Y-114862000D01*
X167386000Y-115462000D02*
X167386000Y-117112000D01*
X167386000Y-117712000D02*
X167386000Y-119362000D01*
X167386000Y-119962000D02*
X167386000Y-121612000D01*
X167386000Y-122212000D02*
X167386000Y-123862000D01*
X167386000Y-124462000D02*
X167386000Y-126112000D01*
X167386000Y-126712000D02*
X167386000Y-128362000D01*
X167386000Y-128962000D02*
X167386000Y-130612000D01*
X167386000Y-131212000D02*
X167386000Y-132862000D01*
X167386000Y-133462000D02*
X167386000Y-135112000D01*
X167386000Y-135712000D02*
X167386000Y-137362000D01*
X167386000Y-137962000D02*
X167386000Y-139612000D01*
X167386000Y-140212000D02*
X167386000Y-141862000D01*
X167386000Y-142462000D02*
X167386000Y-144112000D01*
X167386000Y-144712000D02*
X167386000Y-146362000D01*
X167386000Y-146962000D02*
X167386000Y-148612000D01*
X167386000Y-149212000D02*
X167386000Y-150622000D01*
X167386000Y-150622000D02*
X165736000Y-150622000D01*
X165136000Y-150622000D02*
X163486000Y-150622000D01*
X162886000Y-150622000D02*
X161236000Y-150622000D01*
X160636000Y-150622000D02*
X158986000Y-150622000D01*
X158386000Y-150622000D02*
X156736000Y-150622000D01*
X156136000Y-150622000D02*
X154486000Y-150622000D01*
X153886000Y-150622000D02*
X152236000Y-150622000D01*
X151636000Y-150622000D02*
X149986000Y-150622000D01*
X149386000Y-150622000D02*
X149352000Y-150622000D01*
X149352000Y-150622000D02*
X149352000Y-148972000D01*
X149352000Y-148372000D02*
X149352000Y-146722000D01*
X149352000Y-146122000D02*
X149352000Y-144472000D01*
X149352000Y-143872000D02*
X149352000Y-142222000D01*
X149352000Y-141622000D02*
X149352000Y-139972000D01*
X149352000Y-139372000D02*
X149352000Y-137722000D01*
X149352000Y-137122000D02*
X149352000Y-135472000D01*
X149352000Y-134872000D02*
X149352000Y-133222000D01*
X149352000Y-132622000D02*
X149352000Y-130972000D01*
X149352000Y-130372000D02*
X149352000Y-128722000D01*
X149352000Y-128122000D02*
X149352000Y-126472000D01*
X149352000Y-125872000D02*
X149352000Y-124222000D01*
X149352000Y-123622000D02*
X149352000Y-121972000D01*
X149352000Y-121372000D02*
X149352000Y-119722000D01*
X149352000Y-119122000D02*
X149352000Y-117472000D01*
X149352000Y-116872000D02*
X149352000Y-115222000D01*
X149352000Y-114622000D02*
X149352000Y-112972000D01*
X149352000Y-112372000D02*
X149352000Y-110722000D01*
X149352000Y-110122000D02*
X149352000Y-108712000D01*
X128016000Y-113792000D02*
X129666000Y-113792000D01*
X130266000Y-113792000D02*
X131916000Y-113792000D01*
X132516000Y-113792000D02*
X134166000Y-113792000D01*
X134766000Y-113792000D02*
X136416000Y-113792000D01*
X137016000Y-113792000D02*
X138666000Y-113792000D01*
X139266000Y-113792000D02*
X140916000Y-113792000D01*
X141516000Y-113792000D02*
X143166000Y-113792000D01*
X143766000Y-113792000D02*
X145416000Y-113792000D01*
X146016000Y-113792000D02*
X146050000Y-113792000D01*
X146050000Y-113792000D02*
X146050000Y-115442000D01*
X146050000Y-116042000D02*
X146050000Y-117692000D01*
X146050000Y-118292000D02*
X146050000Y-119942000D01*
X146050000Y-120542000D02*
X146050000Y-122192000D01*
X146050000Y-122792000D02*
X146050000Y-124442000D01*
X146050000Y-125042000D02*
X146050000Y-126692000D01*
X146050000Y-127292000D02*
X146050000Y-128942000D01*
X146050000Y-129542000D02*
X146050000Y-131192000D01*
X146050000Y-131792000D02*
X146050000Y-133442000D01*
X146050000Y-134042000D02*
X146050000Y-135692000D01*
X146050000Y-136292000D02*
X146050000Y-137942000D01*
X146050000Y-138542000D02*
X146050000Y-140192000D01*
X146050000Y-140792000D02*
X146050000Y-142442000D01*
X146050000Y-143042000D02*
X146050000Y-144692000D01*
X146050000Y-145292000D02*
X146050000Y-146942000D01*
X146050000Y-147542000D02*
X146050000Y-149192000D01*
X146050000Y-149792000D02*
X146050000Y-150876000D01*
X146050000Y-150876000D02*
X144400000Y-150876000D01*
X143800000Y-150876000D02*
X142150000Y-150876000D01*
X141550000Y-150876000D02*
X139900000Y-150876000D01*
X139300000Y-150876000D02*
X137650000Y-150876000D01*
X137050000Y-150876000D02*
X135400000Y-150876000D01*
X134800000Y-150876000D02*
X133150000Y-150876000D01*
X132550000Y-150876000D02*
X130900000Y-150876000D01*
X130300000Y-150876000D02*
X128650000Y-150876000D01*
X128050000Y-150876000D02*
X128016000Y-150876000D01*
X128016000Y-150876000D02*
X128016000Y-149226000D01*
X128016000Y-148626000D02*
X128016000Y-146976000D01*
X128016000Y-146376000D02*
X128016000Y-144726000D01*
X128016000Y-144126000D02*
X128016000Y-142476000D01*
X128016000Y-141876000D02*
X128016000Y-140226000D01*
X128016000Y-139626000D02*
X128016000Y-137976000D01*
X128016000Y-137376000D02*
X128016000Y-135726000D01*
X128016000Y-135126000D02*
X128016000Y-133476000D01*
X128016000Y-132876000D02*
X128016000Y-131226000D01*
X128016000Y-130626000D02*
X128016000Y-128976000D01*
X128016000Y-128376000D02*
X128016000Y-126726000D01*
X128016000Y-126126000D02*
X128016000Y-124476000D01*
X128016000Y-123876000D02*
X128016000Y-122226000D01*
X128016000Y-121626000D02*
X128016000Y-119976000D01*
X128016000Y-119376000D02*
X128016000Y-117726000D01*
X128016000Y-117126000D02*
X128016000Y-115476000D01*
X128016000Y-114876000D02*
X128016000Y-113792000D01*
M02*
