M48
; DRILL file {KiCad 7.0.8} date qua 18 out 2023 18:18:40
; FORMAT={-:-/ absolute / inch / decimal}
; #@! TF.CreationDate,2023-10-18T18:18:40+01:00
; #@! TF.GenerationSoftware,Kicad,Pcbnew,7.0.8
; #@! TF.FileFunction,Plated,1,2,PTH
FMAT,2
INCH
; #@! TA.AperFunction,Plated,PTH,ViaDrill
T1C0.0157
; #@! TA.AperFunction,Plated,PTH,ComponentDrill
T2C0.0276
; #@! TA.AperFunction,Plated,PTH,ComponentDrill
T3C0.0295
; #@! TA.AperFunction,Plated,PTH,ComponentDrill
T4C0.0315
; #@! TA.AperFunction,Plated,PTH,ComponentDrill
T5C0.0354
; #@! TA.AperFunction,Plated,PTH,ComponentDrill
T6C0.0394
; #@! TA.AperFunction,Plated,PTH,ComponentDrill
T7C0.0433
; #@! TA.AperFunction,Plated,PTH,ComponentDrill
T8C0.0472
%
G90
G05
T1
X1.2008Y-5.0787
X1.37Y-4.14
X1.5Y-3.475
X1.5157Y-5.9843
X1.5785Y-3.4715
X1.625Y-3.425
X1.744Y-3.562
X1.82Y-4.32
X1.85Y-3.8
X1.85Y-4.9057
X1.86Y-4.58
X1.985Y-4.95
X2.02Y-5.62
X2.0338Y-4.98
X2.07Y-3.91
X2.09Y-3.6
X2.092Y-3.958
X2.16Y-3.645
X2.2549Y-5.0
X2.27Y-6.06
X2.3202Y-3.7798
X2.33Y-3.83
X2.34Y-4.575
X2.39Y-6.0915
X2.46Y-3.605
X2.54Y-4.8685
X2.5521Y-4.9621
X2.6228Y-3.4178
X2.6347Y-4.9753
X2.64Y-3.46
X2.66Y-4.615
X2.689Y-4.245
X2.69Y-3.4753
X2.69Y-3.71
X2.7033Y-4.5117
X2.715Y-5.135
X2.725Y-4.904
X2.73Y-5.46
X2.7357Y-3.84
X2.762Y-4.936
X2.765Y-4.795
X2.785Y-5.76
X2.805Y-5.555
X2.85Y-3.746
X2.86Y-5.94
X2.87Y-3.4506
X2.91Y-4.61
X2.92Y-4.8476
X2.92Y-5.94
X2.9298Y-4.1055
X2.955Y-3.9849
X2.96Y-5.94
X3.0Y-3.7885
X3.0Y-4.07
X3.0Y-5.9328
X3.03Y-5.355
X3.04Y-5.495
X3.065Y-4.375
X3.07Y-5.17
X3.105Y-5.03
X3.11Y-4.765
X3.13Y-3.4683
X3.14Y-3.8425
X3.155Y-5.005
X3.17Y-3.48
X3.19Y-3.75
X3.208Y-5.4857
X3.21Y-5.54
X3.2438Y-5.398
X3.25Y-4.24
X3.2502Y-5.3002
X3.2669Y-4.0149
X3.275Y-5.446
X3.28Y-3.4148
X3.28Y-3.72
X3.32Y-4.41
X3.3217Y-4.8787
X3.3225Y-3.4848
X3.33Y-3.865
X3.35Y-5.96
X3.3665Y-4.1145
X3.37Y-4.885
X3.375Y-3.476
X3.3849Y-4.0199
X3.385Y-4.155
X3.394Y-3.4015
X3.3953Y-4.0843
X3.4123Y-4.7191
X3.42Y-5.94
X3.4449Y-4.0139
X3.46Y-3.75
X3.47Y-3.43
X3.4812Y-5.9497
X3.4843Y-3.1043
X3.5375Y-3.75
X3.575Y-4.9697
X3.61Y-3.76
X3.68Y-4.7215
X3.688Y-3.723
X3.6952Y-5.9252
X3.72Y-4.525
X3.7463Y-5.8966
X3.75Y-3.38
X3.75Y-5.96
X3.758Y-2.8115
X3.76Y-3.12
X3.76Y-3.88
X3.7612Y-5.3389
X3.765Y-4.65
X3.77Y-4.14
X3.79Y-3.3885
X3.7997Y-5.85
X3.8Y-3.56
X3.809Y-5.8956
X3.82Y-5.62
X3.8569Y-3.8254
X3.86Y-3.1763
X3.8788Y-3.5215
X3.9Y-3.3054
X3.9052Y-3.9048
X3.92Y-4.09
X3.94Y-4.23
X3.95Y-3.128
X3.97Y-4.7
X3.9756Y-4.2634
X3.99Y-3.4712
X4.02Y-2.9094
X4.02Y-4.06
X4.035Y-3.6692
X4.0442Y-3.1385
X4.0545Y-3.195
X4.0599Y-3.7256
X4.06Y-5.64
X4.1Y-5.13
X4.11Y-3.0615
X4.15Y-2.8315
X4.1591Y-3.5194
X4.16Y-4.09
X4.16Y-4.18
X4.17Y-5.2149
X4.175Y-3.08
X4.18Y-5.09
X4.19Y-2.79
X4.2162Y-3.5015
X4.22Y-4.9
X4.26Y-4.94
X4.27Y-3.82
X4.31Y-2.84
X4.31Y-3.0815
X4.32Y-5.39
X4.3403Y-3.8
X4.37Y-2.8385
X4.38Y-3.0107
X4.3929Y-5.3575
X4.4Y-3.7852
X4.41Y-3.0638
X4.41Y-5.04
X4.4295Y-4.9453
X4.43Y-3.4406
X4.438Y-5.4724
X4.4521Y-4.0499
X4.47Y-2.9417
X4.47Y-3.0165
X4.47Y-4.78
X4.48Y-5.12
X4.4803Y-5.4882
X4.4815Y-3.4406
X4.5Y-4.57
X4.53Y-2.84
X4.53Y-4.51
X4.5469Y-3.4229
X4.5962Y-5.4724
X4.61Y-2.84
X4.615Y-3.03
X4.6157Y-3.444
X4.62Y-3.76
X4.67Y-4.58
X4.672Y-3.4375
X4.69Y-5.48
X4.695Y-2.9109
X4.6951Y-3.31
X4.6996Y-4.8815
X4.7Y-3.76
X4.7Y-4.47
X4.7Y-5.38
X4.7129Y-3.08
X4.7406Y-4.1886
X4.748Y-3.419
X4.7657Y-4.2776
X4.77Y-5.0268
X4.78Y-4.445
X4.78Y-4.82
X4.81Y-5.0839
X4.8357Y-3.4575
X4.8414Y-2.8824
X4.882Y-5.845
X4.9414Y-2.9109
X4.9414Y-3.04
X4.9435Y-5.13
X4.95Y-4.83
X4.9612Y-5.3615
X4.963Y-5.7236
X4.97Y-4.428
X4.9785Y-4.66
X4.989Y-4.2038
X5.0021Y-5.7279
X5.0158Y-5.6242
X5.02Y-3.67
X5.12Y-4.4299
X5.18Y-3.91
X5.235Y-5.345
X5.26Y-4.9149
X5.28Y-4.81
X5.29Y-5.01
X5.3Y-5.11
X5.3Y-5.65
X5.31Y-4.8592
X5.32Y-5.2149
X5.346Y-4.366
X5.35Y-4.76
X5.35Y-6.044
X5.45Y-5.0592
X5.45Y-5.4
X5.45Y-5.55
X5.4552Y-4.3065
X5.4675Y-4.97
X5.47Y-4.27
X5.48Y-6.01
X5.54Y-6.0085
X5.57Y-4.5306
X5.58Y-5.95
X5.61Y-5.98
X5.75Y-6.063
X5.87Y-4.2411
X6.01Y-6.086
X6.0385Y-6.0039
X6.05Y-4.35
X6.05Y-4.45
X6.05Y-4.6
X6.05Y-4.75
X6.05Y-4.85
X6.0912Y-3.5
X6.11Y-5.55
X6.11Y-5.91
X6.1245Y-3.4164
X6.15Y-4.95
X6.15Y-5.05
X6.15Y-5.2
X6.15Y-5.35
X6.16Y-4.8149
X6.17Y-5.66
X6.1912Y-3.4449
X6.21Y-5.9391
X6.22Y-4.25
X6.25Y-3.91
X6.25Y-5.76
X6.26Y-4.5149
X6.2698Y-3.7809
X6.2783Y-3.7425
X6.28Y-5.9
X6.293Y-3.7034
X6.296Y-3.9346
X6.3138Y-3.67
X6.315Y-3.5085
X6.315Y-3.613
X6.32Y-3.5685
X6.3246Y-3.97
X6.3531Y-4.0
X6.3583Y-3.189
X6.43Y-3.63
X6.43Y-4.52
X6.4448Y-3.5852
X6.45Y-4.13
X6.4567Y-3.1496
X6.52Y-3.72
X6.58Y-3.7534
X6.6Y-6.0915
X6.65Y-6.03
X6.6698Y-4.1701
X6.674Y-5.073
X6.75Y-3.2092
X6.8085Y-4.51
X6.84Y-4.54
X6.844Y-4.59
X6.88Y-4.6085
X6.89Y-4.36
X6.9085Y-4.66
X6.9564Y-4.6525
X7.01Y-4.17
X7.03Y-4.35
X7.0327Y-4.12
X7.0735Y-4.3576
X7.117Y-4.4395
X7.17Y-4.67
X7.18Y-4.2377
X7.1919Y-4.12
X7.2204Y-3.78
X7.2772Y-3.8078
X7.305Y-3.78
X7.37Y-4.57
X7.4315Y-3.9934
X7.44Y-4.26
X7.48Y-4.7
X7.5Y-3.79
X7.51Y-3.73
X7.67Y-4.36
X7.6843Y-4.456
X7.72Y-3.31
X7.8Y-4.15
X7.82Y-3.44
X7.86Y-3.6284
X7.87Y-3.55
X7.95Y-4.83
X7.96Y-4.41
X7.9859Y-4.7094
X7.9885Y-3.7315
X8.0079Y-3.9843
X8.01Y-5.68
X8.05Y-5.32
X8.27Y-4.0399
X8.29Y-5.0334
X8.31Y-4.8315
X8.46Y-4.99
X8.4915Y-3.93
X8.53Y-5.05
X8.61Y-5.0
X8.8Y-4.7092
X8.81Y-5.97
X8.85Y-4.42
X8.85Y-5.96
X8.8544Y-5.3159
X8.875Y-4.855
X8.89Y-5.24
X8.94Y-4.87
X8.99Y-4.96
X9.0685Y-6.02
X9.07Y-6.15
X9.1Y-4.39
X9.1068Y-4.3293
X9.11Y-6.03
X9.12Y-5.16
X9.126Y-4.526
X9.16Y-4.45
X9.27Y-6.12
X9.33Y-4.25
X9.36Y-6.05
X9.3679Y-4.45
X9.42Y-6.06
X9.6Y-4.83
T2
X1.1031Y-4.417
X1.1031Y-4.717
X1.166Y-4.2292
X1.17Y-4.12
X1.4231Y-4.437
X1.4231Y-4.737
X1.466Y-4.2292
X1.47Y-4.12
X4.5733Y-4.15
X4.5752Y-4.05
X4.5812Y-4.2692
X4.5812Y-4.3692
X4.5812Y-4.4692
X4.5812Y-4.5692
X4.5812Y-4.6692
X4.5812Y-4.7692
X4.5812Y-4.8642
X4.6481Y-4.15
X4.65Y-4.05
X4.8812Y-4.2692
X4.8812Y-4.3692
X4.8812Y-4.4692
X4.8812Y-4.5692
X4.8812Y-4.6692
X4.8812Y-4.7692
X4.8812Y-4.8642
X6.605Y-3.49
X6.6052Y-3.31
X6.6052Y-3.4
X6.6052Y-3.58
X6.6798Y-3.49
X6.68Y-3.31
X6.68Y-3.4
X6.68Y-3.58
X6.75Y-2.8652
X6.75Y-2.94
X6.75Y-3.0452
X6.75Y-3.12
X6.78Y-3.31
X6.78Y-3.4
X6.78Y-3.49
X6.78Y-3.58
X6.8548Y-3.31
X6.8548Y-3.4
X6.8548Y-3.49
X6.8548Y-3.58
X6.955Y-3.31
X6.955Y-3.4
X6.955Y-3.49
X6.955Y-3.58
X7.0298Y-3.31
X7.0298Y-3.4
X7.0298Y-3.49
X7.0298Y-3.58
X8.23Y-3.5
X8.53Y-3.5
X8.7412Y-3.3592
X9.0412Y-3.3592
X9.1412Y-3.3592
X9.4412Y-3.3592
X9.6162Y-5.1592
X9.6162Y-5.2592
X9.6164Y-5.3592
X9.6164Y-5.4592
X9.6164Y-5.5592
X9.6164Y-5.6592
X9.6164Y-5.7592
X9.6164Y-5.8592
X9.691Y-5.1592
X9.691Y-5.2592
X9.6912Y-5.3592
X9.6912Y-5.4592
X9.6912Y-5.5592
X9.6912Y-5.6592
X9.6912Y-5.7592
X9.6912Y-5.8592
X9.7912Y-5.1592
X9.7914Y-5.2592
X9.7914Y-5.3592
X9.7914Y-5.4592
X9.7914Y-5.5592
X9.7914Y-5.6592
X9.7914Y-5.7592
X9.7914Y-5.8592
X9.866Y-5.1592
X9.8662Y-5.2592
X9.8662Y-5.3592
X9.8662Y-5.4592
X9.8662Y-5.5592
X9.8662Y-5.6592
X9.8662Y-5.7592
X9.8662Y-5.8592
X9.91Y-3.2
X9.91Y-3.5
T3
X4.8Y-4.1051
X4.85Y-4.0551
X4.9Y-4.1051
T4
X1.1731Y-4.837
X1.2631Y-4.487
X1.2631Y-4.6366
X1.2716Y-4.837
X1.3616Y-4.33
X1.3731Y-4.837
X1.46Y-4.33
X1.4716Y-4.837
X1.6412Y-4.237
X1.6412Y-4.337
X1.6412Y-4.437
X1.6412Y-4.537
X1.6412Y-4.637
X1.6412Y-4.737
X1.6412Y-4.837
X1.6412Y-5.1592
X1.6412Y-5.2592
X1.6412Y-5.3592
X1.6412Y-5.4592
X1.6412Y-5.5592
X1.6412Y-5.6592
X1.6412Y-5.7592
X1.6412Y-5.8592
X1.8428Y-4.0692
X1.8628Y-5.0442
X1.9412Y-4.0692
X1.9412Y-4.237
X1.9412Y-4.337
X1.9412Y-4.437
X1.9412Y-4.537
X1.9412Y-4.637
X1.9412Y-4.737
X1.9412Y-4.837
X1.9412Y-5.1592
X1.9412Y-5.2592
X1.9412Y-5.3592
X1.9412Y-5.4592
X1.9412Y-5.5592
X1.9412Y-5.6592
X1.9412Y-5.7592
X1.9412Y-5.8592
X1.9612Y-5.0442
X2.14Y-5.21
X2.14Y-5.31
X2.14Y-5.41
X2.14Y-5.51
X2.14Y-5.61
X2.14Y-5.71
X2.14Y-5.81
X2.1412Y-4.177
X2.1412Y-4.277
X2.1412Y-4.377
X2.1412Y-4.477
X2.1412Y-4.577
X2.1412Y-4.677
X2.1412Y-4.777
X2.1412Y-4.877
X2.3428Y-4.0592
X2.3428Y-5.0442
X2.44Y-5.21
X2.44Y-5.31
X2.44Y-5.41
X2.44Y-5.51
X2.44Y-5.61
X2.44Y-5.71
X2.44Y-5.81
X2.4412Y-4.0592
X2.4412Y-4.177
X2.4412Y-4.277
X2.4412Y-4.377
X2.4412Y-4.477
X2.4412Y-4.577
X2.4412Y-4.677
X2.4412Y-4.777
X2.4412Y-4.877
X2.4412Y-5.0442
X2.53Y-3.6
X2.53Y-3.6984
X2.64Y-5.16
X2.64Y-5.26
X2.64Y-5.36
X2.64Y-5.46
X2.64Y-5.56
X2.64Y-5.66
X2.64Y-5.76
X2.64Y-5.86
X2.68Y-3.61
X2.68Y-3.91
X2.7583Y-4.307
X2.7583Y-4.407
X2.7583Y-4.507
X2.7583Y-4.607
X2.7583Y-4.707
X2.78Y-3.61
X2.78Y-3.91
X2.8428Y-5.0472
X2.8583Y-4.207
X2.8583Y-4.307
X2.8583Y-4.407
X2.8583Y-4.507
X2.8583Y-4.607
X2.8583Y-4.707
X2.8583Y-4.807
X2.88Y-3.61
X2.88Y-3.91
X2.94Y-5.16
X2.94Y-5.26
X2.94Y-5.36
X2.94Y-5.46
X2.94Y-5.56
X2.94Y-5.66
X2.94Y-5.76
X2.94Y-5.86
X2.9412Y-5.0472
X2.9583Y-4.207
X2.9583Y-4.307
X2.9583Y-4.707
X2.9583Y-4.807
X2.98Y-3.61
X2.98Y-3.91
X3.0583Y-4.207
X3.0583Y-4.307
X3.0583Y-4.707
X3.0583Y-4.807
X3.0612Y-4.0292
X3.08Y-3.61
X3.08Y-3.91
X3.1412Y-5.1592
X3.1412Y-5.2592
X3.1412Y-5.3592
X3.1412Y-5.4592
X3.1412Y-5.5592
X3.1412Y-5.6592
X3.1412Y-5.7592
X3.1412Y-5.8592
X3.1583Y-4.207
X3.1583Y-4.307
X3.1583Y-4.407
X3.1583Y-4.507
X3.1583Y-4.607
X3.1583Y-4.707
X3.1583Y-4.807
X3.1596Y-4.0292
X3.18Y-3.61
X3.18Y-3.91
X3.2583Y-4.307
X3.2583Y-4.407
X3.2583Y-4.507
X3.2583Y-4.607
X3.2583Y-4.707
X3.28Y-3.61
X3.28Y-3.91
X3.3428Y-5.0442
X3.38Y-3.61
X3.38Y-3.91
X3.4412Y-5.0442
X3.4412Y-5.1592
X3.4412Y-5.2592
X3.4412Y-5.3592
X3.4412Y-5.4592
X3.4412Y-5.5592
X3.4412Y-5.6592
X3.4412Y-5.7592
X3.4412Y-5.8592
X3.48Y-3.61
X3.48Y-3.91
X3.5512Y-4.1772
X3.5512Y-4.2772
X3.5512Y-4.3772
X3.5512Y-4.4772
X3.5512Y-4.5772
X3.5512Y-4.6772
X3.5512Y-4.7772
X3.5512Y-4.8772
X3.58Y-3.61
X3.58Y-3.91
X3.6412Y-5.1592
X3.6412Y-5.2592
X3.6412Y-5.3592
X3.6412Y-5.4592
X3.6412Y-5.5592
X3.6412Y-5.6592
X3.6412Y-5.7592
X3.6412Y-5.8592
X3.7528Y-4.0592
X3.8412Y-3.6092
X3.8412Y-3.7076
X3.8428Y-5.0442
X3.8512Y-4.0592
X3.8512Y-4.1772
X3.8512Y-4.2772
X3.8512Y-4.3772
X3.8512Y-4.4772
X3.8512Y-4.5772
X3.8512Y-4.6772
X3.8512Y-4.7772
X3.8512Y-4.8772
X3.9412Y-5.0442
X3.9412Y-5.1592
X3.9412Y-5.2592
X3.9412Y-5.3592
X3.9412Y-5.4592
X3.9412Y-5.5592
X3.9412Y-5.6592
X3.9412Y-5.7592
X3.9412Y-5.8592
X3.9912Y-3.6092
X3.9912Y-3.9092
X4.0642Y-4.1792
X4.0642Y-4.2792
X4.0642Y-4.3792
X4.0642Y-4.4792
X4.0642Y-4.5792
X4.0642Y-4.6792
X4.0642Y-4.7792
X4.0642Y-4.8792
X4.0912Y-3.6092
X4.0912Y-3.9092
X4.166Y-5.284
X4.166Y-5.384
X4.166Y-5.484
X4.166Y-5.584
X4.166Y-5.684
X4.166Y-5.784
X4.1912Y-3.6092
X4.1912Y-3.9092
X4.266Y-5.184
X4.266Y-5.284
X4.266Y-5.384
X4.266Y-5.484
X4.266Y-5.584
X4.266Y-5.684
X4.266Y-5.784
X4.266Y-5.884
X4.2668Y-4.0592
X4.2912Y-3.6092
X4.2912Y-3.9092
X4.3642Y-4.1792
X4.3642Y-4.2792
X4.3642Y-4.3792
X4.3642Y-4.4792
X4.3642Y-4.5792
X4.3642Y-4.6792
X4.3642Y-4.7792
X4.3642Y-4.8792
X4.3652Y-4.0592
X4.366Y-5.184
X4.366Y-5.284
X4.366Y-5.784
X4.366Y-5.884
X4.3912Y-3.6092
X4.3912Y-3.9092
X4.466Y-5.184
X4.466Y-5.284
X4.466Y-5.784
X4.466Y-5.884
X4.4912Y-3.6092
X4.4912Y-3.9092
X4.566Y-5.184
X4.566Y-5.284
X4.566Y-5.784
X4.566Y-5.884
X4.5912Y-3.6092
X4.5912Y-3.9092
X4.601Y-4.989
X4.666Y-5.184
X4.666Y-5.284
X4.666Y-5.784
X4.666Y-5.884
X4.6912Y-3.6092
X4.6912Y-3.9092
X4.6994Y-4.989
X4.766Y-5.184
X4.766Y-5.284
X4.766Y-5.384
X4.766Y-5.484
X4.766Y-5.584
X4.766Y-5.684
X4.766Y-5.784
X4.766Y-5.884
X4.7912Y-3.6092
X4.7912Y-3.9092
X4.866Y-5.284
X4.866Y-5.384
X4.866Y-5.484
X4.866Y-5.584
X4.866Y-5.684
X4.866Y-5.784
X4.8912Y-3.6092
X4.8912Y-3.9092
X5.0912Y-4.5592
X5.0912Y-4.6592
X5.0912Y-4.7592
X5.0912Y-4.8592
X5.0912Y-4.9592
X5.0912Y-5.0592
X5.0912Y-5.1592
X5.0912Y-5.2592
X5.0912Y-5.3592
X5.0912Y-5.4592
X5.0912Y-5.5592
X5.0912Y-5.6592
X5.0912Y-5.7592
X5.0912Y-5.8592
X5.13Y-3.61
X5.13Y-3.7084
X5.2912Y-3.6092
X5.2912Y-3.9092
X5.3912Y-3.6092
X5.3912Y-3.9092
X5.4912Y-3.6092
X5.4912Y-3.9092
X5.5912Y-3.6092
X5.5912Y-3.9092
X5.5928Y-4.4142
X5.6912Y-3.6092
X5.6912Y-3.9092
X5.6912Y-4.4142
X5.6912Y-4.5592
X5.6912Y-4.6592
X5.6912Y-4.7592
X5.6912Y-4.8592
X5.6912Y-4.9592
X5.6912Y-5.0592
X5.6912Y-5.1592
X5.6912Y-5.2592
X5.6912Y-5.3592
X5.6912Y-5.4592
X5.6912Y-5.5592
X5.6912Y-5.6592
X5.6912Y-5.7592
X5.6912Y-5.8592
X5.7912Y-3.6092
X5.7912Y-3.9092
X5.8912Y-3.6092
X5.8912Y-3.9092
X5.9412Y-4.3592
X5.9412Y-4.4592
X5.9412Y-4.5592
X5.9412Y-4.6592
X5.9412Y-4.7592
X5.9412Y-4.8592
X5.9412Y-4.9592
X5.9412Y-5.0592
X5.9412Y-5.1592
X5.9412Y-5.2592
X5.9412Y-5.3592
X5.9412Y-5.4592
X5.9412Y-5.5592
X5.9412Y-5.6592
X5.9412Y-5.7592
X5.9412Y-5.8592
X5.9912Y-3.6092
X5.9912Y-3.9092
X6.0912Y-3.6092
X6.0912Y-3.9092
X6.1912Y-3.6092
X6.1912Y-3.9092
X6.4428Y-4.2142
X6.5412Y-4.2142
X6.5412Y-4.3592
X6.5412Y-4.4592
X6.5412Y-4.5592
X6.5412Y-4.6592
X6.5412Y-4.7592
X6.5412Y-4.8592
X6.5412Y-4.9592
X6.5412Y-5.0592
X6.5412Y-5.1592
X6.5412Y-5.2592
X6.5412Y-5.3592
X6.5412Y-5.4592
X6.5412Y-5.5592
X6.5412Y-5.6592
X6.5412Y-5.7592
X6.5412Y-5.8592
X6.65Y-2.8416
X6.65Y-2.94
X6.65Y-3.04
X6.65Y-3.1384
X6.6812Y-4.4907
X6.6812Y-4.5892
X6.7912Y-4.9592
X6.7912Y-5.0592
X6.7912Y-5.1592
X6.7912Y-5.2592
X6.7912Y-5.3592
X6.7912Y-5.4592
X6.7912Y-5.5592
X6.7912Y-5.6592
X6.7912Y-5.7592
X6.7912Y-5.8592
X6.8612Y-4.0092
X6.8612Y-4.1092
X6.8612Y-4.2092
X6.8612Y-4.3092
X6.8612Y-4.4092
X6.9612Y-3.9092
X6.9612Y-4.0092
X6.9612Y-4.1092
X6.9612Y-4.2092
X6.9612Y-4.3092
X6.9612Y-4.4092
X6.9612Y-4.5092
X6.9928Y-4.8042
X7.0612Y-3.9092
X7.0612Y-4.0092
X7.0612Y-4.4092
X7.0612Y-4.5092
X7.0912Y-4.8042
X7.0912Y-4.9592
X7.0912Y-5.0592
X7.0912Y-5.1592
X7.0912Y-5.2592
X7.0912Y-5.3592
X7.0912Y-5.4592
X7.0912Y-5.5592
X7.0912Y-5.6592
X7.0912Y-5.7592
X7.0912Y-5.8592
X7.1612Y-3.9092
X7.1612Y-4.0092
X7.1612Y-4.4092
X7.1612Y-4.5092
X7.2612Y-3.9092
X7.2612Y-4.0092
X7.2612Y-4.1092
X7.2612Y-4.2092
X7.2612Y-4.3092
X7.2612Y-4.4092
X7.2612Y-4.5092
X7.3412Y-4.9592
X7.3412Y-5.0592
X7.3412Y-5.1592
X7.3412Y-5.2592
X7.3412Y-5.3592
X7.3412Y-5.4592
X7.3412Y-5.5592
X7.3412Y-5.6592
X7.3412Y-5.7592
X7.3612Y-4.0092
X7.3612Y-4.1092
X7.3612Y-4.2092
X7.3612Y-4.3092
X7.3612Y-4.4092
X7.5912Y-3.8492
X7.5912Y-3.9492
X7.5912Y-4.0492
X7.5912Y-4.1492
X7.5912Y-4.2492
X7.5912Y-4.3492
X7.5912Y-4.4492
X7.5912Y-4.5492
X7.5912Y-4.9592
X7.5912Y-5.0592
X7.5912Y-5.1592
X7.5912Y-5.2592
X7.5912Y-5.3592
X7.5912Y-5.4592
X7.5912Y-5.5592
X7.5912Y-5.6592
X7.5912Y-5.7592
X7.5912Y-5.8592
X7.7928Y-3.7292
X7.7928Y-4.8042
X7.8912Y-3.7292
X7.8912Y-3.8492
X7.8912Y-3.9492
X7.8912Y-4.0492
X7.8912Y-4.1492
X7.8912Y-4.2492
X7.8912Y-4.3492
X7.8912Y-4.4492
X7.8912Y-4.5492
X7.8912Y-4.8042
X7.8912Y-4.9592
X7.8912Y-5.0592
X7.8912Y-5.1592
X7.8912Y-5.2592
X7.8912Y-5.3592
X7.8912Y-5.4592
X7.8912Y-5.5592
X7.8912Y-5.6592
X7.8912Y-5.7592
X7.8912Y-5.8592
X8.1412Y-3.8842
X8.1412Y-3.9842
X8.1412Y-4.0842
X8.1412Y-4.1842
X8.1412Y-4.2842
X8.1412Y-4.3842
X8.1412Y-4.4842
X8.1412Y-4.5842
X8.1412Y-4.6842
X8.1412Y-4.7842
X8.1412Y-5.1842
X8.1412Y-5.2842
X8.1412Y-5.3842
X8.1412Y-5.4842
X8.1412Y-5.5842
X8.1412Y-5.6842
X8.1412Y-5.7842
X8.1412Y-5.8842
X8.3428Y-3.7292
X8.3428Y-5.0692
X8.4412Y-3.7292
X8.4412Y-3.8842
X8.4412Y-3.9842
X8.4412Y-4.0842
X8.4412Y-4.1842
X8.4412Y-4.2842
X8.4412Y-4.3842
X8.4412Y-4.4842
X8.4412Y-4.5842
X8.4412Y-4.6842
X8.4412Y-4.7842
X8.4412Y-5.0692
X8.4412Y-5.1842
X8.4412Y-5.2842
X8.4412Y-5.3842
X8.4412Y-5.4842
X8.4412Y-5.5842
X8.4412Y-5.6842
X8.4412Y-5.7842
X8.4412Y-5.8842
X8.6616Y-3.7092
X8.6616Y-3.8092
X8.6616Y-3.9092
X8.6616Y-4.0092
X8.6616Y-4.1092
X8.6616Y-4.2092
X8.6616Y-4.3092
X8.6616Y-4.4092
X8.6616Y-4.5092
X8.6616Y-4.6092
X8.6616Y-4.7092
X8.6616Y-4.8092
X8.6712Y-5.1842
X8.6712Y-5.2842
X8.6712Y-5.3842
X8.6712Y-5.4842
X8.6712Y-5.5842
X8.6712Y-5.6842
X8.6712Y-5.7842
X8.6712Y-5.8842
X8.8728Y-5.0592
X8.9712Y-5.0592
X8.9712Y-5.1842
X8.9712Y-5.2842
X8.9712Y-5.3842
X8.9712Y-5.4842
X8.9712Y-5.5842
X8.9712Y-5.6842
X8.9712Y-5.7842
X8.9712Y-5.8842
X9.1912Y-5.1842
X9.1912Y-5.2842
X9.1912Y-5.3842
X9.1912Y-5.4842
X9.1912Y-5.5842
X9.1912Y-5.6842
X9.1912Y-5.7842
X9.1912Y-5.8842
X9.2616Y-3.7092
X9.2616Y-3.8092
X9.2616Y-3.9092
X9.2616Y-4.0092
X9.2616Y-4.1092
X9.2616Y-4.2092
X9.2616Y-4.3092
X9.2616Y-4.4092
X9.2616Y-4.5092
X9.2616Y-4.6092
X9.2616Y-4.7092
X9.2616Y-4.8092
X9.38Y-3.71
X9.38Y-3.8084
X9.3928Y-5.0592
X9.4912Y-5.0592
X9.4912Y-5.1842
X9.4912Y-5.2842
X9.4912Y-5.3842
X9.4912Y-5.4842
X9.4912Y-5.5842
X9.4912Y-5.6842
X9.4912Y-5.7842
X9.4912Y-5.8842
X9.4916Y-4.1588
X9.4916Y-4.2588
X9.4916Y-4.3588
X9.4916Y-4.4588
X9.4916Y-4.5588
X9.4916Y-4.6588
X9.4916Y-4.7588
X9.4916Y-4.8588
X9.61Y-3.82
X9.6931Y-4.0388
X9.7084Y-3.82
X9.7916Y-4.0388
X9.7916Y-4.1588
X9.7916Y-4.2588
X9.7916Y-4.3588
X9.7916Y-4.4588
X9.7916Y-4.5588
X9.7916Y-4.6588
X9.7916Y-4.7588
X9.7916Y-4.8588
T5
X9.0412Y-3.4842
X9.1412Y-3.4842
X9.6698Y-3.4
X9.7698Y-3.4
X10.0106Y-3.2479
X10.0106Y-3.3464
X10.0106Y-3.4448
X10.1405Y-3.2479
X10.1405Y-3.3464
X10.1405Y-3.4448
T6
X1.4412Y-3.16
X1.4412Y-3.26
X1.4412Y-3.36
X1.4912Y-5.4592
X1.4912Y-5.5592
X1.4912Y-5.6592
X1.4912Y-5.7592
X1.4912Y-5.8592
X1.5412Y-3.16
X1.5412Y-3.26
X1.5412Y-3.36
X1.6412Y-3.16
X1.6412Y-3.26
X1.6412Y-3.36
X1.7412Y-3.16
X1.7412Y-3.26
X1.7412Y-3.36
X1.8412Y-3.16
X1.8412Y-3.26
X1.8412Y-3.36
X1.9412Y-3.16
X1.9412Y-3.26
X1.9412Y-3.36
X2.0412Y-3.16
X2.0412Y-3.26
X2.0412Y-3.36
X2.1412Y-3.16
X2.1412Y-3.26
X2.1412Y-3.36
X2.2412Y-3.16
X2.2412Y-3.26
X2.2412Y-3.36
X2.3412Y-3.16
X2.3412Y-3.26
X2.3412Y-3.36
X2.4412Y-3.16
X2.4412Y-3.26
X2.4412Y-3.36
X2.5412Y-3.16
X2.5412Y-3.26
X2.5412Y-3.36
X2.6412Y-3.16
X2.6412Y-3.26
X2.6412Y-3.36
X2.7412Y-3.16
X2.7412Y-3.26
X2.7412Y-3.36
X2.8412Y-3.16
X2.8412Y-3.26
X2.8412Y-3.36
X2.9412Y-3.16
X2.9412Y-3.26
X2.9412Y-3.36
X3.0412Y-3.16
X3.0412Y-3.26
X3.0412Y-3.36
X3.1412Y-3.16
X3.1412Y-3.26
X3.1412Y-3.36
X3.2412Y-3.16
X3.2412Y-3.26
X3.2412Y-3.36
X3.3412Y-3.16
X3.3412Y-3.26
X3.3412Y-3.36
X3.4412Y-3.16
X3.4412Y-3.26
X3.4412Y-3.36
X3.5412Y-3.16
X3.5412Y-3.26
X3.5412Y-3.36
X4.1414Y-3.1592
X4.1414Y-3.2592
X4.1414Y-3.3592
X4.2414Y-3.1592
X4.2414Y-3.2592
X4.2414Y-3.3592
X4.3414Y-3.1592
X4.3414Y-3.2592
X4.3414Y-3.3592
X4.4414Y-3.1592
X4.4414Y-3.2592
X4.4414Y-3.3592
X4.5414Y-3.1592
X4.5414Y-3.2592
X4.5414Y-3.3592
X4.6414Y-3.1592
X4.6414Y-3.2592
X4.6414Y-3.3592
X4.7414Y-3.1592
X4.7414Y-3.2592
X4.7414Y-3.3592
X4.8414Y-3.1592
X4.8414Y-3.2592
X4.8414Y-3.3592
X4.9414Y-3.1592
X4.9414Y-3.2592
X4.9414Y-3.3592
X5.0414Y-3.1592
X5.0414Y-3.2592
X5.0414Y-3.3592
X5.1414Y-3.1592
X5.1414Y-3.2592
X5.1414Y-3.3592
X5.2414Y-3.1592
X5.2414Y-3.2592
X5.2414Y-3.3592
X5.29Y-4.05
X5.3414Y-3.1592
X5.3414Y-3.2592
X5.3414Y-3.3592
X5.39Y-4.05
X5.4414Y-3.1592
X5.4414Y-3.2592
X5.4414Y-3.3592
X5.49Y-4.05
X5.5414Y-3.1592
X5.5414Y-3.2592
X5.5414Y-3.3592
X5.59Y-4.05
X5.6414Y-3.1592
X5.6414Y-3.2592
X5.6414Y-3.3592
X5.69Y-4.05
X5.7414Y-3.1592
X5.7414Y-3.2592
X5.7414Y-3.3592
X5.79Y-4.05
X5.8414Y-3.1592
X5.8414Y-3.2592
X5.8414Y-3.3592
X5.89Y-4.05
X5.9414Y-3.1592
X5.9414Y-3.2592
X5.9414Y-3.3592
X5.99Y-4.05
X6.0414Y-3.1592
X6.0414Y-3.2592
X6.0414Y-3.3592
X6.09Y-4.05
X6.1414Y-3.1592
X6.1414Y-3.2592
X6.1414Y-3.3592
X6.2414Y-3.1592
X6.2414Y-3.2592
X6.2414Y-3.3592
T7
X1.152Y-5.0214
X1.152Y-5.1986
X1.408Y-5.0214
X1.408Y-5.1986
T8
X7.4162Y-3.2092
X7.4912Y-3.0092
X7.5662Y-3.2092
X7.6412Y-3.0092
X7.7162Y-3.2092
X7.7912Y-3.0092
X7.8662Y-3.2092
X7.9412Y-3.0092
X8.0162Y-3.2092
X8.0912Y-3.0092
X8.1662Y-3.2092
X8.2412Y-3.0092
X8.3162Y-3.2092
X8.3912Y-3.0092
X8.4662Y-3.2092
X8.5412Y-3.0092
X8.6162Y-3.2092
X8.6912Y-3.0092
X8.7662Y-3.2092
X8.8412Y-3.0092
X8.9162Y-3.2092
T6
G00X9.435Y-2.9887
M15
G01X9.435Y-3.0675
M16
G05
G00X9.6594Y-2.91
M15
G01X9.5806Y-2.91
M16
G05
G00X9.6594Y-3.1462
M15
G01X9.5806Y-3.1462
M16
G05
T0
M30
